<?xml version="1.0" encoding="UTF-8" standalone="no"?>
<!-- Created with Inkscape (http://www.inkscape.org/) -->

<svg
   version="1.1"
   id="svg1"
   width="393.75504"
   height="181.44922"
   viewBox="0 0 393.75504 181.44922"
   sodipodi:docname="AM_phasor.pdf"
   xmlns:inkscape="http://www.inkscape.org/namespaces/inkscape"
   xmlns:sodipodi="http://sodipodi.sourceforge.net/DTD/sodipodi-0.dtd"
   xmlns="http://www.w3.org/2000/svg"
   xmlns:svg="http://www.w3.org/2000/svg">
  <defs
     id="defs1" />
  <sodipodi:namedview
     id="namedview1"
     pagecolor="#ffffff"
     bordercolor="#666666"
     borderopacity="1.0"
     inkscape:showpageshadow="2"
     inkscape:pageopacity="0.0"
     inkscape:pagecheckerboard="0"
     inkscape:deskcolor="#d1d1d1"
     showgrid="false">
    <inkscape:page
       x="0"
       y="0"
       inkscape:label="1"
       id="page1"
       width="393.75504"
       height="181.44922"
       margin="0"
       bleed="0" />
  </sodipodi:namedview>
  <g
     id="g1"
     inkscape:groupmode="layer"
     inkscape:label="1"
     transform="translate(-0.26450854,-4.4257813)">
    <path
       id="path1"
       d="M 42.5202,0 C 42.5202,23.48355 23.48355,42.5202 0,42.5202 -23.48355,42.5202 -42.5202,23.48355 -42.5202,0 c 0,-23.48355 19.03665,-42.5202 42.5202,-42.5202 23.48355,0 42.5202,19.03665 42.5202,42.5202 z"
       style="fill:none;stroke:#000000;stroke-width:0.3985;stroke-linecap:butt;stroke-linejoin:miter;stroke-miterlimit:10;stroke-dasharray:2.98883, 2.98883;stroke-dashoffset:0;stroke-opacity:1"
       transform="matrix(1.3333333,0,0,-1.3333333,75.856,93.788)" />
    <path
       id="path2"
       d="m 42.5202,0 c 0,11.27495 -4.48134,22.09381 -10.19954,27.81203"
       style="fill:none;stroke:#ff0000;stroke-width:1.19553;stroke-linecap:butt;stroke-linejoin:miter;stroke-miterlimit:10;stroke-dasharray:none;stroke-opacity:1"
       transform="matrix(1.3333333,0,0,-1.3333333,75.856,93.788)" />
    <path
       id="path3"
       d="M 3.18808,0 -1.91284,2.55046 0,0 -1.91284,-2.55046"
       style="fill:#ff0000;fill-opacity:1;fill-rule:nonzero;stroke:none"
       transform="matrix(-0.9428,-0.9428,-0.9428,0.9428,118.95021,56.705293)" />
    <g
       id="g3"
       aria-label="e&#10;j2πf&#10;c&#10;t"
       transform="matrix(1.3333333,0,0,1.3333333,124.67155,54.219429)">
      <path
         id="path4"
         d="m 1.8632578,-2.2969922 c 0.2929688,0 1.03125,-0.023437 1.5234375,-0.234375 0.703125,-0.2929687 0.75,-0.890625 0.75,-1.0195312 0,-0.4453125 -0.3867187,-0.8554688 -1.0664062,-0.8554688 -1.1132813,0 -2.61328129,0.9726563 -2.61328129,2.7070313 0,1.01953121 0.58593749,1.80468746 1.57031249,1.80468746 1.4179688,0 2.2617188,-1.0546875 2.2617188,-1.17187496 0,-0.058594 -0.070312,-0.1289063 -0.1289063,-0.1289063 -0.046875,0 -0.070312,0.023437 -0.1289062,0.09375 -0.7851563,0.99609376 -1.875,0.99609376 -1.9921875,0.99609376 -0.7734375,0 -0.8671875,-0.84375 -0.8671875,-1.16015626 0,-0.1171875 0.011719,-0.4335937 0.1640625,-1.03125 z m -0.46875,-0.2226562 c 0.3867188,-1.5117188 1.4179688,-1.6640625 1.6757813,-1.6640625 0.46875,0 0.7382812,0.2929687 0.7382812,0.6328125 0,1.03125 -1.59375,1.03125 -2.0039062,1.03125 z m 0,0"
         style="fill:#000000;fill-opacity:1;fill-rule:nonzero;stroke:none" />
      <path
         id="path5"
         d="m 6.3368906,-7.9161328 c 0,-0.234375 -0.1992187,-0.3984375 -0.3984375,-0.3984375 -0.2460937,0 -0.4101562,0.1992187 -0.4101562,0.3984375 0,0.2460937 0.1992187,0.3984375 0.3984375,0.3984375 0.2460937,0 0.4101562,-0.1875 0.4101562,-0.3984375 z m -1.1015625,1.3007812 v 0.2578125 c 0.515625,0 0.5742188,0.046875 0.5742188,0.3867188 v 2.6953125 c 0,0.2578125 -0.058594,0.890625 -0.5273438,0.890625 -0.011719,0 -0.1875,0 -0.3398437,-0.070312 0.011719,-0.011719 0.1640625,-0.09375 0.1640625,-0.3046875 0,-0.1875 -0.1289063,-0.328125 -0.328125,-0.328125 -0.1992188,0 -0.328125,0.140625 -0.328125,0.3398437 0,0.375 0.421875,0.5507813 0.84375,0.5507813 0.5625,0 1.0429687,-0.4335938 1.0429687,-1.1015625 v -3.3867188 z m 5.3906249,1.734375 h -0.234375 c -0.02344,0.1523438 -0.08203,0.5625 -0.175781,0.6328125 -0.05859,0.035156 -0.5976564,0.035156 -0.6914064,0.035156 H 8.2353281 c 0.7382813,-0.6445313 0.984375,-0.84375 1.3945313,-1.171875 0.5156246,-0.4101563 0.9960936,-0.84375 0.9960936,-1.5 0,-0.84375 -0.7382811,-1.359375 -1.6289061,-1.359375 -0.8671875,0 -1.453125,0.609375 -1.453125,1.2421875 0,0.3632812 0.3046875,0.3984375 0.375,0.3984375 0.1640625,0 0.375,-0.1171875 0.375,-0.375 0,-0.1289063 -0.058594,-0.3632813 -0.421875,-0.3632813 0.2226562,-0.5039062 0.6914062,-0.65625 1.0195312,-0.65625 0.703125,0 1.0664063,0.5507813 1.0664063,1.1132813 0,0.609375 -0.4335938,1.0898437 -0.65625,1.3359375 l -1.6875,1.6640625 c -0.070312,0.058594 -0.070312,0.070312 -0.070312,0.2695312 h 2.8828126 z m 0,0"
         style="fill:#000000;fill-opacity:1;fill-rule:nonzero;stroke:none" />
      <path
         id="path6"
         d="m 13.248023,-6.1466016 h 0.832032 c -0.105469,0.421875 -0.257813,1.0546875 -0.257813,1.6054688 0,0.28125 0.03516,0.46875 0.07031,0.6210937 0.117187,0.3515625 0.210937,0.375 0.316406,0.375 0.164062,0 0.328125,-0.1523437 0.328125,-0.3164062 0,-0.058594 -0.01172,-0.082031 -0.05859,-0.1523438 -0.128906,-0.2578125 -0.257812,-0.65625 -0.257812,-1.2304687 0,-0.1289063 0,-0.4101563 0.105468,-0.9023438 h 0.867188 c 0.128906,0 0.1875,0 0.257812,-0.058594 0.09375,-0.070312 0.117188,-0.1757813 0.117188,-0.2109375 0,-0.1992188 -0.175781,-0.1992188 -0.292969,-0.1992188 h -2.636719 c -0.28125,0 -0.480468,0.058594 -0.796875,0.3515625 -0.175781,0.1640625 -0.445312,0.5390625 -0.445312,0.5976563 0,0.082031 0.09375,0.082031 0.117187,0.082031 0.07031,0 0.08203,-0.011719 0.128907,-0.070312 0.351562,-0.4921875 0.785156,-0.4921875 0.9375,-0.4921875 h 0.421875 c -0.210938,0.7617188 -0.585938,1.59375 -0.796875,2.0039063 -0.04687,0.09375 -0.117188,0.2460937 -0.140625,0.2695312 0,0.023437 -0.01172,0.058594 -0.01172,0.1054688 0,0.1054687 0.08203,0.2226562 0.246094,0.2226562 0.269531,0 0.351562,-0.3164062 0.515625,-0.9375 z m 5.578125,-0.2226562 h 0.679688 c 0.140625,0 0.234375,0 0.234375,-0.1523438 0,-0.09375 -0.09375,-0.09375 -0.210938,-0.09375 h -0.65625 c 0.164063,-0.890625 0.222657,-1.2070312 0.28125,-1.4179687 0.03516,-0.1523438 0.1875,-0.2929688 0.351563,-0.2929688 0,0 0.199219,0 0.328125,0.082031 -0.292969,0.09375 -0.304688,0.3398437 -0.304688,0.3867187 0,0.1523438 0.117188,0.2578125 0.269532,0.2578125 0.199218,0 0.398437,-0.1640625 0.398437,-0.4335937 0,-0.3164063 -0.339844,-0.4921875 -0.691406,-0.4921875 -0.304688,0 -0.644531,0.1757812 -0.84375,0.5273437 -0.128906,0.2578125 -0.1875,0.5742188 -0.339844,1.3828125 h -0.550781 c -0.140625,0 -0.222656,0 -0.222656,0.1523438 0,0.09375 0.08203,0.09375 0.210937,0.09375 h 0.515625 c 0,0.046875 -0.445312,2.5546875 -0.609375,3.2929687 -0.03516,0.1640625 -0.152344,0.6914063 -0.492187,0.6914063 0,0 -0.175782,0 -0.304688,-0.082031 0.28125,-0.09375 0.304688,-0.3515625 0.304688,-0.3867187 0,-0.1523438 -0.117188,-0.2578125 -0.28125,-0.2578125 -0.1875,0 -0.398438,0.1640625 -0.398438,0.421875 0,0.3164062 0.328125,0.4921875 0.679688,0.4921875 0.445312,0 0.75,-0.4570313 0.84375,-0.609375 0.246093,-0.46875 0.410156,-1.3242188 0.421875,-1.40625 z m 0,0"
         style="fill:#000000;fill-opacity:1;fill-rule:nonzero;stroke:none" />
      <path
         id="path7"
         d="m 22.441383,-4.5411328 c -0.09375,0.023437 -0.234375,0.1289062 -0.234375,0.2929687 0,0.1289063 0.09375,0.2109375 0.222656,0.2109375 0.117188,0 0.304688,-0.09375 0.304688,-0.3398437 0,-0.375 -0.480469,-0.4453125 -0.75,-0.4453125 -0.84375,0 -1.582032,0.6914062 -1.582032,1.3476562 0,0.4335938 0.328125,0.9140625 1.078125,0.9140625 0.09375,0 0.492188,0 0.832032,-0.1289062 0.328125,-0.1289063 0.527343,-0.3632813 0.527343,-0.421875 0,-0.035156 -0.05859,-0.1054688 -0.105468,-0.1054688 -0.02344,0 -0.03516,0 -0.105469,0.082031 -0.234375,0.2460937 -0.644531,0.3984375 -1.148438,0.3984375 -0.410156,0 -0.609375,-0.234375 -0.609375,-0.5742188 0,-0.5039062 0.328125,-1.3359375 1.113282,-1.3359375 0.04687,0 0.304687,0 0.457031,0.1054691 z m 0,0"
         style="fill:#000000;fill-opacity:1;fill-rule:nonzero;stroke:none" />
      <path
         id="path8"
         d="m 25.318336,-6.3692578 h 0.714844 c 0.128906,0 0.222656,0 0.222656,-0.1523438 0,-0.09375 -0.09375,-0.09375 -0.210938,-0.09375 h -0.65625 l 0.257813,-1.0429687 c 0,-0.023437 0.02344,-0.058594 0.02344,-0.09375 0,-0.1289063 -0.105468,-0.2226563 -0.246093,-0.2226563 -0.175782,0 -0.28125,0.1171875 -0.328125,0.3046875 -0.04687,0.1757813 0.04687,-0.1640625 -0.257813,1.0546875 h -0.714844 c -0.128906,0 -0.222656,0 -0.222656,0.1523438 0,0.09375 0.08203,0.09375 0.210938,0.09375 h 0.65625 l -0.410157,1.640625 c -0.03516,0.1757812 -0.105468,0.4335937 -0.105468,0.515625 0,0.421875 0.351562,0.6679687 0.75,0.6679687 0.773437,0 1.21875,-0.9726562 1.21875,-1.0664062 0,-0.09375 -0.09375,-0.09375 -0.117188,-0.09375 -0.08203,0 -0.09375,0.011719 -0.140625,0.1289062 -0.199219,0.4453125 -0.550781,0.8320313 -0.9375,0.8320313 -0.152344,0 -0.246094,-0.082031 -0.246094,-0.3398438 0,-0.070312 0.02344,-0.2109375 0.04687,-0.28125 z m 0,0"
         style="fill:#000000;fill-opacity:1;fill-rule:nonzero;stroke:none" />
    </g>
    <path
       id="path9"
       d="M -56.69362,0 H 54.7011"
       style="fill:none;stroke:#000000;stroke-width:0.3985;stroke-linecap:butt;stroke-linejoin:miter;stroke-miterlimit:10;stroke-dasharray:none;stroke-opacity:1"
       transform="matrix(1.3333333,0,0,-1.3333333,75.856,93.788)" />
    <path
       id="path10"
       d="M 1.99252,0 -1.19551,1.59401 0,0 -1.19551,-1.59401"
       style="fill:#000000;fill-opacity:1;fill-rule:nonzero;stroke:none"
       transform="matrix(1.3333333,0,0,-1.3333333,148.7908,93.788)" />
    <path
       id="path11"
       d="m 4.0317188,-6.2567187 c 1.9101562,0 2.4140625,0.46875 2.4140625,1.125 0,0.609375 -0.4804688,1.8046875 -2.1210938,1.8632812 -0.4921875,0.023437 -0.8320312,0.375 -0.8320312,0.4804688 0,0.058594 0.046875,0.058594 0.058594,0.058594 0.4101563,0.070312 0.609375,0.2695313 1.1367188,1.4414063 C 5.145,-0.23328125 5.4028125,0.22375 5.98875,0.22375 c 1.2070313,0 2.34375,-1.2304687 2.34375,-1.453125 0,-0.070312 -0.070312,-0.070312 -0.1054687,-0.070312 -0.1171875,0 -0.5039063,0.140625 -0.7148438,0.43359375 -0.1640625,0.234375 -0.375,0.5390625 -0.8671875,0.5390625 -0.5039062,0 -0.8203125,-0.70312495 -1.1601562,-1.48828125 C 5.285625,-2.3075 5.098125,-2.6825 4.8754688,-2.9520312 6.316875,-3.479375 7.2895313,-4.5223437 7.2895313,-5.5535937 7.2895313,-6.8075 5.61375,-6.8075 4.11375,-6.8075 c -0.9960937,0 -1.5585937,0 -2.390625,0.3632813 -1.3359375,0.5859375 -1.51171875,1.4179687 -1.51171875,1.5 0,0.058594 0.0351563,0.070312 0.09375,0.070312 0.1640625,0 0.3984375,-0.140625 0.46875,-0.1875 C 0.98484375,-5.2020312 1.02,-5.260625 1.0785938,-5.448125 c 0.140625,-0.3984375 0.421875,-0.75 1.6757812,-0.8085937 -0.058594,0.609375 -0.140625,1.5351562 -0.4804687,2.9882812 -0.2695313,1.1132813 -0.6445313,2.2148438 -1.078125,3.28125 -0.046875,0.10546875 -0.046875,0.12890625 -0.046875,0.140625 0,0.0703125 0.082031,0.0703125 0.09375,0.0703125 0.1992187,0 0.6210937,-0.24609375 0.7265625,-0.43359375 0.023437,-0.046875 1.2890625,-2.85937495 1.59375,-6.04687495 z m 0,0"
       style="fill:#000000;fill-opacity:1;fill-rule:nonzero;stroke:none"
       aria-label="R"
       transform="matrix(1.3333333,0,0,1.3333333,156.14,98.326667)" />
    <path
       id="path12"
       d="M 0,-56.69362 V 54.7011"
       style="fill:none;stroke:#000000;stroke-width:0.3985;stroke-linecap:butt;stroke-linejoin:miter;stroke-miterlimit:10;stroke-dasharray:none;stroke-opacity:1"
       transform="matrix(1.3333333,0,0,-1.3333333,75.856,93.788)" />
    <path
       id="path13"
       d="M 1.99252,0 -1.19551,1.59401 0,0 -1.19551,-1.59401"
       style="fill:#000000;fill-opacity:1;fill-rule:nonzero;stroke:none"
       transform="matrix(0,-1.3333333,-1.3333333,0,75.856,20.8532)" />
    <path
       id="path14"
       d="m 3.5395625,-6.8086641 c -1.2421875,0 -1.78125,0.234375 -2.015625,0.328125 -1.01953125,0.421875 -1.2421875,1.1015625 -1.2421875,1.2304688 0,0.070312 0.046875,0.082031 0.10546875,0.082031 0.17578125,0 0.65625005,-0.2460937 0.73828125,-0.46875 0.1171875,-0.375 0.1523438,-0.46875 0.8203125,-0.5625 0.3398438,-0.035156 0.6679688,-0.058594 1.0078125,-0.058594 h 0.9023438 c -0.6328125,0.609375 -0.9140625,1.6757812 -1.2773438,3.1054687 -0.28125,1.1835938 -0.515625,1.9570313 -0.9257812,2.48437504 -0.09375,0.10546875 -0.1054688,0.1171875 -0.375,0.1171875 H 0.6333125 c -0.1875,0 -0.29296875,0 -0.5390625,0.15234375 -0.1171875,0.0585938 -0.328125,0.234375 -0.328125,0.328125 0,0.05859375 0,0.0703124975 0.22265625,0.0703124975 H 3.3989375 c 1.1601563,0 2.0273438,-0.8671874975 2.0273438,-1.2304687875 0,-0.070312 -0.082031,-0.070312 -0.1054688,-0.070312 -0.1757812,0 -0.6328125,0.234375 -0.7382812,0.48046879 -0.070312,0.2109375 -0.09375,0.26953125 -0.5976563,0.26953125 H 2.0864375 C 2.7895625,-1.1602266 3.09425,-2.1446016 3.422375,-3.4922578 3.6919063,-4.5821016 3.938,-5.5430391 4.3481563,-6.1524141 c 0.058594,-0.09375 0.070312,-0.1054687 0.2695312,-0.1054687 h 0.84375 c 0.1992188,0 0.28125,0 0.5507813,-0.1523438 0.082031,-0.046875 0.3164062,-0.1992187 0.3164062,-0.328125 0,-0.058594 -0.011719,-0.070312 -0.234375,-0.070312 z m 0,0"
       style="fill:#000000;fill-opacity:1;fill-rule:nonzero;stroke:none"
       aria-label="I"
       transform="matrix(1.3333333,0,0,1.3333333,71.749333,13.504)" />
    <path
       id="path15"
       d="m 0.5633125,-3.4108281 c 0,2.0625 1.6054688,3.63281248 3.4570313,3.63281248 1.6289062,0 2.6015625,-1.38281248 2.6015625,-2.54296878 0,-0.1054687 0,-0.1757812 -0.1289063,-0.1757812 -0.1054687,0 -0.1054687,0.070312 -0.1171875,0.1640625 -0.082031,1.42968748 -1.1484375,2.23828123 -2.2265625,2.23828123 -0.609375,0 -2.5664062,-0.33984375 -2.5664062,-3.30468753 0,-2.9765625 1.9453125,-3.3164062 2.5546875,-3.3164062 1.078125,0 1.96875,0.9023437 2.1679687,2.3671875 0.023437,0.1289062 0.023437,0.1640625 0.1640625,0.1640625 0.1523438,0 0.1523438,-0.035156 0.1523438,-0.234375 v -2.3671875 c 0,-0.1640625 0,-0.234375 -0.1054688,-0.234375 -0.035156,0 -0.082031,0 -0.1640625,0.1171875 l -0.4921875,0.7382812 c -0.375,-0.3632812 -0.8789062,-0.8554687 -1.8398437,-0.8554687 -1.8632813,0 -3.4570313,1.5820312 -3.4570313,3.609375 z m 9.9492185,2.64843748 c 0.03516,0.3984375 0.304688,0.8203125 0.773438,0.8203125 0.210937,0 0.820312,-0.140625 0.820312,-0.94921875 V -1.4420781 h -0.246093 v 0.55078123 c 0,0.5859375 -0.246094,0.64453125 -0.363282,0.64453125 -0.328125,0 -0.363281,-0.45703125 -0.363281,-0.50390625 V -2.7428594 c 0,-0.4101562 0,-0.8085937 -0.363281,-1.171875 -0.386719,-0.3867187 -0.8789065,-0.5507812 -1.3593752,-0.5507812 -0.8203125,0 -1.5117188,0.46875 -1.5117188,1.125 0,0.3046875 0.1992188,0.46875 0.4570313,0.46875 0.28125,0 0.46875,-0.1992188 0.46875,-0.4570313 0,-0.1171875 -0.058594,-0.4453125 -0.515625,-0.4570312 0.2695312,-0.3515625 0.7617187,-0.4570313 1.078125,-0.4570313 0.4921875,0 1.0546877,0.3867188 1.0546877,1.2773438 v 0.3632812 c -0.5039065,0.035156 -1.2070315,0.058594 -1.8281252,0.3632813 -0.75,0.3398437 -0.9960938,0.8554687 -0.9960938,1.28906248 0,0.80859375 0.9609375,1.0546875 1.59375,1.0546875 0.65625,0 1.113281,-0.3984375 1.300781,-0.8671875 z m -0.07031,-1.62890628 v 0.9960938 c 0,0.94921873 -0.714844,1.28906248 -1.1601565,1.28906248 -0.4921875,0 -0.9023437,-0.3515625 -0.9023437,-0.85546875 0,-0.53906253 0.421875,-1.37109373 2.0625002,-1.42968753 z m 3.398437,-0.9140625 v -1.1015625 l -1.382812,0.1171875 v 0.3046875 c 0.691406,0 0.773437,0.070312 0.773437,0.5625 v 2.66015628 c 0,0.45703125 -0.105468,0.45703125 -0.773437,0.45703125 v 0.304687495 c 0.386719,-0.011718745 0.855469,-0.035156245 1.136719,-0.035156245 0.398437,0 0.867187,0 1.265625,0.035156245 V -0.30535937 h -0.21094 c -0.738281,0 -0.761719,-0.1171875 -0.761719,-0.46875 V -2.3092656 c 0,-0.984375 0.421875,-1.875 1.183594,-1.875 0.05859,0 0.08203,0 0.105469,0.011719 -0.03516,0.011719 -0.234375,0.1289063 -0.234375,0.3867188 0,0.28125 0.210937,0.4335937 0.433594,0.4335937 0.175781,0 0.421875,-0.1289062 0.421875,-0.4453125 0,-0.3164062 -0.304688,-0.609375 -0.726563,-0.609375 -0.738281,0 -1.089844,0.6679688 -1.230469,1.1015625 z m 3.902344,0 v -1.1015625 l -1.382812,0.1171875 v 0.3046875 c 0.691406,0 0.773437,0.070312 0.773437,0.5625 v 2.66015628 c 0,0.45703125 -0.105469,0.45703125 -0.773437,0.45703125 v 0.304687495 c 0.386718,-0.011718745 0.855468,-0.035156245 1.136718,-0.035156245 0.398438,0 0.867188,0 1.265625,0.035156245 V -0.30535937 h -0.210937 c -0.738281,0 -0.761719,-0.1171875 -0.761719,-0.46875 V -2.3092656 c 0,-0.984375 0.421875,-1.875 1.183594,-1.875 0.05859,0 0.08203,0 0.105469,0.011719 -0.03516,0.011719 -0.234375,0.1289063 -0.234375,0.3867188 0,0.28125 0.210937,0.4335937 0.433593,0.4335937 0.175782,0 0.421875,-0.1289062 0.421875,-0.4453125 0,-0.3164062 -0.304687,-0.609375 -0.726562,-0.609375 -0.738281,0 -1.089844,0.6679688 -1.230469,1.1015622 z m 3.996094,-1.1015625 -1.394531,0.1171875 v 0.3046875 c 0.65625,0 0.738281,0.058594 0.738281,0.5507813 v 2.67187498 c 0,0.45703125 -0.105469,0.45703125 -0.773438,0.45703125 v 0.304687495 c 0.316407,-0.011718745 0.855469,-0.035156245 1.101563,-0.035156245 0.339844,0 0.691406,0.0234375 1.03125,0.035156245 V -0.30535937 c -0.65625,0 -0.703125,-0.0585938 -0.703125,-0.4453125 z m 0.04687,-1.734375 c 0,-0.3164062 -0.246094,-0.5273437 -0.527344,-0.5273437 -0.316406,0 -0.527344,0.2695312 -0.527344,0.5273437 0,0.2695313 0.210938,0.5273438 0.527344,0.5273438 0.28125,0 0.527344,-0.1992188 0.527344,-0.5273438 z m 2.077148,3.6328125 c 0.05859,-1.4882812 0.902344,-1.734375 1.242188,-1.734375 1.019531,0 1.125,1.3476563 1.125,1.734375 z m -0.01172,0.2109375 h 2.789063 c 0.210937,0 0.246094,0 0.246094,-0.2109375 0,-0.984375 -0.539063,-1.9570312 -1.78125,-1.9570312 -1.160157,0 -2.074219,1.03125 -2.074219,2.2734375 0,1.33593748 1.042969,2.29687498 2.191406,2.29687498 1.21875,0 1.664063,-1.1015625 1.664063,-1.28906248 0,-0.1054688 -0.08203,-0.1171875 -0.128907,-0.1171875 -0.09375,0 -0.117187,0.058594 -0.128906,0.140625 -0.351562,1.01953123 -1.253906,1.01953123 -1.347656,1.01953123 -0.503906,0 -0.902344,-0.29296875 -1.125,-0.66796875 C 23.851398,-1.2897344 23.851398,-1.9459844 23.851398,-2.2975469 Z m 4.989258,-1.0078125 v -1.1015625 l -1.382812,0.1171875 v 0.3046875 c 0.691406,0 0.773437,0.070312 0.773437,0.5625 v 2.66015628 c 0,0.45703125 -0.105468,0.45703125 -0.773437,0.45703125 v 0.304687495 c 0.386719,-0.011718745 0.855469,-0.035156245 1.136719,-0.035156245 0.398437,0 0.867187,0 1.265625,0.035156245 V -0.30535937 H 29.64925 c -0.738281,0 -0.761719,-0.1171875 -0.761719,-0.46875 V -2.3092656 c 0,-0.984375 0.421875,-1.875 1.183594,-1.875 0.05859,0 0.08203,0 0.105469,0.011719 -0.03516,0.011719 -0.234375,0.1289063 -0.234375,0.3867188 0,0.28125 0.210937,0.4335937 0.433594,0.4335937 0.175781,0 0.421875,-0.1289062 0.421875,-0.4453125 0,-0.3164062 -0.304688,-0.609375 -0.726563,-0.609375 -0.738281,0 -1.089844,0.6679688 -1.230469,1.1015625 z m 0,0"
       style="fill:#000000;fill-opacity:1;fill-rule:nonzero;stroke:none"
       aria-label="Carrier"
       transform="matrix(1.3333333,0,0,1.3333333,17.342667,183.14933)" />
    <path
       id="path16"
       d="m 1.3596016,-0.77278125 c 0,0.3515625 -0.023437,0.46875 -0.79687504,0.46875 h -0.234375 V 6.5625e-4 H 6.0822578 L 6.4924141,-2.56575 H 6.2463203 C 6.0002266,-1.0305937 5.7658516,-0.30403125 4.0549141,-0.30403125 H 2.7306953 c -0.46875,0 -0.4921875,-0.0703125 -0.4921875,-0.3984375 V -3.362625 h 0.9023438 c 0.9609375,0 1.078125,0.3164063 1.078125,1.1601563 H 4.4650703 V -4.8391875 H 4.2189766 c 0,0.8554688 -0.1171875,1.1601563 -1.078125,1.1601563 H 2.2385078 v -2.390625 c 0,-0.328125 0.023437,-0.3984375 0.4921875,-0.3984375 h 1.2890625 c 1.5234375,0 1.7929688,0.5507812 1.9453125,1.9335937 H 6.2111641 L 5.9416328,-6.7727812 H 0.32835156 v 0.3046875 h 0.234375 c 0.77343754,0 0.79687504,0.1171875 0.79687504,0.46875 z M 7.8810859,-3.4212187 v 2.6601562 c 0,0.45703125 -0.1171875,0.45703125 -0.7851562,0.45703125 V 6.5625e-4 C 7.4474922,-0.0110625 7.9513984,-0.0345 8.2209297,-0.0345 c 0.2578125,0 0.7851562,0.0234375 1.1132812,0.03515625 v -0.3046875 c -0.65625,0 -0.7734375,0 -0.7734375,-0.45703125 v -1.828125 c 0,-1.03125 0.7148438,-1.59375 1.3476563,-1.59375 0.6210933,0 0.7382813,0.5390625 0.7382813,1.1015625 v 2.3203125 c 0,0.45703125 -0.117188,0.45703125 -0.7734376,0.45703125 V 6.5625e-4 C 10.213117,-0.0110625 10.728742,-0.0345 10.998273,-0.0345 c 0.257813,0 0.773438,0.0234375 1.113282,0.03515625 v -0.3046875 c -0.515625,0 -0.773438,0 -0.785157,-0.3046875 V -2.5071562 c 0,-0.8554688 0,-1.171875 -0.304687,-1.5234375 -0.140625,-0.1757813 -0.46875,-0.375 -1.0429688,-0.375 -0.7265625,0 -1.1953125,0.4335937 -1.4765625,1.0546875 v -1.0546875 l -1.40625,0.1171875 v 0.3046875 c 0.703125,0 0.7851562,0.070312 0.7851562,0.5625 z M 16.18382,-3.31575 c 0.08203,-0.234375 0.257813,-0.65625 0.914063,-0.6679687 v -0.3046875 c -0.234375,0.011719 -0.515625,0.023437 -0.75,0.023437 -0.234375,0 -0.691406,-0.023437 -0.867188,-0.023437 v 0.3046875 c 0.375,0.011719 0.480469,0.234375 0.480469,0.4335937 0,0.082031 -0.02344,0.1289063 -0.05859,0.234375 L 14.883039,-0.77278125 13.769758,-3.550125 c -0.05859,-0.140625 -0.05859,-0.1523437 -0.05859,-0.1757812 0,-0.2578125 0.386719,-0.2578125 0.5625,-0.2578125 v -0.3046875 c -0.292969,0 -0.855469,0.023437 -1.078125,0.023437 -0.269531,0 -0.667969,-0.011719 -0.972656,-0.023437 v 0.3046875 c 0.632812,0 0.667969,0.058594 0.796875,0.3632812 l 1.441406,3.5390625 c 0.05859,0.140625 0.07031,0.1875 0.199219,0.1875 0.128906,0 0.175781,-0.08203125 0.210937,-0.1875 z m 1.945313,0.8085938 c 0.05859,-1.4882813 0.902344,-1.734375 1.242187,-1.734375 1.019532,0 1.125,1.3476562 1.125,1.734375 z m -0.01172,0.2109375 h 2.789063 c 0.210937,0 0.246093,0 0.246093,-0.2109375 0,-0.984375 -0.539062,-1.9570313 -1.78125,-1.9570313 -1.160156,0 -2.074218,1.03125 -2.074218,2.2734375 0,1.3359375 1.042968,2.296875 2.191406,2.296875 1.21875,0 1.664062,-1.1015625 1.664062,-1.2890625 0,-0.1054687 -0.08203,-0.1171875 -0.128906,-0.1171875 -0.09375,0 -0.117187,0.058594 -0.128906,0.140625 -0.351563,1.01953125 -1.253906,1.01953125 -1.347656,1.01953125 -0.503907,0 -0.902344,-0.29296875 -1.125,-0.66796875 -0.304688,-0.4804687 -0.304688,-1.1367187 -0.304688,-1.4882812 z m 5.083008,-4.6171875 -1.429688,0.1054687 v 0.3164063 c 0.703125,0 0.773438,0.070312 0.773438,0.5507812 v 5.1796875 c 0,0.45703125 -0.105469,0.45703125 -0.773438,0.45703125 V 6.5625e-4 C 22.098859,-0.0110625 22.626203,-0.0345 22.872297,-0.0345 c 0.257812,0 0.738281,0.0234375 1.113281,0.03515625 v -0.3046875 c -0.667969,0 -0.785156,0 -0.785156,-0.45703125 z m 5.698242,4.78125 c 0,-1.2773438 -0.996094,-2.3320313 -2.191406,-2.3320313 -1.253906,0 -2.214844,1.0898438 -2.214844,2.3320313 0,1.28906245 1.03125,2.2382812 2.203125,2.2382812 1.207031,0 2.203125,-0.97265625 2.203125,-2.2382812 z m -2.191406,1.99218745 c -0.433594,0 -0.867188,-0.2109375 -1.136719,-0.66796875 -0.257812,-0.4335937 -0.257812,-1.0429687 -0.257812,-1.40625 0,-0.3867187 0,-0.9257812 0.246093,-1.359375 0.269532,-0.4570312 0.738282,-0.6679687 1.136719,-0.6679687 0.433594,0 0.867188,0.2226562 1.125,0.6445312 0.257813,0.4335938 0.257813,1.0078125 0.257813,1.3828125 0,0.3632813 0,0.9023438 -0.222657,1.3359375 -0.222656,0.4453125 -0.65625,0.73828125 -1.148437,0.73828125 z M 30.90257,-3.7493437 v -0.65625 l -1.429687,0.1171875 v 0.3046875 c 0.703125,0 0.773437,0.058594 0.773437,0.4921875 v 4.6640625 c 0,0.4570312 -0.105468,0.4570312 -0.773437,0.4570312 V 1.93425 c 0.339844,-0.011719 0.855469,-0.035156 1.113281,-0.035156 0.269531,0 0.773438,0.023437 1.125,0.035156 V 1.6295625 c -0.667969,0 -0.773437,0 -0.773437,-0.4570312 v -1.75781255 c 0.04687,0.15234375 0.46875,0.69140625 1.21875,0.69140625 1.183593,0 2.226562,-0.97265625 2.226562,-2.2617187 0,-1.265625 -0.972656,-2.25 -2.085937,-2.25 -0.773438,0 -1.195313,0.4453125 -1.394532,0.65625 z m 0.03516,2.6132812 v -2.2148437 c 0.28125,-0.515625 0.773437,-0.796875 1.277343,-0.796875 0.726563,0 1.335938,0.8671875 1.335938,1.9921875 0,1.2070312 -0.691406,2.0507812 -1.429688,2.0507812 -0.398437,0 -0.773437,-0.19921875 -1.042968,-0.609375 C 30.93773,-0.925125 30.93773,-0.93684375 30.93773,-1.1360625 Z m 5.182617,-1.3710937 c 0.05859,-1.4882813 0.902344,-1.734375 1.242187,-1.734375 1.019532,0 1.125,1.3476562 1.125,1.734375 z m -0.01172,0.2109375 h 2.789063 c 0.210937,0 0.246093,0 0.246093,-0.2109375 0,-0.984375 -0.539062,-1.9570313 -1.78125,-1.9570313 -1.160156,0 -2.074218,1.03125 -2.074218,2.2734375 0,1.3359375 1.042968,2.296875 2.191406,2.296875 1.21875,0 1.664062,-1.1015625 1.664062,-1.2890625 0,-0.1054687 -0.08203,-0.1171875 -0.128906,-0.1171875 -0.09375,0 -0.117187,0.058594 -0.128906,0.140625 -0.351563,1.01953125 -1.253906,1.01953125 -1.347656,1.01953125 -0.503907,0 -0.902344,-0.29296875 -1.125,-0.66796875 -0.304688,-0.4804687 -0.304688,-1.1367187 -0.304688,-1.4882812 z m 0,0"
       style="fill:#000000;fill-opacity:1;fill-rule:nonzero;stroke:none"
       aria-label="Envelope"
       transform="matrix(1.3333333,0,0,1.3333333,238.54267,183.296)" />
    <path
       id="path17"
       d="M 113.38724,0 H 224.78195"
       style="fill:none;stroke:#000000;stroke-width:0.3985;stroke-linecap:butt;stroke-linejoin:miter;stroke-miterlimit:10;stroke-dasharray:none;stroke-opacity:1"
       transform="matrix(1.3333333,0,0,-1.3333333,75.856,93.788)" />
    <path
       id="path18"
       d="M 1.99252,0 -1.19551,1.59401 0,0 -1.19551,-1.59401"
       style="fill:#000000;fill-opacity:1;fill-rule:nonzero;stroke:none"
       transform="matrix(1.3333333,0,0,-1.3333333,375.56527,93.788)" />
    <path
       id="path19"
       d="m 4.0308672,-6.2567187 c 1.9101562,0 2.4140625,0.46875 2.4140625,1.125 0,0.609375 -0.4804688,1.8046875 -2.1210938,1.8632812 -0.4921875,0.023437 -0.8320312,0.375 -0.8320312,0.4804688 0,0.058594 0.046875,0.058594 0.058594,0.058594 0.4101563,0.070312 0.609375,0.2695313 1.1367188,1.4414063 0.4570312,1.05468745 0.7148437,1.5117187 1.3007812,1.5117187 1.2070313,0 2.34375,-1.2304687 2.34375,-1.453125 0,-0.070312 -0.070312,-0.070312 -0.1054687,-0.070312 -0.1171875,0 -0.5039063,0.140625 -0.7148438,0.43359375 -0.1640625,0.234375 -0.375,0.5390625 -0.8671875,0.5390625 -0.5039062,0 -0.8203125,-0.70312495 -1.1601562,-1.48828125 C 5.2847734,-2.3075 5.0972734,-2.6825 4.8746172,-2.9520312 6.3160234,-3.479375 7.2886797,-4.5223437 7.2886797,-5.5535937 7.2886797,-6.8075 5.6128984,-6.8075 4.1128984,-6.8075 c -0.9960937,0 -1.5585937,0 -2.390625,0.3632813 -1.33593746,0.5859375 -1.51171871,1.4179687 -1.51171871,1.5 0,0.058594 0.0351563,0.070312 0.09375,0.070312 0.1640625,0 0.3984375,-0.140625 0.46875,-0.1875 0.2109375,-0.140625 0.24609371,-0.1992188 0.30468751,-0.3867188 0.140625,-0.3984375 0.421875,-0.75 1.6757812,-0.8085937 -0.058594,0.609375 -0.140625,1.5351562 -0.4804687,2.9882812 -0.2695313,1.1132813 -0.6445313,2.2148438 -1.078125,3.28125 -0.046875,0.10546875 -0.046875,0.12890625 -0.046875,0.140625 0,0.0703125 0.082031,0.0703125 0.09375,0.0703125 0.1992187,0 0.6210937,-0.24609375 0.7265625,-0.43359375 0.023437,-0.046875 1.2890625,-2.85937495 1.59375,-6.04687495 z m 0,0"
       style="fill:#000000;fill-opacity:1;fill-rule:nonzero;stroke:none"
       aria-label="R"
       transform="matrix(1.3333333,0,0,1.3333333,382.91067,98.326667)" />
    <path
       id="path20"
       d="m 144.92212,0 h 50.31746"
       style="fill:none;stroke:#ff0000;stroke-width:1.19553;stroke-linecap:butt;stroke-linejoin:miter;stroke-miterlimit:10;stroke-dasharray:none;stroke-opacity:1"
       transform="matrix(1.3333333,0,0,-1.3333333,75.856,93.788)" />
    <path
       id="path21"
       d="M 3.18808,0 -1.91284,2.55046 0,0 -1.91284,-2.55046"
       style="fill:#ff0000;fill-opacity:1;fill-rule:nonzero;stroke:none"
       transform="matrix(-1.3333333,0,0,1.3333333,269.08549,93.788)" />
    <path
       id="path22"
       d="M 3.18808,0 -1.91284,2.55046 0,0 -1.91284,-2.55046"
       style="fill:#ff0000;fill-opacity:1;fill-rule:nonzero;stroke:none"
       transform="matrix(1.3333333,0,0,-1.3333333,336.17544,93.788)" />
    <g
       id="g22"
       aria-label="m(t)"
       transform="matrix(1.3333333,0,0,1.3333333,345.64667,108.97467)">
      <path
         id="path23"
         d="m 0.88023437,-0.58451562 c -0.0351563,0.15234375 -0.09375,0.375 -0.09375,0.421875 0,0.1875 0.140625,0.26953125 0.29296873,0.26953125 0.1171875,0 0.2929688,-0.0703125 0.3632813,-0.26953125 0.011719,-0.0234375 0.1289062,-0.4921875 0.1875,-0.73828125 L 1.8528906,-1.8032656 c 0.058594,-0.2226563 0.1171875,-0.4335938 0.1757813,-0.6679688 0.035156,-0.1640625 0.1171875,-0.4570312 0.1289062,-0.4921875 0.140625,-0.3164062 0.6679688,-1.21875 1.6171875,-1.21875 0.4453125,0 0.5390625,0.3632813 0.5390625,0.6914063 0,0.2578125 -0.070312,0.5390625 -0.1523437,0.8320312 l -0.2695313,1.1601563 -0.1992187,0.74999998 c -0.046875,0.19921875 -0.140625,0.5390625 -0.140625,0.5859375 0,0.1875 0.140625,0.26953125 0.2929687,0.26953125 0.3046875,0 0.375,-0.24609375 0.4453125,-0.5625 0.140625,-0.56250003 0.515625,-2.01562503 0.5976563,-2.40234373 0.035156,-0.1289063 0.5625,-1.3242188 1.6523437,-1.3242188 0.421875,0 0.5390625,0.3398438 0.5390625,0.6914063 0,0.5742187 -0.421875,1.7109375 -0.6210937,2.2382812 -0.09375,0.234375 -0.1289063,0.35156253 -0.1289063,0.55078128 0,0.46875 0.3515625,0.80859375 0.8085938,0.80859375 0.9375,0 1.3125,-1.45312503 1.3125,-1.53515623 0,-0.09375 -0.09375,-0.09375 -0.1171875,-0.09375 -0.1054688,0 -0.1054688,0.023437 -0.1523438,0.1757812 -0.1523437,0.52734378 -0.46875,1.24218753 -1.0195312,1.24218753 -0.1640625,0 -0.234375,-0.10546875 -0.234375,-0.328125 0,-0.2578125 0.082031,-0.4921875 0.1757812,-0.71484373 0.1875,-0.515625 0.609375,-1.6171875 0.609375,-2.1914063 0,-0.6445312 -0.3984375,-1.0664062 -1.1484375,-1.0664062 -0.75,0 -1.2539062,0.4453125 -1.6171875,0.9726562 -0.011719,-0.1289062 -0.046875,-0.46875 -0.328125,-0.7148437 -0.2460937,-0.1992188 -0.5625,-0.2578125 -0.8085937,-0.2578125 -0.9023438,0 -1.3828125,0.6445312 -1.5585938,0.8671875 -0.046875,-0.5625 -0.46875,-0.8671875 -0.9140625,-0.8671875 -0.45703123,0 -0.64453123,0.3867187 -0.73828123,0.5742187 -0.17578125,0.3398438 -0.3046875,0.9375 -0.3046875,0.9609375 0,0.1054688 0.09375,0.1054688 0.1171875,0.1054688 0.09375,0 0.10546875,-0.011719 0.1640625,-0.234375 0.17578125,-0.703125 0.375,-1.1835938 0.72656253,-1.1835938 0.1640625,0 0.3164062,0.082031 0.3164062,0.4570313 0,0.2109375 -0.035156,0.3164062 -0.1640625,0.8320312 z m 0,0"
         style="fill:#000000;fill-opacity:1;fill-rule:nonzero;stroke:none" />
      <path
         id="path24"
         d="m 12.042344,2.3920469 c 0,-0.035156 0,-0.046875 -0.164063,-0.2226563 -1.242187,-1.25390622 -1.570312,-3.12890622 -1.570312,-4.6640625 0,-1.7226562 0.386718,-3.4570312 1.605468,-4.7109375 0.128907,-0.1171875 0.128907,-0.1289062 0.128907,-0.1640625 0,-0.070312 -0.03516,-0.1054687 -0.09375,-0.1054687 -0.105469,0 -0.996094,0.6796875 -1.582032,1.9453125 -0.5156245,1.1015625 -0.632812,2.203125 -0.632812,3.0351562 0,0.7851563 0.1171875,1.99218753 0.65625,3.11718753 0.597656,1.21874997 1.453125,1.87499997 1.558594,1.87499997 0.05859,0 0.09375,-0.035156 0.09375,-0.1054687 z m 0,0"
         style="fill:#000000;fill-opacity:1;fill-rule:nonzero;stroke:none" />
      <path
         id="path25"
         d="m 14.673203,-3.9829531 h 0.9375 c 0.199219,0 0.304688,0 0.304688,-0.1992188 0,-0.1054687 -0.105469,-0.1054687 -0.28125,-0.1054687 h -0.878907 c 0.363282,-1.4179688 0.410157,-1.6171875 0.410157,-1.6757813 0,-0.1757812 -0.117188,-0.2695312 -0.292969,-0.2695312 -0.02344,0 -0.304688,0.011719 -0.398438,0.3515625 l -0.386718,1.59375 h -0.9375 c -0.199219,0 -0.292969,0 -0.292969,0.1875 0,0.1171875 0.07031,0.1171875 0.269531,0.1171875 h 0.878906 c -0.714843,2.8242187 -0.75,2.99999998 -0.75,3.17578123 0,0.5390625 0.375,0.9140625 0.914063,0.9140625 1.007812,0 1.582031,-1.45312503 1.582031,-1.53515623 0,-0.09375 -0.08203,-0.09375 -0.117187,-0.09375 -0.09375,0 -0.105469,0.023437 -0.152344,0.140625 -0.433594,1.03124998 -0.960938,1.27734373 -1.300781,1.27734373 -0.199219,0 -0.304688,-0.12890625 -0.304688,-0.45703125 0,-0.24609375 0.02344,-0.31640625 0.05859,-0.48046878 z m 0,0"
         style="fill:#000000;fill-opacity:1;fill-rule:nonzero;stroke:none" />
      <path
         id="path26"
         d="m 19.102891,-2.4946719 c 0,-0.7734375 -0.117188,-1.9804687 -0.65625,-3.1054687 -0.597657,-1.21875 -1.464844,-1.875 -1.558594,-1.875 -0.05859,0 -0.105469,0.046875 -0.105469,0.1054687 0,0.035156 0,0.046875 0.199219,0.234375 0.972656,0.984375 1.535156,2.5664063 1.535156,4.640625 0,1.71093753 -0.363281,3.45703128 -1.59375,4.7226563 -0.140625,0.1171875 -0.140625,0.1289062 -0.140625,0.1640625 0,0.058594 0.04687,0.1054687 0.105469,0.1054687 0.09375,0 0.996094,-0.6796875 1.582031,-1.94531247 0.503906,-1.1015625 0.632813,-2.20312503 0.632813,-3.04687503 z m 0,0"
         style="fill:#000000;fill-opacity:1;fill-rule:nonzero;stroke:none" />
    </g>
    <path
       id="path27"
       d="M 170.08086,-56.69362 V 54.7011"
       style="fill:none;stroke:#000000;stroke-width:0.3985;stroke-linecap:butt;stroke-linejoin:miter;stroke-miterlimit:10;stroke-dasharray:none;stroke-opacity:1"
       transform="matrix(1.3333333,0,0,-1.3333333,75.856,93.788)" />
    <path
       id="path28"
       d="M 1.99252,0 -1.19551,1.59401 0,0 -1.19551,-1.59401"
       style="fill:#000000;fill-opacity:1;fill-rule:nonzero;stroke:none"
       transform="matrix(0,-1.3333333,-1.3333333,0,302.63048,20.8532)" />
    <path
       id="path29"
       d="m 3.5377109,-6.8086641 c -1.2421875,0 -1.78125,0.234375 -2.015625,0.328125 -1.01953121,0.421875 -1.24218746,1.1015625 -1.24218746,1.2304688 0,0.070312 0.046875,0.082031 0.10546875,0.082031 0.17578125,0 0.65625001,-0.2460937 0.73828121,-0.46875 0.1171875,-0.375 0.1523438,-0.46875 0.8203125,-0.5625 0.3398438,-0.035156 0.6679688,-0.058594 1.0078125,-0.058594 h 0.9023438 c -0.6328125,0.609375 -0.9140625,1.6757812 -1.2773438,3.1054687 -0.28125,1.1835938 -0.515625,1.9570313 -0.9257812,2.48437504 -0.09375,0.10546875 -0.1054688,0.1171875 -0.375,0.1171875 H 0.63146094 c -0.1875,0 -0.29296875,0 -0.5390625,0.15234375 -0.1171875,0.0585938 -0.328125,0.234375 -0.328125,0.328125 0,0.05859375 0,0.0703124975 0.22265625,0.0703124975 H 3.3970859 c 1.1601563,0 2.0273438,-0.8671874975 2.0273438,-1.2304687875 0,-0.070312 -0.082031,-0.070312 -0.1054688,-0.070312 -0.1757812,0 -0.6328125,0.234375 -0.7382812,0.48046879 -0.070312,0.2109375 -0.09375,0.26953125 -0.5976563,0.26953125 H 2.0845859 c 0.703125,-0.60937504 1.0078125,-1.59375004 1.3359375,-2.94140624 0.2695313,-1.0898438 0.515625,-2.0507813 0.9257813,-2.6601563 0.058594,-0.09375 0.070312,-0.1054687 0.2695312,-0.1054687 h 0.84375 c 0.1992188,0 0.28125,0 0.5507813,-0.1523438 0.082031,-0.046875 0.3164062,-0.1992187 0.3164062,-0.328125 0,-0.058594 -0.011719,-0.070312 -0.234375,-0.070312 z m 0,0"
       style="fill:#000000;fill-opacity:1;fill-rule:nonzero;stroke:none"
       aria-label="I"
       transform="matrix(1.3333333,0,0,1.3333333,298.52133,13.504)" />
  </g>
</svg>
