<?xml version="1.0" encoding="UTF-8" standalone="no"?>
<!-- Created with Inkscape (http://www.inkscape.org/) -->

<svg
   version="1.1"
   id="svg1"
   width="445.99734"
   height="203.256"
   viewBox="0 0 445.99734 203.256"
   sodipodi:docname="bessel.pdf"
   xmlns:inkscape="http://www.inkscape.org/namespaces/inkscape"
   xmlns:sodipodi="http://sodipodi.sourceforge.net/DTD/sodipodi-0.dtd"
   xmlns="http://www.w3.org/2000/svg"
   xmlns:svg="http://www.w3.org/2000/svg">
  <defs
     id="defs1">
    <clipPath
       clipPathUnits="userSpaceOnUse"
       id="clipPath28">
      <path
         d="m -24.90811,-10.58583 h 298.8824 v 127.02367 h -298.8824 z"
         id="path28" />
    </clipPath>
    <clipPath
       clipPathUnits="userSpaceOnUse"
       id="clipPath34">
      <path
         d="m -24.90811,-10.58583 h 298.8824 v 127.02367 h -298.8824 z"
         transform="matrix(1,0,0,-1,-220.67701,65.343001)"
         id="path34" />
    </clipPath>
    <clipPath
       clipPathUnits="userSpaceOnUse"
       id="clipPath36">
      <path
         d="m -24.90811,-10.58583 h 298.8824 v 127.02367 h -298.8824 z"
         id="path36" />
    </clipPath>
    <clipPath
       clipPathUnits="userSpaceOnUse"
       id="clipPath38">
      <path
         d="m -24.90811,-10.58583 h 298.8824 v 127.02367 h -298.8824 z"
         id="path38" />
    </clipPath>
    <clipPath
       clipPathUnits="userSpaceOnUse"
       id="clipPath44">
      <path
         d="m -24.90811,-10.58583 h 298.8824 v 127.02367 h -298.8824 z"
         transform="matrix(1,0,0,-1,-210.88101,54.820002)"
         id="path44" />
    </clipPath>
    <clipPath
       clipPathUnits="userSpaceOnUse"
       id="clipPath46">
      <path
         d="m -24.90811,-10.58583 h 298.8824 v 127.02367 h -298.8824 z"
         id="path46" />
    </clipPath>
    <clipPath
       clipPathUnits="userSpaceOnUse"
       id="clipPath48">
      <path
         d="m -24.90811,-10.58583 h 298.8824 v 127.02367 h -298.8824 z"
         id="path48" />
    </clipPath>
    <clipPath
       clipPathUnits="userSpaceOnUse"
       id="clipPath54">
      <path
         d="m -24.90811,-10.58583 h 298.8824 v 127.02367 h -298.8824 z"
         transform="matrix(1,0,0,-1,-208.73001,-3.9280001)"
         id="path54" />
    </clipPath>
    <clipPath
       clipPathUnits="userSpaceOnUse"
       id="clipPath56">
      <path
         d="m -24.90811,-10.58583 h 298.8824 v 127.02367 h -298.8824 z"
         id="path56" />
    </clipPath>
    <clipPath
       clipPathUnits="userSpaceOnUse"
       id="clipPath58">
      <path
         d="m -24.90811,-10.58583 h 298.8824 v 127.02367 h -298.8824 z"
         id="path58" />
    </clipPath>
    <clipPath
       clipPathUnits="userSpaceOnUse"
       id="clipPath64">
      <path
         d="m -24.90811,-10.58583 h 298.8824 v 127.02367 h -298.8824 z"
         transform="matrix(1,0,0,-1,-237.34501,-4.4539976)"
         id="path64" />
    </clipPath>
    <clipPath
       clipPathUnits="userSpaceOnUse"
       id="clipPath66">
      <path
         d="m -24.90811,-10.58583 h 298.8824 v 127.02367 h -298.8824 z"
         id="path66" />
    </clipPath>
  </defs>
  <sodipodi:namedview
     id="namedview1"
     pagecolor="#ffffff"
     bordercolor="#666666"
     borderopacity="1.0"
     inkscape:showpageshadow="2"
     inkscape:pageopacity="0.0"
     inkscape:pagecheckerboard="0"
     inkscape:deskcolor="#d1d1d1">
    <inkscape:page
       x="0"
       y="0"
       inkscape:label="1"
       id="page1"
       width="445.99734"
       height="203.256"
       margin="0"
       bleed="0" />
  </sodipodi:namedview>
  <g
     id="g1"
     inkscape:groupmode="layer"
     inkscape:label="1">
    <path
       id="path1"
       d="m -24.90662,-10.58583 v 4.25198 M 0,-10.58583 v 4.25198 m 24.90662,-4.25198 v 4.25198 m 24.90661,-4.25198 v 4.25198 m 24.90662,-4.25198 v 4.25198 m 24.90661,-4.25198 v 4.25198 m 24.90662,-4.25198 v 4.25198 m 24.90662,-4.25198 v 4.25198 m 24.90661,-4.25198 v 4.25198 m 24.90662,-4.25198 v 4.25198 m 24.90662,-4.25198 v 4.25198 m 24.90661,-4.25198 v 4.25198 m 24.90662,-4.25198 v 4.25198 m -298.8794,122.77169 v -4.25196 M 0,116.43784 v -4.25196 m 24.90662,4.25196 v -4.25196 m 24.90661,4.25196 v -4.25196 m 24.90662,4.25196 v -4.25196 m 24.90661,4.25196 v -4.25196 m 24.90662,4.25196 v -4.25196 m 24.90662,4.25196 v -4.25196 m 24.90661,4.25196 v -4.25196 m 24.90662,4.25196 v -4.25196 m 24.90662,4.25196 v -4.25196 m 24.90661,4.25196 v -4.25196 m 24.90662,4.25196 v -4.25196"
       style="fill:none;stroke:#808080;stroke-width:0.19925;stroke-linecap:butt;stroke-linejoin:miter;stroke-miterlimit:10;stroke-dasharray:none;stroke-opacity:1"
       transform="matrix(1.3333333,0,0,-1.3333333,69.636,155.51467)" />
    <path
       id="path2"
       d="m -24.90811,-7.34189 h 4.25276 m -4.25276,37.73128 h 4.25276 m -4.25276,37.73131 h 4.25276 m -4.25276,37.7313 h 4.25276 M 273.97429,-7.34189 h -4.25276 m 4.25276,37.73128 h -4.25276 m 4.25276,37.73131 h -4.25276 m 4.25276,37.7313 h -4.25276"
       style="fill:none;stroke:#808080;stroke-width:0.19925;stroke-linecap:butt;stroke-linejoin:miter;stroke-miterlimit:10;stroke-dasharray:none;stroke-opacity:1"
       transform="matrix(1.3333333,0,0,-1.3333333,69.636,155.51467)" />
    <path
       id="path3"
       d="m -24.90811,-10.58583 v 127.02367 h 298.8824 V -10.58583 Z"
       style="fill:none;stroke:#000000;stroke-width:0.3985;stroke-linecap:butt;stroke-linejoin:miter;stroke-miterlimit:10;stroke-dasharray:none;stroke-opacity:1"
       transform="matrix(1.3333333,0,0,-1.3333333,69.636,155.51467)" />
    <g
       id="g3"
       aria-label="−2"
       transform="matrix(1.3333333,0,0,1.3333333,27.941333,182.88133)">
      <path
         id="path4"
         d="m 6.5625547,-2.2957656 c 0.1757812,0 0.3515625,0 0.3515625,-0.1992188 0,-0.1992187 -0.1757813,-0.1992187 -0.3515625,-0.1992187 h -5.390625 c -0.1640625,0 -0.33984376,0 -0.33984376,0.1992187 0,0.1992188 0.17578126,0.1992188 0.33984376,0.1992188 z m 0,0"
         style="fill:#000000;fill-opacity:1;fill-rule:nonzero;stroke:none" />
      <path
         id="path5"
         d="M 9.0147031,-0.76060938 10.069391,-1.7918594 c 1.558593,-1.3710937 2.15625,-1.9101562 2.15625,-2.90625 0,-1.1367187 -0.902344,-1.9335937 -2.121094,-1.9335937 -1.1250001,0 -1.8515626,0.9140625 -1.8515626,1.8046875 0,0.5507812 0.4921875,0.5507812 0.5273437,0.5507812 0.1640625,0 0.515625,-0.1171875 0.515625,-0.5273437 0,-0.2578125 -0.1875,-0.515625 -0.5273437,-0.515625 -0.082031,0 -0.1054688,0 -0.1289063,0.011719 0.2226563,-0.6445312 0.7617188,-1.0195312 1.3359375,-1.0195312 0.9140624,0 1.3359374,0.8085937 1.3359374,1.6289062 0,0.796875 -0.492187,1.5820313 -1.042969,2.203125 L 8.3584531,-0.36217188 C 8.2529844,-0.25670313 8.2529844,-0.23326563 8.2529844,0.00110937 h 3.6914066 l 0.28125,-1.73437497 h -0.257813 c -0.04687,0.3046875 -0.117187,0.73828122 -0.210937,0.89062497 -0.07031,0.0820313 -0.726563,0.0820313 -0.949219,0.0820313 z m 0,0"
         style="fill:#000000;fill-opacity:1;fill-rule:nonzero;stroke:none" />
    </g>
    <path
       id="path6"
       d="m 4.5833359,-3.1863906 c 0,-0.796875 -0.046875,-1.59375 -0.3984375,-2.3320313 -0.4570312,-0.9609375 -1.2773437,-1.1132812 -1.6875,-1.1132812 -0.5976562,0 -1.3359375,0.2578125 -1.73437496,1.1835937 -0.328125,0.6914063 -0.375,1.4648438 -0.375,2.2617188 0,0.75 0.046875,1.640625 0.4453125,2.40234372 0.43359376,0.80859375 1.16015626,1.0078125 1.65234376,1.0078125 0.5390625,0 1.2890625,-0.2109375 1.734375,-1.16015625 C 4.5364609,-1.6277969 4.5833359,-2.4012344 4.5833359,-3.1863906 Z M 2.4856797,0.00110937 c -0.3867188,0 -0.984375,-0.24609375 -1.1601563,-1.20703127 -0.1054687,-0.5976562 -0.1054687,-1.5117187 -0.1054687,-2.0976562 0,-0.6445313 0,-1.3007813 0.082031,-1.8398438 0.1875,-1.1835937 0.9257813,-1.265625 1.1835938,-1.265625 0.328125,0 0.984375,0.1757813 1.171875,1.1601563 0.09375,0.5625 0.09375,1.3125 0.09375,1.9453125 0,0.75 0,1.4179687 -0.1054688,2.0625 C 3.493492,-0.30357813 2.930992,0.00110937 2.4856797,0.00110937 Z m 0,0"
       style="fill:#000000;fill-opacity:1;fill-rule:nonzero;stroke:none"
       aria-label="0"
       transform="matrix(1.3333333,0,0,1.3333333,66.314667,182.88133)" />
    <path
       id="path7"
       d="M 1.2652031,-0.76060938 2.3198906,-1.7918594 c 1.5585938,-1.3710937 2.15625,-1.9101562 2.15625,-2.90625 0,-1.1367187 -0.9023437,-1.9335937 -2.1210937,-1.9335937 -1.125,0 -1.85156253,0.9140625 -1.85156253,1.8046875 0,0.5507812 0.4921875,0.5507812 0.52734373,0.5507812 0.1640625,0 0.515625,-0.1171875 0.515625,-0.5273437 0,-0.2578125 -0.1875,-0.515625 -0.5273437,-0.515625 -0.0820313,0 -0.10546878,0 -0.12890628,0.011719 0.22265628,-0.6445312 0.76171878,-1.0195312 1.33593748,-1.0195312 0.9140625,0 1.3359375,0.8085937 1.3359375,1.6289062 0,0.796875 -0.4921875,1.5820313 -1.0429687,2.203125 L 0.60895312,-0.36217188 C 0.50348437,-0.25670313 0.50348437,-0.23326563 0.50348437,0.00110937 H 4.1948906 l 0.28125,-1.73437497 H 4.2183281 c -0.046875,0.3046875 -0.1171875,0.73828122 -0.2109375,0.89062497 -0.070312,0.0820313 -0.7265625,0.0820313 -0.9492187,0.0820313 z m 0,0"
       style="fill:#000000;fill-opacity:1;fill-rule:nonzero;stroke:none"
       aria-label="2"
       transform="matrix(1.3333333,0,0,1.3333333,99.524,182.88133)" />
    <path
       id="path8"
       d="m 2.9285391,-1.6395156 v 0.86718747 c 0,0.3515625 -0.023437,0.46875 -0.7617188,0.46875 H 1.9558828 v 0.3046875 c 0.4101563,-0.03515625 0.9375,-0.03515625 1.3476563,-0.03515625 0.421875,0 0.9492187,0 1.359375,0.03515625 v -0.3046875 H 4.4519766 c -0.7382813,0 -0.7617188,-0.1171875 -0.7617188,-0.46875 V -1.6395156 H 4.6863516 V -1.9559219 H 3.6902578 v -4.5234375 c 0,-0.1992187 0,-0.2578125 -0.1523437,-0.2578125 -0.09375,0 -0.1171875,0 -0.1992188,0.1171875 l -3.05859374,4.6640625 v 0.3164063 z m 0.058594,-0.3164063 H 0.56135156 L 2.9871328,-5.6707656 Z m 0,0"
       style="fill:#000000;fill-opacity:1;fill-rule:nonzero;stroke:none"
       aria-label="4"
       transform="matrix(1.3333333,0,0,1.3333333,132.732,182.88133)" />
    <path
       id="path9"
       d="m 1.3135547,-3.2684219 v -0.234375 c 0,-2.5195312 1.2421875,-2.8828125 1.7460937,-2.8828125 0.234375,0 0.65625,0.058594 0.8789063,0.3984375 -0.1523438,0 -0.5507813,0 -0.5507813,0.4453125 0,0.3164063 0.234375,0.4570313 0.4570313,0.4570313 0.1640625,0 0.4570312,-0.082031 0.4570312,-0.46875 0,-0.5976563 -0.4335937,-1.078125 -1.265625,-1.078125 -1.2773437,0 -2.61328121,1.2890625 -2.61328121,3.4804687 0,2.66015627 1.14843751,3.37500002 2.07421871,3.37500002 1.1132813,0 2.0507813,-0.9375 2.0507813,-2.25000002 0,-1.265625 -0.8789063,-2.2265625 -1.9921875,-2.2265625 -0.6679688,0 -1.0429688,0.5039063 -1.2421875,0.984375 z m 1.1835937,3.21093752 c -0.6210937,0 -0.9257812,-0.59765625 -0.984375,-0.75 C 1.3369922,-1.2762344 1.3369922,-2.0731094 1.3369922,-2.2488906 c 0,-0.7734375 0.3164062,-1.7695313 1.21875,-1.7695313 0.1523437,0 0.609375,0 0.9257812,0.609375 0.1757813,0.375 0.1757813,0.8789063 0.1757813,1.3710938 0,0.4804687 0,0.9726562 -0.1640625,1.33593747 -0.3046875,0.59765625 -0.7617188,0.64453125 -0.9960938,0.64453125 z m 0,0"
       style="fill:#000000;fill-opacity:1;fill-rule:nonzero;stroke:none"
       aria-label="6"
       transform="matrix(1.3333333,0,0,1.3333333,165.94,182.88133)" />
    <path
       id="path10"
       d="m 1.6292344,-4.5457656 c -0.46875,-0.3046875 -0.5039063,-0.6445313 -0.5039063,-0.8085938 0,-0.609375 0.6445313,-1.03125 1.359375,-1.03125 0.7265625,0 1.359375,0.515625 1.359375,1.2421875 0,0.5625 -0.3867187,1.0429688 -0.984375,1.3945313 z m 1.453125,0.9375 c 0.7148437,-0.3632813 1.2070312,-0.8789063 1.2070312,-1.5351563 0,-0.9257812 -0.890625,-1.4882812 -1.7929687,-1.4882812 -0.9960938,0 -1.80468752,0.7382812 -1.80468752,1.6640625 0,0.1757812 0.0117188,0.6210937 0.43359372,1.0898437 0.1054688,0.1289063 0.4804688,0.375 0.7265625,0.5390625 -0.5742187,0.2929688 -1.42968747,0.84375 -1.42968747,1.8398438 0,1.05468747 1.00781247,1.72265622 2.06249997,1.72265622 1.125,0 2.0625,-0.83203125 2.0625,-1.89843752 0,-0.3515625 -0.1054687,-0.8085937 -0.4804687,-1.21875 -0.1875,-0.2109375 -0.3515625,-0.3164062 -0.984375,-0.7148437 z m -0.9960938,0.421875 1.21875,0.7734375 c 0.28125,0.1875 0.75,0.4921875 0.75,1.1015625 0,0.73828122 -0.75,1.25390622 -1.5585937,1.25390622 -0.8671875,0 -1.58203127,-0.62109375 -1.58203127,-1.44140622 0,-0.5859375 0.31640627,-1.21875 1.17187497,-1.6875 z m 0,0"
       style="fill:#000000;fill-opacity:1;fill-rule:nonzero;stroke:none"
       aria-label="8"
       transform="matrix(1.3333333,0,0,1.3333333,199.148,182.88133)" />
    <path
       id="path11"
       d="m 2.9290547,-6.3738906 c 0,-0.234375 0,-0.2578125 -0.234375,-0.2578125 -0.609375,0.6328125 -1.4882813,0.6328125 -1.80468751,0.6328125 v 0.3164062 c 0.19921871,0 0.78515621,0 1.30078121,-0.2578125 v 5.15625002 c 0,0.3515625 -0.035156,0.48046875 -0.9257812,0.48046875 H 0.94858594 v 0.3046875 C 1.3001484,-0.03404688 2.1556172,-0.03404688 2.5540547,-0.03404688 c 0.3984375,0 1.265625,0 1.6171875,0.03515625 v -0.3046875 H 3.8548359 c -0.9023437,0 -0.9257812,-0.1171875 -0.9257812,-0.48046875 z m 6.6328125,3.1875 c 0,-0.796875 -0.046875,-1.59375 -0.3984375,-2.3320313 -0.4570313,-0.9609375 -1.2773438,-1.1132812 -1.6875,-1.1132812 -0.5976563,0 -1.3359375,0.2578125 -1.734375,1.1835937 -0.328125,0.6914063 -0.375,1.4648438 -0.375,2.2617188 0,0.75 0.046875,1.640625 0.4453125,2.40234372 0.4335937,0.80859375 1.1601562,1.0078125 1.6523437,1.0078125 0.5390625,0 1.2890625,-0.2109375 1.734375,-1.16015625 C 9.5149922,-1.6277969 9.5618672,-2.4012344 9.5618672,-3.1863906 Z M 7.4642109,0.00110937 c -0.3867187,0 -0.984375,-0.24609375 -1.1601562,-1.20703127 -0.1054688,-0.5976562 -0.1054688,-1.5117187 -0.1054688,-2.0976562 0,-0.6445313 0,-1.3007813 0.082031,-1.8398438 0.1875,-1.1835937 0.9257812,-1.265625 1.1835937,-1.265625 0.328125,0 0.984375,0.1757813 1.171875,1.1601563 0.09375,0.5625 0.09375,1.3125 0.09375,1.9453125 0,0.75 0,1.4179687 -0.1054687,2.0625 -0.1523438,0.93749997 -0.7148438,1.24218747 -1.160156,1.24218747 z m 0,0"
       style="fill:#000000;fill-opacity:1;fill-rule:nonzero;stroke:none"
       aria-label="10"
       transform="matrix(1.3333333,0,0,1.3333333,229.036,182.88133)" />
    <path
       id="path12"
       d="m 2.9283281,-6.3738906 c 0,-0.234375 0,-0.2578125 -0.234375,-0.2578125 -0.609375,0.6328125 -1.4882812,0.6328125 -1.80468748,0.6328125 v 0.3164062 c 0.19921878,0 0.78515628,0 1.30078128,-0.2578125 v 5.15625002 c 0,0.3515625 -0.035156,0.48046875 -0.9257813,0.48046875 H 0.94785937 v 0.3046875 C 1.2994219,-0.03404688 2.1548906,-0.03404688 2.5533281,-0.03404688 c 0.3984375,0 1.265625,0 1.6171875,0.03515625 v -0.3046875 H 3.8541094 c -0.9023438,0 -0.9257813,-0.1171875 -0.9257813,-0.48046875 z m 3.319336,5.61328122 1.0546875,-1.03125002 c 1.5585937,-1.3710937 2.15625,-1.9101562 2.15625,-2.90625 0,-1.1367187 -0.9023438,-1.9335937 -2.1210938,-1.9335937 -1.125,0 -1.8515625,0.9140625 -1.8515625,1.8046875 0,0.5507812 0.4921875,0.5507812 0.5273438,0.5507812 0.1640625,0 0.515625,-0.1171875 0.515625,-0.5273437 0,-0.2578125 -0.1875,-0.515625 -0.5273438,-0.515625 -0.082031,0 -0.1054687,0 -0.1289062,0.011719 0.2226562,-0.6445312 0.7617187,-1.0195312 1.3359375,-1.0195312 0.9140625,0 1.3359375,0.8085937 1.3359375,1.6289062 0,0.796875 -0.4921875,1.5820313 -1.0429688,2.203125 L 5.5914141,-0.36217188 C 5.4859453,-0.25670313 5.4859453,-0.23326563 5.4859453,0.00110937 h 3.6914063 l 0.28125,-1.73437497 H 9.2007891 c -0.046875,0.3046875 -0.1171875,0.73828122 -0.2109375,0.89062497 -0.070312,0.0820313 -0.7265625,0.0820313 -0.9492188,0.0820313 z m 0,0"
       style="fill:#000000;fill-opacity:1;fill-rule:nonzero;stroke:none"
       aria-label="12"
       transform="matrix(1.3333333,0,0,1.3333333,262.244,182.88133)" />
    <path
       id="path13"
       d="m 2.9295313,-6.3738906 c 0,-0.234375 0,-0.2578125 -0.234375,-0.2578125 -0.609375,0.6328125 -1.4882813,0.6328125 -1.80468755,0.6328125 v 0.3164062 c 0.19921875,0 0.78515625,0 1.30078125,-0.2578125 v 5.15625002 c 0,0.3515625 -0.035156,0.48046875 -0.9257812,0.48046875 H 0.9490625 v 0.3046875 c 0.3515625,-0.03515625 1.2070313,-0.03515625 1.6054688,-0.03515625 0.3984375,0 1.265625,0 1.6171875,0.03515625 v -0.3046875 H 3.8553125 c -0.9023437,0 -0.9257812,-0.1171875 -0.9257812,-0.48046875 z M 7.91,-1.6395156 v 0.86718747 c 0,0.3515625 -0.023437,0.46875 -0.7617187,0.46875 H 6.9373438 v 0.3046875 C 7.3475,-0.03404688 7.8748438,-0.03404688 8.285,-0.03404688 c 0.421875,0 0.9492188,0 1.359375,0.03515625 v -0.3046875 H 9.4334375 c -0.7382812,0 -0.7617187,-0.1171875 -0.7617187,-0.46875 V -1.6395156 H 9.6678125 V -1.9559219 H 8.6717188 v -4.5234375 c 0,-0.1992187 0,-0.2578125 -0.1523438,-0.2578125 -0.09375,0 -0.1171875,0 -0.1992187,0.1171875 l -3.0585938,4.6640625 v 0.3164063 z M 7.968594,-1.9559219 H 5.5428125 l 2.4257813,-3.7148437 z m 0,0"
       style="fill:#000000;fill-opacity:1;fill-rule:nonzero;stroke:none"
       aria-label="14"
       transform="matrix(1.3333333,0,0,1.3333333,295.45333,182.88133)" />
    <path
       id="path14"
       d="m 2.9288047,-6.3738906 c 0,-0.234375 0,-0.2578125 -0.234375,-0.2578125 -0.609375,0.6328125 -1.4882813,0.6328125 -1.80468751,0.6328125 v 0.3164062 c 0.19921871,0 0.78515621,0 1.30078121,-0.2578125 v 5.15625002 c 0,0.3515625 -0.035156,0.48046875 -0.9257812,0.48046875 H 0.94833594 v 0.3046875 C 1.2998984,-0.03404688 2.1553672,-0.03404688 2.5538047,-0.03404688 c 0.3984375,0 1.265625,0 1.6171875,0.03515625 v -0.3046875 H 3.8545859 c -0.9023437,0 -0.9257812,-0.1171875 -0.9257812,-0.48046875 z m 3.3662109,3.1054687 v -0.234375 c 0,-2.5195312 1.2421875,-2.8828125 1.7460938,-2.8828125 0.234375,0 0.65625,0.058594 0.8789062,0.3984375 -0.1523437,0 -0.5507812,0 -0.5507812,0.4453125 0,0.3164063 0.234375,0.4570313 0.4570312,0.4570313 0.1640625,0 0.4570313,-0.082031 0.4570313,-0.46875 0,-0.5976563 -0.4335938,-1.078125 -1.265625,-1.078125 -1.2773438,0 -2.6132813,1.2890625 -2.6132813,3.4804687 0,2.66015627 1.1484375,3.37500002 2.0742188,3.37500002 1.1132812,0 2.0507812,-0.9375 2.0507812,-2.25000002 0,-1.265625 -0.8789062,-2.2265625 -1.9921875,-2.2265625 -0.6679687,0 -1.0429687,0.5039063 -1.2421875,0.984375 z m 1.1835938,3.21093752 c -0.6210938,0 -0.9257813,-0.59765625 -0.984375,-0.75 C 6.3184531,-1.2762344 6.3184531,-2.0731094 6.3184531,-2.2488906 c 0,-0.7734375 0.3164063,-1.7695313 1.21875,-1.7695313 0.1523438,0 0.609375,0 0.9257813,0.609375 0.1757812,0.375 0.1757812,0.8789063 0.1757812,1.3710938 0,0.4804687 0,0.9726562 -0.1640625,1.33593747 -0.3046875,0.59765625 -0.7617187,0.64453125 -0.9960937,0.64453125 z m 0,0"
       style="fill:#000000;fill-opacity:1;fill-rule:nonzero;stroke:none"
       aria-label="16"
       transform="matrix(1.3333333,0,0,1.3333333,328.66133,182.88133)" />
    <path
       id="path15"
       d="m 2.9310078,-6.3738906 c 0,-0.234375 0,-0.2578125 -0.234375,-0.2578125 -0.609375,0.6328125 -1.4882812,0.6328125 -1.80468749,0.6328125 v 0.3164062 c 0.19921879,0 0.78515629,0 1.30078129,-0.2578125 v 5.15625002 c 0,0.3515625 -0.035156,0.48046875 -0.9257813,0.48046875 H 0.95053906 v 0.3046875 C 1.3021016,-0.03404688 2.1575703,-0.03404688 2.5560078,-0.03404688 c 0.3984375,0 1.265625,0 1.6171875,0.03515625 v -0.3046875 H 3.8567891 c -0.9023438,0 -0.9257813,-0.1171875 -0.9257813,-0.48046875 z m 3.6796875,1.828125 c -0.46875,-0.3046875 -0.5039062,-0.6445313 -0.5039062,-0.8085938 0,-0.609375 0.6445312,-1.03125 1.359375,-1.03125 0.7265625,0 1.359375,0.515625 1.359375,1.2421875 0,0.5625 -0.3867188,1.0429688 -0.984375,1.3945313 z m 1.453125,0.9375 c 0.7148438,-0.3632813 1.2070313,-0.8789063 1.2070313,-1.5351563 0,-0.9257812 -0.890625,-1.4882812 -1.7929688,-1.4882812 -0.9960937,0 -1.8046875,0.7382812 -1.8046875,1.6640625 0,0.1757812 0.011719,0.6210937 0.4335938,1.0898437 0.1054687,0.1289063 0.4804687,0.375 0.7265625,0.5390625 -0.5742188,0.2929688 -1.4296875,0.84375 -1.4296875,1.8398438 0,1.05468747 1.0078125,1.72265622 2.0625,1.72265622 1.125,0 2.0625,-0.83203125 2.0625,-1.89843752 0,-0.3515625 -0.1054688,-0.8085937 -0.4804688,-1.21875 -0.1875,-0.2109375 -0.3515625,-0.3164062 -0.984375,-0.7148437 z m -0.9960937,0.421875 1.21875,0.7734375 c 0.28125,0.1875 0.75,0.4921875 0.75,1.1015625 0,0.73828122 -0.75,1.25390622 -1.5585938,1.25390622 -0.8671875,0 -1.5820312,-0.62109375 -1.5820312,-1.44140622 0,-0.5859375 0.3164062,-1.21875 1.171875,-1.6875 z m 0,0"
       style="fill:#000000;fill-opacity:1;fill-rule:nonzero;stroke:none"
       aria-label="18"
       transform="matrix(1.3333333,0,0,1.3333333,361.86933,182.88133)" />
    <path
       id="path16"
       d="M 1.2652188,-0.76060938 2.3199063,-1.7918594 c 1.5585937,-1.3710937 2.15625,-1.9101562 2.15625,-2.90625 0,-1.1367187 -0.9023438,-1.9335937 -2.1210938,-1.9335937 -1.125,0 -1.8515625,0.9140625 -1.8515625,1.8046875 0,0.5507812 0.4921875,0.5507812 0.5273438,0.5507812 0.1640625,0 0.515625,-0.1171875 0.515625,-0.5273437 0,-0.2578125 -0.1875,-0.515625 -0.5273438,-0.515625 -0.0820313,0 -0.10546875,0 -0.12890625,0.011719 0.22265625,-0.6445312 0.76171875,-1.0195312 1.33593755,-1.0195312 0.9140625,0 1.3359375,0.8085937 1.3359375,1.6289062 0,0.796875 -0.4921875,1.5820313 -1.0429688,2.203125 L 0.60896875,-0.36217188 C 0.5035,-0.25670313 0.5035,-0.23326563 0.5035,0.00110937 h 3.6914063 l 0.28125,-1.73437497 H 4.2183438 c -0.046875,0.3046875 -0.1171875,0.73828122 -0.2109375,0.89062497 -0.070313,0.0820313 -0.7265625,0.0820313 -0.9492188,0.0820313 z m 8.296875,-2.42578122 c 0,-0.796875 -0.046875,-1.59375 -0.3984375,-2.3320313 -0.4570313,-0.9609375 -1.2773438,-1.1132812 -1.6875,-1.1132812 -0.5976563,0 -1.3359375,0.2578125 -1.734375,1.1835937 -0.328125,0.6914063 -0.375,1.4648438 -0.375,2.2617188 0,0.75 0.046875,1.640625 0.4453125,2.40234372 0.4335937,0.80859375 1.1601562,1.0078125 1.6523437,1.0078125 0.5390625,0 1.2890625,-0.2109375 1.734375,-1.16015625 C 9.5152188,-1.6277969 9.5620938,-2.4012344 9.5620938,-3.1863906 Z M 7.4644375,0.00110937 c -0.3867187,0 -0.984375,-0.24609375 -1.1601562,-1.20703127 -0.1054688,-0.5976562 -0.1054688,-1.5117187 -0.1054688,-2.0976562 0,-0.6445313 0,-1.3007813 0.082031,-1.8398438 0.1875,-1.1835937 0.9257812,-1.265625 1.1835937,-1.265625 0.328125,0 0.984375,0.1757813 1.171875,1.1601563 0.09375,0.5625 0.09375,1.3125 0.09375,1.9453125 0,0.75 0,1.4179687 -0.1054687,2.0625 C 8.47225,-0.30357813 7.90975,0.00110937 7.4644375,0.00110937 Z m 0,0"
       style="fill:#000000;fill-opacity:1;fill-rule:nonzero;stroke:none"
       aria-label="20"
       transform="matrix(1.3333333,0,0,1.3333333,395.07867,182.88133)" />
    <path
       id="path17"
       d="M 1.2644922,-0.76060938 2.3191797,-1.7918594 c 1.5585937,-1.3710937 2.15625,-1.9101562 2.15625,-2.90625 0,-1.1367187 -0.9023438,-1.9335937 -2.1210938,-1.9335937 -1.125,0 -1.85156246,0.9140625 -1.85156246,1.8046875 0,0.5507812 0.4921875,0.5507812 0.52734376,0.5507812 0.1640625,0 0.515625,-0.1171875 0.515625,-0.5273437 0,-0.2578125 -0.1875,-0.515625 -0.5273438,-0.515625 -0.0820312,0 -0.10546871,0 -0.12890621,0.011719 0.22265621,-0.6445312 0.76171871,-1.0195312 1.33593751,-1.0195312 0.9140625,0 1.3359375,0.8085937 1.3359375,1.6289062 0,0.796875 -0.4921875,1.5820313 -1.0429688,2.203125 L 0.60824219,-0.36217188 C 0.50277344,-0.25670313 0.50277344,-0.23326563 0.50277344,0.00110937 H 4.1941797 l 0.28125,-1.73437497 H 4.2176172 c -0.046875,0.3046875 -0.1171875,0.73828122 -0.2109375,0.89062497 -0.070313,0.0820313 -0.7265625,0.0820313 -0.9492188,0.0820313 z m 4.9833984,0 1.0546875,-1.03125002 c 1.5585938,-1.3710937 2.15625,-1.9101562 2.15625,-2.90625 0,-1.1367187 -0.9023437,-1.9335937 -2.1210937,-1.9335937 -1.125,0 -1.8515625,0.9140625 -1.8515625,1.8046875 0,0.5507812 0.4921875,0.5507812 0.5273437,0.5507812 0.1640625,0 0.515625,-0.1171875 0.515625,-0.5273437 0,-0.2578125 -0.1875,-0.515625 -0.5273437,-0.515625 -0.082031,0 -0.1054688,0 -0.1289063,0.011719 0.2226563,-0.6445312 0.7617188,-1.0195312 1.3359375,-1.0195312 0.9140625,0 1.3359375,0.8085937 1.3359375,1.6289062 0,0.796875 -0.4921875,1.5820313 -1.0429687,2.203125 L 5.5916406,-0.36217188 C 5.4861719,-0.25670313 5.4861719,-0.23326563 5.4861719,0.00110937 h 3.6914062 l 0.28125,-1.73437497 H 9.2010156 c -0.046875,0.3046875 -0.1171875,0.73828122 -0.2109375,0.89062497 -0.070312,0.0820313 -0.7265625,0.0820313 -0.9492187,0.0820313 z m 0,0"
       style="fill:#000000;fill-opacity:1;fill-rule:nonzero;stroke:none"
       aria-label="22"
       transform="matrix(1.3333333,0,0,1.3333333,428.28667,182.88133)" />
    <g
       id="g17"
       aria-label="−0.5"
       transform="matrix(1.3333333,0,0,1.3333333,4.428,169.03067)">
      <path
         id="path18"
         d="m 6.5637656,-2.2964375 c 0.1757813,0 0.3515625,0 0.3515625,-0.1992187 0,-0.1992188 -0.1757812,-0.1992188 -0.3515625,-0.1992188 h -5.390625 c -0.1640625,0 -0.33984372,0 -0.33984372,0.1992188 0,0.1992187 0.17578122,0.1992187 0.33984372,0.1992187 z m 0,0"
         style="fill:#000000;fill-opacity:1;fill-rule:nonzero;stroke:none" />
      <path
         id="path19"
         d="m 12.329391,-3.1870625 c 0,-0.796875 -0.04687,-1.59375 -0.398438,-2.3320312 -0.457031,-0.9609375 -1.277344,-1.1132813 -1.6875,-1.1132813 -0.5976561,0 -1.3359374,0.2578125 -1.7343749,1.1835938 -0.328125,0.6914062 -0.375,1.4648437 -0.375,2.2617187 0,0.75 0.046875,1.640625 0.4453125,2.40234375 0.4335938,0.80859375 1.1601563,1.0078125 1.6523434,1.0078125 0.539063,0 1.289063,-0.2109375 1.734375,-1.16015625 0.316407,-0.6914062 0.363282,-1.4648437 0.363282,-2.25 z m -2.097657,3.1875 c -0.3867184,0 -0.9843746,-0.24609375 -1.1601559,-1.2070312 C 8.9661094,-1.80425 8.9661094,-2.7183125 8.9661094,-3.30425 c 0,-0.6445312 0,-1.3007812 0.082031,-1.8398437 0.1875,-1.1835938 0.9257813,-1.265625 1.1835936,-1.265625 0.328125,0 0.984375,0.1757812 1.171875,1.1601562 0.09375,0.5625 0.09375,1.3125 0.09375,1.9453125 0,0.75 0,1.4179688 -0.105468,2.0625 -0.152344,0.9375 -0.714844,1.2421875 -1.160157,1.2421875 z m 0,0"
         style="fill:#000000;fill-opacity:1;fill-rule:nonzero;stroke:none" />
      <path
         id="path20"
         d="m 14.640914,-0.52690625 c 0,-0.29296875 -0.234375,-0.52734375 -0.527344,-0.52734375 -0.28125,0 -0.527343,0.234375 -0.527343,0.52734375 0,0.29296875 0.246093,0.52734375 0.527343,0.52734375 0.292969,0 0.527344,-0.234375 0.527344,-0.52734375 z m 0,0"
         style="fill:#000000;fill-opacity:1;fill-rule:nonzero;stroke:none" />
      <path
         id="path21"
         d="m 19.972945,-2.0034687 c 0,-1.1835938 -0.820312,-2.1796875 -1.898437,-2.1796875 -0.480469,0 -0.902344,0.1640625 -1.265625,0.5039062 v -1.9335937 c 0.199219,0.058594 0.527344,0.1289062 0.84375,0.1289062 1.230469,0 1.933594,-0.9140625 1.933594,-1.0429687 0,-0.058594 -0.03516,-0.1054688 -0.105469,-0.1054688 -0.01172,0 -0.03516,0 -0.08203,0.023437 -0.199219,0.09375 -0.679688,0.2929688 -1.347657,0.2929688 -0.398437,0 -0.855468,-0.070312 -1.324218,-0.28125 -0.08203,-0.023437 -0.105469,-0.023437 -0.128907,-0.023437 -0.09375,0 -0.09375,0.082031 -0.09375,0.234375 v 2.953125 c 0,0.1757812 0,0.2578125 0.140625,0.2578125 0.07031,0 0.08203,-0.035156 0.128907,-0.09375 0.105468,-0.1523438 0.480468,-0.6914063 1.277343,-0.6914063 0.527344,0 0.773438,0.4570313 0.855469,0.6328125 0.152344,0.375 0.175781,0.7617188 0.175781,1.2539063 0,0.3515625 0,0.9492187 -0.234375,1.3710937 -0.246093,0.38671875 -0.609375,0.64453125 -1.066406,0.64453125 -0.726562,0 -1.300781,-0.52734375 -1.464844,-1.11328125 0.02344,0.011719 0.05859,0.011719 0.164063,0.011719 0.328125,0 0.503906,-0.2460938 0.503906,-0.4804688 0,-0.2460937 -0.175781,-0.4921875 -0.503906,-0.4921875 -0.140625,0 -0.480469,0.070312 -0.480469,0.5273438 0,0.8554687 0.679688,1.82812495 1.792969,1.82812495 1.160156,0 2.179687,-0.9609375 2.179687,-2.22656245 z m 0,0"
         style="fill:#000000;fill-opacity:1;fill-rule:nonzero;stroke:none" />
    </g>
    <path
       id="path22"
       d="m 4.5814141,-3.1864922 c 0,-0.796875 -0.046875,-1.59375 -0.3984375,-2.3320312 -0.4570313,-0.9609375 -1.2773438,-1.1132813 -1.6875,-1.1132813 -0.5976563,0 -1.3359375,0.2578125 -1.73437504,1.1835938 -0.328125,0.6914062 -0.375,1.4648437 -0.375,2.2617187 0,0.75 0.046875,1.640625 0.4453125,2.40234376 0.43359374,0.80859375 1.16015624,1.0078125 1.65234374,1.0078125 0.5390625,0 1.2890625,-0.2109375 1.734375,-1.16015625 C 4.5345391,-1.6278984 4.5814141,-2.4013359 4.5814141,-3.1864922 Z M 2.4837578,0.00100781 c -0.3867187,0 -0.984375,-0.24609375 -1.1601562,-1.20703121 -0.1054688,-0.5976563 -0.1054688,-1.5117188 -0.1054688,-2.0976563 0,-0.6445312 0,-1.3007812 0.082031,-1.8398437 0.1875,-1.1835938 0.9257812,-1.265625 1.1835937,-1.265625 0.328125,0 0.984375,0.1757812 1.171875,1.1601562 0.09375,0.5625 0.09375,1.3125 0.09375,1.9453125 0,0.75 0,1.4179688 -0.1054687,2.0625 C 3.49157,-0.30367969 2.92907,0.00100781 2.4837578,0.00100781 Z m 0,0"
       style="fill:#000000;fill-opacity:1;fill-rule:nonzero;stroke:none"
       aria-label="0"
       transform="matrix(1.3333333,0,0,1.3333333,25.090667,119.276)" />
    <g
       id="g22"
       aria-label="0.5"
       transform="matrix(1.3333333,0,0,1.3333333,14.758667,68.968)">
      <path
         id="path23"
         d="m 4.5813906,-3.1869375 c 0,-0.796875 -0.046875,-1.59375 -0.3984375,-2.3320312 -0.4570312,-0.9609375 -1.2773437,-1.1132813 -1.6875,-1.1132813 -0.5976562,0 -1.3359375,0.2578125 -1.73437497,1.1835938 -0.328125,0.6914062 -0.375,1.4648437 -0.375,2.2617187 0,0.75 0.046875,1.640625 0.4453125,2.40234375 C 1.2649844,0.024 1.9915469,0.22321875 2.4837344,0.22321875 c 0.5390625,0 1.2890625,-0.2109375 1.734375,-1.16015625 0.3164062,-0.6914062 0.3632812,-1.4648437 0.3632812,-2.25 z m -2.0976562,3.1875 c -0.3867188,0 -0.984375,-0.24609375 -1.1601563,-1.2070312 C 1.2181094,-1.804125 1.2181094,-2.7181875 1.2181094,-3.304125 c 0,-0.6445312 0,-1.3007812 0.082031,-1.8398437 0.1875,-1.1835938 0.9257813,-1.265625 1.1835938,-1.265625 0.328125,0 0.984375,0.1757812 1.171875,1.1601562 0.09375,0.5625 0.09375,1.3125 0.09375,1.9453125 0,0.75 0,1.4179688 -0.1054688,2.0625 -0.1523437,0.9375 -0.7148437,1.2421875 -1.160156,1.2421875 z m 0,0"
         style="fill:#000000;fill-opacity:1;fill-rule:nonzero;stroke:none" />
      <path
         id="path24"
         d="m 6.8929141,-0.52678125 c 0,-0.29296875 -0.234375,-0.52734375 -0.5273438,-0.52734375 -0.28125,0 -0.5273437,0.234375 -0.5273437,0.52734375 0,0.29296875 0.2460937,0.52734375 0.5273437,0.52734375 0.2929688,0 0.5273438,-0.234375 0.5273438,-0.52734375 z m 0,0"
         style="fill:#000000;fill-opacity:1;fill-rule:nonzero;stroke:none" />
      <path
         id="path25"
         d="m 12.224945,-2.0033437 c 0,-1.1835938 -0.820312,-2.1796875 -1.898437,-2.1796875 -0.4804689,0 -0.9023439,0.1640625 -1.2656252,0.5039062 v -1.9335937 c 0.1992188,0.058594 0.5273438,0.1289062 0.84375,0.1289062 1.2304692,0 1.9335942,-0.9140625 1.9335942,-1.0429687 0,-0.058594 -0.03516,-0.1054688 -0.105469,-0.1054688 -0.01172,0 -0.03516,0 -0.08203,0.023437 -0.199219,0.09375 -0.679688,0.2929688 -1.347657,0.2929688 -0.3984372,0 -0.8554684,-0.070312 -1.3242184,-0.28125 -0.082031,-0.023437 -0.1054688,-0.023437 -0.1289063,-0.023437 -0.09375,0 -0.09375,0.082031 -0.09375,0.234375 v 2.953125 c 0,0.1757812 0,0.2578125 0.140625,0.2578125 0.070312,0 0.082031,-0.035156 0.1289063,-0.09375 0.1054687,-0.1523438 0.4804687,-0.6914063 1.2773434,-0.6914063 0.527344,0 0.773438,0.4570313 0.855469,0.6328125 0.152344,0.375 0.175781,0.7617188 0.175781,1.2539063 0,0.3515625 0,0.9492187 -0.234375,1.3710937 -0.246093,0.38671875 -0.609375,0.64453125 -1.066406,0.64453125 -0.7265624,0 -1.3007812,-0.52734375 -1.4648437,-1.11328125 0.023437,0.011719 0.058594,0.011719 0.1640625,0.011719 0.328125,0 0.5039063,-0.2460938 0.5039063,-0.4804688 0,-0.2460937 -0.1757813,-0.4921875 -0.5039063,-0.4921875 -0.140625,0 -0.4804687,0.070312 -0.4804687,0.5273438 0,0.8554687 0.6796875,1.82812495 1.7929689,1.82812495 1.160156,0 2.179687,-0.9609375 2.179687,-2.22656245 z m 0,0"
         style="fill:#000000;fill-opacity:1;fill-rule:nonzero;stroke:none" />
    </g>
    <path
       id="path26"
       d="m 2.9290703,-6.3748828 c 0,-0.234375 0,-0.2578125 -0.234375,-0.2578125 -0.609375,0.6328125 -1.4882812,0.6328125 -1.80468749,0.6328125 v 0.3164062 c 0.19921879,0 0.78515629,0 1.30078129,-0.2578125 v 5.15625004 c 0,0.3515625 -0.035156,0.48046875 -0.9257813,0.48046875 H 0.94860156 V 1.171875e-4 C 1.3001641,-0.03503906 2.1556328,-0.03503906 2.5540703,-0.03503906 c 0.3984375,0 1.265625,0 1.6171875,0.0351562475 V -0.30457031 H 3.8548516 c -0.9023438,0 -0.9257813,-0.1171875 -0.9257813,-0.48046875 z m 0,0"
       style="fill:#000000;fill-opacity:1;fill-rule:nonzero;stroke:none"
       aria-label="1"
       transform="matrix(1.3333333,0,0,1.3333333,25.090667,18.66)" />
    <path
       id="path27"
       d="m 0,105.852 0.49911,-0.0303 0.49914,-0.0909 0.49914,-0.15133 0.49913,-0.21161 0.49912,-0.27164 0.49914,-0.33134 0.49913,-0.39061 0.49912,-0.44946 0.49911,-0.50774 0.49915,-0.56542 0.49913,-0.62242 0.49913,-0.67863 0.49913,-0.73412 0.49913,-0.78863 0.49913,-0.84226 0.49914,-0.89485 0.49912,-0.94637 0.49914,-0.99674 0.49913,-1.04598 0.49913,-1.0939 0.49914,-1.14053 0.49913,-1.18584 0.49911,-1.22971 0.49913,-1.27209 0.49913,-1.31301 0.49913,-1.35232 0.49913,-1.39005 0.49915,-1.42614 0.49911,-1.46054 0.49913,-1.49321 0.49915,-1.52411 0.49913,-1.55324 0.49913,-1.58054 0.49913,-1.60597 0.49913,-1.62953 0.49914,-1.65115 0.49913,-1.67092 0.4991,-1.68869 0.49913,-1.70453 0.49915,-1.71836 0.49913,-1.73025 0.49912,-1.74011 0.49914,-1.748 0.49913,-1.75384 0.49913,-1.75776 0.49913,-1.75959 0.49913,-1.75949 0.49915,-1.75739 0.49913,-1.75327 0.49911,-1.74722 0.49915,-1.73921 0.49913,-1.72929 0.49911,-1.71741 0.49912,-1.70366 0.49914,-1.68808 0.49914,-1.67058 0.49912,-1.65133 0.49913,-1.6303 0.49913,-1.6075 0.49913,-1.58301 0.49915,-1.55685 0.49912,-1.52905 0.49912,-1.49965 0.49915,-1.46875 0.49913,-1.43631 0.49913,-1.40245 0.49913,-1.3672 0.49913,-1.33057 0.49912,-1.29266 0.49913,-1.25353 0.49913,-1.21319 0.49913,-1.17176 0.49914,-1.12922 0.49913,-1.0857 0.49912,-1.04124 0.49914,-0.99591 0.49913,-0.94973 0.49913,-0.9028 L 39.4313,6.90826 39.93044,6.1013 40.42958,5.34314 40.92871,4.63428 41.42783,3.9751 41.92694,3.366 42.42609,2.80727 42.92522,2.29909 43.42433,1.84167 43.92348,1.43506 44.4226,1.0793 44.92174,0.7743 45.42087,0.52 45.92,0.3162 46.41913,0.16264 46.91827,0.05902 47.41739,0.00494 47.91653,0 l 0.49913,0.04364 0.49914,0.09169 0.4991,0.13911 0.49914,0.18586 0.49913,0.23182 0.49913,0.27701 0.49913,0.32132 0.49913,0.36475 0.49913,0.40718 0.49915,0.44862 0.49913,0.48895 0.49911,0.5282 0.49915,0.56629 0.49913,0.60315 0.49914,0.63877 0.49912,0.6731 0.49913,0.70612 0.49911,0.73773 0.49915,0.76797 0.49911,0.79679 0.49913,0.82413 0.49915,0.84997 0.49913,0.8743 0.49912,0.89709 0.49914,0.91832 0.49913,0.93796 0.49913,0.95602 0.49913,0.97246 0.49913,0.98726 0.49913,1.00044 0.49915,1.01197 0.49911,1.02188 0.49912,1.0301 0.49914,1.03668 0.49914,1.04165 0.49911,1.04492 0.49914,1.0466 0.49913,1.04661 0.49913,1.04503 0.49913,1.04187 0.49913,1.03707 0.49913,1.03074 0.49915,1.02283 0.49912,1.01343 0.49913,1.0025 0.49914,0.9901 0.49913,0.97625 0.49912,0.96099 0.49913,0.94432 0.49913,0.92633 0.49913,0.90701 0.49914,0.88642 0.49912,0.86458 0.49913,0.84155 0.49914,0.81735 0.49913,0.79205 0.49912,0.76569 0.49914,0.73828 0.49913,0.70993 0.49913,0.68062 0.49914,0.65048 0.49913,0.61951 0.49911,0.58772 0.49915,0.55527 0.49911,0.52211 0.49913,0.4884 0.49915,0.45407 0.49912,0.41927 0.49912,0.38403 0.49915,0.34839 0.49913,0.31242 0.49913,0.27619 0.49913,0.23974 0.49913,0.20313 0.49913,0.1664 0.49914,0.12963 0.49912,0.0929 0.49912,0.0562 0.49914,0.01965 0.49913,-0.01675 0.49911,-0.05291 0.49915,-0.08874 0.49913,-0.12428 0.49913,-0.15943 0.49915,-0.19407 0.49911,-0.2283 0.49913,-0.26192 0.49915,-0.29498 0.49913,-0.32738 0.49911,-0.35909 0.49915,-0.39006 0.49913,-0.42026 0.49913,-0.44964 0.49912,-0.47815 0.49912,-0.50577 0.49913,-0.53242 0.49915,-0.55813 0.49911,-0.58279 0.49913,-0.60645 0.49915,-0.62899 0.49913,-0.65044 0.49912,-0.67075 0.49914,-0.68992 0.49913,-0.7079 0.49913,-0.72464 0.49913,-0.74019 0.49913,-0.7545 0.49913,-0.76752 0.49913,-0.77928 0.49912,-0.78975 0.49912,-0.79893 0.49915,-0.8068 0.49913,-0.81335 0.49912,-0.81859 0.49914,-0.82253 0.49913,-0.82511 0.49913,-0.82639 0.49913,-0.82638 0.49913,-0.82506 0.49914,-0.82241 0.49914,-0.81851 0.49913,-0.81332 0.49912,-0.80686 0.49913,-0.79914 0.49913,-0.79023 0.49913,-0.78009 0.49912,-0.76874 0.49914,-0.75627 0.49913,-0.74261 0.49914,-0.72788 0.49912,-0.71203 0.49913,-0.69513 0.49914,-0.67725 0.49913,-0.65828 0.49912,-0.63844 0.49915,-0.61762 0.49912,-0.59593 0.49913,-0.57338 0.49912,-0.55005 0.49913,-0.52591 0.49913,-0.50105 0.49915,-0.47551 0.49911,-0.44932 0.49913,-0.4225 0.49915,-0.39518 0.49913,-0.36729 0.49911,-0.33896 0.49915,-0.31021 0.49913,-0.28108 0.49913,-0.25164 0.49913,-0.22189 0.49913,-0.19191 0.49913,-0.16176 0.49913,-0.1315 0.49913,-0.10109 0.49911,-0.07071 0.49916,-0.04028 0.49912,-0.0099 0.49913,0.02031 0.49913,0.05038 0.49913,0.08031 0.49913,0.10995 0.49915,0.13932 0.49911,0.16833 0.49913,0.19699 0.49915,0.22522 0.49911,0.25298 0.49912,0.28023 0.49914,0.30694 0.49915,0.33307 0.49911,0.35854 0.49913,0.38338 0.49913,0.4075 0.49913,0.43087 0.49915,0.45349 0.49911,0.4753 0.49913,0.49629 0.49915,0.51637 0.49913,0.5356 0.49912,0.55388 0.49911,0.57123 0.49916,0.58762 0.49913,0.60299 0.49913,0.61736 0.49912,0.63067 0.49912,0.64298 0.49915,0.65419 0.49913,0.66432 0.49912,0.67337 0.49914,0.68129 0.49913,0.68814 0.49913,0.69385 0.49913,0.69841 0.49912,0.7019 0.49915,0.70421 0.49914,0.70542 0.49911,0.7055 0.49912,0.70442 0.49915,0.70227 0.49913,0.69901 0.49913,0.69461 0.49912,0.68913 0.49914,0.68261 0.49913,0.67495 0.49913,0.66631 0.49913,0.65661 0.49913,0.64591 0.49914,0.6342 0.49912,0.62152 0.49913,0.60791 0.49915,0.59335 0.49911,0.5779 0.49913,0.56158 0.49914,0.54444 0.49913,0.52646 0.49912,0.50772 0.49913,0.4882 0.49913,0.468 0.49913,0.44709 0.49915,0.42556 0.49911,0.4034 0.49913,0.38068 0.49915,0.35742 0.49913,0.33365 0.49911,0.30944 0.49915,0.28481 0.49913,0.25979 0.49912,0.23446 0.49912,0.2088 0.49913,0.18291 0.49913,0.15681 0.49916,0.13052 0.49912,0.1041 0.49911,0.07762 0.49915,0.05109 0.49913,0.02455 0.49913,-0.002 0.49913,-0.02837 0.49913,-0.05465 0.49913,-0.08079 0.49915,-0.10669 0.49911,-0.13237 0.49912,-0.15776 0.49915,-0.18282 0.49914,-0.20749 0.4991,-0.23179 0.49914,-0.25565 0.49913,-0.27899 0.49913,-0.30188 0.49913,-0.32417 0.49913,-0.3459 0.49913,-0.36701 0.49915,-0.3875 0.49912,-0.40728 0.49912,-0.42635 0.49912,-0.4447 0.49916,-0.4623 0.49911,-0.47909 0.49915,-0.49507 0.49912,-0.51026 0.49912,-0.5245 0.49915,-0.53794 0.49913,-0.55048 0.49912,-0.56208 0.49914,-0.57275 0.49913,-0.58248 0.49912,-0.59126 0.49914,-0.59908 0.49913,-0.60591 0.49914,-0.61175 0.49912,-0.61661 0.49913,-0.62047 0.49912,-0.62332 0.49913,-0.62515 0.49913,-0.62603 0.49914,-0.62588 0.49913,-0.62471 0.49914,-0.62256 0.49911,-0.61944 0.49915,-0.6153 0.49913,-0.61023 0.49913,-0.60419 0.49913,-0.59718 0.49913,-0.58923 0.49913,-0.58042 0.49915,-0.57061 0.49909,-0.56 0.49915,-0.54849 0.49914,-0.53612 0.49913,-0.52295 0.4991,-0.50897 0.49913,-0.49421 0.49915,-0.47869 0.49914,-0.46247 0.49912,-0.44554 0.49913,-0.42793 0.49913,-0.4097 0.49915,-0.39084 0.49913,-0.37143 0.4991,-0.35145 0.49916,-0.33098 0.49913,-0.31 0.49912,-0.28864 0.4991,-0.2668 0.49915,-0.24464 0.49913,-0.22212 0.49916,-0.19931 0.4991,-0.17624 0.49913,-0.15291 0.49915,-0.12945 0.49913,-0.10582 0.49911,-0.08205 0.49915,-0.05824 0.49913,-0.03441 0.49913,-0.01053 0.49913,0.01329 0.49913,0.03697 0.49912,0.06064 0.49915,0.08406 0.49912,0.10735 0.49913,0.1304 0.49912,0.15315 0.49914,0.17564 0.49912,0.1978 0.49914,0.21957 0.49913,0.24094 0.49913,0.26186 0.49913,0.28235 0.49914,0.30232 0.49912,0.32175 0.49912,0.34064 0.49914,0.35891 0.49913,0.37657 0.49915,0.39364 0.49911,0.41 0.49913,0.42562 0.49912,0.4406 0.49916,0.45484 0.49912,0.46826 0.49914,0.48094 0.49912,0.49282 0.49913,0.50384 0.49914,0.51413 0.49913,0.52345 0.49912,0.53202 0.49914,0.53965 0.49913,0.54642 0.49913,0.55233 0.4991,0.55729 0.49916,0.56139 0.49913,0.56457 0.49912,0.56683 0.49913,0.5682 0.49913,0.56862 0.49913,0.56816 0.49915,0.56678 0.49911,0.56452 0.49915,0.56135 0.49913,0.55725 0.49913,0.55233 0.49913,0.54651 0.49911,0.5398 0.49915,0.5323 0.49914,0.52392 0.49912,0.51472 0.49911,0.50475 0.49913,0.49396 0.49915,0.48242 0.49914,0.47013 0.4991,0.45712 0.49915,0.4434 0.49913,0.429 0.49914,0.41393 0.49912,0.39827 0.49913,0.38195 0.49915,0.36512 0.49913,0.34767 0.49911,0.32976 0.49911,0.31132 0.49915,0.29246 0.49913,0.27314 0.49915,0.25343 0.49911,0.23335 0.49913,0.21296 0.49913,0.19226 0.49913,0.17128 0.49913,0.1501 0.49915,0.12869 0.49913,0.10715 0.49911,0.08544 0.49915,0.0637 0.49913,0.04184 0.49911,0.02002 0.49915,-0.0018 0.49913,-0.02363 0.49913,-0.04535 0.49912,-0.06694 0.49913,-0.08838 0.49913,-0.10963 0.49916,-0.13068 0.49911,-0.15147 0.49912,-0.17197 0.49914,-0.19217"
       style="fill:none;stroke:#0000ff;stroke-width:0.3985;stroke-linecap:butt;stroke-linejoin:miter;stroke-miterlimit:10;stroke-dasharray:none;stroke-opacity:1"
       transform="matrix(1.3333333,0,0,-1.3333333,69.636,155.51467)"
       clip-path="url(#clipPath28)" />
    <g
       id="g28"
       aria-label="J&#10;0&#10;(x)"
       transform="matrix(1.3333333,0,0,1.3333333,363.872,68.390667)"
       clip-path="url(#clipPath34)">
      <path
         id="path29"
         d="m 5.3899453,-6.0820625 c 0.082031,-0.328125 0.09375,-0.4101562 0.6445313,-0.4101562 0.1640625,0 0.2695312,0 0.2695312,-0.1875 0,-0.09375 -0.058594,-0.1289063 -0.140625,-0.1289063 -0.2460937,0 -0.8554687,0.035156 -1.1015625,0.035156 -0.328125,0 -1.1367187,-0.035156 -1.4648437,-0.035156 -0.09375,0 -0.2109375,0 -0.2109375,0.1992188 0,0.1171875 0.082031,0.1171875 0.3398437,0.1171875 0.2226563,0 0.328125,0 0.5742188,0.011719 0.2460937,0.035156 0.3164062,0.070312 0.3164062,0.1992188 0,0.070312 -0.023437,0.140625 -0.046875,0.2109375 L 3.4211953,-1.5000312 C 3.1868203,-0.527375 2.5071328,-3.125e-5 1.9915078,-3.125e-5 1.7336953,-3.125e-5 1.2063516,-0.1055 1.0422891,-0.621125 c 0.035156,0.0117188 0.1054687,0.0117188 0.1171875,0.0117188 0.3984375,0 0.65625,-0.33984375 0.65625,-0.6328124 0,-0.3164063 -0.2695313,-0.421875 -0.4453125,-0.421875 -0.1757813,0 -0.66796879,0.1171875 -0.66796879,0.7968749 0,0.62109375 0.52734379,1.08984375 1.32421879,1.08984375 0.9140625,0 1.9453125,-0.65625 2.1914062,-1.65234365 z m 0,0"
         style="fill:#0000ff;fill-opacity:1;fill-rule:nonzero;stroke:none" />
      <path
         id="path30"
         d="m 9.1223672,-0.73245312 c 0,-0.76171878 -0.09375,-1.31249998 -0.4101563,-1.80468748 -0.2226562,-0.3164063 -0.6445312,-0.5976563 -1.2070312,-0.5976563 -1.6171875,0 -1.6171875,1.8984375 -1.6171875,2.40234378 0,0.50390625 0,2.36718752 1.6171875,2.36718752 1.6171875,0 1.6171875,-1.86328127 1.6171875,-2.36718752 z M 7.5051797,1.4355156 c -0.3164063,0 -0.75,-0.1875 -0.890625,-0.76171872 -0.09375,-0.41015625 -0.09375,-0.984375 -0.09375,-1.5 0,-0.50390628 0,-1.03124998 0.1054687,-1.41796878 0.1523438,-0.5507812 0.5976563,-0.6914062 0.8789063,-0.6914062 0.375,0 0.7382812,0.2226562 0.8671875,0.6328125 0.1054687,0.375 0.1171875,0.8789062 0.1171875,1.47656248 0,0.515625 0,1.04296875 -0.09375,1.4765625 C 8.2551797,1.2831719 7.7864297,1.4355156 7.5051797,1.4355156 Z m 0,0"
         style="fill:#0000ff;fill-opacity:1;fill-rule:nonzero;stroke:none" />
      <path
         id="path31"
         d="m 13.288383,2.3905938 c 0,-0.035156 0,-0.046875 -0.164063,-0.2226563 -1.242187,-1.25390625 -1.570312,-3.12890625 -1.570312,-4.6640625 0,-1.7226562 0.386719,-3.4570312 1.605469,-4.7109375 0.128906,-0.1171875 0.128906,-0.1289062 0.128906,-0.1640625 0,-0.070312 -0.03516,-0.1054687 -0.09375,-0.1054687 -0.105469,0 -0.996094,0.6796875 -1.582031,1.9453125 -0.515625,1.1015625 -0.632813,2.203125 -0.632813,3.0351562 0,0.7851563 0.117188,1.9921875 0.65625,3.1171875 0.597656,1.21875 1.453125,1.875 1.558594,1.875 0.05859,0 0.09375,-0.035156 0.09375,-0.1054687 z m 0,0"
         style="fill:#0000ff;fill-opacity:1;fill-rule:nonzero;stroke:none" />
      <path
         id="path32"
         d="m 17.196586,-3.01175 c 0.05859,-0.2578125 0.292969,-1.171875 0.984375,-1.171875 0.04687,0 0.292969,0 0.503906,0.1289063 -0.28125,0.046875 -0.480469,0.3046875 -0.480469,0.5390625 0,0.1640625 0.105469,0.3515625 0.375,0.3515625 0.222657,0 0.539063,-0.1875 0.539063,-0.5859375 0,-0.515625 -0.585938,-0.65625 -0.925781,-0.65625 -0.574219,0 -0.925782,0.5273437 -1.042969,0.7617187 -0.257813,-0.65625 -0.785156,-0.7617187 -1.078125,-0.7617187 -1.042969,0 -1.605469,1.2890625 -1.605469,1.5351562 0,0.1054688 0.105469,0.1054688 0.117188,0.1054688 0.08203,0 0.117187,-0.023437 0.128906,-0.1171875 0.339844,-1.0546875 0.996094,-1.3007813 1.335937,-1.3007813 0.1875,0 0.539063,0.09375 0.539063,0.6679688 0,0.3046875 -0.164063,0.9726562 -0.539063,2.3671875 C 15.895805,-0.527375 15.544242,-0.1055 15.09893,-0.1055 c -0.05859,0 -0.28125,0 -0.492188,-0.12890625 0.246094,-0.0585937 0.46875,-0.26953125 0.46875,-0.5390625 0,-0.26953125 -0.222656,-0.35156245 -0.375,-0.35156245 -0.292969,0 -0.539062,0.25781245 -0.539062,0.5742187 0,0.45703125 0.492187,0.65625 0.9375,0.65625 0.65625,0 1.007812,-0.69140625 1.042968,-0.75 0.117188,0.36328125 0.480469,0.75 1.078125,0.75 1.019532,0 1.59375,-1.2773437 1.59375,-1.5351562 0,-0.09375 -0.09375,-0.09375 -0.128906,-0.09375 -0.08203,0 -0.105469,0.035156 -0.128906,0.1054687 -0.328125,1.06640625 -0.996094,1.3125 -1.324219,1.3125 -0.386719,0 -0.539062,-0.328125 -0.539062,-0.65625 0,-0.22265625 0.05859,-0.4453125 0.164062,-0.8789062 z m 0,0"
         style="fill:#0000ff;fill-opacity:1;fill-rule:nonzero;stroke:none" />
      <path
         id="path33"
         d="m 22.443656,-2.496125 c 0,-0.7734375 -0.117187,-1.9804687 -0.65625,-3.1054687 -0.597656,-1.21875 -1.464843,-1.875 -1.558593,-1.875 -0.05859,0 -0.105469,0.046875 -0.105469,0.1054687 0,0.035156 0,0.046875 0.199219,0.234375 0.972656,0.984375 1.535156,2.5664063 1.535156,4.640625 0,1.7109375 -0.363281,3.45703125 -1.59375,4.7226563 -0.140625,0.1171875 -0.140625,0.1289062 -0.140625,0.1640625 0,0.058594 0.04687,0.1054687 0.105469,0.1054687 0.09375,0 0.996093,-0.6796875 1.582031,-1.9453125 0.503906,-1.1015625 0.632812,-2.203125 0.632812,-3.046875 z m 0,0"
         style="fill:#0000ff;fill-opacity:1;fill-rule:nonzero;stroke:none" />
    </g>
    <path
       id="path35"
       d="m 246.7042,46.51332 -8.60265,12.81923"
       style="fill:none;stroke:#808080;stroke-width:0.19925;stroke-linecap:butt;stroke-linejoin:miter;stroke-miterlimit:10;stroke-dasharray:none;stroke-opacity:1"
       transform="matrix(1.3333333,0,0,-1.3333333,69.636,155.51467)"
       clip-path="url(#clipPath36)" />
    <path
       id="path37"
       d="m 0,30.38939 0.49911,1.51196 0.49914,1.51016 0.49914,1.5065 0.49913,1.50107 0.49912,1.49379 0.49914,1.48474 0.49913,1.47391 0.49912,1.46126 0.49911,1.44692 0.49915,1.43081 0.49913,1.41299 0.49913,1.39351 0.49913,1.3723 0.49913,1.34955 0.49913,1.3251 0.49914,1.29915 0.49912,1.27164 0.49914,1.2426 0.49913,1.21216 0.49913,1.18025 0.49914,1.14697 0.49913,1.11235 0.49911,1.07648 0.49913,1.03932 0.49913,1.00101 0.49913,0.96151 0.49913,0.921 0.49915,0.87938 0.49911,0.83682 0.49913,0.79333 0.49915,0.749 0.49913,0.70381 0.49913,0.65793 0.49913,0.61134 0.49913,0.5641 0.49914,0.51636 0.49913,0.46805 0.4991,0.41938 0.49913,0.37028 0.49915,0.32089 0.49913,0.27128 0.49912,0.22147 0.49914,0.17154 0.49913,0.12158 0.49913,0.07164 0.49913,0.02179 0.49913,-0.02794 0.49915,-0.07743 0.49913,-0.12665 0.49911,-0.17554 0.49915,-0.22401 0.49913,-0.27204 0.49911,-0.3195 0.49912,-0.36643 0.49914,-0.41266 0.49914,-0.45819 0.49912,-0.50298 0.49913,-0.54693 0.49913,-0.59004 0.49913,-0.63216 0.49915,-0.67332 0.49912,-0.71345 0.49912,-0.75253 0.49915,-0.79042 0.49913,-0.82716 0.49913,-0.86266 0.49913,-0.89691 0.49913,-0.92984 0.49912,-0.96144 0.49913,-0.99161 0.49913,-1.02043 0.49913,-1.04773 0.49914,-1.07357 0.49913,-1.09794 0.49912,-1.12069 0.49914,-1.14192 0.49913,-1.16156 0.49913,-1.17959 0.49913,-1.19598 0.49914,-1.21074 0.49914,-1.22383 0.49913,-1.23525 0.49912,-1.245 0.49911,-1.2531 0.49915,-1.25945 0.49913,-1.26414 0.49911,-1.26717 0.49915,-1.26846 0.49912,-1.26811 0.49914,-1.26607 0.49913,-1.26238 0.49913,-1.257 0.49913,-1.25002 0.49914,-1.24139 0.49912,-1.23118 0.49914,-1.21938 0.49913,-1.20602 0.49914,-1.19113 0.4991,-1.17473 0.49914,-1.15685 0.49913,-1.13754 0.49913,-1.11678 0.49913,-1.09466 0.49913,-1.07122 0.49913,-1.04643 0.49915,-1.02043 0.49913,-0.99313 0.49911,-0.96474 0.49915,-0.93517 0.49913,-0.90452 0.49914,-0.87282 0.49912,-0.84015 0.49913,-0.8065 0.49911,-0.77201 0.49915,-0.73664 0.49911,-0.7005 0.49913,-0.66365 0.49915,-0.62612 0.49913,-0.58794 0.49912,-0.54922 0.49914,-0.50999 0.49913,-0.47033 0.49913,-0.43026 0.49913,-0.38985 0.49913,-0.3492 0.49913,-0.3083 0.49915,-0.26727 0.49911,-0.22612 0.49912,-0.18497 0.49914,-0.14383 0.49914,-0.10274 0.49911,-0.06179 0.49914,-0.0211 0.49913,0.0194 0.49913,0.05959 0.49913,0.09939 0.49913,0.13876 0.49913,0.17771 0.49915,0.21608 0.49912,0.25387 0.49913,0.29107 0.49914,0.32756 0.49913,0.36331 0.49912,0.39828 0.49913,0.43248 0.49913,0.46572 0.49913,0.49812 0.49914,0.52952 0.49912,0.55994 0.49913,0.58931 0.49914,0.61763 0.49913,0.64481 0.49912,0.67086 0.49914,0.69574 0.49913,0.71941 0.49913,0.74185 0.49914,0.76302 0.49913,0.7829 0.49911,0.80148 0.49915,0.81871 0.49911,0.83464 0.49913,0.84917 0.49915,0.86232 0.49912,0.87408 0.49912,0.88446 0.49915,0.89341 0.49913,0.90092 0.49913,0.90708 0.49913,0.91177 0.49913,0.91503 0.49913,0.9169 0.49914,0.91735 0.49912,0.91637 0.49912,0.91401 0.49914,0.91025 0.49913,0.90512 0.49911,0.89864 0.49915,0.89077 0.49913,0.88164 0.49913,0.87114 0.49915,0.85941 0.49911,0.84636 0.49913,0.83214 0.49915,0.81666 0.49913,0.80002 0.49911,0.78222 0.49915,0.76336 0.49913,0.74334 0.49913,0.72234 0.49912,0.70029 0.49912,0.67727 0.49913,0.65337 0.49915,0.62851 0.49911,0.60282 0.49913,0.57638 0.49915,0.54913 0.49913,0.52115 0.49912,0.49252 0.49914,0.46329 0.49913,0.43346 0.49913,0.40309 0.49913,0.37225 0.49913,0.34099 0.49913,0.30934 0.49913,0.27738 0.49912,0.24512 0.49912,0.21261 0.49915,0.17995 0.49913,0.14717 0.49912,0.11428 0.49914,0.08141 0.49913,0.04855 0.49913,0.01573 0.49913,-0.01692 0.49913,-0.04942 0.49914,-0.0817 0.49914,-0.11367 0.49913,-0.14537 0.49912,-0.17669 0.49913,-0.20755 0.49913,-0.23802 0.49913,-0.26793 0.49912,-0.2973 0.49914,-0.32608 0.49913,-0.35423 0.49914,-0.38175 0.49912,-0.40846 0.49913,-0.43448 0.49914,-0.4597 0.49913,-0.48407 0.49912,-0.50761 0.49915,-0.53025 0.49912,-0.55197 0.49913,-0.57269 0.49912,-0.59247 0.49913,-0.61125 0.49913,-0.62897 0.49915,-0.64561 0.49911,-0.66123 0.49913,-0.67569 0.49915,-0.68907 0.49913,-0.70129 0.49911,-0.71239 0.49915,-0.7223 0.49913,-0.73107 0.49913,-0.73861 0.49913,-0.745 0.49913,-0.75017 0.49913,-0.75416 0.49913,-0.75695 0.49913,-0.75853 0.49911,-0.75892 0.49916,-0.7581 0.49912,-0.75611 0.49913,-0.75293 0.49913,-0.74859 0.49913,-0.74308 0.49913,-0.7364 0.49915,-0.72865 0.49911,-0.71972 0.49913,-0.70971 0.49915,-0.69864 0.49911,-0.68649 0.49912,-0.67331 0.49914,-0.65913 0.49915,-0.64397 0.49911,-0.62783 0.49913,-0.61074 0.49913,-0.59281 0.49913,-0.57397 0.49915,-0.55434 0.49911,-0.53384 0.49913,-0.51261 0.49915,-0.49064 0.49913,-0.46801 0.49912,-0.44467 0.49911,-0.42073 0.49916,-0.39622 0.49913,-0.37117 0.49913,-0.34563 0.49912,-0.31962 0.49912,-0.2932 0.49915,-0.26644 0.49913,-0.23929 0.49912,-0.21189 0.49914,-0.18428 0.49913,-0.15644 0.49913,-0.12843 0.49913,-0.10036 0.49912,-0.07219 0.49915,-0.04402 0.49914,-0.01588 0.49911,0.0122 0.49912,0.04018 0.49915,0.06796 0.49913,0.0956 0.49913,0.12294 0.49912,0.15002 0.49914,0.17679 0.49913,0.20316 0.49913,0.22914 0.49913,0.25465 0.49913,0.27971 0.49914,0.30423 0.49912,0.3282 0.49913,0.35154 0.49915,0.37428 0.49911,0.39634 0.49913,0.41771 0.49914,0.43834 0.49913,0.45823 0.49912,0.47732 0.49913,0.49559 0.49913,0.51303 0.49913,0.52959 0.49915,0.54524 0.49911,0.56004 0.49913,0.57384 0.49915,0.58673 0.49913,0.59863 0.49911,0.60956 0.49915,0.61948 0.49913,0.6284 0.49912,0.63628 0.49912,0.64314 0.49913,0.64896 0.49913,0.65373 0.49916,0.65744 0.49912,0.66011 0.49911,0.66173 0.49915,0.66227 0.49913,0.66179 0.49913,0.66025 0.49913,0.65765 0.49913,0.65406 0.49913,0.64938 0.49915,0.64374 0.49911,0.63707 0.49912,0.62942 0.49915,0.62078 0.49914,0.61119 0.4991,0.60064 0.49914,0.58921 0.49913,0.57683 0.49913,0.56358 0.49913,0.54951 0.49913,0.53458 0.49913,0.51883 0.49915,0.50233 0.49912,0.48507 0.49912,0.46708 0.49912,0.44841 0.49916,0.42906 0.49911,0.40914 0.49915,0.38853 0.49912,0.36745 0.49912,0.34581 0.49915,0.32365 0.49913,0.30111 0.49912,0.2781 0.49914,0.2547 0.49913,0.23102 0.49912,0.20697 0.49914,0.18269 0.49913,0.15821 0.49914,0.1335 0.49912,0.10865 0.49913,0.08376 0.49912,0.0587 0.49913,0.03368 0.49913,0.0087 0.49914,-0.01632 0.49913,-0.04118 0.49914,-0.06593 0.49911,-0.09049 0.49915,-0.11486 0.49913,-0.13898 0.49913,-0.16281 0.49913,-0.18631 0.49913,-0.20949 0.49913,-0.23222 0.49915,-0.2546 0.49909,-0.27643 0.49915,-0.2978 0.49914,-0.31865 0.49913,-0.33894 0.4991,-0.35863 0.49913,-0.3777 0.49915,-0.39612 0.49914,-0.41388 0.49912,-0.43092 0.49913,-0.44721 0.49913,-0.46278 0.49915,-0.47757 0.49913,-0.49155 0.4991,-0.50471 0.49916,-0.51704 0.49913,-0.52855 0.49912,-0.53915 0.4991,-0.54884 0.49915,-0.55772 0.49913,-0.5656 0.49916,-0.5726 0.4991,-0.57869 0.49913,-0.58382 0.49915,-0.58799 0.49913,-0.59124 0.49911,-0.59355 0.49915,-0.59488 0.49913,-0.59529 0.49913,-0.59474 0.49913,-0.59323 0.49913,-0.59077 0.49912,-0.58741 0.49915,-0.5831 0.49912,-0.57789 0.49913,-0.57176 0.49912,-0.56473 0.49914,-0.55681 0.49912,-0.54805 0.49914,-0.53841 0.49913,-0.52795 0.49913,-0.51668 0.49913,-0.50459 0.49914,-0.49173 0.49912,-0.47815 0.49912,-0.46379 0.49914,-0.44875 0.49913,-0.43303 0.49915,-0.41665 0.49911,-0.39966 0.49913,-0.38207 0.49912,-0.36389 0.49916,-0.34517 0.49912,-0.32597 0.49914,-0.30627 0.49912,-0.28617 0.49913,-0.26561 0.49914,-0.24467 0.49913,-0.22344 0.49912,-0.20184 0.49914,-0.18001 0.49913,-0.15793 0.49913,-0.13565 0.4991,-0.11319 0.49916,-0.09062 0.49913,-0.06796 0.49912,-0.0452 0.49913,-0.02244 0.49913,2.9e-4 0.49913,0.02296 0.49915,0.04558 0.49911,0.06804 0.49915,0.09038 0.49913,0.11251 0.49913,0.1344 0.49913,0.15605 0.49911,0.17739 0.49915,0.1984 0.49914,0.21905 0.49912,0.2393 0.49911,0.25915 0.49913,0.27853 0.49915,0.2974 0.49914,0.31579 0.4991,0.33363 0.49915,0.35087 0.49913,0.36754 0.49914,0.38359 0.49912,0.39901 0.49913,0.41371 0.49915,0.42775 0.49913,0.44108 0.49911,0.45368 0.49911,0.46552 0.49915,0.47659 0.49913,0.48689 0.49915,0.49638 0.49911,0.50507 0.49913,0.51291 0.49913,0.51996 0.49913,0.52612 0.49913,0.53145 0.49915,0.5359 0.49913,0.53952 0.49911,0.54228 0.49915,0.5441 0.49913,0.54512 0.49911,0.54523 0.49915,0.54448 0.49913,0.54286 0.49913,0.54037 0.49912,0.53704 0.49913,0.53285 0.49913,0.52782 0.49916,0.52194 0.49911,0.51526 0.49912,0.50776 0.49914,0.4995"
       style="fill:none;stroke:#ff0000;stroke-width:0.3985;stroke-linecap:butt;stroke-linejoin:miter;stroke-miterlimit:10;stroke-dasharray:none;stroke-opacity:1"
       transform="matrix(1.3333333,0,0,-1.3333333,69.636,155.51467)"
       clip-path="url(#clipPath38)" />
    <g
       id="g38"
       aria-label="J&#10;1&#10;(x)"
       transform="matrix(1.3333333,0,0,1.3333333,350.81067,82.421333)"
       clip-path="url(#clipPath44)">
      <path
         id="path39"
         d="m 5.392,-6.081625 c 0.082031,-0.328125 0.09375,-0.4101562 0.6445313,-0.4101562 0.1640625,0 0.2695312,0 0.2695312,-0.1875 0,-0.09375 -0.058594,-0.1289063 -0.140625,-0.1289063 -0.2460937,0 -0.8554687,0.035156 -1.1015625,0.035156 -0.328125,0 -1.1367187,-0.035156 -1.4648437,-0.035156 -0.09375,0 -0.2109375,0 -0.2109375,0.1992188 0,0.1171875 0.082031,0.1171875 0.3398437,0.1171875 0.2226563,0 0.328125,0 0.5742188,0.011719 0.2460937,0.035156 0.3164062,0.070312 0.3164062,0.1992188 0,0.070312 -0.023437,0.140625 -0.046875,0.2109375 L 3.42325,-1.4995937 C 3.188875,-0.5269375 2.5091875,4.0625e-4 1.9935625,4.0625e-4 c -0.2578125,0 -0.7851562,-0.10546875 -0.9492187,-0.62109375 0.035156,0.0117188 0.1054687,0.0117188 0.1171875,0.0117188 0.3984375,0 0.65625,-0.33984375 0.65625,-0.6328124 0,-0.3164063 -0.2695313,-0.421875 -0.4453125,-0.421875 -0.1757813,0 -0.6679688,0.1171875 -0.6679688,0.7968749 0,0.62109375 0.5273438,1.08984375 1.3242188,1.08984375 0.9140625,0 1.9453125,-0.65625 2.1914062,-1.65234365 z m 0,0"
         style="fill:#ff0000;fill-opacity:1;fill-rule:nonzero;stroke:none" />
      <path
         id="path40"
         d="m 7.8558672,-2.9351406 c 0,-0.1875 -0.011719,-0.1992188 -0.2109375,-0.1992188 -0.4453125,0.4335938 -1.078125,0.4453125 -1.359375,0.4453125 v 0.2460938 c 0.1640625,0 0.6210937,0 1.0078125,-0.1875 v 3.55078123 c 0,0.23437497 0,0.32812497 -0.6914063,0.32812497 H 6.3324297 v 0.2460938 c 0.1289062,-0.011719 0.984375,-0.023437 1.2421875,-0.023437 0.2109375,0 1.0898437,0.011719 1.2421875,0.023437 V 1.2484531 H 8.5589922 c -0.703125,0 -0.703125,-0.09375 -0.703125,-0.32812497 z m 0,0"
         style="fill:#ff0000;fill-opacity:1;fill-rule:nonzero;stroke:none" />
      <path
         id="path41"
         d="m 13.287508,2.3910313 c 0,-0.035156 0,-0.046875 -0.164063,-0.2226563 -1.242187,-1.25390625 -1.570312,-3.12890625 -1.570312,-4.6640625 0,-1.7226562 0.386719,-3.4570312 1.605469,-4.7109375 0.128906,-0.1171875 0.128906,-0.1289062 0.128906,-0.1640625 0,-0.070312 -0.03516,-0.1054687 -0.09375,-0.1054687 -0.105469,0 -0.996094,0.6796875 -1.582031,1.9453125 -0.515625,1.1015625 -0.632813,2.203125 -0.632813,3.0351562 0,0.7851563 0.117188,1.9921875 0.65625,3.1171875 0.597656,1.21875 1.453125,1.875 1.558594,1.875 0.05859,0 0.09375,-0.035156 0.09375,-0.1054687 z m 0,0"
         style="fill:#ff0000;fill-opacity:1;fill-rule:nonzero;stroke:none" />
      <path
         id="path42"
         d="m 17.195711,-3.0113125 c 0.05859,-0.2578125 0.292969,-1.171875 0.984375,-1.171875 0.04687,0 0.292969,0 0.503906,0.1289063 -0.28125,0.046875 -0.480469,0.3046875 -0.480469,0.5390625 0,0.1640625 0.105469,0.3515625 0.375,0.3515625 0.222657,0 0.539063,-0.1875 0.539063,-0.5859375 0,-0.515625 -0.585938,-0.65625 -0.925781,-0.65625 -0.574219,0 -0.925782,0.5273437 -1.042969,0.7617187 -0.257813,-0.65625 -0.785156,-0.7617187 -1.078125,-0.7617187 -1.042969,0 -1.605469,1.2890625 -1.605469,1.5351562 0,0.1054688 0.105469,0.1054688 0.117188,0.1054688 0.08203,0 0.117187,-0.023437 0.128906,-0.1171875 0.339844,-1.0546875 0.996094,-1.3007813 1.335937,-1.3007813 0.1875,0 0.539063,0.09375 0.539063,0.6679688 0,0.3046875 -0.164063,0.9726562 -0.539063,2.3671875 -0.152343,0.6210937 -0.503906,1.0429687 -0.949218,1.0429687 -0.05859,0 -0.28125,0 -0.492188,-0.12890625 0.246094,-0.0585938 0.46875,-0.26953125 0.46875,-0.5390625 0,-0.26953125 -0.222656,-0.35156245 -0.375,-0.35156245 -0.292969,0 -0.539062,0.25781245 -0.539062,0.5742187 0,0.45703125 0.492187,0.65625 0.9375,0.65625 0.65625,0 1.007812,-0.69140625 1.042968,-0.75 0.117188,0.36328125 0.480469,0.75 1.078125,0.75 1.019532,0 1.59375,-1.2773437 1.59375,-1.5351562 0,-0.09375 -0.09375,-0.09375 -0.128906,-0.09375 -0.08203,0 -0.105469,0.035156 -0.128906,0.1054687 -0.328125,1.06640625 -0.996094,1.3125 -1.324219,1.3125 -0.386719,0 -0.539062,-0.328125 -0.539062,-0.65625 0,-0.22265625 0.05859,-0.4453125 0.164062,-0.8789062 z m 0,0"
         style="fill:#ff0000;fill-opacity:1;fill-rule:nonzero;stroke:none" />
      <path
         id="path43"
         d="m 22.445711,-2.4956875 c 0,-0.7734375 -0.117188,-1.9804687 -0.65625,-3.1054687 -0.597656,-1.21875 -1.464844,-1.875 -1.558594,-1.875 -0.05859,0 -0.105469,0.046875 -0.105469,0.1054687 0,0.035156 0,0.046875 0.199219,0.234375 0.972656,0.984375 1.535156,2.5664063 1.535156,4.640625 0,1.7109375 -0.363281,3.45703125 -1.59375,4.7226563 -0.140625,0.1171875 -0.140625,0.1289062 -0.140625,0.1640625 0,0.058594 0.04687,0.1054687 0.105469,0.1054687 0.09375,0 0.996094,-0.6796875 1.582031,-1.9453125 0.503907,-1.1015625 0.632813,-2.203125 0.632813,-3.046875 z m 0,0"
         style="fill:#ff0000;fill-opacity:1;fill-rule:nonzero;stroke:none" />
    </g>
    <path
       id="path45"
       d="M 245.54634,38.34184 232.88417,48.80978"
       style="fill:none;stroke:#808080;stroke-width:0.19925;stroke-linecap:butt;stroke-linejoin:miter;stroke-miterlimit:10;stroke-dasharray:none;stroke-opacity:1"
       transform="matrix(1.3333333,0,0,-1.3333333,69.636,155.51467)"
       clip-path="url(#clipPath46)" />
    <path
       id="path47"
       d="m 0,30.38939 0.49911,0.01515 0.49914,0.04543 0.49914,0.07562 0.49913,0.10574 0.49912,0.13561 0.49914,0.16533 0.49913,0.19476 0.49912,0.22386 0.49911,0.25263 0.49915,0.281 0.49913,0.30887 0.49913,0.33627 0.49913,0.36314 0.49913,0.38941 0.49913,0.41509 0.49914,0.44003 0.49912,0.46431 0.49914,0.48784 0.49913,0.51056 0.49913,0.53246 0.49914,0.55352 0.49913,0.57365 0.49911,0.5929 0.49913,0.61113 0.49913,0.6284 0.49913,0.64467 0.49913,0.65987 0.49915,0.67398 0.49911,0.68701 0.49913,0.6989 0.49915,0.70968 0.49913,0.71926 0.49913,0.7277 0.49913,0.73493 0.49913,0.74095 0.49914,0.74573 0.49913,0.74932 0.4991,0.75164 0.49913,0.75272 0.49915,0.75256 0.49913,0.75113 0.49912,0.74847 0.49914,0.74452 0.49913,0.73937 0.49913,0.73294 0.49913,0.72528 0.49913,0.71638 0.49915,0.70629 0.49913,0.69496 0.49911,0.68245 0.49915,0.66876 0.49913,0.65393 0.49911,0.63794 0.49912,0.62084 0.49914,0.60262 0.49914,0.58338 0.49912,0.56305 0.49913,0.54172 0.49913,0.51938 0.49913,0.49611 0.49915,0.47192 0.49912,0.44679 0.49912,0.42087 0.49915,0.39409 0.49913,0.36653 0.49913,0.33824 0.49913,0.30924 0.49913,0.27957 0.49912,0.24928 0.49913,0.21841 0.49913,0.18703 0.49913,0.15514 0.49914,0.1228 0.49913,0.09007 0.49912,0.05701 0.49914,0.02362 0.49913,-0.01001 0.49913,-0.04387 0.49913,-0.07787 0.49914,-0.11196 0.49914,-0.14615 0.49913,-0.18035 0.49912,-0.21446 0.49911,-0.24853 0.49915,-0.28247 0.49913,-0.31621 0.49911,-0.3497 0.49915,-0.38294 0.49912,-0.41581 0.49914,-0.44835 0.49913,-0.48041 L 45.92,62.88 l 0.49913,-0.54313 0.49914,-0.57366 0.49912,-0.60361 0.49914,-0.63288 0.49913,-0.66147 0.49914,-0.68933 0.4991,-0.7164 0.49914,-0.74266 0.49913,-0.76808 0.49913,-0.79259 0.49913,-0.81619 0.49913,-0.83883 0.49913,-0.86047 0.49915,-0.88109 0.49913,-0.90063 0.49911,-0.91915 0.49915,-0.9365 0.49913,-0.95275 0.49914,-0.9678 0.49912,-0.98171 0.49913,-0.9944 0.49911,-1.00586 0.49915,-1.01609 0.49911,-1.02509 0.49913,-1.03277 0.49915,-1.03925 0.49913,-1.04437 0.49912,-1.04824 0.49914,-1.05079 0.49913,-1.05203 0.49913,-1.05199 0.49913,-1.0506 0.49913,-1.04794 0.49913,-1.04396 0.49915,-1.03869 0.49911,-1.03211 0.49912,-1.02428 0.49914,-1.01515 0.49914,-1.00476 0.49911,-0.99318 0.49914,-0.98032 0.49913,-0.96625 0.49913,-0.95102 0.49913,-0.93463 0.49913,-0.91705 0.49913,-0.89838 0.49915,-0.87861 0.49912,-0.85778 0.49913,-0.83589 0.49914,-0.81303 0.49913,-0.78919 0.49912,-0.76435 0.49913,-0.73872 0.49913,-0.71212 0.49913,-0.68474 0.49914,-0.65657 0.49912,-0.62761 0.49913,-0.59796 0.49914,-0.56764 0.49913,-0.53672 0.49912,-0.50517 L 76.8661,9.80267 77.36523,9.36212 77.86436,8.95456 78.3635,8.58044 78.86263,8.2401 79.36174,7.9338 79.86089,7.66187 80.36,7.42447 80.85913,7.22177 81.35828,7.05391 81.8574,6.92093 82.35652,6.82286 82.85567,6.75969 83.3548,6.73131 l 0.49913,0.00629 0.49913,0.04078 0.49913,0.07507 0.49913,0.10907 0.49914,0.14275 0.49912,0.17609 0.49912,0.20901 0.49914,0.24146 0.49913,0.27342 0.49911,0.30484 0.49915,0.33568 0.49913,0.36589 0.49913,0.39544 0.49915,0.42426 0.49911,0.45236 0.49913,0.47965 0.49915,0.50616 0.49913,0.53179 0.49911,0.55651 0.49915,0.58036 0.49913,0.60319 0.49913,0.62512 0.49912,0.64597 0.49912,0.66583 0.49913,0.6846 0.49915,0.7023 0.49911,0.71889 0.49913,0.73435 0.49915,0.74868 0.49913,0.7618 0.49912,0.7738 0.49914,0.78458 0.49913,0.79417 0.49913,0.80253 0.49913,0.80969 0.49913,0.81561 0.49913,0.8203 0.49913,0.82379 0.49912,0.82597 0.49912,0.827 0.49915,0.82674 0.49913,0.82528 0.49912,0.8226 0.49914,0.8187 0.49913,0.81361 0.49913,0.80731 0.49913,0.79985 0.49913,0.79125 0.49914,0.78145 0.49914,0.77056 0.49913,0.75856 0.49912,0.74547 0.49913,0.73131 0.49913,0.71614 0.49913,0.69992 0.49912,0.68276 0.49914,0.66461 0.49913,0.64554 0.49914,0.62559 0.49912,0.60475 0.49913,0.58314 0.49914,0.56068 0.49913,0.53747 0.49912,0.51358 0.49915,0.489 0.49912,0.46373 0.49913,0.43793 0.49912,0.41148 0.49913,0.3846 0.49913,0.35719 0.49915,0.32938 0.49911,0.30113 0.49913,0.27257 0.49915,0.24368 0.49913,0.21456 0.49911,0.18519 0.49915,0.15567 0.49913,0.12604 0.49913,0.09628 0.49913,0.06653 0.49913,0.03678 0.49913,0.0071 0.49913,-0.02253 0.49913,-0.05201 0.49911,-0.08127 0.49916,-0.11032 0.49912,-0.13908 0.49913,-0.16756 0.49913,-0.19563 0.49913,-0.22333 0.49913,-0.25061 0.49915,-0.27736 0.49911,-0.30363 0.49913,-0.32933 0.49915,-0.35444 0.49911,-0.3789 0.49912,-0.40273 0.49914,-0.42581 0.49915,-0.44823 0.49911,-0.46981 0.49913,-0.49062 0.49913,-0.51063 0.49913,-0.52979 0.49915,-0.54802 0.49911,-0.5654 0.49913,-0.58182 0.49915,-0.59732 0.49913,-0.61181 0.49912,-0.62534 0.49911,-0.63788 0.49916,-0.64935 0.49913,-0.65982 0.49913,-0.66922 0.49912,-0.67757 0.49912,-0.68486 0.49915,-0.69102 0.49913,-0.69617 0.49912,-0.70016 0.49914,-0.70311 0.49913,-0.70496 0.49913,-0.70568 0.49913,-0.70535 0.49912,-0.7039 0.49915,-0.70138 0.49914,-0.6978 0.49911,-0.69313 0.49912,-0.68744 0.49915,-0.68067 0.49913,-0.67288 0.49913,-0.66409 0.49912,-0.65428 0.49914,-0.64351 0.49913,-0.63177 0.49913,-0.61906 0.49913,-0.60547 0.49913,-0.59097 0.49914,-0.5756 0.49912,-0.55941 0.49913,-0.54239 0.49915,-0.52453 0.49911,-0.50599 0.49913,-0.48668 0.49914,-0.46668 0.49913,-0.44602 0.49912,-0.42473 0.49913,-0.40284 0.49913,-0.38042 0.49913,-0.35745 0.49915,-0.33399 0.49911,-0.31009 0.49913,-0.28578 0.49915,-0.2611 0.49913,-0.23612 0.49911,-0.21078 0.49915,-0.18523 0.49913,-0.15946 0.49912,-0.13351 0.49912,-0.10744 0.49913,-0.08126 0.49913,-0.05506 0.49916,-0.02883 0.49912,-0.0026 0.49911,0.0235 0.49915,0.04948 0.49913,0.07535 0.49913,0.10101 0.49913,0.12645 0.49913,0.15163 0.49913,0.17647 0.49915,0.20099 0.49911,0.22511 0.49912,0.24884 0.49915,0.27208 0.49914,0.29484 0.4991,0.31709 0.49914,0.33875 0.49913,0.35987 0.49913,0.38034 0.49913,0.40016 0.49913,0.41929 0.49913,0.43775 0.49915,0.45544 0.49912,0.47238 0.49912,0.48853 0.49912,0.50389 0.49916,0.5184 0.49911,0.53208 0.49915,0.54484 0.49912,0.5568 0.49912,0.56778 0.49915,0.57788 0.49913,0.58705 0.49912,0.59526 0.49914,0.60252 0.49913,0.60884 0.49912,0.61415 0.49914,0.61852 0.49913,0.62188 0.49914,0.62429 0.49912,0.62569 0.49913,0.62611 0.49912,0.62555 0.49913,0.62402 0.49913,0.62151 0.49914,0.61803 0.49913,0.61358 0.49914,0.6082 0.49911,0.60188 0.49915,0.59462 0.49913,0.58646 0.49913,0.57738 0.49913,0.56741 0.49913,0.55661 0.49913,0.54497 0.49915,0.53244 0.49909,0.51918 0.49915,0.50508 0.49914,0.49027 0.49913,0.4747 0.4991,0.45842 0.49913,0.44148 0.49915,0.42386 0.49914,0.40565 0.49912,0.38684 0.49913,0.36743 0.49913,0.34755 0.49915,0.32715 0.49913,0.30629 0.4991,0.28498 0.49916,0.26327 0.49913,0.24121 0.49912,0.21886 0.4991,0.19618 0.49915,0.17323 0.49913,0.15012 0.49916,0.12678 0.4991,0.10332 0.49913,0.07974 0.49915,0.05613 0.49913,0.03242 0.49911,0.0088 0.49915,-0.01488 0.49913,-0.03839 0.49913,-0.06184 0.49913,-0.0851 0.49913,-0.10822 0.49912,-0.13105 0.49915,-0.15366 0.49912,-0.17598 0.49913,-0.19796 0.49912,-0.21957 0.49914,-0.24078 0.49912,-0.2616 0.49914,-0.2819 0.49913,-0.30175 0.49913,-0.32107 0.49913,-0.33983 0.49914,-0.35803 0.49912,-0.37561 0.49912,-0.39256 0.49914,-0.40886 0.49913,-0.42447 0.49915,-0.43937 0.49911,-0.45356 0.49913,-0.467 0.49912,-0.47963 0.49916,-0.49154 0.49912,-0.50263 0.49914,-0.51286 0.49912,-0.52231 0.49913,-0.53088 0.49914,-0.53862 0.49913,-0.54547 0.49912,-0.55147 0.49914,-0.55655 0.49913,-0.56076 0.49913,-0.56409 0.4991,-0.56648 0.49916,-0.56802 0.49913,-0.56864 0.49912,-0.56834 0.49913,-0.56717 0.49913,-0.5651 0.49913,-0.56213 0.49915,-0.5583 0.49911,-0.55356 0.49915,-0.54801 0.49913,-0.54156 0.49913,-0.53429 0.49913,-0.52617 0.49911,-0.51726 0.49915,-0.50753 0.49914,-0.49704 0.49912,-0.48578 0.49911,-0.47379 0.49913,-0.46102 0.49915,-0.44762 0.49914,-0.43349 0.4991,-0.41873 0.49915,-0.40332 0.49913,-0.38733 0.49914,-0.37074 0.49912,-0.35361 0.49913,-0.33594 0.49915,-0.31778 0.49913,-0.29916 0.49911,-0.28012 0.49911,-0.26064 0.49915,-0.24083 0.49913,-0.22065 0.49915,-0.20018 0.49911,-0.17942 0.49913,-0.15841 0.49913,-0.13724 0.49913,-0.11581 0.49913,-0.09433 0.49915,-0.07271 0.49913,-0.05101 0.49911,-0.02928 0.49915,-0.0075 0.49913,0.01417 0.49911,0.03578 0.49915,0.05735 0.49913,0.07873 0.49913,0.09996 0.49912,0.12101 0.49913,0.14181 0.49913,0.16235 0.49916,0.18258 0.49911,0.20248 0.49912,0.22203 0.49914,0.2412"
       style="fill:none;stroke:#00ff00;stroke-width:0.3985;stroke-linecap:butt;stroke-linejoin:miter;stroke-miterlimit:10;stroke-dasharray:none;stroke-opacity:1"
       transform="matrix(1.3333333,0,0,-1.3333333,69.636,155.51467)"
       clip-path="url(#clipPath48)" />
    <g
       id="g48"
       aria-label="J&#10;2&#10;(x)"
       transform="matrix(1.3333333,0,0,1.3333333,347.94267,160.752)"
       clip-path="url(#clipPath54)">
      <path
         id="path49"
         d="m 5.3896797,-6.0806016 c 0.082031,-0.328125 0.09375,-0.4101562 0.6445312,-0.4101562 0.1640625,0 0.2695313,0 0.2695313,-0.1875 0,-0.09375 -0.058594,-0.1289063 -0.140625,-0.1289063 -0.2460938,0 -0.8554688,0.035156 -1.1015625,0.035156 -0.328125,0 -1.1367188,-0.035156 -1.4648438,-0.035156 -0.09375,0 -0.2109375,0 -0.2109375,0.1992188 0,0.1171875 0.082031,0.1171875 0.3398438,0.1171875 0.2226562,0 0.328125,0 0.5742187,0.011719 0.2460938,0.035156 0.3164063,0.070312 0.3164063,0.1992188 0,0.070312 -0.023437,0.140625 -0.046875,0.2109375 L 3.4209297,-1.49857 c -0.234375,0.97265624 -0.9140625,1.49999999 -1.4296875,1.49999999 -0.2578125,0 -0.7851563,-0.10546875 -0.9492188,-0.62109375 0.035156,0.0117188 0.1054688,0.0117188 0.1171875,0.0117188 0.3984375,0 0.65625,-0.33984375 0.65625,-0.63281244 0,-0.3164063 -0.2695312,-0.421875 -0.4453125,-0.421875 -0.1757812,0 -0.66796871,0.1171875 -0.66796871,0.79687494 0,0.62109375 0.52734371,1.08984375 1.32421871,1.08984375 0.9140625,0 1.9453125,-0.65625 2.1914063,-1.65234369 z m 0,0"
         style="fill:#00ff00;fill-opacity:1;fill-rule:nonzero;stroke:none" />
      <path
         id="path50"
         d="m 9.0400703,0.22701563 h -0.234375 c -0.023437,0.15234375 -0.082031,0.5625 -0.1757812,0.6328125 -0.058594,0.0351563 -0.5976563,0.0351563 -0.6914063,0.0351563 H 6.6494453 c 0.7382813,-0.64453125 0.984375,-0.84375 1.3945313,-1.171875 0.515625,-0.41015625 0.9960937,-0.84374993 0.9960937,-1.49999993 0,-0.8437501 -0.7382812,-1.3593751 -1.6289062,-1.3593751 -0.8671875,0 -1.453125,0.609375 -1.453125,1.2421876 0,0.3632812 0.3046875,0.3984375 0.375,0.3984375 0.1640625,0 0.375,-0.1171875 0.375,-0.375 0,-0.1289063 -0.058594,-0.3632814 -0.421875,-0.3632814 0.2226562,-0.5039062 0.6914062,-0.65625 1.0195312,-0.65625 0.703125,0 1.0664063,0.5507813 1.0664063,1.1132813 0,0.609375 -0.4335938,1.08984378 -0.65625,1.33593753 l -1.6875,1.66406247 c -0.070312,0.058594 -0.070312,0.070312 -0.070312,0.2695312 h 2.8828125 z m 0,0"
         style="fill:#00ff00;fill-opacity:1;fill-rule:nonzero;stroke:none" />
      <path
         id="path51"
         d="m 13.288117,2.3920547 c 0,-0.035156 0,-0.046875 -0.164062,-0.2226563 -1.242188,-1.25390621 -1.570313,-3.12890621 -1.570313,-4.6640625 0,-1.7226562 0.386719,-3.4570312 1.605469,-4.7109375 0.128906,-0.1171875 0.128906,-0.1289062 0.128906,-0.1640625 0,-0.070312 -0.03516,-0.1054687 -0.09375,-0.1054687 -0.105469,0 -0.996094,0.6796875 -1.582031,1.9453125 -0.515625,1.1015625 -0.632813,2.203125 -0.632813,3.0351562 0,0.7851563 0.117188,1.99218754 0.65625,3.11718754 0.597657,1.21874996 1.453125,1.87499996 1.558594,1.87499996 0.05859,0 0.09375,-0.035156 0.09375,-0.1054687 z m 0,0"
         style="fill:#00ff00;fill-opacity:1;fill-rule:nonzero;stroke:none" />
      <path
         id="path52"
         d="m 17.19632,-3.0102891 c 0.05859,-0.2578125 0.292969,-1.171875 0.984375,-1.171875 0.04687,0 0.292969,0 0.503907,0.1289063 -0.28125,0.046875 -0.480469,0.3046875 -0.480469,0.5390625 0,0.1640625 0.105469,0.3515625 0.375,0.3515625 0.222656,0 0.539062,-0.1875 0.539062,-0.5859375 0,-0.515625 -0.585937,-0.65625 -0.925781,-0.65625 -0.574219,0 -0.925781,0.5273437 -1.042969,0.7617187 -0.257812,-0.65625 -0.785156,-0.7617187 -1.078125,-0.7617187 -1.042968,0 -1.605468,1.2890625 -1.605468,1.5351562 0,0.1054688 0.105468,0.1054688 0.117187,0.1054688 0.08203,0 0.117188,-0.023437 0.128906,-0.1171875 0.339844,-1.0546875 0.996094,-1.3007813 1.335938,-1.3007813 0.1875,0 0.539062,0.09375 0.539062,0.6679688 0,0.3046875 -0.164062,0.9726562 -0.539062,2.3671875 -0.152344,0.62109374 -0.503906,1.04296874 -0.949219,1.04296874 -0.05859,0 -0.28125,0 -0.492187,-0.12890625 0.246093,-0.0585938 0.46875,-0.26953125 0.46875,-0.5390625 0,-0.26953129 -0.222657,-0.35156249 -0.375,-0.35156249 -0.292969,0 -0.539063,0.25781249 -0.539063,0.57421874 0,0.45703125 0.492188,0.65625 0.9375,0.65625 0.65625,0 1.007813,-0.69140625 1.042969,-0.75 0.117187,0.36328125 0.480469,0.75 1.078125,0.75 1.019531,0 1.59375,-1.27734374 1.59375,-1.53515624 0,-0.09375 -0.09375,-0.09375 -0.128906,-0.09375 -0.08203,0 -0.105469,0.035156 -0.128907,0.1054687 -0.328125,1.06640629 -0.996093,1.31250004 -1.324218,1.31250004 -0.386719,0 -0.539063,-0.328125 -0.539063,-0.65625 0,-0.22265625 0.05859,-0.44531254 0.164063,-0.87890624 z m 0,0"
         style="fill:#00ff00;fill-opacity:1;fill-rule:nonzero;stroke:none" />
      <path
         id="path53"
         d="m 22.443391,-2.4946641 c 0,-0.7734375 -0.117188,-1.9804687 -0.65625,-3.1054687 -0.597657,-1.21875 -1.464844,-1.875 -1.558594,-1.875 -0.05859,0 -0.105469,0.046875 -0.105469,0.1054687 0,0.035156 0,0.046875 0.199219,0.234375 0.972656,0.984375 1.535156,2.5664063 1.535156,4.640625 0,1.71093754 -0.363281,3.45703129 -1.59375,4.7226563 -0.140625,0.1171875 -0.140625,0.1289062 -0.140625,0.1640625 0,0.058594 0.04687,0.1054687 0.105469,0.1054687 0.09375,0 0.996094,-0.6796875 1.582031,-1.94531246 0.503906,-1.1015625 0.632813,-2.20312504 0.632813,-3.04687504 z m 0,0"
         style="fill:#00ff00;fill-opacity:1;fill-rule:nonzero;stroke:none" />
    </g>
    <path
       id="path55"
       d="M 245.54634,15.86414 232.77951,7.06395"
       style="fill:none;stroke:#808080;stroke-width:0.19925;stroke-linecap:butt;stroke-linejoin:miter;stroke-miterlimit:10;stroke-dasharray:none;stroke-opacity:1"
       transform="matrix(1.3333333,0,0,-1.3333333,69.636,155.51467)"
       clip-path="url(#clipPath56)" />
    <path
       id="path57"
       d="m 0,30.38939 0.49911,1.1e-4 0.49914,7e-4 0.49914,0.0019 0.49913,0.0038 0.49912,0.0062 0.49914,0.0091 0.49913,0.01276 0.49912,0.01695 0.49911,0.02172 0.49915,0.02701 0.49913,0.03288 0.49913,0.0393 0.49913,0.04624 0.49913,0.05369 0.49913,0.06166 0.49914,0.07007 0.49912,0.07898 0.49914,0.08835 0.49913,0.0981 0.49913,0.10829 0.49914,0.11887 0.49913,0.1298 0.49911,0.1411 0.49913,0.15268 0.49913,0.16459 0.49913,0.17676 0.49913,0.18917 0.49915,0.2018 0.49911,0.21464 0.49913,0.22762 0.49915,0.24076 0.49913,0.254 0.49913,0.26732 0.49913,0.28072 0.49913,0.29411 0.49914,0.3075 0.49913,0.32087 0.4991,0.3342 0.49913,0.34737 0.49915,0.36047 0.49913,0.3734 0.49912,0.38615 0.49914,0.39871 0.49913,0.411 0.49913,0.42302 0.49913,0.43478 0.49913,0.44619 0.49915,0.45722 0.49913,0.4679 0.49911,0.47817 0.49915,0.48799 0.49913,0.49739 0.49911,0.50624 0.49912,0.5146 0.49914,0.52246 0.49914,0.52973 0.49912,0.53642 0.49913,0.54254 0.49913,0.54798 0.49913,0.55282 0.49915,0.55699 0.49912,0.56046 0.49912,0.56327 0.49915,0.56536 0.49913,0.5667 0.49913,0.5673 0.49913,0.56717 0.49913,0.56627 0.49912,0.56457 0.49913,0.56215 0.49913,0.55889 0.49913,0.55481 0.49914,0.54997 0.49913,0.54431 0.49912,0.53786 0.49914,0.53058 0.49913,0.52249 0.49913,0.51359 0.49913,0.50392 0.49914,0.4934 0.49914,0.48212 0.49913,0.47001 0.49912,0.45715 0.49911,0.44352 0.49915,0.4291 0.49913,0.41397 0.49911,0.39808 0.49915,0.38147 0.49912,0.36416 0.49914,0.34614 0.49913,0.32749 0.49913,0.30812 0.49913,0.28819 0.49914,0.26761 0.49912,0.24646 0.49914,0.22472 0.49913,0.20245 0.49914,0.17971 0.4991,0.15641 0.49914,0.13271 0.49913,0.10855 0.49913,0.08398 0.49913,0.05909 0.49913,0.03381 0.49913,0.0082 0.49915,-0.01762 0.49913,-0.04372 0.49911,-0.07004 0.49915,-0.09653 0.49913,-0.1231 0.49914,-0.14989 0.49912,-0.17667 0.49913,-0.2035 0.49911,-0.23034 0.49915,-0.25714 0.49911,-0.28387 0.49913,-0.3105 0.49915,-0.33695 0.49913,-0.36326 0.49912,-0.38933 0.49914,-0.41515 0.49913,-0.44068 0.49913,-0.46589 0.49913,-0.49072 0.49913,-0.51517 0.49913,-0.53918 0.49915,-0.56273 0.49911,-0.58575 0.49912,-0.60831 0.49914,-0.63022 0.49914,-0.6516 0.49911,-0.6723 0.49914,-0.69235 0.49913,-0.71173 0.49913,-0.73038 0.49913,-0.74829 0.49913,-0.7654 0.49913,-0.78173 0.49915,-0.79723 0.49912,-0.81189 0.49913,-0.82568 0.49914,-0.83853 0.49913,-0.85053 0.49912,-0.86154 0.49913,-0.87166 0.49913,-0.88074 0.49913,-0.88887 0.49914,-0.89601 0.49912,-0.90211 0.49913,-0.90721 0.49914,-0.91126 0.49913,-0.91426 0.49912,-0.91626 0.49914,-0.91714 0.49913,-0.917 0.49913,-0.91578 0.49914,-0.91349 0.49913,-0.91014 0.49911,-0.90573 0.49915,-0.90027 0.49911,-0.89372 0.49913,-0.88617 0.49915,-0.87755 0.49912,-0.86787 0.49912,-0.85721 0.49915,-0.84552 0.49913,-0.83284 0.49913,-0.81918 0.49913,-0.80454 0.49913,-0.78894 0.49913,-0.77244 0.49914,-0.75502 0.49912,-0.73671 0.49912,-0.71752 0.49914,-0.69749 0.49913,-0.6767 0.49911,-0.65502 0.49915,-0.63264 0.49913,-0.60953 0.49913,-0.58566 0.49915,-0.5612 0.49911,-0.53604 0.49913,-0.5103 0.49915,-0.48396 0.49913,-0.45708 0.49911,-0.42972 0.49915,-0.40189 0.49913,-0.37359 0.49913,-0.34493 0.49912,-0.31588 0.49912,-0.28655 0.49913,-0.25691 0.49915,-0.22707 0.49911,-0.19696 0.49913,-0.16676 0.49915,-0.13638 0.49913,-0.10596 0.49912,-0.0755 0.49914,-0.04502 0.49913,-0.01457 0.49913,0.01575 0.49913,0.04599 0.49913,0.07603 0.49913,0.1059 0.49913,0.1355 0.49912,0.16484 0.49912,0.19382 0.49915,0.22248 0.49913,0.25072 0.49912,0.27852 0.49914,0.30585 0.49913,0.33267 0.49913,0.35893 0.49913,0.38463 0.49913,0.40967 0.49914,0.43411 0.49914,0.45786 0.49913,0.48086 0.49912,0.50317 0.49913,0.52465 0.49913,0.54536 0.49913,0.56523 0.49912,0.58426 0.49914,0.60242 0.49913,0.61963 0.49914,0.63595 0.49912,0.65133 0.49913,0.66571 0.49914,0.67912 0.49913,0.69156 0.49912,0.70296 0.49915,0.71332 0.49912,0.72263 0.49913,0.73093 0.49912,0.73814 0.49913,0.74428 0.49913,0.74936 0.49915,0.75331 0.49911,0.75625 0.49913,0.75804 0.49915,0.75874 0.49913,0.75844 0.49911,0.75694 0.49915,0.75444 0.49913,0.75088 0.49913,0.74619 0.49913,0.74046 0.49913,0.73375 0.49913,0.72594 0.49913,0.71712 0.49913,0.70732 0.49911,0.6965 0.49916,0.68475 0.49912,0.67202 0.49913,0.65837 0.49913,0.6438 0.49913,0.62835 0.49913,0.61205 0.49915,0.59491 0.49911,0.57692 0.49913,0.55823 0.49915,0.53869 0.49911,0.51851 0.49912,0.49759 0.49914,0.47603 0.49915,0.45384 0.49911,0.43106 0.49913,0.40772 0.49913,0.38383 0.49913,0.35948 0.49915,0.33469 0.49911,0.30945 0.49913,0.28387 0.49915,0.25791 0.49913,0.23172 0.49912,0.20517 0.49911,0.17851 0.49916,0.15157 0.49913,0.12455 0.49913,0.0974 0.49912,0.07022 0.49912,0.04298 0.49915,0.01578 0.49913,-0.01137 0.49912,-0.0384 0.49914,-0.06533 0.49913,-0.09207 0.49913,-0.11857 0.49913,-0.14484 0.49912,-0.17081 0.49915,-0.19645 0.49914,-0.22173 0.49911,-0.24661 0.49912,-0.27101 0.49915,-0.29499 0.49913,-0.31843 0.49913,-0.34132 0.49912,-0.36367 0.49914,-0.38541 0.49913,-0.40647 0.49913,-0.4269 0.49913,-0.44661 0.49913,-0.46564 0.49914,-0.48387 0.49912,-0.50136 0.49913,-0.51802 0.49915,-0.53387 0.49911,-0.54891 0.49913,-0.56303 0.49914,-0.57629 0.49913,-0.58867 0.49912,-0.6001 0.49913,-0.61061 0.49913,-0.62018 0.49913,-0.6288 0.49915,-0.63643 0.49911,-0.64309 0.49913,-0.64877 0.49915,-0.65347 0.49913,-0.65713 0.49911,-0.65985 0.49915,-0.66153 0.49913,-0.6622 0.49912,-0.6619 0.49912,-0.6606 0.49913,-0.65829 0.49913,-0.65501 0.49916,-0.65073 0.49912,-0.64551 0.49911,-0.63931 0.49915,-0.63214 0.49913,-0.62407 0.49913,-0.61506 0.49913,-0.60514 0.49913,-0.59436 0.49913,-0.58267 0.49915,-0.57015 0.49911,-0.55679 0.49912,-0.54264 0.49915,-0.52767 0.49914,-0.51197 0.4991,-0.49553 0.49914,-0.47838 0.49913,-0.46052 0.49913,-0.44206 0.49913,-0.42293 0.49913,-0.40324 0.49913,-0.38298 0.49915,-0.36217 0.49912,-0.34088 0.49912,-0.31912 0.49912,-0.29696 0.49916,-0.27435 0.49911,-0.2514 0.49915,-0.22817 0.49912,-0.2046 0.49912,-0.18081 0.49915,-0.15676 0.49913,-0.13259 0.49912,-0.10823 0.49914,-0.0838 0.49913,-0.05928 0.49912,-0.03476 0.49914,-0.01021 0.49913,0.01427 0.49914,0.03867 0.49912,0.06294 0.49913,0.08706 0.49912,0.11103 0.49913,0.13469 0.49913,0.15814 0.49914,0.18129 0.49913,0.20408 0.49914,0.22651 0.49911,0.24854 0.49915,0.27016 0.49913,0.29128 0.49913,0.31193 0.49913,0.332 0.49913,0.35157 0.49913,0.37051 0.49915,0.38887 0.49909,0.40658 0.49915,0.4236 0.49914,0.43995 0.49913,0.45558 0.4991,0.47049 0.49913,0.48462 0.49915,0.49797 0.49914,0.51053 0.49912,0.52226 0.49913,0.53319 0.49913,0.54324 0.49915,0.55246 0.49913,0.56078 0.4991,0.56825 0.49916,0.5748 0.49913,0.58047 0.49912,0.58522 0.4991,0.58905 0.49915,0.59198 0.49913,0.59396 0.49916,0.59505 0.4991,0.59523 0.49913,0.59446 0.49915,0.59278 0.49913,0.5902 0.49911,0.58673 0.49915,0.58232 0.49913,0.57706 0.49913,0.57091 0.49913,0.56387 0.49913,0.556 0.49912,0.54727 0.49915,0.53774 0.49912,0.52737 0.49913,0.51622 0.49912,0.50432 0.49914,0.49162 0.49912,0.47823 0.49914,0.46412 0.49913,0.4493 0.49913,0.43384 0.49913,0.41772 0.49914,0.40103 0.49912,0.38371 0.49912,0.36586 0.49914,0.34748 0.49913,0.32861 0.49915,0.30924 0.49911,0.28946 0.49913,0.26927 0.49912,0.2487 0.49916,0.2278 0.49912,0.20658 0.49914,0.18508 0.49912,0.16336 0.49913,0.14144 0.49914,0.1193 0.49913,0.09707 0.49912,0.0747 0.49914,0.05231 0.49913,0.02981 0.49913,0.0074 0.4991,-0.01504 0.49916,-0.03737 0.49913,-0.05962 0.49912,-0.08171 0.49913,-0.10364 0.49913,-0.12535 0.49913,-0.14683 0.49915,-0.16805 0.49911,-0.18893 0.49915,-0.20951 0.49913,-0.2297 0.49913,-0.2495 0.49913,-0.26886 0.49911,-0.28775 0.49915,-0.30618 0.49914,-0.32408 0.49912,-0.34148 0.49911,-0.35823 0.49913,-0.37446 0.49915,-0.39005 0.49914,-0.40497 0.4991,-0.4193 0.49915,-0.43288 0.49913,-0.44576 0.49914,-0.45796 0.49912,-0.46941 0.49913,-0.4801 0.49915,-0.49002 0.49913,-0.49915 0.49911,-0.50748 0.49911,-0.51501 0.49915,-0.52171 0.49913,-0.52762 0.49915,-0.53266 0.49911,-0.53685 0.49913,-0.54022 0.49913,-0.54274 0.49913,-0.54439 0.49913,-0.54519 0.49915,-0.54515 0.49913,-0.54424 0.49911,-0.54251 0.49915,-0.5399 0.49913,-0.53649 0.49911,-0.53221 0.49915,-0.52713 0.49913,-0.52124 0.49913,-0.51454 0.49912,-0.50702 0.49913,-0.49878 0.49913,-0.48973 0.49916,-0.47995 0.49911,-0.46944 0.49912,-0.4582 0.49914,-0.44626"
       style="fill:none;stroke:#000000;stroke-width:0.3985;stroke-linecap:butt;stroke-linejoin:miter;stroke-miterlimit:10;stroke-dasharray:none;stroke-opacity:1"
       transform="matrix(1.3333333,0,0,-1.3333333,69.636,155.51467)"
       clip-path="url(#clipPath58)" />
    <g
       id="g58"
       aria-label="J&#10;3&#10;(x)"
       transform="matrix(1.3333333,0,0,1.3333333,386.096,161.45333)"
       clip-path="url(#clipPath64)">
      <path
         id="path59"
         d="m 5.3918672,-6.0821875 c 0.082031,-0.328125 0.09375,-0.4101562 0.6445312,-0.4101562 0.1640625,0 0.2695313,0 0.2695313,-0.1875 0,-0.09375 -0.058594,-0.1289063 -0.140625,-0.1289063 -0.2460938,0 -0.8554688,0.035156 -1.1015625,0.035156 -0.328125,0 -1.1367188,-0.035156 -1.4648438,-0.035156 -0.09375,0 -0.2109375,0 -0.2109375,0.1992188 0,0.1171875 0.082031,0.1171875 0.3398438,0.1171875 0.2226562,0 0.328125,0 0.5742187,0.011719 0.2460938,0.035156 0.3164063,0.070312 0.3164063,0.1992188 0,0.070312 -0.023437,0.140625 -0.046875,0.2109375 L 3.4231172,-1.5001562 C 3.1887422,-0.5275 2.5090547,-1.5625e-4 1.9934297,-1.5625e-4 c -0.2578125,0 -0.7851563,-0.10546875 -0.9492188,-0.62109375 0.035156,0.0117188 0.1054688,0.0117188 0.1171875,0.0117188 0.3984375,0 0.65625,-0.33984375 0.65625,-0.6328124 0,-0.3164063 -0.2695312,-0.421875 -0.4453125,-0.421875 -0.1757812,0 -0.66796871,0.1171875 -0.66796871,0.7968749 0,0.62109375 0.52734371,1.08984375 1.32421871,1.08984375 0.9140625,0 1.9453125,-0.65625 2.1914063,-1.65234365 z m 0,0"
         style="fill:#000000;fill-opacity:1;fill-rule:nonzero;stroke:none" />
      <path
         id="path60"
         d="m 7.4221406,-0.83804687 c 0.5507813,0 0.9375,0.375 0.9375,1.125 0,0.86718747 -0.5039062,1.12499997 -0.9023437,1.12499997 -0.28125,0 -0.890625,-0.082031 -1.1835938,-0.49218747 0.328125,-0.0117188 0.3984375,-0.24609375 0.3984375,-0.38671875 0,-0.22265625 -0.1640625,-0.38671875 -0.3867187,-0.38671875 -0.1875,0 -0.3867188,0.1171875 -0.3867188,0.41015625 0,0.65625002 0.7265625,1.07812502 1.5703125,1.07812502 0.9726563,0 1.640625,-0.64453127 1.640625,-1.34765627 0,-0.5390625 -0.4453125,-1.08984375 -1.21875,-1.2421875 0.7382813,-0.26953123 0.9960938,-0.79687503 0.9960938,-1.21875003 0,-0.5507812 -0.6328125,-0.9609375 -1.40625,-0.9609375 -0.7734375,0 -1.359375,0.375 -1.359375,0.9375 0,0.234375 0.1523437,0.3632813 0.3632812,0.3632813 0.2109375,0 0.3515625,-0.1640625 0.3515625,-0.3515625 0,-0.1992188 -0.140625,-0.3515625 -0.3515625,-0.3632813 0.234375,-0.3046875 0.7148438,-0.3867187 0.9726563,-0.3867187 0.3164062,0 0.7617187,0.1523437 0.7617187,0.7617187 0,0.2929688 -0.1054687,0.609375 -0.28125,0.8320313 -0.234375,0.2578125 -0.421875,0.28125 -0.7734375,0.2929687 -0.1757812,0.023437 -0.1875,0.023437 -0.2226562,0.023437 -0.011719,0 -0.070312,0.011719 -0.070312,0.09375 0,0.09375 0.058594,0.09375 0.1757812,0.09375 z m 0,0"
         style="fill:#000000;fill-opacity:1;fill-rule:nonzero;stroke:none" />
      <path
         id="path61"
         d="m 13.287375,2.3904688 c 0,-0.035156 0,-0.046875 -0.164063,-0.2226563 C 11.881125,0.91390625 11.553,-0.96109375 11.553,-2.49625 c 0,-1.7226562 0.386719,-3.4570312 1.605469,-4.7109375 0.128906,-0.1171875 0.128906,-0.1289062 0.128906,-0.1640625 0,-0.070312 -0.03516,-0.1054687 -0.09375,-0.1054687 -0.105469,0 -0.996094,0.6796875 -1.582031,1.9453125 -0.515625,1.1015625 -0.632813,2.203125 -0.632813,3.0351562 0,0.7851563 0.117188,1.9921875 0.65625,3.1171875 0.597656,1.21875 1.453125,1.875 1.558594,1.875 0.05859,0 0.09375,-0.035156 0.09375,-0.1054687 z m 0,0"
         style="fill:#000000;fill-opacity:1;fill-rule:nonzero;stroke:none" />
      <path
         id="path62"
         d="m 17.195578,-3.011875 c 0.05859,-0.2578125 0.292969,-1.171875 0.984375,-1.171875 0.04687,0 0.292969,0 0.503906,0.1289063 -0.28125,0.046875 -0.480468,0.3046875 -0.480468,0.5390625 0,0.1640625 0.105468,0.3515625 0.375,0.3515625 0.222656,0 0.539062,-0.1875 0.539062,-0.5859375 0,-0.515625 -0.585937,-0.65625 -0.925781,-0.65625 -0.574219,0 -0.925781,0.5273437 -1.042969,0.7617187 -0.257812,-0.65625 -0.785156,-0.7617187 -1.078125,-0.7617187 -1.042969,0 -1.605469,1.2890625 -1.605469,1.5351562 0,0.1054688 0.105469,0.1054688 0.117188,0.1054688 0.08203,0 0.117187,-0.023437 0.128906,-0.1171875 0.339844,-1.0546875 0.996094,-1.3007813 1.335938,-1.3007813 0.1875,0 0.539062,0.09375 0.539062,0.6679688 0,0.3046875 -0.164062,0.9726562 -0.539062,2.3671875 -0.152344,0.6210937 -0.503907,1.0429687 -0.949219,1.0429687 -0.05859,0 -0.28125,0 -0.492188,-0.12890625 0.246094,-0.0585938 0.46875,-0.26953125 0.46875,-0.5390625 0,-0.26953125 -0.222656,-0.35156245 -0.375,-0.35156245 -0.292968,0 -0.539062,0.25781245 -0.539062,0.5742187 0,0.45703125 0.492187,0.65625 0.9375,0.65625 0.65625,0 1.007812,-0.69140625 1.042969,-0.75 0.117187,0.36328125 0.480468,0.75 1.078125,0.75 1.019531,0 1.59375,-1.2773437 1.59375,-1.5351562 0,-0.09375 -0.09375,-0.09375 -0.128907,-0.09375 -0.08203,0 -0.105468,0.035156 -0.128906,0.1054687 -0.328125,1.06640625 -0.996094,1.3125 -1.324219,1.3125 -0.386718,0 -0.539062,-0.328125 -0.539062,-0.65625 0,-0.22265625 0.05859,-0.4453125 0.164062,-0.8789062 z m 0,0"
         style="fill:#000000;fill-opacity:1;fill-rule:nonzero;stroke:none" />
      <path
         id="path63"
         d="m 22.445578,-2.49625 c 0,-0.7734375 -0.117187,-1.9804687 -0.65625,-3.1054687 -0.597656,-1.21875 -1.464844,-1.875 -1.558594,-1.875 -0.05859,0 -0.105468,0.046875 -0.105468,0.1054687 0,0.035156 0,0.046875 0.199218,0.234375 0.972657,0.984375 1.535157,2.5664063 1.535157,4.640625 0,1.7109375 -0.363282,3.45703125 -1.59375,4.7226563 -0.140625,0.1171875 -0.140625,0.1289062 -0.140625,0.1640625 0,0.058594 0.04687,0.1054687 0.105468,0.1054687 0.09375,0 0.996094,-0.6796875 1.582032,-1.9453125 0.503906,-1.1015625 0.632812,-2.203125 0.632812,-3.046875 z m 0,0"
         style="fill:#000000;fill-opacity:1;fill-rule:nonzero;stroke:none" />
    </g>
    <path
       id="path65"
       d="M 249.06616,19.40622 V 6.53767"
       style="fill:none;stroke:#808080;stroke-width:0.19925;stroke-linecap:butt;stroke-linejoin:miter;stroke-miterlimit:10;stroke-dasharray:none;stroke-opacity:1"
       transform="matrix(1.3333333,0,0,-1.3333333,69.636,155.51467)"
       clip-path="url(#clipPath66)" />
    <path
       id="path67"
       d="m 3.3282344,-3.011625 c 0.058594,-0.2578125 0.2929687,-1.171875 0.984375,-1.171875 0.046875,0 0.2929687,0 0.5039062,0.1289063 -0.28125,0.046875 -0.4804687,0.3046875 -0.4804687,0.5390625 0,0.1640625 0.1054687,0.3515625 0.375,0.3515625 0.2226562,0 0.5390625,-0.1875 0.5390625,-0.5859375 0,-0.515625 -0.5859375,-0.65625 -0.9257813,-0.65625 -0.5742187,0 -0.9257812,0.5273437 -1.0429687,0.7617187 -0.2578125,-0.65625 -0.7851563,-0.7617187 -1.078125,-0.7617187 -1.0429688,0 -1.60546877,1.2890625 -1.60546877,1.5351562 0,0.1054688 0.10546875,0.1054688 0.1171875,0.1054688 0.0820313,0 0.1171875,-0.023437 0.12890625,-0.1171875 C 1.1837031,-3.9374062 1.8399531,-4.1835 2.1797969,-4.1835 c 0.1875,0 0.5390625,0.09375 0.5390625,0.6679688 0,0.3046875 -0.1640625,0.9726562 -0.5390625,2.3671875 -0.1523438,0.6210937 -0.5039063,1.0429687 -0.9492188,1.0429687 -0.058594,0 -0.28124997,0 -0.49218747,-0.12890625 0.24609375,-0.0585938 0.46874997,-0.26953125 0.46874997,-0.5390625 0,-0.26953125 -0.22265622,-0.35156245 -0.37499997,-0.35156245 -0.29296875,0 -0.5390625,0.25781245 -0.5390625,0.5742187 0,0.45703125 0.4921875,0.65625 0.93749997,0.65625 0.65625,0 1.0078125,-0.69140625 1.0429688,-0.75 0.1171875,0.36328125 0.4804687,0.75 1.078125,0.75 1.0195312,0 1.59375,-1.2773437 1.59375,-1.5351562 0,-0.09375 -0.09375,-0.09375 -0.1289063,-0.09375 -0.082031,0 -0.1054687,0.035156 -0.1289062,0.1054687 -0.328125,1.06640625 -0.9960938,1.3125 -1.3242188,1.3125 -0.3867187,0 -0.5390625,-0.328125 -0.5390625,-0.65625 0,-0.22265625 0.058594,-0.4453125 0.1640625,-0.8789062 z m 0,0"
       style="fill:#000000;fill-opacity:1;fill-rule:nonzero;stroke:none"
       aria-label="x"
       transform="matrix(1.3333333,0,0,1.3333333,231.88267,198.828)" />
  </g>
</svg>
