<?xml version="1.0" encoding="UTF-8" standalone="no"?>
<!-- Created with Inkscape (http://www.inkscape.org/) -->

<svg
   version="1.1"
   id="svg1"
   width="340.46936"
   height="100.98331"
   viewBox="0 0 340.46937 100.98331"
   sodipodi:docname="blockdiagram.pdf"
   xmlns:inkscape="http://www.inkscape.org/namespaces/inkscape"
   xmlns:sodipodi="http://sodipodi.sourceforge.net/DTD/sodipodi-0.dtd"
   xmlns="http://www.w3.org/2000/svg"
   xmlns:svg="http://www.w3.org/2000/svg">
  <defs
     id="defs1" />
  <sodipodi:namedview
     id="namedview1"
     pagecolor="#ffffff"
     bordercolor="#000000"
     borderopacity="0.25"
     inkscape:showpageshadow="2"
     inkscape:pageopacity="0.0"
     inkscape:pagecheckerboard="0"
     inkscape:deskcolor="#d1d1d1">
    <inkscape:page
       x="1.0182051e-06"
       y="1.2454248e-06"
       inkscape:label="1"
       id="page1"
       width="340.46936"
       height="100.98331"
       margin="0"
       bleed="0" />
  </sodipodi:namedview>
  <g
     id="g1"
     inkscape:groupmode="layer"
     inkscape:label="1"
     transform="translate(-12.378902,-11.992188)">
    <g
       id="g2"
       aria-label="m(t)"
       transform="matrix(1.3333333,0,0,1.3333333,21.469915,36.052)">
      <path
         id="path2"
         d="m 0.88011719,-0.58685156 c -0.0351563,0.15234375 -0.09375,0.375 -0.09375,0.421875 0,0.1875 0.140625,0.26953125 0.29296871,0.26953125 0.1171875,0 0.2929688,-0.0703125 0.3632813,-0.26953125 0.011719,-0.0234375 0.1289062,-0.4921875 0.1875,-0.73828125 L 1.8527734,-1.8056016 c 0.058594,-0.2226562 0.1171875,-0.4335937 0.1757813,-0.6679687 0.035156,-0.1640625 0.1171875,-0.4570313 0.1289062,-0.4921875 0.140625,-0.3164063 0.6679688,-1.21875 1.6171875,-1.21875 0.4453125,0 0.5390625,0.3632812 0.5390625,0.6914062 0,0.2578125 -0.070312,0.5390625 -0.1523437,0.8320313 l -0.2695313,1.1601562 -0.1992187,0.75000004 c -0.046875,0.19921875 -0.140625,0.5390625 -0.140625,0.5859375 0,0.1875 0.140625,0.26953125 0.2929687,0.26953125 0.3046875,0 0.375,-0.24609375 0.4453125,-0.5625 0.140625,-0.56249999 0.515625,-2.01562499 0.5976563,-2.40234379 0.035156,-0.1289062 0.5625,-1.3242187 1.6523437,-1.3242187 0.421875,0 0.5390625,0.3398437 0.5390625,0.6914062 0,0.5742188 -0.421875,1.7109375 -0.6210937,2.2382813 -0.09375,0.234375 -0.1289063,0.35156249 -0.1289063,0.55078124 0,0.46875 0.3515625,0.80859375 0.8085938,0.80859375 0.9375,0 1.3125,-1.45312499 1.3125,-1.53515629 0,-0.09375 -0.09375,-0.09375 -0.1171875,-0.09375 -0.1054688,0 -0.1054688,0.023437 -0.1523438,0.1757813 -0.1523437,0.52734374 -0.46875,1.24218749 -1.0195312,1.24218749 -0.1640625,0 -0.234375,-0.10546875 -0.234375,-0.328125 0,-0.2578125 0.082031,-0.4921875 0.1757812,-0.71484379 0.1875,-0.515625 0.609375,-1.6171875 0.609375,-2.1914062 0,-0.6445313 -0.3984375,-1.0664063 -1.1484375,-1.0664063 -0.75,0 -1.2539062,0.4453125 -1.6171875,0.9726563 -0.011719,-0.1289063 -0.046875,-0.46875 -0.328125,-0.7148438 -0.2460937,-0.1992187 -0.5625,-0.2578125 -0.8085937,-0.2578125 -0.9023438,0 -1.3828125,0.6445313 -1.5585938,0.8671875 -0.046875,-0.5625 -0.46875,-0.8671875 -0.9140625,-0.8671875 -0.45703121,0 -0.64453121,0.3867188 -0.73828121,0.5742188 -0.17578125,0.3398437 -0.3046875,0.9375 -0.3046875,0.9609375 0,0.1054687 0.09375,0.1054687 0.1171875,0.1054687 0.09375,0 0.10546875,-0.011719 0.1640625,-0.234375 0.17578125,-0.703125 0.375,-1.1835937 0.72656251,-1.1835937 0.1640625,0 0.3164062,0.082031 0.3164062,0.4570312 0,0.2109375 -0.035156,0.3164063 -0.1640625,0.8320313 z m 0,0"
         style="fill:#000000;fill-opacity:1;fill-rule:nonzero;stroke:none" />
      <path
         id="path3"
         d="m 12.039297,2.3897109 c 0,-0.035156 0,-0.046875 -0.164063,-0.2226562 -1.242187,-1.25390626 -1.570312,-3.12890626 -1.570312,-4.6640625 0,-1.7226563 0.386719,-3.4570313 1.605469,-4.7109375 0.128906,-0.1171875 0.128906,-0.1289063 0.128906,-0.1640625 0,-0.070312 -0.03516,-0.1054688 -0.09375,-0.1054688 -0.105469,0 -0.996094,0.6796875 -1.582031,1.9453125 -0.5156254,1.1015625 -0.6328129,2.203125 -0.6328129,3.0351563 0,0.7851562 0.1171875,1.99218749 0.6562499,3.11718749 0.597656,1.21875001 1.453125,1.87500001 1.558594,1.87500001 0.05859,0 0.09375,-0.035156 0.09375,-0.1054688 z m 0,0"
         style="fill:#000000;fill-opacity:1;fill-rule:nonzero;stroke:none" />
      <path
         id="path4"
         d="m 14.673086,-3.9852891 h 0.9375 c 0.199219,0 0.304687,0 0.304687,-0.1992187 0,-0.1054688 -0.105468,-0.1054688 -0.28125,-0.1054688 h -0.878906 c 0.363281,-1.4179687 0.410156,-1.6171875 0.410156,-1.6757812 0,-0.1757813 -0.117187,-0.2695313 -0.292968,-0.2695313 -0.02344,0 -0.304688,0.011719 -0.398438,0.3515625 l -0.386719,1.59375 h -0.9375 c -0.199218,0 -0.292968,0 -0.292968,0.1875 0,0.1171875 0.07031,0.1171875 0.269531,0.1171875 h 0.878906 c -0.714844,2.8242188 -0.75,3.00000004 -0.75,3.17578129 0,0.5390625 0.375,0.9140625 0.914063,0.9140625 1.007812,0 1.582031,-1.45312499 1.582031,-1.53515629 0,-0.09375 -0.08203,-0.09375 -0.117188,-0.09375 -0.09375,0 -0.105468,0.023437 -0.152343,0.140625 -0.433594,1.03125004 -0.960938,1.27734379 -1.300782,1.27734379 -0.199218,0 -0.304687,-0.12890625 -0.304687,-0.45703125 0,-0.24609375 0.02344,-0.31640625 0.05859,-0.48046874 z m 0,0"
         style="fill:#000000;fill-opacity:1;fill-rule:nonzero;stroke:none" />
      <path
         id="path5"
         d="m 19.102773,-2.4970078 c 0,-0.7734375 -0.117187,-1.9804688 -0.65625,-3.1054688 -0.597656,-1.21875 -1.464843,-1.875 -1.558593,-1.875 -0.05859,0 -0.105469,0.046875 -0.105469,0.1054688 0,0.035156 0,0.046875 0.199219,0.234375 0.972656,0.984375 1.535156,2.5664062 1.535156,4.640625 0,1.71093749 -0.363281,3.45703124 -1.59375,4.7226562 -0.140625,0.1171875 -0.140625,0.1289063 -0.140625,0.1640625 0,0.058594 0.04687,0.1054688 0.105469,0.1054688 0.09375,0 0.996093,-0.6796875 1.582031,-1.94531251 0.503906,-1.1015625 0.632812,-2.20312499 0.632812,-3.04687499 z m 0,0"
         style="fill:#000000;fill-opacity:1;fill-rule:nonzero;stroke:none" />
    </g>
    <path
       id="path6"
       d="M 30.0876,-14.94415 H 59.97592 V 14.94417 H 30.0876 Z"
       style="fill:none;stroke:#000000;stroke-width:0.3985;stroke-linecap:butt;stroke-linejoin:miter;stroke-miterlimit:10;stroke-dasharray:none;stroke-opacity:1"
       transform="matrix(1.3333333,0,0,-1.3333333,43.470667,32.730667)" />
    <path
       id="path7"
       d="M 2.7074844,8.7662969 C 2.5785781,10.395203 2.2270156,10.852234 1.6527969,10.852234 c -0.1289063,0 -0.421875,-0.03516 -0.6328125,-0.210937 0.28125,-0.04687 0.3632812,-0.269531 0.3632812,-0.410156 0,-0.2929691 -0.2226562,-0.4218754 -0.41015622,-0.4218754 -0.19921875,0 -0.41015625,0.1289063 -0.41015625,0.4335934 0,0.480469 0.49218747,0.820313 1.08984377,0.820313 0.9492187,0 1.4296875,-0.867188 1.640625,-1.7578126 0.1289062,-0.515625 0.4921875,-3.421875 0.5742187,-4.5234375 l 0.1875,-2.484375 c 0.140625,-1.82812503 0.4804688,-2.07421878 0.9257813,-2.07421878 0.1054687,0 0.4101562,0.0117188 0.6328125,0.2109375 -0.2929688,0.0351563 -0.375,0.26953125 -0.375,0.3984375 0,0.29296878 0.2226562,0.42187498 0.4101562,0.42187498 0.1992188,0 0.421875,-0.1289062 0.421875,-0.42187498 0,-0.48046875 -0.5039062,-0.832031245 -1.1015625,-0.832031245 -0.9492187,0 -1.3359375,0.960937495 -1.5,1.722656225 C 3.3520156,2.2741094 2.9887344,5.0866094 2.8949844,6.2819219 Z m 0,0"
       style="fill:#000000;fill-opacity:1;fill-rule:nonzero;stroke:none"
       aria-label="R"
       transform="matrix(1.3333333,0,0,1.3333333,99.085333,25.350667)" />
    <path
       id="path8"
       d="M 3.5198,0 H 27.49731"
       style="fill:none;stroke:#000000;stroke-width:0.3985;stroke-linecap:butt;stroke-linejoin:miter;stroke-miterlimit:10;stroke-dasharray:none;stroke-opacity:1"
       transform="matrix(1.3333333,0,0,-1.3333333,43.470667,32.730667)" />
    <path
       id="path9"
       d="m 2.39102,0 c -0.99626,0.19925 -2.78952,0.59775 -3.98503,1.49438 0.99626,-1.09588 0.99626,-1.89288 0,-2.98876 C -0.3985,-0.59775 1.39476,-0.19925 2.39102,0 Z"
       style="fill:#000000;fill-opacity:1;fill-rule:nonzero;stroke:none"
       transform="matrix(1.3333333,0,0,-1.3333333,80.133747,32.730667)" />
    <path
       id="path10"
       d="m 104.80847,0 c 0,5.50235 -4.46043,9.96277 -9.96278,9.96277 -5.50237,0 -9.96279,-4.46042 -9.96279,-9.96277 0,-5.50235 4.46042,-9.96277 9.96279,-9.96277 5.50235,0 9.96278,4.46042 9.96278,9.96277 z"
       style="fill:none;stroke:#000000;stroke-width:0.3985;stroke-linecap:butt;stroke-linejoin:miter;stroke-miterlimit:10;stroke-dasharray:none;stroke-opacity:1"
       transform="matrix(1.3333333,0,0,-1.3333333,43.470667,32.730667)" />
    <path
       id="path11"
       d="m 87.60275,-7.24294 14.48587,14.48588 m -14.48587,0 14.48587,-14.48588"
       style="fill:none;stroke:#000000;stroke-width:0.3985;stroke-linecap:butt;stroke-linejoin:miter;stroke-miterlimit:10;stroke-dasharray:none;stroke-opacity:1"
       transform="matrix(1.3333333,0,0,-1.3333333,43.470667,32.730667)" />
    <path
       id="path12"
       d="M 60.17519,0 H 82.29262"
       style="fill:none;stroke:#000000;stroke-width:0.3985;stroke-linecap:butt;stroke-linejoin:miter;stroke-miterlimit:10;stroke-dasharray:none;stroke-opacity:1"
       transform="matrix(1.3333333,0,0,-1.3333333,43.470667,32.730667)" />
    <path
       id="path13"
       d="m 2.39102,0 c -0.99626,0.19925 -2.78952,0.59775 -3.98503,1.49438 0.99626,-1.09588 0.99626,-1.89288 0,-2.98876 C -0.3985,-0.59775 1.39476,-0.19925 2.39102,0 Z"
       style="fill:#000000;fill-opacity:1;fill-rule:nonzero;stroke:none"
       transform="matrix(1.3333333,0,0,-1.3333333,153.19416,32.730667)" />
    <path
       id="path14"
       d="m 182.02003,0 c 0,4.12675 -3.34532,7.47208 -7.47207,7.47208 -4.12677,0 -7.47208,-3.34533 -7.47208,-7.47208 0,-4.12675 3.34531,-7.47208 7.47208,-7.47208 4.12675,0 7.47207,3.34533 7.47207,7.47208 z"
       style="fill:none;stroke:#000000;stroke-width:0.3985;stroke-linecap:butt;stroke-linejoin:miter;stroke-miterlimit:10;stroke-dasharray:none;stroke-opacity:1"
       transform="matrix(1.3333333,0,0,-1.3333333,43.470667,32.730667)" />
    <path
       id="path15"
       d="m 276.4747,32.98848 h 3.70313 c 0.1875,0 0.4375,0 0.4375,-0.265625 0,-0.265625 -0.25,-0.265625 -0.4375,-0.265625 h -3.70313 v -3.71875 c 0,-0.171875 0,-0.4375 -0.26562,-0.4375 -0.26563,0 -0.26563,0.265625 -0.26563,0.4375 v 3.71875 h -3.71875 c -0.1875,0 -0.4375,0 -0.4375,0.265625 0,0.265625 0.25,0.265625 0.4375,0.265625 h 3.71875 v 3.734375 c 0,0.171874 0,0.437499 0.26563,0.437499 0.26562,0 0.26562,-0.265625 0.26562,-0.437499 z m 0,0"
       style="fill:#000000;fill-opacity:1;fill-rule:nonzero;stroke:none;stroke-width:1.33333"
       aria-label="+" />
    <path
       id="path17"
       d="M 105.00772,0 H 164.4856"
       style="fill:none;stroke:#000000;stroke-width:0.3985;stroke-linecap:butt;stroke-linejoin:miter;stroke-miterlimit:10;stroke-dasharray:none;stroke-opacity:1"
       transform="matrix(1.3333333,0,0,-1.3333333,43.470667,32.730667)" />
    <path
       id="path18"
       d="m 2.39102,0 c -0.99626,0.19925 -2.78952,0.59775 -3.98503,1.49438 0.99626,-1.09588 0.99626,-1.89288 0,-2.98876 C -0.3985,-0.59775 1.39476,-0.19925 2.39102,0 Z"
       style="fill:#000000;fill-opacity:1;fill-rule:nonzero;stroke:none"
       transform="matrix(1.3333333,0,0,-1.3333333,262.7848,32.730667)" />
    <path
       id="path20"
       d="m 2.3784844,-2.9760859 c 0.023437,-0.1289063 0.058594,-0.1640625 0.1757812,-0.1757813 0.140625,-0.023437 0.2460938,-0.023437 0.375,-0.023437 0.1523438,0 0.2226563,0 0.2226563,-0.140625 0,-0.058594 -0.046875,-0.082031 -0.09375,-0.082031 -0.140625,0 -0.2695313,0.011719 -0.3984375,0.011719 -0.140625,0 -0.28125,0 -0.421875,0 -0.1289063,0 -0.2578125,0 -0.375,0 -0.1171875,0 -0.2460938,-0.011719 -0.3632813,-0.011719 -0.035156,0 -0.1171875,0 -0.1171875,0.140625 0,0.082031 0.058594,0.082031 0.1757813,0.082031 0.058594,0 0.2226562,0 0.328125,0.023437 0,0.058594 0,0.070312 -0.023437,0.1289063 l -0.6445313,2.61328121 c -0.046875,0.140625 -0.046875,0.1875 -0.42187497,0.1875 -0.12890625,0 -0.2109375,0 -0.2109375,0.140625 0,0.0820312525 0.0820313,0.0820312525 0.1640625,0.0820312525 H 3.5737969 c 0.1289062,0 0.1289062,0 0.1757812,-0.1171875025 0.046875,-0.12890625 0.4453125,-1.12499996 0.4453125,-1.14843746 0,-0.035156 -0.023437,-0.09375 -0.1054687,-0.09375 -0.070312,0 -0.082031,0.023437 -0.140625,0.1523437 -0.2578125,0.63281251 -0.5742188,0.98437501 -1.3945313,0.98437501 H 1.8628594 c -0.046875,0 -0.1171875,0 -0.1640625,-0.0117188 0,-0.0351562 0,-0.046875 0.011719,-0.09375 z m 7.1982422,0.9023437 c 0,-0.8085937 -0.65625,-1.4414062 -1.6640625,-1.4414062 -1.359375,0 -2.5898438,1.125 -2.5898438,2.203125 0,0.80859371 0.6679688,1.41796871 1.6757813,1.41796871 1.3476562,0 2.578125,-1.06640625 2.578125,-2.17968751 z m -2.5195313,1.99218751 c -0.5039062,0 -1.1601562,-0.2578125 -1.1601562,-1.16015621 0,-1.1484375 0.890625,-2.0859375 1.9570312,-2.0859375 0.6328125,0 1.1835938,0.3515625 1.1835938,1.1015625 0,0.3046875 -0.1171875,0.9375 -0.5742188,1.46484371 -0.3398437,0.3984375 -0.8789062,0.6796875 -1.40625,0.6796875 z m 0,0"
       style="fill:#000000;fill-opacity:1;fill-rule:nonzero;stroke:none"
       aria-label="LO"
       transform="matrix(1.3333333,0,0,1.3333333,237.524,101.41733)" />
    <path
       id="path21"
       d="m 171.02814,-49.8139 h -7.64978"
       style="fill:none;stroke:#000000;stroke-width:0.3985;stroke-linecap:butt;stroke-linejoin:miter;stroke-miterlimit:10;stroke-dasharray:none;stroke-opacity:1"
       transform="matrix(1.3333333,0,0,-1.3333333,43.470667,32.730667)" />
    <path
       id="path23"
       d="m 106.14713,-59.98438 h 20.34091 v 20.34091 h -20.34091 z"
       style="fill:none;stroke:#000000;stroke-width:0.3985;stroke-linecap:butt;stroke-linejoin:miter;stroke-miterlimit:10;stroke-dasharray:none;stroke-opacity:1"
       transform="matrix(1.3333333,0,0,-1.3333333,43.470667,32.730667)" />
    <g
       id="g23"
       aria-label="π/2"
       transform="matrix(1.3333333,0,0,1.3333333,190.97467,100.808)">
      <path
         id="path24"
         d="m 3.5170469,-1.7690859 c 0.082031,0 0.140625,0 0.1992187,-0.046875 0.035156,-0.035156 0.082031,-0.1054688 0.082031,-0.1757813 0,-0.1523437 -0.140625,-0.1523437 -0.234375,-0.1523437 H 1.4311094 c -0.1054688,0 -0.328125,0 -0.63281252,0.2460937 -0.12890625,0.1171875 -0.3515625,0.375 -0.3515625,0.4335938 0,0.070312 0.0703125,0.070312 0.09375,0.070312 0.0703125,0 0.0703125,0 0.1171875,-0.046875 0.1640625,-0.2226563 0.41015622,-0.328125 0.70312502,-0.328125 h 0.3632812 c -0.1875,0.6210937 -0.4335937,1.13671871 -0.609375,1.45312496 -0.082031,0.12890625 -0.082031,0.140625 -0.082031,0.1875 0,0.1171875 0.09375,0.1875 0.1992187,0.1875 0.1992188,0 0.2695313,-0.234375 0.3867188,-0.6328125 0.1171875,-0.38671875 0.2109375,-0.74999996 0.3164062,-1.19531246 h 0.65625 c -0.023437,0.070312 -0.1640625,0.6210937 -0.1640625,1.00781246 0,0.3515625 0.1289063,0.8203125 0.3515625,0.8203125 0.1171875,0 0.2578125,-0.1171875 0.2578125,-0.24609375 0,-0.0585938 -0.023437,-0.0820313 -0.058594,-0.140625 -0.2226563,-0.375 -0.2226563,-0.80859371 -0.2226563,-0.90234371 0,-0.1640625 0.023437,-0.3632813 0.046875,-0.5390625 z M 7.3315,-3.4917422 c 0.035156,-0.070312 0.035156,-0.09375 0.035156,-0.1054687 0,-0.070312 -0.070312,-0.140625 -0.140625,-0.140625 -0.082031,0 -0.1171875,0.058594 -0.1523438,0.1289062 L 4.9760313,0.99653906 c -0.035156,0.0703125 -0.035156,0.09375 -0.035156,0.10546874 0,0.082031 0.070312,0.140625 0.140625,0.140625 0.082031,0 0.1171875,-0.046875 0.1523438,-0.1171875 z m 0,0"
         style="fill:#000000;fill-opacity:1;fill-rule:nonzero;stroke:none" />
      <path
         id="path25"
         d="M 10.914508,-0.96049219 H 10.70357 c -0.01172,0.09375 -0.05859,0.3984375 -0.140625,0.45703125 -0.03516,0.0234375 -0.457031,0.0234375 -0.527343,0.0234375 H 9.0512266 c 0.328125,-0.24609375 0.703125,-0.515625 0.9960934,-0.71484376 0.457032,-0.3164062 0.867188,-0.5976562 0.867188,-1.125 0,-0.6445312 -0.597656,-0.9960937 -1.3125002,-0.9960937 -0.6679687,0 -1.1601562,0.3867187 -1.1601562,0.8789062 0,0.2578125 0.2109375,0.3046875 0.28125,0.3046875 0.140625,0 0.2929687,-0.09375 0.2929687,-0.2929687 0,-0.1875 -0.1289062,-0.28125 -0.28125,-0.2929688 0.140625,-0.234375 0.4335938,-0.375 0.7617188,-0.375 0.4804687,0 0.8906249,0.28125 0.8906249,0.7734375 0,0.421875 -0.292969,0.7382813 -0.6796874,1.0546875 l -1.2070313,1.03125001 c -0.046875,0.046875 -0.058594,0.046875 -0.058594,0.0820313 V 4.453125e-4 h 2.3085937 z m 0,0"
         style="fill:#000000;fill-opacity:1;fill-rule:nonzero;stroke:none" />
    </g>
    <path
       id="path26"
       d="M 141.28899,-49.8139 H 129.07832"
       style="fill:none;stroke:#000000;stroke-width:0.3985;stroke-linecap:butt;stroke-linejoin:miter;stroke-miterlimit:10;stroke-dasharray:none;stroke-opacity:1"
       transform="matrix(1.3333333,0,0,-1.3333333,43.470667,32.730667)"
       sodipodi:nodetypes="cc" />
    <path
       id="path27"
       d="m 2.39102,0 c -0.99626,0.19925 -2.78952,0.59775 -3.98503,1.49438 0.99626,-1.09588 0.99626,-1.89288 0,-2.98876 C -0.3985,-0.59775 1.39476,-0.19925 2.39102,0 Z"
       style="fill:#000000;fill-opacity:1;fill-rule:nonzero;stroke:none"
       transform="matrix(-1.3333333,0,0,1.3333333,215.57509,99.1492)" />
    <path
       id="path28"
       d="M 174.54796,-8.9417535 V -49.8139 h -14.62448"
       style="fill:none;stroke:#000000;stroke-width:0.3985;stroke-linecap:butt;stroke-linejoin:miter;stroke-miterlimit:10;stroke-dasharray:none;stroke-opacity:1"
       transform="matrix(1.3333333,0,0,-1.3333333,43.470667,32.730667)"
       sodipodi:nodetypes="ccc" />
    <path
       id="path29"
       d="m 276.22228,42.713984 c -0.26566,1.328351 -0.79699,3.719361 -1.9925,5.313376 1.46117,-1.328335 2.52384,-1.328342 3.98501,10e-6 -1.19552,-1.594016 -1.72683,-3.985035 -1.99251,-5.313386 z"
       style="fill:#000000;fill-opacity:1;fill-rule:nonzero;stroke:none;stroke-width:1.33333" />
    <path
       id="path30"
       d="M 105.94788,-49.8139 H 94.84569 v 37.26085"
       style="fill:none;stroke:#000000;stroke-width:0.3985;stroke-linecap:butt;stroke-linejoin:miter;stroke-miterlimit:10;stroke-dasharray:none;stroke-opacity:1"
       transform="matrix(1.3333333,0,0,-1.3333333,43.470667,32.730667)" />
    <path
       id="path31"
       d="m 2.39102,0 c -0.99626,0.19925 -2.78952,0.59775 -3.98503,1.49438 0.99626,-1.09588 0.99626,-1.89288 0,-2.98876 C -0.3985,-0.59775 1.39476,-0.19925 2.39102,0 Z"
       style="fill:#000000;fill-opacity:1;fill-rule:nonzero;stroke:none"
       transform="matrix(0,-1.3333333,-1.3333333,0,169.93159,49.468067)" />
    <path
       id="path32"
       d="m 182.21928,0 h 47.42289"
       style="fill:none;stroke:#000000;stroke-width:0.3985;stroke-linecap:butt;stroke-linejoin:miter;stroke-miterlimit:10;stroke-dasharray:none;stroke-opacity:1"
       transform="matrix(1.3333333,0,0,-1.3333333,43.470667,32.730667)" />
    <path
       id="path33"
       d="m 2.39102,0 c -0.99626,0.19925 -2.78952,0.59775 -3.98503,1.49438 0.99626,-1.09588 0.99626,-1.89288 0,-2.98876 C -0.3985,-0.59775 1.39476,-0.19925 2.39102,0 Z"
       style="fill:#000000;fill-opacity:1;fill-rule:nonzero;stroke:none"
       transform="matrix(1.3333333,0,0,-1.3333333,349.66023,32.730667)" />
    <g
       id="g33"
       aria-label="ˆ&#10;ψ&#10;FM&#10;(t)"
       transform="matrix(1.3333333,0,0,1.3333333,301.68933,21.210667)">
      <path
         id="path34"
         d="m 2.4947188,-6.9138594 -1.3359375,1.359375 0.1757812,0.1757813 1.1601563,-1.0195313 1.1367187,1.0195313 0.1875,-0.1757813 z m 0,0"
         style="fill:#000000;fill-opacity:1;fill-rule:nonzero;stroke:none" />
      <path
         id="path35"
         d="m 2.76425,-4.0281172 c 0.011719,-0.035156 0.023437,-0.09375 0.023437,-0.1523437 0,-0.09375 -0.070312,-0.1054688 -0.1171875,-0.1054688 -0.09375,0 -0.1054687,0.023437 -0.1523437,0.1992188 L 0.8658125,2.4992266 c -0.75,-0.09375 -1.13671875,-0.4570313 -1.13671875,-1.1132813 0,-0.1992187 0,-0.45703124 0.5390625,-1.85156249 0.046875,-0.12890625 0.1171875,-0.29296875 0.1171875,-0.4921875 0,-0.44531251 -0.328125,-0.82031251 -0.8203125,-0.82031251 -0.94921875,0 -1.31249995,1.45312501 -1.31249995,1.53515626 0,0.10546875 0.09375,0.10546875 0.1171875,0.10546875 0.09375,0 0.1054687,-0.0234375 0.1523437,-0.1875 0.2695313,-0.93750001 0.66796875,-1.23046871 1.0078125,-1.23046871 0.0820313,0 0.2578125,0 0.2578125,0.3164062 0,0.25781251 -0.10546875,0.51562501 -0.234375,0.85546876 -0.48046875,1.25390625 -0.48046875,1.51171874 -0.48046875,1.68750004 0,0.9492187 0.78515625,1.359375 1.734375,1.4179687 -0.0820313,0.3515625 -0.0820313,0.375 -0.22265625,0.9023438 -0.0234375,0.1054687 -0.22265625,0.9140625 -0.22265625,0.9492187 0,0.011719 0,0.09375 0.1171875,0.09375 0.0234375,0 0.0703125,0 0.09375,-0.035156 0.0234375,-0.023437 0.0820313,-0.2695313 0.1171875,-0.4101563 L 1.0650313,2.7336016 c 0.375,0 1.2421875,0 2.1796875,-1.0664063 0.4101562,-0.4570312 0.6210937,-0.89062499 0.7265625,-1.19531249 0.09375,-0.24609375 0.3164062,-1.11328125 0.3164062,-1.54687501 0,-0.5625 -0.2695312,-0.703125 -0.4453125,-0.703125 -0.2460937,0 -0.4921875,0.2578125 -0.4921875,0.4804688 0,0.1289062 0.058594,0.1875 0.1523438,0.2695312 0.1054687,0.10546876 0.3515625,0.36328126 0.3515625,0.84375001 0,0.64453125 -0.515625,1.45312499 -0.8671875,1.81640629 -0.8789063,0.890625 -1.5117188,0.890625 -1.875,0.890625 z m 0,0"
         style="fill:#000000;fill-opacity:1;fill-rule:nonzero;stroke:none" />
      <path
         id="path36"
         d="M 9.3531172,-5.7214766 H 5.1929609 v 0.2460938 h 0.1757813 c 0.5273437,0 0.5507812,0.070312 0.5507812,0.3164062 v 3.609375 c 0,0.234375 -0.023437,0.3164063 -0.5507812,0.3164063 H 5.1929609 v 0.24609374 c 0.011719,0 0.796875,-0.0234375 1.0664063,-0.0234375 0.28125,0 1.1132812,0.0117188 1.21875,0.0234375 V -1.2331953 H 7.2320234 c -0.65625,0 -0.65625,-0.09375 -0.65625,-0.328125 v -1.6757813 h 0.6796875 c 0.6914063,0 0.796875,0.2109375 0.796875,0.8203125 h 0.234375 v -1.8867187 h -0.234375 c 0,0.609375 -0.1054687,0.8203125 -0.796875,0.8203125 H 6.5757734 v -1.7109375 c 0,-0.2226563 0.011719,-0.28125 0.3398438,-0.28125 h 0.9726562 c 1.125,0 1.3125,0.3867187 1.4414063,1.359375 h 0.234375 z m 2.5166018,0.1289063 c -0.07031,-0.1523438 -0.117188,-0.1523438 -0.269531,-0.1523438 h -1.21875 v 0.2460938 H 10.5455 c 0.539063,0 0.550781,0.070312 0.550781,0.3164062 v 3.4453125 c 0,0.1875 0,0.5039063 -0.714843,0.5039063 v 0.24609374 c 0.28125,-0.0234375 0.5625,-0.0234375 0.84375,-0.0234375 0.292968,0 0.574218,0 0.855468,0.0234375 V -1.2331953 c -0.714843,0 -0.714843,-0.3164063 -0.714843,-0.5039063 v -3.6796875 l 1.816406,4.265625 c 0.03516,0.082031 0.07031,0.16406254 0.175781,0.16406254 0.04687,0 0.105469,-0.0234375 0.164063,-0.14062504 l 1.839843,-4.359375 h 0.01172 v 3.9375 c 0,0.234375 -0.01172,0.3164063 -0.550781,0.3164063 h -0.164063 v 0.24609374 c 0.328125,-0.0117188 0.726563,-0.0234375 1.007813,-0.0234375 0.28125,0 0.679687,0.0117188 1.007812,0.0234375 V -1.2331953 h -0.164062 c -0.539063,0 -0.550781,-0.070312 -0.550781,-0.3164063 v -3.6328125 c 0,-0.234375 0.01172,-0.3164062 0.550781,-0.3164062 h 0.164062 v -0.2460938 h -1.207031 c -0.140625,0 -0.210937,0 -0.257812,0.140625 l -1.675782,3.9492188 z m 0,0"
         style="fill:#000000;fill-opacity:1;fill-rule:nonzero;stroke:none" />
      <path
         id="path37"
         d="m 20.904875,5.0187578 c 0,-0.035156 0,-0.046875 -0.164062,-0.2226562 C 19.498625,3.5421953 19.1705,1.6671953 19.1705,0.13203906 c 0,-1.72265626 0.386719,-3.45703126 1.605469,-4.71093746 0.128906,-0.1171875 0.128906,-0.1289063 0.128906,-0.1640625 0,-0.070312 -0.03516,-0.1054688 -0.09375,-0.1054688 -0.105469,0 -0.996094,0.6796875 -1.582031,1.9453125 -0.515625,1.1015625 -0.632813,2.20312501 -0.632813,3.03515626 0,0.78515625 0.117188,1.99218754 0.65625,3.11718754 0.597657,1.21875 1.453125,1.875 1.558594,1.875 0.05859,0 0.09375,-0.035156 0.09375,-0.1054688 z m 0,0"
         style="fill:#000000;fill-opacity:1;fill-rule:nonzero;stroke:none" />
      <path
         id="path38"
         d="m 23.538664,-1.3562422 h 0.9375 c 0.199219,0 0.304688,0 0.304688,-0.1992187 0,-0.1054688 -0.105469,-0.1054688 -0.28125,-0.1054688 h -0.878907 c 0.363282,-1.4179687 0.410157,-1.6171875 0.410157,-1.6757812 0,-0.1757813 -0.117188,-0.2695313 -0.292969,-0.2695313 -0.02344,0 -0.304688,0.011719 -0.398438,0.3515625 l -0.386718,1.59375 h -0.9375 c -0.199219,0 -0.292969,0 -0.292969,0.1875 0,0.1171875 0.07031,0.1171875 0.269531,0.1171875 h 0.878906 c -0.714843,2.8242188 -0.75,3 -0.75,3.1757813 0,0.5390625 0.375,0.9140625 0.914063,0.9140625 1.007812,0 1.582031,-1.453125 1.582031,-1.5351563 0,-0.09375 -0.08203,-0.09375 -0.117187,-0.09375 -0.09375,0 -0.105469,0.023437 -0.152344,0.140625 -0.433594,1.03125 -0.960938,1.2773438 -1.300781,1.2773438 -0.199219,0 -0.304688,-0.1289063 -0.304688,-0.4570313 0,-0.2460937 0.02344,-0.3164062 0.05859,-0.4804687 z m 0,0"
         style="fill:#000000;fill-opacity:1;fill-rule:nonzero;stroke:none" />
      <path
         id="path39"
         d="m 27.968352,0.13203906 c 0,-0.7734375 -0.117188,-1.98046876 -0.65625,-3.10546876 -0.597657,-1.21875 -1.464844,-1.875 -1.558594,-1.875 -0.05859,0 -0.105469,0.046875 -0.105469,0.1054688 0,0.035156 0,0.046875 0.199219,0.234375 0.972656,0.984375 1.535156,2.5664062 1.535156,4.64062496 0,1.71093754 -0.363281,3.45703124 -1.59375,4.72265624 -0.140625,0.1171875 -0.140625,0.1289063 -0.140625,0.1640625 0,0.058594 0.04687,0.1054688 0.105469,0.1054688 0.09375,0 0.996094,-0.6796875 1.582031,-1.9453125 0.503906,-1.1015625 0.632813,-2.20312504 0.632813,-3.04687504 z m 0,0"
         style="fill:#000000;fill-opacity:1;fill-rule:nonzero;stroke:none" />
    </g>
    <circle
       style="fill:none;stroke:#000000;stroke-width:0.531;stroke-dasharray:none;stroke-opacity:1"
       id="path40"
       cx="244.29883"
       cy="99.144531"
       r="12.390406" />
  </g>
</svg>
