<?xml version="1.0" encoding="UTF-8" standalone="no"?>
<!-- Created with Inkscape (http://www.inkscape.org/) -->

<svg
   version="1.1"
   id="svg1"
   width="502.16132"
   height="42.778667"
   viewBox="0 0 502.16132 42.778667"
   sodipodi:docname="block_dia.pdf"
   xmlns:inkscape="http://www.inkscape.org/namespaces/inkscape"
   xmlns:sodipodi="http://sodipodi.sourceforge.net/DTD/sodipodi-0.dtd"
   xmlns="http://www.w3.org/2000/svg"
   xmlns:svg="http://www.w3.org/2000/svg">
  <defs
     id="defs1" />
  <sodipodi:namedview
     id="namedview1"
     pagecolor="#ffffff"
     bordercolor="#666666"
     borderopacity="1.0"
     inkscape:showpageshadow="2"
     inkscape:pageopacity="0.0"
     inkscape:pagecheckerboard="0"
     inkscape:deskcolor="#d1d1d1"
     showgrid="false">
    <inkscape:page
       x="0"
       y="0"
       inkscape:label="1"
       id="page1"
       width="502.16132"
       height="42.778667"
       margin="0"
       bleed="0" />
  </sodipodi:namedview>
  <g
     id="g1"
     inkscape:groupmode="layer"
     inkscape:label="1">
    <path
       id="path1"
       d="M 0,14.17339 H 56.23534"
       style="fill:none;stroke:#000000;stroke-width:0.3985;stroke-linecap:butt;stroke-linejoin:miter;stroke-miterlimit:10;stroke-dasharray:none;stroke-opacity:1"
       transform="matrix(1.3333333,0,0,-1.3333333,0.26533333,42.513333)" />
    <path
       id="path2"
       d="M -1.19551,1.59401 C -1.09587,0.99626 0,0.09961 0.29886,0 0,-0.09961 -1.09587,-0.99626 -1.19551,-1.59401"
       style="fill:none;stroke:#000000;stroke-width:0.31879;stroke-linecap:round;stroke-linejoin:round;stroke-miterlimit:10;stroke-dasharray:none;stroke-opacity:1"
       transform="matrix(1.3333333,0,0,-1.3333333,75.245787,23.61548)" />
    <g
       id="g2"
       aria-label="ϕ&#10;FM&#10;(t)"
       transform="matrix(1.3333333,0,0,1.3333333,16.56,15.597333)">
      <path
         id="path3"
         d="m 4.3466016,-6.6794453 c 0,-0.011719 0.035156,-0.1289063 0.035156,-0.1289063 0,-0.011719 0,-0.1054687 -0.1171875,-0.1054687 -0.1054687,0 -0.1171875,0.035156 -0.1523437,0.1992187 l -0.5742188,2.296875 c -1.5820312,0.058594 -3.04687499,1.3828125 -3.04687499,2.7304688 0,0.94921874 0.69140629,1.73437499 1.91015629,1.80468749 -0.082031,0.31640625 -0.1523438,0.6328125 -0.234375,0.93750001 -0.1171875,0.46875 -0.2109375,0.84375 -0.2109375,0.8789062 0,0.09375 0.070312,0.1054688 0.1171875,0.1054688 0.046875,0 0.070312,-0.011719 0.09375,-0.035156 0.023437,-0.023437 0.082031,-0.2578125 0.1171875,-0.3984375 l 0.375,-1.48828121 c 1.6054687,-0.046875 3.046875,-1.39453129 3.046875,-2.73046879 0,-0.7851562 -0.5273438,-1.6992187 -1.9101563,-1.8046875 z m -1.8984375,6.57421874 c -0.5976563,-0.0234375 -1.3125,-0.375 -1.3125,-1.37109374 0,-1.1953125 0.8554687,-2.5898438 2.34375,-2.71875 z M 3.7372266,-4.1950703 c 0.75,0.046875 1.3242187,0.5039062 1.3242187,1.3710937 0,1.1835938 -0.8554687,2.60156254 -2.3554687,2.71875004 z m 0,0"
         style="fill:#000000;fill-opacity:1;fill-rule:nonzero;stroke:none" />
      <path
         id="path4"
         d="m 8.3163281,-0.75561719 h 0.75 c 0.5273438,0 0.6210938,0.09375 0.6210938,0.31640625 0,0.10546875 0,0.1171875 -0.046875,0.31640625 -0.011719,0.046875 -0.023437,0.05859375 -0.023437,0.08203125 0,0.0703125 0.046875,0.10546875 0.1171875,0.10546875 0.09375,0 0.1054687,-0.03515625 0.140625,-0.1640625 L 10.249922,-1.5759297 c 0,-0.023437 0.02344,-0.1289062 0.02344,-0.140625 0,-0.070312 -0.04687,-0.1054687 -0.117187,-0.1054687 -0.09375,0 -0.105469,0.046875 -0.140625,0.1757812 -0.1406251,0.5390625 -0.3398439,0.6445313 -0.9375001,0.6445313 H 8.3866406 l 0.4335938,-1.7460938 c 0.058594,-0.2226562 0.070312,-0.2460937 0.3632812,-0.2460937 h 1.0664064 c 0.925781,0 1.101562,0.2226562 1.101562,0.8085937 0,0.2226563 -0.03516,0.375 -0.03516,0.4335938 0,0.046875 0.02344,0.1171875 0.117188,0.1171875 0.105468,0 0.117187,-0.070312 0.128906,-0.1875 l 0.128906,-1.2070313 c 0.02344,-0.2109375 -0.03516,-0.2109375 -0.199219,-0.2109375 H 7.7655469 c -0.1289063,0 -0.2226563,0 -0.2226563,0.1523438 0,0.09375 0.082031,0.09375 0.2226563,0.09375 0,0 0.140625,0 0.2695312,0.023437 0.140625,0.011719 0.1523438,0.023437 0.1523438,0.09375 0,0.046875 -0.023437,0.1171875 -0.023437,0.1523437 L 7.2499219,0.92016406 C 7.1796094,1.1896953 7.1678906,1.2482891 6.6288281,1.2482891 c -0.1171875,0 -0.2109375,0 -0.2109375,0.140625 0,0.070312 0.046875,0.1054687 0.1171875,0.1054687 0.1992188,0 0.7148438,-0.023437 0.9140625,-0.023437 h 0.5390625 c 0.1757813,0 0.375,0.023437 0.5507813,0.023437 0.046875,0 0.1523437,0 0.1523437,-0.1523437 0,-0.09375 -0.082031,-0.09375 -0.2460937,-0.09375 -0.011719,0 -0.1875,0 -0.3632813,-0.023437 -0.140625,-0.011719 -0.2109375,-0.011719 -0.2109375,-0.1171875 0,-0.023437 0,-0.046875 0.023437,-0.11718754 z M 19.17668,-2.7009297 c 0.07031,-0.2578125 0.08203,-0.3164062 0.597656,-0.3164062 0.152344,0 0.234375,0 0.234375,-0.140625 0,-0.1054688 -0.08203,-0.1054688 -0.210938,-0.1054688 h -0.9375 c -0.210937,0 -0.210937,0 -0.304687,0.140625 L 15.860273,0.84985156 15.168867,-3.0759297 c -0.03516,-0.1875 -0.03516,-0.1875 -0.234375,-0.1875 H 13.92668 c -0.128907,0 -0.222657,0 -0.222657,0.1523438 0,0.09375 0.08203,0.09375 0.234375,0.09375 0.117188,0 0.140625,0 0.269532,0.011719 0.140625,0.011719 0.152343,0.035156 0.152343,0.1054688 0,0 0,0.046875 -0.03516,0.1523437 l -0.878906,3.49218751 c -0.05859,0.24609375 -0.164063,0.48046879 -0.714844,0.50390629 -0.05859,0 -0.152344,0 -0.152344,0.1523437 0,0 0.01172,0.09375 0.105469,0.09375 0.210938,0 0.503906,-0.023437 0.726563,-0.023437 0.164062,0 0.574218,0.023437 0.738281,0.023437 0.03516,0 0.140625,0 0.140625,-0.1523437 0,-0.09375 -0.09375,-0.09375 -0.152344,-0.09375 -0.445312,-0.023437 -0.445312,-0.1992188 -0.445312,-0.29296879 0,-0.0351563 0,-0.0703125 0.02344,-0.17578125 l 0.925781,-3.71484376 h 0.01172 l 0.738281,4.2421875 c 0.02344,0.1289063 0.03516,0.1875 0.140625,0.1875 0.105469,0 0.152344,-0.082031 0.210938,-0.1523437 l 2.917969,-4.3476563 0.01172,0.011719 L 17.6884,0.95532081 C 17.62981,1.1896958 17.61809,1.2482896 17.079025,1.2482896 c -0.128906,0 -0.210937,0 -0.210937,0.1523437 0,0 0,0.09375 0.105469,0.09375 0.140625,0 0.292968,-0.023437 0.433593,-0.023437 0.140625,0 0.304688,0 0.445313,0 0.199219,0 0.691406,0.023437 0.878906,0.023437 0.04687,0 0.152344,0 0.152344,-0.1523437 0,-0.09375 -0.08203,-0.09375 -0.222656,-0.09375 -0.01172,0 -0.140625,0 -0.269532,-0.023437 -0.152343,-0.011719 -0.152343,-0.035156 -0.152343,-0.1054688 0,-0.035156 0.01172,-0.1054687 0.02344,-0.15234374 z m 0,0"
         style="fill:#000000;fill-opacity:1;fill-rule:nonzero;stroke:none" />
      <path
         id="path5"
         d="m 24.198164,2.3908672 c 0,-0.035156 0,-0.046875 -0.164062,-0.2226563 -1.242188,-1.25390621 -1.570313,-3.12890621 -1.570313,-4.6640625 0,-1.7226562 0.386719,-3.4570312 1.605469,-4.7109375 0.128906,-0.1171875 0.128906,-0.1289062 0.128906,-0.1640625 0,-0.070312 -0.03516,-0.1054687 -0.09375,-0.1054687 -0.105469,0 -0.996094,0.6796875 -1.582031,1.9453125 -0.515625,1.1015625 -0.632813,2.203125 -0.632813,3.0351562 0,0.7851563 0.117188,1.99218754 0.65625,3.11718754 0.597657,1.21874996 1.453125,1.87499996 1.558594,1.87499996 0.05859,0 0.09375,-0.035156 0.09375,-0.1054687 z m 0,0"
         style="fill:#000000;fill-opacity:1;fill-rule:nonzero;stroke:none" />
      <path
         id="path6"
         d="m 26.829023,-3.9841328 h 0.9375 c 0.199219,0 0.304688,0 0.304688,-0.1992188 0,-0.1054687 -0.105469,-0.1054687 -0.28125,-0.1054687 h -0.878906 c 0.363281,-1.4179688 0.410156,-1.6171875 0.410156,-1.6757813 0,-0.1757812 -0.117188,-0.2695312 -0.292969,-0.2695312 -0.02344,0 -0.304687,0.011719 -0.398437,0.3515625 l -0.386719,1.59375 h -0.9375 c -0.199219,0 -0.292969,0 -0.292969,0.1875 0,0.1171875 0.07031,0.1171875 0.269531,0.1171875 h 0.878907 c -0.714844,2.8242187 -0.75,2.99999999 -0.75,3.17578124 0,0.5390625 0.375,0.9140625 0.914062,0.9140625 1.007813,0 1.582031,-1.45312504 1.582031,-1.53515624 0,-0.09375 -0.08203,-0.09375 -0.117187,-0.09375 -0.09375,0 -0.105469,0.023437 -0.152344,0.140625 -0.433594,1.03124999 -0.960937,1.27734374 -1.300781,1.27734374 -0.199219,0 -0.304688,-0.12890625 -0.304688,-0.45703125 0,-0.24609375 0.02344,-0.31640625 0.05859,-0.48046879 z m 0,0"
         style="fill:#000000;fill-opacity:1;fill-rule:nonzero;stroke:none" />
      <path
         id="path7"
         d="m 31.258711,-2.4958516 c 0,-0.7734375 -0.117188,-1.9804687 -0.65625,-3.1054687 -0.597656,-1.21875 -1.464844,-1.875 -1.558594,-1.875 -0.05859,0 -0.105469,0.046875 -0.105469,0.1054687 0,0.035156 0,0.046875 0.199219,0.234375 0.972656,0.984375 1.535156,2.5664063 1.535156,4.640625 0,1.71093754 -0.363281,3.45703129 -1.59375,4.7226563 -0.140625,0.1171875 -0.140625,0.1289062 -0.140625,0.1640625 0,0.058594 0.04687,0.1054687 0.105469,0.1054687 0.09375,0 0.996094,-0.6796875 1.582031,-1.94531246 0.503907,-1.1015625 0.632813,-2.20312504 0.632813,-3.04687504 z m 0,0"
         style="fill:#000000;fill-opacity:1;fill-rule:nonzero;stroke:none" />
    </g>
    <path
       id="path8"
       d="M 170.08086,0 V 28.3468 H 283.4681 V 0 Z"
       style="fill:none;stroke:#000000;stroke-width:0.3985;stroke-linecap:butt;stroke-linejoin:miter;stroke-miterlimit:10;stroke-dasharray:none;stroke-opacity:1"
       transform="matrix(1.3333333,0,0,-1.3333333,0.26533333,42.513333)" />
    <path
       id="path9"
       d="m 1.3584766,-0.7723125 c 0,0.3515625 -0.023437,0.46875 -0.79687504,0.46875 h -0.234375 V 0.001125 H 6.0811328 L 6.4912891,-2.5652812 H 6.2451953 C 5.9991016,-1.030125 5.7647266,-0.3035625 4.0537891,-0.3035625 H 2.7295703 c -0.46875,0 -0.4921875,-0.0703125 -0.4921875,-0.3984375 v -2.6601562 h 0.9023438 c 0.9609375,0 1.078125,0.3164062 1.078125,1.1601562 H 4.4639453 V -4.8387187 H 4.2178516 c 0,0.8554687 -0.1171875,1.1601562 -1.078125,1.1601562 H 2.2373828 v -2.390625 c 0,-0.328125 0.023437,-0.3984375 0.4921875,-0.3984375 h 1.2890625 c 1.5234375,0 1.7929688,0.5507813 1.9453125,1.9335938 H 6.2100391 L 5.9405078,-6.7723125 H 0.32722656 v 0.3046875 h 0.234375 c 0.77343754,0 0.79687504,0.1171875 0.79687504,0.46875 z M 7.8828906,-3.42075 v 2.66015625 c 0,0.45703125 -0.1171875,0.45703125 -0.7851562,0.45703125 V 0.001125 c 0.3515625,-0.01171875 0.8554687,-0.03515625 1.125,-0.03515625 0.2578125,0 0.7851562,0.0234375 1.1132812,0.03515625 v -0.3046875 c -0.65625,0 -0.7734375,0 -0.7734375,-0.45703125 V -2.5887187 c 0,-1.03125 0.7148438,-1.59375 1.3476563,-1.59375 0.6210936,0 0.7382816,0.5390625 0.7382816,1.1015625 v 2.32031245 c 0,0.45703125 -0.117188,0.45703125 -0.7734379,0.45703125 V 0.001125 c 0.3398439,-0.01171875 0.8554689,-0.03515625 1.1249999,-0.03515625 0.257813,0 0.773438,0.0234375 1.113281,0.03515625 v -0.3046875 c -0.515625,0 -0.773437,0 -0.785156,-0.3046875 v -1.8984375 c 0,-0.8554687 0,-1.171875 -0.304687,-1.5234375 -0.140625,-0.1757812 -0.46875,-0.375 -1.0429691,-0.375 -0.7265625,0 -1.1953125,0.4335938 -1.4765625,1.0546875 V -4.405125 l -1.40625,0.1171875 V -3.98325 c 0.703125,0 0.7851562,0.070312 0.7851562,0.5625 z m 8.3027344,0.1054688 c 0.08203,-0.234375 0.257813,-0.65625 0.914063,-0.6679688 v -0.3046875 c -0.234375,0.011719 -0.515625,0.023437 -0.75,0.023437 -0.234375,0 -0.691407,-0.023437 -0.867188,-0.023437 V -3.98325 c 0.375,0.011719 0.480469,0.234375 0.480469,0.4335938 0,0.082031 -0.02344,0.1289062 -0.05859,0.234375 l -1.019531,2.5429687 -1.113281,-2.7773437 c -0.05859,-0.140625 -0.05859,-0.1523438 -0.05859,-0.1757813 0,-0.2578125 0.386719,-0.2578125 0.5625,-0.2578125 v -0.3046875 c -0.292969,0 -0.855469,0.023437 -1.078125,0.023437 -0.269531,0 -0.667969,-0.011719 -0.972656,-0.023437 V -3.98325 c 0.632812,0 0.667968,0.058594 0.796875,0.3632813 l 1.441406,3.53906245 c 0.05859,0.140625 0.07031,0.1875 0.199219,0.1875 0.128906,0 0.175781,-0.08203125 0.210937,-0.1875 z m 1.942383,0.8085937 c 0.05859,-1.4882812 0.902344,-1.734375 1.242187,-1.734375 1.019532,0 1.125,1.3476563 1.125,1.734375 z m -0.01172,0.2109375 h 2.789063 c 0.210937,0 0.246093,0 0.246093,-0.2109375 0,-0.984375 -0.539062,-1.9570312 -1.78125,-1.9570312 -1.160156,0 -2.074218,1.03125 -2.074218,2.2734375 0,1.33593745 1.042968,2.29687495 2.191406,2.29687495 1.21875,0 1.664062,-1.1015625 1.664062,-1.28906245 0,-0.1054688 -0.08203,-0.1171875 -0.128906,-0.1171875 -0.09375,0 -0.117187,0.058594 -0.128906,0.140625 C 20.54207,-0.1395 19.639727,-0.1395 19.545977,-0.1395 c -0.503907,0 -0.902344,-0.29296875 -1.125,-0.66796875 C 18.116289,-1.2879375 18.116289,-1.9441875 18.116288,-2.29575 Z m 5.085938,-4.6171875 -1.429688,0.1054688 v 0.3164062 c 0.703125,0 0.773438,0.070312 0.773438,0.5507813 v 5.17968745 c 0,0.45703125 -0.105469,0.45703125 -0.773438,0.45703125 V 0.001125 c 0.328125,-0.01171875 0.855469,-0.03515625 1.101563,-0.03515625 0.257812,0 0.738281,0.0234375 1.113281,0.03515625 v -0.3046875 c -0.667969,0 -0.785156,0 -0.785156,-0.45703125 z m 5.695312,4.78125 c 0,-1.2773437 -0.996094,-2.3320312 -2.191406,-2.3320312 -1.253906,0 -2.214844,1.0898437 -2.214844,2.3320312 0,1.2890625 1.03125,2.23828125 2.203125,2.23828125 1.207031,0 2.203125,-0.97265625 2.203125,-2.23828125 z M 26.706133,-0.1395 c -0.433594,0 -0.867188,-0.2109375 -1.136719,-0.66796875 -0.257812,-0.43359375 -0.257812,-1.04296875 -0.257812,-1.40624995 0,-0.3867188 0,-0.9257813 0.246093,-1.359375 0.269532,-0.4570313 0.738282,-0.6679688 1.136719,-0.6679688 0.433594,0 0.867188,0.2226563 1.125,0.6445313 0.257813,0.4335937 0.257813,1.0078125 0.257813,1.3828125 0,0.3632812 0,0.9023437 -0.222657,1.33593745 C 27.631914,-0.43246875 27.19832,-0.1395 26.706133,-0.1395 Z m 4.198242,-3.609375 v -0.65625 l -1.429687,0.1171875 V -3.98325 c 0.703125,0 0.773437,0.058594 0.773437,0.4921875 V 1.173 c 0,0.4570313 -0.105469,0.4570313 -0.773437,0.4570313 v 0.3046875 c 0.339843,-0.011719 0.855468,-0.035156 1.113281,-0.035156 0.269531,0 0.773437,0.023437 1.125,0.035156 V 1.6300313 c -0.667969,0 -0.773438,0 -0.773438,-0.4570313 v -1.7578125 c 0.04687,0.15234375 0.46875,0.69140625 1.21875,0.69140625 1.183594,0 2.226563,-0.97265625 2.226563,-2.26171875 0,-1.265625 -0.972656,-2.25 -2.085938,-2.25 -0.773437,0 -1.195312,0.4453125 -1.394531,0.65625 z m 0.03516,2.6132813 v -2.2148438 c 0.28125,-0.515625 0.773438,-0.796875 1.277344,-0.796875 0.726563,0 1.335938,0.8671875 1.335938,1.9921875 0,1.20703125 -0.691407,2.05078125 -1.429688,2.05078125 -0.398437,0 -0.773437,-0.19921875 -1.042969,-0.609375 -0.140625,-0.2109375 -0.140625,-0.22265625 -0.140625,-0.42187495 z m 5.179688,-1.3710938 c 0.05859,-1.4882812 0.902344,-1.734375 1.242187,-1.734375 1.019532,0 1.125,1.3476563 1.125,1.734375 z M 36.1075,-2.29575 h 2.789063 c 0.210937,0 0.246093,0 0.246093,-0.2109375 0,-0.984375 -0.539062,-1.9570312 -1.78125,-1.9570312 -1.160156,0 -2.074218,1.03125 -2.074218,2.2734375 0,1.33593745 1.042968,2.29687495 2.191406,2.29687495 1.21875,0 1.664062,-1.1015625 1.664062,-1.28906245 0,-0.1054688 -0.08203,-0.1171875 -0.128906,-0.1171875 -0.09375,0 -0.117187,0.058594 -0.128906,0.140625 C 38.533281,-0.1395 37.630938,-0.1395 37.537188,-0.1395 c -0.503907,0 -0.902344,-0.29296875 -1.125,-0.66796875 C 36.1075,-1.2879375 36.1075,-1.9441875 36.1075,-2.29575 Z m 6.996094,-4.5117187 v 0.3164062 h 0.234375 c 0.773437,0 0.785156,0.1054688 0.785156,0.46875 v 5.25 c 0,0.3515625 -0.01172,0.46875 -0.785156,0.46875 H 43.103594 V 0.001125 h 3.644531 c 1.675781,0 3.046875,-1.4765625 3.046875,-3.3515625 0,-1.8867187 -1.347656,-3.4570312 -3.046875,-3.4570312 z m 2.367187,6.5039062 c -0.46875,0 -0.492187,-0.0703125 -0.492187,-0.3984375 v -5.390625 c 0,-0.328125 0.02344,-0.3984375 0.492187,-0.3984375 h 0.996094 c 0.621094,0 1.300781,0.2109375 1.816406,0.9257813 0.421875,0.5859375 0.515625,1.4414062 0.515625,2.2148437 0,1.1132813 -0.1875,1.7109375 -0.550781,2.1914063 -0.199219,0.2695312 -0.761719,0.8554687 -1.769531,0.8554687 z m 6.00586,-2.203125 c 0.05859,-1.4882812 0.902343,-1.734375 1.242187,-1.734375 1.019531,0 1.125,1.3476563 1.125,1.734375 z m -0.01172,0.2109375 h 2.789062 c 0.210938,0 0.246094,0 0.246094,-0.2109375 0,-0.984375 -0.539062,-1.9570312 -1.78125,-1.9570312 -1.160156,0 -2.074219,1.03125 -2.074219,2.2734375 0,1.33593745 1.042969,2.29687495 2.191407,2.29687495 1.21875,0 1.664062,-1.1015625 1.664062,-1.28906245 0,-0.1054688 -0.08203,-0.1171875 -0.128906,-0.1171875 -0.09375,0 -0.117188,0.058594 -0.128906,0.140625 C 53.890703,-0.1395 52.988359,-0.1395 52.894609,-0.1395 c -0.503906,0 -0.902343,-0.29296875 -1.125,-0.66796875 C 51.464922,-1.2879375 51.464922,-1.9441875 51.464921,-2.29575 Z m 5.047851,-1.6875 H 57.94246 V -4.2879375 H 56.512773 V -6.1277812 H 56.26668 c -0.01172,0.8203125 -0.316407,1.8867187 -1.289063,1.921875 V -3.98325 h 0.84375 v 2.7539063 c 0,1.21874995 0.925781,1.33593745 1.289063,1.33593745 0.703125,0 0.984375,-0.703125 0.984375,-1.33593745 v -0.5742188 h -0.246094 v 0.5507813 c 0,0.7382812 -0.304688,1.1132812 -0.667969,1.1132812 -0.667969,0 -0.667969,-0.9023437 -0.667969,-1.078125 z m 3.263672,1.4765625 c 0.05859,-1.4882812 0.902344,-1.734375 1.242188,-1.734375 1.019531,0 1.125,1.3476563 1.125,1.734375 z m -0.01172,0.2109375 h 2.789062 c 0.210938,0 0.246094,0 0.246094,-0.2109375 0,-0.984375 -0.539063,-1.9570312 -1.78125,-1.9570312 -1.160156,0 -2.074219,1.03125 -2.074219,2.2734375 0,1.33593745 1.042969,2.29687495 2.191406,2.29687495 1.21875,0 1.664063,-1.1015625 1.664063,-1.28906245 0,-0.1054688 -0.08203,-0.1171875 -0.128906,-0.1171875 -0.09375,0 -0.117188,0.058594 -0.128907,0.140625 C 62.190508,-0.1395 61.288164,-0.1395 61.194414,-0.1395 c -0.503906,0 -0.902344,-0.29296875 -1.125,-0.66796875 C 59.764727,-1.2879375 59.764727,-1.9441875 59.764727,-2.29575 Z m 4.49707,0.1289063 c 0,-1.6289063 0.820312,-2.0507813 1.347656,-2.0507813 0.09375,0 0.714844,0.011719 1.066406,0.375 -0.410156,0.023437 -0.46875,0.328125 -0.46875,0.4570313 0,0.2578125 0.1875,0.4570312 0.457032,0.4570312 0.257812,0 0.457031,-0.1640625 0.457031,-0.46875 0,-0.6796875 -0.75,-1.0664062 -1.523438,-1.0664062 -1.242187,0 -2.15625,1.078125 -2.15625,2.3085937 0,1.27734375 0.984375,2.26171875 2.144532,2.26171875 1.335937,0 1.652343,-1.19531245 1.652343,-1.28906245 0,-0.1054688 -0.105468,-0.1054688 -0.128906,-0.1054688 -0.09375,0 -0.117187,0.046875 -0.128906,0.1054688 -0.292969,0.9257812 -0.9375,1.0429687 -1.3125,1.0429687 -0.527344,0 -1.40625,-0.421875 -1.40625,-2.0273437 z M 69.251055,-3.98325 h 1.429687 v -0.3046875 h -1.429687 v -1.8398437 h -0.246094 c -0.01172,0.8203125 -0.316406,1.8867187 -1.289063,1.921875 V -3.98325 h 0.84375 v 2.7539063 c 0,1.21874995 0.925782,1.33593745 1.289063,1.33593745 0.703125,0 0.984375,-0.703125 0.984375,-1.33593745 v -0.5742188 h -0.246094 v 0.5507813 c 0,0.7382812 -0.304687,1.1132812 -0.667969,1.1132812 -0.667968,0 -0.667968,-0.9023437 -0.667968,-1.078125 z m 6.84082,1.8515625 c 0,-1.2773437 -0.996094,-2.3320312 -2.191406,-2.3320312 -1.253906,0 -2.214844,1.0898437 -2.214844,2.3320312 0,1.2890625 1.03125,2.23828125 2.203125,2.23828125 1.207031,0 2.203125,-0.97265625 2.203125,-2.23828125 z M 73.900469,-0.1395 c -0.433594,0 -0.867188,-0.2109375 -1.136719,-0.66796875 -0.257812,-0.43359375 -0.257812,-1.04296875 -0.257812,-1.40624995 0,-0.3867188 0,-0.9257813 0.246093,-1.359375 0.269532,-0.4570313 0.738282,-0.6679688 1.136719,-0.6679688 0.433594,0 0.867188,0.2226563 1.125,0.6445313 0.257813,0.4335937 0.257813,1.0078125 0.257813,1.3828125 0,0.3632812 0,0.9023437 -0.222657,1.33593745 C 74.82625,-0.43246875 74.392656,-0.1395 73.900469,-0.1395 Z m 4.148437,-3.1640625 V -4.405125 l -1.382812,0.1171875 V -3.98325 c 0.691406,0 0.773437,0.070312 0.773437,0.5625 v 2.66015625 c 0,0.45703125 -0.105468,0.45703125 -0.773437,0.45703125 V 0.001125 c 0.386719,-0.01171875 0.855469,-0.03515625 1.136719,-0.03515625 0.398437,0 0.867187,0 1.265625,0.03515625 V -0.3035625 H 78.8575 c -0.738281,0 -0.761719,-0.1171875 -0.761719,-0.46875 v -1.5351562 c 0,-0.984375 0.421875,-1.875 1.183594,-1.875 0.05859,0 0.08203,0 0.105469,0.011719 -0.03516,0.011719 -0.234375,0.1289063 -0.234375,0.3867188 0,0.28125 0.210937,0.4335937 0.433594,0.4335937 0.175781,0 0.421875,-0.1289062 0.421875,-0.4453125 0,-0.3164062 -0.304688,-0.609375 -0.726563,-0.609375 -0.738281,0 -1.089844,0.6679688 -1.230469,1.1015622 z m 0,0"
       style="fill:#000000;fill-opacity:1;fill-rule:nonzero;stroke:none"
       aria-label="EnvelopeDetector"
       transform="matrix(1.3333333,0,0,1.3333333,249.10667,26.936)" />
    <path
       id="path10"
       d="m 56.69362,0 v 28.3468 h 56.69362 V 0 Z"
       style="fill:none;stroke:#000000;stroke-width:0.3985;stroke-linecap:butt;stroke-linejoin:miter;stroke-miterlimit:10;stroke-dasharray:none;stroke-opacity:1"
       transform="matrix(1.3333333,0,0,-1.3333333,0.26533333,42.513333)" />
    <path
       id="path11"
       d="m 3.9844141,-4.6297813 c 0,-0.011719 0.023438,-0.1054687 0.023438,-0.1171875 0,-0.035156 -0.023438,-0.09375 -0.1054688,-0.09375 -0.140625,0 -0.7265625,0.058594 -0.9023437,0.070312 -0.046875,0.011719 -0.1523438,0.011719 -0.1523438,0.1640625 0,0.09375 0.1054688,0.09375 0.1875,0.09375 0.328125,0 0.328125,0.046875 0.328125,0.1054688 0,0.046875 -0.011719,0.09375 -0.023437,0.1523437 l -0.3984375,1.59375 C 2.8008213,-2.8954068 2.5547276,-3.071188 2.2266026,-3.071188 c -0.890625,0 -1.80468754,0.9726562 -1.80468754,1.9804687 0,0.67968755 0.45703125,1.1601563 1.05468754,1.1601563 0.375,0 0.7148437,-0.2109375 0.9960937,-0.4921875 0.1289063,0.421875 0.5273438,0.4921875 0.7148438,0.4921875 0.2460937,0 0.421875,-0.15234375 0.5507812,-0.375 0.1523438,-0.26953125 0.2460938,-0.66796875 0.2460938,-0.69140625 0,-0.09375 -0.09375,-0.09375 -0.1171875,-0.09375 -0.09375,0 -0.1054688,0.035156 -0.1523438,0.22265625 -0.082031,0.328125 -0.2109375,0.73828125 -0.5039062,0.73828125 -0.1875,0 -0.234375,-0.15234375 -0.234375,-0.33984375 0,-0.12890625 0.011719,-0.19921875 0.035156,-0.28125 z m -1.4882813,3.7617188 c -0.046875,0.1875 -0.1992187,0.328125 -0.3515625,0.45703125 -0.070312,0.0585938 -0.3398437,0.28125 -0.6445312,0.28125 -0.2578125,0 -0.51562504,-0.17578125 -0.51562504,-0.66796875 0,-0.375 0.21093754,-1.1367188 0.36328124,-1.4179688 0.328125,-0.5625 0.6796875,-0.6679687 0.8789063,-0.6679687 0.4804687,0 0.6210937,0.5273437 0.6210937,0.609375 0,0.023437 -0.011719,0.082031 -0.023437,0.09375 z m 0,0"
       style="fill:#000000;fill-opacity:1;fill-rule:nonzero;stroke:none"
       aria-label="d"
       transform="matrix(1.3333333,0,0,1.3333333,110.88667,21.938667)" />
    <path
       id="path12"
       d="M 0,0 H 7.157"
       style="fill:none;stroke:#000000;stroke-width:0.398;stroke-linecap:butt;stroke-linejoin:miter;stroke-miterlimit:10;stroke-dasharray:none;stroke-opacity:1"
       transform="matrix(1.3333333,0,0,-1.3333333,108.88,23.848)" />
    <path
       id="path13"
       d="m 3.9835547,-4.6284062 c 0,-0.011719 0.023437,-0.1054688 0.023437,-0.1171875 0,-0.035156 -0.023437,-0.09375 -0.1054688,-0.09375 -0.140625,0 -0.7265625,0.058594 -0.9023437,0.070312 -0.046875,0.011719 -0.1523438,0.011719 -0.1523438,0.1640625 0,0.09375 0.1054688,0.09375 0.1875,0.09375 0.328125,0 0.328125,0.046875 0.328125,0.1054687 0,0.046875 -0.011719,0.09375 -0.023437,0.1523438 l -0.3984375,1.59375 C 2.7999609,-2.8940317 2.5538672,-3.069813 2.2257422,-3.069813 c -0.890625,0 -1.80468751,0.9726563 -1.80468751,1.9804688 0,0.67968745 0.45703125,1.1601562 1.05468751,1.1601562 0.375,0 0.7148437,-0.2109375 0.9960937,-0.4921875 0.1289063,0.421875 0.5273438,0.4921875 0.7148438,0.4921875 0.2460937,0 0.421875,-0.15234375 0.5507812,-0.375 0.1523438,-0.26953125 0.2460938,-0.66796875 0.2460938,-0.69140625 0,-0.0937498 -0.09375,-0.0937498 -0.1171875,-0.0937498 -0.09375,0 -0.1054688,0.035156 -0.1523438,0.22265615 -0.082031,0.328125 -0.2109375,0.73828125 -0.5039062,0.73828125 -0.1875,0 -0.234375,-0.15234375 -0.234375,-0.33984375 0,-0.12890625 0.011719,-0.19921875 0.035156,-0.28125 z m -1.4882813,3.7617187 c -0.046875,0.1875 -0.1992187,0.328125 -0.3515625,0.45703125 -0.070312,0.0585938 -0.3398437,0.28125 -0.6445312,0.28125 -0.2578125,0 -0.51562501,-0.17578125 -0.51562501,-0.66796875 0,-0.375 0.21093751,-1.1367187 0.36328121,-1.4179687 0.328125,-0.5625 0.6796875,-0.6679688 0.8789063,-0.6679688 0.4804687,0 0.6210937,0.5273438 0.6210937,0.609375 0,0.023437 -0.011719,0.082031 -0.023437,0.09375 z m 3.3632813,-1.8867187 h 0.7148437 c 0.1289063,0 0.2226563,0 0.2226563,-0.1523438 0,-0.09375 -0.09375,-0.09375 -0.2109375,-0.09375 h -0.65625 l 0.2578125,-1.0429687 c 0,-0.023437 0.023437,-0.058594 0.023437,-0.09375 0,-0.1289063 -0.1054688,-0.2226563 -0.2460938,-0.2226563 -0.1757812,0 -0.28125,0.1171875 -0.328125,0.3046875 C 5.5890234,-3.8784062 5.6827734,-4.21825 5.3780859,-2.9995 H 4.6632422 c -0.1289063,0 -0.2226563,0 -0.2226563,0.1523438 0,0.09375 0.082031,0.09375 0.2109375,0.09375 h 0.65625 l -0.4101562,1.640625 C 4.8624609,-0.937 4.7921484,-0.6791875 4.7921484,-0.59715625 c 0,0.421875 0.3515625,0.66796875 0.75,0.66796875 0.7734375,0 1.21875,-0.97265625 1.21875,-1.06640625 0,-0.0937499 -0.09375,-0.0937499 -0.1171875,-0.0937499 -0.082031,0 -0.09375,0.011719 -0.140625,0.12890615 -0.1992187,0.4453125 -0.5507812,0.83203125 -0.9375,0.83203125 -0.1523437,0 -0.2460937,-0.0820313 -0.2460937,-0.33984375 0,-0.0703125 0.023437,-0.2109375 0.046875,-0.28125 z m 0,0"
       style="fill:#000000;fill-opacity:1;fill-rule:nonzero;stroke:none"
       aria-label="dt"
       transform="matrix(1.3333333,0,0,1.3333333,108.88,31.749333)" />
    <path
       id="path14"
       d="m 113.38724,14.17339 h 56.23533"
       style="fill:none;stroke:#000000;stroke-width:0.3985;stroke-linecap:butt;stroke-linejoin:miter;stroke-miterlimit:10;stroke-dasharray:none;stroke-opacity:1"
       transform="matrix(1.3333333,0,0,-1.3333333,0.26533333,42.513333)" />
    <path
       id="path15"
       d="M -1.19551,1.59401 C -1.09587,0.99626 0,0.09961 0.29886,0 0,-0.09961 -1.09587,-0.99626 -1.19551,-1.59401"
       style="fill:none;stroke:#000000;stroke-width:0.31879;stroke-linecap:round;stroke-linejoin:round;stroke-miterlimit:10;stroke-dasharray:none;stroke-opacity:1"
       transform="matrix(1.3333333,0,0,-1.3333333,226.42876,23.61548)" />
    <g
       id="g15"
       aria-label="˙&#10;ϕ&#10;FM&#10;(t)"
       transform="matrix(1.3333333,0,0,1.3333333,170.96133,13.298667)">
      <path
         id="path16"
         d="m 1.9098594,-6.1419687 c 0,-0.2695313 -0.2226563,-0.5273438 -0.5273438,-0.5273438 -0.3398437,0 -0.53906248,0.28125 -0.53906248,0.5273438 0,0.2695312 0.23437498,0.5273437 0.52734378,0.5273437 0.3398437,0 0.5390625,-0.2695312 0.5390625,-0.5273437 z m 0,0"
         style="fill:#000000;fill-opacity:1;fill-rule:nonzero;stroke:none" />
      <path
         id="path17"
         d="m 1.9332969,-4.0501719 c 0,-0.011719 0.035156,-0.1289062 0.035156,-0.1289062 0,-0.011719 0,-0.1054688 -0.1171875,-0.1054688 -0.1054687,0 -0.1171875,0.035156 -0.1523437,0.1992188 l -0.5742188,2.296875 c -1.58203123,0.058594 -3.046875,1.38281248 -3.046875,2.73046873 0,0.94921877 0.6914063,1.73437497 1.91015627,1.80468747 -0.08203125,0.3164063 -0.15234375,0.6328125 -0.234375,0.9375 -0.1171875,0.46875 -0.2109375,0.84375 -0.2109375,0.8789063 0,0.09375 0.0703125,0.1054687 0.1171875,0.1054687 0.046875,0 0.0703125,-0.011719 0.09375,-0.035156 0.0234375,-0.023437 0.0820313,-0.2578125 0.1171875,-0.3984375 l 0.375,-1.4882813 C 1.8512656,2.6998281 3.2926719,1.3521719 3.2926719,0.01623438 c 0,-0.78515625 -0.5273438,-1.69921878 -1.9101563,-1.80468748 z M 0.03485937,2.5240469 c -0.59765625,-0.023437 -1.31249997,-0.375 -1.31249997,-1.3710938 0,-1.19531247 0.85546872,-2.5898437 2.34375,-2.71875 z M 1.3239219,-1.5657969 c 0.75,0.046875 1.3242187,0.5039063 1.3242187,1.37109378 0,1.18359375 -0.8554687,2.60156252 -2.35546873,2.71875002 z m 0,0"
         style="fill:#000000;fill-opacity:1;fill-rule:nonzero;stroke:none" />
      <path
         id="path18"
         d="m 5.9000937,1.8736563 h 0.75 c 0.5273438,0 0.6210938,0.09375 0.6210938,0.3164062 0,0.1054688 0,0.1171875 -0.046875,0.3164063 -0.011719,0.046875 -0.023437,0.058594 -0.023437,0.082031 0,0.070312 0.046875,0.1054688 0.1171875,0.1054688 0.09375,0 0.1054687,-0.035156 0.140625,-0.1640625 l 0.375,-1.4765625 c 0,-0.023437 0.023437,-0.1289063 0.023437,-0.14062505 0,-0.0703125 -0.046875,-0.10546875 -0.1171875,-0.10546875 -0.09375,0 -0.1054688,0.046875 -0.140625,0.17578125 C 7.4586875,1.5220938 7.2594687,1.6275625 6.6618125,1.6275625 H 5.9704062 L 6.404,-0.11853125 C 6.4625937,-0.3411875 6.4743125,-0.364625 6.7672812,-0.364625 h 1.0664063 c 0.9257812,0 1.1015625,0.22265625 1.1015625,0.80859375 0,0.22265625 -0.035156,0.375 -0.035156,0.43359375 0,0.046875 0.023437,0.1171875 0.1171875,0.1171875 0.1054688,0 0.1171875,-0.0703125 0.1289063,-0.1875 L 9.275094,-0.39978125 c 0.023437,-0.2109375 -0.035156,-0.2109375 -0.1992187,-0.2109375 H 5.3493125 c -0.1289063,0 -0.2226563,0 -0.2226563,0.15234375 0,0.09375 0.082031,0.09375 0.2226563,0.09375 0,0 0.140625,0 0.2695312,0.0234375 0.140625,0.0117188 0.1523438,0.0234375 0.1523438,0.09375 0,0.046875 -0.023437,0.1171875 -0.023437,0.15234375 L 4.8336875,3.5494375 c -0.070312,0.2695313 -0.082031,0.328125 -0.6210938,0.328125 -0.1171875,0 -0.2109375,0 -0.2109375,0.140625 0,0.070312 0.046875,0.1054688 0.1171875,0.1054688 0.1992188,0 0.7148438,-0.023437 0.9140625,-0.023437 h 0.5390625 c 0.1757813,0 0.375,0.023437 0.5507813,0.023437 0.046875,0 0.1523437,0 0.1523437,-0.1523438 0,-0.09375 -0.082031,-0.09375 -0.2460937,-0.09375 -0.011719,0 -0.1875,0 -0.3632813,-0.023437 -0.140625,-0.011719 -0.2109375,-0.011719 -0.2109375,-0.1171875 0,-0.023437 0,-0.046875 0.023437,-0.1171875 z M 16.760445,-0.07165625 c 0.07031,-0.2578125 0.08203,-0.31640625 0.597657,-0.31640625 0.152343,0 0.234375,0 0.234375,-0.140625 0,-0.10546875 -0.08203,-0.10546875 -0.210938,-0.10546875 h -0.9375 c -0.210937,0 -0.210937,0 -0.304687,0.140625 L 13.444039,3.479125 12.752633,-0.44665625 c -0.03516,-0.1875 -0.03516,-0.1875 -0.234375,-0.1875 h -1.007813 c -0.128906,0 -0.222656,0 -0.222656,0.15234375 0,0.09375 0.08203,0.09375 0.234375,0.09375 0.117188,0 0.140625,0 0.269531,0.0117188 0.140625,0.0117188 0.152344,0.0351563 0.152344,0.10546875 0,0 0,0.046875 -0.03516,0.15234375 l -0.878902,3.4921875 c -0.05859,0.2460937 -0.164063,0.4804687 -0.714844,0.5039062 -0.05859,0 -0.152344,0 -0.152344,0.1523438 0,0 0.01172,0.09375 0.105469,0.09375 0.210937,0 0.503906,-0.023437 0.726562,-0.023437 0.164063,0 0.574219,0.023437 0.738282,0.023437 0.03516,0 0.140625,0 0.140625,-0.1523438 0,-0.09375 -0.09375,-0.09375 -0.152344,-0.09375 C 11.27607,3.854125 11.27607,3.6783438 11.27607,3.5845938 c 0,-0.035156 0,-0.070312 0.02344,-0.1757813 l 0.925781,-3.71484375 h 0.01172 l 0.738281,4.24218755 c 0.02344,0.1289062 0.03516,0.1875 0.140625,0.1875 0.105469,0 0.152344,-0.082031 0.210938,-0.1523438 l 2.917968,-4.34765625 0.01172,0.0117188 -0.984375,3.94921875 c -0.05859,0.234375 -0.07031,0.2929687 -0.609375,0.2929687 -0.128906,0 -0.210937,0 -0.210937,0.1523438 0,0 0,0.09375 0.105468,0.09375 0.140625,0 0.292969,-0.023437 0.433594,-0.023437 0.140625,0 0.304688,0 0.445313,0 0.199218,0 0.691406,0.023437 0.878906,0.023437 0.04687,0 0.152344,0 0.152344,-0.1523438 0,-0.09375 -0.08203,-0.09375 -0.222657,-0.09375 -0.01172,0 -0.140625,0 -0.269531,-0.023437 -0.152344,-0.011719 -0.152344,-0.035156 -0.152344,-0.1054687 0,-0.035156 0.01172,-0.1054688 0.02344,-0.1523438 z m 0,0"
         style="fill:#000000;fill-opacity:1;fill-rule:nonzero;stroke:none" />
      <path
         id="path19"
         d="m 21.78193,5.0201406 c 0,-0.035156 0,-0.046875 -0.164063,-0.2226562 -1.242187,-1.2539063 -1.570312,-3.1289063 -1.570312,-4.66406252 0,-1.72265628 0.386718,-3.45703128 1.605468,-4.71093748 0.128907,-0.1171875 0.128907,-0.1289063 0.128907,-0.1640625 0,-0.070312 -0.03516,-0.1054688 -0.09375,-0.1054688 -0.105469,0 -0.996094,0.6796875 -1.582032,1.9453125 -0.515625,1.1015625 -0.632812,2.20312503 -0.632812,3.03515628 0,0.78515625 0.117187,1.99218752 0.65625,3.11718752 0.597656,1.21875 1.453125,1.875 1.558594,1.875 0.05859,0 0.09375,-0.035156 0.09375,-0.1054688 z m 0,0"
         style="fill:#000000;fill-opacity:1;fill-rule:nonzero;stroke:none" />
      <path
         id="path20"
         d="m 24.415719,-1.3548594 h 0.9375 c 0.199218,0 0.304687,0 0.304687,-0.1992187 0,-0.1054688 -0.105469,-0.1054688 -0.28125,-0.1054688 H 24.49775 c 0.363281,-1.4179687 0.410156,-1.6171875 0.410156,-1.6757812 0,-0.1757813 -0.117187,-0.2695313 -0.292969,-0.2695313 -0.02344,0 -0.304687,0.011719 -0.398437,0.3515625 l -0.386719,1.59375 h -0.9375 c -0.199219,0 -0.292969,0 -0.292969,0.1875 0,0.1171875 0.07031,0.1171875 0.269532,0.1171875 h 0.878906 c -0.714844,2.8242188 -0.75,3 -0.75,3.1757813 0,0.5390625 0.375,0.9140625 0.914062,0.9140625 1.007813,0 1.582032,-1.453125 1.582032,-1.5351563 0,-0.09375 -0.08203,-0.09375 -0.117188,-0.09375 -0.09375,0 -0.105469,0.023437 -0.152344,0.140625 -0.433593,1.03125 -0.960937,1.2773438 -1.300781,1.2773438 -0.199219,0 -0.304687,-0.1289063 -0.304687,-0.4570313 0,-0.2460937 0.02344,-0.3164062 0.05859,-0.4804687 z m 0,0"
         style="fill:#000000;fill-opacity:1;fill-rule:nonzero;stroke:none" />
      <path
         id="path21"
         d="m 28.842477,0.13342188 c 0,-0.7734375 -0.117188,-1.98046878 -0.65625,-3.10546878 -0.597657,-1.21875 -1.464844,-1.875 -1.558594,-1.875 -0.05859,0 -0.105469,0.046875 -0.105469,0.1054688 0,0.035156 0,0.046875 0.199219,0.234375 0.972656,0.984375 1.535156,2.5664062 1.535156,4.64062498 0,1.71093752 -0.363281,3.45703122 -1.59375,4.72265622 -0.140625,0.1171875 -0.140625,0.1289063 -0.140625,0.1640625 0,0.058594 0.04687,0.1054688 0.105469,0.1054688 0.09375,0 0.996094,-0.6796875 1.582031,-1.9453125 0.503906,-1.1015625 0.632813,-2.20312502 0.632813,-3.04687502 z m 0,0"
         style="fill:#000000;fill-opacity:1;fill-rule:nonzero;stroke:none" />
    </g>
    <path
       id="path22"
       d="M 170.08086,0 V 28.3468 H 283.4681 V 0 Z"
       style="fill:none;stroke:#000000;stroke-width:0.3985;stroke-linecap:butt;stroke-linejoin:miter;stroke-miterlimit:10;stroke-dasharray:none;stroke-opacity:1"
       transform="matrix(1.3333333,0,0,-1.3333333,0.26533333,42.513333)" />
    <path
       id="path23"
       d="m 1.3584766,-0.7723125 c 0,0.3515625 -0.023437,0.46875 -0.79687504,0.46875 h -0.234375 V 0.001125 H 6.0811328 L 6.4912891,-2.5652812 H 6.2451953 C 5.9991016,-1.030125 5.7647266,-0.3035625 4.0537891,-0.3035625 H 2.7295703 c -0.46875,0 -0.4921875,-0.0703125 -0.4921875,-0.3984375 v -2.6601562 h 0.9023438 c 0.9609375,0 1.078125,0.3164062 1.078125,1.1601562 H 4.4639453 V -4.8387187 H 4.2178516 c 0,0.8554687 -0.1171875,1.1601562 -1.078125,1.1601562 H 2.2373828 v -2.390625 c 0,-0.328125 0.023437,-0.3984375 0.4921875,-0.3984375 h 1.2890625 c 1.5234375,0 1.7929688,0.5507813 1.9453125,1.9335938 H 6.2100391 L 5.9405078,-6.7723125 H 0.32722656 v 0.3046875 h 0.234375 c 0.77343754,0 0.79687504,0.1171875 0.79687504,0.46875 z M 7.8828906,-3.42075 v 2.66015625 c 0,0.45703125 -0.1171875,0.45703125 -0.7851562,0.45703125 V 0.001125 c 0.3515625,-0.01171875 0.8554687,-0.03515625 1.125,-0.03515625 0.2578125,0 0.7851562,0.0234375 1.1132812,0.03515625 v -0.3046875 c -0.65625,0 -0.7734375,0 -0.7734375,-0.45703125 V -2.5887187 c 0,-1.03125 0.7148438,-1.59375 1.3476563,-1.59375 0.6210936,0 0.7382816,0.5390625 0.7382816,1.1015625 v 2.32031245 c 0,0.45703125 -0.117188,0.45703125 -0.7734379,0.45703125 V 0.001125 c 0.3398439,-0.01171875 0.8554689,-0.03515625 1.1249999,-0.03515625 0.257813,0 0.773438,0.0234375 1.113281,0.03515625 v -0.3046875 c -0.515625,0 -0.773437,0 -0.785156,-0.3046875 v -1.8984375 c 0,-0.8554687 0,-1.171875 -0.304687,-1.5234375 -0.140625,-0.1757812 -0.46875,-0.375 -1.0429691,-0.375 -0.7265625,0 -1.1953125,0.4335938 -1.4765625,1.0546875 V -4.405125 l -1.40625,0.1171875 V -3.98325 c 0.703125,0 0.7851562,0.070312 0.7851562,0.5625 z m 8.3027344,0.1054688 c 0.08203,-0.234375 0.257813,-0.65625 0.914063,-0.6679688 v -0.3046875 c -0.234375,0.011719 -0.515625,0.023437 -0.75,0.023437 -0.234375,0 -0.691407,-0.023437 -0.867188,-0.023437 V -3.98325 c 0.375,0.011719 0.480469,0.234375 0.480469,0.4335938 0,0.082031 -0.02344,0.1289062 -0.05859,0.234375 l -1.019531,2.5429687 -1.113281,-2.7773437 c -0.05859,-0.140625 -0.05859,-0.1523438 -0.05859,-0.1757813 0,-0.2578125 0.386719,-0.2578125 0.5625,-0.2578125 v -0.3046875 c -0.292969,0 -0.855469,0.023437 -1.078125,0.023437 -0.269531,0 -0.667969,-0.011719 -0.972656,-0.023437 V -3.98325 c 0.632812,0 0.667968,0.058594 0.796875,0.3632813 l 1.441406,3.53906245 c 0.05859,0.140625 0.07031,0.1875 0.199219,0.1875 0.128906,0 0.175781,-0.08203125 0.210937,-0.1875 z m 1.942383,0.8085937 c 0.05859,-1.4882812 0.902344,-1.734375 1.242187,-1.734375 1.019532,0 1.125,1.3476563 1.125,1.734375 z m -0.01172,0.2109375 h 2.789063 c 0.210937,0 0.246093,0 0.246093,-0.2109375 0,-0.984375 -0.539062,-1.9570312 -1.78125,-1.9570312 -1.160156,0 -2.074218,1.03125 -2.074218,2.2734375 0,1.33593745 1.042968,2.29687495 2.191406,2.29687495 1.21875,0 1.664062,-1.1015625 1.664062,-1.28906245 0,-0.1054688 -0.08203,-0.1171875 -0.128906,-0.1171875 -0.09375,0 -0.117187,0.058594 -0.128906,0.140625 C 20.54207,-0.1395 19.639727,-0.1395 19.545977,-0.1395 c -0.503907,0 -0.902344,-0.29296875 -1.125,-0.66796875 C 18.116289,-1.2879375 18.116289,-1.9441875 18.116288,-2.29575 Z m 5.085938,-4.6171875 -1.429688,0.1054688 v 0.3164062 c 0.703125,0 0.773438,0.070312 0.773438,0.5507813 v 5.17968745 c 0,0.45703125 -0.105469,0.45703125 -0.773438,0.45703125 V 0.001125 c 0.328125,-0.01171875 0.855469,-0.03515625 1.101563,-0.03515625 0.257812,0 0.738281,0.0234375 1.113281,0.03515625 v -0.3046875 c -0.667969,0 -0.785156,0 -0.785156,-0.45703125 z m 5.695312,4.78125 c 0,-1.2773437 -0.996094,-2.3320312 -2.191406,-2.3320312 -1.253906,0 -2.214844,1.0898437 -2.214844,2.3320312 0,1.2890625 1.03125,2.23828125 2.203125,2.23828125 1.207031,0 2.203125,-0.97265625 2.203125,-2.23828125 z M 26.706133,-0.1395 c -0.433594,0 -0.867188,-0.2109375 -1.136719,-0.66796875 -0.257812,-0.43359375 -0.257812,-1.04296875 -0.257812,-1.40624995 0,-0.3867188 0,-0.9257813 0.246093,-1.359375 0.269532,-0.4570313 0.738282,-0.6679688 1.136719,-0.6679688 0.433594,0 0.867188,0.2226563 1.125,0.6445313 0.257813,0.4335937 0.257813,1.0078125 0.257813,1.3828125 0,0.3632812 0,0.9023437 -0.222657,1.33593745 C 27.631914,-0.43246875 27.19832,-0.1395 26.706133,-0.1395 Z m 4.198242,-3.609375 v -0.65625 l -1.429687,0.1171875 V -3.98325 c 0.703125,0 0.773437,0.058594 0.773437,0.4921875 V 1.173 c 0,0.4570313 -0.105469,0.4570313 -0.773437,0.4570313 v 0.3046875 c 0.339843,-0.011719 0.855468,-0.035156 1.113281,-0.035156 0.269531,0 0.773437,0.023437 1.125,0.035156 V 1.6300313 c -0.667969,0 -0.773438,0 -0.773438,-0.4570313 v -1.7578125 c 0.04687,0.15234375 0.46875,0.69140625 1.21875,0.69140625 1.183594,0 2.226563,-0.97265625 2.226563,-2.26171875 0,-1.265625 -0.972656,-2.25 -2.085938,-2.25 -0.773437,0 -1.195312,0.4453125 -1.394531,0.65625 z m 0.03516,2.6132813 v -2.2148438 c 0.28125,-0.515625 0.773438,-0.796875 1.277344,-0.796875 0.726563,0 1.335938,0.8671875 1.335938,1.9921875 0,1.20703125 -0.691407,2.05078125 -1.429688,2.05078125 -0.398437,0 -0.773437,-0.19921875 -1.042969,-0.609375 -0.140625,-0.2109375 -0.140625,-0.22265625 -0.140625,-0.42187495 z m 5.179688,-1.3710938 c 0.05859,-1.4882812 0.902344,-1.734375 1.242187,-1.734375 1.019532,0 1.125,1.3476563 1.125,1.734375 z M 36.1075,-2.29575 h 2.789063 c 0.210937,0 0.246093,0 0.246093,-0.2109375 0,-0.984375 -0.539062,-1.9570312 -1.78125,-1.9570312 -1.160156,0 -2.074218,1.03125 -2.074218,2.2734375 0,1.33593745 1.042968,2.29687495 2.191406,2.29687495 1.21875,0 1.664062,-1.1015625 1.664062,-1.28906245 0,-0.1054688 -0.08203,-0.1171875 -0.128906,-0.1171875 -0.09375,0 -0.117187,0.058594 -0.128906,0.140625 C 38.533281,-0.1395 37.630938,-0.1395 37.537188,-0.1395 c -0.503907,0 -0.902344,-0.29296875 -1.125,-0.66796875 C 36.1075,-1.2879375 36.1075,-1.9441875 36.1075,-2.29575 Z m 6.996094,-4.5117187 v 0.3164062 h 0.234375 c 0.773437,0 0.785156,0.1054688 0.785156,0.46875 v 5.25 c 0,0.3515625 -0.01172,0.46875 -0.785156,0.46875 H 43.103594 V 0.001125 h 3.644531 c 1.675781,0 3.046875,-1.4765625 3.046875,-3.3515625 0,-1.8867187 -1.347656,-3.4570312 -3.046875,-3.4570312 z m 2.367187,6.5039062 c -0.46875,0 -0.492187,-0.0703125 -0.492187,-0.3984375 v -5.390625 c 0,-0.328125 0.02344,-0.3984375 0.492187,-0.3984375 h 0.996094 c 0.621094,0 1.300781,0.2109375 1.816406,0.9257813 0.421875,0.5859375 0.515625,1.4414062 0.515625,2.2148437 0,1.1132813 -0.1875,1.7109375 -0.550781,2.1914063 -0.199219,0.2695312 -0.761719,0.8554687 -1.769531,0.8554687 z m 6.00586,-2.203125 c 0.05859,-1.4882812 0.902343,-1.734375 1.242187,-1.734375 1.019531,0 1.125,1.3476563 1.125,1.734375 z m -0.01172,0.2109375 h 2.789062 c 0.210938,0 0.246094,0 0.246094,-0.2109375 0,-0.984375 -0.539062,-1.9570312 -1.78125,-1.9570312 -1.160156,0 -2.074219,1.03125 -2.074219,2.2734375 0,1.33593745 1.042969,2.29687495 2.191407,2.29687495 1.21875,0 1.664062,-1.1015625 1.664062,-1.28906245 0,-0.1054688 -0.08203,-0.1171875 -0.128906,-0.1171875 -0.09375,0 -0.117188,0.058594 -0.128906,0.140625 C 53.890703,-0.1395 52.988359,-0.1395 52.894609,-0.1395 c -0.503906,0 -0.902343,-0.29296875 -1.125,-0.66796875 C 51.464922,-1.2879375 51.464922,-1.9441875 51.464921,-2.29575 Z m 5.047851,-1.6875 H 57.94246 V -4.2879375 H 56.512773 V -6.1277812 H 56.26668 c -0.01172,0.8203125 -0.316407,1.8867187 -1.289063,1.921875 V -3.98325 h 0.84375 v 2.7539063 c 0,1.21874995 0.925781,1.33593745 1.289063,1.33593745 0.703125,0 0.984375,-0.703125 0.984375,-1.33593745 v -0.5742188 h -0.246094 v 0.5507813 c 0,0.7382812 -0.304688,1.1132812 -0.667969,1.1132812 -0.667969,0 -0.667969,-0.9023437 -0.667969,-1.078125 z m 3.263672,1.4765625 c 0.05859,-1.4882812 0.902344,-1.734375 1.242188,-1.734375 1.019531,0 1.125,1.3476563 1.125,1.734375 z m -0.01172,0.2109375 h 2.789062 c 0.210938,0 0.246094,0 0.246094,-0.2109375 0,-0.984375 -0.539063,-1.9570312 -1.78125,-1.9570312 -1.160156,0 -2.074219,1.03125 -2.074219,2.2734375 0,1.33593745 1.042969,2.29687495 2.191406,2.29687495 1.21875,0 1.664063,-1.1015625 1.664063,-1.28906245 0,-0.1054688 -0.08203,-0.1171875 -0.128906,-0.1171875 -0.09375,0 -0.117188,0.058594 -0.128907,0.140625 C 62.190508,-0.1395 61.288164,-0.1395 61.194414,-0.1395 c -0.503906,0 -0.902344,-0.29296875 -1.125,-0.66796875 C 59.764727,-1.2879375 59.764727,-1.9441875 59.764727,-2.29575 Z m 4.49707,0.1289063 c 0,-1.6289063 0.820312,-2.0507813 1.347656,-2.0507813 0.09375,0 0.714844,0.011719 1.066406,0.375 -0.410156,0.023437 -0.46875,0.328125 -0.46875,0.4570313 0,0.2578125 0.1875,0.4570312 0.457032,0.4570312 0.257812,0 0.457031,-0.1640625 0.457031,-0.46875 0,-0.6796875 -0.75,-1.0664062 -1.523438,-1.0664062 -1.242187,0 -2.15625,1.078125 -2.15625,2.3085937 0,1.27734375 0.984375,2.26171875 2.144532,2.26171875 1.335937,0 1.652343,-1.19531245 1.652343,-1.28906245 0,-0.1054688 -0.105468,-0.1054688 -0.128906,-0.1054688 -0.09375,0 -0.117187,0.046875 -0.128906,0.1054688 -0.292969,0.9257812 -0.9375,1.0429687 -1.3125,1.0429687 -0.527344,0 -1.40625,-0.421875 -1.40625,-2.0273437 z M 69.251055,-3.98325 h 1.429687 v -0.3046875 h -1.429687 v -1.8398437 h -0.246094 c -0.01172,0.8203125 -0.316406,1.8867187 -1.289063,1.921875 V -3.98325 h 0.84375 v 2.7539063 c 0,1.21874995 0.925782,1.33593745 1.289063,1.33593745 0.703125,0 0.984375,-0.703125 0.984375,-1.33593745 v -0.5742188 h -0.246094 v 0.5507813 c 0,0.7382812 -0.304687,1.1132812 -0.667969,1.1132812 -0.667968,0 -0.667968,-0.9023437 -0.667968,-1.078125 z m 6.84082,1.8515625 c 0,-1.2773437 -0.996094,-2.3320312 -2.191406,-2.3320312 -1.253906,0 -2.214844,1.0898437 -2.214844,2.3320312 0,1.2890625 1.03125,2.23828125 2.203125,2.23828125 1.207031,0 2.203125,-0.97265625 2.203125,-2.23828125 z M 73.900469,-0.1395 c -0.433594,0 -0.867188,-0.2109375 -1.136719,-0.66796875 -0.257812,-0.43359375 -0.257812,-1.04296875 -0.257812,-1.40624995 0,-0.3867188 0,-0.9257813 0.246093,-1.359375 0.269532,-0.4570313 0.738282,-0.6679688 1.136719,-0.6679688 0.433594,0 0.867188,0.2226563 1.125,0.6445313 0.257813,0.4335937 0.257813,1.0078125 0.257813,1.3828125 0,0.3632812 0,0.9023437 -0.222657,1.33593745 C 74.82625,-0.43246875 74.392656,-0.1395 73.900469,-0.1395 Z m 4.148437,-3.1640625 V -4.405125 l -1.382812,0.1171875 V -3.98325 c 0.691406,0 0.773437,0.070312 0.773437,0.5625 v 2.66015625 c 0,0.45703125 -0.105468,0.45703125 -0.773437,0.45703125 V 0.001125 c 0.386719,-0.01171875 0.855469,-0.03515625 1.136719,-0.03515625 0.398437,0 0.867187,0 1.265625,0.03515625 V -0.3035625 H 78.8575 c -0.738281,0 -0.761719,-0.1171875 -0.761719,-0.46875 v -1.5351562 c 0,-0.984375 0.421875,-1.875 1.183594,-1.875 0.05859,0 0.08203,0 0.105469,0.011719 -0.03516,0.011719 -0.234375,0.1289063 -0.234375,0.3867188 0,0.28125 0.210937,0.4335937 0.433594,0.4335937 0.175781,0 0.421875,-0.1289062 0.421875,-0.4453125 0,-0.3164062 -0.304688,-0.609375 -0.726563,-0.609375 -0.738281,0 -1.089844,0.6679688 -1.230469,1.1015622 z m 0,0"
       style="fill:#000000;fill-opacity:1;fill-rule:nonzero;stroke:none"
       aria-label="EnvelopeDetector"
       transform="matrix(1.3333333,0,0,1.3333333,249.10667,26.936)" />
    <path
       id="path24"
       d="m 283.4681,14.17339 h 56.23533"
       style="fill:none;stroke:#000000;stroke-width:0.3985;stroke-linecap:butt;stroke-linejoin:miter;stroke-miterlimit:10;stroke-dasharray:none;stroke-opacity:1"
       transform="matrix(1.3333333,0,0,-1.3333333,0.26533333,42.513333)" />
    <path
       id="path25"
       d="M -1.19551,1.59401 C -1.09587,0.99626 0,0.09961 0.29886,0 0,-0.09961 -1.09587,-0.99626 -1.19551,-1.59401"
       style="fill:none;stroke:#000000;stroke-width:0.31879;stroke-linecap:round;stroke-linejoin:round;stroke-miterlimit:10;stroke-dasharray:none;stroke-opacity:1"
       transform="matrix(1.3333333,0,0,-1.3333333,453.20324,23.61548)" />
    <g
       id="g25"
       aria-label="A[ω&#10;c&#10;+k&#10;f&#10;m(t)]"
       transform="matrix(1.3333333,0,0,1.3333333,409.884,15.121333)">
      <path
         id="path26"
         d="m 1.7803594,-1.1486172 c -0.3984375,0.66796876 -0.78515627,0.80859376 -1.21875002,0.84375001 -0.12890625,0 -0.2109375,0 -0.2109375,0.19921875 0,0.05859375 0.046875,0.1054687525 0.12890625,0.1054687525 0.26953125,0 0.57421877,-0.0351562525 0.85546877,-0.0351562525 0.328125,0 0.6796875,0.0351562525 0.9960937,0.0351562525 0.058594,0 0.1875,0 0.1875,-0.1875000025 0,-0.1171875 -0.09375,-0.1171875 -0.1640625,-0.1171875 -0.2226562,-0.0234375 -0.4570312,-0.10546875 -0.4570312,-0.3515625 0,-0.1171875 0.058594,-0.234375 0.1289062,-0.37500001 l 0.7617188,-1.265625 h 2.4960937 c 0.023437,0.1992188 0.1640625,1.55859376 0.1640625,1.66406251 0,0.29296875 -0.515625,0.328125 -0.7148437,0.328125 -0.140625,0 -0.2460938,0 -0.2460938,0.19921875 0,0.1054687525 0.1289063,0.1054687525 0.140625,0.1054687525 0.4101563,0 0.84375,-0.0351562525 1.2539063,-0.0351562525 0.2460937,0 0.8671875,0.0351562525 1.125,0.0351562525 0.058594,0 0.1757812,0 0.1757812,-0.1992187525 0,-0.10546875 -0.1054687,-0.10546875 -0.234375,-0.10546875 -0.609375,0 -0.609375,-0.0703125 -0.6445312,-0.36328125 L 5.6944219,-6.8908047 c -0.011719,-0.1992187 -0.011719,-0.2460937 -0.1875,-0.2460937 -0.1640625,0 -0.1992188,0.070312 -0.2578125,0.1757812 z m 1.1953125,-1.4648437 1.96875,-3.28125 0.3164062,3.28125 z m 0,0"
         style="fill:#000000;fill-opacity:1;fill-rule:nonzero;stroke:none" />
      <path
         id="path27"
         d="M 10.015711,2.4959141 V 2.0974766 H 9.0430547 V -7.0783047 H 10.015711 V -7.4767422 H 8.6446172 v 9.9726563 z m 0,0"
         style="fill:#000000;fill-opacity:1;fill-rule:nonzero;stroke:none" />
      <path
         id="path28"
         d="m 16.261805,-3.7033047 c 0,-0.4453125 -0.175782,-0.703125 -0.398438,-0.703125 -0.257812,0 -0.527344,0.2460938 -0.527344,0.46875 0,0.1054688 0.04687,0.2109375 0.152344,0.3046875 0.164063,0.140625 0.351563,0.4101563 0.351563,0.8320313 0,0.3984375 -0.1875,0.9726562 -0.503907,1.4296875 -0.292968,0.42187496 -0.667968,0.76171871 -1.136718,0.76171871 -0.5625,0 -0.867188,-0.3515625 -0.960938,-0.89062501 0.105469,-0.2578125 0.339844,-0.9023437 0.339844,-1.1835937 0,-0.1171875 -0.04687,-0.2109375 -0.1875,-0.2109375 -0.07031,0 -0.1875,0.011719 -0.257813,0.1640625 -0.117187,0.1992187 -0.234375,0.84375 -0.234375,1.2070312 -0.328125,0.46875 -0.726562,0.91406251 -1.359375,0.91406251 -0.65625,0 -0.867187,-0.58593751 -0.867187,-1.14843751 0,-1.2421875 1.019531,-2.2851562 1.019531,-2.4140625 0,-0.1171875 -0.08203,-0.1875 -0.1875,-0.1875 -0.128906,0 -0.199219,0.1289063 -0.257812,0.2109375 -0.503907,0.7382813 -0.890625,1.921875 -0.890625,2.8359375 0,0.67968751 0.234375,1.41796876 1.042968,1.41796876 0.714844,0 1.183594,-0.4921875 1.535157,-1.04296875 0.09375,0.57421875 0.480468,1.04296875 1.101562,1.04296875 0.773438,0 1.253906,-0.609375 1.617188,-1.34765626 0.234375,-0.4921875 0.609375,-1.8515625 0.609375,-2.4609375 z m 0,0"
         style="fill:#000000;fill-opacity:1;fill-rule:nonzero;stroke:none" />
      <path
         id="path29"
         d="m 19.499109,-1.1779141 c -0.257812,0.046875 -0.363281,0.23437504 -0.363281,0.38671879 0,0.1875 0.152344,0.2578125 0.269531,0.2578125 0.164063,0 0.398438,-0.10546875 0.398438,-0.4453125 0,-0.46874999 -0.539063,-0.59765629 -0.914063,-0.59765629 -1.042968,0 -2.015625,0.96093754 -2.015625,1.92187504 0,0.609375 0.421875,1.21874996 1.289063,1.21874996 1.183594,0 1.734375,-0.69140621 1.734375,-0.78515621 0,-0.046875 -0.07031,-0.1171875 -0.128906,-0.1171875 -0.03516,0 -0.04687,0.0117188 -0.105469,0.0703125 -0.550781,0.63281251 -1.359375,0.63281251 -1.488281,0.63281251 -0.503907,0 -0.726563,-0.3398438 -0.726563,-0.77343751 0,-0.19921875 0.105469,-0.9609375 0.46875,-1.44140625 0.257813,-0.33984374 0.621094,-0.53906254 0.972656,-0.53906254 0.09375,0 0.433594,0.011719 0.609375,0.2109375 z m 0,0"
         style="fill:#000000;fill-opacity:1;fill-rule:nonzero;stroke:none" />
      <path
         id="path30"
         d="m 26.791102,-2.2970547 h 2.777343 c 0.140625,0 0.328125,0 0.328125,-0.1992187 0,-0.1992188 -0.1875,-0.1992188 -0.328125,-0.1992188 h -2.777343 v -2.7890625 c 0,-0.1289062 0,-0.328125 -0.199219,-0.328125 -0.199219,0 -0.199219,0.1992188 -0.199219,0.328125 v 2.7890625 h -2.789062 c -0.140625,0 -0.328125,0 -0.328125,0.1992188 0,0.1992187 0.1875,0.1992187 0.328125,0.1992187 h 2.789062 v 2.80078126 c 0,0.12890625 0,0.328125 0.199219,0.328125 0.199219,0 0.199219,-0.19921875 0.199219,-0.328125 z m 0,0"
         style="fill:#000000;fill-opacity:1;fill-rule:nonzero;stroke:none" />
      <path
         id="path31"
         d="m 35.533289,-6.8087734 c 0,0 0,-0.1054688 -0.128906,-0.1054688 -0.234375,0 -0.960938,0.082031 -1.21875,0.1054688 -0.08203,0 -0.1875,0.011719 -0.1875,0.1992187 0,0.1171875 0.09375,0.1171875 0.234375,0.1171875 0.480469,0 0.503906,0.070312 0.503906,0.1640625 l -0.03516,0.1992188 -1.441406,5.74218746 c -0.03516,0.140625 -0.03516,0.15234375 -0.03516,0.22265625 0,0.22265625 0.199219,0.26953125 0.28125,0.26953125 0.128907,0 0.28125,-0.08203125 0.339844,-0.2109375 0.05859,-0.0820313 0.503906,-1.92187496 0.5625,-2.17968746 0.339844,0.035156 1.160156,0.1875 1.160156,0.8554687 0,0.070312 0,0.1054688 -0.03516,0.1992188 -0.02344,0.1289062 -0.03516,0.24609371 -0.03516,0.35156246 0,0.5859375 0.398437,0.984375 0.914062,0.984375 0.292969,0 0.5625,-0.15234375 0.785157,-0.52734375 0.246093,-0.43359375 0.363281,-0.98437501 0.363281,-1.00781251 0,-0.09375 -0.09375,-0.09375 -0.128906,-0.09375 -0.09375,0 -0.105469,0.035156 -0.140625,0.1757813 -0.199219,0.72656246 -0.421875,1.24218746 -0.867188,1.24218746 -0.1875,0 -0.316406,-0.1171875 -0.316406,-0.46875 0,-0.17578125 0.04687,-0.3984375 0.08203,-0.56249996 0.03516,-0.1640625 0.03516,-0.2109375 0.03516,-0.3046875 0,-0.65625 -0.621093,-0.9375 -1.464843,-1.0546875 0.304687,-0.1757813 0.621093,-0.4921875 0.855468,-0.7265625 0.480469,-0.5273438 0.9375,-0.9609375 1.417969,-0.9609375 0.05859,0 0.07031,0 0.09375,0.011719 0.117188,0.023437 0.128906,0.023437 0.210938,0.082031 0.02344,0 0.02344,0.011719 0.03516,0.035156 -0.480469,0.035156 -0.5625,0.421875 -0.5625,0.5390625 0,0.1640625 0.105469,0.3515625 0.375,0.3515625 0.257812,0 0.550781,-0.2226562 0.550781,-0.609375 0,-0.3046875 -0.234375,-0.6328125 -0.679687,-0.6328125 -0.28125,0 -0.738282,0.082031 -1.453125,0.8789063 -0.339844,0.375 -0.726563,0.7734375 -1.101563,0.9257812 z m 0,0"
         style="fill:#000000;fill-opacity:1;fill-rule:nonzero;stroke:none" />
      <path
         id="path32"
         d="m 40.698328,-1.2599453 h 0.679688 c 0.140625,0 0.234375,0 0.234375,-0.1523438 0,-0.09375 -0.09375,-0.09375 -0.210938,-0.09375 h -0.65625 c 0.164063,-0.890625 0.222656,-1.2070312 0.28125,-1.4179687 0.03516,-0.1523438 0.1875,-0.2929688 0.351563,-0.2929688 0,0 0.199218,0 0.328125,0.082031 -0.292969,0.09375 -0.304688,0.3398437 -0.304688,0.3867187 0,0.1523438 0.117188,0.2578125 0.269531,0.2578125 0.199219,0 0.398438,-0.1640625 0.398438,-0.4335937 0,-0.3164063 -0.339844,-0.4921875 -0.691406,-0.4921875 -0.304688,0 -0.644532,0.1757812 -0.84375,0.5273437 -0.128907,0.2578125 -0.1875,0.5742188 -0.339844,1.3828125 h -0.550781 c -0.140625,0 -0.222657,0 -0.222657,0.1523438 0,0.09375 0.08203,0.09375 0.210938,0.09375 h 0.515625 c 0,0.046875 -0.445313,2.5546875 -0.609375,3.2929687 -0.03516,0.1640625 -0.152344,0.6914063 -0.492188,0.6914063 0,0 -0.175781,0 -0.304687,-0.082031 0.28125,-0.09375 0.304687,-0.3515625 0.304687,-0.3867187 0,-0.1523438 -0.117187,-0.2578125 -0.28125,-0.2578125 -0.1875,0 -0.398437,0.1640625 -0.398437,0.421875 0,0.3164062 0.328125,0.4921875 0.679687,0.4921875 0.445313,0 0.75,-0.4570313 0.84375,-0.609375 0.246094,-0.46875 0.410157,-1.32421876 0.421875,-1.40625001 z m 0,0"
         style="fill:#000000;fill-opacity:1;fill-rule:nonzero;stroke:none" />
      <path
         id="path33"
         d="m 43.906336,-0.58611719 c -0.03516,0.15234375 -0.09375,0.375 -0.09375,0.421875 0,0.1875 0.140625,0.26953125 0.292969,0.26953125 0.117187,0 0.292968,-0.0703125 0.363281,-0.26953125 0.01172,-0.0234375 0.128906,-0.4921875 0.1875,-0.73828125 l 0.222656,-0.90234376 c 0.05859,-0.2226562 0.117188,-0.4335937 0.175781,-0.6679687 0.03516,-0.1640625 0.117188,-0.4570313 0.128907,-0.4921875 0.140625,-0.3164063 0.667968,-1.21875 1.617187,-1.21875 0.445313,0 0.539063,0.3632812 0.539063,0.6914062 0,0.2578125 -0.07031,0.5390625 -0.152344,0.8320313 l -0.269531,1.1601562 -0.199219,0.75000001 c -0.04687,0.19921875 -0.140625,0.5390625 -0.140625,0.5859375 0,0.1875 0.140625,0.26953125 0.292969,0.26953125 0.304687,0 0.375,-0.24609375 0.445312,-0.5625 0.140625,-0.56249996 0.515625,-2.01562496 0.597656,-2.40234376 0.03516,-0.1289062 0.5625,-1.3242187 1.652344,-1.3242187 0.421875,0 0.539063,0.3398437 0.539063,0.6914062 0,0.5742188 -0.421875,1.7109375 -0.621094,2.2382813 -0.09375,0.234375 -0.128906,0.35156246 -0.128906,0.55078121 0,0.46875 0.351562,0.80859375 0.808593,0.80859375 0.9375,0 1.3125,-1.45312496 1.3125,-1.53515626 0,-0.09375 -0.09375,-0.09375 -0.117187,-0.09375 -0.105469,0 -0.105469,0.023437 -0.152344,0.1757813 -0.152344,0.52734371 -0.46875,1.24218746 -1.019531,1.24218746 -0.164063,0 -0.234375,-0.10546875 -0.234375,-0.328125 0,-0.2578125 0.08203,-0.4921875 0.175781,-0.71484376 0.1875,-0.515625 0.609375,-1.6171875 0.609375,-2.1914062 0,-0.6445313 -0.398437,-1.0664063 -1.148437,-1.0664063 -0.75,0 -1.253907,0.4453125 -1.617188,0.9726563 -0.01172,-0.1289063 -0.04687,-0.46875 -0.328125,-0.7148438 -0.246094,-0.1992187 -0.5625,-0.2578125 -0.808594,-0.2578125 -0.902343,0 -1.382812,0.6445313 -1.558593,0.8671875 -0.04687,-0.5625 -0.46875,-0.8671875 -0.914063,-0.8671875 -0.457031,0 -0.644531,0.3867188 -0.738281,0.5742188 -0.175781,0.3398437 -0.304688,0.9375 -0.304688,0.9609375 0,0.1054687 0.09375,0.1054687 0.117188,0.1054687 0.09375,0 0.105469,-0.011719 0.164062,-0.234375 0.175782,-0.703125 0.375,-1.1835937 0.726563,-1.1835937 0.164062,0 0.316406,0.082031 0.316406,0.4570312 0,0.2109375 -0.03516,0.3164063 -0.164062,0.8320313 z m 0,0"
         style="fill:#000000;fill-opacity:1;fill-rule:nonzero;stroke:none" />
      <path
         id="path34"
         d="m 55.065516,2.3904453 c 0,-0.035156 0,-0.046875 -0.164063,-0.2226562 -1.242187,-1.25390629 -1.570312,-3.12890629 -1.570312,-4.6640625 0,-1.7226563 0.386718,-3.4570313 1.605468,-4.7109375 0.128907,-0.1171875 0.128907,-0.1289063 0.128907,-0.1640625 0,-0.070312 -0.03516,-0.1054688 -0.09375,-0.1054688 -0.105469,0 -0.996094,0.6796875 -1.582032,1.9453125 -0.515625,1.1015625 -0.632812,2.203125 -0.632812,3.0351563 0,0.7851562 0.117187,1.99218746 0.65625,3.11718746 0.597656,1.21875004 1.453125,1.87500004 1.558594,1.87500004 0.05859,0 0.09375,-0.035156 0.09375,-0.1054688 z m 0,0"
         style="fill:#000000;fill-opacity:1;fill-rule:nonzero;stroke:none" />
      <path
         id="path35"
         d="m 57.699305,-3.9845547 h 0.9375 c 0.199218,0 0.304687,0 0.304687,-0.1992187 0,-0.1054688 -0.105469,-0.1054688 -0.28125,-0.1054688 h -0.878906 c 0.363281,-1.4179687 0.410156,-1.6171875 0.410156,-1.6757812 0,-0.1757813 -0.117187,-0.2695313 -0.292969,-0.2695313 -0.02344,0 -0.304687,0.011719 -0.398437,0.3515625 l -0.386719,1.59375 h -0.9375 c -0.199219,0 -0.292969,0 -0.292969,0.1875 0,0.1171875 0.07031,0.1171875 0.269532,0.1171875 h 0.878906 c -0.714844,2.8242188 -0.75,3.00000001 -0.75,3.17578126 0,0.5390625 0.375,0.9140625 0.914062,0.9140625 1.007813,0 1.582032,-1.45312496 1.582032,-1.53515626 0,-0.09375 -0.08203,-0.09375 -0.117188,-0.09375 -0.09375,0 -0.105469,0.023437 -0.152344,0.140625 -0.433593,1.03125001 -0.960937,1.27734376 -1.300781,1.27734376 -0.199219,0 -0.304687,-0.12890625 -0.304687,-0.45703125 0,-0.24609375 0.02344,-0.31640625 0.05859,-0.48046871 z m 0,0"
         style="fill:#000000;fill-opacity:1;fill-rule:nonzero;stroke:none" />
      <path
         id="path36"
         d="m 62.128992,-2.4962734 c 0,-0.7734375 -0.117187,-1.9804688 -0.65625,-3.1054688 -0.597656,-1.21875 -1.464844,-1.875 -1.558594,-1.875 -0.05859,0 -0.105468,0.046875 -0.105468,0.1054688 0,0.035156 0,0.046875 0.199218,0.234375 0.972657,0.984375 1.535157,2.5664062 1.535157,4.640625 0,1.71093746 -0.363282,3.45703121 -1.59375,4.7226562 -0.140625,0.1171875 -0.140625,0.1289063 -0.140625,0.1640625 0,0.058594 0.04687,0.1054688 0.105468,0.1054688 0.09375,0 0.996094,-0.6796875 1.582032,-1.94531254 0.503906,-1.1015625 0.632812,-2.20312496 0.632812,-3.04687496 z m 2.572266,-4.9804688 h -1.359375 v 0.3984375 h 0.960937 v 9.1757813 h -0.960937 v 0.3984375 h 1.359375 z m 0,0"
         style="fill:#000000;fill-opacity:1;fill-rule:nonzero;stroke:none" />
    </g>
  </g>
</svg>
