<?xml version="1.0" encoding="UTF-8" standalone="no"?>
<!-- Created with Inkscape (http://www.inkscape.org/) -->

<svg
   version="1.1"
   id="svg1"
   width="387.34"
   height="133.36667"
   viewBox="0 0 387.34 133.36667"
   sodipodi:docname="block.svg"
   inkscape:version="1.3 (0e150ed, 2023-07-21)"
   xmlns:inkscape="http://www.inkscape.org/namespaces/inkscape"
   xmlns:sodipodi="http://sodipodi.sourceforge.net/DTD/sodipodi-0.dtd"
   xmlns="http://www.w3.org/2000/svg"
   xmlns:svg="http://www.w3.org/2000/svg">
  <defs
     id="defs1" />
  <sodipodi:namedview
     id="namedview1"
     pagecolor="#ffffff"
     bordercolor="#000000"
     borderopacity="0.25"
     inkscape:showpageshadow="2"
     inkscape:pageopacity="0.0"
     inkscape:pagecheckerboard="0"
     inkscape:deskcolor="#d1d1d1"
     inkscape:zoom="1.7695576"
     inkscape:cx="193.83376"
     inkscape:cy="66.683334"
     inkscape:window-width="1408"
     inkscape:window-height="449"
     inkscape:window-x="0"
     inkscape:window-y="38"
     inkscape:window-maximized="0"
     inkscape:current-layer="g1">
    <inkscape:page
       x="0"
       y="0"
       inkscape:label="1"
       id="page1"
       width="387.34"
       height="133.36667"
       margin="0"
       bleed="0" />
  </sodipodi:namedview>
  <g
     id="g1"
     inkscape:groupmode="layer"
     inkscape:label="1">
    <path
       id="path1"
       d="M -49.8139,-49.8139 H 49.81392 V 49.81392 H -49.8139 Z"
       style="fill:#ffcccc;fill-opacity:1;fill-rule:nonzero;stroke:#000000;stroke-width:0.3985;stroke-linecap:butt;stroke-linejoin:miter;stroke-miterlimit:10;stroke-dasharray:none;stroke-opacity:1"
       transform="matrix(1.3333333,0,0,-1.3333333,198.09733,66.682667)" />
    <path
       id="path2"
       d="m 2.2613281,-3.1516875 h 1.6875 c 1.1953125,0 2.2617188,-0.796875 2.2617188,-1.7929687 0,-0.984375 -0.984375,-1.8632813 -2.34375,-1.8632813 H 0.35117188 v 0.3164063 h 0.234375 c 0.77343752,0 0.78515622,0.1054687 0.78515622,0.46875 v 5.24999995 c 0,0.3515625 -0.011719,0.46875 -0.78515622,0.46875 h -0.234375 V 6.5625e-4 C 0.70273438,-0.0345 1.4292969,-0.0345 1.8160156,-0.0345 c 0.375,0 1.125,0 1.4765625,0.03515625 v -0.3046875 H 3.0464844 c -0.7617188,0 -0.7851563,-0.1171875 -0.7851563,-0.46875 z M 2.2261719,-3.4095 v -2.6835937 c 0,-0.328125 0.023437,-0.3984375 0.4921875,-0.3984375 h 0.890625 c 1.5820312,0 1.5820312,1.0546875 1.5820312,1.546875 0,0.4570312 0,1.5351562 -1.5820312,1.5351562 z m 6.2197265,0.1054688 v -1.1015625 l -1.3828125,0.1171875 v 0.3046875 c 0.6914063,0 0.7734375,0.070312 0.7734375,0.5625 v 2.6601562 c 0,0.45703125 -0.1054687,0.45703125 -0.7734375,0.45703125 V 6.5625e-4 C 7.4498047,-0.0110625 7.9185547,-0.0345 8.1998047,-0.0345 c 0.3984375,0 0.8671875,0 1.265625,0.03515625 v -0.3046875 H 9.2544922 c -0.7382813,0 -0.7617188,-0.1171875 -0.7617188,-0.46875 V -2.3079375 c 0,-0.984375 0.421875,-1.875 1.1835938,-1.875 0.058594,0 0.082031,0 0.1054687,0.011719 -0.035156,0.011719 -0.234375,0.1289062 -0.234375,0.3867187 0,0.28125 0.2109375,0.4335938 0.4335938,0.4335938 0.1757813,0 0.4218753,-0.1289063 0.4218753,-0.4453125 0,-0.3164063 -0.304688,-0.609375 -0.7265628,-0.609375 -0.7382813,0 -1.0898438,0.6679687 -1.2304688,1.1015623 z m 6.9257816,1.171875 c 0,-1.2773438 -0.996094,-2.3320313 -2.191407,-2.3320313 -1.253906,0 -2.214843,1.0898438 -2.214843,2.3320313 0,1.28906245 1.03125,2.2382812 2.203125,2.2382812 1.207031,0 2.203125,-0.97265625 2.203125,-2.2382812 z m -2.191407,1.99218745 c -0.433593,0 -0.867187,-0.2109375 -1.136718,-0.66796875 -0.257813,-0.4335937 -0.257813,-1.0429687 -0.257813,-1.40625 0,-0.3867187 0,-0.9257812 0.246094,-1.359375 0.269531,-0.4570312 0.738281,-0.6679687 1.136719,-0.6679687 0.433593,0 0.867187,0.2226562 1.125,0.6445312 0.257812,0.4335938 0.257812,1.0078125 0.257812,1.3828125 0,0.3632813 0,0.9023438 -0.222656,1.3359375 -0.222656,0.4453125 -0.65625,0.73828125 -1.148438,0.73828125 z m 4.195313,-3.60937495 v -3.1640625 l -1.429688,0.1054687 v 0.3164063 c 0.691407,0 0.773438,0.070312 0.773438,0.5507812 V 6.5625e-4 h 0.246094 c 0.01172,-0.01171875 0.09375,-0.15234375 0.363281,-0.62109375 0.152344,0.234375 0.5625,0.7265625 1.300781,0.7265625 1.183594,0 2.226563,-0.97265625 2.226563,-2.2617187 0,-1.265625 -0.972657,-2.25 -2.109375,-2.25 -0.785157,0 -1.207032,0.46875 -1.371094,0.65625 z m 0.03516,2.6132812 v -2.0507812 c 0,-0.1875 0,-0.1992188 0.105469,-0.3632813 0.386719,-0.5507812 0.9375,-0.6328125 1.171875,-0.6328125 0.457031,0 0.808594,0.2578125 1.054687,0.6328125 0.257813,0.4101563 0.28125,0.984375 0.28125,1.3945313 0,0.3632812 -0.01172,0.9609375 -0.304687,1.40624995 -0.210938,0.31640625 -0.585938,0.64453125 -1.125,0.64453125 -0.445313,0 -0.808594,-0.24609375 -1.042969,-0.609375 -0.140625,-0.2109375 -0.140625,-0.24609375 -0.140625,-0.421875 z m 5.545899,-5.7773437 -1.429688,0.1054687 v 0.3164063 c 0.703125,0 0.773438,0.070312 0.773438,0.5507812 v 5.1796875 c 0,0.45703125 -0.105469,0.45703125 -0.773438,0.45703125 V 6.5625e-4 C 21.855078,-0.0110625 22.382422,-0.0345 22.628516,-0.0345 c 0.257812,0 0.738281,0.0234375 1.113281,0.03515625 v -0.3046875 c -0.667969,0 -0.785156,0 -0.785156,-0.45703125 z m 2.124023,4.40625 c 0.05859,-1.4882813 0.902344,-1.734375 1.242188,-1.734375 1.019531,0 1.125,1.3476562 1.125,1.734375 z m -0.01172,0.2109375 h 2.789063 c 0.210937,0 0.246094,0 0.246094,-0.2109375 0,-0.984375 -0.539063,-1.9570313 -1.78125,-1.9570313 -1.160157,0 -2.074219,1.03125 -2.074219,2.2734375 0,1.3359375 1.042969,2.296875 2.191406,2.296875 1.21875,0 1.664063,-1.1015625 1.664063,-1.2890625 0,-0.1054687 -0.08203,-0.1171875 -0.128907,-0.1171875 -0.09375,0 -0.117187,0.058594 -0.128906,0.140625 -0.351562,1.01953125 -1.253906,1.01953125 -1.347656,1.01953125 -0.503906,0 -0.902344,-0.29296875 -1.125,-0.66796875 -0.304688,-0.4804687 -0.304688,-1.1367187 -0.304688,-1.4882812 z m 4.426758,-1.125 v 2.6601562 c 0,0.45703125 -0.117187,0.45703125 -0.785156,0.45703125 V 6.5625e-4 C 29.062109,-0.0110625 29.566016,-0.0345 29.835547,-0.0345 c 0.257812,0 0.785156,0.0234375 1.113281,0.03515625 v -0.3046875 c -0.65625,0 -0.773437,0 -0.773437,-0.45703125 v -1.828125 c 0,-1.03125 0.714843,-1.59375 1.347656,-1.59375 0.621094,0 0.738281,0.5390625 0.738281,1.1015625 v 2.3203125 c 0,0.45703125 -0.117187,0.45703125 -0.773437,0.45703125 V 6.5625e-4 C 31.827734,-0.0110625 32.343359,-0.0345 32.612891,-0.0345 c 0.257812,0 0.773437,0.0234375 1.113281,0.03515625 v -0.3046875 c -0.667969,0 -0.785156,0 -0.785156,-0.45703125 v -1.828125 c 0,-1.03125 0.714843,-1.59375 1.347656,-1.59375 0.632812,0 0.738281,0.5390625 0.738281,1.1015625 v 2.3203125 c 0,0.45703125 -0.105469,0.45703125 -0.773437,0.45703125 V 6.5625e-4 C 34.605078,-0.0110625 35.108984,-0.0345 35.378516,-0.0345 c 0.257812,0 0.773437,0.0234375 1.113281,0.03515625 v -0.3046875 c -0.515625,0 -0.761719,0 -0.773438,-0.3046875 V -2.5071562 c 0,-0.8554688 0,-1.171875 -0.316406,-1.5234375 -0.128906,-0.1757813 -0.46875,-0.375 -1.042969,-0.375 -0.832031,0 -1.277343,0.5976562 -1.441406,0.984375 -0.140625,-0.8671875 -0.878906,-0.984375 -1.324219,-0.984375 -0.726562,0 -1.195312,0.4335937 -1.476562,1.0546875 v -1.0546875 l -1.40625,0.1171875 v 0.3046875 c 0.703125,0 0.785156,0.070312 0.785156,0.5625 z m 0,0"
       style="fill:#000000;fill-opacity:1;fill-rule:nonzero;stroke:none"
       aria-label="Problem"
       transform="matrix(1.3333333,0,0,1.3333333,173.63333,71.296)" />
    <path
       id="path3"
       d="m -141.7341,0 h 88.1344"
       style="fill:none;stroke:#000000;stroke-width:0.3985;stroke-linecap:butt;stroke-linejoin:miter;stroke-miterlimit:10;stroke-dasharray:none;stroke-opacity:1"
       transform="matrix(1.3333333,0,0,-1.3333333,198.09733,66.682667)" />
    <path
       id="path4"
       d="M 3.58653,0 C 2.52383,0.19925 0.797,0.797 -0.3985,1.49438 V -1.49438 C 0.797,-0.797 2.52383,-0.19925 3.58653,0"
       style="fill:#000000;fill-opacity:1;fill-rule:nonzero;stroke:none"
       transform="matrix(1.3333333,0,0,-1.3333333,126.63107,66.682667)" />
    <path
       id="path5"
       d="m 2.2393438,-6.02475 c 0,-0.3632812 0.035156,-0.46875 0.8203125,-0.46875 H 3.3174688 V -6.8099062 C 2.9659063,-6.77475 2.18075,-6.77475 1.80575,-6.77475 c -0.3867187,0 -1.171875,0 -1.5234375,-0.035156 V -6.4935 H 0.540125 c 0.7851563,0 0.8203125,0.1054688 0.8203125,0.46875 v 5.25 c 0,0.3515625 -0.035156,0.46875 -0.8203125,0.46875 H 0.2823125 v 0.3046875 c 0.3515625,-0.03515625 1.1367188,-0.03515625 1.5117188,-0.03515625 0.3867187,0 1.171875,0 1.5234375,0.03515625 V -0.306 H 3.0596563 C 2.2745,-0.306 2.2393438,-0.4231875 2.2393438,-0.77475 Z m 2.4609375,2.6015625 v 2.66015625 C 4.7002813,-0.306 4.5830938,-0.306 3.915125,-0.306 v 0.3046875 c 0.3515625,-0.01171875 0.8554688,-0.03515625 1.125,-0.03515625 0.2578125,0 0.7851563,0.0234375 1.1132813,0.03515625 V -0.306 c -0.65625,0 -0.7734375,0 -0.7734375,-0.45703125 V -2.5911562 c 0,-1.03125 0.7148437,-1.59375 1.3476562,-1.59375 0.6210938,0 0.7382813,0.5390625 0.7382813,1.1015625 v 2.32031245 C 7.4659063,-0.306 7.3487188,-0.306 6.6924688,-0.306 v 0.3046875 c 0.3398437,-0.01171875 0.8554687,-0.03515625 1.125,-0.03515625 0.2578125,0 0.7734375,0.0234375 1.1132812,0.03515625 V -0.306 c -0.515625,0 -0.7734375,0 -0.7851562,-0.3046875 V -2.509125 c 0,-0.8554687 0,-1.171875 -0.3046875,-1.5234375 -0.140625,-0.1757812 -0.46875,-0.375 -1.0429688,-0.375 -0.7265625,0 -1.1953125,0.4335938 -1.4765625,1.0546875 v -1.0546875 l -1.40625,0.1171875 v 0.3046875 c 0.703125,0 0.7851563,0.070312 0.7851563,0.5625 z m 6.1435547,-0.328125 v -0.65625 L 9.4141484,-4.290375 v 0.3046875 c 0.7031246,0 0.7734376,0.058594 0.7734376,0.4921875 v 4.6640625 c 0,0.4570313 -0.105469,0.4570313 -0.7734376,0.4570313 V 1.9322813 C 9.7539922,1.9205625 10.269617,1.897125 10.52743,1.897125 c 0.269531,0 0.773437,0.023437 1.125,0.035156 V 1.6275938 c -0.667969,0 -0.773438,0 -0.773438,-0.4570313 V -0.58725 c 0.04687,0.15234375 0.46875,0.69140625 1.21875,0.69140625 1.183594,0 2.226563,-0.97265625 2.226563,-2.26171875 0,-1.265625 -0.972657,-2.25 -2.085938,-2.25 -0.773437,0 -1.195312,0.4453125 -1.394531,0.65625 z m 0.03516,2.6132813 V -3.352875 c 0.28125,-0.515625 0.773438,-0.796875 1.277344,-0.796875 0.726562,0 1.335937,0.8671875 1.335937,1.9921875 0,1.20703125 -0.691406,2.05078125 -1.429687,2.05078125 -0.398438,0 -0.773438,-0.19921875 -1.042969,-0.609375 -0.140625,-0.2109375 -0.140625,-0.22265625 -0.140625,-0.42187495 z m 7.678711,0.35156245 v 0.890625 L 19.999109,-0.0013125 V -0.306 c -0.703125,0 -0.785156,-0.0703125 -0.785156,-0.5625 v -3.5390625 l -1.453125,0.1171875 v 0.3046875 c 0.691406,0 0.773438,0.070312 0.773438,0.5625 v 1.7695313 c 0,0.86718745 -0.480469,1.54687495 -1.207032,1.54687495 -0.832031,0 -0.878906,-0.46875 -0.878906,-0.99609375 v -3.3046875 l -1.464844,0.1171875 v 0.3046875 c 0.785157,0 0.785157,0.035156 0.785157,0.9140625 v 1.5 c 0,0.7734375 0,1.67578125 1.511718,1.67578125 0.550782,0 0.996094,-0.26953125 1.277344,-0.890625 z m 3.369141,-3.19921875 h 1.429687 V -4.290375 H 21.926844 V -6.1302187 H 21.68075 c -0.01172,0.8203125 -0.316406,1.8867187 -1.289062,1.921875 v 0.2226562 h 0.84375 v 2.7539063 c 0,1.21874995 0.925781,1.33593745 1.289062,1.33593745 0.703125,0 0.984375,-0.703125 0.984375,-1.33593745 V -1.806 h -0.246094 v 0.5507813 c 0,0.7382812 -0.304687,1.1132812 -0.667968,1.1132812 -0.667969,0 -0.667969,-0.9023437 -0.667969,-1.078125 z m 0,0"
       style="fill:#000000;fill-opacity:1;fill-rule:nonzero;stroke:none"
       aria-label="Input"
       transform="matrix(1.3333333,0,0,1.3333333,54.217333,59.408)" />
    <path
       id="path6"
       d="m 50.01317,0 h 88.1344"
       style="fill:none;stroke:#000000;stroke-width:0.3985;stroke-linecap:butt;stroke-linejoin:miter;stroke-miterlimit:10;stroke-dasharray:none;stroke-opacity:1"
       transform="matrix(1.3333333,0,0,-1.3333333,198.09733,66.682667)" />
    <path
       id="path7"
       d="M 3.58653,0 C 2.52383,0.19925 0.797,0.797 -0.3985,1.49438 V -1.49438 C 0.797,-0.797 2.52383,-0.19925 3.58653,0"
       style="fill:#000000;fill-opacity:1;fill-rule:nonzero;stroke:none"
       transform="matrix(1.3333333,0,0,-1.3333333,382.29409,66.682667)" />
    <path
       id="path8"
       d="m 7.1841016,-3.3763125 c 0,-2.0390625 -1.5,-3.6445312 -3.3164063,-3.6445312 -1.78125,0 -3.30468749,1.59375 -3.30468749,3.6445312 0,2.0390625 1.53515629,3.59765625 3.30468749,3.59765625 1.8164063,0 3.3164063,-1.58203125 3.3164063,-3.59765625 z m -3.3046875,3.33984375 c -0.9609375,0 -2.296875,-0.87890625 -2.296875,-3.48046875 0,-2.578125 1.453125,-3.2578125 2.2851562,-3.2578125 0.8671875,0 2.2851563,0.703125 2.2851563,3.2578125 0,2.63671875 -1.359375,3.48046875 -2.2734375,3.48046875 z m 7.7607419,-0.75 v 0.890625 L 13.081563,-0.0013125 V -0.306 c -0.703125,0 -0.785157,-0.0703125 -0.785157,-0.5625 v -3.5390625 l -1.453125,0.1171875 v 0.3046875 c 0.691407,0 0.773438,0.070312 0.773438,0.5625 v 1.7695313 c 0,0.86718745 -0.480469,1.54687495 -1.207031,1.54687495 -0.8320317,0 -0.8789067,-0.46875 -0.8789067,-0.99609375 V -4.4075625 L 8.0659375,-4.290375 v 0.3046875 c 0.7851563,0 0.7851563,0.035156 0.7851563,0.9140625 v 1.5 c 0,0.7734375 0,1.67578125 1.5117192,1.67578125 0.550781,0 0.996093,-0.26953125 1.277343,-0.890625 z m 3.366211,-3.19921875 h 1.429688 V -4.290375 h -1.429688 v -1.8398437 h -0.246094 c -0.01172,0.8203125 -0.316406,1.8867187 -1.289062,1.921875 v 0.2226562 h 0.84375 v 2.7539063 c 0,1.21874995 0.925781,1.33593745 1.289062,1.33593745 0.703125,0 0.984375,-0.703125 0.984375,-1.33593745 V -1.806 h -0.246093 v 0.5507813 c 0,0.7382812 -0.304688,1.1132812 -0.667969,1.1132812 -0.667969,0 -0.667969,-0.9023437 -0.667969,-1.078125 z m 3.864258,0.234375 v -0.65625 l -1.429687,0.1171875 v 0.3046875 c 0.703125,0 0.773437,0.058594 0.773437,0.4921875 v 4.6640625 c 0,0.4570313 -0.105469,0.4570313 -0.773437,0.4570313 v 0.3046875 c 0.339843,-0.011719 0.855468,-0.035156 1.113281,-0.035156 0.269531,0 0.773437,0.023437 1.125,0.035156 V 1.6275938 c -0.667969,0 -0.773438,0 -0.773438,-0.4570313 V -0.58725 c 0.04687,0.15234375 0.46875,0.69140625 1.21875,0.69140625 1.183594,0 2.226563,-0.97265625 2.226563,-2.26171875 0,-1.265625 -0.972656,-2.25 -2.085938,-2.25 -0.773437,0 -1.195312,0.4453125 -1.394531,0.65625 z m 0.03516,2.6132813 V -3.352875 c 0.28125,-0.515625 0.773438,-0.796875 1.277344,-0.796875 0.726563,0 1.335938,0.8671875 1.335938,1.9921875 0,1.20703125 -0.691407,2.05078125 -1.429688,2.05078125 -0.398437,0 -0.773437,-0.19921875 -1.042969,-0.609375 -0.140625,-0.2109375 -0.140625,-0.22265625 -0.140625,-0.42187495 z m 7.678711,0.35156245 v 0.890625 L 28.025898,-0.0013125 V -0.306 c -0.703125,0 -0.785156,-0.0703125 -0.785156,-0.5625 v -3.5390625 l -1.453125,0.1171875 v 0.3046875 c 0.691406,0 0.773438,0.070312 0.773438,0.5625 v 1.7695313 c 0,0.86718745 -0.480469,1.54687495 -1.207032,1.54687495 -0.832031,0 -0.878906,-0.46875 -0.878906,-0.99609375 v -3.3046875 l -1.464844,0.1171875 v 0.3046875 c 0.785157,0 0.785157,0.035156 0.785157,0.9140625 v 1.5 c 0,0.7734375 0,1.67578125 1.511718,1.67578125 0.550782,0 0.996094,-0.26953125 1.277344,-0.890625 z m 3.366211,-3.19921875 h 1.429688 V -4.290375 h -1.429688 v -1.8398437 h -0.246094 c -0.01172,0.8203125 -0.316406,1.8867187 -1.289062,1.921875 v 0.2226562 h 0.84375 v 2.7539063 c 0,1.21874995 0.925781,1.33593745 1.289062,1.33593745 0.703125,0 0.984375,-0.703125 0.984375,-1.33593745 V -1.806 h -0.246093 v 0.5507813 c 0,0.7382812 -0.304688,1.1132812 -0.667969,1.1132812 -0.667969,0 -0.667969,-0.9023437 -0.667969,-1.078125 z m 0,0"
       style="fill:#000000;fill-opacity:1;fill-rule:nonzero;stroke:none"
       aria-label="Output"
       transform="matrix(1.3333333,0,0,1.3333333,304.52667,59.408)" />
  </g>
</svg>
