<?xml version="1.0" encoding="UTF-8" standalone="no"?>
<!-- Created with Inkscape (http://www.inkscape.org/) -->

<svg
   version="1.1"
   id="svg1"
   width="369.03467"
   height="55.740002"
   viewBox="0 0 369.03467 55.740002"
   sodipodi:docname="C_arrays.svg"
   inkscape:version="1.3 (0e150ed, 2023-07-21)"
   xmlns:inkscape="http://www.inkscape.org/namespaces/inkscape"
   xmlns:sodipodi="http://sodipodi.sourceforge.net/DTD/sodipodi-0.dtd"
   xmlns="http://www.w3.org/2000/svg"
   xmlns:svg="http://www.w3.org/2000/svg">
  <defs
     id="defs1" />
  <sodipodi:namedview
     id="namedview1"
     pagecolor="#ffffff"
     bordercolor="#666666"
     borderopacity="1.0"
     inkscape:showpageshadow="2"
     inkscape:pageopacity="0.0"
     inkscape:pagecheckerboard="0"
     inkscape:deskcolor="#d1d1d1"
     inkscape:zoom="1.5147628"
     inkscape:cx="184.18725"
     inkscape:cy="28.057197"
     inkscape:window-width="2560"
     inkscape:window-height="1387"
     inkscape:window-x="0"
     inkscape:window-y="25"
     inkscape:window-maximized="1"
     inkscape:current-layer="g1">
    <inkscape:page
       x="0"
       y="0"
       inkscape:label="1"
       id="page1"
       width="369.03467"
       height="55.740002"
       margin="0"
       bleed="0" />
  </sodipodi:namedview>
  <g
     id="g1"
     inkscape:groupmode="layer"
     inkscape:label="1">
    <path
       id="path1"
       d="M -10.63004,-10.63004 H 10.63005 V 10.63005 H -10.63004 Z"
       style="fill:#ff8000;fill-opacity:1;fill-rule:nonzero;stroke:#000000;stroke-width:0.3985;stroke-linecap:butt;stroke-linejoin:miter;stroke-miterlimit:10;stroke-dasharray:none;stroke-opacity:1"
       transform="matrix(1.3333333,0,0,-1.3333333,14.438667,14.438667)" />
    <path
       id="path2"
       d="M 4.74575,-6.07025 C 4.827781,-6.1874375 4.827781,-6.210875 4.827781,-6.4100937 H 2.4137188 c -1.21875,0 -1.2421875,-0.1289063 -1.2773438,-0.328125 H 0.89028125 l -0.328125,2.0507812 H 0.80825 C 0.8316875,-4.8397812 0.9254375,-5.4725937 1.0543438,-5.5897812 1.1246563,-5.648375 1.8980938,-5.648375 2.027,-5.648375 h 2.0625 c -0.1054687,0.1640625 -0.890625,1.2421875 -1.1132812,1.5703125 -0.890625,1.3476563 -1.21875,2.7304688 -1.21875,3.75 0,0.09375 0,0.55078125 0.4570312,0.55078125 0.4570313,0 0.4570313,-0.45703125 0.4570313,-0.55078125 V -0.83196875 C 2.6715313,-1.38275 2.6949688,-1.9335312 2.777,-2.4725937 2.823875,-2.69525 2.9527813,-3.5507187 3.3980938,-4.1718125 Z m 1.8632813,1.5234375 C 6.1402813,-4.8515 6.105125,-5.1913437 6.105125,-5.3554062 c 0,-0.609375 0.6445313,-1.03125 1.359375,-1.03125 0.7265625,0 1.359375,0.515625 1.359375,1.2421875 0,0.5625 -0.3867187,1.0429687 -0.984375,1.3945312 z m 1.453125,0.9375 C 8.777,-3.9725937 9.2691875,-4.4882187 9.2691875,-5.1444687 c 0,-0.9257813 -0.890625,-1.4882813 -1.7929687,-1.4882813 -0.9960938,0 -1.8046875,0.7382813 -1.8046875,1.6640625 0,0.1757813 0.011719,0.6210938 0.4335937,1.0898438 0.1054688,0.1289062 0.4804688,0.375 0.7265625,0.5390625 C 6.2574688,-3.0468125 5.402,-2.4960312 5.402,-1.4999375 c 0,1.0546875 1.0078125,1.72265625 2.0625,1.72265625 1.125,0 2.0625,-0.83203125 2.0625,-1.89843745 0,-0.3515625 -0.1054687,-0.8085938 -0.4804687,-1.21875 -0.1875,-0.2109375 -0.3515625,-0.3164063 -0.984375,-0.7148438 z m -0.9960938,0.421875 1.21875,0.7734375 c 0.28125,0.1875 0.75,0.4921875 0.75,1.1015625 0,0.73828125 -0.75,1.25390625 -1.5585937,1.25390625 -0.8671875,0 -1.5820313,-0.62109375 -1.5820313,-1.44140625 0,-0.5859375 0.3164063,-1.21875 1.171875,-1.6875 z m 0,0"
       style="fill:#000000;fill-opacity:1;fill-rule:nonzero;stroke:none"
       aria-label="78"
       transform="matrix(1.3333333,0,0,1.3333333,7.7973333,18.718667)" />
    <path
       id="path3"
       d="M 2.5442344,2.4962344 V 2.0977969 H 1.5715781 V -7.0779844 H 2.5442344 V -7.4764219 H 1.1731406 v 9.9726563 z m 4.8046875,-5.6835938 c 0,-0.796875 -0.046875,-1.59375 -0.3984375,-2.3320312 -0.4570313,-0.9609375 -1.2773438,-1.1132813 -1.6875,-1.1132813 -0.5976563,0 -1.3359375,0.2578125 -1.734375,1.1835938 -0.328125,0.6914062 -0.375,1.4648437 -0.375,2.2617187 0,0.75 0.046875,1.640625 0.4453125,2.40234378 0.4335937,0.80859375 1.1601562,1.0078125 1.6523437,1.0078125 0.5390625,0 1.2890625,-0.2109375 1.734375,-1.16015625 C 7.3020469,-1.6287656 7.3489219,-2.4022031 7.3489219,-3.1873594 Z M 5.2512656,1.40625e-4 c -0.3867187,0 -0.984375,-0.246093745 -1.1601562,-1.207031225 -0.1054688,-0.5976563 -0.1054688,-1.5117188 -0.1054688,-2.0976563 0,-0.6445312 0,-1.3007812 0.082031,-1.8398437 0.1875,-1.1835938 0.9257812,-1.265625 1.1835937,-1.265625 0.328125,0 0.984375,0.1757812 1.171875,1.1601562 0.09375,0.5625 0.09375,1.3125 0.09375,1.9453125 0,0.75 0,1.4179688 -0.1054687,2.0625 C 6.2590781,-0.30454687 5.6965781,1.40625e-4 5.2512656,1.40625e-4 Z M 9.3323203,-7.4764219 h -1.359375 v 0.3984375 H 8.9338828 V 2.0977969 H 7.9729453 v 0.3984375 h 1.359375 z m 0,0"
       style="fill:#000000;fill-opacity:1;fill-rule:nonzero;stroke:none"
       aria-label="[0]"
       transform="matrix(1.3333333,0,0,1.3333333,7.428,47.992)" />
    <path
       id="path4"
       d="M 17.71675,-10.63004 H 38.97684 V 10.63005 H 17.71675 Z"
       style="fill:#ff8000;fill-opacity:1;fill-rule:nonzero;stroke:#000000;stroke-width:0.3985;stroke-linecap:butt;stroke-linejoin:miter;stroke-miterlimit:10;stroke-dasharray:none;stroke-opacity:1"
       transform="matrix(1.3333333,0,0,-1.3333333,14.438667,14.438667)" />
    <path
       id="path5"
       d="M 1.6302187,-4.5468125 C 1.1614687,-4.8515 1.1263125,-5.1913437 1.1263125,-5.3554062 c 0,-0.609375 0.6445312,-1.03125 1.359375,-1.03125 0.7265625,0 1.359375,0.515625 1.359375,1.2421875 0,0.5625 -0.3867188,1.0429687 -0.984375,1.3945312 z m 1.453125,0.9375 C 3.7981875,-3.9725937 4.290375,-4.4882187 4.290375,-5.1444687 4.290375,-6.07025 3.39975,-6.63275 2.4974062,-6.63275 c -0.9960937,0 -1.80468745,0.7382813 -1.80468745,1.6640625 0,0.1757813 0.0117188,0.6210938 0.43359375,1.0898438 0.1054687,0.1289062 0.4804687,0.375 0.7265625,0.5390625 -0.5742188,0.2929687 -1.4296875,0.84375 -1.4296875,1.8398437 0,1.0546875 1.0078125,1.72265625 2.0625,1.72265625 1.125,0 2.0625,-0.83203125 2.0625,-1.89843745 0,-0.3515625 -0.1054688,-0.8085938 -0.4804688,-1.21875 -0.1875,-0.2109375 -0.3515625,-0.3164063 -0.984375,-0.7148438 z M 2.08725,-3.1874375 3.306,-2.414 c 0.28125,0.1875 0.75,0.4921875 0.75,1.1015625 0,0.73828125 -0.75,1.25390625 -1.5585938,1.25390625 -0.8671875,0 -1.5820312,-0.62109375 -1.5820312,-1.44140625 0,-0.5859375 0.3164062,-1.21875 1.171875,-1.6875 z m 5.8242187,-3.1875 c 0,-0.234375 0,-0.2578125 -0.234375,-0.2578125 -0.609375,0.6328125 -1.4882812,0.6328125 -1.8046875,0.6328125 v 0.3164063 c 0.1992188,0 0.7851563,0 1.3007813,-0.2578125 v 5.15624995 c 0,0.3515625 -0.035156,0.48046875 -0.9257813,0.48046875 H 5.931 V 6.25e-5 c 0.3515625,-0.03515625 1.2070312,-0.03515625 1.6054687,-0.03515625 0.3984375,0 1.265625,0 1.6171875,0.03515625 V -0.304625 H 8.83725 c -0.9023438,0 -0.9257813,-0.1171875 -0.9257813,-0.48046875 z m 0,0"
       style="fill:#000000;fill-opacity:1;fill-rule:nonzero;stroke:none"
       aria-label="81"
       transform="matrix(1.3333333,0,0,1.3333333,45.592,18.718667)" />
    <path
       id="path6"
       d="M 2.5429609,2.4962344 V 2.0977969 H 1.5703047 V -7.0779844 H 2.5429609 V -7.4764219 H 1.1718672 v 9.9726563 z m 3.1552735,-8.8710938 c 0,-0.234375 0,-0.2578125 -0.234375,-0.2578125 -0.609375,0.6328125 -1.4882813,0.6328125 -1.8046875,0.6328125 v 0.3164063 c 0.1992187,0 0.7851562,0 1.3007812,-0.2578125 v 5.15624998 c 0,0.3515625 -0.035156,0.48046875 -0.9257812,0.48046875 H 3.7177656 V 1.40625e-4 C 4.0693281,-0.03501562 4.9247969,-0.03501562 5.3232344,-0.03501562 c 0.3984375,0 1.265625,0 1.6171875,0.035156245 V -0.30454687 H 6.6240156 c -0.9023437,0 -0.9257812,-0.1171875 -0.9257812,-0.48046875 z m 3.6328125,-1.1015625 h -1.359375 v 0.3984375 H 8.9326094 V 2.0977969 H 7.9716719 v 0.3984375 h 1.359375 z m 0,0"
       style="fill:#000000;fill-opacity:1;fill-rule:nonzero;stroke:none"
       aria-label="[1]"
       transform="matrix(1.3333333,0,0,1.3333333,45.222667,47.992)" />
    <path
       id="path7"
       d="M 46.06357,-10.63004 H 67.32366 V 10.63005 H 46.06357 Z"
       style="fill:#ff8000;fill-opacity:1;fill-rule:nonzero;stroke:#000000;stroke-width:0.3985;stroke-linecap:butt;stroke-linejoin:miter;stroke-miterlimit:10;stroke-dasharray:none;stroke-opacity:1"
       transform="matrix(1.3333333,0,0,-1.3333333,14.438667,14.438667)" />
    <path
       id="path8"
       d="M 1.6279453,-4.5468125 C 1.1591953,-4.8515 1.1240391,-5.1913437 1.1240391,-5.3554062 c 0,-0.609375 0.6445312,-1.03125 1.359375,-1.03125 0.7265625,0 1.359375,0.515625 1.359375,1.2421875 0,0.5625 -0.3867188,1.0429687 -0.984375,1.3945312 z m 1.453125,0.9375 c 0.7148438,-0.3632812 1.2070313,-0.8789062 1.2070313,-1.5351562 0,-0.9257813 -0.890625,-1.4882813 -1.7929688,-1.4882813 -0.9960937,0 -1.80468749,0.7382813 -1.80468749,1.6640625 0,0.1757813 0.0117188,0.6210938 0.43359379,1.0898438 0.1054687,0.1289062 0.4804687,0.375 0.7265625,0.5390625 -0.5742188,0.2929687 -1.42968754,0.84375 -1.42968754,1.8398437 0,1.0546875 1.00781254,1.72265625 2.06250004,1.72265625 1.125,0 2.0625,-0.83203125 2.0625,-1.89843745 0,-0.3515625 -0.1054688,-0.8085938 -0.4804688,-1.21875 -0.1875,-0.2109375 -0.3515625,-0.3164063 -0.984375,-0.7148438 z m -0.9960937,0.421875 1.21875,0.7734375 c 0.28125,0.1875 0.75,0.4921875 0.75,1.1015625 0,0.73828125 -0.75,1.25390625 -1.5585938,1.25390625 -0.8671875,0 -1.58203124,-0.62109375 -1.58203124,-1.44140625 0,-0.5859375 0.31640624,-1.21875 1.17187504,-1.6875 z m 4.5263672,-1.359375 C 6.1425938,-4.8515 6.1074375,-5.1913437 6.1074375,-5.3554062 c 0,-0.609375 0.6445313,-1.03125 1.359375,-1.03125 0.7265625,0 1.359375,0.515625 1.359375,1.2421875 0,0.5625 -0.3867187,1.0429687 -0.984375,1.3945312 z m 1.453125,0.9375 C 8.7793125,-3.9725937 9.2715,-4.4882187 9.2715,-5.1444687 9.2715,-6.07025 8.380875,-6.63275 7.4785313,-6.63275 c -0.9960938,0 -1.8046875,0.7382813 -1.8046875,1.6640625 0,0.1757813 0.011719,0.6210938 0.4335937,1.0898438 0.1054688,0.1289062 0.4804688,0.375 0.7265625,0.5390625 -0.5742187,0.2929687 -1.4296875,0.84375 -1.4296875,1.8398437 0,1.0546875 1.0078125,1.72265625 2.0625,1.72265625 1.125,0 2.0625,-0.83203125 2.0625,-1.89843745 0,-0.3515625 -0.1054687,-0.8085938 -0.4804687,-1.21875 -0.1875,-0.2109375 -0.3515625,-0.3164063 -0.984375,-0.7148438 z M 7.068375,-3.1874375 8.287125,-2.414 c 0.28125,0.1875 0.75,0.4921875 0.75,1.1015625 0,0.73828125 -0.75,1.25390625 -1.5585937,1.25390625 -0.8671875,0 -1.5820313,-0.62109375 -1.5820313,-1.44140625 0,-0.5859375 0.3164063,-1.21875 1.171875,-1.6875 z m 0,0"
       style="fill:#000000;fill-opacity:1;fill-rule:nonzero;stroke:none"
       aria-label="88"
       transform="matrix(1.3333333,0,0,1.3333333,83.388,18.718667)" />
    <path
       id="path9"
       d="M 2.5436172,2.4962344 V 2.0977969 H 1.5709609 V -7.0779844 H 2.5436172 V -7.4764219 H 1.1725234 V 2.4962344 Z M 4.0318984,-0.76157812 5.0865859,-1.7928281 c 1.5585938,-1.3710938 2.15625,-1.9101563 2.15625,-2.90625 0,-1.1367188 -0.9023437,-1.9335938 -2.1210937,-1.9335938 -1.125,0 -1.8515625,0.9140625 -1.8515625,1.8046875 0,0.5507813 0.4921875,0.5507813 0.5273437,0.5507813 0.1640625,0 0.515625,-0.1171875 0.515625,-0.5273438 0,-0.2578125 -0.1875,-0.515625 -0.5273437,-0.515625 -0.082031,0 -0.1054688,0 -0.1289063,0.011719 0.2226563,-0.6445313 0.7617188,-1.0195313 1.3359375,-1.0195313 0.9140625,0 1.3359375,0.8085938 1.3359375,1.6289063 0,0.796875 -0.4921875,1.5820312 -1.0429687,2.203125 L 3.3756484,-0.36314062 C 3.2701797,-0.25767187 3.2701797,-0.23423437 3.2701797,1.40625e-4 H 6.9615859 L 7.2428359,-1.7342344 H 6.9850234 c -0.046875,0.3046875 -0.1171875,0.73828128 -0.2109375,0.89062503 -0.070312,0.0820313 -0.7265625,0.0820313 -0.9492187,0.0820313 z M 9.3317031,-7.4764219 h -1.359375 v 0.3984375 H 8.9332656 V 2.0977969 H 7.9723281 v 0.3984375 h 1.359375 z m 0,0"
       style="fill:#000000;fill-opacity:1;fill-rule:nonzero;stroke:none"
       aria-label="[2]"
       transform="matrix(1.3333333,0,0,1.3333333,83.018667,47.992)" />
    <path
       id="path10"
       d="M 74.41039,-10.63004 H 95.67048 V 10.63005 H 74.41039 Z"
       style="fill:#ff8000;fill-opacity:1;fill-rule:nonzero;stroke:#000000;stroke-width:0.3985;stroke-linecap:butt;stroke-linejoin:miter;stroke-miterlimit:10;stroke-dasharray:none;stroke-opacity:1"
       transform="matrix(1.3333333,0,0,-1.3333333,14.438667,14.438667)" />
    <path
       id="path11"
       d="m 2.9303828,-1.6405625 v 0.8671875 c 0,0.3515625 -0.023437,0.46875 -0.7617187,0.46875 H 1.9577266 V 6.25e-5 c 0.4101562,-0.03515625 0.9375,-0.03515625 1.3476562,-0.03515625 0.421875,0 0.9492188,0 1.359375,0.03515625 V -0.304625 H 4.4538203 c -0.7382812,0 -0.7617187,-0.1171875 -0.7617187,-0.46875 V -1.6405625 H 4.6881953 V -1.9569687 H 3.6921016 v -4.5234375 c 0,-0.1992188 0,-0.2578125 -0.1523438,-0.2578125 -0.09375,0 -0.1171875,0 -0.1992187,0.1171875 l -3.05859379,4.6640625 v 0.3164062 z m 0.058594,-0.3164062 H 0.56319531 L 2.9889766,-5.6718125 Z m 3.3046875,-1.3125 v -0.234375 c 0,-2.5195313 1.2421875,-2.8828125 1.7460937,-2.8828125 0.234375,0 0.65625,0.058594 0.8789063,0.3984375 -0.1523438,0 -0.5507813,0 -0.5507813,0.4453125 0,0.3164062 0.234375,0.4570312 0.4570313,0.4570312 0.1640625,0 0.4570312,-0.082031 0.4570312,-0.46875 0,-0.5976562 -0.4335937,-1.078125 -1.265625,-1.078125 -1.2773437,0 -2.6132812,1.2890625 -2.6132812,3.4804688 0,2.6601562 1.1484375,3.37499995 2.0742187,3.37499995 1.1132813,0 2.0507813,-0.9375 2.0507813,-2.24999995 0,-1.265625 -0.8789063,-2.2265625 -1.9921875,-2.2265625 -0.6679688,0 -1.0429688,0.5039062 -1.2421875,0.984375 z m 1.1835937,3.21093745 c -0.6210937,0 -0.9257812,-0.59765625 -0.984375,-0.75 C 6.3171016,-1.2772812 6.3171016,-2.0741562 6.3171016,-2.2499375 c 0,-0.7734375 0.3164062,-1.7695312 1.21875,-1.7695312 0.1523437,0 0.609375,0 0.9257812,0.609375 0.1757813,0.375 0.1757813,0.8789062 0.1757813,1.3710937 0,0.4804688 0,0.9726563 -0.1640625,1.3359375 -0.3046875,0.59765625 -0.7617188,0.64453125 -0.9960936,0.64453125 z m 0,0"
       style="fill:#000000;fill-opacity:1;fill-rule:nonzero;stroke:none"
       aria-label="46"
       transform="matrix(1.3333333,0,0,1.3333333,121.18267,18.718667)" />
    <path
       id="path12"
       d="M 2.5423438,2.4962344 V 2.0977969 H 1.5696875 V -7.0779844 H 2.5423438 V -7.4764219 H 1.17125 v 9.9726563 z m 3.1201171,-6 c 0.8085938,-0.2695313 1.3945313,-0.9726563 1.3945313,-1.7578125 0,-0.8203125 -0.8789063,-1.3710938 -1.8398438,-1.3710938 -1.0078125,0 -1.7578125,0.5976563 -1.7578125,1.3476563 0,0.3398437 0.2109375,0.5273437 0.5039063,0.5273437 0.3046875,0 0.5039062,-0.2226562 0.5039062,-0.515625 0,-0.4921875 -0.46875,-0.4921875 -0.609375,-0.4921875 0.3046875,-0.4921875 0.9609375,-0.6210937 1.3242188,-0.6210937 0.4101562,0 0.9492187,0.2226562 0.9492187,1.1132812 0,0.1289063 -0.011719,0.703125 -0.2695312,1.1367188 -0.3046875,0.4804687 -0.6445313,0.515625 -0.890625,0.515625 -0.082031,0.011719 -0.3164063,0.035156 -0.3867188,0.035156 -0.082031,0.011719 -0.1523437,0.023437 -0.1523437,0.1171875 0,0.1171875 0.070312,0.1171875 0.234375,0.1171875 h 0.4453125 c 0.8085937,0 1.1835937,0.6679688 1.1835937,1.6523438 0,1.34765623 -0.6914062,1.64062498 -1.125,1.64062498 -0.4335937,0 -1.171875,-0.17578125 -1.5234375,-0.76171875 0.3515625,0.0585938 0.65625,-0.1640625 0.65625,-0.53906253 0,-0.3632812 -0.2695312,-0.5625 -0.5625,-0.5625 -0.234375,0 -0.5507812,0.140625 -0.5507812,0.5742188 0,0.91406248 0.9257812,1.57031248 2.0039062,1.57031248 1.21875,0 2.1210938,-0.9140625 2.1210938,-1.92187498 0,-0.8203125 -0.6210938,-1.59375 -1.6523438,-1.8046873 z m 3.6679688,-3.9726563 h -1.359375 v 0.3984375 H 8.9319922 V 2.0977969 H 7.9710547 v 0.3984375 h 1.359375 z m 0,0"
       style="fill:#000000;fill-opacity:1;fill-rule:nonzero;stroke:none"
       aria-label="[3]"
       transform="matrix(1.3333333,0,0,1.3333333,120.81333,47.992)" />
    <path
       id="path13"
       d="m 102.75719,-10.63004 h 21.26009 v 21.26009 h -21.26009 z"
       style="fill:#ff8000;fill-opacity:1;fill-rule:nonzero;stroke:#000000;stroke-width:0.3985;stroke-linecap:butt;stroke-linejoin:miter;stroke-miterlimit:10;stroke-dasharray:none;stroke-opacity:1"
       transform="matrix(1.3333333,0,0,-1.3333333,14.438667,14.438667)" />
    <path
       id="path14"
       d="M 1.2669766,-0.76165625 2.3216641,-1.7929062 c 1.5585937,-1.3710938 2.15625,-1.9101563 2.15625,-2.90625 0,-1.1367188 -0.9023438,-1.9335938 -2.1210938,-1.9335938 -1.125,0 -1.85156249,0.9140625 -1.85156249,1.8046875 0,0.5507813 0.4921875,0.5507813 0.52734379,0.5507813 0.1640625,0 0.515625,-0.1171875 0.515625,-0.5273438 0,-0.2578125 -0.1875,-0.515625 -0.5273438,-0.515625 -0.0820312,0 -0.10546874,0 -0.12890624,0.011719 0.22265624,-0.6445313 0.76171874,-1.0195313 1.33593754,-1.0195313 0.9140625,0 1.3359375,0.8085938 1.3359375,1.6289063 0,0.796875 -0.4921875,1.5820312 -1.0429688,2.203125 L 0.61072656,-0.36321875 C 0.50525781,-0.25775 0.50525781,-0.2343125 0.50525781,6.25e-5 H 4.1966641 l 0.28125,-1.734375 H 4.2201016 c -0.046875,0.3046875 -0.1171875,0.73828125 -0.2109375,0.890625 -0.070312,0.0820313 -0.7265625,0.0820313 -0.9492188,0.0820313 z m 5.34375,-3.78515625 C 6.1419766,-4.8515 6.1068203,-5.1913437 6.1068203,-5.3554062 c 0,-0.609375 0.6445313,-1.03125 1.359375,-1.03125 0.7265625,0 1.359375,0.515625 1.359375,1.2421875 0,0.5625 -0.3867187,1.0429687 -0.984375,1.3945312 z m 1.453125,0.9375 c 0.7148437,-0.3632812 1.2070312,-0.8789062 1.2070312,-1.5351562 0,-0.9257813 -0.890625,-1.4882813 -1.7929687,-1.4882813 -0.9960938,0 -1.8046875,0.7382813 -1.8046875,1.6640625 0,0.1757813 0.011719,0.6210938 0.4335937,1.0898438 0.1054688,0.1289062 0.4804688,0.375 0.7265625,0.5390625 -0.5742187,0.2929687 -1.4296875,0.84375 -1.4296875,1.8398437 0,1.0546875 1.0078125,1.72265625 2.0625,1.72265625 1.125,0 2.0625,-0.83203125 2.0625,-1.89843745 0,-0.3515625 -0.1054687,-0.8085938 -0.4804687,-1.21875 -0.1875,-0.2109375 -0.3515625,-0.3164063 -0.984375,-0.7148438 z m -0.9960938,0.421875 1.21875,0.7734375 c 0.28125,0.1875 0.75,0.4921875 0.75,1.1015625 0,0.73828125 -0.75,1.25390625 -1.5585937,1.25390625 -0.8671875,0 -1.5820313,-0.62109375 -1.5820313,-1.44140625 0,-0.5859375 0.3164063,-1.21875 1.171875,-1.6875 z m 0,0"
       style="fill:#000000;fill-opacity:1;fill-rule:nonzero;stroke:none"
       aria-label="28"
       transform="matrix(1.3333333,0,0,1.3333333,158.97867,18.718667)" />
    <path
       id="path15"
       d="M 2.543,2.4962344 V 2.0977969 H 1.5703438 V -7.0779844 H 2.543 V -7.4764219 H 1.1719063 v 9.9726563 z m 3.1552734,-4.1367188 v 0.86718753 c 0,0.3515625 -0.023437,0.46875 -0.7617187,0.46875 H 4.7256172 V 1.40625e-4 c 0.4101562,-0.035156245 0.9375,-0.035156245 1.3476562,-0.035156245 0.421875,0 0.9492188,0 1.359375,0.035156245 V -0.30454687 H 7.2217109 c -0.7382812,0 -0.7617187,-0.1171875 -0.7617187,-0.46875 V -1.6404844 H 7.4560859 V -1.9568906 H 6.4599922 v -4.5234375 c 0,-0.1992188 0,-0.2578125 -0.1523438,-0.2578125 -0.09375,0 -0.1171875,0 -0.1992187,0.1171875 l -3.0585938,4.6640625 v 0.3164062 z m 0.058594,-0.3164062 H 3.3310859 l 2.4257813,-3.7148438 z m 3.5742187,-5.5195313 h -1.359375 v 0.3984375 H 8.9326484 V 2.0977969 H 7.9717109 v 0.3984375 h 1.359375 z m 0,0"
       style="fill:#000000;fill-opacity:1;fill-rule:nonzero;stroke:none"
       aria-label="[4]"
       transform="matrix(1.3333333,0,0,1.3333333,158.60933,47.992)" />
    <path
       id="path16"
       d="m 131.104,-10.63004 h 21.26009 V 10.63005 H 131.104 Z"
       style="fill:#ff8000;fill-opacity:1;fill-rule:nonzero;stroke:#000000;stroke-width:0.3985;stroke-linecap:butt;stroke-linejoin:miter;stroke-miterlimit:10;stroke-dasharray:none;stroke-opacity:1"
       transform="matrix(1.3333333,0,0,-1.3333333,14.438667,14.438667)" />
    <path
       id="path17"
       d="m 4.7461719,-6.07025 c 0.082031,-0.1171875 0.082031,-0.140625 0.082031,-0.3398437 H 2.4141406 c -1.21875,0 -1.2421875,-0.1289063 -1.2773437,-0.328125 H 0.89070312 l -0.328125,2.0507812 h 0.24609375 c 0.0234375,-0.1523437 0.1171875,-0.7851562 0.24609373,-0.9023437 0.070312,-0.058594 0.84375,-0.058594 0.9726563,-0.058594 h 2.0625 c -0.1054688,0.1640625 -0.890625,1.2421875 -1.1132813,1.5703125 -0.890625,1.3476563 -1.21875,2.7304688 -1.21875,3.75 0,0.09375 0,0.55078125 0.4570313,0.55078125 0.4570312,0 0.4570312,-0.45703125 0.4570312,-0.55078125 v -0.50390625 c 0,-0.55078125 0.023437,-1.10156245 0.1054688,-1.64062495 0.046875,-0.2226563 0.1757812,-1.078125 0.6210937,-1.6992188 z m 1.5,5.30859375 1.0546875,-1.03124995 c 1.5585937,-1.3710938 2.15625,-1.9101563 2.15625,-2.90625 0,-1.1367188 -0.9023438,-1.9335938 -2.1210938,-1.9335938 -1.125,0 -1.8515625,0.9140625 -1.8515625,1.8046875 0,0.5507813 0.4921875,0.5507813 0.5273438,0.5507813 0.1640625,0 0.515625,-0.1171875 0.515625,-0.5273438 0,-0.2578125 -0.1875,-0.515625 -0.5273438,-0.515625 -0.082031,0 -0.1054687,0 -0.1289062,0.011719 0.2226562,-0.6445313 0.7617187,-1.0195313 1.3359375,-1.0195313 0.9140625,0 1.3359375,0.8085938 1.3359375,1.6289063 0,0.796875 -0.4921875,1.5820312 -1.0429688,2.203125 L 5.5899219,-0.36321875 C 5.4844531,-0.25775 5.4844531,-0.2343125 5.4844531,6.25e-5 h 3.6914063 l 0.28125,-1.734375 H 9.1992969 c -0.046875,0.3046875 -0.1171875,0.73828125 -0.2109375,0.890625 -0.070312,0.0820313 -0.7265625,0.0820313 -0.9492188,0.0820313 z m 0,0"
       style="fill:#000000;fill-opacity:1;fill-rule:nonzero;stroke:none"
       aria-label="72"
       transform="matrix(1.3333333,0,0,1.3333333,196.77333,18.718667)" />
    <path
       id="path18"
       d="M 2.5417266,2.4962344 V 2.0977969 H 1.5690703 V -7.0779844 H 2.5417266 V -7.4764219 H 1.1706328 v 9.9726563 z m 4.7021484,-4.5 c 0,-1.1835938 -0.8203125,-2.1796875 -1.8984375,-2.1796875 -0.4804687,0 -0.9023437,0.1640625 -1.265625,0.5039062 v -1.9335937 c 0.1992188,0.058594 0.5273438,0.1289062 0.84375,0.1289062 1.2304688,0 1.9335938,-0.9140625 1.9335938,-1.0429687 0,-0.058594 -0.035156,-0.1054688 -0.1054688,-0.1054688 -0.011719,0 -0.035156,0 -0.082031,0.023437 -0.1992188,0.09375 -0.6796875,0.2929688 -1.3476563,0.2929688 -0.3984375,0 -0.8554687,-0.070312 -1.3242187,-0.28125 -0.082031,-0.023437 -0.1054688,-0.023437 -0.1289063,-0.023437 -0.09375,0 -0.09375,0.082031 -0.09375,0.234375 v 2.953125 c 0,0.1757812 0,0.2578125 0.140625,0.2578125 0.070312,0 0.082031,-0.035156 0.1289063,-0.09375 C 4.150125,-3.4217344 4.525125,-3.9607969 5.322,-3.9607969 c 0.5273438,0 0.7734375,0.4570313 0.8554688,0.6328125 0.1523437,0.375 0.1757812,0.7617188 0.1757812,1.2539063 0,0.3515625 0,0.9492187 -0.234375,1.37109373 -0.2460937,0.38671875 -0.609375,0.64453125 -1.0664062,0.64453125 -0.7265625,0 -1.3007813,-0.52734375 -1.4648438,-1.11328128 0.023437,0.011719 0.058594,0.011719 0.1640625,0.011719 0.328125,0 0.5039063,-0.2460938 0.5039063,-0.4804688 0,-0.2460937 -0.1757813,-0.4921875 -0.5039063,-0.4921875 -0.140625,0 -0.4804687,0.070312 -0.4804687,0.5273438 0,0.85546873 0.6796875,1.82812498 1.7929687,1.82812498 1.1601563,0 2.1796875,-0.9609375 2.1796875,-2.22656268 z m 2.0859375,-5.4726563 h -1.359375 v 0.3984375 H 8.931375 V 2.0977969 H 7.9704375 v 0.3984375 h 1.359375 z m 0,0"
       style="fill:#000000;fill-opacity:1;fill-rule:nonzero;stroke:none"
       aria-label="[5]"
       transform="matrix(1.3333333,0,0,1.3333333,196.404,47.992)" />
    <path
       id="path19"
       d="m 159.4508,-10.63004 h 21.26009 V 10.63005 H 159.4508 Z"
       style="fill:#ff8000;fill-opacity:1;fill-rule:nonzero;stroke:#000000;stroke-width:0.3985;stroke-linecap:butt;stroke-linejoin:miter;stroke-miterlimit:10;stroke-dasharray:none;stroke-opacity:1"
       transform="matrix(1.3333333,0,0,-1.3333333,14.438667,14.438667)" />
    <path
       id="path20"
       d="m 3.6550547,-3.164 v 0.3164063 c 0,2.3320312 -1.03125,2.78906245 -1.6171875,2.78906245 -0.1640625,0 -0.703125,-0.0234375 -0.9726563,-0.36328125 0.4335938,0 0.515625,-0.28125 0.515625,-0.45703125 0,-0.30468745 -0.234375,-0.45703125 -0.4570312,-0.45703125 -0.16406251,0 -0.45703126,0.09375 -0.45703126,0.48046875 0,0.66796875 0.53906246,1.078125 1.38281246,1.078125 1.2890625,0 2.4960938,-1.35937495 2.4960938,-3.50390625 0,-2.671875 -1.1367188,-3.3515625 -2.0273438,-3.3515625 -0.5507812,0 -1.03125,0.1757813 -1.4648437,0.6210938 -0.41015626,0.4570312 -0.63281251,0.8671875 -0.63281251,1.6171875 0,1.2421875 0.87890621,2.2265625 1.99218751,2.2265625 0.609375,0 1.0078125,-0.421875 1.2421875,-0.9960938 z m -1.2304688,0.7617188 c -0.1640625,0 -0.6210937,0 -0.9257812,-0.6210938 -0.1875,-0.375 -0.1875,-0.8671875 -0.1875,-1.359375 0,-0.5390625 0,-1.0078125 0.2109375,-1.3710937 0.2695312,-0.5039063 0.6445312,-0.6328125 0.9960937,-0.6328125 0.4570313,0 0.7851563,0.3398437 0.9609375,0.7851562 0.1171875,0.3164063 0.1523438,0.9492188 0.1523438,1.40625 0,0.8320313 -0.3398438,1.7929688 -1.2070313,1.7929688 z m 3.8701172,-0.8671875 v -0.234375 c 0,-2.5195313 1.2421875,-2.8828125 1.7460938,-2.8828125 0.234375,0 0.65625,0.058594 0.8789062,0.3984375 -0.1523437,0 -0.5507812,0 -0.5507812,0.4453125 0,0.3164062 0.234375,0.4570312 0.4570312,0.4570312 0.1640625,0 0.4570313,-0.082031 0.4570313,-0.46875 0,-0.5976562 -0.4335938,-1.078125 -1.265625,-1.078125 -1.2773438,0 -2.6132813,1.2890625 -2.6132813,3.4804688 0,2.6601562 1.1484375,3.37499995 2.0742188,3.37499995 1.1132812,0 2.0507812,-0.9375 2.0507812,-2.24999995 0,-1.265625 -0.8789062,-2.2265625 -1.9921875,-2.2265625 -0.6679687,0 -1.0429687,0.5039062 -1.2421875,0.984375 z m 1.1835938,3.21093745 c -0.6210938,0 -0.9257813,-0.59765625 -0.984375,-0.75 C 6.3181406,-1.2772812 6.3181406,-2.0741562 6.3181406,-2.2499375 c 0,-0.7734375 0.3164063,-1.7695312 1.21875,-1.7695312 0.1523438,0 0.609375,0 0.9257813,0.609375 0.1757812,0.375 0.1757812,0.8789062 0.1757812,1.3710937 0,0.4804688 0,0.9726563 -0.1640625,1.3359375 -0.3046875,0.59765625 -0.7617187,0.64453125 -0.9960937,0.64453125 z m 0,0"
       style="fill:#000000;fill-opacity:1;fill-rule:nonzero;stroke:none"
       aria-label="96"
       transform="matrix(1.3333333,0,0,1.3333333,234.568,18.718667)" />
    <path
       id="path21"
       d="M 2.5423828,2.4962344 V 2.0977969 H 1.5697266 V -7.0779844 H 2.5423828 V -7.4764219 H 1.1712891 v 9.9726563 z m 1.5380859,-5.765625 v -0.234375 c 0,-2.5195313 1.2421875,-2.8828125 1.7460938,-2.8828125 0.234375,0 0.65625,0.058594 0.8789062,0.3984375 -0.1523437,0 -0.5507812,0 -0.5507812,0.4453125 0,0.3164062 0.234375,0.4570312 0.4570312,0.4570312 0.1640625,0 0.4570313,-0.082031 0.4570313,-0.46875 0,-0.5976562 -0.4335938,-1.078125 -1.265625,-1.078125 -1.2773438,0 -2.6132813,1.2890625 -2.6132813,3.4804688 0,2.66015623 1.1484375,3.37499998 2.0742188,3.37499998 1.1132812,0 2.0507812,-0.9375 2.0507812,-2.24999998 0,-1.265625 -0.8789062,-2.2265625 -1.9921875,-2.2265625 -0.6679687,0 -1.0429687,0.5039062 -1.2421875,0.984375 z m 1.1835938,3.21093748 c -0.6210938,0 -0.9257813,-0.59765625 -0.984375,-0.75 C 4.1039062,-1.2772031 4.1039062,-2.0740781 4.1039062,-2.2498594 c 0,-0.7734375 0.3164063,-1.7695312 1.21875,-1.7695312 0.1523438,0 0.609375,0 0.9257813,0.609375 0.1757812,0.375 0.1757812,0.8789062 0.1757812,1.3710937 0,0.4804688 0,0.9726563 -0.1640625,1.33593753 -0.3046875,0.59765625 -0.7617187,0.64453125 -0.9960937,0.64453125 z M 9.3304687,-7.4764219 h -1.359375 v 0.3984375 H 8.9320312 V 2.0977969 H 7.9710937 v 0.3984375 h 1.359375 z m 0,0"
       style="fill:#000000;fill-opacity:1;fill-rule:nonzero;stroke:none"
       aria-label="[6]"
       transform="matrix(1.3333333,0,0,1.3333333,234.2,47.992)" />
    <path
       id="path22"
       d="m 187.79762,-10.63004 h 21.26009 v 21.26009 h -21.26009 z"
       style="fill:#ff8000;fill-opacity:1;fill-rule:nonzero;stroke:#000000;stroke-width:0.3985;stroke-linecap:butt;stroke-linejoin:miter;stroke-miterlimit:10;stroke-dasharray:none;stroke-opacity:1"
       transform="matrix(1.3333333,0,0,-1.3333333,14.438667,14.438667)" />
    <path
       id="path23"
       d="M 1.6283672,-4.5468125 C 1.1596172,-4.8515 1.1244609,-5.1913437 1.1244609,-5.3554062 c 0,-0.609375 0.6445313,-1.03125 1.359375,-1.03125 0.7265625,0 1.359375,0.515625 1.359375,1.2421875 0,0.5625 -0.3867187,1.0429687 -0.984375,1.3945312 z m 1.453125,0.9375 c 0.7148437,-0.3632812 1.2070312,-0.8789062 1.2070312,-1.5351562 0,-0.9257813 -0.890625,-1.4882813 -1.7929687,-1.4882813 -0.9960938,0 -1.80468751,0.7382813 -1.80468751,1.6640625 0,0.1757813 0.0117188,0.6210938 0.43359371,1.0898438 0.1054688,0.1289062 0.4804688,0.375 0.7265625,0.5390625 -0.5742187,0.2929687 -1.42968746,0.84375 -1.42968746,1.8398437 0,1.0546875 1.00781246,1.72265625 2.06249996,1.72265625 1.125,0 2.0625,-0.83203125 2.0625,-1.89843745 0,-0.3515625 -0.1054687,-0.8085938 -0.4804687,-1.21875 -0.1875,-0.2109375 -0.3515625,-0.3164063 -0.984375,-0.7148438 z m -0.9960938,0.421875 1.21875,0.7734375 c 0.28125,0.1875 0.75,0.4921875 0.75,1.1015625 0,0.73828125 -0.75,1.25390625 -1.5585937,1.25390625 -0.8671875,0 -1.58203126,-0.62109375 -1.58203126,-1.44140625 0,-0.5859375 0.31640626,-1.21875 1.17187496,-1.6875 z M 9.7260234,-6.07025 c 0.082031,-0.1171875 0.082031,-0.140625 0.082031,-0.3398437 H 7.3939922 c -1.21875,0 -1.2421875,-0.1289063 -1.2773438,-0.328125 H 5.8705547 l -0.328125,2.0507812 h 0.2460937 c 0.023437,-0.1523437 0.1171875,-0.7851562 0.2460938,-0.9023437 0.070312,-0.058594 0.84375,-0.058594 0.9726562,-0.058594 h 2.0625 c -0.1054687,0.1640625 -0.890625,1.2421875 -1.1132812,1.5703125 -0.890625,1.3476563 -1.21875,2.7304688 -1.21875,3.75 0,0.09375 0,0.55078125 0.4570312,0.55078125 0.4570313,0 0.4570313,-0.45703125 0.4570313,-0.55078125 v -0.50390625 c 0,-0.55078125 0.023437,-1.10156245 0.1054687,-1.64062495 0.046875,-0.2226563 0.1757813,-1.078125 0.6210938,-1.6992188 z m 0,0"
       style="fill:#000000;fill-opacity:1;fill-rule:nonzero;stroke:none"
       aria-label="87"
       transform="matrix(1.3333333,0,0,1.3333333,272.364,18.718667)" />
    <path
       id="path24"
       d="M 2.5440391,2.4962344 V 2.0977969 H 1.5713828 V -7.0779844 H 2.5440391 V -7.4764219 H 1.1729453 v 9.9726563 z m 4.96875,-8.5664063 c 0.082031,-0.1171875 0.082031,-0.140625 0.082031,-0.3398437 H 5.1807578 c -1.21875,0 -1.2421875,-0.1289063 -1.2773437,-0.328125 H 3.6573203 l -0.328125,2.0507812 h 0.2460938 c 0.023437,-0.1523437 0.1171875,-0.7851562 0.2460937,-0.9023437 0.070312,-0.058594 0.84375,-0.058594 0.9726563,-0.058594 h 2.0625 c -0.1054688,0.1640625 -0.890625,1.2421875 -1.1132813,1.5703125 -0.890625,1.3476563 -1.21875,2.7304688 -1.21875,3.75000003 0,0.09375 0,0.55078125 0.4570313,0.55078125 0.4570312,0 0.4570312,-0.45703125 0.4570312,-0.55078125 v -0.50390625 c 0,-0.55078128 0.023437,-1.10156248 0.1054688,-1.64062498 0.046875,-0.2226563 0.1757812,-1.078125 0.6210937,-1.6992188 z m 1.8193359,-1.40625 H 7.97275 v 0.3984375 H 8.9336875 V 2.0977969 H 7.97275 v 0.3984375 h 1.359375 z m 0,0"
       style="fill:#000000;fill-opacity:1;fill-rule:nonzero;stroke:none"
       aria-label="[7]"
       transform="matrix(1.3333333,0,0,1.3333333,271.99467,47.992)" />
    <path
       id="path25"
       d="m 216.14442,-10.63004 h 21.26009 v 21.26009 h -21.26009 z"
       style="fill:#ff8000;fill-opacity:1;fill-rule:nonzero;stroke:#000000;stroke-width:0.3985;stroke-linecap:butt;stroke-linejoin:miter;stroke-miterlimit:10;stroke-dasharray:none;stroke-opacity:1"
       transform="matrix(1.3333333,0,0,-1.3333333,14.438667,14.438667)" />
    <path
       id="path26"
       d="m 2.9308047,-1.6405625 v 0.8671875 c 0,0.3515625 -0.023437,0.46875 -0.7617188,0.46875 H 1.9581484 V 6.25e-5 c 0.4101563,-0.03515625 0.9375,-0.03515625 1.3476563,-0.03515625 0.421875,0 0.9492187,0 1.359375,0.03515625 V -0.304625 H 4.4542422 c -0.7382813,0 -0.7617188,-0.1171875 -0.7617188,-0.46875 V -1.6405625 H 4.6886172 V -1.9569687 H 3.6925234 v -4.5234375 c 0,-0.1992188 0,-0.2578125 -0.1523437,-0.2578125 -0.09375,0 -0.1171875,0 -0.1992188,0.1171875 l -3.05859371,4.6640625 v 0.3164062 z m 0.058594,-0.3164062 H 0.56361719 L 2.9893984,-5.6718125 Z m 3.2578125,1.19531245 1.0546875,-1.03124995 c 1.5585938,-1.3710938 2.15625,-1.9101563 2.15625,-2.90625 0,-1.1367188 -0.9023437,-1.9335938 -2.1210937,-1.9335938 -1.125,0 -1.8515625,0.9140625 -1.8515625,1.8046875 0,0.5507813 0.4921875,0.5507813 0.5273437,0.5507813 0.1640625,0 0.515625,-0.1171875 0.515625,-0.5273438 0,-0.2578125 -0.1875,-0.515625 -0.5273437,-0.515625 -0.082031,0 -0.1054688,0 -0.1289063,0.011719 0.2226563,-0.6445313 0.7617188,-1.0195313 1.3359375,-1.0195313 0.9140625,0 1.3359375,0.8085938 1.3359375,1.6289063 0,0.796875 -0.4921875,1.5820312 -1.0429687,2.203125 L 5.5909609,-0.36321875 C 5.4854922,-0.25775 5.4854922,-0.2343125 5.4854922,6.25e-5 h 3.6914062 l 0.28125,-1.734375 H 9.2003359 c -0.046875,0.3046875 -0.1171875,0.73828125 -0.2109375,0.890625 -0.070312,0.0820313 -0.7265625,0.0820313 -0.9492187,0.0820313 z m 0,0"
       style="fill:#000000;fill-opacity:1;fill-rule:nonzero;stroke:none"
       aria-label="42"
       transform="matrix(1.3333333,0,0,1.3333333,310.15867,18.718667)" />
    <path
       id="path27"
       d="M 2.5417656,2.4962344 V 2.0977969 H 1.5691094 V -7.0779844 H 2.5417656 V -7.4764219 H 1.1706719 v 9.9726563 z m 1.8544922,-7.0429688 c -0.46875,-0.3046875 -0.5039062,-0.6445312 -0.5039062,-0.8085937 0,-0.609375 0.6445312,-1.03125 1.359375,-1.03125 0.7265625,0 1.359375,0.515625 1.359375,1.2421875 0,0.5625 -0.3867188,1.0429687 -0.984375,1.3945312 z m 1.453125,0.9375 c 0.7148438,-0.3632812 1.2070313,-0.8789062 1.2070313,-1.5351562 0,-0.9257813 -0.890625,-1.4882813 -1.7929688,-1.4882813 -0.9960937,0 -1.8046875,0.7382813 -1.8046875,1.6640625 0,0.1757813 0.011719,0.6210938 0.4335938,1.0898438 0.1054687,0.1289062 0.4804687,0.375 0.7265625,0.5390625 -0.5742188,0.2929687 -1.4296875,0.84375 -1.4296875,1.8398437 0,1.05468753 1.0078125,1.72265628 2.0625,1.72265628 1.125,0 2.0625,-0.83203125 2.0625,-1.89843748 0,-0.3515625 -0.1054688,-0.8085938 -0.4804688,-1.21875 -0.1875,-0.2109375 -0.3515625,-0.3164063 -0.984375,-0.7148438 z m -0.9960937,0.421875 1.21875,0.7734375 c 0.28125,0.1875 0.75,0.4921875 0.75,1.1015625 0,0.73828128 -0.75,1.25390628 -1.5585938,1.25390628 -0.8671875,0 -1.5820312,-0.62109375 -1.5820312,-1.44140628 0,-0.5859375 0.3164062,-1.21875 1.171875,-1.6875 z m 4.4765625,-4.2890625 h -1.359375 v 0.3984375 H 8.9314141 V 2.0977969 H 7.9704766 v 0.3984375 h 1.359375 z m 0,0"
       style="fill:#000000;fill-opacity:1;fill-rule:nonzero;stroke:none"
       aria-label="[8]"
       transform="matrix(1.3333333,0,0,1.3333333,309.79067,47.992)" />
    <path
       id="path28"
       d="m 244.49124,-10.63004 h 21.26009 v 21.26009 h -21.26009 z"
       style="fill:#ff8000;fill-opacity:1;fill-rule:nonzero;stroke:#000000;stroke-width:0.3985;stroke-linecap:butt;stroke-linejoin:miter;stroke-miterlimit:10;stroke-dasharray:none;stroke-opacity:1"
       transform="matrix(1.3333333,0,0,-1.3333333,14.438667,14.438667)" />
    <path
       id="path29"
       d="m 3.6550937,-3.164 v 0.3164063 c 0,2.3320312 -1.03125,2.78906245 -1.6171875,2.78906245 -0.1640625,0 -0.703125,-0.0234375 -0.9726562,-0.36328125 0.4335937,0 0.515625,-0.28125 0.515625,-0.45703125 0,-0.30468745 -0.234375,-0.45703125 -0.4570313,-0.45703125 -0.16406245,0 -0.4570312,0.09375 -0.4570312,0.48046875 0,0.66796875 0.5390625,1.078125 1.3828125,1.078125 1.2890625,0 2.4960937,-1.35937495 2.4960937,-3.50390625 0,-2.671875 -1.1367187,-3.3515625 -2.0273437,-3.3515625 -0.5507813,0 -1.03125,0.1757813 -1.4648438,0.6210938 -0.4101562,0.4570312 -0.63281245,0.8671875 -0.63281245,1.6171875 0,1.2421875 0.87890625,2.2265625 1.99218745,2.2265625 0.609375,0 1.0078125,-0.421875 1.2421875,-0.9960938 z M 2.424625,-2.4022812 c -0.1640625,0 -0.6210938,0 -0.9257813,-0.6210938 -0.1875,-0.375 -0.1875,-0.8671875 -0.1875,-1.359375 0,-0.5390625 0,-1.0078125 0.2109375,-1.3710937 0.2695313,-0.5039063 0.6445313,-0.6328125 0.9960938,-0.6328125 0.4570312,0 0.7851562,0.3398437 0.9609375,0.7851562 0.1171875,0.3164063 0.1523437,0.9492188 0.1523437,1.40625 0,0.8320313 -0.3398437,1.7929688 -1.2070312,1.7929688 z M 6.6111484,-4.5468125 C 6.1423984,-4.8515 6.1072422,-5.1913437 6.1072422,-5.3554062 c 0,-0.609375 0.6445312,-1.03125 1.359375,-1.03125 0.7265625,0 1.359375,0.515625 1.359375,1.2421875 0,0.5625 -0.3867188,1.0429687 -0.984375,1.3945312 z m 1.453125,0.9375 c 0.7148438,-0.3632812 1.2070313,-0.8789062 1.2070313,-1.5351562 0,-0.9257813 -0.890625,-1.4882813 -1.7929688,-1.4882813 -0.9960937,0 -1.8046875,0.7382813 -1.8046875,1.6640625 0,0.1757813 0.011719,0.6210938 0.4335938,1.0898438 0.1054687,0.1289062 0.4804687,0.375 0.7265625,0.5390625 -0.5742188,0.2929687 -1.4296875,0.84375 -1.4296875,1.8398437 0,1.0546875 1.0078125,1.72265625 2.0625,1.72265625 1.125,0 2.0625,-0.83203125 2.0625,-1.89843745 0,-0.3515625 -0.1054688,-0.8085938 -0.4804688,-1.21875 -0.1875,-0.2109375 -0.3515625,-0.3164063 -0.984375,-0.7148438 z m -0.9960937,0.421875 1.21875,0.7734375 c 0.28125,0.1875 0.75,0.4921875 0.75,1.1015625 0,0.73828125 -0.75,1.25390625 -1.5585938,1.25390625 -0.8671875,0 -1.5820312,-0.62109375 -1.5820312,-1.44140625 0,-0.5859375 0.3164062,-1.21875 1.171875,-1.6875 z m 0,0"
       style="fill:#000000;fill-opacity:1;fill-rule:nonzero;stroke:none"
       aria-label="98"
       transform="matrix(1.3333333,0,0,1.3333333,347.95467,18.718667)" />
    <path
       id="path30"
       d="M 2.5434219,2.4962344 V 2.0977969 H 1.5707656 V -7.0779844 H 2.5434219 V -7.4764219 H 1.1723281 v 9.9726563 z m 3.8818359,-5.6601563 v 0.3164063 c 0,2.33203123 -1.03125,2.78906248 -1.6171875,2.78906248 -0.1640625,0 -0.703125,-0.0234375 -0.9726562,-0.36328125 0.4335937,0 0.515625,-0.28125 0.515625,-0.45703125 0,-0.30468748 -0.234375,-0.45703128 -0.4570313,-0.45703128 -0.1640625,0 -0.4570312,0.09375 -0.4570312,0.48046878 0,0.66796875 0.5390625,1.078125 1.3828125,1.078125 1.2890625,0 2.4960937,-1.35937498 2.4960937,-3.50390628 0,-2.671875 -1.1367187,-3.3515625 -2.0273437,-3.3515625 -0.5507813,0 -1.03125,0.1757813 -1.4648438,0.6210938 -0.4101562,0.4570312 -0.6328125,0.8671875 -0.6328125,1.6171875 0,1.2421875 0.8789063,2.2265625 1.9921875,2.2265625 0.609375,0 1.0078125,-0.421875 1.2421875,-0.9960938 z m -1.2304687,0.7617188 c -0.1640625,0 -0.6210938,0 -0.9257813,-0.6210938 -0.1875,-0.375 -0.1875,-0.8671875 -0.1875,-1.359375 0,-0.5390625 0,-1.0078125 0.2109375,-1.3710937 0.2695313,-0.5039063 0.6445313,-0.6328125 0.9960938,-0.6328125 0.4570312,0 0.7851562,0.3398437 0.9609375,0.7851562 0.1171875,0.3164063 0.1523437,0.9492188 0.1523437,1.40625 0,0.8320313 -0.3398437,1.7929688 -1.2070312,1.7929688 z m 4.1367187,-5.0742188 h -1.359375 v 0.3984375 H 8.9330703 V 2.0977969 H 7.9721328 v 0.3984375 h 1.359375 z m 0,0"
       style="fill:#000000;fill-opacity:1;fill-rule:nonzero;stroke:none"
       aria-label="[9]"
       transform="matrix(1.3333333,0,0,1.3333333,347.58533,47.992)" />
  </g>
</svg>
