<?xml version="1.0" encoding="UTF-8" standalone="no"?>
<svg
   viewBox="0 0 37 37.298069"
   shape-rendering="crispEdges"
   version="1.1"
   id="svg2"
   width="37"
   height="37.298069"
   xmlns="http://www.w3.org/2000/svg"
   xmlns:svg="http://www.w3.org/2000/svg">
  <defs
     id="defs2" />
  <path
     fill="#ffffff"
     d="M 7.1435547e-8,0.0762712 H 37 V 37.076272 H 7.1435547e-8 Z"
     id="path1" />
  <path
     stroke="#000000"
     d="m 3.9618645,0.5 h 6.9999995 m 2,0 h 4 m 2,0 h 5 m 2,0 h 7 m -28.9999995,1 h 1 m 5,0 h 0.9999995 m 2,0 h 1 m 2,0 h 1 m 4,0 h 1 m 2,0 h 1 m 1,0 h 1 m 5,0 h 1 M 3.9618645,2.5000005 h 1 m 1,0 h 3 m 1,0 h 0.9999995 m 1,0 h 2 m 1,0 h 2 m 1,0 h 1 m 1,0 h 1 m 3,0 h 1 m 1,0 h 1 m 1,0 h 3 m 1,0 h 1 m -28.9999995,1 h 1 m 1,0 h 3 m 1,0 h 0.9999995 m 1,0 h 1 m 1,0 h 1 m 1,0 h 1 m 3,0 h 2 m 1,0 h 1 m 2,0 h 1 m 1,0 h 3 m 1,0 h 1 m -28.9999995,1 h 1 m 1,0 h 3 m 1,0 h 0.9999995 m 1,0 h 3 m 1,0 h 4 m 3,0 h 2 m 1,0 h 1 m 1,0 h 3 m 1,0 h 1 m -28.9999995,1 h 1 m 5,0 h 0.9999995 m 1,0 h 1 m 1,0 h 1 m 2,0 h 4 m 1,0 h 1 m 1,0 h 1 m 1,0 h 1 m 5,0 h 1 m -28.9999995,1 h 6.9999995 m 1,0 h 1 m 1,0 h 1 m 1,0 h 1 m 1,0 h 1 m 1,0 h 1 m 1,0 h 1 m 1,0 h 1 m 1,0 h 7 m -21,1 h 1 m 1,0 h 4 m 1,0 h 1 m 2,0 h 3 m -20.9999995,1 h 1 m 1,0 h 4.9999995 m 2,0 h 2 m 1,0 h 1 m 1,0 h 2 m 1,0 h 3 m 2,0 h 5 M 3.9618645,9.5000009 h 1 m 1,0 h 4 m 1.9999995,0 h 1 m 3,0 h 1 m 2,0 h 2 m 1,0 h 3 m 1,0 h 3 m 3,0 h 1 M 4.9618645,10.500002 h 2 m 1,0 h 1 m 1,0 h 0.9999995 m 2,0 h 1 m 8,0 h 1 m 1,0 h 1 m 3,0 h 1 m -24.9999995,1 h 2 m 2,0 h 1 m 3.9999995,0 h 3 m 2,0 h 1 m 1,0 h 1 m 1,0 h 2 m 4,0 h 2 m 1,0 h 1 m -26.9999995,1 h 2 m 3,0 h 2.9999995 m 1,0 h 1 m 12,0 h 1 m 1,0 h 2 m -25.9999995,1 h 1 m 1,0 h 1 m 1,0 h 1 m 0.9999995,0 h 1 m 1,0 h 2 m 1,0 h 4 m 3,0 h 2 m 1,0 h 3 m 3,0 h 1 m -24.9999995,1 h 2.9999995 m 1,0 h 1 m 1,0 h 2 m 1,0 h 3 m 1,0 h 1 m 3,0 h 1 m 1,0 h 4 m -21.9999995,1 h 1 m 1.9999995,0 h 1 m 1,0 h 1 m 2,0 h 1 m 1,0 h 1 m 1,0 h 1 m 1,0 h 2 m 1,0 h 2 m 3,0 h 1 m -27.9999995,1 h 1 m 2,0 h 5.9999995 m 1,0 h 1 m 1,0 h 1 m 1,0 h 3 m 1,0 h 2 m 5,0 h 2 m -26.9999995,1 h 1 m 2,0 h 2 m 1.9999995,0 h 3 m 7,0 h 1 m 1,0 h 1 m 2,0 h 3 m 1,0 h 1 m 1,0 h 1 m -28.9999995,1 h 1 m 4,0 h 1.9999995 m 1,0 h 2 m 2,0 h 1 m 3,0 h 2 m 2,0 h 1 m 2,0 h 2 m 1,0 h 1 m -26.9999995,1 h 1 m 1,0 h 1 m 1,0 h 1 m 2.9999995,0 h 1 m 1,0 h 1 m 3,0 h 1 m 1,0 h 1 m 3,0 h 1 m 1,0 h 1 m 1,0 h 1 m 2,0 h 1 m -27.9999995,1 h 1 m 4,0 h 2.9999995 m 2,0 h 1 m 4,0 h 1 m 4,0 h 5 m 1,0 h 3 m -21,1 h 1 m 3,0 h 3 m 3,0 h 1 m 1,0 h 1 m 3,0 h 5 m -28.9999995,1 h 6.9999995 m 2,0 h 3 m 1,0 h 2 m 1,0 h 1 m 2,0 h 2 m 1,0 h 1 m 1,0 h 3 m -26.9999995,1 h 1 m 5,0 h 0.9999995 m 1,0 h 1 m 3,0 h 2 m 4,0 h 3 m 3,0 h 1 m 2,0 h 1 m -27.9999995,1 h 1 m 1,0 h 3 m 1,0 h 0.9999995 m 1,0 h 1 m 1,0 h 1 m 3,0 h 1 m 2,0 h 1 m 2,0 h 5 m 1,0 h 3 m -28.9999995,1 h 1 m 1,0 h 3 m 1,0 h 0.9999995 m 1,0 h 1 m 1,0 h 1 m 2,0 h 1 m 1,0 h 1 m 2,0 h 1 m 1,0 h 1 m 4,0 h 2 m -26.9999995,1 h 1 m 1,0 h 3 m 1,0 h 0.9999995 m 1,0 h 1 m 2,0 h 1 m 2,0 h 1 m 2,0 h 1 m 3,0 h 7 m -27.9999995,1 h 1 m 5,0 h 0.9999995 m 4,0 h 3 m 1,0 h 1 m 3,0 h 5 m 1,0 h 1 m 1,0 h 1 m -27.9999995,1 h 6.9999995 m 1,0 h 1 m 1,0 h 10 m 4,0 h 1 m 1,0 h 1"
     id="path2" />
  <text
     xml:space="preserve"
     style="font-size:8px;line-height:1.25;font-family:Helvetica;-inkscape-font-specification:'Helvetica, Normal';font-variant-ligatures:none;text-align:center;letter-spacing:0px;text-anchor:middle"
     x="17.521187"
     y="35.665257"
     id="text2"><tspan
       id="tspan2"
       x="17.521187"
       y="35.665257"
       style="font-size:8px">(4661)</tspan></text>
</svg>
