<?xml version="1.0" encoding="UTF-8" standalone="no"?>
<!-- Created with Inkscape (http://www.inkscape.org/) -->

<svg
   width="97.621529mm"
   height="26.252806mm"
   viewBox="0 0 97.621529 26.252806"
   version="1.1"
   id="svg1"
   xmlns:inkscape="http://www.inkscape.org/namespaces/inkscape"
   xmlns:sodipodi="http://sodipodi.sourceforge.net/DTD/sodipodi-0.dtd"
   xmlns="http://www.w3.org/2000/svg"
   xmlns:svg="http://www.w3.org/2000/svg">
  <sodipodi:namedview
     id="namedview1"
     pagecolor="#505050"
     bordercolor="#eeeeee"
     borderopacity="1"
     inkscape:showpageshadow="0"
     inkscape:pageopacity="0"
     inkscape:pagecheckerboard="0"
     inkscape:deskcolor="#505050"
     inkscape:document-units="mm">
    <inkscape:page
       x="0"
       y="0"
       width="97.621529"
       height="26.252806"
       id="page2"
       margin="0"
       bleed="0" />
  </sodipodi:namedview>
  <defs
     id="defs1">
    <clipPath
       clipPathUnits="userSpaceOnUse"
       id="clipPath4635">
      <path
         d="M 0,0 H 502 V 135 H 0 Z"
         transform="translate(-4.5352299e-5)"
         id="path4635" />
    </clipPath>
    <clipPath
       clipPathUnits="userSpaceOnUse"
       id="clipPath4636">
      <path
         d="M 0,0 H 502 V 135 H 0 Z"
         transform="translate(-4.5352299e-5)"
         id="path4636" />
    </clipPath>
    <clipPath
       clipPathUnits="userSpaceOnUse"
       id="clipPath4637">
      <path
         d="M 0,0 H 502 V 135 H 0 Z"
         transform="translate(-4.5352299e-5)"
         id="path4637" />
    </clipPath>
    <clipPath
       clipPathUnits="userSpaceOnUse"
       id="clipPath4638">
      <path
         d="M 0,0 H 502 V 135 H 0 Z"
         transform="matrix(1,0,0,-1,57.000036,357)"
         id="path4638" />
    </clipPath>
    <clipPath
       clipPathUnits="userSpaceOnUse"
       id="clipPath4639">
      <path
         d="M 0,0 H 502 V 135 H 0 Z"
         transform="matrix(1,0,0,-1,-5.6000109,106.6)"
         id="path4639" />
    </clipPath>
    <clipPath
       clipPathUnits="userSpaceOnUse"
       id="clipPath4640">
      <path
         d="M 0,0 H 502 V 135 H 0 Z"
         transform="translate(-4.5352299e-5)"
         id="path4640" />
    </clipPath>
    <clipPath
       clipPathUnits="userSpaceOnUse"
       id="clipPath4641">
      <path
         d="M 0,0 H 502 V 135 H 0 Z"
         transform="matrix(1,0,0,-1,57.000036,357)"
         id="path4641" />
    </clipPath>
    <clipPath
       clipPathUnits="userSpaceOnUse"
       id="clipPath4642">
      <path
         d="M 0,0 H 502 V 135 H 0 Z"
         transform="matrix(1,0,0,-1,-302.12797,106.6)"
         id="path4642" />
    </clipPath>
    <clipPath
       clipPathUnits="userSpaceOnUse"
       id="clipPath4643">
      <path
         d="M 0,0 H 502 V 135 H 0 Z"
         transform="translate(-4.5352299e-5)"
         id="path4643" />
    </clipPath>
    <clipPath
       clipPathUnits="userSpaceOnUse"
       id="clipPath4644">
      <path
         d="M 0,0 H 502 V 135 H 0 Z"
         transform="matrix(1,0,0,-1,57.000036,357)"
         id="path4644" />
    </clipPath>
    <clipPath
       clipPathUnits="userSpaceOnUse"
       id="clipPath4645">
      <path
         d="M 0,0 H 502 V 135 H 0 Z"
         transform="matrix(1,0,0,-1,-172.944,113.8)"
         id="path4645" />
    </clipPath>
    <clipPath
       clipPathUnits="userSpaceOnUse"
       id="clipPath4646">
      <path
         d="M 0,0 H 502 V 135 H 0 Z"
         transform="matrix(1,0,0,-1,-156.80003,95.352001)"
         id="path4646" />
    </clipPath>
    <clipPath
       clipPathUnits="userSpaceOnUse"
       id="clipPath4647">
      <path
         d="M 0,0 H 502 V 135 H 0 Z"
         transform="matrix(1,0,0,-1,57.000036,357)"
         id="path4647" />
    </clipPath>
    <clipPath
       clipPathUnits="userSpaceOnUse"
       id="clipPath4648">
      <path
         d="M 0,0 H 502 V 135 H 0 Z"
         transform="translate(-4.5352299e-5)"
         id="path4648" />
    </clipPath>
    <clipPath
       clipPathUnits="userSpaceOnUse"
       id="clipPath4649">
      <path
         d="M 0,0 H 502 V 135 H 0 Z"
         transform="matrix(1,0,0,-1,57.000036,357)"
         id="path4649" />
    </clipPath>
    <clipPath
       clipPathUnits="userSpaceOnUse"
       id="clipPath4650">
      <path
         d="M 0,0 H 502 V 135 H 0 Z"
         transform="matrix(1,0,0,-1,57.000036,357)"
         id="path4650" />
    </clipPath>
    <clipPath
       clipPathUnits="userSpaceOnUse"
       id="clipPath4651">
      <path
         d="M 0,0 H 502 V 135 H 0 Z"
         transform="translate(-4.5352299e-5)"
         id="path4651" />
    </clipPath>
    <clipPath
       clipPathUnits="userSpaceOnUse"
       id="clipPath4652">
      <path
         d="M 0,0 H 502 V 135 H 0 Z"
         transform="matrix(1,0,0,-1,57.000036,357)"
         id="path4652" />
    </clipPath>
    <clipPath
       clipPathUnits="userSpaceOnUse"
       id="clipPath4653">
      <path
         d="M 0,0 H 502 V 135 H 0 Z"
         transform="matrix(1,0,0,-1,57.000036,357)"
         id="path4653" />
    </clipPath>
    <clipPath
       clipPathUnits="userSpaceOnUse"
       id="clipPath4654">
      <path
         d="M 0,0 H 502 V 135 H 0 Z"
         transform="translate(-4.5352299e-5)"
         id="path4654" />
    </clipPath>
    <clipPath
       clipPathUnits="userSpaceOnUse"
       id="clipPath4655">
      <path
         d="M 0,0 H 502 V 135 H 0 Z"
         transform="matrix(1,0,0,-1,57.000036,357)"
         id="path4655" />
    </clipPath>
    <clipPath
       clipPathUnits="userSpaceOnUse"
       id="clipPath4656">
      <path
         d="M 0,0 H 502 V 135 H 0 Z"
         transform="matrix(1,0,0,-1,57.000036,357)"
         id="path4656" />
    </clipPath>
    <clipPath
       clipPathUnits="userSpaceOnUse"
       id="clipPath4657">
      <path
         d="M 0,0 H 502 V 135 H 0 Z"
         transform="translate(-4.5352299e-5)"
         id="path4657" />
    </clipPath>
    <clipPath
       clipPathUnits="userSpaceOnUse"
       id="clipPath4658">
      <path
         d="M 0,0 H 502 V 135 H 0 Z"
         transform="matrix(1,0,0,-1,57.000036,357)"
         id="path4658" />
    </clipPath>
    <clipPath
       clipPathUnits="userSpaceOnUse"
       id="clipPath4659">
      <path
         d="M 0,0 H 502 V 135 H 0 Z"
         transform="matrix(1,0,0,-1,57.000036,357)"
         id="path4659" />
    </clipPath>
    <clipPath
       clipPathUnits="userSpaceOnUse"
       id="clipPath4660">
      <path
         d="M 0,0 H 502 V 135 H 0 Z"
         transform="translate(-4.5352299e-5)"
         id="path4660" />
    </clipPath>
    <clipPath
       clipPathUnits="userSpaceOnUse"
       id="clipPath4661">
      <path
         d="M 0,0 H 502 V 135 H 0 Z"
         transform="matrix(1,0,0,-1,57.000036,357)"
         id="path4661" />
    </clipPath>
    <clipPath
       clipPathUnits="userSpaceOnUse"
       id="clipPath4662">
      <path
         d="M 0,0 H 502 V 135 H 0 Z"
         transform="matrix(1,0,0,-1,57.000036,357)"
         id="path4662" />
    </clipPath>
    <clipPath
       clipPathUnits="userSpaceOnUse"
       id="clipPath4663">
      <path
         d="M 0,0 H 502 V 135 H 0 Z"
         transform="translate(-4.5352299e-5)"
         id="path4663" />
    </clipPath>
    <clipPath
       clipPathUnits="userSpaceOnUse"
       id="clipPath4664">
      <path
         d="M 0,0 H 502 V 135 H 0 Z"
         transform="matrix(1,0,0,-1,57.000036,357)"
         id="path4664" />
    </clipPath>
    <clipPath
       clipPathUnits="userSpaceOnUse"
       id="clipPath4665">
      <path
         d="M 0,0 H 502 V 135 H 0 Z"
         transform="matrix(1,0,0,-1,57.000036,357)"
         id="path4665" />
    </clipPath>
    <clipPath
       clipPathUnits="userSpaceOnUse"
       id="clipPath4666">
      <path
         d="M 0,0 H 502 V 135 H 0 Z"
         transform="translate(-4.5352299e-5)"
         id="path4666" />
    </clipPath>
    <clipPath
       clipPathUnits="userSpaceOnUse"
       id="clipPath4667">
      <path
         d="M 0,0 H 502 V 135 H 0 Z"
         transform="matrix(1,0,0,-1,57.000036,357)"
         id="path4667" />
    </clipPath>
    <clipPath
       clipPathUnits="userSpaceOnUse"
       id="clipPath4668">
      <path
         d="M 0,0 H 502 V 135 H 0 Z"
         transform="matrix(1,0,0,-1,57.000036,357)"
         id="path4668" />
    </clipPath>
    <clipPath
       clipPathUnits="userSpaceOnUse"
       id="clipPath4669">
      <path
         d="M 0,0 H 502 V 135 H 0 Z"
         transform="translate(-4.5352299e-5)"
         id="path4669" />
    </clipPath>
    <clipPath
       clipPathUnits="userSpaceOnUse"
       id="clipPath4670">
      <path
         d="M 0,0 H 502 V 135 H 0 Z"
         transform="matrix(1,0,0,-1,57.000036,357)"
         id="path4670" />
    </clipPath>
    <clipPath
       clipPathUnits="userSpaceOnUse"
       id="clipPath4671">
      <path
         d="M 0,0 H 502 V 135 H 0 Z"
         transform="matrix(1,0,0,-1,57.000036,357)"
         id="path4671" />
    </clipPath>
    <clipPath
       clipPathUnits="userSpaceOnUse"
       id="clipPath4672">
      <path
         d="M 0,0 H 502 V 135 H 0 Z"
         transform="translate(-4.5352299e-5)"
         id="path4672" />
    </clipPath>
    <clipPath
       clipPathUnits="userSpaceOnUse"
       id="clipPath4673">
      <path
         d="M 0,0 H 502 V 135 H 0 Z"
         transform="matrix(1,0,0,-1,57.000036,357)"
         id="path4673" />
    </clipPath>
    <clipPath
       clipPathUnits="userSpaceOnUse"
       id="clipPath4674">
      <path
         d="M 0,0 H 502 V 135 H 0 Z"
         transform="translate(-4.5352299e-5)"
         id="path4674" />
    </clipPath>
    <clipPath
       clipPathUnits="userSpaceOnUse"
       id="clipPath4675">
      <path
         d="M 0,0 H 502 V 135 H 0 Z"
         transform="matrix(1,0,0,-1,57.000036,357)"
         id="path4675" />
    </clipPath>
    <clipPath
       clipPathUnits="userSpaceOnUse"
       id="clipPath4676">
      <path
         d="M 0,0 H 502 V 135 H 0 Z"
         transform="translate(-4.5352299e-5)"
         id="path4676" />
    </clipPath>
    <clipPath
       clipPathUnits="userSpaceOnUse"
       id="clipPath4677">
      <path
         d="M 0,0 H 502 V 135 H 0 Z"
         transform="matrix(1,0,0,-1,57.000036,357)"
         id="path4677" />
    </clipPath>
    <clipPath
       clipPathUnits="userSpaceOnUse"
       id="clipPath4678">
      <path
         d="M 0,0 H 502 V 135 H 0 Z"
         transform="translate(-4.5352299e-5)"
         id="path4678" />
    </clipPath>
    <clipPath
       clipPathUnits="userSpaceOnUse"
       id="clipPath4679">
      <path
         d="M 0,0 H 502 V 135 H 0 Z"
         transform="matrix(1,0,0,-1,57.000036,357)"
         id="path4679" />
    </clipPath>
    <clipPath
       clipPathUnits="userSpaceOnUse"
       id="clipPath4680">
      <path
         d="M 0,0 H 502 V 135 H 0 Z"
         transform="translate(-4.5352299e-5)"
         id="path4680" />
    </clipPath>
    <clipPath
       clipPathUnits="userSpaceOnUse"
       id="clipPath4681">
      <path
         d="M 0,0 H 502 V 135 H 0 Z"
         transform="matrix(1,0,0,-1,57.000036,357)"
         id="path4681" />
    </clipPath>
    <clipPath
       clipPathUnits="userSpaceOnUse"
       id="clipPath4682">
      <path
         d="M 0,0 H 502 V 135 H 0 Z"
         transform="matrix(1,0,0,-1,-91.999945,20.199999)"
         id="path4682" />
    </clipPath>
    <clipPath
       clipPathUnits="userSpaceOnUse"
       id="clipPath4683">
      <path
         d="M 0,0 H 502 V 135 H 0 Z"
         transform="matrix(1,0,0,-1,-245.10395,27.399994)"
         id="path4683" />
    </clipPath>
    <clipPath
       clipPathUnits="userSpaceOnUse"
       id="clipPath4684">
      <path
         d="M 0,0 H 502 V 135 H 0 Z"
         transform="matrix(1,0,0,-1,-228.79998,8.9519991)"
         id="path4684" />
    </clipPath>
    <clipPath
       clipPathUnits="userSpaceOnUse"
       id="clipPath4685">
      <path
         d="M 0,0 H 502 V 135 H 0 Z"
         transform="matrix(1,0,0,-1,57.000036,357)"
         id="path4685" />
    </clipPath>
    <clipPath
       clipPathUnits="userSpaceOnUse"
       id="clipPath4686">
      <path
         d="M 0,0 H 502 V 135 H 0 Z"
         transform="translate(-4.5352299e-5)"
         id="path4686" />
    </clipPath>
    <clipPath
       clipPathUnits="userSpaceOnUse"
       id="clipPath4687">
      <path
         d="M 0,0 H 502 V 135 H 0 Z"
         transform="matrix(1,0,0,-1,57.000036,357)"
         id="path4687" />
    </clipPath>
    <clipPath
       clipPathUnits="userSpaceOnUse"
       id="clipPath4688">
      <path
         d="M 0,0 H 502 V 135 H 0 Z"
         transform="matrix(1,0,0,-1,57.000036,357)"
         id="path4688" />
    </clipPath>
    <clipPath
       clipPathUnits="userSpaceOnUse"
       id="clipPath4689">
      <path
         d="m 168.344,33.20001 h 5.056 v 10.8 h -5.056 z"
         transform="matrix(0.62499998,0,0,-0.62499998,-105.04096,21.069871)"
         id="path4689" />
    </clipPath>
    <clipPath
       clipPathUnits="userSpaceOnUse"
       id="clipPath4690">
      <path
         d="m 319.544,33.20001 h 5.056 v 10.8 h -5.056 z"
         transform="matrix(0.62499998,0,0,-0.62499998,-199.54097,21.069871)"
         id="path4690" />
    </clipPath>
    <clipPath
       clipPathUnits="userSpaceOnUse"
       id="clipPath4691">
      <path
         d="M 471.944,29.80001 H 477 v 10.8 h -5.056 z"
         transform="matrix(0.62499998,0,0,-0.62499998,-294.791,18.944875)"
         id="path4691" />
    </clipPath>
    <clipPath
       clipPathUnits="userSpaceOnUse"
       id="clipPath4692">
      <path
         d="M 0,0 H 502 V 135 H 0 Z"
         transform="matrix(1,0,0,-1,-396.24805,20.199999)"
         id="path4692" />
    </clipPath>
    <clipPath
       clipPathUnits="userSpaceOnUse"
       id="clipPath4693">
      <path
         d="m 159,66.40001 h 45 v 17 h -45 z"
         transform="matrix(0.62499998,0,0,-0.62499998,-99.505997,44.44487)"
         id="path4693" />
    </clipPath>
    <clipPath
       clipPathUnits="userSpaceOnUse"
       id="clipPath4694">
      <path
         d="m 159,66.40001 h 45 v 17 h -45 z"
         transform="matrix(0.62499998,0,0,-0.62499998,-104.61502,44.44487)"
         id="path4694" />
    </clipPath>
    <clipPath
       clipPathUnits="userSpaceOnUse"
       id="clipPath4695">
      <path
         d="m 159,66.40001 h 45 v 17 h -45 z"
         transform="matrix(0.62499998,0,0,-0.62499998,-108.48898,44.44487)"
         id="path4695" />
    </clipPath>
    <clipPath
       clipPathUnits="userSpaceOnUse"
       id="clipPath4696">
      <path
         d="m 159,66.40001 h 45 v 17 h -45 z"
         transform="matrix(0.62499998,0,0,-0.62499998,-120.29098,42.949877)"
         id="path4696" />
    </clipPath>
    <clipPath
       clipPathUnits="userSpaceOnUse"
       id="clipPath4697">
      <path
         d="m 159,66.40001 h 45 v 17 h -45 z"
         transform="matrix(0.62499998,0,0,-0.62499998,-124.54999,44.44487)"
         id="path4697" />
    </clipPath>
    <clipPath
       clipPathUnits="userSpaceOnUse"
       id="clipPath4698">
      <path
         d="m 305.8,66.40001 h 26 v 17 h -26 z"
         transform="matrix(0.62499998,0,0,-0.62499998,-191.82799,44.44487)"
         id="path4698" />
    </clipPath>
    <clipPath
       clipPathUnits="userSpaceOnUse"
       id="clipPath4699">
      <path
         d="m 305.8,66.40001 h 26 v 17 h -26 z"
         transform="matrix(0.62499998,0,0,-0.62499998,-191.487,44.44487)"
         id="path4699" />
    </clipPath>
    <clipPath
       clipPathUnits="userSpaceOnUse"
       id="clipPath4700">
      <path
         d="m 305.8,66.40001 h 26 v 17 h -26 z"
         transform="matrix(0.62499998,0,0,-0.62499998,-196.59602,44.44487)"
         id="path4700" />
    </clipPath>
    <clipPath
       clipPathUnits="userSpaceOnUse"
       id="clipPath4701">
      <path
         d="m 305.8,66.40001 h 26 v 17 h -26 z"
         transform="matrix(0.62499998,0,0,-0.62499998,-200.47101,44.44487)"
         id="path4701" />
    </clipPath>
    <clipPath
       clipPathUnits="userSpaceOnUse"
       id="clipPath4702">
      <path
         d="m 305.8,66.40001 h 26 v 17 h -26 z"
         transform="matrix(0.62499998,0,0,-0.62499998,-204.06801,44.44487)"
         id="path4702" />
    </clipPath>
    <clipPath
       clipPathUnits="userSpaceOnUse"
       id="clipPath4703">
      <path
         d="m 475.8,80.80001 h 26 v 17 h -26 z"
         transform="matrix(0.62499998,0,0,-0.62499998,-297.73697,53.444871)"
         id="path4703" />
    </clipPath>
    <clipPath
       clipPathUnits="userSpaceOnUse"
       id="clipPath4704">
      <path
         d="m 475.8,80.80001 h 26 v 17 h -26 z"
         transform="matrix(0.62499998,0,0,-0.62499998,-302.84599,53.444871)"
         id="path4704" />
    </clipPath>
    <clipPath
       clipPathUnits="userSpaceOnUse"
       id="clipPath4705">
      <path
         d="m 475.8,80.80001 h 26 v 17 h -26 z"
         transform="matrix(0.62499998,0,0,-0.62499998,-306.72097,53.444871)"
         id="path4705" />
    </clipPath>
    <clipPath
       clipPathUnits="userSpaceOnUse"
       id="clipPath4706">
      <path
         d="m 475.8,80.80001 h 26 v 17 h -26 z"
         transform="matrix(0.62499998,0,0,-0.62499998,-310.31798,53.444871)"
         id="path4706" />
    </clipPath>
  </defs>
  <g
     inkscape:label="Layer 1"
     inkscape:groupmode="layer"
     id="layer1"
     transform="translate(-41.804127,56.356248)">
    <g
       id="g4771"
       transform="matrix(0.26458333,0,0,0.26458333,-2239.5219,-119.31565)">
      <path
         d="M 0,0 H 502 V 135 H 0 Z"
         style="fill:#ffffff;fill-opacity:1;fill-rule:nonzero;stroke:none"
         transform="matrix(0.73498667,0,0,-0.73498667,8622.3347,337.18)"
         clip-path="url(#clipPath4635)"
         id="path4707" />
      <path
         d="M 0,0 H 502 V 135 H 0 Z"
         style="fill:#ffffff;fill-opacity:1;fill-rule:nonzero;stroke:none"
         transform="matrix(0.73498667,0,0,-0.73498667,8622.3347,337.18)"
         clip-path="url(#clipPath4636)"
         id="path4708" />
      <path
         d="M 0.5999985,90.60001 H 108.6 v 43.2 H 0.5999985 Z"
         style="fill:#ffffff;fill-opacity:1;fill-rule:nonzero;stroke:none"
         transform="matrix(0.73498667,0,0,-0.73498667,8622.3347,337.18)"
         clip-path="url(#clipPath4637)"
         id="path4709" />
      <path
         d="m 57.6,223.2 h 108 v 43.2 h -108 z"
         style="fill:none;stroke:#000000;stroke-width:1;stroke-linecap:round;stroke-linejoin:round;stroke-miterlimit:10;stroke-dasharray:none;stroke-opacity:1"
         transform="matrix(0.73498667,0,0,0.73498667,8580.4404,74.78976)"
         clip-path="url(#clipPath4638)"
         id="path4710" />
      <text
         xml:space="preserve"
         transform="matrix(0.73498667,0,0,0.73498667,8626.4506,258.83042)"
         clip-path="url(#clipPath4639)"
         id="text4710"><tspan
           style="font-variant:normal;font-weight:normal;font-size:16px;font-family:'Helvetica Neue';writing-mode:lr-tb;fill:#000000;fill-opacity:1;fill-rule:nonzero;stroke:none"
           x="0"
           y="0"
           id="tspan4710">Data Channel</tspan></text>
      <path
         d="m 281.4,90.60001 h 108 v 43.2 h -108 z"
         style="fill:#ffffff;fill-opacity:1;fill-rule:nonzero;stroke:none"
         transform="matrix(0.73498667,0,0,-0.73498667,8622.3347,337.18)"
         clip-path="url(#clipPath4640)"
         id="path4711" />
      <path
         d="m 338.4,223.2 h 108 v 43.2 h -108 z"
         style="fill:none;stroke:#000000;stroke-width:1;stroke-linecap:round;stroke-linejoin:round;stroke-miterlimit:10;stroke-dasharray:none;stroke-opacity:1"
         transform="matrix(0.73498667,0,0,0.73498667,8580.4404,74.78976)"
         clip-path="url(#clipPath4641)"
         id="path4712" />
      <text
         xml:space="preserve"
         transform="matrix(0.73498667,0,0,0.73498667,8844.3947,258.83042)"
         clip-path="url(#clipPath4642)"
         id="text4712"><tspan
           style="font-variant:normal;font-weight:normal;font-size:16px;font-family:'Helvetica Neue';writing-mode:lr-tb;fill:#000000;fill-opacity:1;fill-rule:nonzero;stroke:none"
           x="0"
           y="0"
           id="tspan4712">Equalizer</tspan></text>
      <path
         d="m 137.4,90.60001 h 108 v 43.2 h -108 z"
         style="fill:#ffffff;fill-opacity:1;fill-rule:nonzero;stroke:none"
         transform="matrix(0.73498667,0,0,-0.73498667,8622.3347,337.18)"
         clip-path="url(#clipPath4643)"
         id="path4713" />
      <path
         d="m 194.4,223.2 h 108 v 43.2 h -108 z"
         style="fill:none;stroke:#000000;stroke-width:1;stroke-linecap:round;stroke-linejoin:round;stroke-miterlimit:10;stroke-dasharray:none;stroke-opacity:1"
         transform="matrix(0.73498667,0,0,0.73498667,8580.4404,74.78976)"
         clip-path="url(#clipPath4644)"
         id="path4714" />
      <text
         xml:space="preserve"
         transform="matrix(0.73498667,0,0,0.73498667,8749.4462,253.53852)"
         clip-path="url(#clipPath4645)"
         id="text4714"><tspan
           style="font-variant:normal;font-weight:normal;font-size:16px;font-family:'Helvetica Neue';writing-mode:lr-tb;fill:#000000;fill-opacity:1;fill-rule:nonzero;stroke:none"
           x="0"
           y="0"
           id="tspan4714">Pulse</tspan></text>
      <text
         xml:space="preserve"
         transform="matrix(0.73498667,0,0,0.73498667,8737.5806,267.09755)"
         clip-path="url(#clipPath4646)"
         id="text4715"><tspan
           style="font-variant:normal;font-weight:normal;font-size:16px;font-family:'Helvetica Neue';writing-mode:lr-tb;fill:#000000;fill-opacity:1;fill-rule:nonzero;stroke:none"
           x="0"
           y="0"
           id="tspan4715">Generator</tspan></text>
      <path
         d="m 165.6,244.8 h 18.9"
         style="fill:none;stroke:#000000;stroke-width:1;stroke-linecap:round;stroke-linejoin:round;stroke-miterlimit:10;stroke-dasharray:none;stroke-opacity:1"
         transform="matrix(0.73498667,0,0,0.73498667,8580.4404,74.78976)"
         clip-path="url(#clipPath4647)"
         id="path4715" />
      <path
         d="m 135.5,112.2 -8,3 v -6 z"
         style="fill:#000000;fill-opacity:1;fill-rule:nonzero;stroke:none"
         transform="matrix(0.73498667,0,0,-0.73498667,8622.3347,337.18)"
         clip-path="url(#clipPath4648)"
         id="path4716" />
      <path
         d="m 192.5,244.8 -8,-3 v 6 z"
         style="fill:none;stroke:#000000;stroke-width:1;stroke-linecap:butt;stroke-linejoin:miter;stroke-miterlimit:10;stroke-dasharray:none;stroke-opacity:1"
         transform="matrix(0.73498667,0,0,0.73498667,8580.4404,74.78976)"
         clip-path="url(#clipPath4649)"
         id="path4717" />
      <path
         d="m 302.4,244.8 h 26.1"
         style="fill:none;stroke:#000000;stroke-width:1;stroke-linecap:round;stroke-linejoin:round;stroke-miterlimit:10;stroke-dasharray:none;stroke-opacity:1"
         transform="matrix(0.73498667,0,0,0.73498667,8580.4404,74.78976)"
         clip-path="url(#clipPath4650)"
         id="path4718" />
      <path
         d="m 279.5,112.2 -8,3 v -6 z"
         style="fill:#000000;fill-opacity:1;fill-rule:nonzero;stroke:none"
         transform="matrix(0.73498667,0,0,-0.73498667,8622.3347,337.18)"
         clip-path="url(#clipPath4651)"
         id="path4719" />
      <path
         d="m 336.5,244.8 -8,-3 v 6 z"
         style="fill:none;stroke:#000000;stroke-width:1;stroke-linecap:butt;stroke-linejoin:miter;stroke-miterlimit:10;stroke-dasharray:none;stroke-opacity:1"
         transform="matrix(0.73498667,0,0,0.73498667,8580.4404,74.78976)"
         clip-path="url(#clipPath4652)"
         id="path4720" />
      <path
         d="m 446.4,244.8 h 69.3"
         style="fill:none;stroke:#000000;stroke-width:1;stroke-linecap:round;stroke-linejoin:round;stroke-miterlimit:10;stroke-dasharray:none;stroke-opacity:1"
         transform="matrix(0.73498667,0,0,0.73498667,8580.4404,74.78976)"
         clip-path="url(#clipPath4653)"
         id="path4721" />
      <path
         d="m 466.7,112.2 -8,3 v -6 z"
         style="fill:#000000;fill-opacity:1;fill-rule:nonzero;stroke:none"
         transform="matrix(0.73498667,0,0,-0.73498667,8622.3347,337.18)"
         clip-path="url(#clipPath4654)"
         id="path4722" />
      <path
         d="m 523.7,244.8 -8,-3 v 6 z"
         style="fill:none;stroke:#000000;stroke-width:1;stroke-linecap:butt;stroke-linejoin:miter;stroke-miterlimit:10;stroke-dasharray:none;stroke-opacity:1"
         transform="matrix(0.73498667,0,0,0.73498667,8580.4404,74.78976)"
         clip-path="url(#clipPath4655)"
         id="path4723" />
      <path
         d="m 136.8,309.6 h 83.7"
         style="fill:none;stroke:#000000;stroke-width:1;stroke-linecap:round;stroke-linejoin:round;stroke-miterlimit:10;stroke-dasharray:none;stroke-opacity:1"
         transform="matrix(0.73498667,0,0,0.73498667,8580.4404,74.78976)"
         clip-path="url(#clipPath4656)"
         id="path4724" />
      <path
         d="m 171.5,47.40001 -8,3 v -6 z"
         style="fill:#000000;fill-opacity:1;fill-rule:nonzero;stroke:none"
         transform="matrix(0.73498667,0,0,-0.73498667,8622.3347,337.18)"
         clip-path="url(#clipPath4657)"
         id="path4725" />
      <path
         d="m 228.5,309.6 -8,-3 v 6 z"
         style="fill:none;stroke:#000000;stroke-width:1;stroke-linecap:butt;stroke-linejoin:miter;stroke-miterlimit:10;stroke-dasharray:none;stroke-opacity:1"
         transform="matrix(0.73498667,0,0,0.73498667,8580.4404,74.78976)"
         clip-path="url(#clipPath4658)"
         id="path4726" />
      <path
         d="M 144,309.6 V 291.052"
         style="fill:none;stroke:#000000;stroke-width:1;stroke-linecap:round;stroke-linejoin:round;stroke-miterlimit:10;stroke-dasharray:none;stroke-opacity:1"
         transform="matrix(0.73498667,0,0,0.73498667,8580.4404,74.78976)"
         clip-path="url(#clipPath4659)"
         id="path4727" />
      <path
         d="m 87,73.94801 -3,-8 h 6 z"
         style="fill:#000000;fill-opacity:1;fill-rule:nonzero;stroke:none"
         transform="matrix(0.73498667,0,0,-0.73498667,8622.3347,337.18)"
         clip-path="url(#clipPath4660)"
         id="path4728" />
      <path
         d="m 144,283.052 -3,8 h 6 z"
         style="fill:none;stroke:#000000;stroke-width:1;stroke-linecap:butt;stroke-linejoin:miter;stroke-miterlimit:10;stroke-dasharray:none;stroke-opacity:1"
         transform="matrix(0.73498667,0,0,0.73498667,8580.4404,74.78976)"
         clip-path="url(#clipPath4661)"
         id="path4729" />
      <path
         d="M 165.6,309.6 V 297.9"
         style="fill:none;stroke:#000000;stroke-width:1;stroke-linecap:round;stroke-linejoin:round;stroke-miterlimit:10;stroke-dasharray:none;stroke-opacity:1"
         transform="matrix(0.73498667,0,0,0.73498667,8580.4404,74.78976)"
         clip-path="url(#clipPath4662)"
         id="path4730" />
      <path
         d="m 108.6,67.10001 -3,-8 h 6 z"
         style="fill:#000000;fill-opacity:1;fill-rule:nonzero;stroke:none"
         transform="matrix(0.73498667,0,0,-0.73498667,8622.3347,337.18)"
         clip-path="url(#clipPath4663)"
         id="path4731" />
      <path
         d="m 165.6,289.9 -3,8 h 6 z"
         style="fill:none;stroke:#000000;stroke-width:1;stroke-linecap:butt;stroke-linejoin:miter;stroke-miterlimit:10;stroke-dasharray:none;stroke-opacity:1"
         transform="matrix(0.73498667,0,0,0.73498667,8580.4404,74.78976)"
         clip-path="url(#clipPath4664)"
         id="path4732" />
      <path
         d="M 187.2,309.6 V 297.9"
         style="fill:none;stroke:#000000;stroke-width:1;stroke-linecap:round;stroke-linejoin:round;stroke-miterlimit:10;stroke-dasharray:none;stroke-opacity:1"
         transform="matrix(0.73498667,0,0,0.73498667,8580.4404,74.78976)"
         clip-path="url(#clipPath4665)"
         id="path4733" />
      <path
         d="m 130.2,67.10001 -3,-8 h 6 z"
         style="fill:#000000;fill-opacity:1;fill-rule:nonzero;stroke:none"
         transform="matrix(0.73498667,0,0,-0.73498667,8622.3347,337.18)"
         clip-path="url(#clipPath4666)"
         id="path4734" />
      <path
         d="m 187.2,289.9 -3,8 h 6 z"
         style="fill:none;stroke:#000000;stroke-width:1;stroke-linecap:butt;stroke-linejoin:miter;stroke-miterlimit:10;stroke-dasharray:none;stroke-opacity:1"
         transform="matrix(0.73498667,0,0,0.73498667,8580.4404,74.78976)"
         clip-path="url(#clipPath4667)"
         id="path4735" />
      <path
         d="M 208.8,309.6 V 291.052"
         style="fill:none;stroke:#000000;stroke-width:1;stroke-linecap:round;stroke-linejoin:round;stroke-miterlimit:10;stroke-dasharray:none;stroke-opacity:1"
         transform="matrix(0.73498667,0,0,0.73498667,8580.4404,74.78976)"
         clip-path="url(#clipPath4668)"
         id="path4736" />
      <path
         d="m 151.8,73.94801 -3,-8 h 6 z"
         style="fill:#000000;fill-opacity:1;fill-rule:nonzero;stroke:none"
         transform="matrix(0.73498667,0,0,-0.73498667,8622.3347,337.18)"
         clip-path="url(#clipPath4669)"
         id="path4737" />
      <path
         d="m 208.8,283.052 -3,8 h 6 z"
         style="fill:none;stroke:#000000;stroke-width:1;stroke-linecap:butt;stroke-linejoin:miter;stroke-miterlimit:10;stroke-dasharray:none;stroke-opacity:1"
         transform="matrix(0.73498667,0,0,0.73498667,8580.4404,74.78976)"
         clip-path="url(#clipPath4670)"
         id="path4738" />
      <path
         d="m 280.8,309.6 h 83.7"
         style="fill:none;stroke:#000000;stroke-width:1;stroke-linecap:round;stroke-linejoin:round;stroke-miterlimit:10;stroke-dasharray:none;stroke-opacity:1"
         transform="matrix(0.73498667,0,0,0.73498667,8580.4404,74.78976)"
         clip-path="url(#clipPath4671)"
         id="path4739" />
      <path
         d="m 315.5,47.40001 -8,3 v -6 z"
         style="fill:#000000;fill-opacity:1;fill-rule:nonzero;stroke:none"
         transform="matrix(0.73498667,0,0,-0.73498667,8622.3347,337.18)"
         clip-path="url(#clipPath4672)"
         id="path4740" />
      <path
         d="m 372.5,309.6 -8,-3 v 6 z"
         style="fill:none;stroke:#000000;stroke-width:1;stroke-linecap:butt;stroke-linejoin:miter;stroke-miterlimit:10;stroke-dasharray:none;stroke-opacity:1"
         transform="matrix(0.73498667,0,0,0.73498667,8580.4404,74.78976)"
         clip-path="url(#clipPath4673)"
         id="path4741" />
      <path
         d="m 231,76.20001 7.2,-28.8 H 231 Z"
         style="fill:#ffffff;fill-opacity:1;fill-rule:nonzero;stroke:none"
         transform="matrix(0.73498667,0,0,-0.73498667,8622.3347,337.18)"
         clip-path="url(#clipPath4674)"
         id="path4742" />
      <path
         d="m 288,280.8 7.2,28.8 H 288 Z"
         style="fill:none;stroke:#000000;stroke-width:1;stroke-linecap:round;stroke-linejoin:round;stroke-miterlimit:10;stroke-dasharray:none;stroke-opacity:1"
         transform="matrix(0.73498667,0,0,0.73498667,8580.4404,74.78976)"
         clip-path="url(#clipPath4675)"
         id="path4743" />
      <path
         d="m 252.6,69.00001 7.2,-21.6 h -7.2 z"
         style="fill:#ffffff;fill-opacity:1;fill-rule:nonzero;stroke:none"
         transform="matrix(0.73498667,0,0,-0.73498667,8622.3347,337.18)"
         clip-path="url(#clipPath4676)"
         id="path4744" />
      <path
         d="m 309.6,288 7.2,21.6 h -7.2 z"
         style="fill:none;stroke:#000000;stroke-width:1;stroke-linecap:round;stroke-linejoin:round;stroke-miterlimit:10;stroke-dasharray:none;stroke-opacity:1"
         transform="matrix(0.73498667,0,0,0.73498667,8580.4404,74.78976)"
         clip-path="url(#clipPath4677)"
         id="path4745" />
      <path
         d="m 274.2,69.00001 7.2,-21.6 h -7.2 z"
         style="fill:#ffffff;fill-opacity:1;fill-rule:nonzero;stroke:none"
         transform="matrix(0.73498667,0,0,-0.73498667,8622.3347,337.18)"
         clip-path="url(#clipPath4678)"
         id="path4746" />
      <path
         d="m 331.2,288 7.2,21.6 h -7.2 z"
         style="fill:none;stroke:#000000;stroke-width:1;stroke-linecap:round;stroke-linejoin:round;stroke-miterlimit:10;stroke-dasharray:none;stroke-opacity:1"
         transform="matrix(0.73498667,0,0,0.73498667,8580.4404,74.78976)"
         clip-path="url(#clipPath4679)"
         id="path4747" />
      <path
         d="m 295.8,76.20001 7.2,-28.8 h -7.2 z"
         style="fill:#ffffff;fill-opacity:1;fill-rule:nonzero;stroke:none"
         transform="matrix(0.73498667,0,0,-0.73498667,8622.3347,337.18)"
         clip-path="url(#clipPath4680)"
         id="path4748" />
      <path
         d="m 352.8,280.8 7.2,28.8 h -7.2 z"
         style="fill:none;stroke:#000000;stroke-width:1;stroke-linecap:round;stroke-linejoin:round;stroke-miterlimit:10;stroke-dasharray:none;stroke-opacity:1"
         transform="matrix(0.73498667,0,0,0.73498667,8580.4404,74.78976)"
         clip-path="url(#clipPath4681)"
         id="path4749" />
      <text
         xml:space="preserve"
         transform="matrix(0.73498667,0,0,0.73498667,8689.9534,322.33327)"
         clip-path="url(#clipPath4682)"
         id="text4749"><tspan
           style="font-variant:normal;font-weight:normal;font-size:16px;font-family:'Helvetica Neue';writing-mode:lr-tb;fill:#000000;fill-opacity:1;fill-rule:nonzero;stroke:none"
           x="0"
           y="0"
           id="tspan4749">Samples</tspan></text>
      <text
         xml:space="preserve"
         transform="matrix(0.73498667,0,0,0.73498667,8802.4828,317.04137)"
         clip-path="url(#clipPath4683)"
         id="text4750"><tspan
           style="font-variant:normal;font-weight:normal;font-size:16px;font-family:'Helvetica Neue';writing-mode:lr-tb;fill:#000000;fill-opacity:1;fill-rule:nonzero;stroke:none"
           x="0"
           y="0"
           id="tspan4750">Pulse</tspan></text>
      <text
         xml:space="preserve"
         transform="matrix(0.73498667,0,0,0.73498667,8790.4996,330.6004)"
         clip-path="url(#clipPath4684)"
         id="text4751"><tspan
           style="font-variant:normal;font-weight:normal;font-size:16px;font-family:'Helvetica Neue';writing-mode:lr-tb;fill:#000000;fill-opacity:1;fill-rule:nonzero;stroke:none"
           x="0"
           y="0"
           id="tspan4751">Sequence</tspan></text>
      <path
         d="m 432,309.6 h 83.7"
         style="fill:none;stroke:#000000;stroke-width:1;stroke-linecap:round;stroke-linejoin:round;stroke-miterlimit:10;stroke-dasharray:none;stroke-opacity:1"
         transform="matrix(0.73498667,0,0,0.73498667,8580.4404,74.78976)"
         clip-path="url(#clipPath4685)"
         id="path4751" />
      <path
         d="m 466.7,47.40001 -8,3 v -6 z"
         style="fill:#000000;fill-opacity:1;fill-rule:nonzero;stroke:none"
         transform="matrix(0.73498667,0,0,-0.73498667,8622.3347,337.18)"
         clip-path="url(#clipPath4686)"
         id="path4752" />
      <path
         d="m 523.7,309.6 -8,-3 v 6 z"
         style="fill:none;stroke:#000000;stroke-width:1;stroke-linecap:butt;stroke-linejoin:miter;stroke-miterlimit:10;stroke-dasharray:none;stroke-opacity:1"
         transform="matrix(0.73498667,0,0,0.73498667,8580.4404,74.78976)"
         clip-path="url(#clipPath4687)"
         id="path4753" />
      <path
         d="m 432,280.8 c 0,0 18.7224,14.4 43.2,14.4 24.4775,0 43.2,-14.4 43.2,-14.4"
         style="fill:none;stroke:#000000;stroke-width:1;stroke-linecap:round;stroke-linejoin:round;stroke-miterlimit:10;stroke-dasharray:none;stroke-opacity:1"
         transform="matrix(0.73498667,0,0,0.73498667,8580.4404,74.78976)"
         clip-path="url(#clipPath4688)"
         id="path4754" />
      <text
         xml:space="preserve"
         transform="matrix(1.1759787,0,0,1.1759787,8745.8606,312.40228)"
         clip-path="url(#clipPath4689)"
         id="text4754"><tspan
           style="font-variant:normal;font-weight:normal;font-size:9.9626px;font-family:cmmi10;writing-mode:lr-tb;fill:#000000;fill-opacity:1;fill-rule:nonzero;stroke:none"
           x="0"
           y="0"
           id="tspan4754">t</tspan></text>
      <text
         xml:space="preserve"
         transform="matrix(1.1759787,0,0,1.1759787,8856.9906,312.40228)"
         clip-path="url(#clipPath4690)"
         id="text4755"><tspan
           style="font-variant:normal;font-weight:normal;font-size:9.9626px;font-family:cmmi10;writing-mode:lr-tb;fill:#000000;fill-opacity:1;fill-rule:nonzero;stroke:none"
           x="0"
           y="0"
           id="tspan4755">t</tspan></text>
      <text
         xml:space="preserve"
         transform="matrix(1.1759787,0,0,1.1759787,8969.0026,314.90123)"
         clip-path="url(#clipPath4691)"
         id="text4756"><tspan
           style="font-variant:normal;font-weight:normal;font-size:9.9626px;font-family:cmmi10;writing-mode:lr-tb;fill:#000000;fill-opacity:1;fill-rule:nonzero;stroke:none"
           x="0"
           y="0"
           id="tspan4756">t</tspan></text>
      <text
         xml:space="preserve"
         transform="matrix(0.73498667,0,0,0.73498667,8913.5717,322.33327)"
         clip-path="url(#clipPath4692)"
         id="text4757"><tspan
           style="font-variant:normal;font-weight:normal;font-size:16px;font-family:'Helvetica Neue';writing-mode:lr-tb;fill:#000000;fill-opacity:1;fill-rule:nonzero;stroke:none"
           x="0"
           y="0"
           id="tspan4757">Signal</tspan></text>
      <text
         xml:space="preserve"
         transform="matrix(1.1759787,0,0,1.1759787,8739.3516,284.91378)"
         clip-path="url(#clipPath4693)"
         id="text4758"><tspan
           style="font-variant:normal;font-weight:normal;font-size:9.9626px;font-family:cmmi10;writing-mode:lr-tb;fill:#000000;fill-opacity:1;fill-rule:nonzero;stroke:none"
           x="0"
           y="0"
           id="tspan4758">g</tspan></text>
      <text
         xml:space="preserve"
         transform="matrix(1.1759787,0,0,1.1759787,8745.3597,284.91378)"
         clip-path="url(#clipPath4694)"
         id="text4759"><tspan
           style="font-variant:normal;font-weight:normal;font-size:9.9626px;font-family:cmr10;writing-mode:lr-tb;fill:#000000;fill-opacity:1;fill-rule:nonzero;stroke:none"
           x="0"
           y="0"
           id="tspan4759">(</tspan></text>
      <text
         xml:space="preserve"
         transform="matrix(1.1759787,0,0,1.1759787,8749.9154,284.91378)"
         clip-path="url(#clipPath4695)"
         id="text4760"><tspan
           style="font-variant:normal;font-weight:normal;font-size:9.9626px;font-family:cmmi10;writing-mode:lr-tb;fill:#000000;fill-opacity:1;fill-rule:nonzero;stroke:none"
           x="0"
           y="0"
           id="tspan4760">nT</tspan></text>
      <text
         xml:space="preserve"
         transform="matrix(1.1759787,0,0,1.1759787,8763.7943,286.67186)"
         clip-path="url(#clipPath4696)"
         id="text4761"><tspan
           style="font-variant:normal;font-weight:normal;font-size:6.9738px;font-family:cmmi7;writing-mode:lr-tb;fill:#000000;fill-opacity:1;fill-rule:nonzero;stroke:none"
           x="0"
           y="0"
           id="tspan4761">s</tspan></text>
      <text
         xml:space="preserve"
         transform="matrix(1.1759787,0,0,1.1759787,8768.8028,284.91378)"
         clip-path="url(#clipPath4697)"
         id="text4762"><tspan
           style="font-variant:normal;font-weight:normal;font-size:9.9626px;font-family:cmr10;writing-mode:lr-tb;fill:#000000;fill-opacity:1;fill-rule:nonzero;stroke:none"
           x="0"
           y="0"
           id="tspan4762">)</tspan></text>
      <text
         xml:space="preserve"
         transform="matrix(1.1759787,0,0,1.1759787,8847.9203,284.91378)"
         clip-path="url(#clipPath4698)"
         id="text4763"><tspan
           style="font-variant:normal;font-weight:normal;font-size:9.9626px;font-family:cmr10;writing-mode:lr-tb;fill:#000000;fill-opacity:1;fill-rule:nonzero;stroke:none"
           x="0"
           y="0"
           id="tspan4763">˜</tspan></text>
      <text
         xml:space="preserve"
         transform="matrix(1.1759787,0,0,1.1759787,8847.5193,284.91378)"
         clip-path="url(#clipPath4699)"
         id="text4764"><tspan
           style="font-variant:normal;font-weight:normal;font-size:9.9626px;font-family:cmmi10;writing-mode:lr-tb;fill:#000000;fill-opacity:1;fill-rule:nonzero;stroke:none"
           x="0"
           y="0"
           id="tspan4764">g</tspan></text>
      <text
         xml:space="preserve"
         transform="matrix(1.1759787,0,0,1.1759787,8853.5274,284.91378)"
         clip-path="url(#clipPath4700)"
         id="text4765"><tspan
           style="font-variant:normal;font-weight:normal;font-size:9.9626px;font-family:cmr10;writing-mode:lr-tb;fill:#000000;fill-opacity:1;fill-rule:nonzero;stroke:none"
           x="0"
           y="0"
           id="tspan4765">(</tspan></text>
      <text
         xml:space="preserve"
         transform="matrix(1.1759787,0,0,1.1759787,8858.0843,284.91378)"
         clip-path="url(#clipPath4701)"
         id="text4766"><tspan
           style="font-variant:normal;font-weight:normal;font-size:9.9626px;font-family:cmmi10;writing-mode:lr-tb;fill:#000000;fill-opacity:1;fill-rule:nonzero;stroke:none"
           x="0"
           y="0"
           id="tspan4766">t</tspan></text>
      <text
         xml:space="preserve"
         transform="matrix(1.1759787,0,0,1.1759787,8862.3143,284.91378)"
         clip-path="url(#clipPath4702)"
         id="text4767"><tspan
           style="font-variant:normal;font-weight:normal;font-size:9.9626px;font-family:cmr10;writing-mode:lr-tb;fill:#000000;fill-opacity:1;fill-rule:nonzero;stroke:none"
           x="0"
           y="0"
           id="tspan4767">)</tspan></text>
      <text
         xml:space="preserve"
         transform="matrix(1.1759787,0,0,1.1759787,8972.467,274.32997)"
         clip-path="url(#clipPath4703)"
         id="text4768"><tspan
           style="font-variant:normal;font-weight:normal;font-size:9.9626px;font-family:cmmi10;writing-mode:lr-tb;fill:#000000;fill-opacity:1;fill-rule:nonzero;stroke:none"
           x="0"
           y="0"
           id="tspan4768">g</tspan></text>
      <text
         xml:space="preserve"
         transform="matrix(1.1759787,0,0,1.1759787,8978.4751,274.32997)"
         clip-path="url(#clipPath4704)"
         id="text4769"><tspan
           style="font-variant:normal;font-weight:normal;font-size:9.9626px;font-family:cmr10;writing-mode:lr-tb;fill:#000000;fill-opacity:1;fill-rule:nonzero;stroke:none"
           x="0"
           y="0"
           id="tspan4769">(</tspan></text>
      <text
         xml:space="preserve"
         transform="matrix(1.1759787,0,0,1.1759787,8983.032,274.32997)"
         clip-path="url(#clipPath4705)"
         id="text4770"><tspan
           style="font-variant:normal;font-weight:normal;font-size:9.9626px;font-family:cmmi10;writing-mode:lr-tb;fill:#000000;fill-opacity:1;fill-rule:nonzero;stroke:none"
           x="0"
           y="0"
           id="tspan4770">t</tspan></text>
      <text
         xml:space="preserve"
         transform="matrix(1.1759787,0,0,1.1759787,8987.262,274.32997)"
         clip-path="url(#clipPath4706)"
         id="text4771"><tspan
           style="font-variant:normal;font-weight:normal;font-size:9.9626px;font-family:cmr10;writing-mode:lr-tb;fill:#000000;fill-opacity:1;fill-rule:nonzero;stroke:none"
           x="0"
           y="0"
           id="tspan4771">)</tspan></text>
    </g>
  </g>
</svg>
