<?xml version="1.0" encoding="UTF-8" standalone="no"?>
<!-- Created with Inkscape (http://www.inkscape.org/) -->

<svg
   version="1.1"
   id="svg1"
   width="336.68109"
   height="416.28458"
   viewBox="0 0 336.68109 416.28458"
   sodipodi:docname="Event_trigger.pdf"
   xmlns:inkscape="http://www.inkscape.org/namespaces/inkscape"
   xmlns:sodipodi="http://sodipodi.sourceforge.net/DTD/sodipodi-0.dtd"
   xmlns="http://www.w3.org/2000/svg"
   xmlns:svg="http://www.w3.org/2000/svg">
  <defs
     id="defs1" />
  <sodipodi:namedview
     id="namedview1"
     pagecolor="#505050"
     bordercolor="#eeeeee"
     borderopacity="1"
     inkscape:showpageshadow="0"
     inkscape:pageopacity="0"
     inkscape:pagecheckerboard="0"
     inkscape:deskcolor="#505050"
     showgrid="false">
    <inkscape:page
       x="0"
       y="0"
       inkscape:label="1"
       id="page1"
       width="336.68109"
       height="416.28458"
       margin="0"
       bleed="0" />
  </sodipodi:namedview>
  <g
     id="g1"
     inkscape:groupmode="layer"
     inkscape:label="1"
     transform="translate(-198.17176,-166.40181)">
    <path
       id="path1"
       d="m 38.53511,14.17339 h -77.07022 c -2.20094,0 -3.98511,-1.78417 -3.98511,-3.98511 v -20.37656 c 0,-2.20094 1.78417,-3.98511 3.98511,-3.98511 h 77.07022 c 2.20094,0 3.98511,1.78417 3.98511,3.98511 v 20.37656 c 0,2.20094 -1.78417,3.98511 -3.98511,3.98511 z"
       style="fill:#ffb3b3;fill-opacity:1;fill-rule:nonzero;stroke:#000000;stroke-width:0.3985;stroke-linecap:butt;stroke-linejoin:miter;stroke-miterlimit:10;stroke-dasharray:none;stroke-opacity:1"
       transform="matrix(1.3333333,0,0,-1.3333333,262.95467,185.56533)" />
    <path
       id="path2"
       d="M 3.4793047,-3.8660859 2.2019609,-4.1707734 c -0.6210937,-0.1523438 -1.0078125,-0.6914063 -1.0078125,-1.265625 0,-0.703125 0.5390625,-1.3007813 1.3125,-1.3007813 1.6640625,0 1.8867188,1.6289063 1.9453125,2.0742188 0.011719,0.058594 0.011719,0.1171875 0.1171875,0.1171875 0.1289063,0 0.1289063,-0.046875 0.1289063,-0.234375 v -2.0039063 c 0,-0.1640625 0,-0.234375 -0.1054688,-0.234375 -0.070312,0 -0.082031,0.011719 -0.1523437,0.1289063 l -0.3515625,0.5625 c -0.2929688,-0.28125 -0.703125,-0.6914063 -1.59375,-0.6914063 -1.1015625,0 -1.93359376,0.8789063 -1.93359376,1.9335938 0,0.8203125 0.52734376,1.546875 1.30078126,1.8164062 0.1054687,0.046875 0.6210937,0.1640625 1.3125,0.328125 0.2695312,0.070312 0.5742187,0.140625 0.84375,0.515625 0.2109375,0.2578125 0.3164062,0.5859375 0.3164062,0.9140625 0,0.70312501 -0.5039062,1.41796876 -1.3359375,1.41796876 -0.2929687,0 -1.0429687,-0.046875 -1.5703125,-0.5390625 C 0.84258594,-1.1590547 0.81914844,-1.8035859 0.80742969,-2.1551484 c -0.0117188,-0.1054688 -0.09375,-0.1054688 -0.1171875,-0.1054688 -0.12890625,0 -0.12890625,0.070312 -0.12890625,0.2460938 v 1.99218746 c 0,0.17578125 0,0.24609375 0.10546875,0.24609375 0.0703125,0 0.0820313,-0.0234375 0.15234375,-0.12890625 0,-0.01171875 0.0234375,-0.046875 0.35156246,-0.57421875 0.3164063,0.33984375 0.9492188,0.703125 1.8398438,0.703125 1.1601562,0 1.9570312,-0.984375 1.9570312,-2.07421871 0,-0.9960938 -0.65625,-1.8164063 -1.4882812,-2.015625 z M 7.2586016,-3.9832734 H 8.6882891 V -4.2879609 H 7.2586016 V -6.1278047 H 7.0125078 c -0.011719,0.8203125 -0.3164062,1.8867188 -1.2890625,1.921875 v 0.2226563 h 0.84375 v 2.7539062 c 0,1.21875001 0.9257813,1.33593751 1.2890625,1.33593751 0.703125,0 0.984375,-0.703125 0.984375,-1.33593751 V -1.8035859 H 8.5945391 v 0.5507812 c 0,0.73828126 -0.3046875,1.11328126 -0.6679688,1.11328126 -0.6679687,0 -0.6679687,-0.90234376 -0.6679687,-1.07812496 z m 5.4667964,3.22265621 c 0.03516,0.3984375 0.304688,0.8203125 0.773438,0.8203125 0.210937,0 0.820312,-0.140625 0.820312,-0.94921875 V -1.4403047 h -0.246093 v 0.55078126 c 0,0.5859375 -0.246094,0.64453125 -0.363282,0.64453125 -0.328125,0 -0.363281,-0.45703125 -0.363281,-0.50390625 V -2.7410859 c 0,-0.4101563 0,-0.8085938 -0.363281,-1.171875 -0.386719,-0.3867188 -0.878906,-0.5507813 -1.359375,-0.5507813 -0.820313,0 -1.511719,0.46875 -1.511719,1.125 0,0.3046875 0.199219,0.46875 0.457031,0.46875 0.28125,0 0.46875,-0.1992187 0.46875,-0.4570312 0,-0.1171875 -0.05859,-0.4453125 -0.515625,-0.4570313 0.269532,-0.3515625 0.761719,-0.4570312 1.078125,-0.4570312 0.492188,0 1.054688,0.3867187 1.054688,1.2773437 v 0.3632813 c -0.503906,0.035156 -1.207031,0.058594 -1.828125,0.3632812 -0.75,0.3398438 -0.9960938,0.8554688 -0.9960938,1.28906251 0,0.80859375 0.9609378,1.0546875 1.5937498,1.0546875 0.65625,0 1.113281,-0.3984375 1.300781,-0.8671875 z m -0.07031,-1.62890621 v 0.9960937 c 0,0.94921876 -0.714844,1.28906251 -1.160156,1.28906251 -0.492188,0 -0.902344,-0.3515625 -0.902344,-0.85546875 0,-0.53906246 0.421875,-1.37109376 2.0625,-1.42968746 z m 3.401367,-0.9140625 v -1.1015625 l -1.382812,0.1171875 v 0.3046875 c 0.691406,0 0.773437,0.070312 0.773437,0.5625 v 2.66015621 c 0,0.45703125 -0.105469,0.45703125 -0.773437,0.45703125 v 0.3046875 c 0.386718,-0.01171875 0.855468,-0.03515625 1.136718,-0.03515625 0.398438,0 0.867188,0 1.265625,0.03515625 v -0.3046875 h -0.210937 c -0.738281,0 -0.761719,-0.1171875 -0.761719,-0.46875 V -2.3074922 c 0,-0.984375 0.421875,-1.875 1.183594,-1.875 0.05859,0 0.08203,0 0.105469,0.011719 -0.03516,0.011719 -0.234375,0.1289062 -0.234375,0.3867187 0,0.28125 0.210937,0.4335938 0.433593,0.4335938 0.175782,0 0.421875,-0.1289063 0.421875,-0.4453125 0,-0.3164063 -0.304687,-0.609375 -0.726562,-0.609375 -0.738281,0 -1.089844,0.6679687 -1.230469,1.1015623 z m 3.960938,-0.6796875 h 1.429687 v -0.3046875 h -1.429687 v -1.8398438 h -0.246094 c -0.01172,0.8203125 -0.316406,1.8867188 -1.289063,1.921875 v 0.2226563 h 0.84375 v 2.7539062 c 0,1.21875001 0.925782,1.33593751 1.289063,1.33593751 0.703125,0 0.984375,-0.703125 0.984375,-1.33593751 V -1.8035859 H 21.35333 v 0.5507812 c 0,0.73828126 -0.304687,1.11328126 -0.667969,1.11328126 -0.667968,0 -0.667968,-0.90234376 -0.667968,-1.07812496 z m 0,0"
       style="fill:#000000;fill-opacity:1;fill-rule:nonzero;stroke:none"
       aria-label="Start"
       transform="matrix(1.3333333,0,0,1.3333333,248.17733,190.104)" />
    <path
       id="path3"
       d="m -42.52022,-70.86702 h 85.04044 v 28.34679 h -85.04044 z"
       style="fill:#b3b3ff;fill-opacity:1;fill-rule:nonzero;stroke:#000000;stroke-width:0.3985;stroke-linecap:butt;stroke-linejoin:miter;stroke-miterlimit:10;stroke-dasharray:none;stroke-opacity:1"
       transform="matrix(1.3333333,0,0,-1.3333333,262.95467,185.56533)" />
    <path
       id="path4"
       d="m 9.0575,-5.8240703 c 0.1757813,-0.5742188 0.609375,-0.6679688 0.996094,-0.6679688 v -0.3164062 c -0.3046877,0.023437 -0.6093752,0.035156 -0.9140627,0.035156 -0.28125,0 -0.9257813,-0.023437 -1.1835938,-0.035156 v 0.3164062 c 0.6679688,0.011719 0.8671875,0.3398438 0.8671875,0.5273438 0,0.058594 -0.023437,0.140625 -0.046875,0.1992187 l -1.5,4.6054688 -1.59375,-4.8867188 c 0,-0.035156 -0.023437,-0.09375 -0.023437,-0.1523437 0,-0.2929688 0.5742188,-0.2929688 0.8320313,-0.2929688 v -0.3164062 c -0.3515625,0.035156 -1.03125,0.035156 -1.40625,0.035156 -0.3867188,0 -0.8085938,-0.023437 -1.21875,-0.035156 v 0.3164062 c 0.5625,0 0.7734375,0 0.890625,0.3515625 l 0.2226562,0.703125 -1.3828125,4.2773438 -1.6054687,-4.9101563 c -0.011719,-0.023437 -0.023437,-0.09375 -0.023437,-0.1289062 0,-0.2929688 0.5859375,-0.2929688 0.84375,-0.2929688 v -0.3164062 c -0.3632813,0.035156 -1.0429688,0.035156 -1.4179688,0.035156 -0.375,0 -0.80859375,-0.023437 -1.21875,-0.035156 v 0.3164062 c 0.75,0 0.78515625,0.046875 0.9140625,0.4101563 l 1.9921875,6.11718749 c 0.023437,0.08203125 0.058594,0.1875 0.1875,0.1875 0.140625,0 0.1523438,-0.0703125 0.1992188,-0.19921875 L 5.1082813,-5.0389141 6.760625,0.03530469 c 0.035156,0.08203125 0.058594,0.1875 0.1875,0.1875 0.140625,0 0.1640625,-0.0703125 0.1992188,-0.19921875 z m 3.670898,5.06249999 c 0.03516,0.3984375 0.304688,0.8203125 0.773438,0.8203125 0.210937,0 0.820312,-0.140625 0.820312,-0.94921875 V -1.4412578 h -0.246093 v 0.55078124 c 0,0.5859375 -0.246094,0.64453125 -0.363282,0.64453125 -0.328125,0 -0.363281,-0.45703125 -0.363281,-0.50390625 V -2.7420391 c 0,-0.4101562 0,-0.8085937 -0.363281,-1.171875 -0.386719,-0.3867187 -0.878906,-0.5507812 -1.359375,-0.5507812 -0.820313,0 -1.511719,0.46875 -1.511719,1.125 0,0.3046875 0.199219,0.46875 0.457031,0.46875 0.28125,0 0.46875,-0.1992188 0.46875,-0.4570313 0,-0.1171875 -0.05859,-0.4453125 -0.515625,-0.4570312 0.269532,-0.3515625 0.761719,-0.4570313 1.078125,-0.4570313 0.492188,0 1.054688,0.3867188 1.054688,1.2773438 v 0.3632812 c -0.503906,0.035156 -1.207031,0.058594 -1.828125,0.3632813 -0.75,0.3398437 -0.9960938,0.8554687 -0.9960938,1.28906249 0,0.80859375 0.9609378,1.0546875 1.5937498,1.0546875 0.65625,0 1.113281,-0.3984375 1.300781,-0.8671875 z m -0.07031,-1.62890629 v 0.9960938 c 0,0.94921874 -0.714844,1.28906249 -1.160156,1.28906249 -0.492188,0 -0.902344,-0.3515625 -0.902344,-0.85546875 0,-0.53906254 0.421875,-1.37109374 2.0625,-1.42968754 z m 3.495117,-2.015625 -1.394531,0.1171875 v 0.3046875 c 0.65625,0 0.738281,0.058594 0.738281,0.5507813 v 2.67187499 c 0,0.45703125 -0.105469,0.45703125 -0.773437,0.45703125 V 1.484375e-4 c 0.316404,-0.0117187475 0.855466,-0.0351562475 1.10156,-0.0351562475 0.339844,0 0.691406,0.0234375 1.03125,0.0351562475 V -0.30453906 c -0.65625,0 -0.703125,-0.0585938 -0.703125,-0.4453125 z m 0.04687,-1.734375 c 0,-0.3164062 -0.246094,-0.5273437 -0.527344,-0.5273437 -0.316406,0 -0.527343,0.2695312 -0.527343,0.5273437 0,0.2695313 0.210937,0.5273438 0.527343,0.5273438 0.28125,0 0.527344,-0.1992188 0.527344,-0.5273438 z m 2.683594,2.15625 h 1.429687 v -0.3046875 h -1.429687 v -1.8398437 h -0.246094 c -0.01172,0.8203125 -0.316406,1.8867187 -1.289062,1.921875 v 0.2226562 h 0.84375 v 2.7539063 c 0,1.21874999 0.925781,1.33593749 1.289062,1.33593749 0.703125,0 0.984375,-0.703125 0.984375,-1.33593749 v -0.5742188 h -0.246094 v 0.5507813 c 0,0.73828124 -0.304687,1.11328124 -0.667968,1.11328124 -0.667969,0 -0.667969,-0.90234374 -0.667969,-1.07812504 z m 7.21582,-0.3046875 v -1.1601562 c 0,-0.8789063 0.480469,-1.359375 0.914063,-1.359375 0.03516,0 0.175781,0 0.328125,0.070312 -0.117188,0.046875 -0.292969,0.1757812 -0.292969,0.421875 0,0.234375 0.152344,0.4335937 0.421875,0.4335937 0.292969,0 0.433594,-0.1992187 0.433594,-0.4453125 0,-0.3632812 -0.363282,-0.6914062 -0.890625,-0.6914062 -0.703125,0 -1.546875,0.5273437 -1.546875,1.5820312 v 1.1484375 H 24.68152 v 0.3046875 h 0.785157 v 3.22265629 c 0,0.45703125 -0.105469,0.45703125 -0.773438,0.45703125 V 1.484375e-4 C 25.079961,-0.01157031 25.548711,-0.03500781 25.829961,-0.03500781 c 0.398437,0 0.867187,0 1.265625,0.0351562475 V -0.30453906 h -0.210938 c -0.738281,0 -0.761718,-0.1171875 -0.761718,-0.46875 V -3.9842266 h 1.136718 v -0.3046875 z m 5.985352,2.15625 c 0,-1.2773437 -0.996094,-2.3320312 -2.191406,-2.3320312 -1.253907,0 -2.214844,1.0898437 -2.214844,2.3320312 0,1.28906254 1.03125,2.23828129 2.203125,2.23828129 1.207031,0 2.203125,-0.97265625 2.203125,-2.23828129 z m -2.191406,1.99218754 c -0.433594,0 -0.867188,-0.2109375 -1.136719,-0.66796875 -0.257813,-0.43359379 -0.257813,-1.04296879 -0.257813,-1.40624999 0,-0.3867188 0,-0.9257813 0.246094,-1.359375 0.269531,-0.4570313 0.738281,-0.6679688 1.136719,-0.6679688 0.433594,0 0.867187,0.2226563 1.125,0.6445313 0.257812,0.4335937 0.257812,1.0078125 0.257812,1.3828125 0,0.3632812 0,0.9023437 -0.222656,1.33593749 -0.222656,0.4453125 -0.65625,0.73828125 -1.148437,0.73828125 z m 4.151367,-3.16406254 v -1.1015625 l -1.382813,0.1171875 v 0.3046875 c 0.691406,0 0.773438,0.070312 0.773438,0.5625 v 2.66015629 c 0,0.45703125 -0.105469,0.45703125 -0.773438,0.45703125 V 1.484375e-4 C 33.048711,-0.01157031 33.517461,-0.03500781 33.798711,-0.03500781 c 0.398437,0 0.867187,0 1.265625,0.0351562475 V -0.30453906 h -0.210938 c -0.738281,0 -0.761718,-0.1171875 -0.761718,-0.46875 V -2.3084453 c 0,-0.984375 0.421875,-1.875 1.183593,-1.875 0.05859,0 0.08203,0 0.105469,0.011719 -0.03516,0.011719 -0.234375,0.1289063 -0.234375,0.3867188 0,0.28125 0.210938,0.4335937 0.433594,0.4335937 0.175781,0 0.421875,-0.1289062 0.421875,-0.4453125 0,-0.3164062 -0.304688,-0.609375 -0.726563,-0.609375 -0.738281,0 -1.089843,0.6679688 -1.230468,1.1015625 z m 6.914062,2.53125004 c 0,0.3515625 -0.02344,0.46875 -0.796875,0.46875 H 39.927617 V 1.484375e-4 h 5.753906 L 46.09168,-2.5662578 h -0.246094 c -0.246094,1.5351562 -0.480469,2.26171874 -2.191406,2.26171874 h -1.324219 c -0.46875,0 -0.492188,-0.0703125 -0.492188,-0.3984375 V -3.3631328 h 0.902344 c 0.960938,0 1.078125,0.3164062 1.078125,1.1601562 h 0.246094 v -2.6367187 h -0.246094 c 0,0.8554687 -0.117187,1.1601562 -1.078125,1.1601562 h -0.902344 v -2.390625 c 0,-0.328125 0.02344,-0.3984375 0.492188,-0.3984375 h 1.289062 c 1.523438,0 1.792969,0.5507813 1.945313,1.9335938 h 0.246094 l -0.269532,-2.2382813 h -5.613281 v 0.3046875 h 0.234375 c 0.773438,0 0.796875,0.1171875 0.796875,0.46875 z m 9.56836,-2.54296874 c 0.08203,-0.234375 0.257812,-0.65625 0.914062,-0.6679688 v -0.3046875 c -0.234375,0.011719 -0.515625,0.023437 -0.75,0.023437 -0.234375,0 -0.691406,-0.023437 -0.867187,-0.023437 v 0.3046875 c 0.375,0.011719 0.480468,0.234375 0.480468,0.4335938 0,0.082031 -0.02344,0.1289062 -0.05859,0.234375 l -1.019532,2.54296874 -1.113281,-2.77734374 c -0.05859,-0.140625 -0.05859,-0.1523438 -0.05859,-0.1757813 0,-0.2578125 0.386719,-0.2578125 0.5625,-0.2578125 v -0.3046875 c -0.292968,0 -0.855468,0.023437 -1.078125,0.023437 -0.269531,0 -0.667968,-0.011719 -0.972656,-0.023437 v 0.3046875 c 0.632813,0 0.667969,0.058594 0.796875,0.3632813 l 1.441406,3.53906249 c 0.05859,0.140625 0.07031,0.1875 0.199219,0.1875 0.128906,0 0.175781,-0.08203125 0.210938,-0.1875 z m 1.945312,0.8085937 c 0.05859,-1.4882812 0.902344,-1.734375 1.242188,-1.734375 1.019531,0 1.125,1.3476563 1.125,1.734375 z m -0.01172,0.2109375 h 2.789063 c 0.210937,0 0.246094,0 0.246094,-0.2109375 0,-0.984375 -0.539063,-1.9570312 -1.78125,-1.9570312 -1.160157,0 -2.074219,1.03125 -2.074219,2.2734375 0,1.33593749 1.042969,2.29687499 2.191406,2.29687499 1.21875,0 1.664063,-1.1015625 1.664063,-1.28906249 0,-0.1054688 -0.08203,-0.1171875 -0.128907,-0.1171875 -0.09375,0 -0.117187,0.058594 -0.128906,0.140625 -0.351562,1.01953124 -1.253906,1.01953124 -1.347656,1.01953124 -0.503906,0 -0.902344,-0.29296875 -1.125,-0.66796875 C 52.46082,-1.2889141 52.46082,-1.9451641 52.46082,-2.2967266 Z m 4.426758,-1.125 v 2.66015629 c 0,0.45703125 -0.117187,0.45703125 -0.785156,0.45703125 V 1.484375e-4 c 0.351562,-0.0117187475 0.855469,-0.0351562475 1.125,-0.0351562475 0.257812,0 0.785156,0.0234375 1.113281,0.0351562475 V -0.30453906 c -0.65625,0 -0.773437,0 -0.773437,-0.45703125 V -2.5896953 c 0,-1.03125 0.714843,-1.59375 1.347656,-1.59375 0.621094,0 0.738281,0.5390625 0.738281,1.1015625 v 2.32031249 c 0,0.45703125 -0.117187,0.45703125 -0.773437,0.45703125 V 1.484375e-4 c 0.339843,-0.0117187475 0.855468,-0.0351562475 1.125,-0.0351562475 0.257812,0 0.773437,0.0234375 1.113281,0.0351562475 V -0.30453906 c -0.515625,0 -0.773438,0 -0.785156,-0.3046875 V -2.5076641 c 0,-0.8554687 0,-1.171875 -0.304688,-1.5234375 -0.140625,-0.1757812 -0.46875,-0.375 -1.042969,-0.375 -0.726562,0 -1.195312,0.4335938 -1.476562,1.0546875 v -1.0546875 l -1.40625,0.1171875 v 0.3046875 c 0.703125,0 0.785156,0.070312 0.785156,0.5625 z m 5.888672,-0.5625 h 1.429688 V -4.2889141 H 62.77625 v -1.8398437 h -0.246094 c -0.01172,0.8203125 -0.316406,1.8867187 -1.289062,1.921875 v 0.2226562 h 0.84375 v 2.7539063 c 0,1.21874999 0.925781,1.33593749 1.289062,1.33593749 0.703125,0 0.984375,-0.703125 0.984375,-1.33593749 v -0.5742188 h -0.246093 v 0.5507813 c 0,0.73828124 -0.304688,1.11328124 -0.667969,1.11328124 -0.667969,0 -0.667969,-0.90234374 -0.667969,-1.07812504 z m 0,0"
       style="fill:#000000;fill-opacity:1;fill-rule:nonzero;stroke:none"
       aria-label="WaitforEvent"
       transform="matrix(1.3333333,0,0,1.3333333,219.67333,265.76933)" />
    <path
       id="path5"
       d="M 48.3054,-141.73407 0,-93.42867 -48.3054,-141.73407 0,-190.03949 Z"
       style="fill:#b3ffb3;fill-opacity:1;fill-rule:nonzero;stroke:#000000;stroke-width:0.3985;stroke-linecap:butt;stroke-linejoin:miter;stroke-miterlimit:10;stroke-dasharray:none;stroke-opacity:1"
       transform="matrix(1.3333333,0,0,-1.3333333,262.95467,185.56533)" />
    <path
       id="path6"
       d="m 1.3607891,-0.77297656 c 0,0.3515625 -0.023437,0.46875 -0.79687504,0.46875 h -0.234375 V 4.609375e-4 H 6.0834453 L 6.4936016,-2.5659453 H 6.2475078 C 6.0014141,-1.0307891 5.7670391,-0.30422656 4.0561016,-0.30422656 H 2.7318828 c -0.46875,0 -0.4921875,-0.0703125 -0.4921875,-0.3984375 V -3.3628203 h 0.9023438 c 0.9609375,0 1.078125,0.3164062 1.078125,1.1601562 H 4.4662578 V -4.8393828 H 4.2201641 c 0,0.8554687 -0.1171875,1.1601562 -1.078125,1.1601562 H 2.2396953 v -2.390625 c 0,-0.328125 0.023437,-0.3984375 0.4921875,-0.3984375 h 1.2890625 c 1.5234375,0 1.7929688,0.5507813 1.9453125,1.9335938 H 6.2123516 L 5.9428203,-6.7729766 H 0.32953906 v 0.3046875 h 0.234375 c 0.77343754,0 0.79687504,0.1171875 0.79687504,0.46875 z M 10.929148,-3.3159453 c 0.08203,-0.234375 0.257813,-0.65625 0.914063,-0.6679688 v -0.3046875 c -0.234375,0.011719 -0.515625,0.023437 -0.75,0.023437 -0.234375,0 -0.691406,-0.023437 -0.867188,-0.023437 v 0.3046875 c 0.375,0.011719 0.480469,0.234375 0.480469,0.4335938 0,0.082031 -0.02344,0.1289062 -0.05859,0.234375 L 9.6283672,-0.77297656 8.5150859,-3.5503203 c -0.058594,-0.140625 -0.058594,-0.1523438 -0.058594,-0.1757813 0,-0.2578125 0.3867187,-0.2578125 0.5625,-0.2578125 v -0.3046875 c -0.2929688,0 -0.8554688,0.023437 -1.078125,0.023437 -0.2695313,0 -0.6679688,-0.011719 -0.9726563,-0.023437 v 0.3046875 c 0.6328125,0 0.6679688,0.058594 0.796875,0.3632813 l 1.4414063,3.53906249 c 0.058594,0.140625 0.070312,0.1875 0.1992187,0.1875 0.1289063,0 0.1757813,-0.08203125 0.2109375,-0.1875 z m 1.945313,0.8085937 c 0.05859,-1.4882812 0.902344,-1.734375 1.242187,-1.734375 1.019532,0 1.125,1.3476563 1.125,1.734375 z m -0.01172,0.2109375 h 2.789063 c 0.210937,0 0.246093,0 0.246093,-0.2109375 0,-0.984375 -0.539062,-1.9570312 -1.78125,-1.9570312 -1.160156,0 -2.074218,1.03125 -2.074218,2.2734375 0,1.33593749 1.042968,2.29687499 2.191406,2.29687499 1.21875,0 1.664062,-1.1015625 1.664062,-1.28906249 0,-0.1054688 -0.08203,-0.1171875 -0.128906,-0.1171875 -0.09375,0 -0.117187,0.058594 -0.128906,0.140625 -0.351563,1.01953124 -1.253906,1.01953124 -1.347656,1.01953124 -0.503907,0 -0.902344,-0.29296875 -1.125,-0.66796875 C 12.862742,-1.2886016 12.862742,-1.9448516 12.862742,-2.2964141 Z m 4.426758,-1.125 v 2.66015629 c 0,0.45703125 -0.117187,0.45703125 -0.785156,0.45703125 V 4.609375e-4 c 0.351562,-0.0117187475 0.855469,-0.0351562475 1.125,-0.0351562475 0.257812,0 0.785156,0.0234375 1.113281,0.0351562475 V -0.30422656 c -0.65625,0 -0.773437,0 -0.773437,-0.45703125 V -2.5893828 c 0,-1.03125 0.714843,-1.59375 1.347656,-1.59375 0.621094,0 0.738281,0.5390625 0.738281,1.1015625 v 2.32031249 c 0,0.45703125 -0.117187,0.45703125 -0.773437,0.45703125 V 4.609375e-4 c 0.339843,-0.0117187475 0.855468,-0.0351562475 1.125,-0.0351562475 0.257812,0 0.773437,0.0234375 1.113281,0.0351562475 V -0.30422656 c -0.515625,0 -0.773438,0 -0.785156,-0.3046875 V -2.5073516 c 0,-0.8554687 0,-1.171875 -0.304688,-1.5234375 -0.140625,-0.1757812 -0.46875,-0.375 -1.042969,-0.375 -0.726562,0 -1.195312,0.4335938 -1.476562,1.0546875 v -1.0546875 l -1.40625,0.1171875 v 0.3046875 c 0.703125,0 0.785156,0.070312 0.785156,0.5625 z m 5.876953,-0.5625 h 1.429688 v -0.3046875 h -1.429688 v -1.8398437 h -0.246094 c -0.01172,0.8203125 -0.316406,1.8867187 -1.289062,1.921875 v 0.2226562 h 0.84375 v 2.7539063 c 0,1.21874999 0.925781,1.33593749 1.289062,1.33593749 0.703125,0 0.984375,-0.703125 0.984375,-1.33593749 V -1.8042266 H 24.50239 v 0.5507813 c 0,0.73828124 -0.304688,1.11328124 -0.667969,1.11328124 -0.667969,0 -0.667969,-0.90234374 -0.667969,-1.07812504 z M 35.277781,-6.7378203 H 29.19575 l -0.1875,2.2382812 h 0.246094 c 0.140625,-1.6054687 0.292969,-1.9335937 1.792969,-1.9335937 0.175781,0 0.433593,0 0.539062,0.023437 0.210938,0.035156 0.210938,0.140625 0.210938,0.375 v 5.24999999 c 0,0.33984375 0,0.48046875 -1.054688,0.48046875 H 30.344188 V 4.609375e-4 C 30.754344,-0.03469531 31.773875,-0.03469531 32.230906,-0.03469531 c 0.457032,0 1.488282,0 1.898438,0.0351562475 V -0.30422656 h -0.398438 c -1.054687,0 -1.054687,-0.140625 -1.054687,-0.48046875 V -6.0346953 c 0,-0.1992188 0,-0.3398438 0.1875,-0.375 0.105469,-0.023437 0.375,-0.023437 0.5625,-0.023437 1.5,0 1.652344,0.328125 1.792969,1.9335937 h 0.246093 z m 1.388672,3.4335937 v -1.1015625 l -1.382812,0.1171875 v 0.3046875 c 0.691406,0 0.773437,0.070312 0.773437,0.5625 v 2.66015629 c 0,0.45703125 -0.105469,0.45703125 -0.773437,0.45703125 V 4.609375e-4 C 35.670359,-0.01125781 36.139109,-0.03469531 36.420359,-0.03469531 c 0.398438,0 0.867188,0 1.265625,0.0351562475 V -0.30422656 h -0.210937 c -0.738281,0 -0.761719,-0.1171875 -0.761719,-0.46875 V -2.3081328 c 0,-0.984375 0.421875,-1.875 1.183594,-1.875 0.05859,0 0.08203,0 0.105469,0.011719 -0.03516,0.011719 -0.234375,0.1289063 -0.234375,0.3867188 0,0.28125 0.210937,0.4335937 0.433593,0.4335937 0.175782,0 0.421875,-0.1289062 0.421875,-0.4453125 0,-0.3164062 -0.304687,-0.609375 -0.726562,-0.609375 -0.738281,0 -1.089844,0.6679688 -1.230469,1.1015622 z m 3.996094,-1.1015625 -1.394531,0.1171875 v 0.3046875 c 0.65625,0 0.738281,0.058594 0.738281,0.5507813 v 2.67187499 c 0,0.45703125 -0.105469,0.45703125 -0.773438,0.45703125 V 4.609375e-4 C 39.549266,-0.01125781 40.088328,-0.03469531 40.334422,-0.03469531 c 0.339844,0 0.691406,0.0234375 1.03125,0.0351562475 V -0.30422656 c -0.65625,0 -0.703125,-0.0585938 -0.703125,-0.4453125 z m 0.04687,-1.734375 c 0,-0.3164062 -0.246094,-0.5273437 -0.527344,-0.5273437 -0.316406,0 -0.527344,0.2695312 -0.527344,0.5273437 0,0.2695313 0.210938,0.5273438 0.527344,0.5273438 0.28125,0 0.527344,-0.1992188 0.527344,-0.5273438 z m 3.178711,4.4296875 c -0.867188,0 -0.867188,-0.9960937 -0.867188,-1.2304687 0,-0.2695313 0.01172,-0.5859375 0.152344,-0.8320313 0.08203,-0.1171875 0.316406,-0.3984375 0.714844,-0.3984375 0.867187,0 0.867187,0.9960938 0.867187,1.21875 0,0.2695313 -0.01172,0.5976563 -0.164062,0.84375 -0.08203,0.1171875 -0.304688,0.3984375 -0.703125,0.3984375 z m -1.160156,0.3867188 c 0,-0.035156 0,-0.2695313 0.175781,-0.46875 0.386719,0.28125 0.796875,0.3046875 0.984375,0.3046875 0.925781,0 1.605469,-0.6796875 1.605469,-1.453125 0,-0.3632813 -0.152344,-0.7382813 -0.398438,-0.9609375 0.351563,-0.3398438 0.714844,-0.3867188 0.890625,-0.3867188 0.02344,0 0.07031,0 0.105469,0 -0.117188,0.046875 -0.164063,0.1523438 -0.164063,0.2695313 0,0.1757812 0.128907,0.2929687 0.292969,0.2929687 0.09375,0 0.28125,-0.070312 0.28125,-0.2929687 0,-0.1757813 -0.117187,-0.4921875 -0.503906,-0.4921875 -0.199219,0 -0.632813,0.058594 -1.054688,0.46875 -0.421875,-0.328125 -0.84375,-0.3632813 -1.054687,-0.3632813 -0.925781,0 -1.617188,0.6914063 -1.617188,1.453125 0,0.4453125 0.222657,0.8203125 0.46875,1.03125 -0.128906,0.1523438 -0.304687,0.4804688 -0.304687,0.8203125 0,0.31640629 0.128906,0.69140629 0.433594,0.89062504 -0.597657,0.17578125 -0.914063,0.59765625 -0.914063,0.99609375 0,0.71484371 0.984375,1.26562501 2.203125,1.26562501 1.171875,0 2.203125,-0.5039063 2.203125,-1.28906251 0,-0.33984375 -0.140625,-0.85546875 -0.644531,-1.125 -0.527344,-0.28125 -1.101563,-0.28125 -1.710938,-0.28125 -0.246093,0 -0.679687,0 -0.75,-0.0117188 -0.316406,-0.046875 -0.527343,-0.35156249 -0.527343,-0.66796869 z m 1.441406,3.1523437 c -1.007813,0 -1.699219,-0.515625 -1.699219,-1.04296871 0,-0.45703125 0.375,-0.8203125 0.820313,-0.85546875 h 0.585937 c 0.855469,0 1.96875,0 1.96875,0.85546875 0,0.53906251 -0.703125,1.04296871 -1.675781,1.04296871 z m 4.699219,-3.5390625 c -0.867188,0 -0.867188,-0.9960937 -0.867188,-1.2304687 0,-0.2695313 0.01172,-0.5859375 0.152344,-0.8320313 0.08203,-0.1171875 0.316406,-0.3984375 0.714844,-0.3984375 0.867187,0 0.867187,0.9960938 0.867187,1.21875 0,0.2695313 -0.01172,0.5976563 -0.164062,0.84375 -0.08203,0.1171875 -0.304688,0.3984375 -0.703125,0.3984375 z m -1.160157,0.3867188 c 0,-0.035156 0,-0.2695313 0.175782,-0.46875 0.386718,0.28125 0.796875,0.3046875 0.984375,0.3046875 0.925781,0 1.605468,-0.6796875 1.605468,-1.453125 0,-0.3632813 -0.152343,-0.7382813 -0.398437,-0.9609375 0.351562,-0.3398438 0.714844,-0.3867188 0.890625,-0.3867188 0.02344,0 0.07031,0 0.105469,0 -0.117188,0.046875 -0.164063,0.1523438 -0.164063,0.2695313 0,0.1757812 0.128906,0.2929687 0.292969,0.2929687 0.09375,0 0.28125,-0.070312 0.28125,-0.2929687 0,-0.1757813 -0.117188,-0.4921875 -0.503906,-0.4921875 -0.199219,0 -0.632813,0.058594 -1.054688,0.46875 -0.421875,-0.328125 -0.84375,-0.3632813 -1.054687,-0.3632813 -0.925782,0 -1.617188,0.6914063 -1.617188,1.453125 0,0.4453125 0.222656,0.8203125 0.46875,1.03125 -0.128906,0.1523438 -0.304687,0.4804688 -0.304687,0.8203125 0,0.31640629 0.128906,0.69140629 0.433593,0.89062504 -0.597656,0.17578125 -0.914062,0.59765625 -0.914062,0.99609375 0,0.71484371 0.984375,1.26562501 2.203125,1.26562501 1.171875,0 2.203125,-0.5039063 2.203125,-1.28906251 0,-0.33984375 -0.140625,-0.85546875 -0.644531,-1.125 -0.527344,-0.28125 -1.101563,-0.28125 -1.710938,-0.28125 -0.246094,0 -0.679687,0 -0.75,-0.0117188 -0.316406,-0.046875 -0.527344,-0.35156249 -0.527344,-0.66796869 z m 1.441407,3.1523437 c -1.007813,0 -1.699219,-0.515625 -1.699219,-1.04296871 0,-0.45703125 0.375,-0.8203125 0.820312,-0.85546875 h 0.585938 c 0.855469,0 1.96875,0 1.96875,0.85546875 0,0.53906251 -0.703125,1.04296871 -1.675781,1.04296871 z m 3.600586,-4.3359375 c 0.05859,-1.4882812 0.902343,-1.734375 1.242187,-1.734375 1.019531,0 1.125,1.3476563 1.125,1.734375 z m -0.01172,0.2109375 h 2.789062 c 0.210938,0 0.246094,0 0.246094,-0.2109375 0,-0.984375 -0.539062,-1.9570312 -1.78125,-1.9570312 -1.160156,0 -2.074219,1.03125 -2.074219,2.2734375 0,1.33593749 1.042969,2.29687499 2.191407,2.29687499 1.21875,0 1.664062,-1.1015625 1.664062,-1.28906249 0,-0.1054688 -0.08203,-0.1171875 -0.128906,-0.1171875 -0.09375,0 -0.117188,0.058594 -0.128906,0.140625 -0.351563,1.01953124 -1.253907,1.01953124 -1.347657,1.01953124 -0.503906,0 -0.902343,-0.29296875 -1.125,-0.66796875 C 52.738719,-1.2886016 52.738719,-1.9448516 52.738719,-2.2964141 Z m 4.989258,-1.0078125 v -1.1015625 l -1.382813,0.1171875 v 0.3046875 c 0.691406,0 0.773438,0.070312 0.773438,0.5625 v 2.66015629 c 0,0.45703125 -0.105469,0.45703125 -0.773438,0.45703125 V 4.609375e-4 C 56.731883,-0.01125781 57.200633,-0.03469531 57.481883,-0.03469531 c 0.398437,0 0.867187,0 1.265625,0.0351562475 V -0.30422656 H 58.53657 c -0.738281,0 -0.761718,-0.1171875 -0.761718,-0.46875 V -2.3081328 c 0,-0.984375 0.421875,-1.875 1.183593,-1.875 0.05859,0 0.08203,0 0.105469,0.011719 -0.03516,0.011719 -0.234375,0.1289063 -0.234375,0.3867188 0,0.28125 0.210938,0.4335937 0.433594,0.4335937 0.175781,0 0.421875,-0.1289062 0.421875,-0.4453125 0,-0.3164062 -0.304688,-0.609375 -0.726563,-0.609375 -0.738281,0 -1.089843,0.6679688 -1.230468,1.1015625 z m 3.351562,0.796875 c 0.05859,-1.4882812 0.902344,-1.734375 1.242188,-1.734375 1.019531,0 1.125,1.3476563 1.125,1.734375 z m -0.01172,0.2109375 h 2.789063 c 0.210937,0 0.246094,0 0.246094,-0.2109375 0,-0.984375 -0.539063,-1.9570312 -1.78125,-1.9570312 -1.160157,0 -2.074219,1.03125 -2.074219,2.2734375 0,1.33593749 1.042969,2.29687499 2.191406,2.29687499 1.21875,0 1.664063,-1.1015625 1.664063,-1.28906249 0,-0.1054688 -0.08203,-0.1171875 -0.128907,-0.1171875 -0.09375,0 -0.117187,0.058594 -0.128906,0.140625 -0.351562,1.01953124 -1.253906,1.01953124 -1.347656,1.01953124 -0.503906,0 -0.902344,-0.29296875 -1.125,-0.66796875 C 61.06782,-1.2886016 61.06782,-1.9448516 61.06782,-2.2964141 Z m 7.110352,1.74609379 v 0.65625 L 69.643016,4.609375e-4 V -0.30422656 c -0.703125,0 -0.773438,-0.0703125 -0.773438,-0.5625 V -6.9136016 l -1.441406,0.1054688 v 0.3164062 c 0.703125,0 0.785156,0.070312 0.785156,0.5507813 v 2.15625 c -0.292969,-0.3632813 -0.726562,-0.6210938 -1.265625,-0.6210938 -1.171875,0 -2.214844,0.984375 -2.214844,2.2617188 0,1.26562499 0.972657,2.24999999 2.109375,2.24999999 0.644532,0 1.089844,-0.33984375 1.335938,-0.65625 z m 0,-2.67187499 v 2.0507812 c 0,0.17578129 0,0.19921879 -0.105469,0.36328129 -0.304687,0.48046875 -0.75,0.703125 -1.183594,0.703125 -0.445312,0 -0.796875,-0.2578125 -1.042968,-0.64453125 -0.257813,-0.41015624 -0.292969,-0.97265624 -0.292969,-1.38281254 0,-0.3632812 0.02344,-0.9609375 0.316406,-1.4179687 0.210938,-0.3046875 0.585938,-0.6328125 1.125,-0.6328125 0.351563,0 0.761719,0.1523437 1.078125,0.5976562 0.105469,0.1640625 0.105469,0.1875 0.105469,0.3632813 z m 4.092773,0.7382812 c 0,-1.2539062 0.960938,-1.9570312 1.3125,-2.2148437 0.269532,-0.1992188 0.480469,-0.5625 0.480469,-0.984375 0,-0.5742188 -0.398437,-1.3359375 -1.886719,-1.3359375 -1.078125,0 -1.6875,0.6796875 -1.6875,1.3242187 0,0.3398438 0.222657,0.4804688 0.457032,0.4804688 0.28125,0 0.457031,-0.1992188 0.457031,-0.46875 0,-0.4453125 -0.421875,-0.4453125 -0.5625,-0.4453125 0.316406,-0.5273438 0.890625,-0.6796875 1.3125,-0.6796875 1.078125,0 1.078125,0.6796875 1.078125,1.0664062 0,0.5976563 -0.152344,0.7734375 -0.339844,0.9492188 -0.65625,0.7148437 -0.867187,1.640625 -0.867187,2.2382812 v 0.4570313 c 0,0.1757812 0,0.234375 0.117187,0.234375 0.128906,0 0.128906,-0.09375 0.128906,-0.2695313 z m 0.398438,1.95703129 c 0,-0.29296875 -0.246094,-0.52734379 -0.527344,-0.52734379 -0.292969,0 -0.527344,0.23437504 -0.527344,0.52734379 0,0.29296875 0.234375,0.5273437475 0.527344,0.5273437475 0.28125,0 0.527344,-0.2343749975 0.527344,-0.5273437475 z m 0,0"
       style="fill:#000000;fill-opacity:1;fill-rule:nonzero;stroke:none"
       aria-label="EventTriggered?"
       transform="matrix(1.3333333,0,0,1.3333333,213.19733,377.86267)" />
    <path
       id="path7"
       d="M 79.74376,-155.90747 H 203.7244 v 28.34679 H 79.74376 Z"
       style="fill:#b3b3ff;fill-opacity:1;fill-rule:nonzero;stroke:#000000;stroke-width:0.3985;stroke-linecap:butt;stroke-linejoin:miter;stroke-miterlimit:10;stroke-dasharray:none;stroke-opacity:1"
       transform="matrix(1.3333333,0,0,-1.3333333,262.95467,185.56533)" />
    <path
       id="path8"
       d="m 1.3596484,-0.77225 c 0,0.3515625 -0.023437,0.46875 -0.79687496,0.46875 h -0.234375 V 0.0011875 H 6.0823047 L 6.4924609,-2.5652187 H 6.2463672 C 6.0002734,-1.0300625 5.7658984,-0.3035 4.0549609,-0.3035 H 2.7307422 c -0.46875,0 -0.4921875,-0.0703125 -0.4921875,-0.3984375 v -2.6601562 h 0.9023437 c 0.9609375,0 1.078125,0.3164062 1.078125,1.1601562 H 4.4651172 V -4.8386562 H 4.2190234 c 0,0.8554687 -0.1171875,1.1601562 -1.078125,1.1601562 H 2.2385547 v -2.390625 c 0,-0.328125 0.023437,-0.3984375 0.4921875,-0.3984375 h 1.2890625 c 1.5234375,0 1.7929687,0.5507813 1.9453125,1.9335938 H 6.2112109 L 5.9416797,-6.77225 H 0.32839844 v 0.3046875 h 0.234375 c 0.77343746,0 0.79687496,0.1171875 0.79687496,0.46875 z m 8.2792969,-1.5703125 c 0.2929688,-0.375 0.6796877,-0.8671875 0.9140627,-1.125 0.316406,-0.3515625 0.714844,-0.5039062 1.183594,-0.515625 V -4.287875 c -0.257813,0.011719 -0.550782,0.023437 -0.808594,0.023437 -0.304688,0 -0.832031,-0.023437 -0.9609377,-0.023437 v 0.3046875 c 0.2109377,0.023437 0.2929687,0.1523438 0.2929687,0.3046875 0,0.1640625 -0.105469,0.2929688 -0.152344,0.3515625 L 9.4866016,-2.5535 8.7131641,-3.5495937 c -0.09375,-0.1054688 -0.09375,-0.1289063 -0.09375,-0.1875 0,-0.1523438 0.1523437,-0.234375 0.3515625,-0.2460938 V -4.287875 c -0.2578125,0 -0.9140625,0.023437 -1.078125,0.023437 -0.2109375,0 -0.6796875,-0.011719 -0.9492188,-0.023437 v 0.3046875 c 0.703125,0 0.7148438,0.011719 1.1835938,0.609375 l 0.984375,1.2773438 -0.9375,1.19531245 C 7.6936328,-0.3269375 7.1076953,-0.3035 6.8967578,-0.3035 v 0.3046875 c 0.2578125,-0.0234375 0.5742188,-0.03515625 0.8320313,-0.03515625 0.28125,0 0.703125,0.0234375 0.9492187,0.03515625 V -0.3035 C 8.4553516,-0.3386563 8.3850391,-0.4675625 8.3850391,-0.61990625 c 0,-0.2109375 0.2929687,-0.53906245 0.890625,-1.26562495 l 0.7617189,0.9960937 c 0.08203,0.1171875 0.210937,0.26953125 0.210937,0.328125 0,0.09375 -0.09375,0.24609375 -0.3632809,0.2578125 v 0.3046875 c 0.3046879,-0.01171875 0.8554689,-0.03515625 1.0781249,-0.03515625 0.269531,0 0.65625,0.01171875 0.960938,0.03515625 V -0.3035 c -0.539063,0 -0.726563,-0.0234375 -0.949219,-0.31640625 z M 13.151641,-2.506625 c 0.05859,-1.4882812 0.902343,-1.734375 1.242187,-1.734375 1.019531,0 1.125,1.3476563 1.125,1.734375 z m -0.01172,0.2109375 h 2.789062 c 0.210938,0 0.246094,0 0.246094,-0.2109375 0,-0.984375 -0.539062,-1.9570312 -1.78125,-1.9570312 -1.160156,0 -2.074219,1.03125 -2.074219,2.2734375 0,1.33593745 1.042969,2.29687495 2.191407,2.29687495 1.21875,0 1.664062,-1.1015625 1.664062,-1.28906245 0,-0.1054688 -0.08203,-0.1171875 -0.128906,-0.1171875 -0.09375,0 -0.117188,0.058594 -0.128906,0.140625 -0.351563,1.0195312 -1.253907,1.0195312 -1.347657,1.0195312 -0.503906,0 -0.902343,-0.29296875 -1.125,-0.66796875 C 13.139922,-1.287875 13.139922,-1.944125 13.139922,-2.2956875 Z m 4.485351,0.1289063 c 0,-1.6289063 0.820313,-2.0507813 1.347657,-2.0507813 0.09375,0 0.714843,0.011719 1.066406,0.375 -0.410156,0.023437 -0.46875,0.328125 -0.46875,0.4570313 0,0.2578125 0.1875,0.4570312 0.457031,0.4570312 0.257813,0 0.457031,-0.1640625 0.457031,-0.46875 0,-0.6796875 -0.75,-1.0664062 -1.523437,-1.0664062 -1.242188,0 -2.15625,1.078125 -2.15625,2.3085937 0,1.27734375 0.984375,2.26171875 2.144531,2.26171875 1.335938,0 1.652344,-1.19531245 1.652344,-1.28906245 0,-0.1054688 -0.105469,-0.1054688 -0.128906,-0.1054688 -0.09375,0 -0.117188,0.046875 -0.128907,0.1054688 -0.292968,0.9257812 -0.9375,1.0429687 -1.3125,1.0429687 -0.527343,0 -1.40625,-0.421875 -1.40625,-2.0273437 z m 7.160157,1.38281245 v 0.890625 L 26.226836,0.0011875 V -0.3035 c -0.703125,0 -0.785156,-0.0703125 -0.785156,-0.5625 v -3.5390625 l -1.453125,0.1171875 v 0.3046875 c 0.691406,0 0.773437,0.070312 0.773437,0.5625 v 1.7695313 c 0,0.86718745 -0.480469,1.54687495 -1.207031,1.54687495 -0.832031,0 -0.878906,-0.46875 -0.878906,-0.99609375 v -3.3046875 l -1.464844,0.1171875 v 0.3046875 c 0.785156,0 0.785156,0.035156 0.785156,0.9140625 v 1.5 c 0,0.7734375 0,1.67578125 1.511719,1.67578125 0.550781,0 0.996094,-0.26953125 1.277343,-0.890625 z M 28.15164,-3.9831875 h 1.429687 V -4.287875 H 28.15164 v -1.8398437 h -0.246094 c -0.01172,0.8203125 -0.316406,1.8867187 -1.289063,1.921875 v 0.2226562 h 0.84375 v 2.7539063 c 0,1.21874995 0.925782,1.33593745 1.289063,1.33593745 0.703125,0 0.984375,-0.703125 0.984375,-1.33593745 V -1.8035 h -0.246094 v 0.5507813 c 0,0.7382812 -0.304687,1.1132812 -0.667969,1.1132812 -0.667968,0 -0.667968,-0.9023437 -0.667968,-1.078125 z m 3.263672,1.4765625 C 31.473906,-3.9949062 32.317656,-4.241 32.6575,-4.241 c 1.019531,0 1.125,1.3476563 1.125,1.734375 z m -0.01172,0.2109375 h 2.789062 c 0.210938,0 0.246094,0 0.246094,-0.2109375 0,-0.984375 -0.539062,-1.9570312 -1.78125,-1.9570312 -1.160156,0 -2.074219,1.03125 -2.074219,2.2734375 0,1.33593745 1.042969,2.29687495 2.191407,2.29687495 1.21875,0 1.664062,-1.1015625 1.664062,-1.28906245 0,-0.1054688 -0.08203,-0.1171875 -0.128906,-0.1171875 -0.09375,0 -0.117188,0.058594 -0.128906,0.140625 -0.351563,1.0195312 -1.253907,1.0195312 -1.347657,1.0195312 -0.503906,0 -0.902343,-0.29296875 -1.125,-0.66796875 C 31.403594,-1.287875 31.403594,-1.944125 31.403594,-2.2956875 Z m 7.207031,-1.1132812 c 0,2.0625 1.605469,3.63281245 3.457031,3.63281245 1.628907,0 2.601563,-1.38281245 2.601563,-2.54296875 0,-0.1054687 0,-0.1757812 -0.128906,-0.1757812 -0.105469,0 -0.105469,0.070312 -0.117188,0.1640625 -0.08203,1.42968745 -1.148437,2.2382812 -2.226562,2.2382812 -0.609375,0 -2.566407,-0.33984375 -2.566407,-3.3046875 0,-2.9765625 1.945313,-3.3164062 2.554688,-3.3164062 1.078125,0 1.96875,0.9023437 2.167969,2.3671875 0.02344,0.1289062 0.02344,0.1640625 0.164062,0.1640625 0.152344,0 0.152344,-0.035156 0.152344,-0.234375 v -2.3671875 c 0,-0.1640625 0,-0.234375 -0.105469,-0.234375 -0.03516,0 -0.08203,0 -0.164062,0.1171875 L 43.9075,-6.162875 c -0.375,-0.3632812 -0.878906,-0.8554687 -1.839844,-0.8554687 -1.863281,0 -3.457031,1.5820312 -3.457031,3.609375 z m 9.949219,2.64843745 c 0.03516,0.3984375 0.304687,0.8203125 0.773437,0.8203125 0.210938,0 0.820313,-0.140625 0.820313,-0.94921875 V -1.4402187 H 49.9075 v 0.5507812 c 0,0.5859375 -0.246094,0.64453125 -0.363281,0.64453125 -0.328125,0 -0.363281,-0.45703125 -0.363281,-0.50390625 V -2.741 c 0,-0.4101562 0,-0.8085937 -0.363282,-1.171875 -0.386718,-0.3867187 -0.878906,-0.5507812 -1.359375,-0.5507812 -0.820312,0 -1.511718,0.46875 -1.511718,1.125 0,0.3046875 0.199218,0.46875 0.457031,0.46875 0.28125,0 0.46875,-0.1992188 0.46875,-0.4570313 0,-0.1171875 -0.05859,-0.4453125 -0.515625,-0.4570312 C 46.62625,-4.1355312 47.118438,-4.241 47.434844,-4.241 c 0.492187,0 1.054687,0.3867188 1.054687,1.2773438 v 0.3632812 c -0.503906,0.035156 -1.207031,0.058594 -1.828125,0.3632813 -0.75,0.3398437 -0.996093,0.8554687 -0.996093,1.28906245 0,0.80859375 0.960937,1.0546875 1.59375,1.0546875 0.65625,0 1.113281,-0.3984375 1.300781,-0.8671875 z m -0.07031,-1.62890625 v 0.9960938 c 0,0.9492187 -0.714843,1.28906245 -1.160156,1.28906245 -0.492187,0 -0.902344,-0.3515625 -0.902344,-0.85546875 0,-0.5390625 0.421875,-1.3710937 2.0625,-1.4296875 z M 51.98172,-6.912875 50.552032,-6.8074062 V -6.491 c 0.703125,0 0.773438,0.070312 0.773438,0.5507813 v 5.17968745 C 51.325469,-0.3035 51.22,-0.3035 50.552031,-0.3035 v 0.3046875 c 0.328125,-0.01171875 0.855469,-0.03515625 1.101563,-0.03515625 0.257812,0 0.738281,0.0234375 1.113281,0.03515625 V -0.3035 c -0.667969,0 -0.785156,0 -0.785156,-0.45703125 z m 2.768554,0 -1.429687,0.1054688 V -6.491 c 0.703125,0 0.773437,0.070312 0.773437,0.5507813 v 5.17968745 C 54.094023,-0.3035 53.988555,-0.3035 53.320586,-0.3035 v 0.3046875 c 0.328125,-0.01171875 0.855469,-0.03515625 1.101562,-0.03515625 0.257813,0 0.738282,0.0234375 1.113282,0.03515625 V -0.3035 c -0.667969,0 -0.785157,0 -0.785157,-0.45703125 z m 2.72168,3.1640625 V -6.912875 l -1.429687,0.1054688 V -6.491 c 0.691406,0 0.773437,0.070312 0.773437,0.5507813 v 5.9414062 h 0.246094 c 0.01172,-0.01171875 0.09375,-0.15234375 0.363281,-0.62109375 0.152344,0.234375 0.5625,0.7265625 1.300781,0.7265625 1.183594,0 2.226563,-0.97265625 2.226563,-2.26171875 0,-1.265625 -0.972656,-2.25 -2.109375,-2.25 -0.785156,0 -1.207031,0.46875 -1.371094,0.65625 z m 0.03516,2.6132813 v -2.0507813 c 0,-0.1875 0,-0.1992187 0.105469,-0.3632812 0.386719,-0.5507813 0.9375,-0.6328125 1.171875,-0.6328125 0.457031,0 0.808594,0.2578125 1.054688,0.6328125 0.257812,0.4101562 0.28125,0.984375 0.28125,1.3945312 0,0.3632813 -0.01172,0.9609375 -0.304688,1.40625 -0.210937,0.31640625 -0.585937,0.64453125 -1.125,0.64453125 -0.445312,0 -0.808594,-0.24609375 -1.042969,-0.609375 -0.14063,-0.2109375 -0.14063,-0.24609375 -0.14063,-0.42187495 z m 7.104493,0.37499995 c 0.03516,0.3984375 0.304687,0.8203125 0.773437,0.8203125 0.210938,0 0.820313,-0.140625 0.820313,-0.94921875 v -0.5507812 h -0.246094 v 0.5507812 c 0,0.5859375 -0.246094,0.64453125 -0.363281,0.64453125 -0.328125,0 -0.363282,-0.45703125 -0.363282,-0.50390625 V -2.741 c 0,-0.4101562 0,-0.8085937 -0.363281,-1.171875 -0.386719,-0.3867187 -0.878906,-0.5507812 -1.359375,-0.5507812 -0.820312,0 -1.511719,0.46875 -1.511719,1.125 0,0.3046875 0.199219,0.46875 0.457032,0.46875 0.28125,0 0.46875,-0.1992188 0.46875,-0.4570313 0,-0.1171875 -0.05859,-0.4453125 -0.515625,-0.4570312 0.269526,-0.3515625 0.761713,-0.4570313 1.07812,-0.4570313 0.492187,0 1.054687,0.3867188 1.054687,1.2773438 v 0.3632812 c -0.503906,0.035156 -1.207031,0.058594 -1.828125,0.3632813 -0.75,0.3398437 -0.996094,0.8554687 -0.996094,1.28906245 0,0.80859375 0.960938,1.0546875 1.59375,1.0546875 0.65625,0 1.113282,-0.3984375 1.300782,-0.8671875 z m -0.07031,-1.62890625 v 0.9960938 c 0,0.9492187 -0.714844,1.28906245 -1.160156,1.28906245 -0.492188,0 -0.902344,-0.3515625 -0.902344,-0.85546875 0,-0.5390625 0.421875,-1.3710937 2.0625,-1.4296875 z m 2.894531,0.2226563 c 0,-1.6289063 0.820313,-2.0507813 1.347657,-2.0507813 0.09375,0 0.714843,0.011719 1.066406,0.375 -0.410156,0.023437 -0.46875,0.328125 -0.46875,0.4570313 0,0.2578125 0.1875,0.4570312 0.457031,0.4570312 0.257813,0 0.457031,-0.1640625 0.457031,-0.46875 0,-0.6796875 -0.75,-1.0664062 -1.523437,-1.0664062 -1.242188,0 -2.15625,1.078125 -2.15625,2.3085937 0,1.27734375 0.984375,2.26171875 2.144531,2.26171875 1.335938,0 1.652344,-1.19531245 1.652344,-1.28906245 0,-0.1054688 -0.105469,-0.1054688 -0.128906,-0.1054688 -0.09375,0 -0.117188,0.046875 -0.128907,0.1054688 -0.292968,0.9257812 -0.9375,1.0429687 -1.3125,1.0429687 -0.527343,0 -1.40625,-0.421875 -1.40625,-2.0273437 z m 4.054688,1.40624995 C 71.490508,-0.3035 71.385039,-0.3035 70.71707,-0.3035 v 0.3046875 c 0.328125,-0.01171875 0.796875,-0.03515625 1.078125,-0.03515625 0.304688,0 0.703125,0.01171875 1.101563,0.03515625 V -0.3035 c -0.667969,0 -0.773438,0 -0.773438,-0.45703125 V -1.7800625 l 0.632813,-0.5507812 c 0.773437,1.0546875 1.183594,1.61718745 1.183594,1.7929687 0,0.1875 -0.164063,0.234375 -0.351563,0.234375 v 0.3046875 c 0.269531,-0.01171875 0.867188,-0.03515625 1.066406,-0.03515625 0.292969,0 0.585938,0.01171875 0.867188,0.03515625 V -0.3035 c -0.363281,0 -0.585938,0 -0.960938,-0.52734375 L 73.295195,-2.6238125 c -0.01172,-0.011719 -0.05859,-0.070312 -0.05859,-0.1054687 0,-0.035156 0.703125,-0.6328125 0.808593,-0.7148438 0.621094,-0.5039062 1.042969,-0.5273437 1.253907,-0.5390625 V -4.287875 c -0.292969,0.023437 -0.421875,0.023437 -0.703125,0.023437 -0.351563,0 -0.972657,-0.023437 -1.113282,-0.023437 v 0.3046875 c 0.1875,0.011719 0.292969,0.1171875 0.292969,0.2460938 0,0.1992187 -0.140625,0.3164062 -0.222656,0.3867187 l -1.40625,1.21875 v -4.78125 L 70.71707,-6.8074062 V -6.491 c 0.691407,0 0.773438,0.070312 0.773438,0.5507813 z M 84.811797,-6.77225 h -5.472656 v 0.3046875 h 0.234375 c 0.773437,0 0.796875,0.1171875 0.796875,0.46875 V -0.77225 c 0,0.3515625 -0.02344,0.46875 -0.796875,0.46875 h -0.234375 v 0.3046875 c 0.351562,-0.03515625 1.125,-0.03515625 1.511718,-0.03515625 0.410157,0 1.3125,0 1.675782,0.03515625 V -0.3035 h -0.328125 c -0.949219,0 -0.949219,-0.12890625 -0.949219,-0.48046875 V -3.2331875 h 0.855469 c 0.960937,0 1.054687,0.3164063 1.054687,1.1601563 h 0.257813 V -4.70975 h -0.257813 c 0,0.8320313 -0.09375,1.1601563 -1.054687,1.1601563 H 81.249297 V -6.069125 c 0,-0.328125 0.02344,-0.3984375 0.492187,-0.3984375 h 1.195313 c 1.488281,0 1.746094,0.5625 1.898437,1.9335938 h 0.257813 z m 3.764648,5.98828125 v 0.890625 L 90.017852,0.0011875 V -0.3035 c -0.703125,0 -0.785157,-0.0703125 -0.785157,-0.5625 V -4.4050625 L 87.77957,-4.287875 v 0.3046875 c 0.691407,0 0.773438,0.070312 0.773438,0.5625 v 1.7695313 c 0,0.86718745 -0.480469,1.54687495 -1.207031,1.54687495 -0.832032,0 -0.878907,-0.46875 -0.878907,-0.99609375 v -3.3046875 l -1.464843,0.1171875 v 0.3046875 c 0.785156,0 0.785156,0.035156 0.785156,0.9140625 v 1.5 c 0,0.7734375 0,1.67578125 1.511719,1.67578125 0.550781,0 0.996093,-0.26953125 1.277343,-0.890625 z m 2.736328,-2.63671875 v 2.66015625 C 91.312773,-0.3035 91.195586,-0.3035 90.527617,-0.3035 v 0.3046875 c 0.351563,-0.01171875 0.855469,-0.03515625 1.125,-0.03515625 0.257813,0 0.785156,0.0234375 1.113281,0.03515625 V -0.3035 c -0.65625,0 -0.773437,0 -0.773437,-0.45703125 V -2.5886562 c 0,-1.03125 0.714844,-1.59375 1.347656,-1.59375 0.621094,0 0.738281,0.5390625 0.738281,1.1015625 v 2.32031245 C 94.078398,-0.3035 93.961211,-0.3035 93.304961,-0.3035 v 0.3046875 c 0.339844,-0.01171875 0.855469,-0.03515625 1.125,-0.03515625 0.257812,0 0.773437,0.0234375 1.113281,0.03515625 V -0.3035 c -0.515625,0 -0.773437,0 -0.785156,-0.3046875 V -2.506625 c 0,-0.8554687 0,-1.171875 -0.304688,-1.5234375 -0.140625,-0.1757812 -0.46875,-0.375 -1.042968,-0.375 -0.726563,0 -1.195313,0.4335938 -1.476563,1.0546875 v -1.0546875 l -1.40625,0.1171875 v 0.3046875 c 0.703125,0 0.785156,0.070312 0.785156,0.5625 z m 5.595704,1.2539063 c 0,-1.6289063 0.820312,-2.0507813 1.347656,-2.0507813 0.09375,0 0.714844,0.011719 1.066406,0.375 -0.410156,0.023437 -0.46875,0.328125 -0.46875,0.4570313 0,0.2578125 0.1875,0.4570312 0.457031,0.4570312 0.257813,0 0.457032,-0.1640625 0.457032,-0.46875 0,-0.6796875 -0.75,-1.0664062 -1.523438,-1.0664062 -1.242187,0 -2.15625,1.078125 -2.15625,2.3085937 0,1.27734375 0.984375,2.26171875 2.144531,2.26171875 1.335938,0 1.652344,-1.19531245 1.652344,-1.28906245 0,-0.1054688 -0.105469,-0.1054688 -0.128906,-0.1054688 -0.09375,0 -0.117188,0.046875 -0.128906,0.1054688 -0.292969,0.9257812 -0.9375,1.0429687 -1.3125,1.0429687 -0.527344,0 -1.40625,-0.421875 -1.40625,-2.0273437 z m 4.989253,-1.8164063 h 1.42969 V -4.287875 h -1.42969 v -1.8398437 h -0.24609 c -0.0117,0.8203125 -0.31641,1.8867187 -1.28906,1.921875 v 0.2226562 h 0.84375 v 2.7539063 c 0,1.21874995 0.92578,1.33593745 1.28906,1.33593745 0.70313,0 0.98438,-0.703125 0.98438,-1.33593745 V -1.8035 h -0.2461 v 0.5507813 c 0,0.7382812 -0.30469,1.1132812 -0.66797,1.1132812 -0.66797,0 -0.66797,-0.9023437 -0.66797,-1.078125 z m 3.90821,-0.421875 -1.39453,0.1171875 v 0.3046875 c 0.65625,0 0.73828,0.058594 0.73828,0.5507813 v 2.67187495 c 0,0.45703125 -0.10547,0.45703125 -0.77344,0.45703125 v 0.3046875 c 0.31641,-0.01171875 0.85547,-0.03515625 1.10156,-0.03515625 0.33985,0 0.69141,0.0234375 1.03125,0.03515625 V -0.3035 c -0.65625,0 -0.70312,-0.0585938 -0.70312,-0.4453125 z m 0.0469,-1.734375 c 0,-0.3164062 -0.24609,-0.5273437 -0.52734,-0.5273437 -0.31641,0 -0.52734,0.2695312 -0.52734,0.5273437 0,0.2695313 0.21093,0.5273438 0.52734,0.5273438 0.28125,0 0.52734,-0.1992188 0.52734,-0.5273438 z m 5.65137,4.0078125 c 0,-1.2773437 -0.99609,-2.3320312 -2.19141,-2.3320312 -1.2539,0 -2.21484,1.0898437 -2.21484,2.3320312 0,1.2890625 1.03125,2.23828125 2.20312,2.23828125 1.20704,0 2.20313,-0.97265625 2.20313,-2.23828125 z m -2.19141,1.9921875 c -0.43359,0 -0.86718,-0.2109375 -1.13672,-0.66796875 C 107.91824,-1.241 107.91824,-1.850375 107.91824,-2.2136562 c 0,-0.3867188 0,-0.9257813 0.2461,-1.359375 0.26953,-0.4570313 0.73828,-0.6679688 1.13671,-0.6679688 0.4336,0 0.86719,0.2226563 1.125,0.6445313 0.25782,0.4335937 0.25782,1.0078125 0.25782,1.3828125 0,0.3632812 0,0.9023437 -0.22266,1.33593745 -0.22266,0.4453125 -0.65625,0.73828125 -1.14844,0.73828125 z m 3.58594,-3.28125 v 2.66015625 c 0,0.45703125 -0.11719,0.45703125 -0.78516,0.45703125 v 0.3046875 c 0.35157,-0.01171875 0.85547,-0.03515625 1.125,-0.03515625 0.25782,0 0.78516,0.0234375 1.11329,0.03515625 V -0.3035 c -0.65625,0 -0.77344,0 -0.77344,-0.45703125 V -2.5886562 c 0,-1.03125 0.71484,-1.59375 1.34765,-1.59375 0.6211,0 0.73829,0.5390625 0.73829,1.1015625 v 2.32031245 c 0,0.45703125 -0.11719,0.45703125 -0.77344,0.45703125 v 0.3046875 c 0.33984,-0.01171875 0.85547,-0.03515625 1.125,-0.03515625 0.25781,0 0.77344,0.0234375 1.11328,0.03515625 V -0.3035 c -0.51563,0 -0.77344,0 -0.78516,-0.3046875 V -2.506625 c 0,-0.8554687 0,-1.171875 -0.30468,-1.5234375 -0.14063,-0.1757812 -0.46875,-0.375 -1.04297,-0.375 -0.72657,0 -1.19532,0.4335938 -1.47657,1.0546875 v -1.0546875 l -1.40625,0.1171875 v 0.3046875 c 0.70313,0 0.78516,0.070312 0.78516,0.5625 z m 0,0"
       style="fill:#000000;fill-opacity:1;fill-rule:nonzero;stroke:none"
       aria-label="ExecuteCallbackFunction"
       transform="matrix(1.3333333,0,0,1.3333333,373.70667,379.15467)" />
    <path
       id="path9"
       d="m -43.54532,-240.94792 h 87.09064 v 28.34679 h -87.09064 z"
       style="fill:#b3b3ff;fill-opacity:1;fill-rule:nonzero;stroke:#000000;stroke-width:0.3985;stroke-linecap:butt;stroke-linejoin:miter;stroke-miterlimit:10;stroke-dasharray:none;stroke-opacity:1"
       transform="matrix(1.3333333,0,0,-1.3333333,262.95467,185.56533)" />
    <path
       id="path10"
       d="m 0.56366406,-3.4093203 c 0,2.0625 1.60546874,3.63281249 3.45703124,3.63281249 1.6289063,0 2.6015625,-1.38281249 2.6015625,-2.54296879 0,-0.1054687 0,-0.1757812 -0.1289062,-0.1757812 -0.1054688,0 -0.1054688,0.070312 -0.1171875,0.1640625 -0.082031,1.42968749 -1.1484375,2.23828124 -2.2265625,2.23828124 -0.609375,0 -2.5664063,-0.33984375 -2.5664063,-3.30468754 0,-2.9765625 1.9453125,-3.3164062 2.5546875,-3.3164062 1.078125,0 1.96875,0.9023437 2.1679688,2.3671875 0.023437,0.1289062 0.023437,0.1640625 0.1640625,0.1640625 0.1523437,0 0.1523437,-0.035156 0.1523437,-0.234375 v -2.3671875 c 0,-0.1640625 0,-0.234375 -0.1054687,-0.234375 -0.035156,0 -0.082031,0 -0.1640625,0.1171875 l -0.4921875,0.7382812 c -0.375,-0.3632812 -0.8789063,-0.8554687 -1.8398438,-0.8554687 -1.8632812,0 -3.45703124,1.5820312 -3.45703124,3.609375 z M 11.881047,-2.1319766 c 0,-1.2773437 -0.996094,-2.3320312 -2.1914064,-2.3320312 -1.2539062,0 -2.2148437,1.0898437 -2.2148437,2.3320312 0,1.28906254 1.03125,2.23828129 2.203125,2.23828129 1.2070311,0 2.2031251,-0.97265625 2.2031251,-2.23828129 z m -2.1914064,1.99218754 c -0.4335937,0 -0.8671875,-0.2109375 -1.1367187,-0.66796875 C 8.2951094,-1.2413516 8.2951094,-1.8507266 8.2951094,-2.2140078 c 0,-0.3867188 0,-0.9257813 0.2460937,-1.359375 0.2695313,-0.4570313 0.7382813,-0.6679688 1.1367188,-0.6679688 0.4335941,0 0.8671871,0.2226563 1.1250001,0.6445313 0.257812,0.4335937 0.257812,1.0078125 0.257812,1.3828125 0,0.3632812 0,0.9023437 -0.222656,1.33593749 -0.222656,0.4453125 -0.65625,0.73828125 -1.1484374,0.73828125 z M 13.278508,-3.4210391 v 2.66015629 c 0,0.45703125 -0.117188,0.45703125 -0.785156,0.45703125 V 8.359375e-4 c 0.351562,-0.0117187475 0.855468,-0.0351562475 1.125,-0.0351562475 0.257812,0 0.785156,0.0234375 1.113281,0.0351562475 V -0.30385156 c -0.65625,0 -0.773438,0 -0.773438,-0.45703125 V -2.5890078 c 0,-1.03125 0.714844,-1.59375 1.347657,-1.59375 0.621093,0 0.738281,0.5390625 0.738281,1.1015625 v 2.32031249 c 0,0.45703125 -0.117188,0.45703125 -0.773438,0.45703125 V 8.359375e-4 c 0.339844,-0.0117187475 0.855469,-0.0351562475 1.125,-0.0351562475 0.257813,0 0.773438,0.0234375 1.113282,0.0351562475 V -0.30385156 c -0.515625,0 -0.773438,0 -0.785157,-0.3046875 V -2.5069766 c 0,-0.8554687 0,-1.171875 -0.304687,-1.5234375 -0.140625,-0.1757812 -0.46875,-0.375 -1.042969,-0.375 -0.726562,0 -1.195312,0.4335938 -1.476562,1.0546875 v -1.0546875 l -1.40625,0.1171875 v 0.3046875 c 0.703125,0 0.785156,0.070312 0.785156,0.5625 z m 5.876953,-0.5625 h 1.429687 v -0.3046875 h -1.429687 v -1.8398437 h -0.246094 c -0.01172,0.8203125 -0.316406,1.8867187 -1.289062,1.921875 v 0.2226562 h 0.84375 v 2.7539063 c 0,1.21874999 0.925781,1.33593749 1.289062,1.33593749 0.703125,0 0.984375,-0.703125 0.984375,-1.33593749 v -0.5742188 h -0.246094 v 0.5507813 c 0,0.73828124 -0.304687,1.11328124 -0.667968,1.11328124 -0.667969,0 -0.667969,-0.90234374 -0.667969,-1.07812504 z m 3.908203,-0.421875 -1.394531,0.1171875 v 0.3046875 c 0.65625,0 0.738281,0.058594 0.738281,0.5507813 v 2.67187499 c 0,0.45703125 -0.105469,0.45703125 -0.773437,0.45703125 V 8.359375e-4 C 21.950383,-0.01088281 22.489445,-0.03432031 22.735539,-0.03432031 c 0.339844,0 0.691406,0.0234375 1.03125,0.0351562475 V -0.30385156 c -0.65625,0 -0.703125,-0.0585938 -0.703125,-0.4453125 z m 0.04687,-1.734375 c 0,-0.3164062 -0.246094,-0.5273437 -0.527344,-0.5273437 -0.316406,0 -0.527343,0.2695312 -0.527343,0.5273437 0,0.2695313 0.210937,0.5273438 0.527343,0.5273438 0.28125,0 0.527344,-0.1992188 0.527344,-0.5273438 z m 2.06543,2.71875 v 2.66015629 c 0,0.45703125 -0.117188,0.45703125 -0.785156,0.45703125 V 8.359375e-4 c 0.351562,-0.0117187475 0.855468,-0.0351562475 1.125,-0.0351562475 0.257812,0 0.785156,0.0234375 1.113281,0.0351562475 V -0.30385156 c -0.65625,0 -0.773438,0 -0.773438,-0.45703125 V -2.5890078 c 0,-1.03125 0.714844,-1.59375 1.347657,-1.59375 0.621093,0 0.738281,0.5390625 0.738281,1.1015625 v 2.32031249 c 0,0.45703125 -0.117188,0.45703125 -0.773438,0.45703125 V 8.359375e-4 C 27.508,-0.01088281 28.023625,-0.03432031 28.293156,-0.03432031 c 0.257813,0 0.773438,0.0234375 1.113282,0.0351562475 V -0.30385156 c -0.515625,0 -0.773438,0 -0.785157,-0.3046875 V -2.5069766 c 0,-0.8554687 0,-1.171875 -0.304687,-1.5234375 -0.140625,-0.1757812 -0.46875,-0.375 -1.042969,-0.375 -0.726562,0 -1.195312,0.4335938 -1.476562,1.0546875 v -1.0546875 l -1.40625,0.1171875 v 0.3046875 c 0.703125,0 0.785156,0.070312 0.785156,0.5625 z m 8.044922,2.63671879 v 0.890625 L 34.662297,8.359375e-4 V -0.30385156 c -0.703125,0 -0.785156,-0.0703125 -0.785156,-0.5625 V -4.4054141 l -1.453125,0.1171875 v 0.3046875 c 0.691406,0 0.773437,0.070312 0.773437,0.5625 v 1.7695313 c 0,0.86718749 -0.480469,1.54687499 -1.207031,1.54687499 -0.832031,0 -0.878906,-0.46875 -0.878906,-0.99609379 v -3.3046875 l -1.464844,0.1171875 v 0.3046875 c 0.785156,0 0.785156,0.035156 0.785156,0.9140625 v 1.5 c 0,0.77343754 0,1.67578129 1.511719,1.67578129 0.550781,0 0.996094,-0.26953125 1.277344,-0.890625 z m 2.759765,-1.72265629 c 0.05859,-1.4882812 0.902344,-1.734375 1.242188,-1.734375 1.019531,0 1.125,1.3476563 1.125,1.734375 z m -0.01172,0.2109375 H 38.758 c 0.210938,0 0.246094,0 0.246094,-0.2109375 0,-0.984375 -0.539063,-1.9570312 -1.78125,-1.9570312 -1.160156,0 -2.074219,1.03125 -2.074219,2.2734375 0,1.33593749 1.042969,2.29687499 2.191406,2.29687499 1.21875,0 1.664063,-1.1015625 1.664063,-1.28906249 0,-0.1054688 -0.08203,-0.1171875 -0.128906,-0.1171875 -0.09375,0 -0.117188,0.058594 -0.128907,0.140625 -0.351562,1.01953124 -1.253906,1.01953124 -1.347656,1.01953124 -0.503906,0 -0.902344,-0.29296875 -1.125,-0.66796875 C 35.968938,-1.2882266 35.968938,-1.9444766 35.968938,-2.2960391 Z m 8.915039,-0.8554687 h 1.6875 c 1.195312,0 2.261718,-0.796875 2.261718,-1.7929688 0,-0.984375 -0.984375,-1.8632812 -2.34375,-1.8632812 H 42.97382 v 0.3164062 h 0.234375 c 0.773438,0 0.785157,0.1054688 0.785157,0.46875 v 5.25000004 c 0,0.3515625 -0.01172,0.46875 -0.785157,0.46875 H 42.97382 V 8.359375e-4 C 43.325383,-0.03432031 44.051945,-0.03432031 44.438664,-0.03432031 c 0.375,0 1.125,0 1.476563,0.0351562475 V -0.30385156 h -0.246094 c -0.761719,0 -0.785156,-0.1171875 -0.785156,-0.46875 z m -0.03516,-0.2578125 v -2.6835938 c 0,-0.328125 0.02344,-0.3984375 0.492188,-0.3984375 h 0.890625 c 1.582031,0 1.582031,1.0546875 1.582031,1.546875 0,0.4570313 0,1.5351563 -1.582031,1.5351563 z m 6.216797,0.1054687 v -1.1015625 l -1.382812,0.1171875 v 0.3046875 c 0.691406,0 0.773437,0.070312 0.773437,0.5625 v 2.66015629 c 0,0.45703125 -0.105469,0.45703125 -0.773437,0.45703125 V 8.359375e-4 C 50.069523,-0.01088281 50.538273,-0.03432031 50.819523,-0.03432031 c 0.398438,0 0.867188,0 1.265625,0.0351562475 V -0.30385156 h -0.210937 c -0.738281,0 -0.761719,-0.1171875 -0.761719,-0.46875 V -2.3077578 c 0,-0.984375 0.421875,-1.875 1.183594,-1.875 0.05859,0 0.08203,0 0.105469,0.011719 -0.03516,0.011719 -0.234375,0.1289063 -0.234375,0.3867188 0,0.28125 0.210937,0.4335937 0.433593,0.4335937 0.175782,0 0.421875,-0.1289062 0.421875,-0.4453125 0,-0.3164062 -0.304687,-0.609375 -0.726562,-0.609375 -0.738281,0 -1.089844,0.6679688 -1.230469,1.1015625 z m 6.925781,1.171875 c 0,-1.2773437 -0.996093,-2.3320312 -2.191406,-2.3320312 -1.253906,0 -2.214844,1.0898437 -2.214844,2.3320312 0,1.28906254 1.03125,2.23828129 2.203125,2.23828129 1.207032,0 2.203125,-0.97265625 2.203125,-2.23828129 z m -2.191406,1.99218754 c -0.433594,0 -0.867187,-0.2109375 -1.136719,-0.66796875 -0.257812,-0.43359379 -0.257812,-1.04296879 -0.257812,-1.40624999 0,-0.3867188 0,-0.9257813 0.246094,-1.359375 0.269531,-0.4570313 0.738281,-0.6679688 1.136718,-0.6679688 0.433594,0 0.867188,0.2226563 1.125,0.6445313 0.257813,0.4335937 0.257813,1.0078125 0.257813,1.3828125 0,0.3632812 0,0.9023437 -0.222656,1.33593749 -0.222657,0.4453125 -0.65625,0.73828125 -1.148438,0.73828125 z m 4.699219,-1.57031254 c -0.867188,0 -0.867188,-0.9960937 -0.867188,-1.2304687 0,-0.2695313 0.01172,-0.5859375 0.152344,-0.8320313 0.08203,-0.1171875 0.316406,-0.3984375 0.714844,-0.3984375 0.867187,0 0.867187,0.9960938 0.867187,1.21875 0,0.2695313 -0.01172,0.5976563 -0.164062,0.84375 -0.08203,0.1171875 -0.304688,0.3984375 -0.703125,0.3984375 z m -1.160156,0.3867188 c 0,-0.035156 0,-0.2695313 0.175781,-0.46875 0.386719,0.28125 0.796875,0.3046875 0.984375,0.3046875 0.925781,0 1.605469,-0.6796875 1.605469,-1.453125 0,-0.3632813 -0.152344,-0.7382813 -0.398438,-0.9609375 0.351563,-0.3398438 0.714844,-0.3867188 0.890625,-0.3867188 0.02344,0 0.07031,0 0.105469,0 -0.117188,0.046875 -0.164063,0.1523438 -0.164063,0.2695313 0,0.1757812 0.128907,0.2929687 0.292969,0.2929687 0.09375,0 0.28125,-0.070312 0.28125,-0.2929687 0,-0.1757813 -0.117187,-0.4921875 -0.503906,-0.4921875 -0.199219,0 -0.632813,0.058594 -1.054688,0.46875 -0.421875,-0.328125 -0.84375,-0.3632813 -1.054687,-0.3632813 -0.925781,0 -1.617188,0.6914063 -1.617188,1.453125 0,0.4453125 0.222657,0.8203125 0.46875,1.03125 -0.128906,0.1523438 -0.304687,0.4804688 -0.304687,0.8203125 0,0.31640629 0.128906,0.69140629 0.433594,0.89062504 -0.597657,0.17578125 -0.914063,0.59765625 -0.914063,0.99609375 0,0.71484371 0.984375,1.26562501 2.203125,1.26562501 1.171875,0 2.203125,-0.5039063 2.203125,-1.28906251 0,-0.33984375 -0.140625,-0.85546875 -0.644531,-1.125 -0.527344,-0.28125 -1.101563,-0.28125 -1.710938,-0.28125 -0.246093,0 -0.679687,0 -0.75,-0.0117188 -0.316406,-0.046875 -0.527343,-0.35156249 -0.527343,-0.66796869 z m 1.441406,3.1523437 c -1.007813,0 -1.699219,-0.515625 -1.699219,-1.04296871 0,-0.45703125 0.375,-0.8203125 0.820313,-0.85546875 h 0.585937 c 0.855469,0 1.96875,0 1.96875,0.85546875 0,0.53906251 -0.703125,1.04296871 -1.675781,1.04296871 z m 4.151367,-5.1328125 v -1.1015625 l -1.382812,0.1171875 v 0.3046875 c 0.691406,0 0.773437,0.070312 0.773437,0.5625 v 2.66015629 c 0,0.45703125 -0.105469,0.45703125 -0.773437,0.45703125 V 8.359375e-4 C 63.935734,-0.01088281 64.404484,-0.03432031 64.685734,-0.03432031 c 0.398438,0 0.867188,0 1.265625,0.0351562475 V -0.30385156 h -0.210937 c -0.738281,0 -0.761719,-0.1171875 -0.761719,-0.46875 V -2.3077578 c 0,-0.984375 0.421875,-1.875 1.183594,-1.875 0.05859,0 0.08203,0 0.105469,0.011719 -0.03516,0.011719 -0.234375,0.1289063 -0.234375,0.3867188 0,0.28125 0.210937,0.4335937 0.433593,0.4335937 0.175782,0 0.421875,-0.1289062 0.421875,-0.4453125 0,-0.3164062 -0.304687,-0.609375 -0.726562,-0.609375 -0.738281,0 -1.089844,0.6679688 -1.230469,1.1015625 z m 5.554688,2.54296879 c 0.03516,0.3984375 0.304687,0.8203125 0.773437,0.8203125 0.210938,0 0.820313,-0.140625 0.820313,-0.94921875 V -1.4405703 h -0.246094 v 0.55078124 c 0,0.5859375 -0.246094,0.64453125 -0.363281,0.64453125 -0.328125,0 -0.363282,-0.45703125 -0.363282,-0.50390625 V -2.7413516 c 0,-0.4101562 0,-0.8085937 -0.363281,-1.171875 -0.386719,-0.3867187 -0.878906,-0.5507812 -1.359375,-0.5507812 -0.820312,0 -1.511719,0.46875 -1.511719,1.125 0,0.3046875 0.199219,0.46875 0.457032,0.46875 0.28125,0 0.46875,-0.1992188 0.46875,-0.4570313 0,-0.1171875 -0.05859,-0.4453125 -0.515625,-0.4570312 0.269531,-0.3515625 0.761718,-0.4570313 1.078125,-0.4570313 0.492187,0 1.054687,0.3867188 1.054687,1.2773438 v 0.3632812 c -0.503906,0.035156 -1.207031,0.058594 -1.828125,0.3632813 -0.75,0.3398437 -0.996094,0.8554687 -0.996094,1.28906249 0,0.80859375 0.960938,1.0546875 1.59375,1.0546875 0.65625,0 1.113282,-0.3984375 1.300782,-0.8671875 z m -0.07031,-1.62890629 v 0.9960938 c 0,0.94921874 -0.714844,1.28906249 -1.160156,1.28906249 -0.492188,0 -0.902344,-0.3515625 -0.902344,-0.85546875 0,-0.53906254 0.421875,-1.37109374 2.0625,-1.42968754 z m 2.835938,-1.03125 v 2.66015629 c 0,0.45703125 -0.117188,0.45703125 -0.785157,0.45703125 V 8.359375e-4 c 0.351563,-0.0117187475 0.855469,-0.0351562475 1.125,-0.0351562475 0.257813,0 0.785157,0.0234375 1.113282,0.0351562475 V -0.30385156 c -0.65625,0 -0.773438,0 -0.773438,-0.45703125 V -2.5890078 c 0,-1.03125 0.714844,-1.59375 1.347656,-1.59375 0.621094,0 0.738282,0.5390625 0.738282,1.1015625 v 2.32031249 c 0,0.45703125 -0.117188,0.45703125 -0.773438,0.45703125 V 8.359375e-4 c 0.339844,-0.0117187475 0.855469,-0.0351562475 1.125,-0.0351562475 0.257813,0 0.773438,0.0234375 1.113281,0.0351562475 V -0.30385156 c -0.667968,0 -0.785156,0 -0.785156,-0.45703125 V -2.5890078 c 0,-1.03125 0.714844,-1.59375 1.347656,-1.59375 0.632813,0 0.738282,0.5390625 0.738282,1.1015625 v 2.32031249 c 0,0.45703125 -0.105469,0.45703125 -0.773438,0.45703125 V 8.359375e-4 c 0.351563,-0.0117187475 0.855469,-0.0351562475 1.125,-0.0351562475 0.257813,0 0.773438,0.0234375 1.113281,0.0351562475 V -0.30385156 c -0.515625,0 -0.761718,0 -0.773437,-0.3046875 V -2.5069766 c 0,-0.8554687 0,-1.171875 -0.316406,-1.5234375 -0.128907,-0.1757812 -0.46875,-0.375 -1.042969,-0.375 -0.832031,0 -1.277344,0.5976563 -1.441406,0.984375 -0.140625,-0.8671875 -0.878907,-0.984375 -1.324219,-0.984375 -0.726563,0 -1.195313,0.4335938 -1.476563,1.0546875 v -1.0546875 l -1.40625,0.1171875 v 0.3046875 c 0.703125,0 0.785157,0.070312 0.785157,0.5625 z m 0,0"
       style="fill:#000000;fill-opacity:1;fill-rule:nonzero;stroke:none"
       aria-label="ContinueProgram"
       transform="matrix(1.3333333,0,0,1.3333333,209.32267,491.17467)" />
    <path
       id="path11"
       d="m 38.53511,-269.29475 h -77.07022 c -2.20094,0 -3.98511,-1.78417 -3.98511,-3.98511 v -20.37659 c 0,-2.20094 1.78417,-3.98511 3.98511,-3.98511 h 77.07022 c 2.20094,0 3.98511,1.78417 3.98511,3.98511 v 20.37659 c 0,2.20094 -1.78417,3.98511 -3.98511,3.98511 z"
       style="fill:#ffb3b3;fill-opacity:1;fill-rule:nonzero;stroke:#000000;stroke-width:0.3985;stroke-linecap:butt;stroke-linejoin:miter;stroke-miterlimit:10;stroke-dasharray:none;stroke-opacity:1"
       transform="matrix(1.3333333,0,0,-1.3333333,262.95467,185.56533)" />
    <path
       id="path12"
       d="m 1.3593906,-0.77475781 c 0,0.3515625 -0.023437,0.46875 -0.79687497,0.46875 h -0.234375 v 0.3046875 H 6.0820469 L 6.4922031,-2.5677266 H 6.2461094 C 6.0000156,-1.0325703 5.7656406,-0.30600781 4.0547031,-0.30600781 H 2.7304844 c -0.46875,0 -0.4921875,-0.0703125 -0.4921875,-0.3984375 V -3.3646016 h 0.9023437 c 0.9609375,0 1.078125,0.3164063 1.078125,1.1601563 H 4.4648594 V -4.8411641 H 4.2187656 c 0,0.8554688 -0.1171875,1.1601563 -1.078125,1.1601563 H 2.2382969 v -2.390625 c 0,-0.328125 0.023437,-0.3984375 0.4921875,-0.3984375 h 1.2890625 c 1.5234375,0 1.7929687,0.5507812 1.9453125,1.9335937 H 6.2109531 L 5.9414219,-6.7747578 H 0.32814063 v 0.3046875 h 0.234375 c 0.77343747,0 0.79687497,0.1171875 0.79687497,0.46875 z M 7.880875,-3.4231953 v 2.66015624 c 0,0.45703125 -0.1171875,0.45703125 -0.7851562,0.45703125 v 0.3046875 c 0.3515625,-0.01171875 0.8554687,-0.03515625 1.125,-0.03515625 0.2578125,0 0.7851562,0.0234375 1.1132812,0.03515625 v -0.3046875 c -0.65625,0 -0.7734375,0 -0.7734375,-0.45703125 V -2.5911641 c 0,-1.03125 0.7148438,-1.59375 1.3476563,-1.59375 0.6210942,0 0.7382812,0.5390625 0.7382812,1.1015625 v 2.32031254 c 0,0.45703125 -0.117187,0.45703125 -0.7734375,0.45703125 v 0.3046875 c 0.3398435,-0.01171875 0.8554685,-0.03515625 1.1250005,-0.03515625 0.257812,0 0.773437,0.0234375 1.113281,0.03515625 v -0.3046875 c -0.515625,0 -0.773438,0 -0.785156,-0.3046875 V -2.5091328 c 0,-0.8554688 0,-1.171875 -0.304688,-1.5234375 -0.140625,-0.1757813 -0.46875,-0.375 -1.0429687,-0.375 -0.7265625,0 -1.1953125,0.4335937 -1.4765625,1.0546875 v -1.0546875 l -1.40625,0.1171875 v 0.3046875 c 0.703125,0 0.7851562,0.070312 0.7851562,0.5625 z m 8.220703,2.87109374 v 0.65625 l 1.464844,-0.10546875 v -0.3046875 c -0.703125,0 -0.773438,-0.0703125 -0.773438,-0.5625 V -6.9153828 l -1.441406,0.1054687 v 0.3164063 c 0.703125,0 0.785156,0.070312 0.785156,0.5507812 v 2.15625 c -0.292968,-0.3632812 -0.726562,-0.6210937 -1.265625,-0.6210937 -1.171875,0 -2.214843,0.984375 -2.214843,2.2617187 0,1.26562504 0.972656,2.25000004 2.109375,2.25000004 0.644531,0 1.089843,-0.33984375 1.335937,-0.65625 z m 0,-2.67187504 v 2.0507813 c 0,0.17578124 0,0.19921874 -0.105469,0.36328124 -0.304687,0.48046875 -0.75,0.703125 -1.183593,0.703125 -0.445313,0 -0.796875,-0.2578125 -1.042969,-0.64453125 -0.257813,-0.41015629 -0.292969,-0.97265629 -0.292969,-1.38281249 0,-0.3632813 0.02344,-0.9609375 0.316406,-1.4179688 0.210938,-0.3046875 0.585938,-0.6328125 1.125,-0.6328125 0.351563,0 0.761719,0.1523438 1.078125,0.5976563 0.105469,0.1640625 0.105469,0.1875 0.105469,0.3632812 z m 0,0"
       style="fill:#000000;fill-opacity:1;fill-rule:nonzero;stroke:none"
       aria-label="End"
       transform="matrix(1.3333333,0,0,1.3333333,251.05467,568.13067)" />
    <path
       id="path13"
       d="M 0,-14.37263 V -39.73071"
       style="fill:none;stroke:#000000;stroke-width:0.79701;stroke-linecap:butt;stroke-linejoin:miter;stroke-miterlimit:10;stroke-dasharray:none;stroke-opacity:1"
       transform="matrix(1.3333333,0,0,-1.3333333,262.95467,185.56533)" />
    <path
       id="path14"
       d="M 2.59026,0 -1.55415,2.0722 0,0 -1.55415,-2.0722"
       style="fill:#000000;fill-opacity:1;fill-rule:nonzero;stroke:none"
       transform="matrix(0,1.3333333,1.3333333,0,262.95467,238.53961)" />
    <path
       id="path15"
       d="M 0,-71.06628 V -90.55066"
       style="fill:none;stroke:#000000;stroke-width:0.79701;stroke-linecap:butt;stroke-linejoin:miter;stroke-miterlimit:10;stroke-dasharray:none;stroke-opacity:1"
       transform="matrix(1.3333333,0,0,-1.3333333,262.95467,185.56533)" />
    <path
       id="path16"
       d="M 2.59026,0 -1.55415,2.0722 0,0 -1.55415,-2.0722"
       style="fill:#000000;fill-opacity:1;fill-rule:nonzero;stroke:none"
       transform="matrix(0,1.3333333,1.3333333,0,262.95467,306.29955)" />
    <path
       id="path17"
       d="M 48.59352,-141.73407 H 76.95424"
       style="fill:none;stroke:#000000;stroke-width:0.79701;stroke-linecap:butt;stroke-linejoin:miter;stroke-miterlimit:10;stroke-dasharray:none;stroke-opacity:1"
       transform="matrix(1.3333333,0,0,-1.3333333,262.95467,185.56533)" />
    <path
       id="path18"
       d="M 2.59026,0 -1.55415,2.0722 0,0 -1.55415,-2.0722"
       style="fill:#000000;fill-opacity:1;fill-rule:nonzero;stroke:none"
       transform="matrix(1.3333333,0,0,-1.3333333,365.56032,374.54409)" />
    <path
       id="path19"
       d="m 6.0812109,-5.8462031 c 0.3632813,-0.609375 0.9492188,-0.6445313 1.265625,-0.6445313 v -0.3164062 c -0.3046875,0.023437 -0.703125,0.035156 -0.9726562,0.035156 -0.3046875,0 -0.890625,-0.023437 -1.1484375,-0.035156 v 0.3164062 c 0.4101562,0 0.5742187,0.1875 0.5742187,0.3867188 0,0.1054687 -0.058594,0.234375 -0.1054687,0.2929687 l -1.640625,2.671875 -1.8046875,-2.9414062 c -0.070312,-0.09375 -0.070312,-0.1171875 -0.070312,-0.1640625 0,-0.2109375 0.2460937,-0.2460938 0.703125,-0.2460938 v -0.3164062 c -0.3632813,0.035156 -1.0898438,0.035156 -1.4765625,0.035156 -0.42187501,0 -0.87890626,-0.011719 -1.30078126,-0.035156 v 0.3164062 h 0.1875 c 0.66796875,0 0.74999996,0.1054688 0.91406246,0.3632813 l 2.0859375,3.4101562 v 1.94531252 c 0,0.3515625 -0.011719,0.46875 -0.7851562,0.46875 h -0.234375 v 0.3046875 c 0.3515625,-0.03515625 1.0664062,-0.03515625 1.453125,-0.03515625 0.3867187,0 1.0898437,0 1.453125,0.03515625 v -0.3046875 h -0.234375 c -0.7617188,0 -0.796875,-0.10546875 -0.796875,-0.4921875 V -2.7172969 Z m 1.6757813,3.3398437 c 0.058594,-1.4882812 0.9023437,-1.734375 1.2421875,-1.734375 1.0195313,0 1.1250003,1.3476563 1.1250003,1.734375 z m -0.011719,0.2109375 h 2.7890628 c 0.210937,0 0.246094,0 0.246094,-0.2109375 0,-0.984375 -0.539063,-1.9570312 -1.7812505,-1.9570312 -1.1601563,0 -2.0742188,1.03125 -2.0742188,2.2734375 0,1.33593747 1.0429688,2.29687497 2.1914063,2.29687497 1.21875,0 1.664063,-1.1015625 1.664063,-1.28906247 0,-0.1054688 -0.08203,-0.1171875 -0.128907,-0.1171875 -0.09375,0 -0.117187,0.058594 -0.128906,0.140625 -0.351562,1.01953122 -1.2539063,1.01953122 -1.3476563,1.01953122 -0.5039062,0 -0.9023437,-0.29296875 -1.125,-0.66796875 C 7.7452734,-1.2876094 7.7452734,-1.9438594 7.7452732,-2.2954219 Z m 5.4023438,0.3632813 c 0.222656,0.035156 1.03125,0.1992187 1.03125,0.9140625 0,0.51562497 -0.351562,0.91406247 -1.125,0.91406247 -0.832031,0 -1.195312,-0.57421875 -1.382812,-1.41796877 -0.03516,-0.1289062 -0.03516,-0.1757812 -0.140625,-0.1757812 -0.128907,0 -0.128907,0.070312 -0.128907,0.2578125 v 1.31249997 c 0,0.1640625 0,0.234375 0.105469,0.234375 0.05859,0 0.07031,0 0.257813,-0.19921875 0.01172,-0.01171875 0.01172,-0.03515625 0.199218,-0.22265625 0.433594,0.421875 0.878907,0.421875 1.089844,0.421875 1.148438,0 1.605469,-0.66796875 1.605469,-1.38281247 0,-0.5273438 -0.292969,-0.8203125 -0.421875,-0.9492188 -0.328125,-0.3164062 -0.714844,-0.3984375 -1.136719,-0.46875 -0.550781,-0.1171875 -1.21875,-0.2460937 -1.21875,-0.8203125 0,-0.3515625 0.257813,-0.7617187 1.113281,-0.7617187 1.101563,0 1.148438,0.9023437 1.171875,1.2070312 0,0.09375 0.09375,0.09375 0.117188,0.09375 0.128906,0 0.128906,-0.046875 0.128906,-0.2460937 v -0.9960938 c 0,-0.1757812 0,-0.2460937 -0.117187,-0.2460937 -0.04687,0 -0.07031,0 -0.199219,0.1171875 -0.02344,0.046875 -0.128906,0.1289062 -0.164063,0.1640625 -0.375,-0.28125 -0.785156,-0.28125 -0.9375,-0.28125 -1.21875,0 -1.59375,0.6679687 -1.59375,1.2304687 0,0.3398438 0.164063,0.6210938 0.433594,0.84375 0.316406,0.2578125 0.597656,0.3164063 1.3125,0.4570313 z m 0,0"
       style="fill:#000000;fill-opacity:1;fill-rule:nonzero;stroke:none"
       aria-label="Yes"
       transform="matrix(1.3333333,0,0,1.3333333,338.38,369.584)" />
    <path
       id="path20"
       d="m 141.73409,-127.36142 v 70.66779 H 45.30974"
       style="fill:none;stroke:#000000;stroke-width:0.79701;stroke-linecap:butt;stroke-linejoin:miter;stroke-miterlimit:10;stroke-dasharray:none;stroke-opacity:1"
       transform="matrix(1.3333333,0,0,-1.3333333,262.95467,185.56533)" />
    <path
       id="path21"
       d="M 2.59026,0 -1.55415,2.0722 0,0 -1.55415,-2.0722"
       style="fill:#000000;fill-opacity:1;fill-rule:nonzero;stroke:none"
       transform="matrix(-1.3333333,0,0,1.3333333,323.36765,261.15684)" />
    <path
       id="path22"
       d="M 0,-190.32648 V -209.8116"
       style="fill:none;stroke:#000000;stroke-width:0.79701;stroke-linecap:butt;stroke-linejoin:miter;stroke-miterlimit:10;stroke-dasharray:none;stroke-opacity:1"
       transform="matrix(1.3333333,0,0,-1.3333333,262.95467,185.56533)" />
    <path
       id="path23"
       d="M 2.59026,0 -1.55415,2.0722 0,0 -1.55415,-2.0722"
       style="fill:#000000;fill-opacity:1;fill-rule:nonzero;stroke:none"
       transform="matrix(0,1.3333333,1.3333333,0,262.95467,465.31413)" />
    <path
       id="path24"
       d="m 2.3075625,-6.6802344 c -0.082031,-0.1171875 -0.09375,-0.1289062 -0.28125,-0.1289062 H 0.32709375 v 0.3164062 H 0.6200625 c 0.140625,0 0.33984375,0.011719 0.4921875,0.011719 0.234375,0.035156 0.2460938,0.046875 0.2460938,0.234375 v 5.203125 c 0,0.26953122 0,0.73828122 -1.03125005,0.73828122 V -5.46875e-4 C 0.67865625,-0.01226563 1.159125,-0.03570313 1.4989688,-0.03570313 c 0.328125,0 0.8085937,0.0234375 1.1601562,0.035156255 V -0.30523438 c -1.03125,0 -1.03125,-0.46875 -1.03125,-0.73828122 v -5.1796875 c 0.058594,0.046875 0.070312,0.058594 0.1054688,0.1171875 L 5.79975,-0.12945313 c 0.082031,0.1171875 0.09375,0.128906255 0.1640625,0.128906255 0.140625,0 0.140625,-0.070312505 0.140625,-0.257812505 V -5.7544531 c 0,-0.2695313 0,-0.7382813 1.03125,-0.7382813 v -0.3164062 c -0.3515625,0.011719 -0.84375,0.035156 -1.171875,0.035156 -0.328125,0 -0.8203125,-0.023437 -1.1601562,-0.035156 v 0.3164062 c 1.0195312,0 1.0195312,0.46875 1.0195312,0.7382813 v 4.2539062 z m 9.8525395,4.546875 c 0,-1.2773437 -0.996094,-2.3320312 -2.1914067,-2.3320312 -1.2539062,0 -2.2148437,1.0898437 -2.2148437,2.3320312 0,1.28906252 1.03125,2.23828127 2.203125,2.23828127 1.2070314,0 2.2031254,-0.97265625 2.2031254,-2.23828127 z m -2.1914067,1.99218752 c -0.4335937,0 -0.8671875,-0.2109375 -1.1367187,-0.66796875 C 8.5741641,-1.2427344 8.5741641,-1.8521094 8.5741641,-2.2153906 c 0,-0.3867188 0,-0.9257813 0.2460937,-1.359375 0.2695313,-0.4570313 0.7382813,-0.6679688 1.1367188,-0.6679688 0.4335934,0 0.8671874,0.2226563 1.1250004,0.6445313 0.257812,0.4335937 0.257812,1.0078125 0.257812,1.3828125 0,0.3632812 0,0.9023437 -0.222656,1.33593747 -0.222656,0.4453125 -0.65625,0.73828125 -1.1484377,0.73828125 z m 0,0"
       style="fill:#000000;fill-opacity:1;fill-rule:nonzero;stroke:none"
       aria-label="No"
       transform="matrix(1.3333333,0,0,1.3333333,241.392,458.58667)" />
    <path
       id="path25"
       d="m 0,-241.14717 v -25.35806"
       style="fill:none;stroke:#000000;stroke-width:0.79701;stroke-linecap:butt;stroke-linejoin:miter;stroke-miterlimit:10;stroke-dasharray:none;stroke-opacity:1"
       transform="matrix(1.3333333,0,0,-1.3333333,262.95467,185.56533)" />
    <path
       id="path26"
       d="M 2.59026,0 -1.55415,2.0722 0,0 -1.55415,-2.0722"
       style="fill:#000000;fill-opacity:1;fill-rule:nonzero;stroke:none"
       transform="matrix(0,1.3333333,1.3333333,0,262.95467,540.90564)" />
  </g>
</svg>
