<?xml version="1.0" encoding="UTF-8" standalone="no"?>
<!-- Created with Inkscape (http://www.inkscape.org/) -->

<svg
   version="1.1"
   id="svg1"
   width="327.07031"
   height="263.78568"
   viewBox="0 0 327.07031 263.78567"
   sodipodi:docname="example_signal.pdf"
   xmlns:inkscape="http://www.inkscape.org/namespaces/inkscape"
   xmlns:sodipodi="http://sodipodi.sourceforge.net/DTD/sodipodi-0.dtd"
   xmlns="http://www.w3.org/2000/svg"
   xmlns:svg="http://www.w3.org/2000/svg">
  <defs
     id="defs1" />
  <sodipodi:namedview
     id="namedview1"
     pagecolor="#ffffff"
     bordercolor="#666666"
     borderopacity="1.0"
     inkscape:showpageshadow="2"
     inkscape:pageopacity="0.0"
     inkscape:pagecheckerboard="0"
     inkscape:deskcolor="#d1d1d1">
    <inkscape:page
       x="3.7156944e-08"
       y="4.7281052e-08"
       inkscape:label="1"
       id="page1"
       width="327.07031"
       height="263.78568"
       margin="0"
       bleed="0" />
  </sodipodi:namedview>
  <g
     id="g1"
     inkscape:groupmode="layer"
     inkscape:label="1"
     transform="translate(-4.5664062,-4.421875)">
    <path
       id="path1"
       d="M 0,-141.73404 H 226.77448 M 0,-113.38724 H 226.77448 M 0,-85.04042 H 226.77448 M 0,-56.69362 H 226.77448 M 0,-28.3468 H 226.77448 M 0,0 H 226.77448 M 0,28.33684 H 226.77448 M 0,-141.73404 V 28.3468 M 28.3468,-141.73404 V 28.3468 M 56.69362,-141.73404 V 28.3468 m 28.3468,-170.08084 V 28.3468 m 28.34682,-170.08084 V 28.3468 m 28.3468,-170.08084 V 28.3468 m 28.34682,-170.08084 V 28.3468 m 28.3468,-170.08084 V 28.3468 m 28.33685,-170.08084 V 28.3468"
       style="fill:none;stroke:#ff9933;stroke-width:0.19925;stroke-linecap:butt;stroke-linejoin:miter;stroke-miterlimit:10;stroke-dasharray:2.98883, 2.98883;stroke-dashoffset:0;stroke-opacity:1"
       transform="matrix(1.3333333,0,0,-1.3333333,20.189333,79.096)" />
    <path
       id="path2"
       d="M 0,0 H 224.78195"
       style="fill:none;stroke:#000000;stroke-width:0.3985;stroke-linecap:butt;stroke-linejoin:miter;stroke-miterlimit:10;stroke-dasharray:none;stroke-opacity:1"
       transform="matrix(1.3333333,0,0,-1.3333333,20.189333,79.096)" />
    <path
       id="path3"
       d="M 1.99252,0 -1.19551,1.59401 0,0 -1.19551,-1.59401"
       style="fill:#000000;fill-opacity:1;fill-rule:nonzero;stroke:none"
       transform="matrix(1.3333333,0,0,-1.3333333,319.8986,79.096)" />
    <path
       id="path4"
       d="m 2.0513516,-3.9856094 h 0.9375 c 0.1992187,0 0.3046875,0 0.3046875,-0.1992187 0,-0.1054688 -0.1054688,-0.1054688 -0.28125,-0.1054688 H 2.1333828 c 0.3632813,-1.4179687 0.4101563,-1.6171875 0.4101563,-1.6757812 0,-0.1757813 -0.1171875,-0.2695313 -0.2929688,-0.2695313 -0.023437,0 -0.3046875,0.011719 -0.3984375,0.3515625 l -0.3867187,1.59375 H 0.52791406 c -0.19921875,0 -0.29296875,0 -0.29296875,0.1875 0,0.1171875 0.0703125,0.1171875 0.26953125,0.1171875 H 1.3833828 c -0.71484374,2.8242188 -0.74999999,3.00000003 -0.74999999,3.17578128 0,0.5390625 0.37499999,0.9140625 0.91406249,0.9140625 1.0078125,0 1.5820313,-1.45312498 1.5820313,-1.53515628 0,-0.09375 -0.082031,-0.09375 -0.1171875,-0.09375 -0.09375,0 -0.1054688,0.023437 -0.1523438,0.140625 -0.4335937,1.03125003 -0.9609375,1.27734378 -1.3007812,1.27734378 -0.1992188,0 -0.3046875,-0.12890625 -0.3046875,-0.45703125 0,-0.24609375 0.023437,-0.31640625 0.058594,-0.48046873 z m 0,0"
       style="fill:#000000;fill-opacity:1;fill-rule:nonzero;stroke:none"
       aria-label="t"
       transform="matrix(1.3333333,0,0,1.3333333,327.24533,83.181333)" />
    <path
       id="path5"
       d="M 0,-42.5202 V 40.52768"
       style="fill:none;stroke:#000000;stroke-width:0.3985;stroke-linecap:butt;stroke-linejoin:miter;stroke-miterlimit:10;stroke-dasharray:none;stroke-opacity:1"
       transform="matrix(1.3333333,0,0,-1.3333333,20.189333,79.096)" />
    <path
       id="path6"
       d="M 1.99252,0 -1.19551,1.59401 0,0 -1.19551,-1.59401"
       style="fill:#000000;fill-opacity:1;fill-rule:nonzero;stroke:none"
       transform="matrix(0,-1.3333333,-1.3333333,0,20.189333,25.059093)" />
    <g
       id="g6"
       aria-label="m(t)"
       transform="matrix(1.3333333,0,0,1.3333333,6.7933333,14.389333)">
      <path
         id="path7"
         d="m 0.87863281,-0.58496875 c -0.0351563,0.15234375 -0.09375,0.375 -0.09375,0.421875 0,0.1875 0.140625,0.26953125 0.29296879,0.26953125 0.1171875,0 0.2929687,-0.0703125 0.3632812,-0.26953125 0.011719,-0.0234375 0.1289063,-0.4921875 0.1875,-0.73828125 l 0.2226563,-0.9023437 c 0.058594,-0.2226563 0.1171875,-0.4335938 0.1757812,-0.6679688 0.035156,-0.1640625 0.1171875,-0.4570312 0.1289063,-0.4921875 0.140625,-0.3164062 0.6679687,-1.21875 1.6171875,-1.21875 0.4453125,0 0.5390625,0.3632813 0.5390625,0.6914063 0,0.2578125 -0.070312,0.5390625 -0.1523438,0.8320312 l -0.2695312,1.1601563 -0.1992188,0.74999995 c -0.046875,0.19921875 -0.140625,0.5390625 -0.140625,0.5859375 0,0.1875 0.140625,0.26953125 0.2929688,0.26953125 0.3046875,0 0.375,-0.24609375 0.4453125,-0.5625 0.140625,-0.5625 0.515625,-2.015625 0.5976562,-2.4023437 0.035156,-0.1289063 0.5625,-1.3242188 1.6523438,-1.3242188 0.421875,0 0.5390625,0.3398438 0.5390625,0.6914063 0,0.5742187 -0.421875,1.7109375 -0.6210938,2.2382812 -0.09375,0.234375 -0.1289062,0.3515625 -0.1289062,0.55078125 0,0.46875 0.3515625,0.80859375 0.8085937,0.80859375 0.9375,0 1.3125,-1.453125 1.3125,-1.5351562 0,-0.09375 -0.09375,-0.09375 -0.1171875,-0.09375 -0.1054687,0 -0.1054687,0.023437 -0.1523437,0.1757812 -0.1523438,0.52734375 -0.46875,1.2421875 -1.0195313,1.2421875 -0.1640625,0 -0.234375,-0.10546875 -0.234375,-0.328125 0,-0.2578125 0.082031,-0.4921875 0.1757813,-0.7148437 0.1875,-0.515625 0.609375,-1.6171875 0.609375,-2.1914063 0,-0.6445312 -0.3984375,-1.0664062 -1.1484375,-1.0664062 -0.75,0 -1.2539063,0.4453125 -1.6171875,0.9726562 -0.011719,-0.1289062 -0.046875,-0.46875 -0.328125,-0.7148437 -0.2460938,-0.1992188 -0.5625,-0.2578125 -0.8085938,-0.2578125 -0.9023437,0 -1.3828125,0.6445312 -1.5585937,0.8671875 -0.046875,-0.5625 -0.46875,-0.8671875 -0.9140625,-0.8671875 -0.45703129,0 -0.64453129,0.3867187 -0.73828129,0.5742187 -0.17578125,0.3398438 -0.3046875,0.9375 -0.3046875,0.9609375 0,0.1054688 0.09375,0.1054688 0.1171875,0.1054688 0.09375,0 0.10546875,-0.011719 0.1640625,-0.234375 0.17578125,-0.703125 0.375,-1.1835938 0.72656249,-1.1835938 0.1640625,0 0.3164063,0.082031 0.3164063,0.4570313 0,0.2109375 -0.035156,0.3164062 -0.1640625,0.8320312 z m 0,0"
         style="fill:#000000;fill-opacity:1;fill-rule:nonzero;stroke:none" />
      <path
         id="path8"
         d="m 12.040742,2.3915938 c 0,-0.035156 0,-0.046875 -0.164062,-0.2226563 -1.242188,-1.25390625 -1.570313,-3.12890625 -1.570313,-4.6640625 0,-1.7226562 0.386719,-3.4570312 1.605469,-4.7109375 0.128906,-0.1171875 0.128906,-0.1289062 0.128906,-0.1640625 0,-0.070312 -0.03516,-0.1054687 -0.09375,-0.1054687 -0.105469,0 -0.996094,0.6796875 -1.582031,1.9453125 -0.5156251,1.1015625 -0.6328126,2.203125 -0.6328126,3.0351562 0,0.7851563 0.1171875,1.9921875 0.6562496,3.1171875 0.597657,1.21875 1.453125,1.875 1.558594,1.875 0.05859,0 0.09375,-0.035156 0.09375,-0.1054687 z m 0,0"
         style="fill:#000000;fill-opacity:1;fill-rule:nonzero;stroke:none" />
      <path
         id="path9"
         d="m 14.671602,-3.9834062 h 0.9375 c 0.199218,0 0.304687,0 0.304687,-0.1992188 0,-0.1054687 -0.105469,-0.1054687 -0.28125,-0.1054687 h -0.878906 c 0.363281,-1.4179688 0.410156,-1.6171875 0.410156,-1.6757813 0,-0.1757812 -0.117187,-0.2695312 -0.292969,-0.2695312 -0.02344,0 -0.304687,0.011719 -0.398437,0.3515625 l -0.386719,1.59375 h -0.9375 c -0.199219,0 -0.292969,0 -0.292969,0.1875 0,0.1171875 0.07031,0.1171875 0.269532,0.1171875 h 0.878906 c -0.714844,2.8242187 -0.75,2.99999995 -0.75,3.1757812 0,0.5390625 0.375,0.9140625 0.914062,0.9140625 1.007813,0 1.582032,-1.453125 1.582032,-1.5351562 0,-0.09375 -0.08203,-0.09375 -0.117188,-0.09375 -0.09375,0 -0.105469,0.023437 -0.152344,0.140625 -0.433593,1.03124995 -0.960937,1.2773437 -1.300781,1.2773437 -0.199219,0 -0.304687,-0.12890625 -0.304687,-0.45703125 0,-0.24609375 0.02344,-0.31640625 0.05859,-0.48046875 z m 0,0"
         style="fill:#000000;fill-opacity:1;fill-rule:nonzero;stroke:none" />
      <path
         id="path10"
         d="m 19.101289,-2.495125 c 0,-0.7734375 -0.117187,-1.9804687 -0.65625,-3.1054687 -0.597656,-1.21875 -1.464844,-1.875 -1.558594,-1.875 -0.05859,0 -0.105468,0.046875 -0.105468,0.1054687 0,0.035156 0,0.046875 0.199218,0.234375 0.972657,0.984375 1.535157,2.5664063 1.535157,4.640625 0,1.7109375 -0.363282,3.45703125 -1.59375,4.7226563 -0.140625,0.1171875 -0.140625,0.1289062 -0.140625,0.1640625 0,0.058594 0.04687,0.1054687 0.105468,0.1054687 0.09375,0 0.996094,-0.6796875 1.582032,-1.9453125 0.503906,-1.1015625 0.632812,-2.203125 0.632812,-3.046875 z m 0,0"
         style="fill:#000000;fill-opacity:1;fill-rule:nonzero;stroke:none" />
    </g>
    <path
       id="path11"
       d="M 0,28.3468 H 226.77448"
       style="fill:none;stroke:#808080;stroke-width:0.3985;stroke-linecap:butt;stroke-linejoin:miter;stroke-miterlimit:10;stroke-dasharray:2.98883, 2.98883;stroke-dashoffset:0;stroke-opacity:1"
       transform="matrix(1.3333333,0,0,-1.3333333,20.189333,79.096)" />
    <path
       id="path12"
       d="M 0,-28.3468 H 226.77448"
       style="fill:none;stroke:#808080;stroke-width:0.3985;stroke-linecap:butt;stroke-linejoin:miter;stroke-miterlimit:10;stroke-dasharray:2.98883, 2.98883;stroke-dashoffset:0;stroke-opacity:1"
       transform="matrix(1.3333333,0,0,-1.3333333,20.189333,79.096)" />
    <path
       id="path13"
       d="m 2.9283594,-6.3744766 c 0,-0.234375 0,-0.2578125 -0.234375,-0.2578125 -0.609375,0.6328125 -1.4882813,0.6328125 -1.80468752,0.6328125 v 0.3164063 c 0.19921872,0 0.78515622,0 1.30078122,-0.2578125 v 5.15624999 c 0,0.3515625 -0.035156,0.48046875 -0.9257812,0.48046875 H 0.94789063 V 5.234375e-4 C 1.2994531,-0.03463281 2.1549219,-0.03463281 2.5533594,-0.03463281 c 0.3984375,0 1.265625,0 1.6171875,0.0351562475 V -0.30416406 H 3.8541406 c -0.9023437,0 -0.9257812,-0.1171875 -0.9257812,-0.48046875 z m 0,0"
       style="fill:#000000;fill-opacity:1;fill-rule:nonzero;stroke:none"
       aria-label="1"
       transform="matrix(1.3333333,0,0,1.3333333,8.8533333,45.581333)" />
    <path
       id="path14"
       d="M 2.7532422,-1.863375 V -2.4375937 H 0.10480469 v 0.5742187 z m 3.4980469,-4.5117187 c 0,-0.234375 0,-0.2578125 -0.234375,-0.2578125 -0.609375,0.6328125 -1.4882813,0.6328125 -1.8046875,0.6328125 v 0.3164062 c 0.1992187,0 0.7851562,0 1.3007812,-0.2578125 v 5.15625 c 0,0.3515625 -0.035156,0.48046875 -0.9257812,0.48046875 H 4.2708203 V -9.375e-5 C 4.6223828,-0.03525 5.4778516,-0.03525 5.8762891,-0.03525 c 0.3984375,0 1.265625,0 1.6171875,0.03515625 v -0.3046875 H 7.1770703 c -0.9023437,0 -0.9257812,-0.1171875 -0.9257812,-0.48046875 z m 0,0"
       style="fill:#000000;fill-opacity:1;fill-rule:nonzero;stroke:none"
       aria-label="-1"
       transform="matrix(1.3333333,0,0,1.3333333,4.4266667,121.172)" />
    <path
       id="path15"
       d="M 0,-28.3468 28.3468,0 56.69362,28.3468 85.04042,0 113.38724,-28.3468 141.73404,0 170.08086,28.3468 198.42766,0 226.77448,-28.3468"
       style="fill:none;stroke:#000000;stroke-width:0.3985;stroke-linecap:butt;stroke-linejoin:miter;stroke-miterlimit:10;stroke-dasharray:none;stroke-opacity:1"
       transform="matrix(1.3333333,0,0,-1.3333333,20.189333,79.096)" />
    <path
       id="path16"
       d="M 57.15189,34.01608 H 169.62257"
       style="fill:none;stroke:#000000;stroke-width:0.3985;stroke-linecap:butt;stroke-linejoin:miter;stroke-miterlimit:10;stroke-dasharray:none;stroke-opacity:1"
       transform="matrix(1.3333333,0,0,-1.3333333,20.189333,79.096)" />
    <path
       id="path17"
       d="M -1.19551,1.59401 C -1.09587,0.99626 0,0.09961 0.29886,0 0,-0.09961 -1.09587,-0.99626 -1.19551,-1.59401"
       style="fill:none;stroke:#000000;stroke-width:0.31879;stroke-linecap:round;stroke-linejoin:round;stroke-miterlimit:10;stroke-dasharray:none;stroke-opacity:1"
       transform="matrix(-1.3333333,0,0,1.3333333,96.391853,33.741227)" />
    <path
       id="path18"
       d="M -1.19551,1.59401 C -1.09587,0.99626 0,0.09961 0.29886,0 0,-0.09961 -1.09587,-0.99626 -1.19551,-1.59401"
       style="fill:none;stroke:#000000;stroke-width:0.31879;stroke-linecap:round;stroke-linejoin:round;stroke-miterlimit:10;stroke-dasharray:none;stroke-opacity:1"
       transform="matrix(1.3333333,0,0,-1.3333333,246.35276,33.741227)" />
    <g
       id="g18"
       aria-label="2×10&#10;−4"
       transform="matrix(1.3333333,0,0,1.3333333,146.15867,27.942667)">
      <path
         id="path19"
         d="M 1.2667422,-0.76266406 2.3214297,-1.7939141 c 1.5585937,-1.3710937 2.15625,-1.9101562 2.15625,-2.90625 0,-1.1367187 -0.9023438,-1.9335937 -2.1210938,-1.9335937 -1.125,0 -1.85156246,0.9140625 -1.85156246,1.8046875 0,0.5507812 0.4921875,0.5507812 0.52734376,0.5507812 0.1640625,0 0.515625,-0.1171875 0.515625,-0.5273437 0,-0.2578125 -0.1875,-0.515625 -0.5273438,-0.515625 -0.0820312,0 -0.10546871,0 -0.12890621,0.011719 C 1.1143984,-5.95407 1.6534609,-6.32907 2.2276797,-6.32907 c 0.9140625,0 1.3359375,0.8085937 1.3359375,1.6289062 0,0.796875 -0.4921875,1.5820313 -1.0429688,2.203125 L 0.61049219,-0.36422656 C 0.50502344,-0.25875781 0.50502344,-0.23532031 0.50502344,-9.453125e-4 H 4.1964297 L 4.4776797,-1.7353203 H 4.2198672 c -0.046875,0.3046875 -0.1171875,0.73828124 -0.2109375,0.89062499 -0.070313,0.0820313 -0.7265625,0.0820313 -0.9492188,0.0820313 z m 0,0"
         style="fill:#000000;fill-opacity:1;fill-rule:nonzero;stroke:none" />
      <path
         id="path20"
         d="M 11.075336,-2.7665703 9.0831484,-4.7470391 c -0.1289062,-0.1289062 -0.140625,-0.140625 -0.2226562,-0.140625 -0.1054688,0 -0.1992188,0.082031 -0.1992188,0.1992188 0,0.070312 0.023437,0.082031 0.1289063,0.1992187 l 1.9921873,1.9921875 -1.9921873,2.00390629 c -0.1054688,0.1171875 -0.1289063,0.12890625 -0.1289063,0.19921875 0,0.1171875 0.09375,0.19921875 0.1992188,0.19921875 0.082031,0 0.09375,-0.01171875 0.2226562,-0.140625 l 1.9804686,-1.98046879 2.0625,2.06250004 c 0.01172,0.0117188 0.08203,0.05859375 0.152344,0.05859375 0.117187,0 0.199219,-0.08203125 0.199219,-0.19921875 0,-0.0117188 0,-0.0585938 -0.03516,-0.10546875 -0.01172,-0.0234375 -1.59375,-1.58203129 -2.097656,-2.09765629 l 1.828125,-1.8164062 c 0.04687,-0.058594 0.199219,-0.1875 0.246094,-0.2460938 0.01172,-0.023437 0.05859,-0.058594 0.05859,-0.1289062 0,-0.1171875 -0.08203,-0.1992188 -0.199219,-0.1992188 -0.08203,0 -0.128906,0.035156 -0.234375,0.140625 z m 0,0"
         style="fill:#000000;fill-opacity:1;fill-rule:nonzero;stroke:none" />
      <path
         id="path21"
         d="m 20.087055,-6.3759453 c 0,-0.234375 0,-0.2578125 -0.234375,-0.2578125 -0.609375,0.6328125 -1.488282,0.6328125 -1.804688,0.6328125 v 0.3164062 c 0.199219,0 0.785156,0 1.300781,-0.2578125 v 5.15625004 c 0,0.3515625 -0.03516,0.48046875 -0.925781,0.48046875 H 18.106586 V -9.453125e-4 C 18.458148,-0.03610156 19.313617,-0.03610156 19.712055,-0.03610156 c 0.398437,0 1.265625,0 1.617187,0.0351562475 V -0.30563281 h -0.316406 c -0.902344,0 -0.925781,-0.1171875 -0.925781,-0.48046875 z m 6.632812,3.1875 c 0,-0.796875 -0.04687,-1.59375 -0.398437,-2.3320313 -0.457032,-0.9609375 -1.277344,-1.1132812 -1.6875,-1.1132812 -0.597657,0 -1.335938,0.2578125 -1.734375,1.1835937 -0.328125,0.6914063 -0.375,1.4648438 -0.375,2.2617188 0,0.75 0.04687,1.640625 0.445312,2.40234374 0.433594,0.80859375 1.160156,1.0078125 1.652344,1.0078125 0.539062,0 1.289062,-0.2109375 1.734375,-1.16015625 0.316406,-0.69140629 0.363281,-1.46484379 0.363281,-2.24999999 z m -2.097656,3.1874999875 c -0.386719,0 -0.984375,-0.2460937475 -1.160156,-1.2070312875 -0.105469,-0.5976562 -0.105469,-1.5117187 -0.105469,-2.0976562 0,-0.6445313 0,-1.3007813 0.08203,-1.8398438 0.1875,-1.1835937 0.925781,-1.265625 1.183594,-1.265625 0.328125,0 0.984375,0.1757813 1.171875,1.1601563 0.09375,0.5625 0.09375,1.3125 0.09375,1.9453125 0,0.75 0,1.4179687 -0.105469,2.0625 -0.152344,0.93749999 -0.714844,1.2421874875 -1.160156,1.2421874875 z m 0,0"
         style="fill:#000000;fill-opacity:1;fill-rule:nonzero;stroke:none" />
      <path
         id="path22"
         d="m 32.312641,-5.1864922 c 0.105468,0 0.269531,0 0.269531,-0.1757812 0,-0.1757813 -0.152344,-0.1757813 -0.269531,-0.1757813 h -4.160157 c -0.105468,0 -0.28125,0 -0.28125,0.1757813 0,0.1757812 0.164063,0.1757812 0.28125,0.1757812 z m 0,0"
         style="fill:#000000;fill-opacity:1;fill-rule:nonzero;stroke:none" />
      <path
         id="path23"
         d="m 37.038227,-4.7646172 v -0.2460937 h -0.773438 v -3.1054688 c 0,-0.1523437 0,-0.1992187 -0.152344,-0.1992187 -0.09375,0 -0.117187,0 -0.1875,0.09375 l -2.308593,3.2109375 v 0.2460937 h 2.050781 v 0.5742188 c 0,0.234375 0,0.328125 -0.5625,0.328125 h -0.1875 v 0.2460937 c 0.351562,-0.011719 0.796875,-0.023437 1.042969,-0.023437 0.257812,0 0.703125,0.011719 1.054687,0.023437 v -0.2460937 h -0.1875 c -0.5625,0 -0.5625,-0.09375 -0.5625,-0.328125 v -0.5742188 z m -1.324219,-2.8007812 v 2.5546875 h -1.839844 z m 0,0"
         style="fill:#000000;fill-opacity:1;fill-rule:nonzero;stroke:none" />
    </g>
  </g>
</svg>
