<?xml version="1.0" encoding="UTF-8" standalone="no"?>
<!-- Created with Inkscape (http://www.inkscape.org/) -->

<svg
   version="1.1"
   id="svg1"
   width="201.69925"
   height="163.73962"
   viewBox="0 0 201.69925 163.73962"
   sodipodi:docname="freq_change.pdf"
   xmlns:inkscape="http://www.inkscape.org/namespaces/inkscape"
   xmlns:sodipodi="http://sodipodi.sourceforge.net/DTD/sodipodi-0.dtd"
   xmlns="http://www.w3.org/2000/svg"
   xmlns:svg="http://www.w3.org/2000/svg">
  <defs
     id="defs1" />
  <sodipodi:namedview
     id="namedview1"
     pagecolor="#ffffff"
     bordercolor="#666666"
     borderopacity="1.0"
     inkscape:showpageshadow="2"
     inkscape:pageopacity="0.0"
     inkscape:pagecheckerboard="0"
     inkscape:deskcolor="#d1d1d1"
     showgrid="false">
    <inkscape:page
       x="0"
       y="0"
       inkscape:label="1"
       id="page1"
       width="201.69925"
       height="163.73962"
       margin="0"
       bleed="0" />
  </sodipodi:namedview>
  <g
     id="g1"
     inkscape:groupmode="layer"
     inkscape:label="1"
     transform="translate(-0.2656006,-4.273438)">
    <path
       id="path1"
       d="M -28.3468,0 H 112.92896"
       style="fill:none;stroke:#000000;stroke-width:0.3985;stroke-linecap:butt;stroke-linejoin:miter;stroke-miterlimit:10;stroke-dasharray:none;stroke-opacity:1"
       transform="matrix(1.3333333,0,0,-1.3333333,38.061333,130.21733)" />
    <path
       id="path2"
       d="M -1.19551,1.59401 C -1.09587,0.99626 0,0.09961 0.29886,0 0,-0.09961 -1.09587,-0.99626 -1.19551,-1.59401"
       style="fill:none;stroke:#000000;stroke-width:0.31879;stroke-linecap:round;stroke-linejoin:round;stroke-miterlimit:10;stroke-dasharray:none;stroke-opacity:1"
       transform="matrix(1.3333333,0,0,-1.3333333,188.63328,130.21733)" />
    <path
       id="path3"
       d="m 6.0226328,-3.7025313 c 0,-0.4453125 -0.1757812,-0.703125 -0.3984375,-0.703125 -0.2578125,0 -0.5273437,0.2460938 -0.5273437,0.46875 0,0.1054688 0.046875,0.2109375 0.1523437,0.3046875 0.1640625,0.140625 0.3515625,0.4101563 0.3515625,0.8320313 0,0.3984375 -0.1875,0.9726562 -0.5039062,1.4296875 -0.2929688,0.421875 -0.6679688,0.76171875 -1.1367188,0.76171875 -0.5625,0 -0.8671875,-0.3515625 -0.9609375,-0.89062505 C 3.1046641,-1.7572188 3.3390391,-2.40175 3.3390391,-2.683 c 0,-0.1171875 -0.046875,-0.2109375 -0.1875,-0.2109375 -0.070312,0 -0.1875,0.011719 -0.2578125,0.1640625 -0.1171875,0.1992187 -0.234375,0.84375 -0.234375,1.2070312 -0.328125,0.46875 -0.7265625,0.91406255 -1.359375,0.91406255 -0.65625004,0 -0.86718754,-0.58593755 -0.86718754,-1.14843755 0,-1.2421875 1.01953124,-2.2851562 1.01953124,-2.4140625 0,-0.1171875 -0.082031,-0.1875 -0.1875,-0.1875 -0.1289062,0 -0.1992187,0.1289063 -0.2578125,0.2109375 -0.50390624,0.7382813 -0.89062499,1.921875 -0.89062499,2.8359375 0,0.67968755 0.234375,1.4179688 1.04296879,1.4179688 0.7148437,0 1.1835937,-0.4921875 1.5351562,-1.04296875 0.09375,0.57421875 0.4804688,1.04296875 1.1015625,1.04296875 0.7734375,0 1.2539063,-0.609375 1.6171875,-1.3476563 0.234375,-0.4921875 0.609375,-1.8515625 0.609375,-2.4609375 z m 0,0"
       style="fill:#000000;fill-opacity:1;fill-rule:nonzero;stroke:none"
       aria-label="ω"
       transform="matrix(1.3333333,0,0,1.3333333,193.93467,133.07733)" />
    <path
       id="path4"
       d="M 0,-28.3468 V 84.58214"
       style="fill:none;stroke:#000000;stroke-width:0.3985;stroke-linecap:butt;stroke-linejoin:miter;stroke-miterlimit:10;stroke-dasharray:none;stroke-opacity:1"
       transform="matrix(1.3333333,0,0,-1.3333333,38.061333,130.21733)" />
    <path
       id="path5"
       d="M -1.19551,1.59401 C -1.09587,0.99626 0,0.09961 0.29886,0 0,-0.09961 -1.09587,-0.99626 -1.19551,-1.59401"
       style="fill:none;stroke:#000000;stroke-width:0.31879;stroke-linecap:round;stroke-linejoin:round;stroke-miterlimit:10;stroke-dasharray:none;stroke-opacity:1"
       transform="matrix(0,-1.3333333,-1.3333333,0,38.061333,17.441147)" />
    <g
       id="g5"
       aria-label="e&#10;0"
       transform="matrix(1.3333333,0,0,1.3333333,31.989333,10.146667)">
      <path
         id="path6"
         d="m 1.8624922,-2.2955469 c 0.2929687,0 1.03125,-0.023437 1.5234375,-0.234375 0.703125,-0.2929687 0.75,-0.890625 0.75,-1.0195312 0,-0.4453125 -0.3867188,-0.8554688 -1.0664063,-0.8554688 -1.1132812,0 -2.61328121,0.9726563 -2.61328121,2.7070313 0,1.01953122 0.58593751,1.80468747 1.57031251,1.80468747 1.4179687,0 2.2617187,-1.0546875 2.2617187,-1.17187497 0,-0.058594 -0.070312,-0.1289063 -0.1289062,-0.1289063 -0.046875,0 -0.070312,0.023437 -0.1289063,0.09375 -0.7851562,0.99609377 -1.875,0.99609377 -1.9921875,0.99609377 -0.7734375,0 -0.8671875,-0.84375 -0.8671875,-1.16015627 0,-0.1171875 0.011719,-0.4335937 0.1640625,-1.03125 z m -0.46875,-0.2226562 c 0.3867187,-1.5117188 1.4179687,-1.6640625 1.6757812,-1.6640625 0.46875,0 0.7382813,0.2929687 0.7382813,0.6328125 0,1.03125 -1.59375,1.03125 -2.0039063,1.03125 z m 0,0"
         style="fill:#000000;fill-opacity:1;fill-rule:nonzero;stroke:none" />
      <path
         id="path7"
         d="m 8.2345625,-0.73402344 c 0,-0.76171876 -0.09375,-1.31249996 -0.4101562,-1.80468746 C 7.60175,-2.8551172 7.179875,-3.1363672 6.617375,-3.1363672 c -1.6171875,0 -1.6171875,1.8984375 -1.6171875,2.40234376 0,0.50390625 0,2.36718754 1.6171875,2.36718754 1.6171875,0 1.6171875,-1.86328129 1.6171875,-2.36718754 z M 6.617375,1.4339453 c -0.3164062,0 -0.75,-0.1875 -0.890625,-0.76171874 -0.09375,-0.41015625 -0.09375,-0.984375 -0.09375,-1.5 0,-0.50390626 0,-1.03124996 0.1054688,-1.41796876 0.1523437,-0.5507812 0.5976562,-0.6914062 0.8789062,-0.6914062 0.375,0 0.7382813,0.2226562 0.8671875,0.6328125 0.1054688,0.375 0.1171875,0.8789062 0.1171875,1.47656246 0,0.515625 0,1.04296875 -0.09375,1.4765625 C 7.367375,1.2816016 6.898625,1.4339453 6.617375,1.4339453 Z m 0,0"
         style="fill:#000000;fill-opacity:1;fill-rule:nonzero;stroke:none" />
    </g>
    <path
       id="path8"
       d="M 14.17339,35.43349 85.04042,70.867"
       style="fill:none;stroke:#000000;stroke-width:0.3985;stroke-linecap:butt;stroke-linejoin:miter;stroke-miterlimit:10;stroke-dasharray:none;stroke-opacity:1"
       transform="matrix(1.3333333,0,0,-1.3333333,38.061333,130.21733)" />
    <path
       id="path9"
       d="M 28.3468,-14.17339 V 42.5202"
       style="fill:none;stroke:#000000;stroke-width:0.3985;stroke-linecap:butt;stroke-linejoin:miter;stroke-miterlimit:10;stroke-dasharray:2.98883, 2.98883;stroke-dashoffset:0;stroke-opacity:1"
       transform="matrix(1.3333333,0,0,-1.3333333,38.061333,130.21733)" />
    <path
       id="path10"
       d="M 56.69362,-14.17339 V 56.69362"
       style="fill:none;stroke:#000000;stroke-width:0.3985;stroke-linecap:butt;stroke-linejoin:miter;stroke-miterlimit:10;stroke-dasharray:2.98883, 2.98883;stroke-dashoffset:0;stroke-opacity:1"
       transform="matrix(1.3333333,0,0,-1.3333333,38.061333,130.21733)" />
    <path
       id="path11"
       d="M 28.80508,-14.17339 H 56.23534"
       style="fill:none;stroke:#000000;stroke-width:0.3985;stroke-linecap:butt;stroke-linejoin:miter;stroke-miterlimit:10;stroke-dasharray:none;stroke-opacity:1"
       transform="matrix(1.3333333,0,0,-1.3333333,38.061333,130.21733)" />
    <path
       id="path12"
       d="M -1.19551,1.59401 C -1.09587,0.99626 0,0.09961 0.29886,0 0,-0.09961 -1.09587,-0.99626 -1.19551,-1.59401"
       style="fill:none;stroke:#000000;stroke-width:0.31879;stroke-linecap:round;stroke-linejoin:round;stroke-miterlimit:10;stroke-dasharray:none;stroke-opacity:1"
       transform="matrix(-1.3333333,0,0,1.3333333,76.468107,149.11519)" />
    <path
       id="path13"
       d="M -1.19551,1.59401 C -1.09587,0.99626 0,0.09961 0.29886,0 0,-0.09961 -1.09587,-0.99626 -1.19551,-1.59401"
       style="fill:none;stroke:#000000;stroke-width:0.31879;stroke-linecap:round;stroke-linejoin:round;stroke-miterlimit:10;stroke-dasharray:none;stroke-opacity:1"
       transform="matrix(1.3333333,0,0,-1.3333333,113.04179,149.11519)" />
    <path
       id="path14"
       d="M 5.8017031,-6.7720703 H 0.32904688 v 0.3046875 h 0.234375 c 0.77343752,0 0.79687502,0.1171875 0.79687502,0.46875 v 5.22656249 c 0,0.3515625 -0.023437,0.46875 -0.79687502,0.46875 h -0.234375 v 0.3046875 c 0.3515625,-0.03515625 1.12500002,-0.03515625 1.51171872,-0.03515625 0.4101563,0 1.3125,0 1.6757813,0.03515625 v -0.3046875 h -0.328125 c -0.9492188,0 -0.9492188,-0.12890625 -0.9492188,-0.48046875 V -3.2330078 h 0.8554688 c 0.9609375,0 1.0546875,0.3164062 1.0546875,1.1601562 H 4.4071719 V -4.7095703 H 4.1493594 c 0,0.8320312 -0.09375,1.1601562 -1.0546875,1.1601562 H 2.2392031 v -2.5195312 c 0,-0.328125 0.023437,-0.3984375 0.4921875,-0.3984375 h 1.1953125 c 1.4882813,0 1.7460938,0.5625 1.8984375,1.9335937 h 0.2578125 z m 3.1054688,0.1875 C 8.8134219,-6.8072266 8.7899844,-6.8072266 8.5556094,-6.8072266 h -1.6875 v 0.3164063 h 0.2460937 c 0.7617188,0 0.7851563,0.1054687 0.7851563,0.46875 v 4.9804687 c 0,0.26953129 0,0.73828129 -1.03125,0.73828129 v 0.3046875 c 0.3515625,-0.01171875 0.84375,-0.03515625 1.171875,-0.03515625 0.328125,0 0.8203125,0.0234375 1.1601562,0.03515625 v -0.3046875 c -1.0195312,0 -1.0195312,-0.46875 -1.0195312,-0.73828129 v -5.3671875 h 0.011719 l 2.4023436,6.18750004 c 0.04687,0.12890625 0.09375,0.22265625 0.199219,0.22265625 0.105468,0 0.128906,-0.08203125 0.175781,-0.1875 l 2.449219,-6.30468749 h 0.01172 v 5.71874999 c 0,0.3515625 -0.02344,0.46875 -0.785156,0.46875 h -0.246094 v 0.3046875 c 0.375,-0.03515625 1.042969,-0.03515625 1.441407,-0.03515625 0.386718,0 1.054687,0 1.417968,0.03515625 v -0.3046875 h -0.234375 c -0.773437,0 -0.785156,-0.1171875 -0.785156,-0.46875 V -6.0220703 c 0,-0.3632813 0.01172,-0.46875 0.785156,-0.46875 h 0.234375 v -0.3164063 h -1.675781 c -0.269531,0 -0.269531,0.011719 -0.339844,0.1992188 l -2.179687,5.6015625 z m 11.7568361,2.8359375 v -3.1640625 l -1.429688,0.1054687 v 0.3164063 c 0.691407,0 0.773438,0.070312 0.773438,0.5507812 v 5.94140629 h 0.246094 c 0.01172,-0.01171875 0.09375,-0.15234375 0.363281,-0.62109375 0.152344,0.234375 0.5625,0.7265625 1.300781,0.7265625 1.183594,0 2.226563,-0.97265625 2.226563,-2.26171874 0,-1.265625 -0.972657,-2.25 -2.109375,-2.25 -0.785157,0 -1.207032,0.46875 -1.371094,0.65625 z m 0.03516,2.6132812 v -2.0507812 c 0,-0.1875 0,-0.1992188 0.105469,-0.3632813 0.386719,-0.5507812 0.9375,-0.6328125 1.171875,-0.6328125 0.457031,0 0.808594,0.2578125 1.054687,0.6328125 0.257813,0.4101563 0.28125,0.984375 0.28125,1.3945313 0,0.3632812 -0.01172,0.9609375 -0.304687,1.40624999 -0.210938,0.31640625 -0.585938,0.64453125 -1.125,0.64453125 -0.445313,0 -0.808594,-0.24609375 -1.042969,-0.609375 -0.140625,-0.2109375 -0.140625,-0.24609375 -0.140625,-0.42187504 z m 7.107422,0.37500004 c 0.03516,0.3984375 0.304687,0.8203125 0.773437,0.8203125 0.210938,0 0.820313,-0.140625 0.820313,-0.94921875 V -1.4400391 h -0.246094 v 0.55078129 c 0,0.5859375 -0.246094,0.64453125 -0.363281,0.64453125 -0.328125,0 -0.363281,-0.45703125 -0.363281,-0.50390625 V -2.7408203 c 0,-0.4101563 0,-0.8085938 -0.363282,-1.171875 -0.386718,-0.3867188 -0.878906,-0.5507813 -1.359375,-0.5507813 -0.820312,0 -1.511718,0.46875 -1.511718,1.125 0,0.3046875 0.199218,0.46875 0.457031,0.46875 0.28125,0 0.46875,-0.1992187 0.46875,-0.4570312 0,-0.1171875 -0.05859,-0.4453125 -0.515625,-0.4570313 0.269531,-0.3515625 0.761719,-0.4570312 1.078125,-0.4570312 0.492187,0 1.054687,0.3867187 1.054687,1.2773437 v 0.3632813 c -0.503906,0.035156 -1.207031,0.058594 -1.828125,0.3632812 -0.75,0.3398438 -0.996093,0.8554688 -0.996093,1.28906254 0,0.80859375 0.960937,1.0546875 1.59375,1.0546875 0.65625,0 1.113281,-0.3984375 1.300781,-0.8671875 z M 27.73628,-2.3892578 v 0.9960937 c 0,0.94921879 -0.714843,1.28906254 -1.160156,1.28906254 -0.492187,0 -0.902344,-0.3515625 -0.902344,-0.85546875 0,-0.53906249 0.421875,-1.37109379 2.0625,-1.42968749 z m 2.835938,-1.03125 v 2.66015624 c 0,0.45703125 -0.117188,0.45703125 -0.785156,0.45703125 v 0.3046875 c 0.351562,-0.01171875 0.855468,-0.03515625 1.125,-0.03515625 0.257812,0 0.785156,0.0234375 1.113281,0.03515625 v -0.3046875 c -0.65625,0 -0.773438,0 -0.773438,-0.45703125 V -2.5884766 c 0,-1.03125 0.714844,-1.59375 1.347657,-1.59375 0.621093,0 0.738281,0.5390625 0.738281,1.1015625 v 2.32031254 c 0,0.45703125 -0.117188,0.45703125 -0.773438,0.45703125 v 0.3046875 c 0.339844,-0.01171875 0.855469,-0.03515625 1.125,-0.03515625 0.257813,0 0.773438,0.0234375 1.113282,0.03515625 v -0.3046875 c -0.515625,0 -0.773438,0 -0.785157,-0.3046875 V -2.5064453 c 0,-0.8554688 0,-1.171875 -0.304687,-1.5234375 -0.140625,-0.1757813 -0.46875,-0.375 -1.042969,-0.375 -0.726562,0 -1.195312,0.4335937 -1.476562,1.0546875 v -1.0546875 l -1.40625,0.1171875 v 0.3046875 c 0.703125,0 0.785156,0.070312 0.785156,0.5625 z m 8.217773,2.87109374 v 0.65625 l 1.464844,-0.10546875 v -0.3046875 c -0.703125,0 -0.773437,-0.0703125 -0.773437,-0.5625 V -6.9126953 l -1.441407,0.1054687 v 0.3164063 c 0.703125,0 0.785157,0.070312 0.785157,0.5507812 v 2.15625 c -0.292969,-0.3632812 -0.726563,-0.6210937 -1.265625,-0.6210937 -1.171875,0 -2.214844,0.984375 -2.214844,2.2617187 0,1.26562504 0.972656,2.25000004 2.109375,2.25000004 0.644531,0 1.089844,-0.33984375 1.335937,-0.65625 z m 0,-2.67187504 v 2.0507813 c 0,0.17578124 0,0.19921874 -0.105468,0.36328124 -0.304688,0.48046875 -0.75,0.703125 -1.183594,0.703125 -0.445313,0 -0.796875,-0.2578125 -1.042969,-0.64453125 -0.257812,-0.41015629 -0.292969,-0.97265629 -0.292969,-1.38281249 0,-0.3632813 0.02344,-0.9609375 0.316407,-1.4179688 0.210937,-0.3046875 0.585937,-0.6328125 1.125,-0.6328125 0.351562,0 0.761718,0.1523438 1.078125,0.5976563 0.105468,0.1640625 0.105468,0.1875 0.105468,0.3632812 z m 0,0"
       style="fill:#000000;fill-opacity:1;fill-rule:nonzero;stroke:none"
       aria-label="FMband"
       transform="matrix(1.3333333,0,0,1.3333333,67.725333,163.03333)" />
    <path
       id="path15"
       d="M 42.5202,2.83484 V 0"
       style="fill:none;stroke:#000000;stroke-width:0.3985;stroke-linecap:butt;stroke-linejoin:miter;stroke-miterlimit:10;stroke-dasharray:2.98883, 2.98883;stroke-dashoffset:0;stroke-opacity:1"
       transform="matrix(1.3333333,0,0,-1.3333333,38.061333,130.21733)" />
    <g
       id="g15"
       aria-label="ω&#10;c"
       transform="matrix(1.3333333,0,0,1.3333333,87.913333,140.63067)">
      <path
         id="path16"
         d="m 6.0239844,-3.7044453 c 0,-0.4453125 -0.1757813,-0.703125 -0.3984375,-0.703125 -0.2578125,0 -0.5273438,0.2460937 -0.5273438,0.46875 0,0.1054687 0.046875,0.2109375 0.1523438,0.3046875 0.1640625,0.140625 0.3515625,0.4101562 0.3515625,0.8320312 0,0.3984375 -0.1875,0.9726563 -0.5039063,1.4296875 -0.2929687,0.42187504 -0.6679687,0.76171879 -1.1367187,0.76171879 -0.5625,0 -0.8671875,-0.3515625 -0.9609375,-0.89062499 0.1054687,-0.2578125 0.3398437,-0.9023438 0.3398437,-1.1835938 0,-0.1171875 -0.046875,-0.2109375 -0.1875,-0.2109375 -0.070312,0 -0.1875,0.011719 -0.2578125,0.1640625 -0.1171875,0.1992188 -0.234375,0.84375 -0.234375,1.2070313 -0.328125,0.46875 -0.7265625,0.91406249 -1.359375,0.91406249 -0.65624998,0 -0.86718748,-0.58593749 -0.86718748,-1.14843749 0,-1.2421875 1.01953128,-2.2851563 1.01953128,-2.4140625 0,-0.1171875 -0.082031,-0.1875 -0.1875,-0.1875 -0.1289063,0 -0.1992188,0.1289062 -0.2578125,0.2109375 -0.50390628,0.7382812 -0.89062503,1.921875 -0.89062503,2.8359375 0,0.67968749 0.234375,1.41796874 1.04296873,1.41796874 0.7148438,0 1.1835938,-0.4921875 1.5351563,-1.04296875 0.09375,0.57421875 0.4804687,1.04296875 1.1015625,1.04296875 0.7734375,0 1.2539062,-0.609375 1.6171875,-1.34765624 0.234375,-0.4921875 0.609375,-1.8515625 0.609375,-2.4609375 z m 0,0"
         style="fill:#000000;fill-opacity:1;fill-rule:nonzero;stroke:none" />
      <path
         id="path17"
         d="m 9.2612891,-1.1790547 c -0.2578125,0.046875 -0.3632813,0.23437501 -0.3632813,0.38671876 0,0.1875 0.1523438,0.2578125 0.2695313,0.2578125 0.1640625,0 0.3984375,-0.10546875 0.3984375,-0.4453125 0,-0.46874996 -0.5390625,-0.59765626 -0.9140625,-0.59765626 -1.0429688,0 -2.015625,0.96093751 -2.015625,1.92187501 0,0.609375 0.421875,1.21874999 1.2890625,1.21874999 1.1835937,0 1.734375,-0.69140624 1.734375,-0.78515624 0,-0.046875 -0.070312,-0.1171875 -0.1289063,-0.1171875 -0.035156,0 -0.046875,0.0117188 -0.1054687,0.0703125 C 8.8745703,1.3639141 8.0659766,1.3639141 7.9370703,1.3639141 c -0.5039062,0 -0.7265625,-0.3398438 -0.7265625,-0.77343754 0,-0.19921875 0.1054688,-0.9609375 0.46875,-1.44140625 0.2578125,-0.33984371 0.6210938,-0.53906251 0.9726563,-0.53906251 0.09375,0 0.4335937,0.011719 0.609375,0.2109375 z m 0,0"
         style="fill:#000000;fill-opacity:1;fill-rule:nonzero;stroke:none" />
    </g>
  </g>
</svg>
