<?xml version="1.0" encoding="UTF-8" standalone="no"?>
<!-- Created with Inkscape (http://www.inkscape.org/) -->

<svg
   inkscape:version="1.2.1 (9c6d41e4, 2022-07-14)"
   sodipodi:docname="grid_number.svg"
   id="svg5"
   version="1.1"
   viewBox="0 0 101.05201 44.264557"
   height="44.264557mm"
   width="101.05201mm"
   xmlns:inkscape="http://www.inkscape.org/namespaces/inkscape"
   xmlns:sodipodi="http://sodipodi.sourceforge.net/DTD/sodipodi-0.dtd"
   xmlns="http://www.w3.org/2000/svg"
   xmlns:svg="http://www.w3.org/2000/svg"
   xmlns:ns16="http://www.iki.fi/pav/software/textext/">
  <sodipodi:namedview
     id="namedview7"
     pagecolor="#ffffff"
     bordercolor="#666666"
     borderopacity="1.0"
     inkscape:showpageshadow="2"
     inkscape:pageopacity="0.0"
     inkscape:pagecheckerboard="0"
     inkscape:deskcolor="#d1d1d1"
     inkscape:document-units="mm"
     showgrid="false"
     inkscape:zoom="2.2720599"
     inkscape:cx="189.25557"
     inkscape:cy="97.048498"
     inkscape:window-width="1920"
     inkscape:window-height="1147"
     inkscape:window-x="1920"
     inkscape:window-y="25"
     inkscape:window-maximized="0"
     inkscape:current-layer="layer1" />
  <defs
     id="defs2" />
  <g
     inkscape:label="Layer 1"
     inkscape:groupmode="layer"
     id="layer1"
     transform="translate(-50.6321, -122.764)">
    <g
       transform="matrix(0.74392785,0,0,0.74392785,57.222674,129.97201)"
       ns16:version="1.8.1"
       ns16:texconverter="pdflatex"
       ns16:pdfconverter="inkscape"
       ns16:text="\\begin{tabular}{|l|l|l|l|l|l|l|}\n\\hline &amp; &amp; &amp; $\\boldsymbol{*}$ &amp; &amp; &amp; \\\\\n\\hline &amp; &amp; $\\boldsymbol{*}$ &amp; $\\boldsymbol{*}$ &amp; $\\boldsymbol{*}$ &amp; &amp; \\\\\n\\hline &amp; $\\boldsymbol{*}$ &amp; $\\boldsymbol{*}$ &amp; $\\boldsymbol{*}$ &amp; $\\boldsymbol{*}$ &amp; $\\boldsymbol{*}$ &amp; \\\\\n\\hline $\\boldsymbol{*}$ &amp; $\\boldsymbol{*}$ &amp; $\\boldsymbol{*}$ &amp; $\\boldsymbol{*}$ &amp; $\\boldsymbol{*}$ &amp; $\\boldsymbol{*}$ &amp; $\\boldsymbol{*}$ \\\\\n\\hline\n\\end{tabular}"
       ns16:preamble="/Users/hasanabbas/Library/Application Support/org.inkscape.Inkscape/config/inkscape/extensions/textext/default_packages.tex"
       ns16:scale="1.0"
       ns16:alignment="middle center"
       ns16:stroke-to-path="0"
       ns16:jacobian_sqrt="0.352778"
       id="g244">
      <defs
         id="id-39693d33-e4d6-427a-9650-e55eaf0bf48a">
        <g
           id="id-be7102ba-9641-4d88-8448-cf8df264f4fb">
          <g
             id="id-3f31391c-aeb8-4bd5-a58f-7a89c89d04d7" />
          <g
             id="id-4efc14dc-bee9-4d39-950f-9870b73ea72d">
            <path
               d="m 3.046875,-2.171875 1.140625,0.84375 c 0.234375,0.1875 0.25,0.1875 0.375,0.1875 0.25,0 0.421875,-0.25 0.421875,-0.46875 0,-0.125 -0.0625,-0.265625 -0.203125,-0.328125 C 4.703125,-2 4.578125,-2.015625 3.296875,-2.5 4.578125,-2.96875 4.703125,-2.984375 4.78125,-3.046875 4.921875,-3.09375 4.984375,-3.234375 4.984375,-3.375 c 0,-0.21875 -0.171875,-0.46875 -0.421875,-0.46875 -0.109375,0 -0.140625,0 -0.359375,0.171875 L 3.046875,-2.8125 c 0.046875,-0.265625 0.25,-1.421875 0.25,-1.515625 0,-0.25 -0.25,-0.375 -0.4375,-0.375 -0.171875,0 -0.421875,0.125 -0.421875,0.375 0,0.09375 0.203125,1.3125 0.234375,1.515625 L 1.53125,-3.65625 c -0.21875,-0.1875 -0.25,-0.1875 -0.359375,-0.1875 -0.25,0 -0.4375,0.25 -0.4375,0.46875 0,0.125 0.0625,0.265625 0.203125,0.328125 0.078125,0.0625 0.203125,0.078125 1.5,0.546875 -1.296875,0.484375 -1.421875,0.5 -1.5,0.5625 -0.140625,0.046875 -0.203125,0.1875 -0.203125,0.328125 0,0.21875 0.1875,0.46875 0.4375,0.46875 0.109375,0 0.125,0 0.34375,-0.171875 l 1.15625,-0.859375 C 2.625,-1.890625 2.4375,-0.75 2.4375,-0.65625 c 0,0.25 0.25,0.375 0.421875,0.375 0.1875,0 0.4375,-0.125 0.4375,-0.375 0,-0.09375 -0.21875,-1.34375 -0.25,-1.515625 z m 0,0"
               id="id-fd0b5987-77e2-4b21-b22a-2575bedd3360" />
          </g>
        </g>
      </defs>
      <path
         fill="none"
         stroke-width="0.398"
         stroke-linecap="butt"
         stroke-linejoin="miter"
         stroke="#000000"
         stroke-opacity="1"
         stroke-miterlimit="10"
         d="M 0,0.199 H 126.97656"
         id="id-7e1e270e-3ca9-4c5c-8720-eac0bd836869" />
      <path
         fill="none"
         stroke-width="0.398"
         stroke-linecap="butt"
         stroke-linejoin="miter"
         stroke="#000000"
         stroke-opacity="1"
         stroke-miterlimit="10"
         d="M 0.19921875,12.35525 V 0.398219"
         id="id-306caf95-8fdf-4dd6-9d51-8b4e2ae018a0" />
      <path
         fill="none"
         stroke-width="0.398"
         stroke-linecap="butt"
         stroke-linejoin="miter"
         stroke="#000000"
         stroke-opacity="1"
         stroke-miterlimit="10"
         d="M 18.28125,12.35525 V 0.398219"
         id="id-263ffe93-e0bb-4a07-820a-b3e643c85f15" />
      <path
         fill="none"
         stroke-width="0.398"
         stroke-linecap="butt"
         stroke-linejoin="miter"
         stroke="#000000"
         stroke-opacity="1"
         stroke-miterlimit="10"
         d="M 36.363281,12.35525 V 0.398219"
         id="id-d05a09a5-4d1e-4b5f-aeaf-048b5625085c" />
      <path
         fill="none"
         stroke-width="0.398"
         stroke-linecap="butt"
         stroke-linejoin="miter"
         stroke="#000000"
         stroke-opacity="1"
         stroke-miterlimit="10"
         d="M 54.445312,12.35525 V 0.398219"
         id="id-9e5b130f-2dc7-44d9-923b-dab368189be8" />
      <g
         fill="#000000"
         fill-opacity="1"
         id="id-10b98a1e-9aaa-4ae1-b005-1bd100527a35"
         transform="translate(-148.711,-124.801)">
        <g
           transform="translate(209.335,133.569)"
           id="g149">
          <path
             d="m 3.046875,-2.171875 1.140625,0.84375 c 0.234375,0.1875 0.25,0.1875 0.375,0.1875 0.25,0 0.421875,-0.25 0.421875,-0.46875 0,-0.125 -0.0625,-0.265625 -0.203125,-0.328125 C 4.703125,-2 4.578125,-2.015625 3.296875,-2.5 4.578125,-2.96875 4.703125,-2.984375 4.78125,-3.046875 4.921875,-3.09375 4.984375,-3.234375 4.984375,-3.375 c 0,-0.21875 -0.171875,-0.46875 -0.421875,-0.46875 -0.109375,0 -0.140625,0 -0.359375,0.171875 L 3.046875,-2.8125 c 0.046875,-0.265625 0.25,-1.421875 0.25,-1.515625 0,-0.25 -0.25,-0.375 -0.4375,-0.375 -0.171875,0 -0.421875,0.125 -0.421875,0.375 0,0.09375 0.203125,1.3125 0.234375,1.515625 L 1.53125,-3.65625 c -0.21875,-0.1875 -0.25,-0.1875 -0.359375,-0.1875 -0.25,0 -0.4375,0.25 -0.4375,0.46875 0,0.125 0.0625,0.265625 0.203125,0.328125 0.078125,0.0625 0.203125,0.078125 1.5,0.546875 -1.296875,0.484375 -1.421875,0.5 -1.5,0.5625 -0.140625,0.046875 -0.203125,0.1875 -0.203125,0.328125 0,0.21875 0.1875,0.46875 0.4375,0.46875 0.109375,0 0.125,0 0.34375,-0.171875 l 1.15625,-0.859375 C 2.625,-1.890625 2.4375,-0.75 2.4375,-0.65625 c 0,0.25 0.25,0.375 0.421875,0.375 0.1875,0 0.4375,-0.125 0.4375,-0.375 0,-0.09375 -0.21875,-1.34375 -0.25,-1.515625 z m 0,0"
             id="id-7eaeb691-e31a-48dd-83d4-a180a85d48d2" />
        </g>
      </g>
      <path
         fill="none"
         stroke-width="0.398"
         stroke-linecap="butt"
         stroke-linejoin="miter"
         stroke="#000000"
         stroke-opacity="1"
         stroke-miterlimit="10"
         d="M 72.527344,12.35525 V 0.398219"
         id="id-699eaf34-ca5d-42ef-a1ed-1643db2a0771" />
      <path
         fill="none"
         stroke-width="0.398"
         stroke-linecap="butt"
         stroke-linejoin="miter"
         stroke="#000000"
         stroke-opacity="1"
         stroke-miterlimit="10"
         d="M 90.609375,12.35525 V 0.398219"
         id="id-c24688fb-fde6-440b-8469-481b5b06604a" />
      <path
         fill="none"
         stroke-width="0.398"
         stroke-linecap="butt"
         stroke-linejoin="miter"
         stroke="#000000"
         stroke-opacity="1"
         stroke-miterlimit="10"
         d="M 108.69141,12.35525 V 0.398219"
         id="id-5b29891c-6022-4741-890b-23194d2d3783" />
      <path
         fill="none"
         stroke-width="0.398"
         stroke-linecap="butt"
         stroke-linejoin="miter"
         stroke="#000000"
         stroke-opacity="1"
         stroke-miterlimit="10"
         d="M 126.77734,12.35525 V 0.398219"
         id="id-5494f6eb-92b8-4b12-9678-4f032dcd920f" />
      <path
         fill="none"
         stroke-width="0.398"
         stroke-linecap="butt"
         stroke-linejoin="miter"
         stroke="#000000"
         stroke-opacity="1"
         stroke-miterlimit="10"
         d="M 0,12.554469 H 126.97656"
         id="id-e45d1aca-e60f-4523-be4b-876e0200df16" />
      <path
         fill="none"
         stroke-width="0.398"
         stroke-linecap="butt"
         stroke-linejoin="miter"
         stroke="#000000"
         stroke-opacity="1"
         stroke-miterlimit="10"
         d="M 0.19921875,24.706813 V 12.753687"
         id="id-25385e19-e4d7-4efd-b37a-3c7afe44ec01" />
      <path
         fill="none"
         stroke-width="0.398"
         stroke-linecap="butt"
         stroke-linejoin="miter"
         stroke="#000000"
         stroke-opacity="1"
         stroke-miterlimit="10"
         d="M 18.28125,24.706813 V 12.753687"
         id="id-0a22c5ee-3794-4077-827e-f9d981bad78d" />
      <path
         fill="none"
         stroke-width="0.398"
         stroke-linecap="butt"
         stroke-linejoin="miter"
         stroke="#000000"
         stroke-opacity="1"
         stroke-miterlimit="10"
         d="M 36.363281,24.706813 V 12.753687"
         id="id-161b3799-b009-4876-a16e-5a613ec8e3fe" />
      <g
         fill="#000000"
         fill-opacity="1"
         id="id-394f2624-931e-4275-893e-7d76b935ffbe"
         transform="translate(-148.711,-124.801)">
        <g
           transform="translate(191.253,145.923)"
           id="g161">
          <path
             d="m 3.046875,-2.171875 1.140625,0.84375 c 0.234375,0.1875 0.25,0.1875 0.375,0.1875 0.25,0 0.421875,-0.25 0.421875,-0.46875 0,-0.125 -0.0625,-0.265625 -0.203125,-0.328125 C 4.703125,-2 4.578125,-2.015625 3.296875,-2.5 4.578125,-2.96875 4.703125,-2.984375 4.78125,-3.046875 4.921875,-3.09375 4.984375,-3.234375 4.984375,-3.375 c 0,-0.21875 -0.171875,-0.46875 -0.421875,-0.46875 -0.109375,0 -0.140625,0 -0.359375,0.171875 L 3.046875,-2.8125 c 0.046875,-0.265625 0.25,-1.421875 0.25,-1.515625 0,-0.25 -0.25,-0.375 -0.4375,-0.375 -0.171875,0 -0.421875,0.125 -0.421875,0.375 0,0.09375 0.203125,1.3125 0.234375,1.515625 L 1.53125,-3.65625 c -0.21875,-0.1875 -0.25,-0.1875 -0.359375,-0.1875 -0.25,0 -0.4375,0.25 -0.4375,0.46875 0,0.125 0.0625,0.265625 0.203125,0.328125 0.078125,0.0625 0.203125,0.078125 1.5,0.546875 -1.296875,0.484375 -1.421875,0.5 -1.5,0.5625 -0.140625,0.046875 -0.203125,0.1875 -0.203125,0.328125 0,0.21875 0.1875,0.46875 0.4375,0.46875 0.109375,0 0.125,0 0.34375,-0.171875 l 1.15625,-0.859375 C 2.625,-1.890625 2.4375,-0.75 2.4375,-0.65625 c 0,0.25 0.25,0.375 0.421875,0.375 0.1875,0 0.4375,-0.125 0.4375,-0.375 0,-0.09375 -0.21875,-1.34375 -0.25,-1.515625 z m 0,0"
             id="id-089ecaba-35b7-4d15-ac7d-7b2ac0f434a6" />
        </g>
      </g>
      <path
         fill="none"
         stroke-width="0.398"
         stroke-linecap="butt"
         stroke-linejoin="miter"
         stroke="#000000"
         stroke-opacity="1"
         stroke-miterlimit="10"
         d="M 54.445312,24.706813 V 12.753687"
         id="id-b2d7d9f9-9943-4fc7-afd1-6116b0e65baf" />
      <g
         fill="#000000"
         fill-opacity="1"
         id="id-ebb669c9-5965-4e87-82db-6d2c8273f18f"
         transform="translate(-148.711,-124.801)">
        <g
           transform="translate(209.335,145.923)"
           id="g166">
          <path
             d="m 3.046875,-2.171875 1.140625,0.84375 c 0.234375,0.1875 0.25,0.1875 0.375,0.1875 0.25,0 0.421875,-0.25 0.421875,-0.46875 0,-0.125 -0.0625,-0.265625 -0.203125,-0.328125 C 4.703125,-2 4.578125,-2.015625 3.296875,-2.5 4.578125,-2.96875 4.703125,-2.984375 4.78125,-3.046875 4.921875,-3.09375 4.984375,-3.234375 4.984375,-3.375 c 0,-0.21875 -0.171875,-0.46875 -0.421875,-0.46875 -0.109375,0 -0.140625,0 -0.359375,0.171875 L 3.046875,-2.8125 c 0.046875,-0.265625 0.25,-1.421875 0.25,-1.515625 0,-0.25 -0.25,-0.375 -0.4375,-0.375 -0.171875,0 -0.421875,0.125 -0.421875,0.375 0,0.09375 0.203125,1.3125 0.234375,1.515625 L 1.53125,-3.65625 c -0.21875,-0.1875 -0.25,-0.1875 -0.359375,-0.1875 -0.25,0 -0.4375,0.25 -0.4375,0.46875 0,0.125 0.0625,0.265625 0.203125,0.328125 0.078125,0.0625 0.203125,0.078125 1.5,0.546875 -1.296875,0.484375 -1.421875,0.5 -1.5,0.5625 -0.140625,0.046875 -0.203125,0.1875 -0.203125,0.328125 0,0.21875 0.1875,0.46875 0.4375,0.46875 0.109375,0 0.125,0 0.34375,-0.171875 l 1.15625,-0.859375 C 2.625,-1.890625 2.4375,-0.75 2.4375,-0.65625 c 0,0.25 0.25,0.375 0.421875,0.375 0.1875,0 0.4375,-0.125 0.4375,-0.375 0,-0.09375 -0.21875,-1.34375 -0.25,-1.515625 z m 0,0"
             id="id-8ae1d4fc-5529-4328-bcd1-5dc92ce41fdb" />
        </g>
      </g>
      <path
         fill="none"
         stroke-width="0.398"
         stroke-linecap="butt"
         stroke-linejoin="miter"
         stroke="#000000"
         stroke-opacity="1"
         stroke-miterlimit="10"
         d="M 72.527344,24.706813 V 12.753687"
         id="id-f85dbee4-e897-4923-821c-c0e55eceed09" />
      <g
         fill="#000000"
         fill-opacity="1"
         id="id-780fe4b6-4e21-424e-8e79-398df164e036"
         transform="translate(-148.711,-124.801)">
        <g
           transform="translate(227.417,145.923)"
           id="g171">
          <path
             d="m 3.046875,-2.171875 1.140625,0.84375 c 0.234375,0.1875 0.25,0.1875 0.375,0.1875 0.25,0 0.421875,-0.25 0.421875,-0.46875 0,-0.125 -0.0625,-0.265625 -0.203125,-0.328125 C 4.703125,-2 4.578125,-2.015625 3.296875,-2.5 4.578125,-2.96875 4.703125,-2.984375 4.78125,-3.046875 4.921875,-3.09375 4.984375,-3.234375 4.984375,-3.375 c 0,-0.21875 -0.171875,-0.46875 -0.421875,-0.46875 -0.109375,0 -0.140625,0 -0.359375,0.171875 L 3.046875,-2.8125 c 0.046875,-0.265625 0.25,-1.421875 0.25,-1.515625 0,-0.25 -0.25,-0.375 -0.4375,-0.375 -0.171875,0 -0.421875,0.125 -0.421875,0.375 0,0.09375 0.203125,1.3125 0.234375,1.515625 L 1.53125,-3.65625 c -0.21875,-0.1875 -0.25,-0.1875 -0.359375,-0.1875 -0.25,0 -0.4375,0.25 -0.4375,0.46875 0,0.125 0.0625,0.265625 0.203125,0.328125 0.078125,0.0625 0.203125,0.078125 1.5,0.546875 -1.296875,0.484375 -1.421875,0.5 -1.5,0.5625 -0.140625,0.046875 -0.203125,0.1875 -0.203125,0.328125 0,0.21875 0.1875,0.46875 0.4375,0.46875 0.109375,0 0.125,0 0.34375,-0.171875 l 1.15625,-0.859375 C 2.625,-1.890625 2.4375,-0.75 2.4375,-0.65625 c 0,0.25 0.25,0.375 0.421875,0.375 0.1875,0 0.4375,-0.125 0.4375,-0.375 0,-0.09375 -0.21875,-1.34375 -0.25,-1.515625 z m 0,0"
             id="id-32a4735f-f328-44ce-bb30-8e4ae4cef0fe" />
        </g>
      </g>
      <path
         fill="none"
         stroke-width="0.398"
         stroke-linecap="butt"
         stroke-linejoin="miter"
         stroke="#000000"
         stroke-opacity="1"
         stroke-miterlimit="10"
         d="M 90.609375,24.706813 V 12.753687"
         id="id-781fcbcd-ce44-409b-97fa-3f0d52d44cdb" />
      <path
         fill="none"
         stroke-width="0.398"
         stroke-linecap="butt"
         stroke-linejoin="miter"
         stroke="#000000"
         stroke-opacity="1"
         stroke-miterlimit="10"
         d="M 108.69141,24.706813 V 12.753687"
         id="id-01bc272b-e852-44ef-a8be-cb498e6b1090" />
      <path
         fill="none"
         stroke-width="0.398"
         stroke-linecap="butt"
         stroke-linejoin="miter"
         stroke="#000000"
         stroke-opacity="1"
         stroke-miterlimit="10"
         d="M 126.77734,24.706813 V 12.753687"
         id="id-4ae4498a-bd5a-4598-a9d7-6538b59712cb" />
      <path
         fill="none"
         stroke-width="0.398"
         stroke-linecap="butt"
         stroke-linejoin="miter"
         stroke="#000000"
         stroke-opacity="1"
         stroke-miterlimit="10"
         d="M 0,24.909938 H 126.97656"
         id="id-cc6ff43e-7f88-467d-ac20-3086ed9754ce" />
      <path
         fill="none"
         stroke-width="0.398"
         stroke-linecap="butt"
         stroke-linejoin="miter"
         stroke="#000000"
         stroke-opacity="1"
         stroke-miterlimit="10"
         d="M 0.19921875,37.062281 V 25.10525"
         id="id-96f7c42e-305f-468e-9596-788276566532" />
      <path
         fill="none"
         stroke-width="0.398"
         stroke-linecap="butt"
         stroke-linejoin="miter"
         stroke="#000000"
         stroke-opacity="1"
         stroke-miterlimit="10"
         d="M 18.28125,37.062281 V 25.10525"
         id="id-81696c43-1758-4f7f-a1db-d82625f2f617" />
      <g
         fill="#000000"
         fill-opacity="1"
         id="id-dfe7af5a-2362-4cf5-9695-5c773473b3b2"
         transform="translate(-148.711,-124.801)">
        <g
           transform="translate(173.171,158.276)"
           id="g181">
          <path
             d="m 3.046875,-2.171875 1.140625,0.84375 c 0.234375,0.1875 0.25,0.1875 0.375,0.1875 0.25,0 0.421875,-0.25 0.421875,-0.46875 0,-0.125 -0.0625,-0.265625 -0.203125,-0.328125 C 4.703125,-2 4.578125,-2.015625 3.296875,-2.5 4.578125,-2.96875 4.703125,-2.984375 4.78125,-3.046875 4.921875,-3.09375 4.984375,-3.234375 4.984375,-3.375 c 0,-0.21875 -0.171875,-0.46875 -0.421875,-0.46875 -0.109375,0 -0.140625,0 -0.359375,0.171875 L 3.046875,-2.8125 c 0.046875,-0.265625 0.25,-1.421875 0.25,-1.515625 0,-0.25 -0.25,-0.375 -0.4375,-0.375 -0.171875,0 -0.421875,0.125 -0.421875,0.375 0,0.09375 0.203125,1.3125 0.234375,1.515625 L 1.53125,-3.65625 c -0.21875,-0.1875 -0.25,-0.1875 -0.359375,-0.1875 -0.25,0 -0.4375,0.25 -0.4375,0.46875 0,0.125 0.0625,0.265625 0.203125,0.328125 0.078125,0.0625 0.203125,0.078125 1.5,0.546875 -1.296875,0.484375 -1.421875,0.5 -1.5,0.5625 -0.140625,0.046875 -0.203125,0.1875 -0.203125,0.328125 0,0.21875 0.1875,0.46875 0.4375,0.46875 0.109375,0 0.125,0 0.34375,-0.171875 l 1.15625,-0.859375 C 2.625,-1.890625 2.4375,-0.75 2.4375,-0.65625 c 0,0.25 0.25,0.375 0.421875,0.375 0.1875,0 0.4375,-0.125 0.4375,-0.375 0,-0.09375 -0.21875,-1.34375 -0.25,-1.515625 z m 0,0"
             id="id-674477fb-c651-448f-ab51-84ab66c95cae" />
        </g>
      </g>
      <path
         fill="none"
         stroke-width="0.398"
         stroke-linecap="butt"
         stroke-linejoin="miter"
         stroke="#000000"
         stroke-opacity="1"
         stroke-miterlimit="10"
         d="M 36.363281,37.062281 V 25.10525"
         id="id-8fc09f3f-4d30-473f-ac51-0ec9f1c5b7e0" />
      <g
         fill="#000000"
         fill-opacity="1"
         id="id-a9242cc7-d9fd-477b-b3e0-962082dce4ff"
         transform="translate(-148.711,-124.801)">
        <g
           transform="translate(191.253,158.276)"
           id="g186">
          <path
             d="m 3.046875,-2.171875 1.140625,0.84375 c 0.234375,0.1875 0.25,0.1875 0.375,0.1875 0.25,0 0.421875,-0.25 0.421875,-0.46875 0,-0.125 -0.0625,-0.265625 -0.203125,-0.328125 C 4.703125,-2 4.578125,-2.015625 3.296875,-2.5 4.578125,-2.96875 4.703125,-2.984375 4.78125,-3.046875 4.921875,-3.09375 4.984375,-3.234375 4.984375,-3.375 c 0,-0.21875 -0.171875,-0.46875 -0.421875,-0.46875 -0.109375,0 -0.140625,0 -0.359375,0.171875 L 3.046875,-2.8125 c 0.046875,-0.265625 0.25,-1.421875 0.25,-1.515625 0,-0.25 -0.25,-0.375 -0.4375,-0.375 -0.171875,0 -0.421875,0.125 -0.421875,0.375 0,0.09375 0.203125,1.3125 0.234375,1.515625 L 1.53125,-3.65625 c -0.21875,-0.1875 -0.25,-0.1875 -0.359375,-0.1875 -0.25,0 -0.4375,0.25 -0.4375,0.46875 0,0.125 0.0625,0.265625 0.203125,0.328125 0.078125,0.0625 0.203125,0.078125 1.5,0.546875 -1.296875,0.484375 -1.421875,0.5 -1.5,0.5625 -0.140625,0.046875 -0.203125,0.1875 -0.203125,0.328125 0,0.21875 0.1875,0.46875 0.4375,0.46875 0.109375,0 0.125,0 0.34375,-0.171875 l 1.15625,-0.859375 C 2.625,-1.890625 2.4375,-0.75 2.4375,-0.65625 c 0,0.25 0.25,0.375 0.421875,0.375 0.1875,0 0.4375,-0.125 0.4375,-0.375 0,-0.09375 -0.21875,-1.34375 -0.25,-1.515625 z m 0,0"
             id="id-fd048054-821d-4a4a-b3ba-eea99250279a" />
        </g>
      </g>
      <path
         fill="none"
         stroke-width="0.398"
         stroke-linecap="butt"
         stroke-linejoin="miter"
         stroke="#000000"
         stroke-opacity="1"
         stroke-miterlimit="10"
         d="M 54.445312,37.062281 V 25.10525"
         id="id-8c42fc41-95ac-48c6-9f49-13423fc5d8df" />
      <g
         fill="#000000"
         fill-opacity="1"
         id="id-470610d9-bc0c-4623-a3d0-0bbbb7831c71"
         transform="translate(-148.711,-124.801)">
        <g
           transform="translate(209.335,158.276)"
           id="g191">
          <path
             d="m 3.046875,-2.171875 1.140625,0.84375 c 0.234375,0.1875 0.25,0.1875 0.375,0.1875 0.25,0 0.421875,-0.25 0.421875,-0.46875 0,-0.125 -0.0625,-0.265625 -0.203125,-0.328125 C 4.703125,-2 4.578125,-2.015625 3.296875,-2.5 4.578125,-2.96875 4.703125,-2.984375 4.78125,-3.046875 4.921875,-3.09375 4.984375,-3.234375 4.984375,-3.375 c 0,-0.21875 -0.171875,-0.46875 -0.421875,-0.46875 -0.109375,0 -0.140625,0 -0.359375,0.171875 L 3.046875,-2.8125 c 0.046875,-0.265625 0.25,-1.421875 0.25,-1.515625 0,-0.25 -0.25,-0.375 -0.4375,-0.375 -0.171875,0 -0.421875,0.125 -0.421875,0.375 0,0.09375 0.203125,1.3125 0.234375,1.515625 L 1.53125,-3.65625 c -0.21875,-0.1875 -0.25,-0.1875 -0.359375,-0.1875 -0.25,0 -0.4375,0.25 -0.4375,0.46875 0,0.125 0.0625,0.265625 0.203125,0.328125 0.078125,0.0625 0.203125,0.078125 1.5,0.546875 -1.296875,0.484375 -1.421875,0.5 -1.5,0.5625 -0.140625,0.046875 -0.203125,0.1875 -0.203125,0.328125 0,0.21875 0.1875,0.46875 0.4375,0.46875 0.109375,0 0.125,0 0.34375,-0.171875 l 1.15625,-0.859375 C 2.625,-1.890625 2.4375,-0.75 2.4375,-0.65625 c 0,0.25 0.25,0.375 0.421875,0.375 0.1875,0 0.4375,-0.125 0.4375,-0.375 0,-0.09375 -0.21875,-1.34375 -0.25,-1.515625 z m 0,0"
             id="id-a2b5383d-a568-4f33-8e95-08bbcff00db5" />
        </g>
      </g>
      <path
         fill="none"
         stroke-width="0.398"
         stroke-linecap="butt"
         stroke-linejoin="miter"
         stroke="#000000"
         stroke-opacity="1"
         stroke-miterlimit="10"
         d="M 72.527344,37.062281 V 25.10525"
         id="id-83283d94-58b1-454c-aa6a-4d9cf0496c03" />
      <g
         fill="#000000"
         fill-opacity="1"
         id="id-af89196c-da9a-4aa1-88d2-d70cf9546814"
         transform="translate(-148.711,-124.801)">
        <g
           transform="translate(227.417,158.276)"
           id="g196">
          <path
             d="m 3.046875,-2.171875 1.140625,0.84375 c 0.234375,0.1875 0.25,0.1875 0.375,0.1875 0.25,0 0.421875,-0.25 0.421875,-0.46875 0,-0.125 -0.0625,-0.265625 -0.203125,-0.328125 C 4.703125,-2 4.578125,-2.015625 3.296875,-2.5 4.578125,-2.96875 4.703125,-2.984375 4.78125,-3.046875 4.921875,-3.09375 4.984375,-3.234375 4.984375,-3.375 c 0,-0.21875 -0.171875,-0.46875 -0.421875,-0.46875 -0.109375,0 -0.140625,0 -0.359375,0.171875 L 3.046875,-2.8125 c 0.046875,-0.265625 0.25,-1.421875 0.25,-1.515625 0,-0.25 -0.25,-0.375 -0.4375,-0.375 -0.171875,0 -0.421875,0.125 -0.421875,0.375 0,0.09375 0.203125,1.3125 0.234375,1.515625 L 1.53125,-3.65625 c -0.21875,-0.1875 -0.25,-0.1875 -0.359375,-0.1875 -0.25,0 -0.4375,0.25 -0.4375,0.46875 0,0.125 0.0625,0.265625 0.203125,0.328125 0.078125,0.0625 0.203125,0.078125 1.5,0.546875 -1.296875,0.484375 -1.421875,0.5 -1.5,0.5625 -0.140625,0.046875 -0.203125,0.1875 -0.203125,0.328125 0,0.21875 0.1875,0.46875 0.4375,0.46875 0.109375,0 0.125,0 0.34375,-0.171875 l 1.15625,-0.859375 C 2.625,-1.890625 2.4375,-0.75 2.4375,-0.65625 c 0,0.25 0.25,0.375 0.421875,0.375 0.1875,0 0.4375,-0.125 0.4375,-0.375 0,-0.09375 -0.21875,-1.34375 -0.25,-1.515625 z m 0,0"
             id="id-4d27f9a6-754d-4442-8ccb-216b5cd9e421" />
        </g>
      </g>
      <path
         fill="none"
         stroke-width="0.398"
         stroke-linecap="butt"
         stroke-linejoin="miter"
         stroke="#000000"
         stroke-opacity="1"
         stroke-miterlimit="10"
         d="M 90.609375,37.062281 V 25.10525"
         id="id-806880a5-32e6-4c18-b821-d2def10362a3" />
      <g
         fill="#000000"
         fill-opacity="1"
         id="id-8ec78529-2e8f-4460-90c0-796df68ef2f9"
         transform="translate(-148.711,-124.801)">
        <g
           transform="translate(245.499,158.276)"
           id="g201">
          <path
             d="m 3.046875,-2.171875 1.140625,0.84375 c 0.234375,0.1875 0.25,0.1875 0.375,0.1875 0.25,0 0.421875,-0.25 0.421875,-0.46875 0,-0.125 -0.0625,-0.265625 -0.203125,-0.328125 C 4.703125,-2 4.578125,-2.015625 3.296875,-2.5 4.578125,-2.96875 4.703125,-2.984375 4.78125,-3.046875 4.921875,-3.09375 4.984375,-3.234375 4.984375,-3.375 c 0,-0.21875 -0.171875,-0.46875 -0.421875,-0.46875 -0.109375,0 -0.140625,0 -0.359375,0.171875 L 3.046875,-2.8125 c 0.046875,-0.265625 0.25,-1.421875 0.25,-1.515625 0,-0.25 -0.25,-0.375 -0.4375,-0.375 -0.171875,0 -0.421875,0.125 -0.421875,0.375 0,0.09375 0.203125,1.3125 0.234375,1.515625 L 1.53125,-3.65625 c -0.21875,-0.1875 -0.25,-0.1875 -0.359375,-0.1875 -0.25,0 -0.4375,0.25 -0.4375,0.46875 0,0.125 0.0625,0.265625 0.203125,0.328125 0.078125,0.0625 0.203125,0.078125 1.5,0.546875 -1.296875,0.484375 -1.421875,0.5 -1.5,0.5625 -0.140625,0.046875 -0.203125,0.1875 -0.203125,0.328125 0,0.21875 0.1875,0.46875 0.4375,0.46875 0.109375,0 0.125,0 0.34375,-0.171875 l 1.15625,-0.859375 C 2.625,-1.890625 2.4375,-0.75 2.4375,-0.65625 c 0,0.25 0.25,0.375 0.421875,0.375 0.1875,0 0.4375,-0.125 0.4375,-0.375 0,-0.09375 -0.21875,-1.34375 -0.25,-1.515625 z m 0,0"
             id="id-79bf8614-cbc4-44bb-a9f1-bfb9de7c3eb6" />
        </g>
      </g>
      <path
         fill="none"
         stroke-width="0.398"
         stroke-linecap="butt"
         stroke-linejoin="miter"
         stroke="#000000"
         stroke-opacity="1"
         stroke-miterlimit="10"
         d="M 108.69141,37.062281 V 25.10525"
         id="id-31e15d0e-a8f7-44f0-8fc1-138e695c8b7f" />
      <path
         fill="none"
         stroke-width="0.398"
         stroke-linecap="butt"
         stroke-linejoin="miter"
         stroke="#000000"
         stroke-opacity="1"
         stroke-miterlimit="10"
         d="M 126.77734,37.062281 V 25.10525"
         id="id-38847cb4-4851-4b0b-ac8a-b1727a64d123" />
      <path
         fill="none"
         stroke-width="0.398"
         stroke-linecap="butt"
         stroke-linejoin="miter"
         stroke="#000000"
         stroke-opacity="1"
         stroke-miterlimit="10"
         d="M 0,37.2615 H 126.97656"
         id="id-35efe8bc-a939-4cc2-946d-0d852504491c" />
      <path
         fill="none"
         stroke-width="0.398"
         stroke-linecap="butt"
         stroke-linejoin="miter"
         stroke="#000000"
         stroke-opacity="1"
         stroke-miterlimit="10"
         d="M 0.19921875,49.41775 V 37.460719"
         id="id-911b920a-077e-4ab1-8292-afc66a400166" />
      <g
         fill="#000000"
         fill-opacity="1"
         id="id-63408bfa-cf2c-4ef4-8bae-848bcd1c30b8"
         transform="translate(-148.711,-124.801)">
        <g
           transform="translate(155.088,170.63)"
           id="g209">
          <path
             d="m 3.046875,-2.171875 1.140625,0.84375 c 0.234375,0.1875 0.25,0.1875 0.375,0.1875 0.25,0 0.421875,-0.25 0.421875,-0.46875 0,-0.125 -0.0625,-0.265625 -0.203125,-0.328125 C 4.703125,-2 4.578125,-2.015625 3.296875,-2.5 4.578125,-2.96875 4.703125,-2.984375 4.78125,-3.046875 4.921875,-3.09375 4.984375,-3.234375 4.984375,-3.375 c 0,-0.21875 -0.171875,-0.46875 -0.421875,-0.46875 -0.109375,0 -0.140625,0 -0.359375,0.171875 L 3.046875,-2.8125 c 0.046875,-0.265625 0.25,-1.421875 0.25,-1.515625 0,-0.25 -0.25,-0.375 -0.4375,-0.375 -0.171875,0 -0.421875,0.125 -0.421875,0.375 0,0.09375 0.203125,1.3125 0.234375,1.515625 L 1.53125,-3.65625 c -0.21875,-0.1875 -0.25,-0.1875 -0.359375,-0.1875 -0.25,0 -0.4375,0.25 -0.4375,0.46875 0,0.125 0.0625,0.265625 0.203125,0.328125 0.078125,0.0625 0.203125,0.078125 1.5,0.546875 -1.296875,0.484375 -1.421875,0.5 -1.5,0.5625 -0.140625,0.046875 -0.203125,0.1875 -0.203125,0.328125 0,0.21875 0.1875,0.46875 0.4375,0.46875 0.109375,0 0.125,0 0.34375,-0.171875 l 1.15625,-0.859375 C 2.625,-1.890625 2.4375,-0.75 2.4375,-0.65625 c 0,0.25 0.25,0.375 0.421875,0.375 0.1875,0 0.4375,-0.125 0.4375,-0.375 0,-0.09375 -0.21875,-1.34375 -0.25,-1.515625 z m 0,0"
             id="id-d4083117-142c-4336-aaf9-035fb57bdc6c" />
        </g>
      </g>
      <path
         fill="none"
         stroke-width="0.398"
         stroke-linecap="butt"
         stroke-linejoin="miter"
         stroke="#000000"
         stroke-opacity="1"
         stroke-miterlimit="10"
         d="M 18.28125,49.41775 V 37.460719"
         id="id-8bf419eb-7b88-4dcf-aa4c-b32b31f5e88e" />
      <g
         fill="#000000"
         fill-opacity="1"
         id="id-517b1b0a-b366-4b64-93fc-df8aa26e4798"
         transform="translate(-148.711,-124.801)">
        <g
           transform="translate(173.171,170.63)"
           id="g214">
          <path
             d="m 3.046875,-2.171875 1.140625,0.84375 c 0.234375,0.1875 0.25,0.1875 0.375,0.1875 0.25,0 0.421875,-0.25 0.421875,-0.46875 0,-0.125 -0.0625,-0.265625 -0.203125,-0.328125 C 4.703125,-2 4.578125,-2.015625 3.296875,-2.5 4.578125,-2.96875 4.703125,-2.984375 4.78125,-3.046875 4.921875,-3.09375 4.984375,-3.234375 4.984375,-3.375 c 0,-0.21875 -0.171875,-0.46875 -0.421875,-0.46875 -0.109375,0 -0.140625,0 -0.359375,0.171875 L 3.046875,-2.8125 c 0.046875,-0.265625 0.25,-1.421875 0.25,-1.515625 0,-0.25 -0.25,-0.375 -0.4375,-0.375 -0.171875,0 -0.421875,0.125 -0.421875,0.375 0,0.09375 0.203125,1.3125 0.234375,1.515625 L 1.53125,-3.65625 c -0.21875,-0.1875 -0.25,-0.1875 -0.359375,-0.1875 -0.25,0 -0.4375,0.25 -0.4375,0.46875 0,0.125 0.0625,0.265625 0.203125,0.328125 0.078125,0.0625 0.203125,0.078125 1.5,0.546875 -1.296875,0.484375 -1.421875,0.5 -1.5,0.5625 -0.140625,0.046875 -0.203125,0.1875 -0.203125,0.328125 0,0.21875 0.1875,0.46875 0.4375,0.46875 0.109375,0 0.125,0 0.34375,-0.171875 l 1.15625,-0.859375 C 2.625,-1.890625 2.4375,-0.75 2.4375,-0.65625 c 0,0.25 0.25,0.375 0.421875,0.375 0.1875,0 0.4375,-0.125 0.4375,-0.375 0,-0.09375 -0.21875,-1.34375 -0.25,-1.515625 z m 0,0"
             id="id-af3eb1ad-32c6-4906-8a8c-ef5cdfead501" />
        </g>
      </g>
      <path
         fill="none"
         stroke-width="0.398"
         stroke-linecap="butt"
         stroke-linejoin="miter"
         stroke="#000000"
         stroke-opacity="1"
         stroke-miterlimit="10"
         d="M 36.363281,49.41775 V 37.460719"
         id="id-1721135c-2b0c-4157-aa30-5d350245b76a" />
      <g
         fill="#000000"
         fill-opacity="1"
         id="id-01f5467d-9d6f-490e-b599-97156ca26e82"
         transform="translate(-148.711,-124.801)">
        <g
           transform="translate(191.253,170.63)"
           id="g219">
          <path
             d="m 3.046875,-2.171875 1.140625,0.84375 c 0.234375,0.1875 0.25,0.1875 0.375,0.1875 0.25,0 0.421875,-0.25 0.421875,-0.46875 0,-0.125 -0.0625,-0.265625 -0.203125,-0.328125 C 4.703125,-2 4.578125,-2.015625 3.296875,-2.5 4.578125,-2.96875 4.703125,-2.984375 4.78125,-3.046875 4.921875,-3.09375 4.984375,-3.234375 4.984375,-3.375 c 0,-0.21875 -0.171875,-0.46875 -0.421875,-0.46875 -0.109375,0 -0.140625,0 -0.359375,0.171875 L 3.046875,-2.8125 c 0.046875,-0.265625 0.25,-1.421875 0.25,-1.515625 0,-0.25 -0.25,-0.375 -0.4375,-0.375 -0.171875,0 -0.421875,0.125 -0.421875,0.375 0,0.09375 0.203125,1.3125 0.234375,1.515625 L 1.53125,-3.65625 c -0.21875,-0.1875 -0.25,-0.1875 -0.359375,-0.1875 -0.25,0 -0.4375,0.25 -0.4375,0.46875 0,0.125 0.0625,0.265625 0.203125,0.328125 0.078125,0.0625 0.203125,0.078125 1.5,0.546875 -1.296875,0.484375 -1.421875,0.5 -1.5,0.5625 -0.140625,0.046875 -0.203125,0.1875 -0.203125,0.328125 0,0.21875 0.1875,0.46875 0.4375,0.46875 0.109375,0 0.125,0 0.34375,-0.171875 l 1.15625,-0.859375 C 2.625,-1.890625 2.4375,-0.75 2.4375,-0.65625 c 0,0.25 0.25,0.375 0.421875,0.375 0.1875,0 0.4375,-0.125 0.4375,-0.375 0,-0.09375 -0.21875,-1.34375 -0.25,-1.515625 z m 0,0"
             id="id-f8e5613f-6f81-44da-a417-5e0c8b4b3a87" />
        </g>
      </g>
      <path
         fill="none"
         stroke-width="0.398"
         stroke-linecap="butt"
         stroke-linejoin="miter"
         stroke="#000000"
         stroke-opacity="1"
         stroke-miterlimit="10"
         d="M 54.445312,49.41775 V 37.460719"
         id="id-9363d269-4e9b-4471-b227-d632421b3b1a" />
      <g
         fill="#000000"
         fill-opacity="1"
         id="id-f68e60cc-cf92-4e1f-99fa-13bb9b1feeea"
         transform="translate(-148.711,-124.801)">
        <g
           transform="translate(209.335,170.63)"
           id="g224">
          <path
             d="m 3.046875,-2.171875 1.140625,0.84375 c 0.234375,0.1875 0.25,0.1875 0.375,0.1875 0.25,0 0.421875,-0.25 0.421875,-0.46875 0,-0.125 -0.0625,-0.265625 -0.203125,-0.328125 C 4.703125,-2 4.578125,-2.015625 3.296875,-2.5 4.578125,-2.96875 4.703125,-2.984375 4.78125,-3.046875 4.921875,-3.09375 4.984375,-3.234375 4.984375,-3.375 c 0,-0.21875 -0.171875,-0.46875 -0.421875,-0.46875 -0.109375,0 -0.140625,0 -0.359375,0.171875 L 3.046875,-2.8125 c 0.046875,-0.265625 0.25,-1.421875 0.25,-1.515625 0,-0.25 -0.25,-0.375 -0.4375,-0.375 -0.171875,0 -0.421875,0.125 -0.421875,0.375 0,0.09375 0.203125,1.3125 0.234375,1.515625 L 1.53125,-3.65625 c -0.21875,-0.1875 -0.25,-0.1875 -0.359375,-0.1875 -0.25,0 -0.4375,0.25 -0.4375,0.46875 0,0.125 0.0625,0.265625 0.203125,0.328125 0.078125,0.0625 0.203125,0.078125 1.5,0.546875 -1.296875,0.484375 -1.421875,0.5 -1.5,0.5625 -0.140625,0.046875 -0.203125,0.1875 -0.203125,0.328125 0,0.21875 0.1875,0.46875 0.4375,0.46875 0.109375,0 0.125,0 0.34375,-0.171875 l 1.15625,-0.859375 C 2.625,-1.890625 2.4375,-0.75 2.4375,-0.65625 c 0,0.25 0.25,0.375 0.421875,0.375 0.1875,0 0.4375,-0.125 0.4375,-0.375 0,-0.09375 -0.21875,-1.34375 -0.25,-1.515625 z m 0,0"
             id="id-8bc21000-004c-410f-9bfb-63f49c2c14eb" />
        </g>
      </g>
      <path
         fill="none"
         stroke-width="0.398"
         stroke-linecap="butt"
         stroke-linejoin="miter"
         stroke="#000000"
         stroke-opacity="1"
         stroke-miterlimit="10"
         d="M 72.527344,49.41775 V 37.460719"
         id="id-afc42a24-32d7-44bc-a0c4-b7df67746a82" />
      <g
         fill="#000000"
         fill-opacity="1"
         id="id-3690f1cc-c9e9-4e06-b893-a2f080d86446"
         transform="translate(-148.711,-124.801)">
        <g
           transform="translate(227.417,170.63)"
           id="g229">
          <path
             d="m 3.046875,-2.171875 1.140625,0.84375 c 0.234375,0.1875 0.25,0.1875 0.375,0.1875 0.25,0 0.421875,-0.25 0.421875,-0.46875 0,-0.125 -0.0625,-0.265625 -0.203125,-0.328125 C 4.703125,-2 4.578125,-2.015625 3.296875,-2.5 4.578125,-2.96875 4.703125,-2.984375 4.78125,-3.046875 4.921875,-3.09375 4.984375,-3.234375 4.984375,-3.375 c 0,-0.21875 -0.171875,-0.46875 -0.421875,-0.46875 -0.109375,0 -0.140625,0 -0.359375,0.171875 L 3.046875,-2.8125 c 0.046875,-0.265625 0.25,-1.421875 0.25,-1.515625 0,-0.25 -0.25,-0.375 -0.4375,-0.375 -0.171875,0 -0.421875,0.125 -0.421875,0.375 0,0.09375 0.203125,1.3125 0.234375,1.515625 L 1.53125,-3.65625 c -0.21875,-0.1875 -0.25,-0.1875 -0.359375,-0.1875 -0.25,0 -0.4375,0.25 -0.4375,0.46875 0,0.125 0.0625,0.265625 0.203125,0.328125 0.078125,0.0625 0.203125,0.078125 1.5,0.546875 -1.296875,0.484375 -1.421875,0.5 -1.5,0.5625 -0.140625,0.046875 -0.203125,0.1875 -0.203125,0.328125 0,0.21875 0.1875,0.46875 0.4375,0.46875 0.109375,0 0.125,0 0.34375,-0.171875 l 1.15625,-0.859375 C 2.625,-1.890625 2.4375,-0.75 2.4375,-0.65625 c 0,0.25 0.25,0.375 0.421875,0.375 0.1875,0 0.4375,-0.125 0.4375,-0.375 0,-0.09375 -0.21875,-1.34375 -0.25,-1.515625 z m 0,0"
             id="id-eec8267d-bae4-4d92-b258-b778001f2f5b" />
        </g>
      </g>
      <path
         fill="none"
         stroke-width="0.398"
         stroke-linecap="butt"
         stroke-linejoin="miter"
         stroke="#000000"
         stroke-opacity="1"
         stroke-miterlimit="10"
         d="M 90.609375,49.41775 V 37.460719"
         id="id-dc51d79b-baf3-4b6c-b64f-0a84a30e1392" />
      <g
         fill="#000000"
         fill-opacity="1"
         id="id-de61d884-0c68-4be5-a1fd-05adeec7da75"
         transform="translate(-148.711,-124.801)">
        <g
           transform="translate(245.499,170.63)"
           id="g234">
          <path
             d="m 3.046875,-2.171875 1.140625,0.84375 c 0.234375,0.1875 0.25,0.1875 0.375,0.1875 0.25,0 0.421875,-0.25 0.421875,-0.46875 0,-0.125 -0.0625,-0.265625 -0.203125,-0.328125 C 4.703125,-2 4.578125,-2.015625 3.296875,-2.5 4.578125,-2.96875 4.703125,-2.984375 4.78125,-3.046875 4.921875,-3.09375 4.984375,-3.234375 4.984375,-3.375 c 0,-0.21875 -0.171875,-0.46875 -0.421875,-0.46875 -0.109375,0 -0.140625,0 -0.359375,0.171875 L 3.046875,-2.8125 c 0.046875,-0.265625 0.25,-1.421875 0.25,-1.515625 0,-0.25 -0.25,-0.375 -0.4375,-0.375 -0.171875,0 -0.421875,0.125 -0.421875,0.375 0,0.09375 0.203125,1.3125 0.234375,1.515625 L 1.53125,-3.65625 c -0.21875,-0.1875 -0.25,-0.1875 -0.359375,-0.1875 -0.25,0 -0.4375,0.25 -0.4375,0.46875 0,0.125 0.0625,0.265625 0.203125,0.328125 0.078125,0.0625 0.203125,0.078125 1.5,0.546875 -1.296875,0.484375 -1.421875,0.5 -1.5,0.5625 -0.140625,0.046875 -0.203125,0.1875 -0.203125,0.328125 0,0.21875 0.1875,0.46875 0.4375,0.46875 0.109375,0 0.125,0 0.34375,-0.171875 l 1.15625,-0.859375 C 2.625,-1.890625 2.4375,-0.75 2.4375,-0.65625 c 0,0.25 0.25,0.375 0.421875,0.375 0.1875,0 0.4375,-0.125 0.4375,-0.375 0,-0.09375 -0.21875,-1.34375 -0.25,-1.515625 z m 0,0"
             id="id-f2566c44-6479-472e-87d9-44576f42447e" />
        </g>
      </g>
      <path
         fill="none"
         stroke-width="0.398"
         stroke-linecap="butt"
         stroke-linejoin="miter"
         stroke="#000000"
         stroke-opacity="1"
         stroke-miterlimit="10"
         d="M 108.69141,49.41775 V 37.460719"
         id="id-c212d357-83b2-4ef2-80f9-c6213af23e3a" />
      <g
         fill="#000000"
         fill-opacity="1"
         id="id-f984c8d0-859a-4d2f-87bf-1fe6c64a584f"
         transform="translate(-148.711,-124.801)">
        <g
           transform="translate(263.581,170.63)"
           id="g239">
          <path
             d="m 3.046875,-2.171875 1.140625,0.84375 c 0.234375,0.1875 0.25,0.1875 0.375,0.1875 0.25,0 0.421875,-0.25 0.421875,-0.46875 0,-0.125 -0.0625,-0.265625 -0.203125,-0.328125 C 4.703125,-2 4.578125,-2.015625 3.296875,-2.5 4.578125,-2.96875 4.703125,-2.984375 4.78125,-3.046875 4.921875,-3.09375 4.984375,-3.234375 4.984375,-3.375 c 0,-0.21875 -0.171875,-0.46875 -0.421875,-0.46875 -0.109375,0 -0.140625,0 -0.359375,0.171875 L 3.046875,-2.8125 c 0.046875,-0.265625 0.25,-1.421875 0.25,-1.515625 0,-0.25 -0.25,-0.375 -0.4375,-0.375 -0.171875,0 -0.421875,0.125 -0.421875,0.375 0,0.09375 0.203125,1.3125 0.234375,1.515625 L 1.53125,-3.65625 c -0.21875,-0.1875 -0.25,-0.1875 -0.359375,-0.1875 -0.25,0 -0.4375,0.25 -0.4375,0.46875 0,0.125 0.0625,0.265625 0.203125,0.328125 0.078125,0.0625 0.203125,0.078125 1.5,0.546875 -1.296875,0.484375 -1.421875,0.5 -1.5,0.5625 -0.140625,0.046875 -0.203125,0.1875 -0.203125,0.328125 0,0.21875 0.1875,0.46875 0.4375,0.46875 0.109375,0 0.125,0 0.34375,-0.171875 l 1.15625,-0.859375 C 2.625,-1.890625 2.4375,-0.75 2.4375,-0.65625 c 0,0.25 0.25,0.375 0.421875,0.375 0.1875,0 0.4375,-0.125 0.4375,-0.375 0,-0.09375 -0.21875,-1.34375 -0.25,-1.515625 z m 0,0"
             id="id-a6e8399a-4005-4711-a14d-7cba2e870f43" />
        </g>
      </g>
      <path
         fill="none"
         stroke-width="0.398"
         stroke-linecap="butt"
         stroke-linejoin="miter"
         stroke="#000000"
         stroke-opacity="1"
         stroke-miterlimit="10"
         d="M 126.77734,49.41775 V 37.460719"
         id="id-d7e89579-0a37-415b-a73a-2a69d8a929fd" />
      <path
         fill="none"
         stroke-width="0.398"
         stroke-linecap="butt"
         stroke-linejoin="miter"
         stroke="#000000"
         stroke-opacity="1"
         stroke-miterlimit="10"
         d="M 0,49.613063 H 126.97656"
         id="id-a2c45260-c8b2-400e-b257-eda28a7912f0" />
    </g>
    <path
       style="fill:#ffd5d5;stroke:none;stroke-width:0.0579043;stroke-linecap:square;stroke-linejoin:round"
       d="m 57.527303,134.71606 c 0,1.48098 0,2.96197 0,4.44295 4.381667,0 8.763337,0 13.145007,0 0,-2.96197 0,-5.92393 0,-8.8859 -4.38167,0 -8.76334,0 -13.145007,0 0,1.48098 0,2.96197 0,4.44295 z"
       id="path1209" />
    <path
       style="fill:#ffd5d5;stroke:none;stroke-width:0.19575;stroke-linecap:square;stroke-linejoin:round"
       d="m 70.983739,134.70445 c 0,1.47608 0,2.95216 0,4.42823 4.367805,0 8.735613,0 13.103418,0 0,-2.95215 0,-5.9043 0,-8.85646 -4.367805,0 -8.735613,0 -13.103418,0 0,1.47608 0,2.95216 0,4.42823 z"
       id="path1211" />
    <path
       style="fill:#ffd5d5;stroke:none;stroke-width:0.19575;stroke-linecap:square;stroke-linejoin:round"
       d="m 84.449704,134.70445 c 0,1.47608 0,2.95216 0,4.42823 4.367805,0 8.735612,0 13.103417,0 0,-2.95215 0,-5.9043 0,-8.85646 -4.367805,0 -8.735612,0 -13.103417,0 0,1.47608 0,2.95216 0,4.42823 z"
       id="path1213" />
    <path
       style="fill:#ffd5d5;stroke:none;stroke-width:0.19575;stroke-linecap:square;stroke-linejoin:round"
       d="m 57.569568,143.92346 c 0,1.47608 0,2.95215 0,4.42823 4.367805,0 8.735613,0 13.103418,0 0,-2.95215 0,-5.90431 0,-8.85646 -4.367805,0 -8.735613,0 -13.103418,0 0,1.47607 0,2.95215 0,4.42823 z"
       id="path1223" />
    <path
       style="fill:#ffd5d5;stroke:none;stroke-width:0.19575;stroke-linecap:square;stroke-linejoin:round"
       d="m 70.983739,143.92346 c 0,1.47608 0,2.95215 0,4.42823 4.367805,0 8.735613,0 13.103418,0 0,-2.95215 0,-5.90431 0,-8.85646 -4.367805,0 -8.735613,0 -13.103418,0 0,1.47607 0,2.95215 0,4.42823 z"
       id="path1225" />
    <path
       style="fill:#ffd5d5;stroke:none;stroke-width:0.19575;stroke-linecap:square;stroke-linejoin:round"
       d="m 57.569568,153.09067 c 0,1.47608 0,2.95216 0,4.42823 4.367805,0 8.735613,0 13.103418,0 0,-2.95215 0,-5.9043 0,-8.85646 -4.367805,0 -8.735613,0 -13.103418,0 0,1.47608 0,2.95216 0,4.42823 z"
       id="path1227" />
    <text
       xml:space="preserve"
       style="font-style:normal;font-variant:normal;font-weight:normal;font-stretch:normal;font-size:6.35px;line-height:1.25;font-family:'CMU Serif';-inkscape-font-specification:'CMU Serif, Normal';font-variant-ligatures:normal;font-variant-caps:normal;font-variant-numeric:normal;font-variant-east-asian:normal;fill:#000000;fill-opacity:1;stroke:none;stroke-width:0.264583"
       x="62.382004"
       y="127.13276"
       id="text2112"><tspan
         sodipodi:role="line"
         id="tspan2110"
         style="font-style:normal;font-variant:normal;font-weight:normal;font-stretch:normal;font-size:6.35px;font-family:'CMU Serif';-inkscape-font-specification:'CMU Serif, Normal';font-variant-ligatures:normal;font-variant-caps:normal;font-variant-numeric:normal;font-variant-east-asian:normal;stroke-width:0.264583"
         x="62.382004"
         y="127.13276">1</tspan></text>
    <text
       xml:space="preserve"
       style="font-style:normal;font-variant:normal;font-weight:normal;font-stretch:normal;font-size:6.35px;line-height:1.25;font-family:'CMU Serif';-inkscape-font-specification:'CMU Serif, Normal';font-variant-ligatures:normal;font-variant-caps:normal;font-variant-numeric:normal;font-variant-east-asian:normal;fill:#000000;fill-opacity:1;stroke:none;stroke-width:0.264583"
       x="75.812714"
       y="127.13276"
       id="text2120"><tspan
         sodipodi:role="line"
         id="tspan2118"
         style="font-style:normal;font-variant:normal;font-weight:normal;font-stretch:normal;font-size:6.35px;font-family:'CMU Serif';-inkscape-font-specification:'CMU Serif, Normal';font-variant-ligatures:normal;font-variant-caps:normal;font-variant-numeric:normal;font-variant-east-asian:normal;stroke-width:0.264583"
         x="75.812714"
         y="127.13276">2</tspan></text>
    <text
       xml:space="preserve"
       style="font-style:normal;font-variant:normal;font-weight:normal;font-stretch:normal;font-size:6.35px;line-height:1.25;font-family:'CMU Serif';-inkscape-font-specification:'CMU Serif, Normal';font-variant-ligatures:normal;font-variant-caps:normal;font-variant-numeric:normal;font-variant-east-asian:normal;fill:#000000;fill-opacity:1;stroke:none;stroke-width:0.264583"
       x="89.215523"
       y="126.99323"
       id="text2124"><tspan
         sodipodi:role="line"
         id="tspan2122"
         style="font-style:normal;font-variant:normal;font-weight:normal;font-stretch:normal;font-size:6.35px;font-family:'CMU Serif';-inkscape-font-specification:'CMU Serif, Normal';font-variant-ligatures:normal;font-variant-caps:normal;font-variant-numeric:normal;font-variant-east-asian:normal;stroke-width:0.264583"
         x="89.215523"
         y="126.99323">3</tspan></text>
    <text
       xml:space="preserve"
       style="font-style:normal;font-variant:normal;font-weight:normal;font-stretch:normal;font-size:6.35px;line-height:1.25;font-family:'CMU Serif';-inkscape-font-specification:'CMU Serif, Normal';font-variant-ligatures:normal;font-variant-caps:normal;font-variant-numeric:normal;font-variant-east-asian:normal;fill:#000000;fill-opacity:1;stroke:none;stroke-width:0.264583"
       x="102.61833"
       y="127.13276"
       id="text2132"><tspan
         sodipodi:role="line"
         id="tspan2130"
         style="font-style:normal;font-variant:normal;font-weight:normal;font-stretch:normal;font-size:6.35px;font-family:'CMU Serif';-inkscape-font-specification:'CMU Serif, Normal';font-variant-ligatures:normal;font-variant-caps:normal;font-variant-numeric:normal;font-variant-east-asian:normal;stroke-width:0.264583"
         x="102.61833"
         y="127.13276">4</tspan></text>
    <text
       xml:space="preserve"
       style="font-style:normal;font-variant:normal;font-weight:normal;font-stretch:normal;font-size:6.35px;line-height:1.25;font-family:'CMU Serif';-inkscape-font-specification:'CMU Serif, Normal';font-variant-ligatures:normal;font-variant-caps:normal;font-variant-numeric:normal;font-variant-east-asian:normal;fill:#000000;fill-opacity:1;stroke:none;stroke-width:0.264583"
       x="116.02113"
       y="126.99323"
       id="text2136"><tspan
         sodipodi:role="line"
         id="tspan2134"
         style="font-style:normal;font-variant:normal;font-weight:normal;font-stretch:normal;font-size:6.35px;font-family:'CMU Serif';-inkscape-font-specification:'CMU Serif, Normal';font-variant-ligatures:normal;font-variant-caps:normal;font-variant-numeric:normal;font-variant-east-asian:normal;stroke-width:0.264583"
         x="116.02113"
         y="126.99323">5</tspan></text>
    <text
       xml:space="preserve"
       style="font-style:normal;font-variant:normal;font-weight:normal;font-stretch:normal;font-size:6.35px;line-height:1.25;font-family:'CMU Serif';-inkscape-font-specification:'CMU Serif, Normal';font-variant-ligatures:normal;font-variant-caps:normal;font-variant-numeric:normal;font-variant-east-asian:normal;fill:#000000;fill-opacity:1;stroke:none;stroke-width:0.264583"
       x="129.66208"
       y="126.99323"
       id="text2140"><tspan
         sodipodi:role="line"
         id="tspan2138"
         style="font-style:normal;font-variant:normal;font-weight:normal;font-stretch:normal;font-size:6.35px;font-family:'CMU Serif';-inkscape-font-specification:'CMU Serif, Normal';font-variant-ligatures:normal;font-variant-caps:normal;font-variant-numeric:normal;font-variant-east-asian:normal;stroke-width:0.264583"
         x="129.66208"
         y="126.99323" /></text>
    <text
       xml:space="preserve"
       style="font-style:normal;font-variant:normal;font-weight:normal;font-stretch:normal;font-size:6.35px;line-height:1.25;font-family:'CMU Serif';-inkscape-font-specification:'CMU Serif, Normal';font-variant-ligatures:normal;font-variant-caps:normal;font-variant-numeric:normal;font-variant-east-asian:normal;fill:#000000;fill-opacity:1;stroke:none;stroke-width:0.264583"
       x="129.42393"
       y="126.99323"
       id="text2144"><tspan
         sodipodi:role="line"
         id="tspan2142"
         style="font-style:normal;font-variant:normal;font-weight:normal;font-stretch:normal;font-size:6.35px;font-family:'CMU Serif';-inkscape-font-specification:'CMU Serif, Normal';font-variant-ligatures:normal;font-variant-caps:normal;font-variant-numeric:normal;font-variant-east-asian:normal;stroke-width:0.264583"
         x="129.42393"
         y="126.99323">6</tspan></text>
    <text
       xml:space="preserve"
       style="font-style:normal;font-variant:normal;font-weight:normal;font-stretch:normal;font-size:6.35px;line-height:1.25;font-family:'CMU Serif';-inkscape-font-specification:'CMU Serif, Normal';font-variant-ligatures:normal;font-variant-caps:normal;font-variant-numeric:normal;font-variant-east-asian:normal;fill:#000000;fill-opacity:1;stroke:none;stroke-width:0.264583"
       x="50.356113"
       y="136.06215"
       id="text2299"><tspan
         sodipodi:role="line"
         id="tspan2297"
         style="font-style:normal;font-variant:normal;font-weight:normal;font-stretch:normal;font-size:6.35px;font-family:'CMU Serif';-inkscape-font-specification:'CMU Serif, Normal';font-variant-ligatures:normal;font-variant-caps:normal;font-variant-numeric:normal;font-variant-east-asian:normal;stroke-width:0.264583"
         x="50.356113"
         y="136.06215">1</tspan></text>
    <text
       xml:space="preserve"
       style="font-style:normal;font-variant:normal;font-weight:normal;font-stretch:normal;font-size:6.35px;line-height:1.25;font-family:'CMU Serif';-inkscape-font-specification:'CMU Serif, Normal';font-variant-ligatures:normal;font-variant-caps:normal;font-variant-numeric:normal;font-variant-east-asian:normal;fill:#000000;fill-opacity:1;stroke:none;stroke-width:0.264583"
       x="50.384018"
       y="145.0755"
       id="text2303"><tspan
         sodipodi:role="line"
         id="tspan2301"
         style="font-style:normal;font-variant:normal;font-weight:normal;font-stretch:normal;font-size:6.35px;font-family:'CMU Serif';-inkscape-font-specification:'CMU Serif, Normal';font-variant-ligatures:normal;font-variant-caps:normal;font-variant-numeric:normal;font-variant-east-asian:normal;stroke-width:0.264583"
         x="50.384018"
         y="145.0755">2</tspan></text>
    <text
       xml:space="preserve"
       style="font-style:normal;font-variant:normal;font-weight:normal;font-stretch:normal;font-size:6.35px;line-height:1.25;font-family:'CMU Serif';-inkscape-font-specification:'CMU Serif, Normal';font-variant-ligatures:normal;font-variant-caps:normal;font-variant-numeric:normal;font-variant-east-asian:normal;fill:#000000;fill-opacity:1;stroke:none;stroke-width:0.264583"
       x="50.384018"
       y="154.0191"
       id="text2307"><tspan
         sodipodi:role="line"
         id="tspan2305"
         style="font-style:normal;font-variant:normal;font-weight:normal;font-stretch:normal;font-size:6.35px;font-family:'CMU Serif';-inkscape-font-specification:'CMU Serif, Normal';font-variant-ligatures:normal;font-variant-caps:normal;font-variant-numeric:normal;font-variant-east-asian:normal;stroke-width:0.264583"
         x="50.384018"
         y="154.0191">3</tspan></text>
    <g
       transform="matrix(0.352778,0,0,0.352778,130.14134,134.70882)"
       ns16:version="1.8.2"
       ns16:texconverter="pdflatex"
       ns16:pdfconverter="inkscape"
       ns16:text="$...$"
       ns16:preamble="/Users/hasanabbas/Library/Application Support/org.inkscape.Inkscape/config/inkscape/extensions/textext/default_packages.tex"
       ns16:scale="1.0"
       ns16:alignment="middle center"
       ns16:stroke-to-path="0"
       ns16:inkscapeversion="1.2.1"
       ns16:jacobian_sqrt="0.352778"
       id="g1238">
      <defs
         id="id-fd259bf0-8988-48e2-a2c5-0efda160ac67">
        <g
           id="id-ab887002-5523-429f-bf11-9cfa0380494d">
          <g
             id="id-8f2b7b4e-254f-4166-a592-b65d31032e20" />
          <g
             id="id-3a4afcdd-9477-44d4-a183-f1454aa2c35c">
            <path
               d="m 1.90625,-0.53125 c 0,-0.28125 -0.234375,-0.53125 -0.515625,-0.53125 -0.296875,0 -0.53125,0.25 -0.53125,0.53125 C 0.859375,-0.234375 1.09375,0 1.390625,0 1.671875,0 1.90625,-0.234375 1.90625,-0.53125 Z m 0,0"
               id="id-71ee7325-d8e4-4ea2-8a1f-ba23d192d400" />
          </g>
        </g>
      </defs>
      <g
         fill="#000000"
         fill-opacity="1"
         id="id-ead517b3-25aa-4f63-9eef-0ce0592febf7"
         transform="translate(-149.571,-133.702)">
        <g
           transform="translate(148.712,134.765)"
           id="g1585">
          <path
             d="m 1.90625,-0.53125 c 0,-0.28125 -0.234375,-0.53125 -0.515625,-0.53125 -0.296875,0 -0.53125,0.25 -0.53125,0.53125 C 0.859375,-0.234375 1.09375,0 1.390625,0 1.671875,0 1.90625,-0.234375 1.90625,-0.53125 Z m 0,0"
             id="id-6f06f68a-a7c5-49cc-8a50-7bbcbc9c4e23" />
        </g>
        <g
           transform="translate(151.48,134.765)"
           id="g1588">
          <path
             d="m 1.90625,-0.53125 c 0,-0.28125 -0.234375,-0.53125 -0.515625,-0.53125 -0.296875,0 -0.53125,0.25 -0.53125,0.53125 C 0.859375,-0.234375 1.09375,0 1.390625,0 1.671875,0 1.90625,-0.234375 1.90625,-0.53125 Z m 0,0"
             id="id-6c5cb719-c945-4dd1-9d4f-a8a7b750bed4" />
        </g>
        <g
           transform="translate(154.247,134.765)"
           id="g1591">
          <path
             d="m 1.90625,-0.53125 c 0,-0.28125 -0.234375,-0.53125 -0.515625,-0.53125 -0.296875,0 -0.53125,0.25 -0.53125,0.53125 C 0.859375,-0.234375 1.09375,0 1.390625,0 1.671875,0 1.90625,-0.234375 1.90625,-0.53125 Z m 0,0"
             id="id-8c8c49f4-15ce-41b6-acd5-d6ee16a8d1d8" />
        </g>
      </g>
    </g>
    <g
       transform="matrix(0.352778 0 0 0.352778 61.9605 133.676)"
       ns16:version="1.8.2"
       ns16:texconverter="pdflatex"
       ns16:pdfconverter="inkscape"
       ns16:text="$a_{11}$"
       ns16:preamble="/Users/hasanabbas/Library/Application Support/org.inkscape.Inkscape/config/inkscape/extensions/textext/default_packages.tex"
       ns16:scale="1.0"
       ns16:alignment="middle center"
       ns16:stroke-to-path="0"
       ns16:inkscapeversion="1.2.1"
       ns16:jacobian_sqrt="0.352778"
       id="g574">
      <defs
         id="id-90fac538-6c40-4b2a-b7f9-c60f7b9c3958">
        <g
           id="id-246846a0-cbcc-4b52-9e4f-ba7c71eb068d">
          <g
             id="id-ecee1626-763d-4b09-a2b6-700ffcc03d88" />
          <g
             id="id-9d6467ae-19a3-4fb4-a4f3-750aa4ba29ee">
            <path
               d="M 3.71875,-3.765625 C 3.53125,-4.140625 3.25,-4.40625 2.796875,-4.40625 c -1.15625,0 -2.390625,1.46875 -2.390625,2.921875 0,0.9375 0.546875,1.59375 1.3125,1.59375 0.203125,0 0.703125,-0.046875 1.296875,-0.75 0.078125,0.421875 0.4375,0.75 0.90625,0.75 0.359375,0 0.578125,-0.234375 0.75,-0.546875 0.15625,-0.359375 0.296875,-0.96875 0.296875,-0.984375 0,-0.109375 -0.09375,-0.109375 -0.125,-0.109375 -0.09375,0 -0.109375,0.046875 -0.140625,0.1875 -0.171875,0.640625 -0.34375,1.234375 -0.75,1.234375 -0.28125,0 -0.296875,-0.265625 -0.296875,-0.453125 0,-0.21875 0.015625,-0.3125 0.125,-0.75 C 3.890625,-1.71875 3.90625,-1.828125 4,-2.203125 L 4.359375,-3.59375 c 0.0625,-0.28125 0.0625,-0.296875 0.0625,-0.34375 0,-0.171875 -0.109375,-0.265625 -0.28125,-0.265625 -0.25,0 -0.390625,0.21875 -0.421875,0.4375 z M 3.078125,-1.1875 C 3.015625,-1 3.015625,-0.984375 2.875,-0.8125 2.4375,-0.265625 2.03125,-0.109375 1.75,-0.109375 c -0.5,0 -0.640625,-0.546875 -0.640625,-0.9375 0,-0.5 0.3125,-1.71875 0.546875,-2.1875 0.3125,-0.578125 0.75,-0.953125 1.15625,-0.953125 0.640625,0 0.78125,0.8125 0.78125,0.875 0,0.0625 -0.015625,0.125 -0.03125,0.171875 z m 0,0"
               id="id-608d76df-85b2-4126-9ca7-5e4a2177a0a1" />
          </g>
          <g
             id="id-6ad9d52b-7c48-4f9c-862b-e593c4d930d4" />
          <g
             id="id-f18e3f76-a20d-4a16-9bc9-e3170f1aeb01">
            <path
               d="m 2.328125,-4.4375 c 0,-0.1875 0,-0.1875 -0.203125,-0.1875 -0.453125,0.4375 -1.078125,0.4375 -1.359375,0.4375 v 0.25 c 0.15625,0 0.625,0 1,-0.1875 v 3.546875 c 0,0.234375 0,0.328125 -0.6875,0.328125 H 0.8125 V 0 c 0.125,0 0.984375,-0.03125 1.234375,-0.03125 0.21875,0 1.09375,0.03125 1.25,0.03125 V -0.25 H 3.03125 c -0.703125,0 -0.703125,-0.09375 -0.703125,-0.328125 z m 0,0"
               id="id-e2e019c8-8b3f-4e06-b803-71d3215f7a55" />
          </g>
        </g>
      </defs>
      <g
         fill="#000000"
         fill-opacity="1"
         id="id-14bdd16d-8d8b-4d22-a30d-c883ad238033"
         transform="translate(-149.118, -130.359)">
        <g
           transform="translate(148.712, 134.765)"
           id="g3025">
          <path
             d="M 3.71875,-3.765625 C 3.53125,-4.140625 3.25,-4.40625 2.796875,-4.40625 c -1.15625,0 -2.390625,1.46875 -2.390625,2.921875 0,0.9375 0.546875,1.59375 1.3125,1.59375 0.203125,0 0.703125,-0.046875 1.296875,-0.75 0.078125,0.421875 0.4375,0.75 0.90625,0.75 0.359375,0 0.578125,-0.234375 0.75,-0.546875 0.15625,-0.359375 0.296875,-0.96875 0.296875,-0.984375 0,-0.109375 -0.09375,-0.109375 -0.125,-0.109375 -0.09375,0 -0.109375,0.046875 -0.140625,0.1875 -0.171875,0.640625 -0.34375,1.234375 -0.75,1.234375 -0.28125,0 -0.296875,-0.265625 -0.296875,-0.453125 0,-0.21875 0.015625,-0.3125 0.125,-0.75 C 3.890625,-1.71875 3.90625,-1.828125 4,-2.203125 L 4.359375,-3.59375 c 0.0625,-0.28125 0.0625,-0.296875 0.0625,-0.34375 0,-0.171875 -0.109375,-0.265625 -0.28125,-0.265625 -0.25,0 -0.390625,0.21875 -0.421875,0.4375 z M 3.078125,-1.1875 C 3.015625,-1 3.015625,-0.984375 2.875,-0.8125 2.4375,-0.265625 2.03125,-0.109375 1.75,-0.109375 c -0.5,0 -0.640625,-0.546875 -0.640625,-0.9375 0,-0.5 0.3125,-1.71875 0.546875,-2.1875 0.3125,-0.578125 0.75,-0.953125 1.15625,-0.953125 0.640625,0 0.78125,0.8125 0.78125,0.875 0,0.0625 -0.015625,0.125 -0.03125,0.171875 z m 0,0"
             id="id-5017062a-2f6a-46ca-bdf5-5db1c9da85f0" />
        </g>
      </g>
      <g
         fill="#000000"
         fill-opacity="1"
         id="id-042e9538-51b3-41c6-b651-2f4427e2f9a1"
         transform="translate(-149.118, -130.359)">
        <g
           transform="translate(153.978, 136.259)"
           id="g3029">
          <path
             d="m 2.328125,-4.4375 c 0,-0.1875 0,-0.1875 -0.203125,-0.1875 -0.453125,0.4375 -1.078125,0.4375 -1.359375,0.4375 v 0.25 c 0.15625,0 0.625,0 1,-0.1875 v 3.546875 c 0,0.234375 0,0.328125 -0.6875,0.328125 H 0.8125 V 0 c 0.125,0 0.984375,-0.03125 1.234375,-0.03125 0.21875,0 1.09375,0.03125 1.25,0.03125 V -0.25 H 3.03125 c -0.703125,0 -0.703125,-0.09375 -0.703125,-0.328125 z m 0,0"
             id="id-5c3c0011-2b8b-437f-ba05-3511e892d65e" />
        </g>
        <g
           transform="translate(157.95, 136.259)"
           id="g3032">
          <path
             d="m 2.328125,-4.4375 c 0,-0.1875 0,-0.1875 -0.203125,-0.1875 -0.453125,0.4375 -1.078125,0.4375 -1.359375,0.4375 v 0.25 c 0.15625,0 0.625,0 1,-0.1875 v 3.546875 c 0,0.234375 0,0.328125 -0.6875,0.328125 H 0.8125 V 0 c 0.125,0 0.984375,-0.03125 1.234375,-0.03125 0.21875,0 1.09375,0.03125 1.25,0.03125 V -0.25 H 3.03125 c -0.703125,0 -0.703125,-0.09375 -0.703125,-0.328125 z m 0,0"
             id="id-6f3e87cd-857d-4c7a-972f-b7c1a240f2d1" />
        </g>
      </g>
    </g>
    <g
       transform="matrix(0.352778 0 0 0.352778 61.9606 152.166)"
       ns16:version="1.8.2"
       ns16:texconverter="pdflatex"
       ns16:pdfconverter="inkscape"
       ns16:text="$a_{31}$"
       ns16:preamble="/Users/hasanabbas/Library/Application Support/org.inkscape.Inkscape/config/inkscape/extensions/textext/default_packages.tex"
       ns16:scale="1.0"
       ns16:alignment="middle center"
       ns16:stroke-to-path="0"
       ns16:inkscapeversion="1.2.1"
       ns16:jacobian_sqrt="0.352778"
       id="g1642">
      <defs
         id="id-19af6403-9df4-449c-b201-224ae2bf46a2">
        <g
           id="id-3718a67b-9421-403e-aa89-8e0de91bd246">
          <g
             id="id-5159dfa8-4237-4537-9a46-10e188eb84a3" />
          <g
             id="id-f7d5d209-fd48-4e23-8158-fadb32402a89">
            <path
               d="M 3.71875,-3.765625 C 3.53125,-4.140625 3.25,-4.40625 2.796875,-4.40625 c -1.15625,0 -2.390625,1.46875 -2.390625,2.921875 0,0.9375 0.546875,1.59375 1.3125,1.59375 0.203125,0 0.703125,-0.046875 1.296875,-0.75 0.078125,0.421875 0.4375,0.75 0.90625,0.75 0.359375,0 0.578125,-0.234375 0.75,-0.546875 0.15625,-0.359375 0.296875,-0.96875 0.296875,-0.984375 0,-0.109375 -0.09375,-0.109375 -0.125,-0.109375 -0.09375,0 -0.109375,0.046875 -0.140625,0.1875 -0.171875,0.640625 -0.34375,1.234375 -0.75,1.234375 -0.28125,0 -0.296875,-0.265625 -0.296875,-0.453125 0,-0.21875 0.015625,-0.3125 0.125,-0.75 C 3.890625,-1.71875 3.90625,-1.828125 4,-2.203125 L 4.359375,-3.59375 c 0.0625,-0.28125 0.0625,-0.296875 0.0625,-0.34375 0,-0.171875 -0.109375,-0.265625 -0.28125,-0.265625 -0.25,0 -0.390625,0.21875 -0.421875,0.4375 z M 3.078125,-1.1875 C 3.015625,-1 3.015625,-0.984375 2.875,-0.8125 2.4375,-0.265625 2.03125,-0.109375 1.75,-0.109375 c -0.5,0 -0.640625,-0.546875 -0.640625,-0.9375 0,-0.5 0.3125,-1.71875 0.546875,-2.1875 0.3125,-0.578125 0.75,-0.953125 1.15625,-0.953125 0.640625,0 0.78125,0.8125 0.78125,0.875 0,0.0625 -0.015625,0.125 -0.03125,0.171875 z m 0,0"
               id="id-6a2534b5-3132-49f0-8263-1e7401dea3fd" />
          </g>
          <g
             id="id-4df1a95c-5e96-496d-8933-ce6bdfc6a7d2" />
          <g
             id="id-94be1726-92bf-46f6-9eaf-09a91847abef">
            <path
               d="m 1.90625,-2.328125 c 0.546875,0 0.9375,0.375 0.9375,1.125 0,0.859375 -0.515625,1.125 -0.90625,1.125 -0.28125,0 -0.90625,-0.078125 -1.1875,-0.5 0.328125,0 0.40625,-0.234375 0.40625,-0.390625 0,-0.21875 -0.171875,-0.375 -0.390625,-0.375 -0.1875,0 -0.390625,0.125 -0.390625,0.40625 0,0.65625 0.71875,1.078125 1.5625,1.078125 0.96875,0 1.640625,-0.65625 1.640625,-1.34375 0,-0.546875 -0.4375,-1.09375 -1.203125,-1.25 0.71875,-0.265625 0.984375,-0.78125 0.984375,-1.21875 0,-0.546875 -0.625,-0.953125 -1.40625,-0.953125 -0.765625,0 -1.359375,0.375 -1.359375,0.9375 0,0.234375 0.15625,0.359375 0.359375,0.359375 0.21875,0 0.359375,-0.15625 0.359375,-0.34375 0,-0.203125 -0.140625,-0.359375 -0.359375,-0.375 0.25,-0.296875 0.71875,-0.375 0.984375,-0.375 0.3125,0 0.75,0.15625 0.75,0.75 0,0.296875 -0.09375,0.625 -0.28125,0.828125 -0.21875,0.265625 -0.421875,0.28125 -0.765625,0.3125 -0.171875,0.015625 -0.1875,0.015625 -0.21875,0.015625 -0.015625,0 -0.078125,0.015625 -0.078125,0.09375 0,0.09375 0.0625,0.09375 0.1875,0.09375 z m 0,0"
               id="id-64b8635f-eeb0-4675-ac14-f024674a27de" />
          </g>
          <g
             id="id-cea7dc9a-9cec-49b8-8d44-5b1f36acdccb">
            <path
               d="m 2.328125,-4.4375 c 0,-0.1875 0,-0.1875 -0.203125,-0.1875 -0.453125,0.4375 -1.078125,0.4375 -1.359375,0.4375 v 0.25 c 0.15625,0 0.625,0 1,-0.1875 v 3.546875 c 0,0.234375 0,0.328125 -0.6875,0.328125 H 0.8125 V 0 c 0.125,0 0.984375,-0.03125 1.234375,-0.03125 0.21875,0 1.09375,0.03125 1.25,0.03125 V -0.25 H 3.03125 c -0.703125,0 -0.703125,-0.09375 -0.703125,-0.328125 z m 0,0"
               id="id-df839b8a-98bf-4147-966f-dc4a98d45792" />
          </g>
        </g>
      </defs>
      <g
         fill="#000000"
         fill-opacity="1"
         id="id-cc1979de-9363-499c-8860-e21a067c0159"
         transform="translate(-149.118, -130.359)">
        <g
           transform="translate(148.712, 134.765)"
           id="g3431">
          <path
             d="M 3.71875,-3.765625 C 3.53125,-4.140625 3.25,-4.40625 2.796875,-4.40625 c -1.15625,0 -2.390625,1.46875 -2.390625,2.921875 0,0.9375 0.546875,1.59375 1.3125,1.59375 0.203125,0 0.703125,-0.046875 1.296875,-0.75 0.078125,0.421875 0.4375,0.75 0.90625,0.75 0.359375,0 0.578125,-0.234375 0.75,-0.546875 0.15625,-0.359375 0.296875,-0.96875 0.296875,-0.984375 0,-0.109375 -0.09375,-0.109375 -0.125,-0.109375 -0.09375,0 -0.109375,0.046875 -0.140625,0.1875 -0.171875,0.640625 -0.34375,1.234375 -0.75,1.234375 -0.28125,0 -0.296875,-0.265625 -0.296875,-0.453125 0,-0.21875 0.015625,-0.3125 0.125,-0.75 C 3.890625,-1.71875 3.90625,-1.828125 4,-2.203125 L 4.359375,-3.59375 c 0.0625,-0.28125 0.0625,-0.296875 0.0625,-0.34375 0,-0.171875 -0.109375,-0.265625 -0.28125,-0.265625 -0.25,0 -0.390625,0.21875 -0.421875,0.4375 z M 3.078125,-1.1875 C 3.015625,-1 3.015625,-0.984375 2.875,-0.8125 2.4375,-0.265625 2.03125,-0.109375 1.75,-0.109375 c -0.5,0 -0.640625,-0.546875 -0.640625,-0.9375 0,-0.5 0.3125,-1.71875 0.546875,-2.1875 0.3125,-0.578125 0.75,-0.953125 1.15625,-0.953125 0.640625,0 0.78125,0.8125 0.78125,0.875 0,0.0625 -0.015625,0.125 -0.03125,0.171875 z m 0,0"
             id="id-c769a9bf-3001-490c-a50e-f6e177b651b3" />
        </g>
      </g>
      <g
         fill="#000000"
         fill-opacity="1"
         id="id-85b1a75b-2679-4b92-883b-6ed96bf41c29"
         transform="translate(-149.118, -130.359)">
        <g
           transform="translate(153.978, 136.259)"
           id="g3435">
          <path
             d="m 1.90625,-2.328125 c 0.546875,0 0.9375,0.375 0.9375,1.125 0,0.859375 -0.515625,1.125 -0.90625,1.125 -0.28125,0 -0.90625,-0.078125 -1.1875,-0.5 0.328125,0 0.40625,-0.234375 0.40625,-0.390625 0,-0.21875 -0.171875,-0.375 -0.390625,-0.375 -0.1875,0 -0.390625,0.125 -0.390625,0.40625 0,0.65625 0.71875,1.078125 1.5625,1.078125 0.96875,0 1.640625,-0.65625 1.640625,-1.34375 0,-0.546875 -0.4375,-1.09375 -1.203125,-1.25 0.71875,-0.265625 0.984375,-0.78125 0.984375,-1.21875 0,-0.546875 -0.625,-0.953125 -1.40625,-0.953125 -0.765625,0 -1.359375,0.375 -1.359375,0.9375 0,0.234375 0.15625,0.359375 0.359375,0.359375 0.21875,0 0.359375,-0.15625 0.359375,-0.34375 0,-0.203125 -0.140625,-0.359375 -0.359375,-0.375 0.25,-0.296875 0.71875,-0.375 0.984375,-0.375 0.3125,0 0.75,0.15625 0.75,0.75 0,0.296875 -0.09375,0.625 -0.28125,0.828125 -0.21875,0.265625 -0.421875,0.28125 -0.765625,0.3125 -0.171875,0.015625 -0.1875,0.015625 -0.21875,0.015625 -0.015625,0 -0.078125,0.015625 -0.078125,0.09375 0,0.09375 0.0625,0.09375 0.1875,0.09375 z m 0,0"
             id="id-70dacdec-b3a8-4efe-b5df-26ffd33403e7" />
        </g>
        <g
           transform="translate(157.95, 136.259)"
           id="g3438">
          <path
             d="m 2.328125,-4.4375 c 0,-0.1875 0,-0.1875 -0.203125,-0.1875 -0.453125,0.4375 -1.078125,0.4375 -1.359375,0.4375 v 0.25 c 0.15625,0 0.625,0 1,-0.1875 v 3.546875 c 0,0.234375 0,0.328125 -0.6875,0.328125 H 0.8125 V 0 c 0.125,0 0.984375,-0.03125 1.234375,-0.03125 0.21875,0 1.09375,0.03125 1.25,0.03125 V -0.25 H 3.03125 c -0.703125,0 -0.703125,-0.09375 -0.703125,-0.328125 z m 0,0"
             id="id-69e9f88c-e8c4-4066-8292-25985509ca97" />
        </g>
      </g>
    </g>
    <g
       transform="matrix(0.352778 0 0 0.352778 141.874 133.651)"
       ns16:version="1.8.2"
       ns16:texconverter="pdflatex"
       ns16:pdfconverter="inkscape"
       ns16:text="$a_{17}$"
       ns16:preamble="/Users/hasanabbas/Library/Application Support/org.inkscape.Inkscape/config/inkscape/extensions/textext/default_packages.tex"
       ns16:scale="1.0"
       ns16:alignment="middle center"
       ns16:stroke-to-path="0"
       ns16:inkscapeversion="1.2.1"
       ns16:jacobian_sqrt="0.352778"
       id="g857">
      <defs
         id="id-f5d0d8d6-21a4-4f87-94bc-e728b9b08e89">
        <g
           id="id-ab516888-0c3c-4b0f-9cb5-6a552c3a6099">
          <g
             id="id-6e26fd29-1275-420f-85a8-dce5a1d14476" />
          <g
             id="id-f124f6e7-25f1-43e5-950d-6f5c11919163">
            <path
               d="M 3.71875,-3.765625 C 3.53125,-4.140625 3.25,-4.40625 2.796875,-4.40625 c -1.15625,0 -2.390625,1.46875 -2.390625,2.921875 0,0.9375 0.546875,1.59375 1.3125,1.59375 0.203125,0 0.703125,-0.046875 1.296875,-0.75 0.078125,0.421875 0.4375,0.75 0.90625,0.75 0.359375,0 0.578125,-0.234375 0.75,-0.546875 0.15625,-0.359375 0.296875,-0.96875 0.296875,-0.984375 0,-0.109375 -0.09375,-0.109375 -0.125,-0.109375 -0.09375,0 -0.109375,0.046875 -0.140625,0.1875 -0.171875,0.640625 -0.34375,1.234375 -0.75,1.234375 -0.28125,0 -0.296875,-0.265625 -0.296875,-0.453125 0,-0.21875 0.015625,-0.3125 0.125,-0.75 C 3.890625,-1.71875 3.90625,-1.828125 4,-2.203125 L 4.359375,-3.59375 c 0.0625,-0.28125 0.0625,-0.296875 0.0625,-0.34375 0,-0.171875 -0.109375,-0.265625 -0.28125,-0.265625 -0.25,0 -0.390625,0.21875 -0.421875,0.4375 z M 3.078125,-1.1875 C 3.015625,-1 3.015625,-0.984375 2.875,-0.8125 2.4375,-0.265625 2.03125,-0.109375 1.75,-0.109375 c -0.5,0 -0.640625,-0.546875 -0.640625,-0.9375 0,-0.5 0.3125,-1.71875 0.546875,-2.1875 0.3125,-0.578125 0.75,-0.953125 1.15625,-0.953125 0.640625,0 0.78125,0.8125 0.78125,0.875 0,0.0625 -0.015625,0.125 -0.03125,0.171875 z m 0,0"
               id="id-2aff738b-df87-44b6-ac7f-47d744a0e7ad" />
          </g>
          <g
             id="id-c69ca457-11e5-445b-8855-fe6e78197f49" />
          <g
             id="id-f531a845-bf28-4522-b747-75aad336adda">
            <path
               d="m 2.328125,-4.4375 c 0,-0.1875 0,-0.1875 -0.203125,-0.1875 -0.453125,0.4375 -1.078125,0.4375 -1.359375,0.4375 v 0.25 c 0.15625,0 0.625,0 1,-0.1875 v 3.546875 c 0,0.234375 0,0.328125 -0.6875,0.328125 H 0.8125 V 0 c 0.125,0 0.984375,-0.03125 1.234375,-0.03125 0.21875,0 1.09375,0.03125 1.25,0.03125 V -0.25 H 3.03125 c -0.703125,0 -0.703125,-0.09375 -0.703125,-0.328125 z m 0,0"
               id="id-4e1cb072-aa0f-4d1d-b084-3d9b8b1d1c02" />
          </g>
          <g
             id="id-4d61fa65-9d9e-4c43-ac50-50c2d4584f17">
            <path
               d="m 3.734375,-4.203125 c 0.0625,-0.09375 0.0625,-0.109375 0.0625,-0.28125 H 1.96875 C 1.6875,-4.484375 1.609375,-4.5 1.359375,-4.515625 1,-4.546875 0.984375,-4.59375 0.96875,-4.703125 H 0.734375 l -0.25,1.484375 H 0.71875 c 0.015625,-0.109375 0.09375,-0.5625 0.203125,-0.640625 0.046875,-0.03125 0.625,-0.03125 0.71875,-0.03125 H 3.15625 c -0.21875,0.28125 -0.578125,0.71875 -0.71875,0.921875 -0.90625,1.1875 -1,2.296875 -1,2.703125 0,0.078125 0,0.40625 0.328125,0.40625 0.34375,0 0.34375,-0.3125 0.34375,-0.40625 v -0.28125 c 0,-1.34375 0.28125,-1.96875 0.578125,-2.34375 z m 0,0"
               id="id-fb19504b-fc59-439b-83a7-b8c0c195e045" />
          </g>
        </g>
      </defs>
      <g
         fill="#000000"
         fill-opacity="1"
         id="id-c4bac0cb-89ba-476f-b303-832ec5c56fd6"
         transform="translate(-149.118, -130.359)">
        <g
           transform="translate(148.712, 134.765)"
           id="g3839">
          <path
             d="M 3.71875,-3.765625 C 3.53125,-4.140625 3.25,-4.40625 2.796875,-4.40625 c -1.15625,0 -2.390625,1.46875 -2.390625,2.921875 0,0.9375 0.546875,1.59375 1.3125,1.59375 0.203125,0 0.703125,-0.046875 1.296875,-0.75 0.078125,0.421875 0.4375,0.75 0.90625,0.75 0.359375,0 0.578125,-0.234375 0.75,-0.546875 0.15625,-0.359375 0.296875,-0.96875 0.296875,-0.984375 0,-0.109375 -0.09375,-0.109375 -0.125,-0.109375 -0.09375,0 -0.109375,0.046875 -0.140625,0.1875 -0.171875,0.640625 -0.34375,1.234375 -0.75,1.234375 -0.28125,0 -0.296875,-0.265625 -0.296875,-0.453125 0,-0.21875 0.015625,-0.3125 0.125,-0.75 C 3.890625,-1.71875 3.90625,-1.828125 4,-2.203125 L 4.359375,-3.59375 c 0.0625,-0.28125 0.0625,-0.296875 0.0625,-0.34375 0,-0.171875 -0.109375,-0.265625 -0.28125,-0.265625 -0.25,0 -0.390625,0.21875 -0.421875,0.4375 z M 3.078125,-1.1875 C 3.015625,-1 3.015625,-0.984375 2.875,-0.8125 2.4375,-0.265625 2.03125,-0.109375 1.75,-0.109375 c -0.5,0 -0.640625,-0.546875 -0.640625,-0.9375 0,-0.5 0.3125,-1.71875 0.546875,-2.1875 0.3125,-0.578125 0.75,-0.953125 1.15625,-0.953125 0.640625,0 0.78125,0.8125 0.78125,0.875 0,0.0625 -0.015625,0.125 -0.03125,0.171875 z m 0,0"
             id="id-0ea69052-69e6-4b2d-918e-2a265836250a" />
        </g>
      </g>
      <g
         fill="#000000"
         fill-opacity="1"
         id="id-86903a60-5dcc-43af-9a44-3d465e5ac4e1"
         transform="translate(-149.118, -130.359)">
        <g
           transform="translate(153.978, 136.259)"
           id="g3843">
          <path
             d="m 2.328125,-4.4375 c 0,-0.1875 0,-0.1875 -0.203125,-0.1875 -0.453125,0.4375 -1.078125,0.4375 -1.359375,0.4375 v 0.25 c 0.15625,0 0.625,0 1,-0.1875 v 3.546875 c 0,0.234375 0,0.328125 -0.6875,0.328125 H 0.8125 V 0 c 0.125,0 0.984375,-0.03125 1.234375,-0.03125 0.21875,0 1.09375,0.03125 1.25,0.03125 V -0.25 H 3.03125 c -0.703125,0 -0.703125,-0.09375 -0.703125,-0.328125 z m 0,0"
             id="id-edfcf559-738c-46bc-9329-c3dc0be16556" />
        </g>
        <g
           transform="translate(157.95, 136.259)"
           id="g3846">
          <path
             d="m 3.734375,-4.203125 c 0.0625,-0.09375 0.0625,-0.109375 0.0625,-0.28125 H 1.96875 C 1.6875,-4.484375 1.609375,-4.5 1.359375,-4.515625 1,-4.546875 0.984375,-4.59375 0.96875,-4.703125 H 0.734375 l -0.25,1.484375 H 0.71875 c 0.015625,-0.109375 0.09375,-0.5625 0.203125,-0.640625 0.046875,-0.03125 0.625,-0.03125 0.71875,-0.03125 H 3.15625 c -0.21875,0.28125 -0.578125,0.71875 -0.71875,0.921875 -0.90625,1.1875 -1,2.296875 -1,2.703125 0,0.078125 0,0.40625 0.328125,0.40625 0.34375,0 0.34375,-0.3125 0.34375,-0.40625 v -0.28125 c 0,-1.34375 0.28125,-1.96875 0.578125,-2.34375 z m 0,0"
             id="id-d45198ed-25fa-4e16-bb8d-e37e025a4f9b" />
        </g>
      </g>
    </g>
    <text
       xml:space="preserve"
       style="font-style:normal;font-variant:normal;font-weight:normal;font-stretch:normal;font-size:6.35px;line-height:1.25;font-family:'CMU Serif';-inkscape-font-specification:'CMU Serif, Normal';font-variant-ligatures:normal;font-variant-caps:normal;font-variant-numeric:normal;font-variant-east-asian:normal;fill:#000000;fill-opacity:1;stroke:none;stroke-width:0.264583"
       x="142.81578"
       y="126.99323"
       id="text3873"><tspan
         sodipodi:role="line"
         id="tspan4074">7</tspan></text>
    <text
       xml:space="preserve"
       style="font-style:normal;font-variant:normal;font-weight:normal;font-stretch:normal;font-size:6.35px;line-height:1.25;font-family:'CMU Serif';-inkscape-font-specification:'CMU Serif, Normal';font-variant-ligatures:normal;font-variant-caps:normal;font-variant-numeric:normal;font-variant-east-asian:normal;fill:#000000;fill-opacity:1;stroke:none;stroke-width:0.264583"
       x="50.384018"
       y="163.56807"
       id="text3877"><tspan
         sodipodi:role="line"
         id="tspan4072">4</tspan></text>
  </g>
</svg>
