<?xml version="1.0" encoding="UTF-8" standalone="no"?>
<!-- Created with Inkscape (http://www.inkscape.org/) -->

<svg
   version="1.1"
   id="svg1"
   width="527.57587"
   height="100.98331"
   viewBox="0 0 527.57587 100.9833"
   sodipodi:docname="nbfm_modulator.pdf"
   xmlns:inkscape="http://www.inkscape.org/namespaces/inkscape"
   xmlns:sodipodi="http://sodipodi.sourceforge.net/DTD/sodipodi-0.dtd"
   xmlns="http://www.w3.org/2000/svg"
   xmlns:svg="http://www.w3.org/2000/svg">
  <defs
     id="defs1" />
  <sodipodi:namedview
     id="namedview1"
     pagecolor="#ffffff"
     bordercolor="#000000"
     borderopacity="0.25"
     inkscape:showpageshadow="2"
     inkscape:pageopacity="0.0"
     inkscape:pagecheckerboard="0"
     inkscape:deskcolor="#d1d1d1">
    <inkscape:page
       x="2.5833939e-08"
       y="5.3655685e-07"
       inkscape:label="1"
       id="page1"
       width="527.57587"
       height="100.98331"
       margin="0"
       bleed="0" />
  </sodipodi:namedview>
  <g
     id="g1"
     inkscape:groupmode="layer"
     inkscape:label="1"
     transform="translate(-12.378906,-11.992189)">
    <g
       id="g2"
       aria-label="m(t)"
       transform="matrix(1.3333333,0,0,1.3333333,11.986667,36.052)">
      <path
         id="path2"
         d="m 0.88011719,-0.58685156 c -0.0351563,0.15234375 -0.09375,0.375 -0.09375,0.421875 0,0.1875 0.140625,0.26953125 0.29296871,0.26953125 0.1171875,0 0.2929688,-0.0703125 0.3632813,-0.26953125 0.011719,-0.0234375 0.1289062,-0.4921875 0.1875,-0.73828125 L 1.8527734,-1.8056016 c 0.058594,-0.2226562 0.1171875,-0.4335937 0.1757813,-0.6679687 0.035156,-0.1640625 0.1171875,-0.4570313 0.1289062,-0.4921875 0.140625,-0.3164063 0.6679688,-1.21875 1.6171875,-1.21875 0.4453125,0 0.5390625,0.3632812 0.5390625,0.6914062 0,0.2578125 -0.070312,0.5390625 -0.1523437,0.8320313 l -0.2695313,1.1601562 -0.1992187,0.75000004 c -0.046875,0.19921875 -0.140625,0.5390625 -0.140625,0.5859375 0,0.1875 0.140625,0.26953125 0.2929687,0.26953125 0.3046875,0 0.375,-0.24609375 0.4453125,-0.5625 0.140625,-0.56249999 0.515625,-2.01562499 0.5976563,-2.40234379 0.035156,-0.1289062 0.5625,-1.3242187 1.6523437,-1.3242187 0.421875,0 0.5390625,0.3398437 0.5390625,0.6914062 0,0.5742188 -0.421875,1.7109375 -0.6210937,2.2382813 -0.09375,0.234375 -0.1289063,0.35156249 -0.1289063,0.55078124 0,0.46875 0.3515625,0.80859375 0.8085938,0.80859375 0.9375,0 1.3125,-1.45312499 1.3125,-1.53515629 0,-0.09375 -0.09375,-0.09375 -0.1171875,-0.09375 -0.1054688,0 -0.1054688,0.023437 -0.1523438,0.1757813 -0.1523437,0.52734374 -0.46875,1.24218749 -1.0195312,1.24218749 -0.1640625,0 -0.234375,-0.10546875 -0.234375,-0.328125 0,-0.2578125 0.082031,-0.4921875 0.1757812,-0.71484379 0.1875,-0.515625 0.609375,-1.6171875 0.609375,-2.1914062 0,-0.6445313 -0.3984375,-1.0664063 -1.1484375,-1.0664063 -0.75,0 -1.2539062,0.4453125 -1.6171875,0.9726563 -0.011719,-0.1289063 -0.046875,-0.46875 -0.328125,-0.7148438 -0.2460937,-0.1992187 -0.5625,-0.2578125 -0.8085937,-0.2578125 -0.9023438,0 -1.3828125,0.6445313 -1.5585938,0.8671875 -0.046875,-0.5625 -0.46875,-0.8671875 -0.9140625,-0.8671875 -0.45703121,0 -0.64453121,0.3867188 -0.73828121,0.5742188 -0.17578125,0.3398437 -0.3046875,0.9375 -0.3046875,0.9609375 0,0.1054687 0.09375,0.1054687 0.1171875,0.1054687 0.09375,0 0.10546875,-0.011719 0.1640625,-0.234375 0.17578125,-0.703125 0.375,-1.1835937 0.72656251,-1.1835937 0.1640625,0 0.3164062,0.082031 0.3164062,0.4570312 0,0.2109375 -0.035156,0.3164063 -0.1640625,0.8320313 z m 0,0"
         style="fill:#000000;fill-opacity:1;fill-rule:nonzero;stroke:none" />
      <path
         id="path3"
         d="m 12.039297,2.3897109 c 0,-0.035156 0,-0.046875 -0.164063,-0.2226562 -1.242187,-1.25390626 -1.570312,-3.12890626 -1.570312,-4.6640625 0,-1.7226563 0.386719,-3.4570313 1.605469,-4.7109375 0.128906,-0.1171875 0.128906,-0.1289063 0.128906,-0.1640625 0,-0.070312 -0.03516,-0.1054688 -0.09375,-0.1054688 -0.105469,0 -0.996094,0.6796875 -1.582031,1.9453125 -0.5156254,1.1015625 -0.6328129,2.203125 -0.6328129,3.0351563 0,0.7851562 0.1171875,1.99218749 0.6562499,3.11718749 0.597656,1.21875001 1.453125,1.87500001 1.558594,1.87500001 0.05859,0 0.09375,-0.035156 0.09375,-0.1054688 z m 0,0"
         style="fill:#000000;fill-opacity:1;fill-rule:nonzero;stroke:none" />
      <path
         id="path4"
         d="m 14.673086,-3.9852891 h 0.9375 c 0.199219,0 0.304687,0 0.304687,-0.1992187 0,-0.1054688 -0.105468,-0.1054688 -0.28125,-0.1054688 h -0.878906 c 0.363281,-1.4179687 0.410156,-1.6171875 0.410156,-1.6757812 0,-0.1757813 -0.117187,-0.2695313 -0.292968,-0.2695313 -0.02344,0 -0.304688,0.011719 -0.398438,0.3515625 l -0.386719,1.59375 h -0.9375 c -0.199218,0 -0.292968,0 -0.292968,0.1875 0,0.1171875 0.07031,0.1171875 0.269531,0.1171875 h 0.878906 c -0.714844,2.8242188 -0.75,3.00000004 -0.75,3.17578129 0,0.5390625 0.375,0.9140625 0.914063,0.9140625 1.007812,0 1.582031,-1.45312499 1.582031,-1.53515629 0,-0.09375 -0.08203,-0.09375 -0.117188,-0.09375 -0.09375,0 -0.105468,0.023437 -0.152343,0.140625 -0.433594,1.03125004 -0.960938,1.27734379 -1.300782,1.27734379 -0.199218,0 -0.304687,-0.12890625 -0.304687,-0.45703125 0,-0.24609375 0.02344,-0.31640625 0.05859,-0.48046874 z m 0,0"
         style="fill:#000000;fill-opacity:1;fill-rule:nonzero;stroke:none" />
      <path
         id="path5"
         d="m 19.102773,-2.4970078 c 0,-0.7734375 -0.117187,-1.9804688 -0.65625,-3.1054688 -0.597656,-1.21875 -1.464843,-1.875 -1.558593,-1.875 -0.05859,0 -0.105469,0.046875 -0.105469,0.1054688 0,0.035156 0,0.046875 0.199219,0.234375 0.972656,0.984375 1.535156,2.5664062 1.535156,4.640625 0,1.71093749 -0.363281,3.45703124 -1.59375,4.7226562 -0.140625,0.1171875 -0.140625,0.1289063 -0.140625,0.1640625 0,0.058594 0.04687,0.1054688 0.105469,0.1054688 0.09375,0 0.996093,-0.6796875 1.582031,-1.94531251 0.503906,-1.1015625 0.632812,-2.20312499 0.632812,-3.04687499 z m 0,0"
         style="fill:#000000;fill-opacity:1;fill-rule:nonzero;stroke:none" />
    </g>
    <path
       id="path6"
       d="M 30.0876,-14.94415 H 59.97592 V 14.94417 H 30.0876 Z"
       style="fill:none;stroke:#000000;stroke-width:0.3985;stroke-linecap:butt;stroke-linejoin:miter;stroke-miterlimit:10;stroke-dasharray:none;stroke-opacity:1"
       transform="matrix(1.3333333,0,0,-1.3333333,43.470667,32.730667)" />
    <path
       id="path7"
       d="M 2.7074844,8.7662969 C 2.5785781,10.395203 2.2270156,10.852234 1.6527969,10.852234 c -0.1289063,0 -0.421875,-0.03516 -0.6328125,-0.210937 0.28125,-0.04687 0.3632812,-0.269531 0.3632812,-0.410156 0,-0.2929691 -0.2226562,-0.4218754 -0.41015622,-0.4218754 -0.19921875,0 -0.41015625,0.1289063 -0.41015625,0.4335934 0,0.480469 0.49218747,0.820313 1.08984377,0.820313 0.9492187,0 1.4296875,-0.867188 1.640625,-1.7578126 0.1289062,-0.515625 0.4921875,-3.421875 0.5742187,-4.5234375 l 0.1875,-2.484375 c 0.140625,-1.82812503 0.4804688,-2.07421878 0.9257813,-2.07421878 0.1054687,0 0.4101562,0.0117188 0.6328125,0.2109375 -0.2929688,0.0351563 -0.375,0.26953125 -0.375,0.3984375 0,0.29296878 0.2226562,0.42187498 0.4101562,0.42187498 0.1992188,0 0.421875,-0.1289062 0.421875,-0.42187498 0,-0.48046875 -0.5039062,-0.832031245 -1.1015625,-0.832031245 -0.9492187,0 -1.3359375,0.960937495 -1.5,1.722656225 C 3.3520156,2.2741094 2.9887344,5.0866094 2.8949844,6.2819219 Z m 0,0"
       style="fill:#000000;fill-opacity:1;fill-rule:nonzero;stroke:none"
       aria-label="R"
       transform="matrix(1.3333333,0,0,1.3333333,99.085333,25.350667)" />
    <path
       id="path8"
       d="M 3.5198,0 H 27.49731"
       style="fill:none;stroke:#000000;stroke-width:0.3985;stroke-linecap:butt;stroke-linejoin:miter;stroke-miterlimit:10;stroke-dasharray:none;stroke-opacity:1"
       transform="matrix(1.3333333,0,0,-1.3333333,43.470667,32.730667)" />
    <path
       id="path9"
       d="m 2.39102,0 c -0.99626,0.19925 -2.78952,0.59775 -3.98503,1.49438 0.99626,-1.09588 0.99626,-1.89288 0,-2.98876 C -0.3985,-0.59775 1.39476,-0.19925 2.39102,0 Z"
       style="fill:#000000;fill-opacity:1;fill-rule:nonzero;stroke:none"
       transform="matrix(1.3333333,0,0,-1.3333333,80.133747,32.730667)" />
    <path
       id="path10"
       d="m 104.80847,0 c 0,5.50235 -4.46043,9.96277 -9.96278,9.96277 -5.50237,0 -9.96279,-4.46042 -9.96279,-9.96277 0,-5.50235 4.46042,-9.96277 9.96279,-9.96277 5.50235,0 9.96278,4.46042 9.96278,9.96277 z"
       style="fill:none;stroke:#000000;stroke-width:0.3985;stroke-linecap:butt;stroke-linejoin:miter;stroke-miterlimit:10;stroke-dasharray:none;stroke-opacity:1"
       transform="matrix(1.3333333,0,0,-1.3333333,43.470667,32.730667)" />
    <path
       id="path11"
       d="m 87.60275,-7.24294 14.48587,14.48588 m -14.48587,0 14.48587,-14.48588"
       style="fill:none;stroke:#000000;stroke-width:0.3985;stroke-linecap:butt;stroke-linejoin:miter;stroke-miterlimit:10;stroke-dasharray:none;stroke-opacity:1"
       transform="matrix(1.3333333,0,0,-1.3333333,43.470667,32.730667)" />
    <path
       id="path12"
       d="M 60.17519,0 H 82.29262"
       style="fill:none;stroke:#000000;stroke-width:0.3985;stroke-linecap:butt;stroke-linejoin:miter;stroke-miterlimit:10;stroke-dasharray:none;stroke-opacity:1"
       transform="matrix(1.3333333,0,0,-1.3333333,43.470667,32.730667)" />
    <path
       id="path13"
       d="m 2.39102,0 c -0.99626,0.19925 -2.78952,0.59775 -3.98503,1.49438 0.99626,-1.09588 0.99626,-1.89288 0,-2.98876 C -0.3985,-0.59775 1.39476,-0.19925 2.39102,0 Z"
       style="fill:#000000;fill-opacity:1;fill-rule:nonzero;stroke:none"
       transform="matrix(1.3333333,0,0,-1.3333333,153.19416,32.730667)" />
    <path
       id="path14"
       d="m 182.02003,0 c 0,4.12675 -3.34532,7.47208 -7.47207,7.47208 -4.12677,0 -7.47208,-3.34533 -7.47208,-7.47208 0,-4.12675 3.34531,-7.47208 7.47208,-7.47208 4.12675,0 7.47207,3.34533 7.47207,7.47208 z"
       style="fill:none;stroke:#000000;stroke-width:0.3985;stroke-linecap:butt;stroke-linejoin:miter;stroke-miterlimit:10;stroke-dasharray:none;stroke-opacity:1"
       transform="matrix(1.3333333,0,0,-1.3333333,43.470667,32.730667)" />
    <path
       id="path15"
       d="m 276.4747,32.988479 h 3.70313 c 0.1875,0 0.4375,0 0.4375,-0.265625 0,-0.265625 -0.25,-0.265625 -0.4375,-0.265625 h -3.70313 v -3.71875 c 0,-0.171875 0,-0.4375 -0.26562,-0.4375 -0.26563,0 -0.26563,0.265625 -0.26563,0.4375 v 3.71875 h -3.71875 c -0.1875,0 -0.4375,0 -0.4375,0.265625 0,0.265625 0.25,0.265625 0.4375,0.265625 h 3.71875 v 3.734375 c 0,0.171875 0,0.4375 0.26563,0.4375 0.26562,0 0.26562,-0.265625 0.26562,-0.4375 z m 0,0"
       style="fill:#000000;fill-opacity:1;fill-rule:nonzero;stroke:none;stroke-width:1.33333"
       aria-label="+" />
    <path
       id="path17"
       d="M 105.00772,0 H 164.4856"
       style="fill:none;stroke:#000000;stroke-width:0.3985;stroke-linecap:butt;stroke-linejoin:miter;stroke-miterlimit:10;stroke-dasharray:none;stroke-opacity:1"
       transform="matrix(1.3333333,0,0,-1.3333333,43.470667,32.730667)" />
    <path
       id="path18"
       d="m 2.39102,0 c -0.99626,0.19925 -2.78952,0.59775 -3.98503,1.49438 0.99626,-1.09588 0.99626,-1.89288 0,-2.98876 C -0.3985,-0.59775 1.39476,-0.19925 2.39102,0 Z"
       style="fill:#000000;fill-opacity:1;fill-rule:nonzero;stroke:none"
       transform="matrix(1.3333333,0,0,-1.3333333,262.7848,32.730667)" />
    <path
       id="path22"
       d="m 276.237,42.834388 c 0.26567,1.32835 0.797,3.719358 1.99251,5.313378 -1.46118,-1.32835 -2.52384,-1.32835 -3.98502,0 1.19551,-1.59402 1.72684,-3.985028 1.99251,-5.313378 z"
       style="fill:#000000;fill-opacity:1;fill-rule:nonzero;stroke:none;stroke-width:1.33333" />
    <path
       id="path23"
       d="m 106.14713,-59.98438 h 20.34091 v 20.34091 h -20.34091 z"
       style="fill:none;stroke:#000000;stroke-width:0.3985;stroke-linecap:butt;stroke-linejoin:miter;stroke-miterlimit:10;stroke-dasharray:none;stroke-opacity:1"
       transform="matrix(1.3333333,0,0,-1.3333333,43.470667,32.730667)" />
    <g
       id="g23"
       aria-label="π/2"
       transform="matrix(1.3333333,0,0,1.3333333,190.97467,100.808)">
      <path
         id="path24"
         d="m 3.5170469,-1.7690859 c 0.082031,0 0.140625,0 0.1992187,-0.046875 0.035156,-0.035156 0.082031,-0.1054688 0.082031,-0.1757813 0,-0.1523437 -0.140625,-0.1523437 -0.234375,-0.1523437 H 1.4311094 c -0.1054688,0 -0.328125,0 -0.63281252,0.2460937 -0.12890625,0.1171875 -0.3515625,0.375 -0.3515625,0.4335938 0,0.070312 0.0703125,0.070312 0.09375,0.070312 0.0703125,0 0.0703125,0 0.1171875,-0.046875 0.1640625,-0.2226563 0.41015622,-0.328125 0.70312502,-0.328125 h 0.3632812 c -0.1875,0.6210937 -0.4335937,1.13671871 -0.609375,1.45312496 -0.082031,0.12890625 -0.082031,0.140625 -0.082031,0.1875 0,0.1171875 0.09375,0.1875 0.1992187,0.1875 0.1992188,0 0.2695313,-0.234375 0.3867188,-0.6328125 0.1171875,-0.38671875 0.2109375,-0.74999996 0.3164062,-1.19531246 h 0.65625 c -0.023437,0.070312 -0.1640625,0.6210937 -0.1640625,1.00781246 0,0.3515625 0.1289063,0.8203125 0.3515625,0.8203125 0.1171875,0 0.2578125,-0.1171875 0.2578125,-0.24609375 0,-0.0585938 -0.023437,-0.0820313 -0.058594,-0.140625 -0.2226563,-0.375 -0.2226563,-0.80859371 -0.2226563,-0.90234371 0,-0.1640625 0.023437,-0.3632813 0.046875,-0.5390625 z M 7.3315,-3.4917422 c 0.035156,-0.070312 0.035156,-0.09375 0.035156,-0.1054687 0,-0.070312 -0.070312,-0.140625 -0.140625,-0.140625 -0.082031,0 -0.1171875,0.058594 -0.1523438,0.1289062 L 4.9760313,0.99653906 c -0.035156,0.0703125 -0.035156,0.09375 -0.035156,0.10546874 0,0.082031 0.070312,0.140625 0.140625,0.140625 0.082031,0 0.1171875,-0.046875 0.1523438,-0.1171875 z m 0,0"
         style="fill:#000000;fill-opacity:1;fill-rule:nonzero;stroke:none" />
      <path
         id="path25"
         d="M 10.914508,-0.96049219 H 10.70357 c -0.01172,0.09375 -0.05859,0.3984375 -0.140625,0.45703125 -0.03516,0.0234375 -0.457031,0.0234375 -0.527343,0.0234375 H 9.0512266 c 0.328125,-0.24609375 0.703125,-0.515625 0.9960934,-0.71484376 0.457032,-0.3164062 0.867188,-0.5976562 0.867188,-1.125 0,-0.6445312 -0.597656,-0.9960937 -1.3125002,-0.9960937 -0.6679687,0 -1.1601562,0.3867187 -1.1601562,0.8789062 0,0.2578125 0.2109375,0.3046875 0.28125,0.3046875 0.140625,0 0.2929687,-0.09375 0.2929687,-0.2929687 0,-0.1875 -0.1289062,-0.28125 -0.28125,-0.2929688 0.140625,-0.234375 0.4335938,-0.375 0.7617188,-0.375 0.4804687,0 0.8906249,0.28125 0.8906249,0.7734375 0,0.421875 -0.292969,0.7382813 -0.6796874,1.0546875 l -1.2070313,1.03125001 c -0.046875,0.046875 -0.058594,0.046875 -0.058594,0.0820313 V 4.453125e-4 h 2.3085937 z m 0,0"
         style="fill:#000000;fill-opacity:1;fill-rule:nonzero;stroke:none" />
    </g>
    <path
       id="path30"
       d="M 105.94788,-49.8139 H 94.84569 v 37.26085"
       style="fill:none;stroke:#000000;stroke-width:0.3985;stroke-linecap:butt;stroke-linejoin:miter;stroke-miterlimit:10;stroke-dasharray:none;stroke-opacity:1"
       transform="matrix(1.3333333,0,0,-1.3333333,43.470667,32.730667)" />
    <path
       id="path31"
       d="m 2.39102,0 c -0.99626,0.19925 -2.78952,0.59775 -3.98503,1.49438 0.99626,-1.09588 0.99626,-1.89288 0,-2.98876 C -0.3985,-0.59775 1.39476,-0.19925 2.39102,0 Z"
       style="fill:#000000;fill-opacity:1;fill-rule:nonzero;stroke:none"
       transform="matrix(0,-1.3333333,-1.3333333,0,169.93159,49.468067)" />
    <path
       id="path32"
       d="m 232.23245,-14.94415 h 38.90948 v 29.88832 h -38.90948 z"
       style="fill:none;stroke:#000000;stroke-width:0.3985;stroke-linecap:butt;stroke-linejoin:miter;stroke-miterlimit:10;stroke-dasharray:none;stroke-opacity:1"
       transform="matrix(1.3333333,0,0,-1.3333333,43.470667,32.730667)" />
    <path
       id="path33"
       d="M 5.8020781,-2.5662578 H 5.5442656 C 5.4387969,-1.5584453 5.2981719,-0.30453906 3.5520781,-0.30453906 H 2.7317656 c -0.46875,0 -0.4921875,-0.0703125 -0.4921875,-0.3984375 V -6.0115703 c 0,-0.3398438 0,-0.4804688 0.9492188,-0.4804688 h 0.328125 v -0.3164062 c -0.3632813,0.035156 -1.265625,0.035156 -1.6757813,0.035156 -0.3867187,0 -1.16015623,0 -1.51171873,-0.035156 v 0.3164062 h 0.234375 c 0.77343753,0 0.79687503,0.1054688 0.79687503,0.46875 v 5.25000004 c 0,0.3515625 -0.023437,0.46875 -0.79687503,0.46875 h -0.234375 V 1.484375e-4 H 5.5208281 Z m 2.1826172,-1.8398438 -1.3945312,0.1171875 v 0.3046875 c 0.65625,0 0.7382812,0.058594 0.7382812,0.5507813 v 2.67187499 c 0,0.45703125 -0.1054687,0.45703125 -0.7734375,0.45703125 V 1.484375e-4 C 6.8714141,-0.01157031 7.4104766,-0.03500781 7.6565703,-0.03500781 c 0.3398438,0 0.6914063,0.0234375 1.03125,0.0351562475 V -0.30453906 c -0.65625,0 -0.703125,-0.0585938 -0.703125,-0.4453125 z m 0.046875,-1.734375 c 0,-0.3164062 -0.2460937,-0.5273437 -0.5273437,-0.5273437 -0.3164063,0 -0.5273438,0.2695312 -0.5273438,0.5273437 0,0.2695313 0.2109375,0.5273438 0.5273438,0.5273438 0.28125,0 0.5273437,-0.1992188 0.5273437,-0.5273438 z m 2.0654297,2.71875 v 2.66015629 c 0,0.45703125 -0.1171875,0.45703125 -0.7851563,0.45703125 V 1.484375e-4 C 9.6634062,-0.01157031 10.167312,-0.03500781 10.436844,-0.03500781 c 0.257812,0 0.785156,0.0234375 1.113281,0.0351562475 V -0.30453906 c -0.65625,0 -0.773438,0 -0.773438,-0.45703125 V -2.5896953 c 0,-1.03125 0.714844,-1.59375 1.347657,-1.59375 0.621093,0 0.738281,0.5390625 0.738281,1.1015625 v 2.32031249 c 0,0.45703125 -0.117188,0.45703125 -0.773438,0.45703125 V 1.484375e-4 c 0.339844,-0.0117187475 0.855469,-0.0351562475 1.125,-0.0351562475 0.257813,0 0.773438,0.0234375 1.113282,0.0351562475 V -0.30453906 c -0.667969,0 -0.785157,0 -0.785157,-0.45703125 V -2.5896953 c 0,-1.03125 0.714844,-1.59375 1.347657,-1.59375 0.632812,0 0.738281,0.5390625 0.738281,1.1015625 v 2.32031249 c 0,0.45703125 -0.105469,0.45703125 -0.773438,0.45703125 V 1.484375e-4 c 0.351563,-0.0117187475 0.855469,-0.0351562475 1.125,-0.0351562475 0.257813,0 0.773438,0.0234375 1.113282,0.0351562475 V -0.30453906 c -0.515625,0 -0.761719,0 -0.773438,-0.3046875 V -2.5076641 c 0,-0.8554687 0,-1.171875 -0.316406,-1.5234375 -0.128906,-0.1757812 -0.46875,-0.375 -1.042969,-0.375 -0.832031,0 -1.277344,0.5976563 -1.441406,0.984375 -0.140625,-0.8671875 -0.878906,-0.984375 -1.324219,-0.984375 -0.726562,0 -1.195312,0.4335938 -1.476562,1.0546875 v -1.0546875 l -1.4062503,0.1171875 v 0.3046875 c 0.7031253,0 0.7851563,0.070312 0.7851563,0.5625 z m 8.956055,-0.984375 -1.394532,0.1171875 v 0.3046875 c 0.65625,0 0.738282,0.058594 0.738282,0.5507813 v 2.67187499 c 0,0.45703125 -0.105469,0.45703125 -0.773438,0.45703125 V 1.484375e-4 C 17.939773,-0.01157031 18.478836,-0.03500781 18.72493,-0.03500781 c 0.339843,0 0.691406,0.0234375 1.03125,0.0351562475 V -0.30453906 c -0.65625,0 -0.703125,-0.0585938 -0.703125,-0.4453125 z m 0.04687,-1.734375 c 0,-0.3164062 -0.246094,-0.5273437 -0.527344,-0.5273437 -0.316406,0 -0.527344,0.2695312 -0.527344,0.5273437 0,0.2695313 0.210938,0.5273438 0.527344,0.5273438 0.28125,0 0.527344,-0.1992188 0.527344,-0.5273438 z m 2.686523,2.15625 h 1.429688 v -0.3046875 h -1.429688 v -1.8398437 h -0.246094 c -0.01172,0.8203125 -0.316406,1.8867187 -1.289062,1.921875 v 0.2226562 h 0.84375 v 2.7539063 c 0,1.21874999 0.925781,1.33593749 1.289062,1.33593749 0.703125,0 0.984375,-0.703125 0.984375,-1.33593749 v -0.5742188 h -0.246093 v 0.5507813 c 0,0.73828124 -0.304688,1.11328124 -0.667969,1.11328124 -0.667969,0 -0.667969,-0.90234374 -0.667969,-1.07812504 z m 3.263672,1.4765625 c 0.05859,-1.4882812 0.902344,-1.734375 1.242187,-1.734375 1.019532,0 1.125,1.3476563 1.125,1.734375 z m -0.01172,0.2109375 h 2.789063 c 0.210937,0 0.246093,0 0.246093,-0.2109375 0,-0.984375 -0.539062,-1.9570312 -1.78125,-1.9570312 -1.160156,0 -2.074218,1.03125 -2.074218,2.2734375 0,1.33593749 1.042968,2.29687499 2.191406,2.29687499 1.21875,0 1.664062,-1.1015625 1.664062,-1.28906249 0,-0.1054688 -0.08203,-0.1171875 -0.128906,-0.1171875 -0.09375,0 -0.117187,0.058594 -0.128906,0.140625 -0.351563,1.01953124 -1.253906,1.01953124 -1.347656,1.01953124 -0.503907,0 -0.902344,-0.29296875 -1.125,-0.66796875 C 25.038406,-1.2889141 25.038406,-1.9451641 25.038406,-2.2967266 Z m 4.992188,-1.0078125 v -1.1015625 l -1.382813,0.1171875 v 0.3046875 c 0.691406,0 0.773438,0.070312 0.773438,0.5625 v 2.66015629 c 0,0.45703125 -0.105469,0.45703125 -0.773438,0.45703125 V 1.484375e-4 C 29.0345,-0.01157031 29.50325,-0.03500781 29.7845,-0.03500781 c 0.398437,0 0.867187,0 1.265625,0.0351562475 V -0.30453906 h -0.210938 c -0.738281,0 -0.761718,-0.1171875 -0.761718,-0.46875 V -2.3084453 c 0,-0.984375 0.421875,-1.875 1.183593,-1.875 0.05859,0 0.08203,0 0.105469,0.011719 -0.03516,0.011719 -0.234375,0.1289063 -0.234375,0.3867188 0,0.28125 0.210938,0.4335937 0.433594,0.4335937 0.175781,0 0.421875,-0.1289062 0.421875,-0.4453125 0,-0.3164062 -0.304688,-0.609375 -0.726563,-0.609375 -0.738281,0 -1.089843,0.6679688 -1.230468,1.1015625 z m 0,0"
       style="fill:#000000;fill-opacity:1;fill-rule:nonzero;stroke:none"
       aria-label="Limiter"
       transform="matrix(1.3333333,0,0,1.3333333,357.53733,37.269333)" />
    <path
       id="path34"
       d="m 182.21928,0 h 47.42289"
       style="fill:none;stroke:#000000;stroke-width:0.3985;stroke-linecap:butt;stroke-linejoin:miter;stroke-miterlimit:10;stroke-dasharray:none;stroke-opacity:1"
       transform="matrix(1.3333333,0,0,-1.3333333,43.470667,32.730667)" />
    <path
       id="path35"
       d="m 2.39102,0 c -0.99626,0.19925 -2.78952,0.59775 -3.98503,1.49438 0.99626,-1.09588 0.99626,-1.89288 0,-2.98876 C -0.3985,-0.59775 1.39476,-0.19925 2.39102,0 Z"
       style="fill:#000000;fill-opacity:1;fill-rule:nonzero;stroke:none"
       transform="matrix(1.3333333,0,0,-1.3333333,349.66023,32.730667)" />
    <g
       id="g35"
       aria-label="ˆ&#10;ψ&#10;FM&#10;(t)"
       transform="matrix(1.3333333,0,0,1.3333333,301.68933,21.210667)">
      <path
         id="path36"
         d="m 2.4947188,-6.9138594 -1.3359375,1.359375 0.1757812,0.1757813 1.1601563,-1.0195313 1.1367187,1.0195313 0.1875,-0.1757813 z m 0,0"
         style="fill:#000000;fill-opacity:1;fill-rule:nonzero;stroke:none" />
      <path
         id="path37"
         d="m 2.76425,-4.0281172 c 0.011719,-0.035156 0.023437,-0.09375 0.023437,-0.1523437 0,-0.09375 -0.070312,-0.1054688 -0.1171875,-0.1054688 -0.09375,0 -0.1054687,0.023437 -0.1523437,0.1992188 L 0.8658125,2.4992266 c -0.75,-0.09375 -1.13671875,-0.4570313 -1.13671875,-1.1132813 0,-0.1992187 0,-0.45703124 0.5390625,-1.85156249 0.046875,-0.12890625 0.1171875,-0.29296875 0.1171875,-0.4921875 0,-0.44531251 -0.328125,-0.82031251 -0.8203125,-0.82031251 -0.94921875,0 -1.31249995,1.45312501 -1.31249995,1.53515626 0,0.10546875 0.09375,0.10546875 0.1171875,0.10546875 0.09375,0 0.1054687,-0.0234375 0.1523437,-0.1875 0.2695313,-0.93750001 0.66796875,-1.23046871 1.0078125,-1.23046871 0.0820313,0 0.2578125,0 0.2578125,0.3164062 0,0.25781251 -0.10546875,0.51562501 -0.234375,0.85546876 -0.48046875,1.25390625 -0.48046875,1.51171874 -0.48046875,1.68750004 0,0.9492187 0.78515625,1.359375 1.734375,1.4179687 -0.0820313,0.3515625 -0.0820313,0.375 -0.22265625,0.9023438 -0.0234375,0.1054687 -0.22265625,0.9140625 -0.22265625,0.9492187 0,0.011719 0,0.09375 0.1171875,0.09375 0.0234375,0 0.0703125,0 0.09375,-0.035156 0.0234375,-0.023437 0.0820313,-0.2695313 0.1171875,-0.4101563 L 1.0650313,2.7336016 c 0.375,0 1.2421875,0 2.1796875,-1.0664063 0.4101562,-0.4570312 0.6210937,-0.89062499 0.7265625,-1.19531249 0.09375,-0.24609375 0.3164062,-1.11328125 0.3164062,-1.54687501 0,-0.5625 -0.2695312,-0.703125 -0.4453125,-0.703125 -0.2460937,0 -0.4921875,0.2578125 -0.4921875,0.4804688 0,0.1289062 0.058594,0.1875 0.1523438,0.2695312 0.1054687,0.10546876 0.3515625,0.36328126 0.3515625,0.84375001 0,0.64453125 -0.515625,1.45312499 -0.8671875,1.81640629 -0.8789063,0.890625 -1.5117188,0.890625 -1.875,0.890625 z m 0,0"
         style="fill:#000000;fill-opacity:1;fill-rule:nonzero;stroke:none" />
      <path
         id="path38"
         d="M 9.3531172,-5.7214766 H 5.1929609 v 0.2460938 h 0.1757813 c 0.5273437,0 0.5507812,0.070312 0.5507812,0.3164062 v 3.609375 c 0,0.234375 -0.023437,0.3164063 -0.5507812,0.3164063 H 5.1929609 v 0.24609374 c 0.011719,0 0.796875,-0.0234375 1.0664063,-0.0234375 0.28125,0 1.1132812,0.0117188 1.21875,0.0234375 V -1.2331953 H 7.2320234 c -0.65625,0 -0.65625,-0.09375 -0.65625,-0.328125 v -1.6757813 h 0.6796875 c 0.6914063,0 0.796875,0.2109375 0.796875,0.8203125 h 0.234375 v -1.8867187 h -0.234375 c 0,0.609375 -0.1054687,0.8203125 -0.796875,0.8203125 H 6.5757734 v -1.7109375 c 0,-0.2226563 0.011719,-0.28125 0.3398438,-0.28125 h 0.9726562 c 1.125,0 1.3125,0.3867187 1.4414063,1.359375 h 0.234375 z m 2.5166018,0.1289063 c -0.07031,-0.1523438 -0.117188,-0.1523438 -0.269531,-0.1523438 h -1.21875 v 0.2460938 H 10.5455 c 0.539063,0 0.550781,0.070312 0.550781,0.3164062 v 3.4453125 c 0,0.1875 0,0.5039063 -0.714843,0.5039063 v 0.24609374 c 0.28125,-0.0234375 0.5625,-0.0234375 0.84375,-0.0234375 0.292968,0 0.574218,0 0.855468,0.0234375 V -1.2331953 c -0.714843,0 -0.714843,-0.3164063 -0.714843,-0.5039063 v -3.6796875 l 1.816406,4.265625 c 0.03516,0.082031 0.07031,0.16406254 0.175781,0.16406254 0.04687,0 0.105469,-0.0234375 0.164063,-0.14062504 l 1.839843,-4.359375 h 0.01172 v 3.9375 c 0,0.234375 -0.01172,0.3164063 -0.550781,0.3164063 h -0.164063 v 0.24609374 c 0.328125,-0.0117188 0.726563,-0.0234375 1.007813,-0.0234375 0.28125,0 0.679687,0.0117188 1.007812,0.0234375 V -1.2331953 h -0.164062 c -0.539063,0 -0.550781,-0.070312 -0.550781,-0.3164063 v -3.6328125 c 0,-0.234375 0.01172,-0.3164062 0.550781,-0.3164062 h 0.164062 v -0.2460938 h -1.207031 c -0.140625,0 -0.210937,0 -0.257812,0.140625 l -1.675782,3.9492188 z m 0,0"
         style="fill:#000000;fill-opacity:1;fill-rule:nonzero;stroke:none" />
      <path
         id="path39"
         d="m 20.904875,5.0187578 c 0,-0.035156 0,-0.046875 -0.164062,-0.2226562 C 19.498625,3.5421953 19.1705,1.6671953 19.1705,0.13203906 c 0,-1.72265626 0.386719,-3.45703126 1.605469,-4.71093746 0.128906,-0.1171875 0.128906,-0.1289063 0.128906,-0.1640625 0,-0.070312 -0.03516,-0.1054688 -0.09375,-0.1054688 -0.105469,0 -0.996094,0.6796875 -1.582031,1.9453125 -0.515625,1.1015625 -0.632813,2.20312501 -0.632813,3.03515626 0,0.78515625 0.117188,1.99218754 0.65625,3.11718754 0.597657,1.21875 1.453125,1.875 1.558594,1.875 0.05859,0 0.09375,-0.035156 0.09375,-0.1054688 z m 0,0"
         style="fill:#000000;fill-opacity:1;fill-rule:nonzero;stroke:none" />
      <path
         id="path40"
         d="m 23.538664,-1.3562422 h 0.9375 c 0.199219,0 0.304688,0 0.304688,-0.1992187 0,-0.1054688 -0.105469,-0.1054688 -0.28125,-0.1054688 h -0.878907 c 0.363282,-1.4179687 0.410157,-1.6171875 0.410157,-1.6757812 0,-0.1757813 -0.117188,-0.2695313 -0.292969,-0.2695313 -0.02344,0 -0.304688,0.011719 -0.398438,0.3515625 l -0.386718,1.59375 h -0.9375 c -0.199219,0 -0.292969,0 -0.292969,0.1875 0,0.1171875 0.07031,0.1171875 0.269531,0.1171875 h 0.878906 c -0.714843,2.8242188 -0.75,3 -0.75,3.1757813 0,0.5390625 0.375,0.9140625 0.914063,0.9140625 1.007812,0 1.582031,-1.453125 1.582031,-1.5351563 0,-0.09375 -0.08203,-0.09375 -0.117187,-0.09375 -0.09375,0 -0.105469,0.023437 -0.152344,0.140625 -0.433594,1.03125 -0.960938,1.2773438 -1.300781,1.2773438 -0.199219,0 -0.304688,-0.1289063 -0.304688,-0.4570313 0,-0.2460937 0.02344,-0.3164062 0.05859,-0.4804687 z m 0,0"
         style="fill:#000000;fill-opacity:1;fill-rule:nonzero;stroke:none" />
      <path
         id="path41"
         d="m 27.968352,0.13203906 c 0,-0.7734375 -0.117188,-1.98046876 -0.65625,-3.10546876 -0.597657,-1.21875 -1.464844,-1.875 -1.558594,-1.875 -0.05859,0 -0.105469,0.046875 -0.105469,0.1054688 0,0.035156 0,0.046875 0.199219,0.234375 0.972656,0.984375 1.535156,2.5664062 1.535156,4.64062496 0,1.71093754 -0.363281,3.45703124 -1.59375,4.72265624 -0.140625,0.1171875 -0.140625,0.1289063 -0.140625,0.1640625 0,0.058594 0.04687,0.1054688 0.105469,0.1054688 0.09375,0 0.996094,-0.6796875 1.582031,-1.9453125 0.503906,-1.1015625 0.632813,-2.20312504 0.632813,-3.04687504 z m 0,0"
         style="fill:#000000;fill-opacity:1;fill-rule:nonzero;stroke:none" />
    </g>
    <path
       id="path42"
       d="m 291.46602,-14.94415 h 30.88391 v 29.88832 h -30.88391 z"
       style="fill:none;stroke:#000000;stroke-width:0.3985;stroke-linecap:butt;stroke-linejoin:miter;stroke-miterlimit:10;stroke-dasharray:none;stroke-opacity:1"
       transform="matrix(1.3333333,0,0,-1.3333333,43.470667,32.730667)" />
    <path
       id="path43"
       d="M 5.8015,-6.772625 H 0.32884375 v 0.3046875 h 0.234375 c 0.77343755,0 0.79687505,0.1171875 0.79687505,0.46875 v 5.2265625 c 0,0.3515625 -0.023437,0.46875 -0.79687505,0.46875 h -0.234375 V 8.125e-4 c 0.3515625,-0.03515625 1.12500005,-0.03515625 1.51171875,-0.03515625 0.4101563,0 1.3125,0 1.6757813,0.03515625 V -0.303875 H 3.1882188 C 2.239,-0.303875 2.239,-0.43278125 2.239,-0.78434375 V -3.2335625 h 0.8554688 c 0.9609375,0 1.0546875,0.3164062 1.0546875,1.1601562 H 4.4069688 V -4.710125 H 4.1491563 c 0,0.8320312 -0.09375,1.1601562 -1.0546875,1.1601562 H 2.239 V -6.0695 c 0,-0.328125 0.023437,-0.3984375 0.4921875,-0.3984375 H 3.9265 c 1.4882813,0 1.7460938,0.5625 1.8984375,1.9335937 H 6.08275 Z M 8.2624375,-4.4054375 6.8679063,-4.28825 v 0.3046875 c 0.65625,0 0.7382812,0.058594 0.7382812,0.5507812 v 2.67187505 c 0,0.45703125 -0.1054687,0.45703125 -0.7734375,0.45703125 V 8.125e-4 c 0.3164063,-0.01171875 0.8554688,-0.03515625 1.1015625,-0.03515625 0.3398438,0 0.6914063,0.0234375 1.03125,0.03515625 V -0.303875 c -0.65625,0 -0.703125,-0.0585938 -0.703125,-0.4453125 z m 0.046875,-1.734375 c 0,-0.3164063 -0.2460937,-0.5273438 -0.5273437,-0.5273438 -0.3164063,0 -0.5273438,0.2695313 -0.5273438,0.5273438 0,0.2695312 0.2109375,0.5273437 0.5273438,0.5273437 0.28125,0 0.5273437,-0.1992187 0.5273437,-0.5273437 z M 11.028063,-6.91325 9.598375,-6.8077813 v 0.3164063 c 0.703125,0 0.773438,0.070312 0.773438,0.5507812 v 5.17968755 c 0,0.45703125 -0.105469,0.45703125 -0.773438,0.45703125 V 8.125e-4 c 0.328125,-0.01171875 0.855469,-0.03515625 1.101563,-0.03515625 0.257812,0 0.738281,0.0234375 1.113281,0.03515625 V -0.303875 c -0.667969,0 -0.785156,0 -0.785156,-0.45703125 z m 2.733398,2.9296875 h 1.429687 V -4.28825 h -1.429687 v -1.8398438 h -0.246094 c -0.01172,0.8203125 -0.316406,1.8867188 -1.289062,1.921875 v 0.2226563 h 0.84375 v 2.7539062 c 0,1.21875005 0.925781,1.33593755 1.289062,1.33593755 0.703125,0 0.984375,-0.703125 0.984375,-1.33593755 V -1.803875 h -0.246094 v 0.5507812 c 0,0.7382813 -0.304687,1.1132813 -0.667968,1.1132813 -0.667969,0 -0.667969,-0.9023438 -0.667969,-1.078125 z M 17.025133,-2.507 c 0.05859,-1.4882813 0.902344,-1.734375 1.242187,-1.734375 1.019532,0 1.125,1.3476562 1.125,1.734375 z m -0.01172,0.2109375 h 2.789063 c 0.210937,0 0.246093,0 0.246093,-0.2109375 0,-0.984375 -0.539062,-1.9570313 -1.78125,-1.9570313 -1.160156,0 -2.074218,1.03125 -2.074218,2.2734375 0,1.33593755 1.042968,2.29687505 2.191406,2.29687505 1.21875,0 1.664062,-1.1015625 1.664062,-1.28906255 0,-0.1054687 -0.08203,-0.1171875 -0.128906,-0.1171875 -0.09375,0 -0.117187,0.058594 -0.128906,0.140625 -0.351563,1.0195313 -1.253906,1.0195313 -1.347656,1.0195313 -0.503907,0 -0.902344,-0.29296875 -1.125,-0.66796875 C 17.013414,-1.28825 17.013414,-1.9445 17.013414,-2.2960625 Z M 22.005602,-3.303875 V -4.4054375 L 20.622789,-4.28825 v 0.3046875 c 0.691406,0 0.773438,0.070312 0.773438,0.5625 v 2.66015625 c 0,0.45703125 -0.105469,0.45703125 -0.773438,0.45703125 V 8.125e-4 c 0.386719,-0.01171875 0.855469,-0.03515625 1.136719,-0.03515625 0.398437,0 0.867187,0 1.265625,0.03515625 V -0.303875 h -0.210938 c -0.738281,0 -0.761718,-0.1171875 -0.761718,-0.46875 v -1.5351563 c 0,-0.984375 0.421875,-1.875 1.183593,-1.875 0.05859,0 0.08203,0 0.105469,0.011719 -0.03516,0.011719 -0.234375,0.1289062 -0.234375,0.3867187 0,0.28125 0.210938,0.4335938 0.433594,0.4335938 0.175781,0 0.421875,-0.1289063 0.421875,-0.4453125 0,-0.3164063 -0.304688,-0.609375 -0.726563,-0.609375 -0.738281,0 -1.089843,0.6679687 -1.230468,1.1015623 z m 0,0"
       style="fill:#000000;fill-opacity:1;fill-rule:nonzero;stroke:none"
       aria-label="Filter"
       transform="matrix(1.3333333,0,0,1.3333333,436.51467,37.342667)" />
    <path
       id="path44"
       d="m 271.3412,0 h 17.53453"
       style="fill:none;stroke:#000000;stroke-width:0.3985;stroke-linecap:butt;stroke-linejoin:miter;stroke-miterlimit:10;stroke-dasharray:none;stroke-opacity:1"
       transform="matrix(1.3333333,0,0,-1.3333333,43.470667,32.730667)" />
    <path
       id="path45"
       d="m 2.39102,0 c -0.99626,0.19925 -2.78952,0.59775 -3.98503,1.49438 0.99626,-1.09588 0.99626,-1.89288 0,-2.98876 C -0.3985,-0.59775 1.39476,-0.19925 2.39102,0 Z"
       style="fill:#000000;fill-opacity:1;fill-rule:nonzero;stroke:none"
       transform="matrix(1.3333333,0,0,-1.3333333,428.63831,32.730667)" />
    <path
       id="path46"
       d="m 322.54918,0 h 47.4229"
       style="fill:none;stroke:#000000;stroke-width:0.3985;stroke-linecap:butt;stroke-linejoin:miter;stroke-miterlimit:10;stroke-dasharray:none;stroke-opacity:1"
       transform="matrix(1.3333333,0,0,-1.3333333,43.470667,32.730667)" />
    <path
       id="path47"
       d="m 2.39102,0 c -0.99626,0.19925 -2.78952,0.59775 -3.98503,1.49438 0.99626,-1.09588 0.99626,-1.89288 0,-2.98876 C -0.3985,-0.59775 1.39476,-0.19925 2.39102,0 Z"
       style="fill:#000000;fill-opacity:1;fill-rule:nonzero;stroke:none"
       transform="matrix(1.3333333,0,0,-1.3333333,536.76677,32.730667)" />
    <g
       id="g47"
       aria-label="ψ&#10;FM&#10;(t)"
       transform="matrix(1.3333333,0,0,1.3333333,486.07333,24.716)">
      <path
         id="path48"
         d="m 4.8053516,-6.6571172 c 0.011719,-0.035156 0.023437,-0.09375 0.023437,-0.1523437 0,-0.09375 -0.070312,-0.1054688 -0.1171875,-0.1054688 -0.09375,0 -0.1054688,0.023437 -0.1523438,0.1992188 l -1.6523437,6.58593746 c -0.75,-0.09375 -1.1367188,-0.45703125 -1.1367188,-1.11328126 0,-0.1992187 0,-0.4570312 0.5390625,-1.8515625 0.046875,-0.1289062 0.1171875,-0.2929687 0.1171875,-0.4921875 0,-0.4453125 -0.328125,-0.8203125 -0.8203125,-0.8203125 -0.94921874,0 -1.31249999,1.453125 -1.31249999,1.5351563 0,0.1054687 0.09375,0.1054687 0.1171875,0.1054687 0.09375,0 0.10546875,-0.023437 0.15234375,-0.1875 0.26953125,-0.9375 0.66796874,-1.2304687 1.00781254,-1.2304687 0.082031,0 0.2578125,0 0.2578125,0.3164062 0,0.2578125 -0.1054688,0.515625 -0.234375,0.8554688 -0.4804688,1.2539062 -0.4804688,1.5117187 -0.4804688,1.6875 0,0.94921871 0.7851563,1.35937496 1.734375,1.41796871 -0.082031,0.3515625 -0.082031,0.375 -0.2226562,0.90234375 C 2.6022266,1.1006953 2.4030078,1.9092891 2.4030078,1.9444453 c 0,0.011719 0,0.09375 0.1171875,0.09375 0.023437,0 0.070312,0 0.09375,-0.035156 0.023437,-0.023437 0.082031,-0.2695313 0.1171875,-0.4101563 l 0.375,-1.48828124 c 0.375,0 1.2421875,0 2.1796875,-1.06640625 0.4101563,-0.45703121 0.6210938,-0.89062501 0.7265625,-1.19531251 0.09375,-0.2460937 0.3164063,-1.1132812 0.3164063,-1.546875 0,-0.5625 -0.2695313,-0.703125 -0.4453125,-0.703125 -0.2460938,0 -0.4921875,0.2578125 -0.4921875,0.4804688 0,0.1289062 0.058594,0.1875 0.1523437,0.2695312 0.1054688,0.1054688 0.3515625,0.3632813 0.3515625,0.84375 0,0.6445313 -0.515625,1.453125 -0.8671875,1.81640626 -0.8789062,0.890625 -1.5117187,0.890625 -1.875,0.890625 z m 0,0"
         style="fill:#000000;fill-opacity:1;fill-rule:nonzero;stroke:none" />
      <path
         id="path49"
         d="M 11.394219,-8.3504766 H 7.2340625 v 0.2460938 h 0.1757812 c 0.5273438,0 0.5507813,0.070312 0.5507813,0.3164062 v 3.609375 c 0,0.234375 -0.023437,0.3164063 -0.5507813,0.3164063 H 7.2340625 v 0.2460937 c 0.011719,0 0.796875,-0.023437 1.0664062,-0.023437 0.28125,0 1.1132813,0.011719 1.21875,0.023437 V -3.8621953 H 9.273125 c -0.65625,0 -0.65625,-0.09375 -0.65625,-0.328125 v -1.6757813 h 0.6796875 c 0.6914062,0 0.7968745,0.2109375 0.7968745,0.8203125 h 0.234375 v -1.8867187 h -0.234375 c 0,0.609375 -0.1054683,0.8203125 -0.7968745,0.8203125 H 8.616875 v -1.7109375 c 0,-0.2226563 0.011719,-0.28125 0.3398437,-0.28125 H 9.929375 c 1.125,0 1.3125,0.3867187 1.441406,1.359375 h 0.234375 z m 2.513672,0.1289063 c -0.07031,-0.1523438 -0.117188,-0.1523438 -0.269532,-0.1523438 h -1.21875 v 0.2460938 h 0.164063 c 0.539062,0 0.550781,0.070312 0.550781,0.3164062 v 3.4453125 c 0,0.1875 0,0.5039063 -0.714844,0.5039063 v 0.2460937 c 0.28125,-0.023437 0.5625,-0.023437 0.84375,-0.023437 0.292969,0 0.574219,0 0.855469,0.023437 v -0.2460937 c -0.714844,0 -0.714844,-0.3164063 -0.714844,-0.5039063 v -3.6796875 l 1.816407,4.265625 c 0.03516,0.082031 0.07031,0.1640625 0.175781,0.1640625 0.04687,0 0.105469,-0.023437 0.164062,-0.140625 l 1.839844,-4.359375 h 0.01172 v 3.9375 c 0,0.234375 -0.01172,0.3164063 -0.550781,0.3164063 h -0.164063 v 0.2460937 c 0.328125,-0.011719 0.726563,-0.023437 1.007813,-0.023437 0.28125,0 0.679687,0.011719 1.007812,0.023437 v -0.2460937 h -0.164062 c -0.539063,0 -0.550782,-0.070312 -0.550782,-0.3164063 v -3.6328125 c 0,-0.234375 0.01172,-0.3164062 0.550782,-0.3164062 h 0.164062 v -0.2460938 h -1.207031 c -0.140625,0 -0.210938,0 -0.257813,0.140625 l -1.675781,3.9492188 z m 0,0"
         style="fill:#000000;fill-opacity:1;fill-rule:nonzero;stroke:none" />
      <path
         id="path50"
         d="m 22.945977,2.3897578 c 0,-0.035156 0,-0.046875 -0.164063,-0.2226562 -1.242187,-1.25390629 -1.570312,-3.12890629 -1.570312,-4.6640625 0,-1.7226563 0.386718,-3.4570313 1.605468,-4.7109375 0.128907,-0.1171875 0.128907,-0.1289063 0.128907,-0.1640625 0,-0.070312 -0.03516,-0.1054688 -0.09375,-0.1054688 -0.105469,0 -0.996094,0.6796875 -1.582032,1.9453125 -0.515625,1.1015625 -0.632812,2.203125 -0.632812,3.0351563 0,0.7851562 0.117187,1.99218746 0.65625,3.11718746 0.597656,1.21875004 1.453125,1.87500004 1.558594,1.87500004 0.05859,0 0.09375,-0.035156 0.09375,-0.1054688 z m 0,0"
         style="fill:#000000;fill-opacity:1;fill-rule:nonzero;stroke:none" />
      <path
         id="path51"
         d="m 25.579766,-3.9852422 h 0.9375 c 0.199218,0 0.304687,0 0.304687,-0.1992187 0,-0.1054688 -0.105469,-0.1054688 -0.28125,-0.1054688 h -0.878906 c 0.363281,-1.4179687 0.410156,-1.6171875 0.410156,-1.6757812 0,-0.1757813 -0.117187,-0.2695313 -0.292969,-0.2695313 -0.02344,0 -0.304687,0.011719 -0.398437,0.3515625 l -0.386719,1.59375 h -0.9375 c -0.199219,0 -0.292969,0 -0.292969,0.1875 0,0.1171875 0.07031,0.1171875 0.269532,0.1171875 h 0.878906 c -0.714844,2.8242188 -0.75,3.00000001 -0.75,3.17578126 0,0.5390625 0.375,0.9140625 0.914062,0.9140625 1.007813,0 1.582032,-1.45312496 1.582032,-1.53515626 0,-0.09375 -0.08203,-0.09375 -0.117188,-0.09375 -0.09375,0 -0.105469,0.023437 -0.152344,0.140625 -0.433593,1.03125001 -0.960937,1.27734376 -1.300781,1.27734376 -0.199219,0 -0.304687,-0.12890625 -0.304687,-0.45703125 0,-0.24609375 0.02344,-0.31640625 0.05859,-0.48046871 z m 0,0"
         style="fill:#000000;fill-opacity:1;fill-rule:nonzero;stroke:none" />
      <path
         id="path52"
         d="m 30.006523,-2.4969609 c 0,-0.7734375 -0.117187,-1.9804688 -0.65625,-3.1054688 -0.597656,-1.21875 -1.464843,-1.875 -1.558593,-1.875 -0.05859,0 -0.105469,0.046875 -0.105469,0.1054688 0,0.035156 0,0.046875 0.199219,0.234375 0.972656,0.984375 1.535156,2.5664062 1.535156,4.640625 0,1.71093746 -0.363281,3.45703121 -1.59375,4.7226562 -0.140625,0.1171875 -0.140625,0.1289063 -0.140625,0.1640625 0,0.058594 0.04687,0.1054688 0.105469,0.1054688 0.09375,0 0.996093,-0.6796875 1.582031,-1.94531254 0.503906,-1.1015625 0.632812,-2.20312496 0.632812,-3.04687496 z m 0,0"
         style="fill:#000000;fill-opacity:1;fill-rule:nonzero;stroke:none" />
    </g>
    <g
       id="g52"
       transform="translate(40.381836,11.662559)">
      <path
         id="path20-6"
         d="m 200.30825,85.796211 c 0.0312,-0.171875 0.0781,-0.21875 0.23438,-0.234375 0.1875,-0.03125 0.32812,-0.03125 0.5,-0.03125 0.20312,0 0.29687,0 0.29687,-0.1875 0,-0.07813 -0.0625,-0.109374 -0.125,-0.109374 -0.1875,0 -0.35937,0.01563 -0.53125,0.01563 -0.1875,0 -0.375,0 -0.5625,0 -0.17187,0 -0.34375,0 -0.5,0 -0.15625,0 -0.32812,-0.01563 -0.48437,-0.01563 -0.0469,0 -0.15625,0 -0.15625,0.1875 0,0.109374 0.0781,0.109374 0.23437,0.109374 0.0781,0 0.29688,0 0.4375,0.03125 0,0.07813 0,0.09375 -0.0312,0.171875 l -0.85937,3.484374 c -0.0625,0.1875 -0.0625,0.25 -0.5625,0.25 -0.17188,0 -0.28125,0 -0.28125,0.1875 0,0.109375 0.10937,0.109375 0.21875,0.109375 h 3.76562 c 0.17188,0 0.17188,0 0.23438,-0.15625 0.0625,-0.171875 0.59375,-1.499999 0.59375,-1.531249 0,-0.04687 -0.0312,-0.125 -0.14063,-0.125 -0.0937,0 -0.10937,0.03125 -0.1875,0.203124 -0.34375,0.84375 -0.76562,1.3125 -1.85937,1.3125 h -0.92188 c -0.0625,0 -0.15625,0 -0.21875,-0.01563 0,-0.04687 0,-0.0625 0.0156,-0.125 z m 9.59766,1.203124 c 0,-1.078124 -0.875,-1.921874 -2.21875,-1.921874 -1.8125,0 -3.45313,1.5 -3.45313,2.9375 0,1.078124 0.89063,1.890624 2.23438,1.890624 1.79687,0 3.4375,-1.421875 3.4375,-2.90625 z m -3.35938,2.65625 c -0.67187,0 -1.54687,-0.34375 -1.54687,-1.546874 0,-1.53125 1.1875,-2.78125 2.60937,-2.78125 0.84375,0 1.57813,0.46875 1.57813,1.46875 0,0.40625 -0.15625,1.25 -0.76563,1.953124 -0.45312,0.53125 -1.17187,0.90625 -1.875,0.90625 z m 0,0"
         style="fill:#000000;fill-opacity:1;fill-rule:nonzero;stroke:none;stroke-width:1.33333"
         aria-label="LO" />
      <path
         id="path26-9"
         d="M 191.46892,87.496194 H 175.18803"
         style="fill:none;stroke:#000000;stroke-width:0.531333;stroke-linecap:butt;stroke-linejoin:miter;stroke-miterlimit:10;stroke-dasharray:none;stroke-opacity:1"
         sodipodi:nodetypes="cc" />
      <path
         id="path27-4"
         d="m 172,87.496195 c 1.32835,0.265667 3.71936,0.797 5.31338,1.992507 -1.32835,-1.461174 -1.32835,-2.52384 0,-3.985014 -1.59402,1.195507 -3.98503,1.72684 -5.31338,1.992507 z"
         style="fill:#000000;fill-opacity:1;fill-rule:nonzero;stroke:none;stroke-width:1.33333" />
      <path
         id="path28-1"
         d="m 235.81421,33 v 54.496194 h -19.4993"
         style="fill:none;stroke:#000000;stroke-width:0.531333;stroke-linecap:butt;stroke-linejoin:miter;stroke-miterlimit:10;stroke-dasharray:none;stroke-opacity:1"
         sodipodi:nodetypes="ccc" />
      <circle
         style="fill:none;stroke:#000000;stroke-width:0.531;stroke-dasharray:none;stroke-opacity:1"
         id="path40-3"
         cx="203.91177"
         cy="87.491524"
         r="12.390406" />
    </g>
  </g>
</svg>
