<?xml version="1.0" encoding="UTF-8" standalone="no"?>
<!-- Created with Inkscape (http://www.inkscape.org/) -->

<svg
   width="110.42151mm"
   height="49.703915mm"
   viewBox="0 0 110.42151 49.703915"
   version="1.1"
   id="svg1"
   inkscape:export-filename="PLL.svg"
   inkscape:export-xdpi="300"
   inkscape:export-ydpi="300"
   xmlns:inkscape="http://www.inkscape.org/namespaces/inkscape"
   xmlns:sodipodi="http://sodipodi.sourceforge.net/DTD/sodipodi-0.dtd"
   xmlns="http://www.w3.org/2000/svg"
   xmlns:svg="http://www.w3.org/2000/svg"
   xmlns:ns13="http://www.iki.fi/pav/software/textext/">
  <sodipodi:namedview
     id="namedview1"
     pagecolor="#ffffff"
     bordercolor="#666666"
     borderopacity="1.0"
     inkscape:showpageshadow="2"
     inkscape:pageopacity="0.0"
     inkscape:pagecheckerboard="0"
     inkscape:deskcolor="#d1d1d1"
     inkscape:document-units="mm"
     inkscape:zoom="2.8417998"
     inkscape:cx="208.67057"
     inkscape:cy="93.954541"
     inkscape:window-width="1280"
     inkscape:window-height="1387"
     inkscape:window-x="0"
     inkscape:window-y="25"
     inkscape:window-maximized="0"
     inkscape:current-layer="layer1"
     showgrid="false">
    <inkscape:grid
       id="grid39"
       units="mm"
       originx="-30.395969"
       originy="-83.840454"
       spacingx="0.26458333"
       spacingy="0.26458334"
       empcolor="#0099e5"
       empopacity="0.30196078"
       color="#0099e5"
       opacity="0.14901961"
       empspacing="5"
       enabled="true"
       visible="false" />
    <inkscape:page
       x="0"
       y="0"
       width="110.42152"
       height="49.703915"
       id="page2"
       margin="0"
       bleed="0" />
  </sodipodi:namedview>
  <defs
     id="defs1">
    <marker
       style="overflow:visible"
       id="marker75"
       refX="-37"
       refY="0"
       orient="auto"
       inkscape:stockid="Colored triangle"
       markerWidth="1"
       markerHeight="1"
       viewBox="0 0 1 1"
       inkscape:isstock="true"
       inkscape:collect="always"
       preserveAspectRatio="xMidYMid">
      <path
         style="fill:context-fill;fill-rule:evenodd;stroke:context-stroke;stroke-width:1"
         d="M 2.885,0 -1.44,2.5 v -5 z"
         id="path75" />
    </marker>
    <marker
       style="overflow:visible"
       id="marker74"
       refX="0"
       refY="0"
       orient="auto-start-reverse"
       inkscape:stockid="Colored triangle"
       markerWidth="1"
       markerHeight="1"
       viewBox="0 0 1 1"
       inkscape:isstock="true"
       inkscape:collect="always"
       preserveAspectRatio="xMidYMid">
      <path
         transform="scale(0.5)"
         style="fill:context-fill;fill-rule:evenodd;stroke:context-stroke;stroke-width:2"
         d="M 5.77,0 -2.88,5 V -5 Z"
         id="path74" />
    </marker>
    <marker
       style="overflow:visible"
       id="marker71"
       refX="0"
       refY="0"
       orient="auto-start-reverse"
       inkscape:stockid="Colored triangle"
       markerWidth="1"
       markerHeight="1"
       viewBox="0 0 1 1"
       inkscape:isstock="true"
       inkscape:collect="always"
       preserveAspectRatio="xMidYMid">
      <path
         transform="scale(0.5)"
         style="fill:context-fill;fill-rule:evenodd;stroke:context-stroke;stroke-width:2"
         d="M 5.77,0 -2.88,5 V -5 Z"
         id="path71" />
    </marker>
    <marker
       style="overflow:visible"
       id="marker70"
       refX="27"
       refY="0"
       orient="auto-start-reverse"
       inkscape:stockid="Colored triangle"
       markerWidth="1"
       markerHeight="1"
       viewBox="0 0 1 1"
       inkscape:isstock="true"
       inkscape:collect="always"
       preserveAspectRatio="xMidYMid">
      <path
         transform="scale(0.5)"
         style="fill:context-fill;fill-rule:evenodd;stroke:context-stroke;stroke-width:2"
         d="M 5.77,0 -2.88,5 V -5 Z"
         id="path70" />
    </marker>
    <marker
       style="overflow:visible"
       id="marker67"
       refX="0"
       refY="0"
       orient="auto-start-reverse"
       inkscape:stockid="Colored triangle"
       markerWidth="1"
       markerHeight="1"
       viewBox="0 0 1 1"
       inkscape:isstock="true"
       inkscape:collect="always"
       preserveAspectRatio="xMidYMid">
      <path
         transform="scale(0.5)"
         style="fill:context-fill;fill-rule:evenodd;stroke:context-stroke;stroke-width:2"
         d="M 5.77,0 -2.88,5 V -5 Z"
         id="path67" />
    </marker>
    <marker
       style="overflow:visible"
       id="ColoredTriangle"
       refX="0"
       refY="0"
       orient="auto-start-reverse"
       inkscape:stockid="Colored triangle"
       markerWidth="1"
       markerHeight="1"
       viewBox="0 0 1 1"
       inkscape:isstock="true"
       inkscape:collect="always"
       preserveAspectRatio="xMidYMid">
      <path
         transform="scale(0.5)"
         style="fill:context-fill;fill-rule:evenodd;stroke:context-stroke;stroke-width:2"
         d="M 5.77,0 -2.88,5 V -5 Z"
         id="path5" />
    </marker>
  </defs>
  <g
     inkscape:label="Layer 1"
     inkscape:groupmode="layer"
     id="layer1"
     transform="translate(-30.396,-83.8405)">
    <path
       id="path11"
       d="M 30.395968,94.016969 H 50.805523"
       style="fill:none;fill-opacity:1;stroke:#000000;stroke-width:0.352778;stroke-linecap:butt;stroke-linejoin:miter;stroke-miterlimit:10;stroke-dasharray:none;stroke-opacity:1;marker-end:url(#marker67)"
       sodipodi:nodetypes="cc" />
    <path
       id="path22"
       d="m 80.465708,133.36798 v -20.00025 h 25.000312 v 20.00025 z"
       style="fill:none;stroke:#000000;stroke-width:0.352778;stroke-linecap:butt;stroke-linejoin:miter;stroke-miterlimit:10;stroke-dasharray:none;stroke-opacity:1" />
    <path
       id="path24"
       d="M 58.017268,94.016969 H 79.066354"
       style="fill:none;fill-opacity:1;stroke:#000000;stroke-width:0.352778;stroke-linecap:butt;stroke-linejoin:miter;stroke-miterlimit:10;stroke-dasharray:none;stroke-opacity:1;marker-end:url(#ColoredTriangle)"
       sodipodi:nodetypes="cc" />
    <path
       id="path26"
       d="M 80.465708,104.01709 V 84.016842 h 25.000312 v 20.000248 z"
       style="fill:none;stroke:#000000;stroke-width:0.352778;stroke-linecap:butt;stroke-linejoin:miter;stroke-miterlimit:10;stroke-dasharray:none;stroke-opacity:1" />
    <g
       id="g63"
       transform="matrix(0.26458333,0,0,0.26458333,-22.684029,76.394528)"
       style="fill:none;stroke-width:1.33333;stroke-dasharray:none">
      <path
         id="path41-1"
         d="m 305.08743,66.604506 c 0,-6.262346 -5.0765,-11.33884 -11.33883,-11.33884 -6.26233,0 -11.33883,5.076494 -11.33883,11.33884 0,6.262333 5.0765,11.338827 11.33883,11.338827 6.26233,0 11.33883,-5.076494 11.33883,-11.338827 z"
         style="fill:none;stroke:#000000;stroke-width:1.33333;stroke-linecap:butt;stroke-linejoin:miter;stroke-miterlimit:10;stroke-dasharray:none;stroke-opacity:1" />
      <path
         style="fill:none;stroke:#000000;stroke-width:1.33333;stroke-linecap:butt;stroke-linejoin:miter;stroke-dasharray:none;stroke-opacity:1"
         d="M 301.80967,74.528714 285.6407,58.359736"
         id="path55-7"
         sodipodi:nodetypes="cc" />
      <path
         style="fill:none;stroke:#000000;stroke-width:1.33333;stroke-linecap:butt;stroke-linejoin:miter;stroke-dasharray:none;stroke-opacity:1"
         d="M 301.80967,58.359738 285.6407,74.528712"
         id="path63"
         sodipodi:nodetypes="cc" />
    </g>
    <g
       transform="matrix(0.49781652,0,0,0.49781652,87.082139,92.266768)"
       ns13:version="1.10.2"
       ns13:texconverter="pdflatex"
       ns13:pdfconverter="inkscape"
       ns13:text="Filter"
       ns13:preamble="/Users/hasanabbas/Library/Application Support/org.inkscape.Inkscape/config/inkscape/extensions/textext/default_packages.tex"
       ns13:scale="1.0"
       ns13:alignment="middle center"
       ns13:stroke-to-path="0"
       ns13:jacobian_sqrt="0.352778"
       id="g7"
       style="stroke-width:0.70865;stroke-dasharray:none">
      <defs
         id="id-dc23b6f5-8370-4f5c-b413-2499549a9fdd" />
      <g
         fill="#000000"
         fill-opacity="1"
         id="id-4fafe729-5499-4705-a125-917cc0ac3258"
         transform="translate(-149.04,-127.843)"
         style="stroke-width:0.70865;stroke-dasharray:none">
        <g
           transform="translate(148.712,134.765)"
           id="g1"
           style="stroke-width:0.70865;stroke-dasharray:none">
          <path
             d="m 5.796875,-6.78125 h -5.46875 v 0.3125 H 0.5625 c 0.765625,0 0.796875,0.109375 0.796875,0.46875 v 5.21875 c 0,0.359375 -0.03125,0.46875 -0.796875,0.46875 H 0.328125 V 0 c 0.34375,-0.03125 1.125,-0.03125 1.515625,-0.03125 0.40625,0 1.3125,0 1.671875,0.03125 V -0.3125 H 3.1875 C 2.25,-0.3125 2.25,-0.4375 2.25,-0.78125 v -2.453125 h 0.84375 c 0.96875,0 1.0625,0.3125 1.0625,1.15625 h 0.25 V -4.71875 h -0.25 c 0,0.84375 -0.09375,1.171875 -1.0625,1.171875 H 2.25 v -2.53125 c 0,-0.328125 0.015625,-0.390625 0.484375,-0.390625 h 1.1875 c 1.5,0 1.75,0.5625 1.90625,1.9375 h 0.25 z m 0,0"
             id="id-f6fb9f51-fa0f-4711-841e-dfcfba9816ba"
             style="stroke-width:0.70865;stroke-dasharray:none" />
        </g>
        <g
           transform="translate(155.216,134.765)"
           id="g2"
           style="stroke-width:0.70865;stroke-dasharray:none">
          <path
             d="M 1.765625,-4.40625 0.375,-4.296875 v 0.3125 c 0.640625,0 0.734375,0.0625 0.734375,0.546875 V -0.75 c 0,0.4375 -0.109375,0.4375 -0.78125,0.4375 V 0 C 0.640625,-0.015625 1.1875,-0.03125 1.421875,-0.03125 1.78125,-0.03125 2.125,-0.015625 2.46875,0 v -0.3125 c -0.671875,0 -0.703125,-0.046875 -0.703125,-0.4375 z m 0.03125,-1.734375 c 0,-0.3125 -0.234375,-0.53125 -0.515625,-0.53125 -0.3125,0 -0.53125,0.265625 -0.53125,0.53125 0,0.265625 0.21875,0.53125 0.53125,0.53125 0.28125,0 0.515625,-0.21875 0.515625,-0.53125 z m 0,0"
             id="id-3e3eb285-5216-4280-8972-1967e6015934"
             style="stroke-width:0.70865;stroke-dasharray:none" />
        </g>
        <g
           transform="translate(157.983,134.765)"
           id="g3"
           style="stroke-width:0.70865;stroke-dasharray:none">
          <path
             d="M 1.765625,-6.921875 0.328125,-6.8125 V -6.5 c 0.703125,0 0.78125,0.0625 0.78125,0.5625 V -0.75 c 0,0.4375 -0.109375,0.4375 -0.78125,0.4375 V 0 C 0.65625,-0.015625 1.1875,-0.03125 1.4375,-0.03125 c 0.25,0 0.734375,0.015625 1.109375,0.03125 v -0.3125 c -0.671875,0 -0.78125,0 -0.78125,-0.4375 z m 0,0"
             id="id-e54d69ca-935f-4cd2-9faa-9ecd5cce79f4"
             style="stroke-width:0.70865;stroke-dasharray:none" />
        </g>
        <g
           transform="translate(160.751,134.765)"
           id="g4"
           style="stroke-width:0.70865;stroke-dasharray:none">
          <path
             d="m 1.71875,-3.984375 h 1.4375 v -0.3125 H 1.71875 V -6.125 h -0.25 c 0,0.8125 -0.296875,1.875 -1.28125,1.921875 v 0.21875 h 0.84375 v 2.75 c 0,1.21875 0.9375,1.34375 1.296875,1.34375 0.703125,0 0.984375,-0.703125 0.984375,-1.34375 v -0.5625 h -0.25 V -1.25 c 0,0.734375 -0.296875,1.109375 -0.671875,1.109375 -0.671875,0 -0.671875,-0.90625 -0.671875,-1.078125 z m 0,0"
             id="id-d693feaf-bf43-4174-9f1c-6ba14804bea4"
             style="stroke-width:0.70865;stroke-dasharray:none" />
        </g>
        <g
           transform="translate(164.625,134.765)"
           id="g5"
           style="stroke-width:0.70865;stroke-dasharray:none">
          <path
             d="M 1.109375,-2.515625 C 1.171875,-4 2.015625,-4.25 2.359375,-4.25 c 1.015625,0 1.125,1.34375 1.125,1.734375 z m 0,0.21875 h 2.78125 c 0.21875,0 0.25,0 0.25,-0.21875 0,-0.984375 -0.546875,-1.953125 -1.78125,-1.953125 -1.15625,0 -2.078125,1.03125 -2.078125,2.28125 0,1.328125 1.046875,2.296875 2.1875,2.296875 C 3.6875,0.109375 4.140625,-1 4.140625,-1.1875 4.140625,-1.28125 4.0625,-1.3125 4,-1.3125 c -0.078125,0 -0.109375,0.0625 -0.125,0.140625 -0.34375,1.03125 -1.25,1.03125 -1.34375,1.03125 -0.5,0 -0.890625,-0.296875 -1.125,-0.671875 -0.296875,-0.46875 -0.296875,-1.125 -0.296875,-1.484375 z m 0,0"
             id="id-1f0a50c0-b981-4be7-bb1a-bd2eb0e93329"
             style="stroke-width:0.70865;stroke-dasharray:none" />
        </g>
        <g
           transform="translate(169.053,134.765)"
           id="g6"
           style="stroke-width:0.70865;stroke-dasharray:none">
          <path
             d="M 1.671875,-3.3125 V -4.40625 L 0.28125,-4.296875 v 0.3125 c 0.703125,0 0.78125,0.0625 0.78125,0.5625 V -0.75 c 0,0.4375 -0.109375,0.4375 -0.78125,0.4375 V 0 c 0.390625,-0.015625 0.859375,-0.03125 1.140625,-0.03125 0.390625,0 0.859375,0 1.265625,0.03125 V -0.3125 H 2.46875 c -0.734375,0 -0.75,-0.109375 -0.75,-0.46875 V -2.3125 c 0,-0.984375 0.421875,-1.875 1.171875,-1.875 0.0625,0 0.09375,0 0.109375,0.015625 -0.03125,0 -0.234375,0.125 -0.234375,0.390625 0,0.265625 0.21875,0.421875 0.4375,0.421875 0.171875,0 0.421875,-0.125 0.421875,-0.4375 0,-0.3125 -0.3125,-0.609375 -0.734375,-0.609375 -0.734375,0 -1.09375,0.671875 -1.21875,1.09375 z m 0,0"
             id="id-5ecd2361-0142-4ffb-b21c-656d61850f1c"
             style="stroke-width:0.70865;stroke-dasharray:none" />
        </g>
      </g>
    </g>
    <g
       transform="matrix(0.49781652,0,0,0.49781652,87.642463,121.56339)"
       ns13:version="1.10.2"
       ns13:texconverter="pdflatex"
       ns13:pdfconverter="inkscape"
       ns13:text="VCO"
       ns13:preamble="/Users/hasanabbas/Library/Application Support/org.inkscape.Inkscape/config/inkscape/extensions/textext/default_packages.tex"
       ns13:scale="1.0"
       ns13:alignment="middle center"
       ns13:stroke-to-path="0"
       ns13:jacobian_sqrt="0.352778"
       id="g39"
       style="stroke-width:0.70865;stroke-dasharray:none">
      <defs
         id="id-9c07b170-4feb-4c00-adee-7924bb8e268d" />
      <g
         fill="#000000"
         fill-opacity="1"
         id="id-8dc0a4cd-5091-4faf-b97a-aa51c820214f"
         transform="translate(-148.9,-127.734)"
         style="stroke-width:0.70865;stroke-dasharray:none">
        <g
           transform="translate(148.712,134.765)"
           id="g36"
           style="stroke-width:0.70865;stroke-dasharray:none">
          <path
             d="M 6.1875,-5.828125 C 6.328125,-6.203125 6.59375,-6.484375 7.28125,-6.5 v -0.3125 c -0.3125,0.03125 -0.71875,0.03125 -0.96875,0.03125 -0.296875,0 -0.875,-0.015625 -1.140625,-0.03125 V -6.5 C 5.6875,-6.484375 5.90625,-6.234375 5.90625,-6 c 0,0.078125 -0.03125,0.140625 -0.046875,0.203125 L 4.03125,-1 2.125,-6.03125 C 2.0625,-6.171875 2.0625,-6.1875 2.0625,-6.203125 2.0625,-6.5 2.625,-6.5 2.875,-6.5 v -0.3125 c -0.359375,0.03125 -1.046875,0.03125 -1.421875,0.03125 -0.46875,0 -0.90625,-0.015625 -1.265625,-0.03125 V -6.5 c 0.65625,0 0.84375,0 0.984375,0.375 L 3.484375,0 c 0.0625,0.1875 0.109375,0.21875 0.25,0.21875 0.15625,0 0.1875,-0.046875 0.234375,-0.1875 z m 0,0"
             id="id-e41997a0-d8de-435b-a151-f11963cc539f"
             style="stroke-width:0.70865;stroke-dasharray:none" />
        </g>
      </g>
      <g
         fill="#000000"
         fill-opacity="1"
         id="id-f3753c73-2642-4dd3-a30f-bbdd5045b0ba"
         transform="translate(-148.9,-127.734)"
         style="stroke-width:0.70865;stroke-dasharray:none">
        <g
           transform="translate(155.905,134.765)"
           id="g37"
           style="stroke-width:0.70865;stroke-dasharray:none">
          <path
             d="m 0.5625,-3.40625 c 0,2.0625 1.609375,3.625 3.46875,3.625 1.625,0 2.59375,-1.390625 2.59375,-2.546875 C 6.625,-2.421875 6.625,-2.5 6.5,-2.5 6.390625,-2.5 6.390625,-2.4375 6.375,-2.328125 6.296875,-0.90625 5.234375,-0.09375 4.140625,-0.09375 c -0.609375,0 -2.5625,-0.328125 -2.5625,-3.3125 0,-2.96875 1.953125,-3.3125 2.5625,-3.3125 1.078125,0 1.96875,0.90625 2.171875,2.359375 C 6.328125,-4.21875 6.328125,-4.1875 6.46875,-4.1875 6.625,-4.1875 6.625,-4.21875 6.625,-4.421875 V -6.78125 c 0,-0.171875 0,-0.25 -0.109375,-0.25 -0.03125,0 -0.078125,0 -0.15625,0.125 l -0.5,0.734375 C 5.5,-6.53125 4.984375,-7.03125 4.03125,-7.03125 c -1.875,0 -3.46875,1.59375 -3.46875,3.625 z m 0,0"
             id="id-7bad3d09-5da1-46b8-ad4b-dd34c6d41d08"
             style="stroke-width:0.70865;stroke-dasharray:none" />
        </g>
        <g
           transform="translate(163.1,134.765)"
           id="g38"
           style="stroke-width:0.70865;stroke-dasharray:none">
          <path
             d="m 7.1875,-3.375 c 0,-2.03125 -1.5,-3.65625 -3.3125,-3.65625 -1.796875,0 -3.3125,1.59375 -3.3125,3.65625 0,2.046875 1.53125,3.59375 3.3125,3.59375 1.8125,0 3.3125,-1.578125 3.3125,-3.59375 z M 3.875,-0.046875 c -0.953125,0 -2.296875,-0.875 -2.296875,-3.46875 0,-2.578125 1.46875,-3.265625 2.296875,-3.265625 0.859375,0 2.28125,0.703125 2.28125,3.265625 0,2.640625 -1.359375,3.46875 -2.28125,3.46875 z m 0,0"
             id="id-a553a261-58b1-4d86-94dc-313f5d777bd3"
             style="stroke-width:0.70865;stroke-dasharray:none" />
        </g>
      </g>
    </g>
    <path
       style="fill:none;fill-opacity:1;stroke:#000000;stroke-width:0.352778;stroke-linecap:butt;stroke-linejoin:miter;stroke-dasharray:none;stroke-opacity:1;marker-start:url(#marker75);marker-end:url(#marker74)"
       d="M 80.394687,124.16301 H 55.017039 V 96.998448"
       id="path61"
       sodipodi:nodetypes="ccc" />
    <path
       style="fill:none;stroke:#000000;stroke-width:0.352778;stroke-linecap:butt;stroke-linejoin:miter;stroke-dasharray:none;stroke-opacity:1;marker-end:url(#marker71)"
       d="m 105.47559,123.81954 h 22.03622 V 93.573035 h 11.93544"
       id="path68"
       sodipodi:nodetypes="cccc" />
    <path
       style="fill:none;fill-opacity:1;stroke:#000000;stroke-width:0.352778;stroke-linecap:butt;stroke-linejoin:miter;stroke-dasharray:none;stroke-opacity:1;marker-start:url(#marker70)"
       d="m 127.38164,93.573035 h -22.0642"
       id="path64" />
    <g
       transform="matrix(0.352778,0,0,0.352778,56.550724,98.465523)"
       ns13:version="1.10.2"
       ns13:texconverter="pdflatex"
       ns13:pdfconverter="inkscape"
       ns13:text="$r(t)$"
       ns13:preamble="/Users/hasanabbas/Library/Application Support/org.inkscape.Inkscape/config/inkscape/extensions/textext/default_packages.tex"
       ns13:scale="1.0"
       ns13:alignment="middle center"
       ns13:stroke-to-path="0"
       ns13:jacobian_sqrt="0.352778"
       id="g79">
      <defs
         id="id-fd968b9d-4be4-404a-95a9-8c01c27e6771" />
      <g
         fill="#000000"
         fill-opacity="1"
         id="id-492e7efa-f2e0-4f3c-bef0-67cbf722c661"
         transform="translate(-149.009,-127.281)">
        <g
           transform="translate(148.712,134.765)"
           id="g75">
          <path
             d="m 0.875,-0.59375 c -0.03125,0.15625 -0.09375,0.390625 -0.09375,0.4375 0,0.171875 0.140625,0.265625 0.296875,0.265625 0.125,0 0.296875,-0.078125 0.375,-0.28125 C 1.46875,-0.203125 1.796875,-1.5625 1.84375,-1.75 c 0.078125,-0.328125 0.265625,-1.015625 0.3125,-1.296875 0.046875,-0.125 0.328125,-0.59375 0.5625,-0.8125 0.078125,-0.0625 0.375,-0.328125 0.796875,-0.328125 0.265625,0 0.40625,0.125 0.421875,0.125 -0.296875,0.046875 -0.515625,0.28125 -0.515625,0.546875 0,0.15625 0.109375,0.34375 0.375,0.34375 0.265625,0 0.546875,-0.234375 0.546875,-0.59375 0,-0.34375 -0.3125,-0.640625 -0.828125,-0.640625 C 2.875,-4.40625 2.4375,-3.921875 2.25,-3.640625 2.15625,-4.09375 1.796875,-4.40625 1.328125,-4.40625 0.875,-4.40625 0.6875,-4.015625 0.59375,-3.84375 0.421875,-3.5 0.296875,-2.90625 0.296875,-2.875 c 0,0.109375 0.09375,0.109375 0.109375,0.109375 0.109375,0 0.109375,-0.015625 0.171875,-0.234375 0.171875,-0.703125 0.375,-1.1875 0.734375,-1.1875 0.15625,0 0.296875,0.078125 0.296875,0.453125 0,0.21875 -0.03125,0.328125 -0.15625,0.84375 z m 0,0"
             id="id-ca90220a-4141-4628-a34d-ef645c56b1e3" />
        </g>
      </g>
      <g
         fill="#000000"
         fill-opacity="1"
         id="id-b593c2f6-7200-4d10-a1aa-2e6fcc8c832d"
         transform="translate(-149.009,-127.281)">
        <g
           transform="translate(153.484,134.765)"
           id="g76">
          <path
             d="m 3.296875,2.390625 c 0,-0.03125 0,-0.046875 -0.171875,-0.21875 C 1.890625,0.921875 1.5625,-0.96875 1.5625,-2.5 c 0,-1.734375 0.375,-3.46875 1.609375,-4.703125 0.125,-0.125 0.125,-0.140625 0.125,-0.171875 0,-0.078125 -0.03125,-0.109375 -0.09375,-0.109375 -0.109375,0 -1,0.6875 -1.59375,1.953125 -0.5,1.09375 -0.625,2.203125 -0.625,3.03125 0,0.78125 0.109375,1.984375 0.65625,3.125 C 2.25,1.84375 3.09375,2.5 3.203125,2.5 c 0.0625,0 0.09375,-0.03125 0.09375,-0.109375 z m 0,0"
             id="id-f0a12bb8-8cbf-4576-8feb-747c81dbf520" />
        </g>
      </g>
      <g
         fill="#000000"
         fill-opacity="1"
         id="id-e048f06c-2a76-46d8-a07f-b74172a30d84"
         transform="translate(-149.009,-127.281)">
        <g
           transform="translate(157.358,134.765)"
           id="g77">
          <path
             d="m 2.046875,-3.984375 h 0.9375 c 0.203125,0 0.3125,0 0.3125,-0.203125 0,-0.109375 -0.109375,-0.109375 -0.28125,-0.109375 h -0.875 C 2.5,-5.71875 2.546875,-5.90625 2.546875,-5.96875 c 0,-0.171875 -0.125,-0.265625 -0.296875,-0.265625 -0.03125,0 -0.3125,0 -0.390625,0.359375 L 1.46875,-4.296875 h -0.9375 c -0.203125,0 -0.296875,0 -0.296875,0.1875 0,0.125 0.078125,0.125 0.28125,0.125 h 0.875 C 0.671875,-1.15625 0.625,-0.984375 0.625,-0.8125 0.625,-0.265625 1,0.109375 1.546875,0.109375 2.5625,0.109375 3.125,-1.34375 3.125,-1.421875 3.125,-1.53125 3.046875,-1.53125 3.015625,-1.53125 2.921875,-1.53125 2.90625,-1.5 2.859375,-1.390625 2.4375,-0.34375 1.90625,-0.109375 1.5625,-0.109375 c -0.203125,0 -0.3125,-0.125 -0.3125,-0.453125 0,-0.25 0.03125,-0.3125 0.0625,-0.484375 z m 0,0"
             id="id-1696ee81-07b5-4ba8-9ecc-7b5ba02c33cf" />
        </g>
      </g>
      <g
         fill="#000000"
         fill-opacity="1"
         id="id-8d1e53dc-ca68-47a5-aa82-5ae363826304"
         transform="translate(-149.009,-127.281)">
        <g
           transform="translate(160.956,134.765)"
           id="g78">
          <path
             d="m 2.875,-2.5 c 0,-0.765625 -0.109375,-1.96875 -0.65625,-3.109375 -0.59375,-1.21875 -1.453125,-1.875 -1.546875,-1.875 -0.0625,0 -0.109375,0.046875 -0.109375,0.109375 0,0.03125 0,0.046875 0.1875,0.234375 0.984375,0.984375 1.546875,2.5625 1.546875,4.640625 0,1.71875 -0.359375,3.46875 -1.59375,4.71875 C 0.5625,2.34375 0.5625,2.359375 0.5625,2.390625 0.5625,2.453125 0.609375,2.5 0.671875,2.5 0.765625,2.5 1.671875,1.8125 2.25,0.546875 2.765625,-0.546875 2.875,-1.65625 2.875,-2.5 Z m 0,0"
             id="id-3fc03f92-e404-4fcc-9ac5-81b6ff8e8d0f" />
        </g>
      </g>
    </g>
    <g
       transform="matrix(0.352778,0,0,0.352778,72.8018,88.6895)"
       ns13:version="1.10.2"
       ns13:texconverter="pdflatex"
       ns13:pdfconverter="inkscape"
       ns13:text="$e(t)$"
       ns13:preamble="/Users/hasanabbas/Library/Application Support/org.inkscape.Inkscape/config/inkscape/extensions/textext/default_packages.tex"
       ns13:scale="1.0"
       ns13:alignment="middle center"
       ns13:stroke-to-path="0"
       ns13:jacobian_sqrt="0.352778"
       id="g97">
      <defs
         id="id-fbe7b9af-94f2-43ff-a9c6-35adc3b9dc4b" />
      <g
         fill="#000000"
         fill-opacity="1"
         id="id-cdd28e06-efc7-4e40-9121-d67f5fbe63d3"
         transform="translate(-149.165,-127.281)">
        <g
           transform="translate(148.712,134.765)"
           id="g93">
          <path
             d="m 1.859375,-2.296875 c 0.296875,0 1.03125,-0.03125 1.53125,-0.234375 0.703125,-0.296875 0.75,-0.890625 0.75,-1.03125 0,-0.4375 -0.375,-0.84375 -1.0625,-0.84375 -1.109375,0 -2.625,0.96875 -2.625,2.71875 0,1.015625 0.59375,1.796875 1.578125,1.796875 1.421875,0 2.25,-1.0625 2.25,-1.171875 0,-0.0625 -0.046875,-0.140625 -0.109375,-0.140625 -0.0625,0 -0.078125,0.03125 -0.140625,0.109375 -0.78125,0.984375 -1.875,0.984375 -1.984375,0.984375 -0.78125,0 -0.875,-0.84375 -0.875,-1.15625 0,-0.125 0.015625,-0.421875 0.15625,-1.03125 z m -0.46875,-0.21875 C 1.78125,-4.03125 2.8125,-4.1875 3.078125,-4.1875 c 0.453125,0 0.734375,0.296875 0.734375,0.625 0,1.046875 -1.59375,1.046875 -2.015625,1.046875 z m 0,0"
             id="id-c985b4e3-8509-4b8b-849f-c0b88cf6d079" />
        </g>
        <g
           transform="translate(148.712,134.765)"
           id="g98">
          <path
             d="m 1.859375,-2.296875 c 0.296875,0 1.03125,-0.03125 1.53125,-0.234375 0.703125,-0.296875 0.75,-0.890625 0.75,-1.03125 0,-0.4375 -0.375,-0.84375 -1.0625,-0.84375 -1.109375,0 -2.625,0.96875 -2.625,2.71875 0,1.015625 0.59375,1.796875 1.578125,1.796875 1.421875,0 2.25,-1.0625 2.25,-1.171875 0,-0.0625 -0.046875,-0.140625 -0.109375,-0.140625 -0.0625,0 -0.078125,0.03125 -0.140625,0.109375 -0.78125,0.984375 -1.875,0.984375 -1.984375,0.984375 -0.78125,0 -0.875,-0.84375 -0.875,-1.15625 0,-0.125 0.015625,-0.421875 0.15625,-1.03125 z m -0.46875,-0.21875 C 1.78125,-4.03125 2.8125,-4.1875 3.078125,-4.1875 c 0.453125,0 0.734375,0.296875 0.734375,0.625 0,1.046875 -1.59375,1.046875 -2.015625,1.046875 z m 0,0"
             id="path97" />
        </g>
      </g>
      <g
         fill="#000000"
         fill-opacity="1"
         id="id-1fc3d956-63cc-434f-a378-c71777d472d4"
         transform="translate(-149.165,-127.281)">
        <g
           transform="translate(153.351,134.765)"
           id="g94">
          <path
             d="m 3.296875,2.390625 c 0,-0.03125 0,-0.046875 -0.171875,-0.21875 C 1.890625,0.921875 1.5625,-0.96875 1.5625,-2.5 c 0,-1.734375 0.375,-3.46875 1.609375,-4.703125 0.125,-0.125 0.125,-0.140625 0.125,-0.171875 0,-0.078125 -0.03125,-0.109375 -0.09375,-0.109375 -0.109375,0 -1,0.6875 -1.59375,1.953125 -0.5,1.09375 -0.625,2.203125 -0.625,3.03125 0,0.78125 0.109375,1.984375 0.65625,3.125 C 2.25,1.84375 3.09375,2.5 3.203125,2.5 c 0.0625,0 0.09375,-0.03125 0.09375,-0.109375 z m 0,0"
             id="id-0efed40e-7238-46aa-84cf-0fdeca1d3c23" />
        </g>
      </g>
      <g
         fill="#000000"
         fill-opacity="1"
         id="id-500a80f8-37c7-4884-82c4-58b9ef9b7c8d"
         transform="translate(-149.165,-127.281)">
        <g
           transform="translate(157.226,134.765)"
           id="g95">
          <path
             d="m 2.046875,-3.984375 h 0.9375 c 0.203125,0 0.3125,0 0.3125,-0.203125 0,-0.109375 -0.109375,-0.109375 -0.28125,-0.109375 h -0.875 C 2.5,-5.71875 2.546875,-5.90625 2.546875,-5.96875 c 0,-0.171875 -0.125,-0.265625 -0.296875,-0.265625 -0.03125,0 -0.3125,0 -0.390625,0.359375 L 1.46875,-4.296875 h -0.9375 c -0.203125,0 -0.296875,0 -0.296875,0.1875 0,0.125 0.078125,0.125 0.28125,0.125 h 0.875 C 0.671875,-1.15625 0.625,-0.984375 0.625,-0.8125 0.625,-0.265625 1,0.109375 1.546875,0.109375 2.5625,0.109375 3.125,-1.34375 3.125,-1.421875 3.125,-1.53125 3.046875,-1.53125 3.015625,-1.53125 2.921875,-1.53125 2.90625,-1.5 2.859375,-1.390625 2.4375,-0.34375 1.90625,-0.109375 1.5625,-0.109375 c -0.203125,0 -0.3125,-0.125 -0.3125,-0.453125 0,-0.25 0.03125,-0.3125 0.0625,-0.484375 z m 0,0"
             id="id-7b8d05f5-b7bb-4a9f-9bfa-135fd7675b02" />
        </g>
      </g>
      <g
         fill="#000000"
         fill-opacity="1"
         id="id-f1245f68-741c-40f2-b128-6a3b706727e6"
         transform="translate(-149.165,-127.281)">
        <g
           transform="translate(160.823,134.765)"
           id="g96">
          <path
             d="m 2.875,-2.5 c 0,-0.765625 -0.109375,-1.96875 -0.65625,-3.109375 -0.59375,-1.21875 -1.453125,-1.875 -1.546875,-1.875 -0.0625,0 -0.109375,0.046875 -0.109375,0.109375 0,0.03125 0,0.046875 0.1875,0.234375 0.984375,0.984375 1.546875,2.5625 1.546875,4.640625 0,1.71875 -0.359375,3.46875 -1.59375,4.71875 C 0.5625,2.34375 0.5625,2.359375 0.5625,2.390625 0.5625,2.453125 0.609375,2.5 0.671875,2.5 0.765625,2.5 1.671875,1.8125 2.25,0.546875 2.765625,-0.546875 2.875,-1.65625 2.875,-2.5 Z m 0,0"
             id="id-d89b4dc8-4e06-4ad9-8e96-7ae2dbdc9465" />
        </g>
      </g>
    </g>
    <g
       transform="matrix(0.352778,0,0,0.352778,131.79,88.6892)"
       ns13:version="1.10.2"
       ns13:texconverter="pdflatex"
       ns13:pdfconverter="inkscape"
       ns13:text="$y(t)$"
       ns13:preamble="/Users/hasanabbas/Library/Application Support/org.inkscape.Inkscape/config/inkscape/extensions/textext/default_packages.tex"
       ns13:scale="1.0"
       ns13:alignment="middle center"
       ns13:stroke-to-path="0"
       ns13:jacobian_sqrt="0.352778"
       id="g139">
      <defs
         id="id-cb535b72-3d52-4378-9a90-a9b28e2e4830" />
      <g
         fill="#000000"
         fill-opacity="1"
         id="id-ad385df2-be55-42db-b295-41893021f407"
         transform="translate(-149.009,-127.281)">
        <g
           transform="translate(148.712,134.765)"
           id="g135">
          <path
             d="m 4.84375,-3.796875 c 0.046875,-0.140625 0.046875,-0.15625 0.046875,-0.234375 0,-0.171875 -0.140625,-0.265625 -0.296875,-0.265625 -0.09375,0 -0.25,0.0625 -0.34375,0.203125 -0.015625,0.0625 -0.109375,0.359375 -0.140625,0.546875 -0.078125,0.25 -0.140625,0.53125 -0.203125,0.796875 l -0.453125,1.796875 c -0.03125,0.140625 -0.46875,0.84375 -1.125,0.84375 -0.5,0 -0.609375,-0.4375 -0.609375,-0.8125 C 1.71875,-1.375 1.890625,-2 2.21875,-2.875 2.375,-3.28125 2.421875,-3.390625 2.421875,-3.59375 c 0,-0.4375 -0.3125,-0.8125 -0.8125,-0.8125 -0.953125,0 -1.3125,1.453125 -1.3125,1.53125 0,0.109375 0.09375,0.109375 0.109375,0.109375 0.109375,0 0.109375,-0.03125 0.15625,-0.1875 0.28125,-0.9375 0.671875,-1.234375 1.015625,-1.234375 0.078125,0 0.25,0 0.25,0.3125 0,0.25 -0.109375,0.515625 -0.171875,0.703125 -0.40625,1.0625 -0.578125,1.625 -0.578125,2.09375 0,0.890625 0.625,1.1875 1.21875,1.1875 0.390625,0 0.71875,-0.171875 1,-0.453125 -0.125,0.515625 -0.25,1.015625 -0.640625,1.546875 -0.265625,0.328125 -0.640625,0.625 -1.09375,0.625 -0.140625,0 -0.59375,-0.03125 -0.765625,-0.421875 0.15625,0 0.296875,0 0.421875,-0.125 C 1.328125,1.203125 1.421875,1.0625 1.421875,0.875 1.421875,0.5625 1.15625,0.53125 1.0625,0.53125 0.828125,0.53125 0.5,0.6875 0.5,1.171875 c 0,0.5 0.4375,0.875 1.0625,0.875 1.015625,0 2.046875,-0.90625 2.328125,-2.03125 z m 0,0"
             id="id-fdccd561-488a-4de6-8835-9144d5bad3a7" />
        </g>
      </g>
      <g
         fill="#000000"
         fill-opacity="1"
         id="id-9fc643dc-d963-47b7-b7be-b626ee7b64fa"
         transform="translate(-149.009,-127.281)">
        <g
           transform="translate(153.954,134.765)"
           id="g136">
          <path
             d="m 3.296875,2.390625 c 0,-0.03125 0,-0.046875 -0.171875,-0.21875 C 1.890625,0.921875 1.5625,-0.96875 1.5625,-2.5 c 0,-1.734375 0.375,-3.46875 1.609375,-4.703125 0.125,-0.125 0.125,-0.140625 0.125,-0.171875 0,-0.078125 -0.03125,-0.109375 -0.09375,-0.109375 -0.109375,0 -1,0.6875 -1.59375,1.953125 -0.5,1.09375 -0.625,2.203125 -0.625,3.03125 0,0.78125 0.109375,1.984375 0.65625,3.125 C 2.25,1.84375 3.09375,2.5 3.203125,2.5 c 0.0625,0 0.09375,-0.03125 0.09375,-0.109375 z m 0,0"
             id="id-cc37743f-17b4-4a2a-a03e-8665701600b9" />
        </g>
      </g>
      <g
         fill="#000000"
         fill-opacity="1"
         id="id-6cd336e5-e4c3-4c74-9bc1-125f4bfde620"
         transform="translate(-149.009,-127.281)">
        <g
           transform="translate(157.829,134.765)"
           id="g137">
          <path
             d="m 2.046875,-3.984375 h 0.9375 c 0.203125,0 0.3125,0 0.3125,-0.203125 0,-0.109375 -0.109375,-0.109375 -0.28125,-0.109375 h -0.875 C 2.5,-5.71875 2.546875,-5.90625 2.546875,-5.96875 c 0,-0.171875 -0.125,-0.265625 -0.296875,-0.265625 -0.03125,0 -0.3125,0 -0.390625,0.359375 L 1.46875,-4.296875 h -0.9375 c -0.203125,0 -0.296875,0 -0.296875,0.1875 0,0.125 0.078125,0.125 0.28125,0.125 h 0.875 C 0.671875,-1.15625 0.625,-0.984375 0.625,-0.8125 0.625,-0.265625 1,0.109375 1.546875,0.109375 2.5625,0.109375 3.125,-1.34375 3.125,-1.421875 3.125,-1.53125 3.046875,-1.53125 3.015625,-1.53125 2.921875,-1.53125 2.90625,-1.5 2.859375,-1.390625 2.4375,-0.34375 1.90625,-0.109375 1.5625,-0.109375 c -0.203125,0 -0.3125,-0.125 -0.3125,-0.453125 0,-0.25 0.03125,-0.3125 0.0625,-0.484375 z m 0,0"
             id="id-67025429-2006-4ee0-bdb5-b68fce963a40" />
        </g>
      </g>
      <g
         fill="#000000"
         fill-opacity="1"
         id="id-895f166b-b481-45f5-b5be-e7a68f0bcd7f"
         transform="translate(-149.009,-127.281)">
        <g
           transform="translate(161.426,134.765)"
           id="g138">
          <path
             d="m 2.875,-2.5 c 0,-0.765625 -0.109375,-1.96875 -0.65625,-3.109375 -0.59375,-1.21875 -1.453125,-1.875 -1.546875,-1.875 -0.0625,0 -0.109375,0.046875 -0.109375,0.109375 0,0.03125 0,0.046875 0.1875,0.234375 0.984375,0.984375 1.546875,2.5625 1.546875,4.640625 0,1.71875 -0.359375,3.46875 -1.59375,4.71875 C 0.5625,2.34375 0.5625,2.359375 0.5625,2.390625 0.5625,2.453125 0.609375,2.5 0.671875,2.5 0.765625,2.5 1.671875,1.8125 2.25,0.546875 2.765625,-0.546875 2.875,-1.65625 2.875,-2.5 Z m 0,0"
             id="id-897711c9-fe5b-43ee-a676-f2d471eb16e6" />
        </g>
      </g>
    </g>
    <g
       transform="matrix(0.352778,0,0,0.352778,36.1844,88.6893)"
       ns13:version="1.10.2"
       ns13:texconverter="pdflatex"
       ns13:pdfconverter="inkscape"
       ns13:text="$x(t)$"
       ns13:preamble="/Users/hasanabbas/Library/Application Support/org.inkscape.Inkscape/config/inkscape/extensions/textext/default_packages.tex"
       ns13:scale="1.0"
       ns13:alignment="middle center"
       ns13:stroke-to-path="0"
       ns13:jacobian_sqrt="0.352778"
       id="g117">
      <defs
         id="id-39fc82cd-767a-43a5-8f35-e9087b79c391" />
      <g
         fill="#000000"
         fill-opacity="1"
         id="id-c5dc48f4-fb98-4abc-a945-d5d5d7482607"
         transform="translate(-149.009,-127.281)">
        <g
           transform="translate(148.712,134.765)"
           id="g140">
          <path
             d="M 3.328125,-3.015625 C 3.390625,-3.265625 3.625,-4.1875 4.3125,-4.1875 c 0.046875,0 0.296875,0 0.5,0.125 C 4.53125,-4 4.34375,-3.765625 4.34375,-3.515625 c 0,0.15625 0.109375,0.34375 0.375,0.34375 0.21875,0 0.53125,-0.171875 0.53125,-0.578125 0,-0.515625 -0.578125,-0.65625 -0.921875,-0.65625 -0.578125,0 -0.921875,0.53125 -1.046875,0.75 -0.25,-0.65625 -0.78125,-0.75 -1.078125,-0.75 -1.03125,0 -1.609375,1.28125 -1.609375,1.53125 0,0.109375 0.109375,0.109375 0.125,0.109375 0.078125,0 0.109375,-0.03125 0.125,-0.109375 0.34375,-1.0625 1,-1.3125 1.34375,-1.3125 0.1875,0 0.53125,0.09375 0.53125,0.671875 0,0.3125 -0.171875,0.96875 -0.53125,2.375 -0.15625,0.609375 -0.515625,1.03125 -0.953125,1.03125 -0.0625,0 -0.28125,0 -0.5,-0.125 0.25,-0.0625 0.46875,-0.265625 0.46875,-0.546875 0,-0.265625 -0.21875,-0.34375 -0.359375,-0.34375 -0.3125,0 -0.546875,0.25 -0.546875,0.578125 0,0.453125 0.484375,0.65625 0.921875,0.65625 0.671875,0 1.03125,-0.703125 1.046875,-0.75 0.125,0.359375 0.484375,0.75 1.078125,0.75 1.03125,0 1.59375,-1.28125 1.59375,-1.53125 0,-0.109375 -0.078125,-0.109375 -0.109375,-0.109375 -0.09375,0 -0.109375,0.046875 -0.140625,0.109375 -0.328125,1.078125 -1,1.3125 -1.3125,1.3125 -0.390625,0 -0.546875,-0.3125 -0.546875,-0.65625 0,-0.21875 0.046875,-0.4375 0.15625,-0.875 z m 0,0"
             id="id-8048f0c7-19ab-4d03-922f-b64be7a7b209" />
        </g>
      </g>
      <g
         fill="#000000"
         fill-opacity="1"
         id="id-839d8d05-4f97-44b2-88ee-db7c837ecfcb"
         transform="translate(-149.009,-127.281)">
        <g
           transform="translate(154.406,134.765)"
           id="g141">
          <path
             d="m 3.296875,2.390625 c 0,-0.03125 0,-0.046875 -0.171875,-0.21875 C 1.890625,0.921875 1.5625,-0.96875 1.5625,-2.5 c 0,-1.734375 0.375,-3.46875 1.609375,-4.703125 0.125,-0.125 0.125,-0.140625 0.125,-0.171875 0,-0.078125 -0.03125,-0.109375 -0.09375,-0.109375 -0.109375,0 -1,0.6875 -1.59375,1.953125 -0.5,1.09375 -0.625,2.203125 -0.625,3.03125 0,0.78125 0.109375,1.984375 0.65625,3.125 C 2.25,1.84375 3.09375,2.5 3.203125,2.5 c 0.0625,0 0.09375,-0.03125 0.09375,-0.109375 z m 0,0"
             id="id-59889b6d-4390-4555-a673-90f058a748d9" />
        </g>
      </g>
      <g
         fill="#000000"
         fill-opacity="1"
         id="id-940063b1-dcaf-4b12-9bc4-6b2ec51f606c"
         transform="translate(-149.009,-127.281)">
        <g
           transform="translate(158.281,134.765)"
           id="g142">
          <path
             d="m 2.046875,-3.984375 h 0.9375 c 0.203125,0 0.3125,0 0.3125,-0.203125 0,-0.109375 -0.109375,-0.109375 -0.28125,-0.109375 h -0.875 C 2.5,-5.71875 2.546875,-5.90625 2.546875,-5.96875 c 0,-0.171875 -0.125,-0.265625 -0.296875,-0.265625 -0.03125,0 -0.3125,0 -0.390625,0.359375 L 1.46875,-4.296875 h -0.9375 c -0.203125,0 -0.296875,0 -0.296875,0.1875 0,0.125 0.078125,0.125 0.28125,0.125 h 0.875 C 0.671875,-1.15625 0.625,-0.984375 0.625,-0.8125 0.625,-0.265625 1,0.109375 1.546875,0.109375 2.5625,0.109375 3.125,-1.34375 3.125,-1.421875 3.125,-1.53125 3.046875,-1.53125 3.015625,-1.53125 2.921875,-1.53125 2.90625,-1.5 2.859375,-1.390625 2.4375,-0.34375 1.90625,-0.109375 1.5625,-0.109375 c -0.203125,0 -0.3125,-0.125 -0.3125,-0.453125 0,-0.25 0.03125,-0.3125 0.0625,-0.484375 z m 0,0"
             id="id-069c0426-afe8-457f-8963-86de41540a0f" />
        </g>
      </g>
      <g
         fill="#000000"
         fill-opacity="1"
         id="id-f33832c8-d79d-46a1-93ee-20e3c8088a93"
         transform="translate(-149.009,-127.281)">
        <g
           transform="translate(161.878,134.765)"
           id="g143">
          <path
             d="m 2.875,-2.5 c 0,-0.765625 -0.109375,-1.96875 -0.65625,-3.109375 -0.59375,-1.21875 -1.453125,-1.875 -1.546875,-1.875 -0.0625,0 -0.109375,0.046875 -0.109375,0.109375 0,0.03125 0,0.046875 0.1875,0.234375 0.984375,0.984375 1.546875,2.5625 1.546875,4.640625 0,1.71875 -0.359375,3.46875 -1.59375,4.71875 C 0.5625,2.34375 0.5625,2.359375 0.5625,2.390625 0.5625,2.453125 0.609375,2.5 0.671875,2.5 0.765625,2.5 1.671875,1.8125 2.25,0.546875 2.765625,-0.546875 2.875,-1.65625 2.875,-2.5 Z m 0,0"
             id="id-8c9cc5c0-a901-44eb-86a9-b59bbe531917" />
        </g>
      </g>
    </g>
  </g>
</svg>
