<?xml version="1.0" encoding="UTF-8" standalone="no"?>
<!-- Created with Inkscape (http://www.inkscape.org/) -->

<svg
   version="1.1"
   id="svg1"
   width="200.82668"
   height="167.85201"
   viewBox="0 0 200.82668 167.85201"
   sodipodi:docname="RC.pdf"
   xmlns:inkscape="http://www.inkscape.org/namespaces/inkscape"
   xmlns:sodipodi="http://sodipodi.sourceforge.net/DTD/sodipodi-0.dtd"
   xmlns="http://www.w3.org/2000/svg"
   xmlns:svg="http://www.w3.org/2000/svg">
  <defs
     id="defs1" />
  <sodipodi:namedview
     id="namedview1"
     pagecolor="#ffffff"
     bordercolor="#666666"
     borderopacity="1.0"
     inkscape:showpageshadow="2"
     inkscape:pageopacity="0.0"
     inkscape:pagecheckerboard="0"
     inkscape:deskcolor="#d1d1d1"
     showgrid="false">
    <inkscape:page
       x="0"
       y="0"
       inkscape:label="1"
       id="page1"
       width="200.82668"
       height="167.85201"
       margin="0"
       bleed="0" />
  </sodipodi:namedview>
  <g
     id="g1"
     inkscape:groupmode="layer"
     inkscape:label="1">
    <path
       id="path1"
       d="m 0,0 v 14.17339 m 0,0 V 28.3468 l 52.72513,-1e-5 m 7.93697,0 52.72514,1e-5 v -40.81941 m 0,-31.74839 v -40.81942 l -56.69362,2e-5 m 0,0 L 0,-85.04042 V -70.867 m 0,0 v 14.17338"
       style="fill:none;stroke:#000000;stroke-width:0.3985;stroke-linecap:butt;stroke-linejoin:miter;stroke-miterlimit:10;stroke-dasharray:none;stroke-opacity:1"
       transform="matrix(1.3333333,0,0,-1.3333333,26.436,54.2)"
       sodipodi:nodetypes="cccccccccccccccc" />
    <path
       id="path2"
       d="m 60.6621,40.2525 c -2.23502,-3.8813 -4.36535,-7.59585 -4.36535,-11.90571 0,-4.30985 2.13031,-8.0244 4.36535,-11.90572"
       style="fill:none;stroke:#000000;stroke-width:0.797;stroke-linecap:butt;stroke-linejoin:miter;stroke-miterlimit:10;stroke-dasharray:none;stroke-opacity:1"
       transform="matrix(1.3333333,0,0,-1.3333333,26.436,54.2)" />
    <path
       id="path3"
       d="M 52.72513,40.2525 V 16.44107"
       style="fill:none;stroke:#000000;stroke-width:0.797;stroke-linecap:butt;stroke-linejoin:miter;stroke-miterlimit:10;stroke-dasharray:none;stroke-opacity:1"
       transform="matrix(1.3333333,0,0,-1.3333333,26.436,54.2)" />
    <path
       id="path4"
       d="M 56.29675,28.34679 H 60.6621"
       style="fill:none;stroke:#000000;stroke-width:0.3985;stroke-linecap:butt;stroke-linejoin:miter;stroke-miterlimit:10;stroke-dasharray:none;stroke-opacity:1"
       transform="matrix(1.3333333,0,0,-1.3333333,26.436,54.2)" />
    <path
       id="path5"
       d="m 7.5698281,-6.9268047 c 0,-0.023437 -0.023437,-0.09375 -0.1054687,-0.09375 -0.035156,0 -0.046875,0.011719 -0.1523438,0.1171875 l -0.703125,0.7617188 c -0.082031,-0.140625 -0.5390625,-0.8789063 -1.6523437,-0.8789063 -2.2148438,0 -4.45312502,2.203125 -4.45312502,4.5117188 0,1.64062496 1.17187502,2.73046871 2.69531252,2.73046871 0.8671875,0 1.6171875,-0.3984375 2.1445312,-0.85546875 0.9375,-0.82031246 1.1015625,-1.72265626 1.1015625,-1.75781246 0,-0.1054688 -0.1054687,-0.1054688 -0.1171875,-0.1054688 -0.058594,0 -0.1171875,0.023437 -0.1289062,0.1054688 -0.09375,0.2929687 -0.3164063,0.9960937 -1.0078125,1.57031246 -0.6914063,0.5625 -1.3125,0.7265625 -1.8398438,0.7265625 -0.890625,0 -1.9453125,-0.515625 -1.9453125,-2.06249996 0,-0.5742188 0.2109375,-2.1914063 1.2070313,-3.3515625 0.609375,-0.703125 1.5351562,-1.2070313 2.4257812,-1.2070313 1.0195313,0 1.6054688,0.7734375 1.6054688,1.921875 0,0.3984375 -0.035156,0.4101563 -0.035156,0.5039063 0,0.1054687 0.1171875,0.1054687 0.1523438,0.1054687 0.1289062,0 0.1289062,-0.023437 0.1757812,-0.1992187 z m 0,0"
       style="fill:#000000;fill-opacity:1;fill-rule:nonzero;stroke:none"
       aria-label="C"
       transform="matrix(1.3333333,0,0,1.3333333,96.805333,47.169333)" />
    <path
       id="path6"
       d="m 113.38724,-12.0741 5.95285,-1.73796 -11.9057,-2.67889 11.9057,-2.6789 -11.9057,-2.67887 11.9057,-2.6789 -11.9057,-2.67889 11.9057,-2.67889 -11.9057,-2.6789 11.9057,-2.6789 -11.9057,-2.67889 11.9057,-2.67889 -11.9057,-2.6789 5.95285,-1.33944"
       style="fill:none;stroke:#000000;stroke-width:0.797;stroke-linecap:butt;stroke-linejoin:bevel;stroke-miterlimit:10;stroke-dasharray:none;stroke-opacity:1"
       transform="matrix(1.3333333,0,0,-1.3333333,26.436,54.2)" />
    <path
       id="path7"
       d="m 3.7374219,-6.1175859 c 0.058594,-0.234375 0.082031,-0.3398438 0.28125,-0.3632813 0.082031,-0.011719 0.3984375,-0.011719 0.5976562,-0.011719 0.7148438,0 1.8164063,0 1.8164063,0.984375 0,0.3398437 -0.1523438,1.0195312 -0.5507813,1.4179687 C 5.6241406,-3.83243 5.0967969,-3.5160237 4.2061719,-3.5160237 H 3.0928906 Z m 1.4296875,2.7304687 c 1.0078125,-0.2226562 2.1914062,-0.9140625 2.1914062,-1.921875 0,-0.8554687 -0.890625,-1.5 -2.203125,-1.5 H 2.3194531 c -0.1992187,0 -0.2929687,0 -0.2929687,0.1992188 0,0.1171875 0.09375,0.1171875 0.28125,0.1171875 0.023437,0 0.2109375,0 0.3867187,0.011719 0.1757813,0.023437 0.2578125,0.035156 0.2578125,0.1640625 0,0.035156 0,0.070312 -0.035156,0.1875 l -1.3359375,5.35546876 c -0.09375,0.38671875 -0.1171875,0.46875 -0.90234378,0.46875 -0.17578125,0 -0.26953125,0 -0.26953125,0.19921875 0,0.1054687525 0.1171875,0.1054687525 0.140625,0.1054687525 0.28125,0 0.97265623,-0.0351562525 1.25390623,-0.0351562525 0.28125,0 0.984375,0.0351562525 1.265625,0.0351562525 0.082031,0 0.1992188,0 0.1992188,-0.1992187525 0,-0.10546875 -0.09375,-0.10546875 -0.28125,-0.10546875 -0.3632813,0 -0.6445313,0 -0.6445313,-0.1875 0,-0.0585938 0.011719,-0.10546875 0.023437,-0.1640625 l 0.65625,-2.63671876 h 1.1953125 c 0.9023438,0 1.078125,0.5507813 1.078125,0.9023438 0,0.1523437 -0.082031,0.4570312 -0.140625,0.6914062 -0.070312,0.2695313 -0.1523437,0.6445313 -0.1523437,0.84375001 0,1.078125 1.1953125,1.078125 1.3242187,1.078125 0.84375,0 1.1953125,-1.0078125 1.1953125,-1.1484375 0,-0.11718751 -0.1171875,-0.11718751 -0.1171875,-0.11718751 -0.09375,0 -0.1171875,0.0703125 -0.1289062,0.14062501 -0.2578125,0.73828125 -0.6796875,0.9023437525 -0.9140625,0.9023437525 -0.328125,0 -0.3984375,-0.2226562525 -0.3984375,-0.6093750025 0,-0.3046875 0.058594,-0.82031246 0.1054687,-1.13671876 0.011719,-0.140625 0.035156,-0.328125 0.035156,-0.46875 0,-0.7617187 -0.6679688,-1.078125 -0.9374994,-1.1718753 z m 0,0"
       style="fill:#000000;fill-opacity:1;fill-rule:nonzero;stroke:none"
       aria-label="R"
       transform="matrix(1.3333333,0,0,1.3333333,188.49333,94.856)" />
    <path
       id="path8"
       d="m 1.58714,-56.69362 c 0,0.87657 -0.71058,1.58716 -1.58714,1.58716 -0.87656,0 -1.58714,-0.71059 -1.58714,-1.58716 0,-0.87656 0.71058,-1.58714 1.58714,-1.58714 0.87656,0 1.58714,0.71058 1.58714,1.58714 z"
       style="fill:#ffffff;fill-opacity:1;fill-rule:nonzero;stroke:#000000;stroke-width:0.3985;stroke-linecap:butt;stroke-linejoin:miter;stroke-miterlimit:10;stroke-dasharray:none;stroke-opacity:1"
       transform="matrix(1.3333333,0,0,-1.3333333,26.436,54.2)" />
    <path
       id="path9"
       d="M 1.58714,0 C 1.58714,0.87656 0.87656,1.58714 0,1.58714 -0.87656,1.58714 -1.58714,0.87656 -1.58714,0 c 0,-0.87656 0.71058,-1.58714 1.58714,-1.58714 0.87656,0 1.58714,0.71058 1.58714,1.58714 z"
       style="fill:#ffffff;fill-opacity:1;fill-rule:nonzero;stroke:#000000;stroke-width:0.3985;stroke-linecap:butt;stroke-linejoin:miter;stroke-miterlimit:10;stroke-dasharray:none;stroke-opacity:1"
       transform="matrix(1.3333333,0,0,-1.3333333,26.436,54.2)" />
    <path
       id="path15"
       d="m 4.0778047,-2.2982266 h 2.7773437 c 0.140625,0 0.328125,0 0.328125,-0.1992187 0,-0.1992188 -0.1875,-0.1992188 -0.328125,-0.1992188 H 4.0778047 v -2.7890625 c 0,-0.1289062 0,-0.328125 -0.1992188,-0.328125 -0.1992187,0 -0.1992187,0.1992188 -0.1992187,0.328125 v 2.7890625 H 0.89030469 c -0.140625,0 -0.328125,0 -0.328125,0.1992188 0,0.1992187 0.1875,0.1992187 0.328125,0.1992187 H 3.6793672 v 2.80078129 c 0,0.12890625 0,0.328125 0.1992187,0.328125 0.1992188,0 0.1992188,-0.19921875 0.1992188,-0.328125 z m 0,0"
       style="fill:#000000;fill-opacity:1;fill-rule:nonzero;stroke:none"
       aria-label="+"
       transform="matrix(1.3333333,0,0,1.3333333,31.129333,57.521333)" />
  </g>
</svg>
