<?xml version="1.0" encoding="UTF-8" standalone="no"?>
<!-- Created with Inkscape (http://www.inkscape.org/) -->

<svg
   version="1.1"
   id="svg1"
   width="177.99467"
   height="130.48399"
   viewBox="0 0 177.99467 130.48399"
   sodipodi:docname="signum.pdf"
   xmlns:inkscape="http://www.inkscape.org/namespaces/inkscape"
   xmlns:sodipodi="http://sodipodi.sourceforge.net/DTD/sodipodi-0.dtd"
   xmlns="http://www.w3.org/2000/svg"
   xmlns:svg="http://www.w3.org/2000/svg">
  <defs
     id="defs1" />
  <sodipodi:namedview
     id="namedview1"
     pagecolor="#ffffff"
     bordercolor="#000000"
     borderopacity="0.25"
     inkscape:showpageshadow="2"
     inkscape:pageopacity="0.0"
     inkscape:pagecheckerboard="0"
     inkscape:deskcolor="#d1d1d1">
    <inkscape:page
       x="0"
       y="0"
       inkscape:label="1"
       id="page1"
       width="177.99467"
       height="130.48399"
       margin="0"
       bleed="0" />
  </sodipodi:namedview>
  <g
     id="g1"
     inkscape:groupmode="layer"
     inkscape:label="1">
    <path
       id="path1"
       d="M -56.69362,0 H 56.23534"
       style="fill:none;stroke:#000000;stroke-width:0.3985;stroke-linecap:butt;stroke-linejoin:miter;stroke-miterlimit:10;stroke-dasharray:none;stroke-opacity:1"
       transform="matrix(1.3333333,0,0,-1.3333333,75.856,73.525333)" />
    <path
       id="path2"
       d="M -1.19551,1.59401 C -1.09587,0.99626 0,0.09961 0.29886,0 0,-0.09961 -1.09587,-0.99626 -1.19551,-1.59401"
       style="fill:none;stroke:#000000;stroke-width:0.31879;stroke-linecap:round;stroke-linejoin:round;stroke-miterlimit:10;stroke-dasharray:none;stroke-opacity:1"
       transform="matrix(1.3333333,0,0,-1.3333333,150.83645,73.525333)" />
    <g
       id="g2"
       aria-label="v&#10;in"
       transform="matrix(1.3333333,0,0,1.3333333,156.14,75.389333)">
      <path
         id="path3"
         d="m 4.6645313,-3.7021562 c 0,-0.5390625 -0.2578125,-0.703125 -0.4453125,-0.703125 -0.2460938,0 -0.4804688,0.2578125 -0.4804688,0.4804687 0,0.1289063 0.046875,0.1875 0.1523438,0.3046875 0.2109375,0.1992188 0.3398437,0.4570313 0.3398437,0.8085938 0,0.421875 -0.609375,2.7070312 -1.7695312,2.7070312 -0.5039063,0 -0.7382813,-0.3515625 -0.7382813,-0.8671875 0,-0.5625 0.2695313,-1.2890625 0.5742188,-2.1210937 0.070312,-0.1640625 0.1289062,-0.3046875 0.1289062,-0.4921875 0,-0.4453125 -0.328125,-0.8203125 -0.8203125,-0.8203125 -0.9375,0 -1.3125,1.453125 -1.3125,1.5351562 0,0.1054688 0.09375,0.1054688 0.1171875,0.1054688 0.09375,0 0.10546875,-0.023437 0.15234375,-0.1875 C 0.8559375,-3.94825 1.2895313,-4.182625 1.5707813,-4.182625 c 0.082031,0 0.2578125,0 0.2578125,0.3164063 0,0.2460937 -0.1054688,0.515625 -0.1757813,0.703125 -0.4335937,1.1484375 -0.5625,1.6054687 -0.5625,2.0390625 0,1.07812495 0.8671875,1.2304687 1.3359375,1.2304687 1.6640625,0 2.2382813,-3.2929687 2.2382813,-3.8085937 z m 0,0"
         style="fill:#000000;fill-opacity:1;fill-rule:nonzero;stroke:none" />
      <path
         id="path4"
         d="m 7.0903125,-2.8642656 c 0,-0.1054688 -0.082031,-0.2578125 -0.28125,-0.2578125 -0.1875,0 -0.3867187,0.1757812 -0.3867187,0.375 0,0.1171875 0.082031,0.2695312 0.2695312,0.2695312 0.2109375,0 0.3984375,-0.1992187 0.3984375,-0.3867187 z M 5.660625,0.67479688 c -0.023437,0.09375 -0.058594,0.17578125 -0.058594,0.29296875 0,0.32812497 0.28125,0.59765627 0.6679687,0.59765627 0.6914063,0 0.9960938,-0.96093752 0.9960938,-1.06640627 0,-0.09375 -0.082031,-0.09375 -0.1054688,-0.09375 -0.1054687,0 -0.1054687,0.046875 -0.140625,0.1171875 C 6.8676563,1.0849531 6.5629688,1.3662031 6.2817188,1.3662031 c -0.140625,0 -0.1757813,-0.082031 -0.1757813,-0.2460937 0,-0.15234377 0.058594,-0.29296877 0.1171875,-0.44531252 0.070312,-0.1875 0.140625,-0.375 0.2226563,-0.55078125 0.058594,-0.1640625 0.3164062,-0.80859375 0.3398437,-0.890625 0.023437,-0.0703125 0.046875,-0.15234375 0.046875,-0.22265625 0,-0.32812498 -0.28125,-0.58593748 -0.6679687,-0.58593748 -0.6914063,0 -1.0078125,0.94921873 -1.0078125,1.06640623 0,0.0820312 0.09375,0.0820312 0.1171875,0.0820312 0.09375,0 0.1054687,-0.0351563 0.1289062,-0.10546875 0.1757813,-0.59765628 0.4804688,-0.85546878 0.7382813,-0.85546878 0.1171875,0 0.1757812,0.058594 0.1757812,0.2460937 0,0.16406258 -0.035156,0.26953133 -0.2109375,0.70312508 z M 8.5024219,1.0615156 c -0.035156,0.082031 -0.070312,0.2578125 -0.070312,0.28125 0,0.1523438 0.1171875,0.2226563 0.234375,0.2226563 0.1289062,0 0.234375,-0.09375 0.2695312,-0.1523438 0.035156,-0.058594 0.09375,-0.2929687 0.1289063,-0.43359372 0.035156,-0.12890625 0.1054687,-0.45703125 0.1523437,-0.6328125 0.035156,-0.15234375 0.082031,-0.3046875 0.1171875,-0.45703125 0.082031,-0.29296875 0.09375,-0.3515625 0.2929688,-0.6328125 0.1992187,-0.28125003 0.5273446,-0.64453123 1.0429696,-0.64453123 0.410156,0 0.410156,0.3632812 0.410156,0.49218748 0,0.421875 -0.292969,1.1953125 -0.410156,1.48828125 -0.07031,0.1875 -0.105469,0.2578125 -0.105469,0.375 0,0.36328127 0.304687,0.59765627 0.667969,0.59765627 0.691406,0 1.007812,-0.96093752 1.007812,-1.06640627 0,-0.09375 -0.09375,-0.09375 -0.117187,-0.09375 -0.09375,0 -0.105469,0.046875 -0.128907,0.1171875 -0.164062,0.56249997 -0.46875,0.84374997 -0.738281,0.84374997 -0.152344,0 -0.175781,-0.09375 -0.175781,-0.2460937 0,-0.15234377 0.03516,-0.24609377 0.152343,-0.56250002 0.09375,-0.2109375 0.375,-0.94921875 0.375,-1.34765625 0,-0.66796873 -0.539063,-0.78515623 -0.902343,-0.78515623 -0.585939,0 -0.9726569,0.3515625 -1.1835944,0.63281248 -0.046875,-0.48046878 -0.4570312,-0.63281248 -0.75,-0.63281248 -0.2929687,0 -0.4570312,0.2109375 -0.5507812,0.375 -0.1523438,0.25781248 -0.2460938,0.65624998 -0.2460938,0.69140623 0,0.0820312 0.09375,0.0820312 0.1171875,0.0820312 0.09375,0 0.1054688,-0.0117188 0.1523438,-0.19921875 0.1054687,-0.42187508 0.234375,-0.76171878 0.515625,-0.76171878 0.1757812,0 0.2226562,0.1523438 0.2226562,0.3398438 0,0.14062498 -0.058594,0.39843748 -0.1054687,0.58593748 -0.046875,0.1875 -0.1171875,0.46875 -0.1523438,0.62109375 z m 0,0"
         style="fill:#000000;fill-opacity:1;fill-rule:nonzero;stroke:none" />
    </g>
    <path
       id="path5"
       d="M 0,-42.5202 V 42.06192"
       style="fill:none;stroke:#000000;stroke-width:0.3985;stroke-linecap:butt;stroke-linejoin:miter;stroke-miterlimit:10;stroke-dasharray:none;stroke-opacity:1"
       transform="matrix(1.3333333,0,0,-1.3333333,75.856,73.525333)" />
    <path
       id="path6"
       d="M -1.19551,1.59401 C -1.09587,0.99626 0,0.09961 0.29886,0 0,-0.09961 -1.09587,-0.99626 -1.19551,-1.59401"
       style="fill:none;stroke:#000000;stroke-width:0.31879;stroke-linecap:round;stroke-linejoin:round;stroke-miterlimit:10;stroke-dasharray:none;stroke-opacity:1"
       transform="matrix(0,-1.3333333,-1.3333333,0,75.856,17.442773)" />
    <g
       id="g6"
       aria-label="v&#10;out"
       transform="matrix(1.3333333,0,0,1.3333333,64.536,10.146667)">
      <path
         id="path7"
         d="m 4.6634297,-3.7017969 c 0,-0.5390625 -0.2578125,-0.703125 -0.4453125,-0.703125 -0.2460938,0 -0.4804688,0.2578125 -0.4804688,0.4804688 0,0.1289062 0.046875,0.1875 0.1523438,0.3046875 0.2109375,0.1992187 0.3398437,0.4570312 0.3398437,0.8085937 0,0.421875 -0.609375,2.70703128 -1.7695312,2.70703128 -0.5039063,0 -0.7382813,-0.3515625 -0.7382813,-0.8671875 0,-0.56249998 0.2695313,-1.28906248 0.5742188,-2.12109378 0.070312,-0.1640625 0.1289062,-0.3046875 0.1289062,-0.4921875 0,-0.4453125 -0.328125,-0.8203125 -0.8203125,-0.8203125 -0.93749996,0 -1.31249996,1.453125 -1.31249996,1.5351563 0,0.1054687 0.09375,0.1054687 0.1171875,0.1054687 0.09375,0 0.10546875,-0.023437 0.15234375,-0.1875 0.29296875,-0.9960937 0.72656251,-1.2304687 1.00781251,-1.2304687 0.082031,0 0.2578125,0 0.2578125,0.3164062 0,0.2460938 -0.1054688,0.515625 -0.1757813,0.703125 -0.4335937,1.1484375 -0.5625,1.6054688 -0.5625,2.0390625 0,1.07812503 0.8671875,1.23046878 1.3359375,1.23046878 1.6640625,0 2.2382813,-3.29296878 2.2382813,-3.80859378 z m 0,0"
         style="fill:#000000;fill-opacity:1;fill-rule:nonzero;stroke:none" />
      <path
         id="path8"
         d="m 8.5335469,-0.35609375 c 0,-0.77343745 -0.5742188,-1.21874995 -1.265625,-1.21874995 -1.03125,0 -2.0039063,0.96093745 -2.0039063,1.92187495 0,0.69140625 0.5039063,1.21875005 1.265625,1.21875005 0.9960938,0 2.0039063,-0.9257813 2.0039063,-1.92187505 z M 6.5413594,1.3665625 c -0.3515625,0 -0.703125,-0.2226562 -0.703125,-0.7734375 0,-0.28125 0.140625,-0.9609375 0.4101562,-1.359375 0.2929688,-0.4335937 0.703125,-0.6210937 1.0195313,-0.6210937 0.375,0 0.6914062,0.2578125 0.6914062,0.77343745 0,0.17578125 -0.082031,0.85546875 -0.3867187,1.34765625 -0.2695313,0.4101563 -0.6796875,0.6328125 -1.03125,0.6328125 z M 11.715187,0.37046875 c -0.03516,0.140625 -0.105468,0.3984375 -0.117187,0.41015625 -0.128906,0.2109375 -0.410156,0.5859375 -0.84375,0.5859375 -0.480469,0 -0.480469,-0.4453125 -0.480469,-0.57421875 C 10.273781,0.3821875 10.473,-0.11 10.6605,-0.625625 c 0.05859,-0.140625 0.105469,-0.24609375 0.105469,-0.3515625 0,-0.3632812 -0.304688,-0.5976562 -0.667969,-0.5976562 -0.6914063,0 -1.0078125,0.9492187 -1.0078125,1.0664062 0,0.0820313 0.09375,0.0820313 0.1171875,0.0820313 0.09375,0 0.1054687,-0.0351563 0.1289062,-0.10546875 0.1640625,-0.57421865 0.46875,-0.85546865 0.7382808,-0.85546865 0.128907,0 0.175782,0.082031 0.175782,0.2460937 0,0.16406245 -0.04687,0.30468745 -0.117188,0.46874995 -0.3867185,0.9609375 -0.3867185,1.16015625 -0.3867185,1.34765625 0,0.1171875 0,0.4453126 0.2695315,0.6679688 0.199218,0.1640625 0.46875,0.2226563 0.714843,0.2226563 0.433594,0 0.679688,-0.234375 0.902344,-0.4570313 0.152344,0.4453125 0.621094,0.4570313 0.703125,0.4570313 0.234375,0 0.421875,-0.140625 0.550781,-0.375 0.152344,-0.26953135 0.257813,-0.66796885 0.257813,-0.69140635 0,-0.09375 -0.105469,-0.09375 -0.117188,-0.09375 -0.105468,0 -0.105468,0.0351563 -0.164062,0.22265625 -0.08203,0.328125 -0.210938,0.7382813 -0.503906,0.7382813 -0.175782,0 -0.234375,-0.1523437 -0.234375,-0.3398437 0,-0.1171876 0.05859,-0.36328135 0.105468,-0.55078135 0.04687,-0.1875 0.117188,-0.46875 0.152344,-0.62109375 L 12.547219,-0.76625 c 0.04687,-0.17578125 0.117187,-0.4804687 0.117187,-0.515625 0,-0.140625 -0.105469,-0.2226562 -0.222656,-0.2226562 -0.257813,0 -0.316406,0.1992187 -0.363281,0.421875 z m 3.46875,-1.62890625 h 0.714844 c 0.128906,0 0.222656,0 0.222656,-0.1523437 0,-0.09375 -0.09375,-0.09375 -0.210937,-0.09375 H 15.25425 L 15.512062,-2.5475 c 0,-0.023437 0.02344,-0.058594 0.02344,-0.09375 0,-0.1289062 -0.105469,-0.2226562 -0.246094,-0.2226562 -0.175781,0 -0.28125,0.1171875 -0.328125,0.3046875 -0.04687,0.1757812 0.04687,-0.1640625 -0.257812,1.0546875 h -0.714844 c -0.128906,0 -0.222656,0 -0.222656,0.1523437 0,0.09375 0.08203,0.09375 0.210937,0.09375 h 0.65625 L 14.223,0.3821875 c -0.03516,0.17578125 -0.105469,0.43359375 -0.105469,0.515625 0,0.421875 0.351563,0.6679688 0.75,0.6679688 0.773438,0 1.21875,-0.9726563 1.21875,-1.0664063 0,-0.09375 -0.09375,-0.09375 -0.117187,-0.09375 -0.08203,0 -0.09375,0.0117188 -0.140625,0.12890625 -0.199219,0.4453125 -0.550782,0.83203125 -0.9375,0.83203125 -0.152344,0 -0.246094,-0.082031 -0.246094,-0.3398437 0,-0.0703126 0.02344,-0.21093755 0.04687,-0.28125005 z m 0,0"
         style="fill:#000000;fill-opacity:1;fill-rule:nonzero;stroke:none" />
    </g>
    <path
       id="path9"
       d="M -42.5202,-28.3468 H 0 v 56.6936 h 42.5202"
       style="fill:none;stroke:#ff0000;stroke-width:0.79701;stroke-linecap:butt;stroke-linejoin:miter;stroke-miterlimit:10;stroke-dasharray:none;stroke-opacity:1"
       transform="matrix(1.3333333,0,0,-1.3333333,75.856,73.525333)" />
    <path
       id="path10"
       d="m 2.9283359,-6.3737031 c 0,-0.234375 0,-0.2578125 -0.234375,-0.2578125 -0.609375,0.6328125 -1.4882812,0.6328125 -1.80468746,0.6328125 v 0.3164062 c 0.19921876,0 0.78515626,0 1.30078126,-0.2578125 v 5.15625003 c 0,0.3515625 -0.035156,0.48046875 -0.9257813,0.48046875 H 0.94786719 v 0.3046875 C 1.2994297,-0.03385937 2.1548984,-0.03385937 2.5533359,-0.03385937 c 0.3984375,0 1.265625,0 1.6171875,0.03515625 v -0.3046875 H 3.8541172 c -0.9023438,0 -0.9257813,-0.1171875 -0.9257813,-0.48046875 z m 0,0"
       style="fill:#000000;fill-opacity:1;fill-rule:nonzero;stroke:none"
       aria-label="1"
       transform="matrix(1.3333333,0,0,1.3333333,64.521333,31.037333)" />
    <path
       id="path11"
       d="M 2.7542188,-1.8636172 V -2.4378359 H 0.10578125 v 0.5742187 z m 3.4951171,-4.5117187 c 0,-0.234375 0,-0.2578125 -0.234375,-0.2578125 -0.609375,0.6328125 -1.4882812,0.6328125 -1.8046875,0.6328125 v 0.3164062 c 0.1992188,0 0.7851563,0 1.3007813,-0.2578125 v 5.15625001 c 0,0.3515625 -0.035156,0.48046875 -0.9257813,0.48046875 H 4.2688672 V -3.359375e-4 C 4.6204297,-0.03549219 5.4758984,-0.03549219 5.8743359,-0.03549219 c 0.3984375,0 1.265625,0 1.6171875,0.0351562525 V -0.30502344 H 7.1751172 c -0.9023438,0 -0.9257813,-0.1171875 -0.9257813,-0.48046875 z m 0,0"
       style="fill:#000000;fill-opacity:1;fill-rule:nonzero;stroke:none"
       aria-label="-1"
       transform="matrix(1.3333333,0,0,1.3333333,60.093333,124.57467)" />
  </g>
</svg>
