<?xml version="1.0" encoding="UTF-8" standalone="no"?>
<!-- Created with Inkscape (http://www.inkscape.org/) -->

<svg
   version="1.1"
   id="svg1"
   width="827.94"
   height="166.866"
   viewBox="0 0 827.94 166.866"
   sodipodi:docname="superheterodyne.pdf"
   inkscape:version="1.4 (e7c3feb1, 2024-10-09)"
   inkscape:dataloss="true"
   inkscape:export-filename="superheterodyne.svg"
   inkscape:export-xdpi="300"
   inkscape:export-ydpi="300"
   xmlns:inkscape="http://www.inkscape.org/namespaces/inkscape"
   xmlns:sodipodi="http://sodipodi.sourceforge.net/DTD/sodipodi-0.dtd"
   xmlns="http://www.w3.org/2000/svg"
   xmlns:svg="http://www.w3.org/2000/svg">
  <defs
     id="defs1" />
  <sodipodi:namedview
     id="namedview1"
     pagecolor="#ffffff"
     bordercolor="#666666"
     borderopacity="1.0"
     inkscape:showpageshadow="2"
     inkscape:pageopacity="0.0"
     inkscape:pagecheckerboard="0"
     inkscape:deskcolor="#d1d1d1"
     inkscape:zoom="4.0611286"
     inkscape:cx="819.47664"
     inkscape:cy="146.26476"
     inkscape:window-width="2560"
     inkscape:window-height="1387"
     inkscape:window-x="0"
     inkscape:window-y="25"
     inkscape:window-maximized="0"
     inkscape:current-layer="g1">
    <inkscape:page
       x="2.0162814e-07"
       y="3.3406881e-08"
       inkscape:label="1"
       id="page1"
       width="827.94"
       height="166.866"
       margin="0"
       bleed="0" />
  </sodipodi:namedview>
  <g
     id="g1"
     inkscape:groupmode="layer"
     inkscape:label="1"
     transform="translate(-36.142147,-4.4218754)">
    <path
       id="rect62"
       style="opacity:1;fill:none;stroke:#000000;stroke-width:0.933;stroke-linecap:square;stroke-linejoin:round;stroke-dasharray:none;stroke-opacity:1;paint-order:stroke fill markers"
       d="m 857.04017,37.260956 -17.33624,18.0039 h -17.32587 v 23.91407 h 17.41406 l 17.24805,21.228514 z"
       sodipodi:nodetypes="ccccccc" />
    <path
       id="path1"
       d="M 0,0 V 56.69362 H 85.04042 V 0 Z"
       style="fill:none;stroke:#000000;stroke-width:0.79701;stroke-linecap:butt;stroke-linejoin:miter;stroke-miterlimit:10;stroke-dasharray:none;stroke-opacity:1"
       transform="matrix(1.3333333,0,0,-1.3333333,123.63733,105.55733)" />
    <path
       id="path2"
       d="m 2.2278047,-3.5167656 v -2.578125 c 0,-0.234375 0,-0.3515625 0.2226562,-0.3867188 0.1054688,-0.011719 0.3867188,-0.011719 0.5859375,-0.011719 0.9023438,0 2.015625,0.035156 2.015625,1.4765625 0,0.6914062 -0.234375,1.5 -1.7109375,1.5 z m 2.109375,0.1289062 c 0.9609375,-0.234375 1.7460937,-0.84375 1.7460937,-1.6289062 0,-0.9492188 -1.1367187,-1.7929688 -2.6015625,-1.7929688 H 0.35280469 v 0.3164063 h 0.234375 c 0.77343751,0 0.78515621,0.1054687 0.78515621,0.46875 v 5.24999998 c 0,0.3515625 -0.011719,0.46875 -0.78515621,0.46875 h -0.234375 v 0.3046875 c 0.3515625,-0.03515625 1.06640621,-0.03515625 1.45312501,-0.03515625 0.3867187,0 1.0898437,0 1.453125,0.03515625 v -0.3046875 h -0.234375 c -0.7734375,0 -0.796875,-0.1171875 -0.796875,-0.46875 V -3.2941094 h 1.1484375 c 0.1640625,0 0.5742187,0 0.9257812,0.3398438 0.3867188,0.3515625 0.3867188,0.65625 0.3867188,1.3242187 0,0.65625003 0,1.05468753 0.3984375,1.42968753 0.4101562,0.36328125 0.9609375,0.421875 1.2539062,0.421875 0.7851563,0 0.9492188,-0.8203125 0.9492188,-1.1015625 0,-0.0585938 0,-0.16406253 -0.1289063,-0.16406253 -0.1054687,0 -0.1054687,0.0820313 -0.1171875,0.15234378 -0.058594,0.71484375 -0.4101562,0.890625 -0.65625,0.890625 -0.4921875,0 -0.5742187,-0.50390625 -0.703125,-1.42968748 l -0.140625,-0.796875 C 5.3684297,-2.8722344 4.8879609,-3.2003594 4.3371797,-3.3878594 Z M 13.135031,-6.7745781 H 7.662375 v 0.3046875 H 7.89675 c 0.7734375,0 0.796875,0.1171875 0.796875,0.46875 v 5.22656248 c 0,0.3515625 -0.023437,0.46875 -0.796875,0.46875 H 7.662375 v 0.3046875 c 0.3515625,-0.03515625 1.125,-0.03515625 1.5117188,-0.03515625 0.4101562,0 1.3125002,0 1.6757812,0.03515625 v -0.3046875 H 10.52175 c -0.9492187,0 -0.9492187,-0.12890625 -0.9492187,-0.48046875 V -3.2355156 H 10.428 c 0.960938,0 1.054688,0.3164062 1.054688,1.1601562 H 11.7405 v -2.6367187 h -0.257812 c 0,0.8320312 -0.09375,1.1601562 -1.054688,1.1601562 H 9.5725313 v -2.5195312 c 0,-0.328125 0.023437,-0.3984375 0.4921877,-0.3984375 h 1.195312 c 1.488282,0 1.746094,0.5625 1.898438,1.9335937 h 0.257812 z m 6.09375,4.8398437 c 0.222657,0.035156 1.03125,0.1992188 1.03125,0.9140625 0,0.51562503 -0.351562,0.91406253 -1.125,0.91406253 -0.832031,0 -1.195312,-0.57421875 -1.382812,-1.41796873 -0.03516,-0.1289063 -0.03516,-0.1757813 -0.140625,-0.1757813 -0.128906,0 -0.128906,0.070312 -0.128906,0.2578125 v 1.31250003 c 0,0.1640625 0,0.234375 0.105468,0.234375 0.05859,0 0.07031,0 0.257813,-0.19921875 0.01172,-0.01171875 0.01172,-0.03515625 0.199219,-0.22265625 0.433593,0.421875 0.878906,0.421875 1.089843,0.421875 1.148438,0 1.605469,-0.66796875 1.605469,-1.38281253 0,-0.5273437 -0.292969,-0.8203125 -0.421875,-0.9492187 -0.328125,-0.3164063 -0.714844,-0.3984375 -1.136719,-0.46875 -0.550781,-0.1171875 -1.21875,-0.2460938 -1.21875,-0.8203125 0,-0.3515625 0.257813,-0.7617188 1.113282,-0.7617188 1.101562,0 1.148437,0.9023438 1.171875,1.2070313 0,0.09375 0.09375,0.09375 0.117187,0.09375 0.128906,0 0.128906,-0.046875 0.128906,-0.2460938 v -0.9960937 c 0,-0.1757813 0,-0.2460938 -0.117187,-0.2460938 -0.04687,0 -0.07031,0 -0.199219,0.1171875 -0.02344,0.046875 -0.128906,0.1289063 -0.164062,0.1640625 -0.375,-0.28125 -0.785157,-0.28125 -0.9375,-0.28125 -1.21875,0 -1.59375,0.6679688 -1.59375,1.2304688 0,0.3398437 0.164062,0.6210937 0.433593,0.84375 0.316407,0.2578125 0.597657,0.3164062 1.3125,0.4570312 z m 3.577149,-2.0507812 h 1.429687 V -4.2902031 H 22.80593 v -1.8398438 h -0.246094 c -0.01172,0.8203125 -0.316406,1.8867188 -1.289063,1.921875 v 0.2226563 h 0.84375 v 2.7539062 c 0,1.21875003 0.925782,1.33593753 1.289063,1.33593753 0.703125,0 0.984375,-0.703125 0.984375,-1.33593753 v -0.5742187 h -0.246094 v 0.5507812 c 0,0.73828128 -0.304687,1.11328128 -0.667969,1.11328128 -0.667968,0 -0.667968,-0.90234378 -0.667968,-1.07812498 z m 5.469726,3.22265623 c 0.03516,0.3984375 0.304688,0.8203125 0.773438,0.8203125 0.210937,0 0.820312,-0.140625 0.820312,-0.94921875 V -1.4425469 h -0.246093 v 0.55078128 c 0,0.5859375 -0.246094,0.64453125 -0.363282,0.64453125 -0.328125,0 -0.363281,-0.45703125 -0.363281,-0.50390625 V -2.7433281 c 0,-0.4101563 0,-0.8085938 -0.363281,-1.171875 -0.386719,-0.3867188 -0.878906,-0.5507813 -1.359375,-0.5507813 -0.820313,0 -1.511719,0.46875 -1.511719,1.125 0,0.3046875 0.199219,0.46875 0.457031,0.46875 0.28125,0 0.46875,-0.1992187 0.46875,-0.4570312 0,-0.1171875 -0.05859,-0.4453125 -0.515625,-0.4570313 0.269532,-0.3515625 0.761719,-0.4570312 1.078125,-0.4570312 0.492188,0 1.054688,0.3867187 1.054688,1.2773437 v 0.3632813 c -0.503906,0.035156 -1.207031,0.058594 -1.828125,0.3632812 -0.75,0.3398438 -0.996094,0.8554688 -0.996094,1.28906253 0,0.80859375 0.960938,1.0546875 1.59375,1.0546875 0.65625,0 1.113281,-0.3984375 1.300781,-0.8671875 z m -0.07031,-1.62890623 v 0.9960937 c 0,0.94921878 -0.714844,1.28906253 -1.160156,1.28906253 -0.492188,0 -0.902344,-0.3515625 -0.902344,-0.85546875 0,-0.53906248 0.421875,-1.37109378 2.0625,-1.42968748 z m 3.949219,0.6796875 c -0.867188,0 -0.867188,-0.9960938 -0.867188,-1.2304688 0,-0.2695312 0.01172,-0.5859375 0.152344,-0.8320312 0.08203,-0.1171875 0.316406,-0.3984375 0.714844,-0.3984375 0.867187,0 0.867187,0.9960937 0.867187,1.21875 0,0.2695312 -0.01172,0.5976562 -0.164062,0.84375 -0.08203,0.1171875 -0.304688,0.3984375 -0.703125,0.3984375 z m -1.160157,0.3867187 c 0,-0.035156 0,-0.2695312 0.175782,-0.46875 0.386718,0.28125 0.796875,0.3046875 0.984375,0.3046875 0.925781,0 1.605468,-0.6796875 1.605468,-1.453125 0,-0.3632812 -0.152343,-0.7382812 -0.398437,-0.9609375 0.351562,-0.3398437 0.714844,-0.3867187 0.890625,-0.3867187 0.02344,0 0.07031,0 0.105469,0 -0.117188,0.046875 -0.164063,0.1523437 -0.164063,0.2695312 0,0.1757813 0.128906,0.2929688 0.292969,0.2929688 0.09375,0 0.28125,-0.070312 0.28125,-0.2929688 0,-0.1757812 -0.117188,-0.4921875 -0.503906,-0.4921875 -0.199219,0 -0.632813,0.058594 -1.054688,0.46875 -0.421875,-0.328125 -0.84375,-0.3632812 -1.054687,-0.3632812 -0.925782,0 -1.617188,0.6914062 -1.617188,1.453125 0,0.4453125 0.222656,0.8203125 0.46875,1.03125 -0.128906,0.1523437 -0.304687,0.4804687 -0.304687,0.8203125 0,0.31640623 0.128906,0.69140623 0.433593,0.89062498 -0.597656,0.17578125 -0.914062,0.59765625 -0.914062,0.99609375 0,0.71484377 0.984375,1.26562497 2.203125,1.26562497 1.171875,0 2.203125,-0.5039062 2.203125,-1.28906247 0,-0.33984375 -0.140625,-0.85546875 -0.644531,-1.125 -0.527344,-0.28125 -1.101563,-0.28125 -1.710938,-0.28125 -0.246094,0 -0.679687,0 -0.75,-0.0117188 -0.316406,-0.046875 -0.527344,-0.35156243 -0.527344,-0.66796873 z m 1.441407,3.1523438 c -1.007813,0 -1.699219,-0.515625 -1.699219,-1.04296877 0,-0.45703125 0.375,-0.8203125 0.820312,-0.85546875 h 0.585938 c 0.855469,0 1.96875,0 1.96875,0.85546875 0,0.53906247 -0.703125,1.04296877 -1.675781,1.04296877 z m 3.597656,-4.3359375 c 0.05859,-1.4882813 0.902344,-1.734375 1.242187,-1.734375 1.019532,0 1.125,1.3476562 1.125,1.734375 z m -0.01172,0.2109375 h 2.789063 c 0.210937,0 0.246093,0 0.246093,-0.2109375 0,-0.984375 -0.539062,-1.9570313 -1.78125,-1.9570313 -1.160156,0 -2.074218,1.03125 -2.074218,2.2734375 0,1.33593753 1.042968,2.29687503 2.191406,2.29687503 1.21875,0 1.664062,-1.1015625 1.664062,-1.28906253 0,-0.1054687 -0.08203,-0.1171875 -0.128906,-0.1171875 -0.09375,0 -0.117187,0.058594 -0.128906,0.140625 -0.351563,1.01953128 -1.253906,1.01953128 -1.347656,1.01953128 -0.503907,0 -0.902344,-0.29296875 -1.125,-0.66796875 C 36.02175,-1.2902031 36.02175,-1.9464531 36.02175,-2.2980156 Z m 0,0"
       style="fill:#000000;fill-opacity:1;fill-rule:nonzero;stroke:none"
       aria-label="RFstage"
       transform="matrix(1.3333333,0,0,1.3333333,154.096,71.009333)" />
    <path
       id="path10"
       d="m 346.82761,49.668801 c -0.125,-0.296875 -0.15625,-0.296875 -0.46875,-0.296875 h -2.25 v 0.421875 h 0.32812 c 1.01563,0 1.04688,0.140625 1.04688,0.625 v 6.640625 c 0,0.359375 0,0.984375 -1.375,0.984375 v 0.40625 c 0.46875,-0.01563 1.125,-0.04687 1.5625,-0.04687 0.4375,0 1.09375,0.03125 1.54687,0.04687 v -0.40625 c -1.35937,0 -1.35937,-0.625 -1.35937,-0.984375 v -7.15625 h 0.0156 l 3.20313,8.25 c 0.0625,0.171875 0.125,0.296875 0.26562,0.296875 0.14063,0 0.17188,-0.109375 0.23438,-0.25 l 3.26562,-8.40625 h 0.0156 v 7.625 c 0,0.46875 -0.0312,0.625 -1.04688,0.625 h -0.32812 v 0.40625 c 0.5,-0.04687 1.39062,-0.04687 1.92187,-0.04687 0.51563,0 1.40625,0 1.89063,0.04687 v -0.40625 h -0.3125 c -1.03125,0 -1.04688,-0.15625 -1.04688,-0.625 v -7 c 0,-0.484375 0.0156,-0.625 1.04688,-0.625 h 0.3125 v -0.421875 h -2.23438 c -0.35937,0 -0.35937,0.01563 -0.45312,0.265625 l -2.90625,7.46875 z m 11.3164,2.90625 -1.85937,0.15625 v 0.40625 c 0.875,0 0.98437,0.07813 0.98437,0.734375 v 3.5625 c 0,0.609375 -0.14062,0.609375 -1.03125,0.609375 v 0.40625 c 0.42188,-0.01563 1.14063,-0.04687 1.46875,-0.04687 0.45313,0 0.92188,0.03125 1.375,0.04687 v -0.40625 c -0.875,0 -0.9375,-0.07813 -0.9375,-0.59375 z m 0.0625,-2.3125 c 0,-0.421875 -0.32813,-0.703125 -0.70313,-0.703125 -0.42187,0 -0.70312,0.359375 -0.70312,0.703125 0,0.359375 0.28125,0.703125 0.70312,0.703125 0.375,0 0.70313,-0.265625 0.70313,-0.703125 z m 5.09765,5.0625 c 0.39063,-0.5 0.90625,-1.15625 1.21875,-1.5 0.42188,-0.46875 0.95313,-0.671875 1.57813,-0.6875 v -0.40625 c -0.34375,0.01563 -0.73438,0.03125 -1.07813,0.03125 -0.40625,0 -1.10937,-0.03125 -1.28125,-0.03125 v 0.40625 c 0.28125,0.03125 0.39063,0.203125 0.39063,0.40625 0,0.21875 -0.14063,0.390625 -0.20313,0.46875 l -0.82812,1.03125 -1.03125,-1.328125 c -0.125,-0.140625 -0.125,-0.171875 -0.125,-0.25 0,-0.203125 0.20312,-0.3125 0.46875,-0.328125 v -0.40625 c -0.34375,0 -1.21875,0.03125 -1.4375,0.03125 -0.28125,0 -0.90625,-0.01563 -1.26563,-0.03125 v 0.40625 c 0.9375,0 0.95313,0.01563 1.57813,0.8125 l 1.3125,1.703125 -1.25,1.59375 c -0.64063,0.765625 -1.42188,0.796875 -1.70313,0.796875 v 0.40625 c 0.34376,-0.03125 0.76563,-0.04687 1.10938,-0.04687 0.375,0 0.9375,0.03125 1.26563,0.04687 v -0.40625 c -0.29688,-0.04687 -0.39063,-0.21875 -0.39063,-0.421875 0,-0.28125 0.39063,-0.71875 1.1875,-1.6875 l 1.01563,1.328125 c 0.10937,0.15625 0.28125,0.359375 0.28125,0.4375 0,0.125 -0.125,0.328125 -0.48438,0.34375 v 0.40625 c 0.40625,-0.01563 1.14063,-0.04687 1.4375,-0.04687 0.35938,0 0.875,0.01563 1.28125,0.04687 v -0.40625 c -0.71875,0 -0.96875,-0.03125 -1.26562,-0.421875 z m 4.68359,-0.21875 c 0.0781,-1.984375 1.20313,-2.3125 1.65626,-2.3125 1.35937,0 1.5,1.796875 1.5,2.3125 z m -0.0156,0.28125 h 3.71875 c 0.28125,0 0.32812,0 0.32812,-0.28125 0,-1.3125 -0.71875,-2.609375 -2.375,-2.609375 -1.54687,0 -2.76562,1.375 -2.76562,3.03125 0,1.78125 1.39062,3.0625 2.92187,3.0625 1.625,0 2.21875,-1.46875 2.21875,-1.71875 0,-0.140625 -0.10937,-0.15625 -0.17187,-0.15625 -0.125,0 -0.15625,0.07813 -0.17188,0.1875 -0.46875,1.359375 -1.67187,1.359375 -1.79687,1.359375 -0.67188,0 -1.20313,-0.390625 -1.5,-0.890625 -0.40624,-0.640625 -0.40624,-1.515625 -0.40624,-1.984375 z m 6.65234,-1.34375 v -1.46875 l -1.84375,0.15625 v 0.40625 c 0.92188,0 1.03125,0.09375 1.03125,0.75 v 3.546875 c 0,0.609375 -0.14062,0.609375 -1.03125,0.609375 v 0.40625 c 0.51564,-0.01563 1.14064,-0.04687 1.51564,-0.04687 0.53125,0 1.15625,0 1.6875,0.04687 v -0.40625 h -0.28125 c -0.98438,0 -1.01563,-0.15625 -1.01563,-0.625 v -2.046875 c 0,-1.3125 0.5625,-2.5 1.57813,-2.5 0.0781,0 0.10937,0 0.14062,0.01563 -0.0469,0.01563 -0.3125,0.171875 -0.3125,0.515625 0,0.375 0.28125,0.578125 0.57813,0.578125 0.23437,0 0.5625,-0.171875 0.5625,-0.59375 0,-0.421875 -0.40625,-0.8125 -0.96875,-0.8125 -0.98438,0 -1.45313,0.890625 -1.64063,1.46875 z m 0,0"
       style="fill:#000000;fill-opacity:1;fill-rule:nonzero;stroke:none;stroke-width:1.33333"
       aria-label="Mixer" />
    <path
       id="path11"
       d="M 85.04042,28.3468 H 145.4249"
       style="fill:none;stroke:#000000;stroke-width:0.79701;stroke-linecap:butt;stroke-linejoin:miter;stroke-miterlimit:10;stroke-dasharray:none;stroke-opacity:1"
       sodipodi:nodetypes="cc"
       transform="matrix(1.3333333,0,0,-1.3333333,123.63733,105.55733)" />
    <path
       id="path12"
       d="m 315.84471,64.998667 c 0.17268,1.036106 2.0722,2.590266 2.59023,2.762933 -0.51803,0.172667 -2.41755,1.726827 -2.59023,2.762933"
       style="fill:none;stroke:#000000;stroke-width:0.850133;stroke-linecap:round;stroke-linejoin:round;stroke-miterlimit:10;stroke-dasharray:none;stroke-opacity:1" />
    <path
       id="path13"
       d="m 349.0537,139.86692 c 0,-10.43713 -8.46073,-18.89787 -18.89786,-18.89787 -10.43711,0 -18.89784,8.46074 -18.89784,18.89787 0,10.43713 8.46073,18.89786 18.89784,18.89786 10.43713,0 18.89786,-8.46073 18.89786,-18.89786 z"
       style="fill:none;stroke:#000000;stroke-width:1.06268;stroke-linecap:butt;stroke-linejoin:miter;stroke-miterlimit:10;stroke-dasharray:none;stroke-opacity:1" />
    <path
       id="path14"
       d="m 328.5705,140.98317 h -0.34375 c -0.14063,1.34375 -0.32813,3.01563 -2.65625,3.01563 h -1.09375 c -0.625,0 -0.65625,-0.0937 -0.65625,-0.53125 v -7.07813 c 0,-0.45312 0,-0.64062 1.26562,-0.64062 h 0.4375 v -0.42188 c -0.48437,0.0469 -1.6875,0.0469 -2.23437,0.0469 -0.51563,0 -1.54688,0 -2.01563,-0.0469 v 0.42188 h 0.3125 c 1.03125,0 1.0625,0.14062 1.0625,0.625 v 7 c 0,0.46875 -0.0312,0.625 -1.0625,0.625 h -0.3125 v 0.40625 h 6.92188 z m 10.14844,-1.07812 c 0,-2.71875 -2,-4.85938 -4.42188,-4.85938 -2.375,0 -4.40625,2.125 -4.40625,4.85938 0,2.71875 2.04688,4.79687 4.40625,4.79687 2.42188,0 4.42188,-2.10937 4.42188,-4.79687 z m -4.40625,4.45312 c -1.28125,0 -3.0625,-1.17187 -3.0625,-4.64062 0,-3.4375 1.9375,-4.34375 3.04687,-4.34375 1.15625,0 3.04688,0.9375 3.04688,4.34375 0,3.51562 -1.8125,4.64062 -3.03125,4.64062 z m 0,0"
       style="fill:#000000;fill-opacity:1;fill-rule:nonzero;stroke:none;stroke-width:1.33333"
       aria-label="LO" />
    <g
       id="g14"
       aria-label="ω&#10;c&#10;+ω&#10;IF"
       transform="matrix(1.3333333,0,0,1.3333333,303.93102,169.20132)">
      <path
         id="path15"
         d="m 6.0225781,-3.7026719 c 0,-0.4453125 -0.1757812,-0.703125 -0.3984375,-0.703125 -0.2578125,0 -0.5273437,0.2460938 -0.5273437,0.46875 0,0.1054688 0.046875,0.2109375 0.1523437,0.3046875 0.1640625,0.140625 0.3515625,0.4101563 0.3515625,0.8320313 0,0.3984375 -0.1875,0.9726562 -0.5039062,1.4296875 -0.2929688,0.42187498 -0.6679688,0.76171873 -1.1367188,0.76171873 -0.5625,0 -0.8671875,-0.3515625 -0.9609375,-0.89062503 0.1054688,-0.2578125 0.3398438,-0.9023437 0.3398438,-1.1835937 0,-0.1171875 -0.046875,-0.2109375 -0.1875,-0.2109375 -0.070312,0 -0.1875,0.011719 -0.2578125,0.1640625 -0.1171875,0.1992187 -0.234375,0.84375 -0.234375,1.2070312 -0.328125,0.46875 -0.7265625,0.91406253 -1.359375,0.91406253 -0.65625003,0 -0.86718753,-0.58593753 -0.86718753,-1.14843753 0,-1.2421875 1.01953123,-2.2851562 1.01953123,-2.4140625 0,-0.1171875 -0.082031,-0.1875 -0.1875,-0.1875 -0.1289062,0 -0.1992187,0.1289063 -0.2578125,0.2109375 -0.50390623,0.7382813 -0.89062498,1.921875 -0.89062498,2.8359375 0,0.67968753 0.234375,1.41796878 1.04296878,1.41796878 0.7148437,0 1.1835937,-0.4921875 1.5351562,-1.04296875 0.09375,0.57421875 0.4804688,1.04296875 1.1015625,1.04296875 0.7734375,0 1.2539063,-0.609375 1.6171875,-1.34765628 0.234375,-0.4921875 0.609375,-1.8515625 0.609375,-2.4609375 z m 0,0"
         style="fill:#000000;fill-opacity:1;fill-rule:nonzero;stroke:none" />
      <path
         id="path16"
         d="m 9.2598828,-1.1772812 c -0.2578125,0.046875 -0.3632812,0.23437495 -0.3632812,0.3867187 0,0.1875 0.1523437,0.2578125 0.2695312,0.2578125 0.1640625,0 0.3984375,-0.10546875 0.3984375,-0.4453125 0,-0.46875 -0.5390625,-0.5976562 -0.9140625,-0.5976562 -1.0429687,0 -2.015625,0.96093745 -2.015625,1.92187495 0,0.609375 0.421875,1.21875005 1.2890625,1.21875005 1.1835938,0 1.734375,-0.6914063 1.734375,-0.7851563 0,-0.046875 -0.070312,-0.1171875 -0.1289062,-0.1171875 -0.035156,0 -0.046875,0.0117188 -0.1054688,0.0703125 -0.5507812,0.6328125 -1.359375,0.6328125 -1.4882812,0.6328125 -0.5039063,0 -0.7265625,-0.3398437 -0.7265625,-0.7734375 0,-0.19921875 0.1054687,-0.9609375 0.46875,-1.44140625 C 7.9356641,-1.189 8.2989453,-1.3882187 8.6505078,-1.3882187 c 0.09375,0 0.4335938,0.011719 0.609375,0.2109375 z m 0,0"
         style="fill:#000000;fill-opacity:1;fill-rule:nonzero;stroke:none" />
      <path
         id="path17"
         d="m 16.551875,-2.2964219 h 2.777344 c 0.140625,0 0.328125,0 0.328125,-0.1992187 0,-0.1992188 -0.1875,-0.1992188 -0.328125,-0.1992188 h -2.777344 v -2.7890625 c 0,-0.1289062 0,-0.328125 -0.199219,-0.328125 -0.199219,0 -0.199219,0.1992188 -0.199219,0.328125 v 2.7890625 h -2.789062 c -0.140625,0 -0.328125,0 -0.328125,0.1992188 0,0.1992187 0.1875,0.1992187 0.328125,0.1992187 h 2.789062 v 2.80078128 c 0,0.12890625 0,0.328125 0.199219,0.328125 0.199219,0 0.199219,-0.19921875 0.199219,-0.328125 z m 0,0"
         style="fill:#000000;fill-opacity:1;fill-rule:nonzero;stroke:none" />
      <path
         id="path18"
         d="m 28.461055,-3.7026719 c 0,-0.4453125 -0.175782,-0.703125 -0.398438,-0.703125 -0.257812,0 -0.527344,0.2460938 -0.527344,0.46875 0,0.1054688 0.04687,0.2109375 0.152344,0.3046875 0.164063,0.140625 0.351563,0.4101563 0.351563,0.8320313 0,0.3984375 -0.1875,0.9726562 -0.503907,1.4296875 -0.292968,0.42187498 -0.667968,0.76171873 -1.136718,0.76171873 -0.5625,0 -0.867188,-0.3515625 -0.960938,-0.89062503 0.105469,-0.2578125 0.339844,-0.9023437 0.339844,-1.1835937 0,-0.1171875 -0.04687,-0.2109375 -0.1875,-0.2109375 -0.07031,0 -0.1875,0.011719 -0.257813,0.1640625 -0.117187,0.1992187 -0.234375,0.84375 -0.234375,1.2070312 -0.328125,0.46875 -0.726562,0.91406253 -1.359375,0.91406253 -0.65625,0 -0.867187,-0.58593753 -0.867187,-1.14843753 0,-1.2421875 1.019531,-2.2851562 1.019531,-2.4140625 0,-0.1171875 -0.08203,-0.1875 -0.1875,-0.1875 -0.128906,0 -0.199219,0.1289063 -0.257812,0.2109375 -0.503907,0.7382813 -0.890625,1.921875 -0.890625,2.8359375 0,0.67968753 0.234375,1.41796878 1.042968,1.41796878 0.714844,0 1.183594,-0.4921875 1.535157,-1.04296875 0.09375,0.57421875 0.480468,1.04296875 1.101562,1.04296875 0.773438,0 1.253906,-0.609375 1.617188,-1.34765628 0.234375,-0.4921875 0.609375,-1.8515625 0.609375,-2.4609375 z m 0,0"
         style="fill:#000000;fill-opacity:1;fill-rule:nonzero;stroke:none" />
      <path
         id="path19"
         d="m 31.519648,-2.7124375 c 0.05859,-0.2460937 0.07031,-0.3046875 0.597657,-0.3046875 0.175781,0 0.257812,0 0.257812,-0.140625 0,-0.070312 -0.04687,-0.1054687 -0.117187,-0.1054687 -0.140625,0 -0.316407,0.011719 -0.457032,0.011719 -0.164062,0 -0.328125,0.011719 -0.480468,0.011719 0,0 -0.480469,-0.011719 -0.480469,-0.011719 -0.152344,0 -0.328125,-0.011719 -0.480469,-0.011719 -0.04687,0 -0.152344,0 -0.152344,0.1523437 0,0.09375 0.08203,0.09375 0.234375,0.09375 0.01172,0 0.152344,0 0.269532,0.011719 0.140625,0.011719 0.1875,0.023437 0.1875,0.1054687 0,0.035156 -0.01172,0.082031 -0.03516,0.140625 l -0.925781,3.703125 C 29.890742,1.1781875 29.867305,1.2485 29.339961,1.2485 c -0.1875,0 -0.257813,0 -0.257813,0.1523438 0,0 0,0.09375 0.117188,0.09375 0.199219,0 0.726562,-0.023437 0.9375,-0.023437 h 0.480469 c 0.152343,0 0.328125,0.023437 0.480468,0.023437 0.04687,0 0.152344,0 0.152344,-0.1523438 0,-0.09375 -0.09375,-0.09375 -0.234375,-0.09375 -0.01172,0 -0.152344,0 -0.292969,-0.023437 -0.164062,-0.011719 -0.164062,-0.035156 -0.164062,-0.1054687 0,0 0,-0.046875 0.03516,-0.1523438 z m 3.571289,1.95703125 h 0.75 c 0.527344,0 0.621094,0.09375 0.621094,0.31640625 0,0.10546875 0,0.1171875 -0.04687,0.31640625 -0.01172,0.046875 -0.02344,0.05859375 -0.02344,0.08203125 0,0.0703125 0.04687,0.10546875 0.117187,0.10546875 0.09375,0 0.105469,-0.03515625 0.140625,-0.1640625 l 0.375,-1.47656245 c 0,-0.023437 0.02344,-0.1289063 0.02344,-0.140625 0,-0.070312 -0.04687,-0.1054688 -0.117188,-0.1054688 -0.09375,0 -0.105469,0.046875 -0.140625,0.1757813 -0.140625,0.5390625 -0.339844,0.6445312 -0.9375,0.6445312 h -0.69141 l 0.433594,-1.7460937 c 0.05859,-0.2226563 0.07031,-0.2460938 0.363281,-0.2460938 h 1.066406 c 0.925781,0 1.101563,0.2226563 1.101563,0.8085938 0,0.2226562 -0.03516,0.375 -0.03516,0.4335937 0,0.046875 0.02344,0.1171875 0.117188,0.1171875 0.105469,0 0.117187,-0.070312 0.128906,-0.1875 l 0.128906,-1.2070312 c 0.02344,-0.2109375 -0.03516,-0.2109375 -0.199218,-0.2109375 h -3.726563 c -0.128906,0 -0.222656,0 -0.222656,0.1523437 0,0.09375 0.08203,0.09375 0.222656,0.09375 0,0 0.140625,0 0.269531,0.023437 0.140625,0.011719 0.152344,0.023437 0.152344,0.09375 0,0.046875 -0.02344,0.1171875 -0.02344,0.1523438 L 34.024531,0.920375 C 33.954219,1.1899063 33.9425,1.2485 33.403437,1.2485 c -0.117187,0 -0.210937,0 -0.210937,0.140625 0,0.070312 0.04687,0.1054688 0.117187,0.1054688 0.199219,0 0.714844,-0.023437 0.914063,-0.023437 h 0.539062 c 0.175782,0 0.375,0.023437 0.550782,0.023437 0.04687,0 0.152343,0 0.152343,-0.1523438 0,-0.09375 -0.08203,-0.09375 -0.246093,-0.09375 -0.01172,0 -0.1875,0 -0.363282,-0.023437 -0.140625,-0.011719 -0.210937,-0.011719 -0.210937,-0.1171875 0,-0.023437 0,-0.046875 0.02344,-0.1171875 z m 0,0"
         style="fill:#000000;fill-opacity:1;fill-rule:nonzero;stroke:none" />
    </g>
    <path
       id="path20"
       d="M 330.15584,120.57635 V 79.297899"
       style="fill:none;stroke:#000000;stroke-width:1.06268;stroke-linecap:butt;stroke-linejoin:miter;stroke-miterlimit:10;stroke-dasharray:none;stroke-opacity:1"
       sodipodi:nodetypes="cc" />
    <path
       id="path21"
       d="m 327.39292,82.011243 c 1.0361,-0.17268 2.59026,-2.0722 2.76293,-2.590227 0.17267,0.518027 1.72683,2.417547 2.76293,2.590227"
       style="fill:none;stroke:#000000;stroke-width:0.850133;stroke-linecap:round;stroke-linejoin:round;stroke-miterlimit:10;stroke-dasharray:none;stroke-opacity:1" />
    <path
       id="path22"
       d="M 226.77448,0 V 56.69362 H 297.6415 V 0 Z"
       style="fill:none;stroke:#000000;stroke-width:0.79701;stroke-linecap:butt;stroke-linejoin:miter;stroke-miterlimit:10;stroke-dasharray:none;stroke-opacity:1"
       transform="matrix(1.3333333,0,0,-1.3333333,123.63733,105.55733)" />
    <path
       id="path23"
       d="m 2.2374688,-6.0219844 c 0,-0.3632812 0.035156,-0.46875 0.8203125,-0.46875 h 0.2578125 v -0.3164062 c -0.3515625,0.035156 -1.1367188,0.035156 -1.5117188,0.035156 -0.3867187,0 -1.171875,0 -1.5234375,-0.035156 v 0.3164062 H 0.53825 c 0.7851563,0 0.8203125,0.1054688 0.8203125,0.46875 v 5.25000002 c 0,0.3515625 -0.035156,0.46875 -0.8203125,0.46875 H 0.2804375 v 0.3046875 C 0.632,-0.03370313 1.4171563,-0.03370313 1.7921563,-0.03370313 c 0.3867187,0 1.171875,0 1.5234375,0.03515625 v -0.3046875 H 3.0577813 c -0.7851563,0 -0.8203125,-0.1171875 -0.8203125,-0.46875 z m 7.1601562,-0.75 H 3.9249688 v 0.3046875 h 0.234375 c 0.7734375,0 0.796875,0.1171875 0.796875,0.46875 v 5.22656252 c 0,0.3515625 -0.023437,0.46875 -0.796875,0.46875 h -0.234375 v 0.3046875 c 0.3515625,-0.03515625 1.125,-0.03515625 1.5117187,-0.03515625 0.4101563,0 1.3125,0 1.6757813,0.03515625 v -0.3046875 h -0.328125 c -0.9492188,0 -0.9492188,-0.12890625 -0.9492188,-0.48046875 V -3.2329219 h 0.8554688 c 0.9609375,0 1.0546875,0.3164063 1.0546875,1.1601563 H 8.0030938 V -4.7094844 H 7.7452813 c 0,0.8320313 -0.09375,1.1601563 -1.0546875,1.1601563 H 5.835125 v -2.5195313 c 0,-0.328125 0.023437,-0.3984375 0.4921875,-0.3984375 H 7.522625 c 1.4882813,0 1.7460938,0.5625 1.8984375,1.9335938 H 9.678875 Z m 7.983398,-0.1640625 c -0.04687,-0.1289062 -0.07031,-0.1992187 -0.222656,-0.1992187 -0.164062,0 -0.1875,0.058594 -0.246094,0.1992187 l -2.0625,5.96484377 c -0.175781,0.50390625 -0.574218,0.65625 -1.113281,0.66796875 v 0.3046875 c 0.234375,-0.01171875 0.65625,-0.03515625 1.019531,-0.03515625 0.304688,0 0.820313,0.0234375 1.148438,0.03515625 v -0.3046875 c -0.503906,0 -0.75,-0.2578125 -0.75,-0.515625 0,-0.0234375 0.01172,-0.12890625 0.02344,-0.140625 L 15.63493,-2.2719844 h 2.460937 l 0.527344,1.52343752 c 0.01172,0.046875 0.02344,0.10546875 0.02344,0.140625 0,0.3046875 -0.550781,0.3046875 -0.820312,0.3046875 v 0.3046875 c 0.351562,-0.03515625 1.054687,-0.03515625 1.429687,-0.03515625 0.433594,0 0.890625,0.01171875 1.300782,0.03515625 v -0.3046875 h -0.175782 c -0.597656,0 -0.738281,-0.0703125 -0.84375,-0.3984375 z m -0.527343,1.125 1.125,3.234375 h -2.238282 z m 5.138672,2.390625 v 2.66015627 c 0,0.45703125 -0.117188,0.45703125 -0.785157,0.45703125 v 0.3046875 c 0.351563,-0.01171875 0.855469,-0.03515625 1.125,-0.03515625 0.257813,0 0.785157,0.0234375 1.113282,0.03515625 v -0.3046875 c -0.65625,0 -0.773438,0 -0.773438,-0.45703125 V -2.5883906 c 0,-1.03125 0.714844,-1.59375 1.347656,-1.59375 0.621094,0 0.738282,0.5390625 0.738282,1.1015625 v 2.32031247 c 0,0.45703125 -0.117188,0.45703125 -0.773438,0.45703125 v 0.3046875 c 0.339844,-0.01171875 0.855469,-0.03515625 1.125,-0.03515625 0.257813,0 0.773438,0.0234375 1.113281,0.03515625 v -0.3046875 c -0.667968,0 -0.785156,0 -0.785156,-0.45703125 V -2.5883906 c 0,-1.03125 0.714844,-1.59375 1.347656,-1.59375 0.632813,0 0.738282,0.5390625 0.738282,1.1015625 v 2.32031247 c 0,0.45703125 -0.105469,0.45703125 -0.773438,0.45703125 v 0.3046875 c 0.351563,-0.01171875 0.855469,-0.03515625 1.125,-0.03515625 0.257813,0 0.773438,0.0234375 1.113281,0.03515625 v -0.3046875 c -0.515625,0 -0.761718,0 -0.773437,-0.3046875 V -2.5063594 c 0,-0.8554687 0,-1.171875 -0.316406,-1.5234375 -0.128907,-0.1757812 -0.46875,-0.375 -1.042969,-0.375 -0.832031,0 -1.277344,0.5976563 -1.441406,0.984375 -0.140625,-0.8671875 -0.878907,-0.984375 -1.324219,-0.984375 -0.726563,0 -1.195313,0.4335938 -1.476563,1.0546875 v -1.0546875 l -1.40625,0.1171875 v 0.3046875 c 0.703125,0 0.785157,0.070312 0.785157,0.5625 z m 8.912109,-0.328125 v -0.65625 l -1.429688,0.1171875 v 0.3046875 c 0.703125,0 0.773438,0.058594 0.773438,0.4921875 v 4.6640625 c 0,0.4570313 -0.105469,0.4570313 -0.773438,0.4570313 v 0.3046875 c 0.339844,-0.011719 0.855469,-0.035156 1.113282,-0.035156 0.269531,0 0.773437,0.023437 1.125,0.035156 V 1.6303594 c -0.667969,0 -0.773438,0 -0.773438,-0.4570313 v -1.75781248 c 0.04687,0.15234375 0.46875,0.69140625 1.21875,0.69140625 1.183594,0 2.226563,-0.97265625 2.226563,-2.26171877 0,-1.265625 -0.972657,-2.25 -2.085938,-2.25 -0.773437,0 -1.195312,0.4453125 -1.394531,0.65625 z m 0.03516,2.6132813 v -2.2148438 c 0.28125,-0.515625 0.773438,-0.796875 1.277344,-0.796875 0.726562,0 1.335937,0.8671875 1.335937,1.9921875 0,1.20703127 -0.691406,2.05078127 -1.429687,2.05078127 -0.398438,0 -0.773438,-0.19921875 -1.042969,-0.609375 -0.140625,-0.2109375 -0.140625,-0.22265625 -0.140625,-0.42187497 z m 5.545899,-5.7773438 -1.429688,0.1054688 v 0.3164062 c 0.703125,0 0.773438,0.070312 0.773438,0.5507813 v 5.17968747 c 0,0.45703125 -0.105469,0.45703125 -0.773438,0.45703125 v 0.3046875 c 0.328125,-0.01171875 0.855469,-0.03515625 1.101563,-0.03515625 0.257812,0 0.738281,0.0234375 1.113281,0.03515625 v -0.3046875 c -0.667969,0 -0.785156,0 -0.785156,-0.45703125 z m 2.768554,2.5078125 -1.394531,0.1171875 v 0.3046875 c 0.65625,0 0.738281,0.058594 0.738281,0.5507813 v 2.67187497 c 0,0.45703125 -0.105468,0.45703125 -0.773437,0.45703125 v 0.3046875 c 0.316406,-0.01171875 0.855469,-0.03515625 1.101562,-0.03515625 0.339844,0 0.691407,0.0234375 1.03125,0.03515625 v -0.3046875 c -0.65625,0 -0.703125,-0.0585938 -0.703125,-0.4453125 z m 0.04687,-1.734375 c 0,-0.3164062 -0.246093,-0.5273437 -0.527343,-0.5273437 -0.316407,0 -0.527344,0.2695312 -0.527344,0.5273437 0,0.2695313 0.210937,0.5273438 0.527344,0.5273438 0.28125,0 0.527343,-0.1992188 0.527343,-0.5273438 z m 4.253907,2.15625 c 0.457031,0 0.527343,0.1289063 0.527343,0.5390625 v 2.68359377 c 0,0.45703125 -0.117187,0.45703125 -0.785156,0.45703125 v 0.3046875 c 0.328125,-0.01171875 0.855469,-0.03515625 1.113281,-0.03515625 0.246094,0 0.738282,0.0234375 1.101563,0.03515625 v -0.3046875 c -0.667969,0 -0.773438,0 -0.773438,-0.45703125 V -4.4165156 l -1.253906,0.09375 c -0.164062,0.011719 -0.175781,0.023437 -0.1875,0.023437 -0.01172,0.011719 -0.03516,0.011719 -0.175781,0.011719 h -1.171875 v -1.125 c 0,-0.9960937 0.855469,-1.3945312 1.464844,-1.3945312 0.304687,0 0.667968,0.1054687 0.867187,0.328125 -0.410156,0.023437 -0.46875,0.3046875 -0.46875,0.46875 0,0.328125 0.257813,0.4570312 0.445313,0.4570312 0.222656,0 0.457031,-0.1640625 0.457031,-0.4570312 0,-0.5976563 -0.550781,-1.0078125 -1.289063,-1.0078125 -0.925781,0 -2.109375,0.5039062 -2.109375,1.59375 v 1.1367187 h -0.785156 v 0.3046875 h 0.785156 v 3.22265627 c 0,0.45703125 -0.105468,0.45703125 -0.773437,0.45703125 v 0.3046875 c 0.328125,-0.01171875 0.855469,-0.03515625 1.101562,-0.03515625 0.246094,0 0.738282,0.0234375 1.113282,0.03515625 v -0.3046875 c -0.667969,0 -0.785157,0 -0.785157,-0.45703125 V -3.9829219 Z m 3.357421,1.4765625 c 0.05859,-1.4882812 0.902344,-1.734375 1.242188,-1.734375 1.019531,0 1.125,1.3476563 1.125,1.734375 z m -0.01172,0.2109375 h 2.789062 c 0.210938,0 0.246094,0 0.246094,-0.2109375 0,-0.984375 -0.539063,-1.9570312 -1.78125,-1.9570312 -1.160156,0 -2.074219,1.03125 -2.074219,2.2734375 0,1.33593747 1.042969,2.29687497 2.191406,2.29687497 1.21875,0 1.664063,-1.1015625 1.664063,-1.28906247 0,-0.1054688 -0.08203,-0.1171875 -0.128906,-0.1171875 -0.09375,0 -0.117188,0.058594 -0.128907,0.140625 -0.351562,1.01953122 -1.253906,1.01953122 -1.347656,1.01953122 -0.503906,0 -0.902344,-0.29296875 -1.125,-0.66796875 C 46.900555,-1.2876094 46.900555,-1.9438594 46.900555,-2.2954219 Z M 51.88981,-3.3032344 V -4.4047969 L 50.507,-4.2876094 v 0.3046875 c 0.691406,0 0.773438,0.070312 0.773438,0.5625 v 2.66015627 c 0,0.45703125 -0.105469,0.45703125 -0.773438,0.45703125 v 0.3046875 c 0.386719,-0.01171875 0.855469,-0.03515625 1.136719,-0.03515625 0.398437,0 0.867187,0 1.265625,0.03515625 v -0.3046875 h -0.210938 c -0.738281,0 -0.761718,-0.1171875 -0.761718,-0.46875 V -2.3071406 c 0,-0.984375 0.421875,-1.875 1.183593,-1.875 0.05859,0 0.08203,0 0.105469,0.011719 -0.03516,0.011719 -0.234375,0.1289063 -0.234375,0.3867188 0,0.28125 0.210938,0.4335937 0.433594,0.4335937 0.175781,0 0.421875,-0.1289062 0.421875,-0.4453125 0,-0.3164062 -0.304688,-0.609375 -0.726563,-0.609375 -0.738281,0 -1.089843,0.6679688 -1.230468,1.1015625 z m 0,0"
       style="fill:#000000;fill-opacity:1;fill-rule:nonzero;stroke:none"
       aria-label="IFAmplifer"
       transform="matrix(1.3333333,0,0,1.3333333,437.15733,71.084)" />
    <path
       id="path24"
       d="m 163.33702,28.3468 h 62.73009"
       style="fill:none;stroke:#000000;stroke-width:0.79701;stroke-linecap:butt;stroke-linejoin:miter;stroke-miterlimit:10;stroke-dasharray:none;stroke-opacity:1"
       transform="matrix(1.3333333,0,0,-1.3333333,123.63733,105.55733)"
       sodipodi:nodetypes="cc" />
    <path
       id="path25"
       d="M -1.55415,2.0722 C -1.42464,1.29512 0,0.1295 0.38852,0 0,-0.1295 -1.42464,-1.29512 -1.55415,-2.0722"
       style="fill:none;stroke:#000000;stroke-width:0.6376;stroke-linecap:round;stroke-linejoin:round;stroke-miterlimit:10;stroke-dasharray:none;stroke-opacity:1"
       transform="matrix(1.3333333,0,0,-1.3333333,425.06015,67.7616)" />
    <path
       id="path26"
       d="m 325.9883,0 v 56.69362 h 70.86703 V 0 Z"
       style="fill:none;stroke:#000000;stroke-width:0.79701;stroke-linecap:butt;stroke-linejoin:miter;stroke-miterlimit:10;stroke-dasharray:none;stroke-opacity:1"
       transform="matrix(1.3333333,0,0,-1.3333333,123.63733,105.55733)" />
    <path
       id="path27"
       d="m 0.35042187,-6.8090078 v 0.3164062 h 0.234375 c 0.77343753,0 0.78515623,0.1054688 0.78515623,0.46875 v 5.25000004 c 0,0.3515625 -0.011719,0.46875 -0.78515623,0.46875 h -0.234375 V -4.140625e-4 H 3.9949531 c 1.6757813,0 3.046875,-1.4765625375 3.046875,-3.3515625375 0,-1.8867187 -1.3476562,-3.4570312 -3.046875,-3.4570312 z m 2.36718753,6.50390624 c -0.46875,0 -0.4921875,-0.0703125 -0.4921875,-0.3984375 V -6.0941641 c 0,-0.328125 0.023437,-0.3984375 0.4921875,-0.3984375 h 0.9960937 c 0.6210938,0 1.3007813,0.2109375 1.8164063,0.9257813 0.421875,0.5859375 0.515625,1.4414062 0.515625,2.2148437 0,1.1132813 -0.1875,1.7109375 -0.5507813,2.1914063 -0.1992187,0.26953124 -0.7617187,0.85546874 -1.7695312,0.85546874 z M 8.7234687,-2.5082266 c 0.058594,-1.4882812 0.9023438,-1.734375 1.2421875,-1.734375 1.0195308,0 1.1249998,1.3476563 1.1249998,1.734375 z M 8.71175,-2.2972891 h 2.789062 c 0.210938,0 0.246094,0 0.246094,-0.2109375 0,-0.984375 -0.539062,-1.9570312 -1.7812498,-1.9570312 -1.1601562,0 -2.0742187,1.03125 -2.0742187,2.2734375 0,1.33593749 1.0429687,2.29687499 2.1914065,2.29687499 1.21875,0 1.664062,-1.1015625 1.664062,-1.28906249 0,-0.1054688 -0.08203,-0.1171875 -0.128906,-0.1171875 -0.09375,0 -0.117188,0.058594 -0.128906,0.140625 -0.351563,1.01953124 -1.253907,1.01953124 -1.347657,1.01953124 -0.5039058,0 -0.9023433,-0.29296875 -1.1249995,-0.66796875 C 8.71175,-1.2894766 8.71175,-1.9457266 8.71175,-2.2972891 Z m 5.047852,-1.6875 h 1.429687 v -0.3046875 h -1.429687 v -1.8398437 h -0.246094 c -0.01172,0.8203125 -0.316406,1.8867187 -1.289063,1.921875 v 0.2226562 h 0.84375 v 2.7539063 c 0,1.21874999 0.925782,1.33593749 1.289063,1.33593749 0.703125,0 0.984375,-0.703125 0.984375,-1.33593749 v -0.5742188 h -0.246094 v 0.5507813 c 0,0.73828124 -0.304687,1.11328124 -0.667969,1.11328124 -0.667968,0 -0.667968,-0.90234374 -0.667968,-1.07812504 z m 3.266601,1.4765625 c 0.05859,-1.4882812 0.902344,-1.734375 1.242188,-1.734375 1.019531,0 1.125,1.3476563 1.125,1.734375 z m -0.01172,0.2109375 h 2.789063 c 0.210937,0 0.246094,0 0.246094,-0.2109375 0,-0.984375 -0.539063,-1.9570312 -1.78125,-1.9570312 -1.160157,0 -2.074219,1.03125 -2.074219,2.2734375 0,1.33593749 1.042969,2.29687499 2.191406,2.29687499 1.21875,0 1.664063,-1.1015625 1.664063,-1.28906249 0,-0.1054688 -0.08203,-0.1171875 -0.128907,-0.1171875 -0.09375,0 -0.117187,0.058594 -0.128906,0.140625 -0.351562,1.01953124 -1.253906,1.01953124 -1.347656,1.01953124 -0.503906,0 -0.902344,-0.29296875 -1.125,-0.66796875 C 17.014484,-1.2894766 17.014484,-1.9457266 17.014483,-2.2972891 Z m 4.485352,0.1289063 c 0,-1.6289063 0.820312,-2.0507813 1.347656,-2.0507813 0.09375,0 0.714844,0.011719 1.066406,0.375 -0.410156,0.023437 -0.46875,0.328125 -0.46875,0.4570313 0,0.2578125 0.1875,0.4570312 0.457032,0.4570312 0.257812,0 0.457031,-0.1640625 0.457031,-0.46875 0,-0.6796875 -0.75,-1.0664062 -1.523438,-1.0664062 -1.242187,0 -2.15625,1.078125 -2.15625,2.3085937 0,1.27734379 0.984375,2.26171879 2.144532,2.26171879 1.335937,0 1.652343,-1.19531249 1.652343,-1.28906249 0,-0.1054688 -0.105468,-0.1054688 -0.128906,-0.1054688 -0.09375,0 -0.117187,0.046875 -0.128906,0.1054688 -0.292969,0.92578124 -0.9375,1.04296874 -1.3125,1.04296874 -0.527344,0 -1.40625,-0.421875 -1.40625,-2.02734374 z m 4.989258,-1.8164063 H 27.91878 V -4.2894766 H 26.489094 V -6.1293203 H 26.243 c -0.01172,0.8203125 -0.316406,1.8867187 -1.289063,1.921875 v 0.2226562 h 0.84375 v 2.7539063 c 0,1.21874999 0.925782,1.33593749 1.289063,1.33593749 0.703125,0 0.984375,-0.703125 0.984375,-1.33593749 v -0.5742188 h -0.246094 v 0.5507813 c 0,0.73828124 -0.304687,1.11328124 -0.667969,1.11328124 -0.667968,0 -0.667968,-0.90234374 -0.667968,-1.07812504 z m 6.84082,1.8515625 c 0,-1.2773437 -0.996094,-2.3320312 -2.191406,-2.3320312 -1.253906,0 -2.214844,1.0898437 -2.214844,2.3320312 0,1.28906254 1.03125,2.23828129 2.203125,2.23828129 1.207031,0 2.203125,-0.97265625 2.203125,-2.23828129 z m -2.191406,1.99218754 c -0.433594,0 -0.867188,-0.2109375 -1.136719,-0.66796875 -0.257812,-0.43359379 -0.257812,-1.04296879 -0.257812,-1.40624999 0,-0.3867188 0,-0.9257813 0.246093,-1.359375 0.269532,-0.4570313 0.738282,-0.6679688 1.136719,-0.6679688 0.433594,0 0.867188,0.2226563 1.125,0.6445313 0.257813,0.4335937 0.257813,1.0078125 0.257813,1.3828125 0,0.3632812 0,0.9023437 -0.222657,1.33593749 -0.222656,0.4453125 -0.65625,0.73828125 -1.148437,0.73828125 z m 4.148437,-3.16406254 v -1.1015625 l -1.382812,0.1171875 v 0.3046875 c 0.691406,0 0.773437,0.070312 0.773437,0.5625 v 2.66015629 c 0,0.45703125 -0.105468,0.45703125 -0.773437,0.45703125 v 0.3046874975 c 0.38672,-0.0117187475 0.85547,-0.0351562475 1.13672,-0.0351562475 0.398437,0 0.867187,0 1.265625,0.0351562475 V -0.30510156 h -0.210938 c -0.738281,0 -0.761719,-0.1171875 -0.761719,-0.46875 V -2.3090078 c 0,-0.984375 0.421875,-1.875 1.183594,-1.875 0.05859,0 0.08203,0 0.105469,0.011719 -0.03516,0.011719 -0.234375,0.1289063 -0.234375,0.3867188 0,0.28125 0.210937,0.4335937 0.433594,0.4335937 0.175781,0 0.421875,-0.1289062 0.421875,-0.4453125 0,-0.3164062 -0.304688,-0.609375 -0.726563,-0.609375 -0.738281,0 -1.089844,0.6679688 -1.230469,1.1015625 z m 0,0"
       style="fill:#000000;fill-opacity:1;fill-rule:nonzero;stroke:none"
       aria-label="Detector"
       transform="matrix(1.3333333,0,0,1.3333333,580.50933,72.301333)" />
    <path
       id="path28"
       d="m 297.6415,28.3468 h 27.63943"
       style="fill:none;stroke:#000000;stroke-width:0.79701;stroke-linecap:butt;stroke-linejoin:miter;stroke-miterlimit:10;stroke-dasharray:none;stroke-opacity:1"
       transform="matrix(1.3333333,0,0,-1.3333333,123.63733,105.55733)" />
    <path
       id="path29"
       d="M -1.55415,2.0722 C -1.42464,1.29512 0,0.1295 0.38852,0 0,-0.1295 -1.42464,-1.29512 -1.55415,-2.0722"
       style="fill:none;stroke:#000000;stroke-width:0.6376;stroke-linecap:round;stroke-linejoin:round;stroke-miterlimit:10;stroke-dasharray:none;stroke-opacity:1"
       transform="matrix(1.3333333,0,0,-1.3333333,557.34524,67.7616)" />
    <path
       id="path30"
       d="m 425.20213,0 v 56.69362 h 70.86702 V 0 Z"
       style="fill:none;stroke:#000000;stroke-width:0.79701;stroke-linecap:butt;stroke-linejoin:miter;stroke-miterlimit:10;stroke-dasharray:none;stroke-opacity:1"
       transform="matrix(1.3333333,0,0,-1.3333333,123.63733,105.55733)" />
    <path
       id="path31"
       d="m 3.9603203,-6.9360469 c -0.046875,-0.1289062 -0.070312,-0.1992187 -0.2226562,-0.1992187 -0.1640625,0 -0.1875,0.058594 -0.2460938,0.1992187 l -2.0625,5.96484377 c -0.1757812,0.50390625 -0.57421874,0.65625 -1.11328124,0.66796875 v 0.3046875 c 0.234375,-0.01171875 0.65625,-0.03515625 1.01953124,-0.03515625 0.3046875,0 0.8203125,0.0234375 1.1484375,0.03515625 v -0.3046875 c -0.5039062,0 -0.75,-0.2578125 -0.75,-0.515625 0,-0.0234375 0.011719,-0.12890625 0.023437,-0.140625 L 2.2142266,-2.2719844 h 2.4609375 l 0.5273437,1.52343752 c 0.011719,0.046875 0.023437,0.10546875 0.023437,0.140625 0,0.3046875 -0.5507812,0.3046875 -0.8203125,0.3046875 v 0.3046875 c 0.3515625,-0.03515625 1.0546875,-0.03515625 1.4296875,-0.03515625 0.4335938,0 0.890625,0.01171875 1.3007813,0.03515625 v -0.3046875 H 6.9603203 c -0.5976562,0 -0.7382812,-0.0703125 -0.84375,-0.3984375 z m -0.5273437,1.125 1.125,3.234375 H 2.3196953 Z m 7.9306644,5.02734377 v 0.890625 l 1.441406,-0.10546875 v -0.3046875 c -0.703125,0 -0.785156,-0.0703125 -0.785156,-0.5625 V -4.4047969 l -1.453125,0.1171875 v 0.3046875 c 0.691406,0 0.773437,0.070312 0.773437,0.5625 v 1.7695313 c 0,0.86718747 -0.480469,1.54687497 -1.207031,1.54687497 -0.8320314,0 -0.8789064,-0.46875 -0.8789064,-0.99609377 v -3.3046875 l -1.4648437,0.1171875 v 0.3046875 c 0.7851562,0 0.7851562,0.035156 0.7851562,0.9140625 v 1.5 c 0,0.77343752 0,1.67578127 1.5117189,1.67578127 0.550781,0 0.996094,-0.26953125 1.277344,-0.890625 z m 5.428711,0.234375 v 0.65625 l 1.464843,-0.10546875 v -0.3046875 c -0.703125,0 -0.773437,-0.0703125 -0.773437,-0.5625 V -6.9126094 l -1.441406,0.1054688 v 0.3164062 c 0.703125,0 0.785156,0.070312 0.785156,0.5507813 v 2.15625 c -0.292969,-0.3632813 -0.726563,-0.6210938 -1.265625,-0.6210938 -1.171875,0 -2.214844,0.984375 -2.214844,2.2617188 0,1.26562497 0.972656,2.24999997 2.109375,2.24999997 0.644531,0 1.089844,-0.33984375 1.335938,-0.65625 z m 0,-2.67187497 v 2.0507812 c 0,0.17578127 0,0.19921877 -0.105469,0.36328127 -0.304688,0.48046875 -0.75,0.703125 -1.183594,0.703125 -0.445312,0 -0.796875,-0.2578125 -1.042969,-0.64453125 -0.257812,-0.41015622 -0.292968,-0.97265622 -0.292968,-1.38281252 0,-0.3632812 0.02344,-0.9609375 0.316406,-1.4179687 0.210937,-0.3046875 0.585937,-0.6328125 1.125,-0.6328125 0.351562,0 0.761719,0.1523437 1.078125,0.5976562 0.105469,0.1640625 0.105469,0.1875 0.105469,0.3632813 z m 3.506836,-1.1835938 -1.394532,0.1171875 v 0.3046875 c 0.65625,0 0.738282,0.058594 0.738282,0.5507813 v 2.67187497 c 0,0.45703125 -0.105469,0.45703125 -0.773438,0.45703125 v 0.3046875 c 0.316406,-0.01171875 0.855469,-0.03515625 1.101563,-0.03515625 0.339843,0 0.691406,0.0234375 1.03125,0.03515625 v -0.3046875 c -0.65625,0 -0.703125,-0.0585938 -0.703125,-0.4453125 z m 0.04687,-1.734375 c 0,-0.3164062 -0.246094,-0.5273437 -0.527344,-0.5273437 -0.316406,0 -0.527344,0.2695312 -0.527344,0.5273437 0,0.2695313 0.210938,0.5273438 0.527344,0.5273438 0.28125,0 0.527344,-0.1992188 0.527344,-0.5273438 z m 5.651367,4.0078125 c 0,-1.2773437 -0.996094,-2.3320312 -2.191407,-2.3320312 -1.253906,0 -2.214843,1.0898437 -2.214843,2.3320312 0,1.28906252 1.03125,2.23828127 2.203125,2.23828127 1.207031,0 2.203125,-0.97265625 2.203125,-2.23828127 z m -2.191407,1.99218752 c -0.433593,0 -0.867187,-0.2109375 -1.136718,-0.66796875 -0.257813,-0.43359377 -0.257813,-1.04296877 -0.257813,-1.40624997 0,-0.3867188 0,-0.9257813 0.246094,-1.359375 0.269531,-0.4570313 0.738281,-0.6679688 1.136719,-0.6679688 0.433593,0 0.867187,0.2226563 1.125,0.6445313 0.257812,0.4335937 0.257812,1.0078125 0.257812,1.3828125 0,0.3632812 0,0.9023437 -0.222656,1.33593747 -0.222656,0.4453125 -0.65625,0.73828125 -1.148438,0.73828125 z m 9.120118,-0.62109375 c 0.03516,0.3984375 0.304687,0.8203125 0.773437,0.8203125 0.210938,0 0.820313,-0.140625 0.820313,-0.94921875 V -1.4399531 h -0.246094 v 0.55078122 c 0,0.5859375 -0.246094,0.64453125 -0.363281,0.64453125 -0.328125,0 -0.363282,-0.45703125 -0.363282,-0.50390625 V -2.7407344 c 0,-0.4101562 0,-0.8085937 -0.363281,-1.171875 -0.386719,-0.3867187 -0.878906,-0.5507812 -1.359375,-0.5507812 -0.820312,0 -1.511719,0.46875 -1.511719,1.125 0,0.3046875 0.199219,0.46875 0.457032,0.46875 0.28125,0 0.46875,-0.1992188 0.46875,-0.4570313 0,-0.1171875 -0.05859,-0.4453125 -0.515625,-0.4570312 0.269531,-0.3515625 0.761718,-0.4570313 1.078125,-0.4570313 0.492187,0 1.054687,0.3867188 1.054687,1.2773438 v 0.3632812 c -0.503906,0.035156 -1.207031,0.058594 -1.828125,0.3632813 -0.75,0.3398437 -0.996094,0.8554687 -0.996094,1.28906247 0,0.80859375 0.960938,1.0546875 1.59375,1.0546875 0.65625,0 1.113282,-0.3984375 1.300782,-0.8671875 z m -0.07031,-1.62890627 v 0.9960938 c 0,0.94921872 -0.714844,1.28906247 -1.160156,1.28906247 -0.492188,0 -0.902344,-0.3515625 -0.902344,-0.85546875 0,-0.53906252 0.421875,-1.37109372 2.0625,-1.42968752 z m 2.835938,-1.03125 v 2.66015627 c 0,0.45703125 -0.117188,0.45703125 -0.785157,0.45703125 v 0.3046875 c 0.351563,-0.01171875 0.855469,-0.03515625 1.125,-0.03515625 0.257813,0 0.785157,0.0234375 1.113282,0.03515625 v -0.3046875 c -0.65625,0 -0.773438,0 -0.773438,-0.45703125 V -2.5883906 c 0,-1.03125 0.714844,-1.59375 1.347656,-1.59375 0.621094,0 0.738282,0.5390625 0.738282,1.1015625 v 2.32031247 c 0,0.45703125 -0.117188,0.45703125 -0.773438,0.45703125 v 0.3046875 c 0.339844,-0.01171875 0.855469,-0.03515625 1.125,-0.03515625 0.257813,0 0.773438,0.0234375 1.113281,0.03515625 v -0.3046875 c -0.667968,0 -0.785156,0 -0.785156,-0.45703125 V -2.5883906 c 0,-1.03125 0.714844,-1.59375 1.347656,-1.59375 0.632813,0 0.738282,0.5390625 0.738282,1.1015625 v 2.32031247 c 0,0.45703125 -0.105469,0.45703125 -0.773438,0.45703125 v 0.3046875 c 0.351563,-0.01171875 0.855469,-0.03515625 1.125,-0.03515625 0.257813,0 0.773438,0.0234375 1.113281,0.03515625 v -0.3046875 c -0.515625,0 -0.761718,0 -0.773437,-0.3046875 V -2.5063594 c 0,-0.8554687 0,-1.171875 -0.316406,-1.5234375 -0.128907,-0.1757812 -0.46875,-0.375 -1.042969,-0.375 -0.832031,0 -1.277344,0.5976563 -1.441406,0.984375 -0.140625,-0.8671875 -0.878907,-0.984375 -1.324219,-0.984375 -0.726563,0 -1.195313,0.4335938 -1.476563,1.0546875 v -1.0546875 l -1.40625,0.1171875 v 0.3046875 c 0.703125,0 0.785157,0.070312 0.785157,0.5625 z m 8.912109,-0.328125 v -0.65625 l -1.429687,0.1171875 v 0.3046875 c 0.703125,0 0.773437,0.058594 0.773437,0.4921875 v 4.6640625 c 0,0.4570313 -0.105469,0.4570313 -0.773437,0.4570313 v 0.3046875 c 0.339843,-0.011719 0.855468,-0.035156 1.113281,-0.035156 0.269531,0 0.773437,0.023437 1.125,0.035156 V 1.6303594 c -0.667969,0 -0.773438,0 -0.773438,-0.4570313 v -1.75781248 c 0.04687,0.15234375 0.46875,0.69140625 1.21875,0.69140625 1.183594,0 2.226563,-0.97265625 2.226563,-2.26171877 0,-1.265625 -0.972656,-2.25 -2.085938,-2.25 -0.773437,0 -1.195312,0.4453125 -1.394531,0.65625 z m 0.03516,2.6132813 v -2.2148438 c 0.28125,-0.515625 0.773438,-0.796875 1.277344,-0.796875 0.726563,0 1.335938,0.8671875 1.335938,1.9921875 0,1.20703127 -0.691407,2.05078127 -1.429688,2.05078127 -0.398437,0 -0.773437,-0.19921875 -1.042969,-0.609375 -0.140625,-0.2109375 -0.140625,-0.22265625 -0.140625,-0.42187497 z m 5.545899,-5.7773438 -1.429688,0.1054688 v 0.3164062 c 0.703125,0 0.773438,0.070312 0.773438,0.5507813 v 5.17968747 c 0,0.45703125 -0.105469,0.45703125 -0.773438,0.45703125 v 0.3046875 c 0.328125,-0.01171875 0.855469,-0.03515625 1.101563,-0.03515625 0.257812,0 0.738281,0.0234375 1.113281,0.03515625 v -0.3046875 c -0.667969,0 -0.785156,0 -0.785156,-0.45703125 z m 2.768554,2.5078125 -1.394531,0.1171875 v 0.3046875 c 0.65625,0 0.738281,0.058594 0.738281,0.5507813 v 2.67187497 c 0,0.45703125 -0.105468,0.45703125 -0.773437,0.45703125 v 0.3046875 c 0.316406,-0.01171875 0.855469,-0.03515625 1.101562,-0.03515625 0.339844,0 0.691407,0.0234375 1.03125,0.03515625 v -0.3046875 c -0.65625,0 -0.703125,-0.0585938 -0.703125,-0.4453125 z m 0.04687,-1.734375 c 0,-0.3164062 -0.246093,-0.5273437 -0.527343,-0.5273437 -0.316407,0 -0.527344,0.2695312 -0.527344,0.5273437 0,0.2695313 0.210937,0.5273438 0.527344,0.5273438 0.28125,0 0.527343,-0.1992188 0.527343,-0.5273438 z m 4.253907,2.15625 c 0.457031,0 0.527343,0.1289063 0.527343,0.5390625 v 2.68359377 c 0,0.45703125 -0.117187,0.45703125 -0.785156,0.45703125 v 0.3046875 c 0.328125,-0.01171875 0.855469,-0.03515625 1.113281,-0.03515625 0.246094,0 0.738282,0.0234375 1.101563,0.03515625 v -0.3046875 c -0.667969,0 -0.773438,0 -0.773438,-0.45703125 V -4.4165156 l -1.253906,0.09375 c -0.164062,0.011719 -0.175781,0.023437 -0.1875,0.023437 -0.01172,0.011719 -0.03516,0.011719 -0.175781,0.011719 h -1.171875 v -1.125 c 0,-0.9960937 0.855469,-1.3945312 1.464844,-1.3945312 0.304687,0 0.667968,0.1054687 0.867187,0.328125 -0.410156,0.023437 -0.46875,0.3046875 -0.46875,0.46875 0,0.328125 0.257813,0.4570312 0.445313,0.4570312 0.222656,0 0.457031,-0.1640625 0.457031,-0.4570312 0,-0.5976563 -0.550781,-1.0078125 -1.289063,-1.0078125 -0.925781,0 -2.109375,0.5039062 -2.109375,1.59375 v 1.1367187 h -0.785156 v 0.3046875 h 0.785156 v 3.22265627 c 0,0.45703125 -0.105468,0.45703125 -0.773437,0.45703125 v 0.3046875 c 0.328125,-0.01171875 0.855469,-0.03515625 1.101562,-0.03515625 0.246094,0 0.738282,0.0234375 1.113282,0.03515625 v -0.3046875 c -0.667969,0 -0.785157,0 -0.785157,-0.45703125 V -3.9829219 Z m 3.357422,1.4765625 c 0.05859,-1.4882812 0.902343,-1.734375 1.242187,-1.734375 1.019531,0 1.125,1.3476563 1.125,1.734375 z m -0.01172,0.2109375 h 2.789062 c 0.210938,0 0.246094,0 0.246094,-0.2109375 0,-0.984375 -0.539062,-1.9570312 -1.78125,-1.9570312 -1.160156,0 -2.074219,1.03125 -2.074219,2.2734375 0,1.33593747 1.042969,2.29687497 2.191407,2.29687497 1.21875,0 1.664062,-1.1015625 1.664062,-1.28906247 0,-0.1054688 -0.08203,-0.1171875 -0.128906,-0.1171875 -0.09375,0 -0.117188,0.058594 -0.128906,0.140625 -0.351563,1.01953122 -1.253907,1.01953122 -1.347657,1.01953122 -0.503906,0 -0.902343,-0.29296875 -1.125,-0.66796875 C 60.599969,-1.2876094 60.599969,-1.9438594 60.599969,-2.2954219 Z m 4.989258,-1.0078125 v -1.1015625 l -1.382813,0.1171875 v 0.3046875 c 0.691406,0 0.773438,0.070312 0.773438,0.5625 v 2.66015627 c 0,0.45703125 -0.105469,0.45703125 -0.773438,0.45703125 v 0.3046875 c 0.386719,-0.01171875 0.855469,-0.03515625 1.136719,-0.03515625 0.398437,0 0.867187,0 1.265625,0.03515625 v -0.3046875 H 66.39782 c -0.738281,0 -0.761718,-0.1171875 -0.761718,-0.46875 V -2.3071406 c 0,-0.984375 0.421875,-1.875 1.183593,-1.875 0.05859,0 0.08203,0 0.105469,0.011719 -0.03516,0.011719 -0.234375,0.1289063 -0.234375,0.3867188 0,0.28125 0.210938,0.4335937 0.433594,0.4335937 0.175781,0 0.421875,-0.1289062 0.421875,-0.4453125 0,-0.3164062 -0.304688,-0.609375 -0.726563,-0.609375 -0.738281,0 -1.089843,0.6679688 -1.230468,1.1015625 z m 0,0"
       style="fill:#000000;fill-opacity:1;fill-rule:nonzero;stroke:none"
       aria-label="Audioamplifer"
       transform="matrix(1.3333333,0,0,1.3333333,692.59067,71.084)" />
    <path
       id="path32"
       d="m 396.85533,28.3468 h 27.63945"
       style="fill:none;stroke:#000000;stroke-width:0.79701;stroke-linecap:butt;stroke-linejoin:miter;stroke-miterlimit:10;stroke-dasharray:none;stroke-opacity:1"
       transform="matrix(1.3333333,0,0,-1.3333333,123.63733,105.55733)" />
    <path
       id="path33"
       d="M -1.55415,2.0722 C -1.42464,1.29512 0,0.1295 0.38852,0 0,-0.1295 -1.42464,-1.29512 -1.55415,-2.0722"
       style="fill:none;stroke:#000000;stroke-width:0.6376;stroke-linecap:round;stroke-linejoin:round;stroke-miterlimit:10;stroke-dasharray:none;stroke-opacity:1"
       transform="matrix(1.3333333,0,0,-1.3333333,689.63037,67.7616)" />
    <path
       id="path38"
       d="M 496.06915,28.3468 H 523.7086"
       style="fill:none;stroke:#000000;stroke-width:0.79701;stroke-linecap:butt;stroke-linejoin:miter;stroke-miterlimit:10;stroke-dasharray:none;stroke-opacity:1"
       transform="matrix(1.3333333,0,0,-1.3333333,123.63733,105.55733)" />
    <path
       id="path39"
       d="M -1.55415,2.0722 C -1.42464,1.29512 0,0.1295 0.38852,0 0,-0.1295 -1.42464,-1.29512 -1.55415,-2.0722"
       style="fill:none;stroke:#000000;stroke-width:0.6376;stroke-linecap:round;stroke-linejoin:round;stroke-miterlimit:10;stroke-dasharray:none;stroke-opacity:1"
       transform="matrix(1.3333333,0,0,-1.3333333,821.91547,67.7616)" />
    <path
       id="path40"
       d="m 823.67578,110.40304 -1.70312,-0.40625 c -0.82813,-0.20312 -1.34375,-0.92187 -1.34375,-1.6875 0,-0.9375 0.71875,-1.73437 1.75,-1.73437 2.21875,0 2.51562,2.17187 2.59375,2.76562 0.0156,0.0781 0.0156,0.15625 0.15625,0.15625 0.17187,0 0.17187,-0.0625 0.17187,-0.3125 v -2.67187 c 0,-0.21875 0,-0.3125 -0.14062,-0.3125 -0.0937,0 -0.10938,0.0156 -0.20313,0.17187 l -0.46875,0.75 c -0.39062,-0.375 -0.9375,-0.92187 -2.125,-0.92187 -1.46875,0 -2.57812,1.17187 -2.57812,2.57812 0,1.09375 0.70312,2.0625 1.73437,2.42188 0.14063,0.0625 0.82813,0.21875 1.75,0.4375 0.35938,0.0937 0.76563,0.1875 1.125,0.6875 0.28125,0.34375 0.42188,0.78125 0.42188,1.21875 0,0.9375 -0.67188,1.89063 -1.78125,1.89063 -0.39063,0 -1.39063,-0.0625 -2.09375,-0.71875 -0.78125,-0.70313 -0.8125,-1.5625 -0.82813,-2.03125 -0.0156,-0.14063 -0.125,-0.14063 -0.15625,-0.14063 -0.17187,0 -0.17187,0.0937 -0.17187,0.32813 v 2.65625 c 0,0.23437 0,0.32812 0.14062,0.32812 0.0937,0 0.10938,-0.0312 0.20313,-0.17187 0,-0.0156 0.0312,-0.0625 0.46875,-0.76563 0.42187,0.45313 1.26562,0.9375 2.45312,0.9375 1.54688,0 2.60938,-1.3125 2.60938,-2.76562 0,-1.32813 -0.875,-2.42188 -1.98438,-2.68751 z m 5.02344,0.15625 v -0.875 l -1.90625,0.15625 v 0.40625 c 0.9375,0 1.03125,0.0781 1.03125,0.65625 v 6.21876 c 0,0.60937 -0.14063,0.60937 -1.03125,0.60937 v 0.40625 c 0.45312,-0.0156 1.14062,-0.0469 1.48437,-0.0469 0.35938,0 1.03125,0.0312 1.5,0.0469 v -0.40625 c -0.89062,0 -1.03125,0 -1.03125,-0.60937 v -2.34375 c 0.0625,0.20312 0.625,0.92187 1.625,0.92187 1.57813,0 2.96875,-1.29687 2.96875,-3.01562 0,-1.68751 -1.29687,-3.00001 -2.78125,-3.00001 -1.03125,0 -1.59375,0.59375 -1.85937,0.875 z m 0.0469,3.48438 v -2.95313 c 0.375,-0.6875 1.03125,-1.0625 1.70313,-1.0625 0.96875,0 1.78125,1.15625 1.78125,2.65626 0,1.60937 -0.92188,2.73437 -1.90625,2.73437 -0.53125,0 -1.03125,-0.26562 -1.39063,-0.8125 -0.1875,-0.28125 -0.1875,-0.29687 -0.1875,-0.5625 z m 6.90625,-1.82812 c 0.0781,-1.98438 1.20313,-2.31251 1.65625,-2.31251 1.35938,0 1.5,1.79688 1.5,2.31251 z m -0.0156,0.28125 h 3.71875 c 0.28125,0 0.32812,0 0.32812,-0.28125 0,-1.31251 -0.71875,-2.60938 -2.375,-2.60938 -1.54687,0 -2.76562,1.375 -2.76562,3.03125 0,1.78125 1.39062,3.0625 2.92187,3.0625 1.625,0 2.21875,-1.46875 2.21875,-1.71875 0,-0.14062 -0.10937,-0.15625 -0.17187,-0.15625 -0.125,0 -0.15625,0.0781 -0.17188,0.1875 -0.46875,1.35938 -1.67187,1.35938 -1.79687,1.35938 -0.67188,0 -1.20313,-0.39063 -1.5,-0.89063 -0.40625,-0.64062 -0.40625,-1.51562 -0.40625,-1.98437 z m 8.85547,2.04687 c 0.0469,0.53125 0.40625,1.09375 1.03125,1.09375 0.28125,0 1.09375,-0.1875 1.09375,-1.26562 v -0.73438 h -0.32813 v 0.73438 c 0,0.78125 -0.32812,0.85937 -0.48437,0.85937 -0.4375,0 -0.48438,-0.60937 -0.48438,-0.67187 v -2.65625 c 0,-0.54688 0,-1.07813 -0.48437,-1.56251 -0.51563,-0.51562 -1.17188,-0.73437 -1.8125,-0.73437 -1.09375,0 -2.01563,0.625 -2.01563,1.5 0,0.40625 0.26563,0.625 0.60938,0.625 0.375,0 0.625,-0.26563 0.625,-0.60938 0,-0.15625 -0.0781,-0.59375 -0.6875,-0.60937 0.35937,-0.46875 1.01562,-0.60938 1.4375,-0.60938 0.65625,0 1.40625,0.51563 1.40625,1.70313 v 0.48438 c -0.67188,0.0469 -1.60938,0.0781 -2.4375,0.48437 -1,0.45313 -1.32813,1.14063 -1.32813,1.71875 0,1.07813 1.28125,1.40625 2.125,1.40625 0.875,0 1.48438,-0.53125 1.73438,-1.15625 z m -0.0937,-2.17187 v 1.32812 c 0,1.26563 -0.95313,1.71875 -1.54688,1.71875 -0.65625,0 -1.20312,-0.46875 -1.20312,-1.14062 0,-0.71875 0.5625,-1.82813 2.75,-1.90625 z m 3.72266,2.17187 c 0,0.60938 -0.14063,0.60938 -1.03125,0.60938 v 0.40625 c 0.4375,-0.0156 1.0625,-0.0469 1.4375,-0.0469 0.40625,0 0.9375,0.0156 1.46875,0.0469 v -0.40625 c -0.89063,0 -1.03125,0 -1.03125,-0.60938 v -1.35937 l 0.84375,-0.73438 c 1.03125,1.40625 1.57812,2.15625 1.57812,2.39063 0,0.25 -0.21875,0.3125 -0.46875,0.3125 v 0.40625 c 0.35938,-0.0156 1.15625,-0.0469 1.42188,-0.0469 0.39062,0 0.78125,0.0156 1.15625,0.0469 v -0.40625 c -0.48438,0 -0.78125,0 -1.28125,-0.70313 l -1.68751,-2.39062 c -0.0156,-0.0156 -0.0781,-0.0937 -0.0781,-0.14063 0,-0.0469 0.9375,-0.84375 1.07813,-0.95313 0.82812,-0.67187 1.39062,-0.70312 1.67187,-0.71875 v -0.40625 c -0.39062,0.0312 -0.5625,0.0312 -0.9375,0.0312 -0.46875,0 -1.29687,-0.0312 -1.48437,-0.0312 v 0.40625 c 0.25,0.0156 0.39062,0.15625 0.39062,0.32813 0,0.26562 -0.1875,0.42187 -0.29687,0.51562 l -1.875,1.62501 v -6.37501 l -1.90625,0.14063 v 0.42187 c 0.92187,0 1.03125,0.0937 1.03125,0.73438 z m 6.71484,-2.32812 c 0.0781,-1.98438 1.20312,-2.31251 1.65625,-2.31251 1.35937,0 1.5,1.79688 1.5,2.31251 z m -0.0156,0.28125 h 3.71875 c 0.28125,0 0.32813,0 0.32813,-0.28125 0,-1.31251 -0.71875,-2.60938 -2.375,-2.60938 -1.54688,0 -2.76563,1.375 -2.76563,3.03125 0,1.78125 1.39063,3.0625 2.92188,3.0625 1.625,0 2.21875,-1.46875 2.21875,-1.71875 0,-0.14062 -0.10937,-0.15625 -0.17188,-0.15625 -0.125,0 -0.15625,0.0781 -0.17187,0.1875 -0.46875,1.35938 -1.67188,1.35938 -1.79688,1.35938 -0.67187,0 -1.20312,-0.39063 -1.5,-0.89063 -0.40625,-0.64062 -0.40625,-1.51562 -0.40625,-1.98437 z m 6.65235,-1.34376 v -1.46875 l -1.84375,0.15625 v 0.40625 c 0.92187,0 1.03125,0.0937 1.03125,0.75 v 3.54688 c 0,0.60938 -0.14063,0.60938 -1.03125,0.60938 v 0.40625 c 0.51562,-0.0156 1.14062,-0.0469 1.51562,-0.0469 0.53125,0 1.15625,0 1.6875,0.0469 v -0.40625 h -0.28125 c -0.98437,0 -1.01562,-0.15625 -1.01562,-0.625 v -2.04688 c 0,-1.3125 0.5625,-2.5 1.57812,-2.5 0.0781,0 0.10937,0 0.14063,0.0156 -0.0469,0.0156 -0.3125,0.17187 -0.3125,0.51562 0,0.375 0.28125,0.57813 0.57812,0.57813 0.23438,0 0.5625,-0.17188 0.5625,-0.59375 0,-0.42188 -0.40625,-0.8125 -0.96875,-0.8125 -0.98437,0 -1.45312,0.89062 -1.64062,1.46875 z m 0,0"
       style="fill:#000000;fill-opacity:1;fill-rule:nonzero;stroke:none;stroke-width:1.33333"
       aria-label="Speaker" />
    <g
       id="g40"
       aria-label="[A+m(t)]cosω&#10;c&#10;t"
       transform="matrix(1.3333333,0,0,1.3333333,237.28267,42.839447)">
      <path
         id="path41"
         d="M 2.5419063,2.4960625 V 2.097625 H 1.56925 V -7.0781563 H 2.5419063 V -7.4765938 H 1.1708125 V 2.4960625 Z M 6.7284297,-6.9375313 C 6.6815547,-7.0664375 6.6581172,-7.13675 6.5057734,-7.13675 c -0.1640625,0 -0.1875,0.058594 -0.2460937,0.1992187 l -2.0625,5.9648438 c -0.1757813,0.50390625 -0.5742188,0.65625 -1.1132813,0.66796875 v 0.3046875 c 0.234375,-0.01171875 0.65625,-0.03515625 1.0195313,-0.03515625 0.3046875,0 0.8203125,0.0234375 1.1484375,0.03515625 v -0.3046875 c -0.5039063,0 -0.75,-0.2578125 -0.75,-0.515625 0,-0.0234375 0.011719,-0.12890625 0.023437,-0.140625 L 4.9823359,-2.2734688 h 2.4609375 l 0.5273438,1.52343755 c 0.011719,0.046875 0.023437,0.10546875 0.023437,0.140625 0,0.3046875 -0.5507813,0.3046875 -0.8203125,0.3046875 v 0.3046875 c 0.351563,-0.03515625 1.054688,-0.03515625 1.429688,-0.03515625 0.4335937,0 0.890625,0.01171875 1.3007812,0.03515625 v -0.3046875 H 9.7284297 c -0.5976563,0 -0.7382813,-0.0703125 -0.84375,-0.3984375 z m -0.5273438,1.125 1.125,3.234375 H 5.0878047 Z m 11.4345701,3.515625 H 20.413 c 0.140625,0 0.328125,0 0.328125,-0.1992187 0,-0.1992188 -0.1875,-0.1992188 -0.328125,-0.1992188 h -2.777344 v -2.7890625 c 0,-0.1289062 0,-0.328125 -0.199218,-0.328125 -0.199219,0 -0.199219,0.1992188 -0.199219,0.328125 v 2.7890625 h -2.789063 c -0.140625,0 -0.328125,0 -0.328125,0.1992188 0,0.1992187 0.1875,0.1992187 0.328125,0.1992187 h 2.789063 V 0.503875 c 0,0.12890625 0,0.328125 0.199219,0.328125 0.199218,0 0.199218,-0.19921875 0.199218,-0.328125 z m 0,0"
         style="fill:#000000;fill-opacity:1;fill-rule:nonzero;stroke:none" />
      <path
         id="path42"
         d="m 25.507727,-0.58596875 c -0.03516,0.15234375 -0.09375,0.375 -0.09375,0.421875 0,0.1875 0.140625,0.26953125 0.292968,0.26953125 0.117188,0 0.292969,-0.0703125 0.363282,-0.26953125 0.01172,-0.0234375 0.128906,-0.4921875 0.1875,-0.73828125 l 0.222656,-0.9023438 c 0.05859,-0.2226562 0.117187,-0.4335937 0.175781,-0.6679687 0.03516,-0.1640625 0.117188,-0.4570313 0.128906,-0.4921875 0.140625,-0.3164063 0.667969,-1.21875 1.617188,-1.21875 0.445312,0 0.539062,0.3632812 0.539062,0.6914062 0,0.2578125 -0.07031,0.5390625 -0.152343,0.8320313 l -0.269532,1.1601562 -0.199218,0.75000005 c -0.04687,0.19921875 -0.140625,0.5390625 -0.140625,0.5859375 0,0.1875 0.140625,0.26953125 0.292968,0.26953125 0.304688,0 0.375,-0.24609375 0.445313,-0.5625 0.140625,-0.5625 0.515625,-2.015625 0.597656,-2.4023438 0.03516,-0.1289062 0.5625,-1.3242187 1.652344,-1.3242187 0.421875,0 0.539062,0.3398437 0.539062,0.6914062 0,0.5742188 -0.421875,1.7109375 -0.621093,2.2382813 -0.09375,0.234375 -0.128907,0.3515625 -0.128907,0.55078125 0,0.46875 0.351563,0.80859375 0.808594,0.80859375 0.9375,0 1.3125,-1.453125 1.3125,-1.5351563 0,-0.09375 -0.09375,-0.09375 -0.117187,-0.09375 -0.105469,0 -0.105469,0.023437 -0.152344,0.1757813 -0.152344,0.52734375 -0.46875,1.2421875 -1.019531,1.2421875 -0.164063,0 -0.234375,-0.10546875 -0.234375,-0.328125 0,-0.2578125 0.08203,-0.4921875 0.175781,-0.7148438 0.1875,-0.515625 0.609375,-1.6171875 0.609375,-2.1914062 0,-0.6445313 -0.398438,-1.0664063 -1.148438,-1.0664063 -0.75,0 -1.253906,0.4453125 -1.617187,0.9726563 -0.01172,-0.1289063 -0.04687,-0.46875 -0.328125,-0.7148438 -0.246094,-0.1992187 -0.5625,-0.2578125 -0.808594,-0.2578125 -0.902344,0 -1.382812,0.6445313 -1.558594,0.8671875 -0.04687,-0.5625 -0.46875,-0.8671875 -0.914062,-0.8671875 -0.457031,0 -0.644531,0.3867188 -0.738281,0.5742188 -0.175782,0.3398437 -0.304688,0.9375 -0.304688,0.9609375 0,0.1054687 0.09375,0.1054687 0.117188,0.1054687 0.09375,0 0.105468,-0.011719 0.164062,-0.234375 0.175781,-0.703125 0.375,-1.1835937 0.726563,-1.1835937 0.164062,0 0.316406,0.082031 0.316406,0.4570312 0,0.2109375 -0.03516,0.3164063 -0.164063,0.8320313 z m 0,0"
         style="fill:#000000;fill-opacity:1;fill-rule:nonzero;stroke:none" />
      <path
         id="path43"
         d="m 36.669836,2.3905937 c 0,-0.035156 0,-0.046875 -0.164063,-0.2226562 -1.242187,-1.25390625 -1.570312,-3.12890625 -1.570312,-4.6640625 0,-1.7226563 0.386719,-3.4570313 1.605469,-4.7109375 0.128906,-0.1171875 0.128906,-0.1289063 0.128906,-0.1640625 0,-0.070312 -0.03516,-0.1054688 -0.09375,-0.1054688 -0.105469,0 -0.996094,0.6796875 -1.582031,1.9453125 -0.515625,1.1015625 -0.632813,2.203125 -0.632813,3.0351563 0,0.7851562 0.117188,1.9921875 0.65625,3.1171875 0.597656,1.21875 1.453125,1.875 1.558594,1.875 0.05859,0 0.09375,-0.035156 0.09375,-0.1054688 z m 0,0"
         style="fill:#000000;fill-opacity:1;fill-rule:nonzero;stroke:none" />
      <path
         id="path44"
         d="m 39.303625,-3.9844063 h 0.9375 c 0.199219,0 0.304688,0 0.304688,-0.1992187 0,-0.1054688 -0.105469,-0.1054688 -0.28125,-0.1054688 h -0.878907 c 0.363282,-1.4179687 0.410157,-1.6171875 0.410157,-1.6757812 0,-0.1757813 -0.117188,-0.2695313 -0.292969,-0.2695313 -0.02344,0 -0.304688,0.011719 -0.398438,0.3515625 l -0.386718,1.59375 h -0.9375 c -0.199219,0 -0.292969,0 -0.292969,0.1875 0,0.1171875 0.07031,0.1171875 0.269531,0.1171875 h 0.878906 c -0.714843,2.8242188 -0.75,3.00000005 -0.75,3.1757813 0,0.5390625 0.375,0.9140625 0.914063,0.9140625 1.007812,0 1.582031,-1.453125 1.582031,-1.5351563 0,-0.09375 -0.08203,-0.09375 -0.117187,-0.09375 -0.09375,0 -0.105469,0.023437 -0.152344,0.140625 -0.433594,1.03125005 -0.960938,1.2773438 -1.300781,1.2773438 -0.199219,0 -0.304688,-0.12890625 -0.304688,-0.45703125 0,-0.24609375 0.02344,-0.31640625 0.05859,-0.48046875 z m 0,0"
         style="fill:#000000;fill-opacity:1;fill-rule:nonzero;stroke:none" />
      <path
         id="path45"
         d="m 43.730383,-2.496125 c 0,-0.7734375 -0.117188,-1.9804688 -0.65625,-3.1054688 -0.597656,-1.21875 -1.464844,-1.875 -1.558594,-1.875 -0.05859,0 -0.105469,0.046875 -0.105469,0.1054688 0,0.035156 0,0.046875 0.199219,0.234375 0.972656,0.984375 1.535156,2.5664062 1.535156,4.640625 0,1.7109375 -0.363281,3.45703125 -1.59375,4.7226562 -0.140625,0.1171875 -0.140625,0.1289063 -0.140625,0.1640625 0,0.058594 0.04687,0.1054688 0.105469,0.1054688 0.09375,0 0.996094,-0.6796875 1.582031,-1.9453125 0.503907,-1.1015625 0.632813,-2.203125 0.632813,-3.046875 z m 2.575195,-4.9804688 h -1.359375 v 0.3984375 h 0.960938 V 2.097625 h -0.960938 v 0.3984375 h 1.359375 z M 51.968664,-2.168 c 0,-1.6289063 0.820313,-2.0507813 1.347656,-2.0507813 0.09375,0 0.714844,0.011719 1.066407,0.375 -0.410157,0.023437 -0.46875,0.328125 -0.46875,0.4570313 0,0.2578125 0.1875,0.4570312 0.457031,0.4570312 0.257812,0 0.457031,-0.1640625 0.457031,-0.46875 0,-0.6796875 -0.75,-1.0664062 -1.523437,-1.0664062 -1.242188,0 -2.15625,1.078125 -2.15625,2.3085937 0,1.2773438 0.984375,2.2617188 2.144531,2.2617188 1.335937,0 1.652344,-1.1953125 1.652344,-1.2890625 0,-0.1054688 -0.105469,-0.1054688 -0.128907,-0.1054688 -0.09375,0 -0.117187,0.046875 -0.128906,0.1054688 -0.292969,0.92578125 -0.9375,1.04296875 -1.3125,1.04296875 -0.527344,0 -1.40625,-0.421875 -1.40625,-2.02734375 z m 7.954102,0.035156 c 0,-1.2773437 -0.996094,-2.3320312 -2.191407,-2.3320312 -1.253906,0 -2.214843,1.0898437 -2.214843,2.3320312 0,1.28906255 1.03125,2.2382813 2.203125,2.2382813 1.207031,0 2.203125,-0.97265625 2.203125,-2.2382813 z m -2.191407,1.99218755 c -0.433593,0 -0.867187,-0.2109375 -1.136718,-0.66796875 -0.257813,-0.4335938 -0.257813,-1.0429688 -0.257813,-1.40625 0,-0.3867188 0,-0.9257813 0.246094,-1.359375 0.269531,-0.4570313 0.738281,-0.6679688 1.136719,-0.6679688 0.433593,0 0.867187,0.2226563 1.125,0.6445313 0.257812,0.4335937 0.257812,1.0078125 0.257812,1.3828125 0,0.3632812 0,0.9023437 -0.222656,1.3359375 -0.222656,0.4453125 -0.65625,0.73828125 -1.148438,0.73828125 z M 62.292883,-1.933625 c 0.222656,0.035156 1.03125,0.1992187 1.03125,0.9140625 0,0.515625 -0.351563,0.9140625 -1.125,0.9140625 -0.832031,0 -1.195313,-0.57421875 -1.382813,-1.4179688 C 60.78116,-1.652375 60.78116,-1.69925 60.675695,-1.69925 c -0.128906,0 -0.128906,0.070312 -0.128906,0.2578125 v 1.3125 c 0,0.1640625 0,0.234375 0.105469,0.234375 0.05859,0 0.07031,0 0.257812,-0.19921875 0.01172,-0.01171875 0.01172,-0.03515625 0.199219,-0.22265625 0.433594,0.421875 0.878906,0.421875 1.089844,0.421875 1.148437,0 1.605469,-0.66796875 1.605469,-1.3828125 0,-0.5273438 -0.292969,-0.8203125 -0.421875,-0.9492188 -0.328125,-0.3164062 -0.714844,-0.3984375 -1.136719,-0.46875 -0.550781,-0.1171875 -1.21875,-0.2460937 -1.21875,-0.8203125 0,-0.3515625 0.257812,-0.7617187 1.113281,-0.7617187 1.101563,0 1.148438,0.9023437 1.171875,1.2070312 0,0.09375 0.09375,0.09375 0.117188,0.09375 0.128906,0 0.128906,-0.046875 0.128906,-0.2460937 v -0.9960938 c 0,-0.1757812 0,-0.2460937 -0.117188,-0.2460937 -0.04687,0 -0.07031,0 -0.199218,0.1171875 -0.02344,0.046875 -0.128907,0.1289062 -0.164063,0.1640625 -0.375,-0.28125 -0.785156,-0.28125 -0.9375,-0.28125 -1.21875,0 -1.59375,0.6679687 -1.59375,1.2304687 0,0.3398438 0.164063,0.6210938 0.433594,0.84375 0.316406,0.2578125 0.597656,0.3164063 1.3125,0.4570313 z m 0,0"
         style="fill:#000000;fill-opacity:1;fill-rule:nonzero;stroke:none" />
      <path
         id="path46"
         d="m 73.496008,-3.7031563 c 0,-0.4453125 -0.175781,-0.703125 -0.398438,-0.703125 -0.257812,0 -0.527343,0.2460938 -0.527343,0.46875 0,0.1054688 0.04687,0.2109375 0.152343,0.3046875 0.164063,0.140625 0.351563,0.4101563 0.351563,0.8320313 0,0.3984375 -0.1875,0.9726562 -0.503906,1.4296875 -0.292969,0.421875 -0.667969,0.76171875 -1.136719,0.76171875 -0.5625,0 -0.867188,-0.3515625 -0.960938,-0.89062505 0.105469,-0.2578125 0.339844,-0.9023437 0.339844,-1.1835937 0,-0.1171875 -0.04687,-0.2109375 -0.1875,-0.2109375 -0.07031,0 -0.1875,0.011719 -0.257812,0.1640625 -0.117188,0.1992187 -0.234375,0.84375 -0.234375,1.2070312 -0.328125,0.46875 -0.726563,0.91406255 -1.359375,0.91406255 -0.65625,0 -0.867188,-0.58593755 -0.867188,-1.14843755 0,-1.2421875 1.019531,-2.2851562 1.019531,-2.4140625 0,-0.1171875 -0.08203,-0.1875 -0.1875,-0.1875 -0.128906,0 -0.199218,0.1289063 -0.257812,0.2109375 -0.503906,0.7382813 -0.890625,1.921875 -0.890625,2.8359375 0,0.67968755 0.234375,1.4179688 1.042969,1.4179688 0.714843,0 1.183593,-0.4921875 1.535156,-1.04296875 0.09375,0.57421875 0.480469,1.04296875 1.101562,1.04296875 0.773438,0 1.253907,-0.609375 1.617188,-1.3476563 0.234375,-0.4921875 0.609375,-1.8515625 0.609375,-2.4609375 z m 0,0"
         style="fill:#000000;fill-opacity:1;fill-rule:nonzero;stroke:none" />
      <path
         id="path47"
         d="m 76.730383,-1.1777656 c -0.257813,0.046875 -0.363281,0.23437497 -0.363281,0.38671872 0,0.1875 0.152343,0.2578125 0.269531,0.2578125 0.164062,0 0.398437,-0.10546875 0.398437,-0.4453125 0,-0.46875002 -0.539062,-0.59765622 -0.914062,-0.59765622 -1.042969,0 -2.015625,0.96093747 -2.015625,1.92187497 0,0.609375 0.421875,1.21875003 1.289062,1.21875003 1.183594,0 1.734375,-0.69140628 1.734375,-0.78515628 0,-0.046875 -0.07031,-0.1171875 -0.128906,-0.1171875 -0.03516,0 -0.04687,0.0117188 -0.105469,0.0703125 -0.550781,0.63281248 -1.359375,0.63281248 -1.488281,0.63281248 -0.503906,0 -0.726562,-0.3398437 -0.726562,-0.77343748 0,-0.19921875 0.105468,-0.9609375 0.46875,-1.44140625 0.257812,-0.33984377 0.621093,-0.53906247 0.972656,-0.53906247 0.09375,0 0.433594,0.011719 0.609375,0.2109375 z m 0,0"
         style="fill:#000000;fill-opacity:1;fill-rule:nonzero;stroke:none" />
      <path
         id="path48"
         d="m 79.783117,-3.9844063 h 0.9375 c 0.199219,0 0.304688,0 0.304688,-0.1992187 0,-0.1054688 -0.105469,-0.1054688 -0.28125,-0.1054688 h -0.878907 c 0.363282,-1.4179687 0.410157,-1.6171875 0.410157,-1.6757812 0,-0.1757813 -0.117188,-0.2695313 -0.292969,-0.2695313 -0.02344,0 -0.304688,0.011719 -0.398438,0.3515625 l -0.386718,1.59375 h -0.9375 c -0.199219,0 -0.292969,0 -0.292969,0.1875 0,0.1171875 0.07031,0.1171875 0.269531,0.1171875 h 0.878906 c -0.714843,2.8242188 -0.75,3.00000005 -0.75,3.1757813 0,0.5390625 0.375,0.9140625 0.914063,0.9140625 1.007812,0 1.582031,-1.453125 1.582031,-1.5351563 0,-0.09375 -0.08203,-0.09375 -0.117187,-0.09375 -0.09375,0 -0.105469,0.023437 -0.152344,0.140625 -0.433594,1.03125005 -0.960938,1.2773438 -1.300781,1.2773438 -0.199219,0 -0.304688,-0.12890625 -0.304688,-0.45703125 0,-0.24609375 0.02344,-0.31640625 0.05859,-0.48046875 z m 0,0"
         style="fill:#000000;fill-opacity:1;fill-rule:nonzero;stroke:none" />
    </g>
    <g
       id="g48"
       aria-label="[A+m(t)]cosω&#10;IF&#10;t"
       transform="matrix(1.3333333,0,0,1.3333333,509.088,14.390667)">
      <path
         id="path49"
         d="M 2.5443516,2.4960625 V 2.097625 H 1.5716953 V -7.0781563 H 2.5443516 V -7.4765938 H 1.1732578 V 2.4960625 Z M 6.7279453,-6.9375313 C 6.6810703,-7.0664375 6.6576328,-7.13675 6.5052891,-7.13675 c -0.1640625,0 -0.1875,0.058594 -0.2460938,0.1992187 l -2.0625,5.9648438 c -0.1757812,0.50390625 -0.5742187,0.65625 -1.1132812,0.66796875 v 0.3046875 c 0.234375,-0.01171875 0.65625,-0.03515625 1.0195312,-0.03515625 0.3046875,0 0.8203125,0.0234375 1.1484375,0.03515625 v -0.3046875 c -0.5039062,0 -0.75,-0.2578125 -0.75,-0.515625 0,-0.0234375 0.011719,-0.12890625 0.023437,-0.140625 L 4.9818516,-2.2734688 h 2.4609375 l 0.5273437,1.52343755 c 0.011719,0.046875 0.023437,0.10546875 0.023437,0.140625 0,0.3046875 -0.5507812,0.3046875 -0.8203125,0.3046875 v 0.3046875 c 0.351563,-0.03515625 1.054688,-0.03515625 1.429688,-0.03515625 0.4335938,0 0.890625,0.01171875 1.3007813,0.03515625 v -0.3046875 H 9.7279453 c -0.5976562,0 -0.7382812,-0.0703125 -0.84375,-0.3984375 z m -0.5273437,1.125 1.125,3.234375 H 5.0873203 Z m 11.4345704,3.515625 h 2.777344 c 0.140625,0 0.328125,0 0.328125,-0.1992187 0,-0.1992188 -0.1875,-0.1992188 -0.328125,-0.1992188 h -2.777344 v -2.7890625 c 0,-0.1289062 0,-0.328125 -0.199219,-0.328125 -0.199219,0 -0.199219,0.1992188 -0.199219,0.328125 v 2.7890625 h -2.789062 c -0.140625,0 -0.328125,0 -0.328125,0.1992188 0,0.1992187 0.1875,0.1992187 0.328125,0.1992187 h 2.789062 V 0.503875 c 0,0.12890625 0,0.328125 0.199219,0.328125 0.199219,0 0.199219,-0.19921875 0.199219,-0.328125 z m 0,0"
         style="fill:#000000;fill-opacity:1;fill-rule:nonzero;stroke:none" />
      <path
         id="path50"
         d="m 25.510172,-0.58596875 c -0.03516,0.15234375 -0.09375,0.375 -0.09375,0.421875 0,0.1875 0.140625,0.26953125 0.292969,0.26953125 0.117187,0 0.292968,-0.0703125 0.363281,-0.26953125 0.01172,-0.0234375 0.128906,-0.4921875 0.1875,-0.73828125 l 0.222656,-0.9023438 c 0.05859,-0.2226562 0.117188,-0.4335937 0.175781,-0.6679687 0.03516,-0.1640625 0.117188,-0.4570313 0.128907,-0.4921875 0.140625,-0.3164063 0.667968,-1.21875 1.617187,-1.21875 0.445313,0 0.539063,0.3632812 0.539063,0.6914062 0,0.2578125 -0.07031,0.5390625 -0.152344,0.8320313 l -0.269531,1.1601562 -0.199219,0.75000005 c -0.04687,0.19921875 -0.140625,0.5390625 -0.140625,0.5859375 0,0.1875 0.140625,0.26953125 0.292969,0.26953125 0.304687,0 0.375,-0.24609375 0.445312,-0.5625 0.140625,-0.5625 0.515625,-2.015625 0.597656,-2.4023438 0.03516,-0.1289062 0.5625,-1.3242187 1.652344,-1.3242187 0.421875,0 0.539063,0.3398437 0.539063,0.6914062 0,0.5742188 -0.421875,1.7109375 -0.621094,2.2382813 -0.09375,0.234375 -0.128906,0.3515625 -0.128906,0.55078125 0,0.46875 0.351562,0.80859375 0.808593,0.80859375 0.9375,0 1.3125,-1.453125 1.3125,-1.5351563 0,-0.09375 -0.09375,-0.09375 -0.117187,-0.09375 -0.105469,0 -0.105469,0.023437 -0.152344,0.1757813 -0.152344,0.52734375 -0.46875,1.2421875 -1.019531,1.2421875 -0.164063,0 -0.234375,-0.10546875 -0.234375,-0.328125 0,-0.2578125 0.08203,-0.4921875 0.175781,-0.7148438 0.1875,-0.515625 0.609375,-1.6171875 0.609375,-2.1914062 0,-0.6445313 -0.398437,-1.0664063 -1.148437,-1.0664063 -0.75,0 -1.253907,0.4453125 -1.617188,0.9726563 -0.01172,-0.1289063 -0.04687,-0.46875 -0.328125,-0.7148438 -0.246094,-0.1992187 -0.5625,-0.2578125 -0.808594,-0.2578125 -0.902343,0 -1.382812,0.6445313 -1.558593,0.8671875 -0.04687,-0.5625 -0.46875,-0.8671875 -0.914063,-0.8671875 -0.457031,0 -0.644531,0.3867188 -0.738281,0.5742188 -0.175781,0.3398437 -0.304688,0.9375 -0.304688,0.9609375 0,0.1054687 0.09375,0.1054687 0.117188,0.1054687 0.09375,0 0.105469,-0.011719 0.164062,-0.234375 0.175782,-0.703125 0.375,-1.1835937 0.726563,-1.1835937 0.164062,0 0.316406,0.082031 0.316406,0.4570312 0,0.2109375 -0.03516,0.3164063 -0.164062,0.8320313 z m 0,0"
         style="fill:#000000;fill-opacity:1;fill-rule:nonzero;stroke:none" />
      <path
         id="path51"
         d="m 36.669352,2.3905937 c 0,-0.035156 0,-0.046875 -0.164063,-0.2226562 -1.242187,-1.25390625 -1.570312,-3.12890625 -1.570312,-4.6640625 0,-1.7226563 0.386718,-3.4570313 1.605468,-4.7109375 0.128907,-0.1171875 0.128907,-0.1289063 0.128907,-0.1640625 0,-0.070312 -0.03516,-0.1054688 -0.09375,-0.1054688 -0.105469,0 -0.996094,0.6796875 -1.582032,1.9453125 -0.515625,1.1015625 -0.632812,2.203125 -0.632812,3.0351563 0,0.7851562 0.117187,1.9921875 0.65625,3.1171875 0.597656,1.21875 1.453125,1.875 1.558594,1.875 0.05859,0 0.09375,-0.035156 0.09375,-0.1054688 z m 0,0"
         style="fill:#000000;fill-opacity:1;fill-rule:nonzero;stroke:none" />
      <path
         id="path52"
         d="m 39.303141,-3.9844063 h 0.9375 c 0.199218,0 0.304687,0 0.304687,-0.1992187 0,-0.1054688 -0.105469,-0.1054688 -0.28125,-0.1054688 h -0.878906 c 0.363281,-1.4179687 0.410156,-1.6171875 0.410156,-1.6757812 0,-0.1757813 -0.117187,-0.2695313 -0.292969,-0.2695313 -0.02344,0 -0.304687,0.011719 -0.398437,0.3515625 l -0.386719,1.59375 h -0.9375 c -0.199219,0 -0.292969,0 -0.292969,0.1875 0,0.1171875 0.07031,0.1171875 0.269532,0.1171875 h 0.878906 c -0.714844,2.8242188 -0.75,3.00000005 -0.75,3.1757813 0,0.5390625 0.375,0.9140625 0.914062,0.9140625 1.007813,0 1.582032,-1.453125 1.582032,-1.5351563 0,-0.09375 -0.08203,-0.09375 -0.117188,-0.09375 -0.09375,0 -0.105469,0.023437 -0.152344,0.140625 -0.433593,1.03125005 -0.960937,1.2773438 -1.300781,1.2773438 -0.199219,0 -0.304687,-0.12890625 -0.304687,-0.45703125 0,-0.24609375 0.02344,-0.31640625 0.05859,-0.48046875 z m 0,0"
         style="fill:#000000;fill-opacity:1;fill-rule:nonzero;stroke:none" />
      <path
         id="path53"
         d="m 43.732828,-2.496125 c 0,-0.7734375 -0.117187,-1.9804688 -0.65625,-3.1054688 -0.597656,-1.21875 -1.464844,-1.875 -1.558594,-1.875 -0.05859,0 -0.105468,0.046875 -0.105468,0.1054688 0,0.035156 0,0.046875 0.199218,0.234375 0.972657,0.984375 1.535157,2.5664062 1.535157,4.640625 0,1.7109375 -0.363282,3.45703125 -1.59375,4.7226562 -0.140625,0.1171875 -0.140625,0.1289063 -0.140625,0.1640625 0,0.058594 0.04687,0.1054688 0.105468,0.1054688 0.09375,0 0.996094,-0.6796875 1.582032,-1.9453125 0.503906,-1.1015625 0.632812,-2.203125 0.632812,-3.046875 z m 2.572266,-4.9804688 h -1.359375 v 0.3984375 h 0.960937 V 2.097625 h -0.960937 v 0.3984375 h 1.359375 z M 51.96818,-2.168 c 0,-1.6289063 0.820312,-2.0507813 1.347656,-2.0507813 0.09375,0 0.714844,0.011719 1.066406,0.375 -0.410156,0.023437 -0.46875,0.328125 -0.46875,0.4570313 0,0.2578125 0.1875,0.4570312 0.457031,0.4570312 0.257813,0 0.457032,-0.1640625 0.457032,-0.46875 0,-0.6796875 -0.75,-1.0664062 -1.523438,-1.0664062 -1.242187,0 -2.15625,1.078125 -2.15625,2.3085937 0,1.2773438 0.984375,2.2617188 2.144531,2.2617188 1.335938,0 1.652344,-1.1953125 1.652344,-1.2890625 0,-0.1054688 -0.105469,-0.1054688 -0.128906,-0.1054688 -0.09375,0 -0.117188,0.046875 -0.128906,0.1054688 -0.292969,0.92578125 -0.9375,1.04296875 -1.3125,1.04296875 -0.527344,0 -1.40625,-0.421875 -1.40625,-2.02734375 z m 7.954101,0.035156 c 0,-1.2773437 -0.996093,-2.3320312 -2.191406,-2.3320312 -1.253906,0 -2.214844,1.0898437 -2.214844,2.3320312 0,1.28906255 1.03125,2.2382813 2.203125,2.2382813 1.207032,0 2.203125,-0.97265625 2.203125,-2.2382813 z m -2.191406,1.99218755 c -0.433594,0 -0.867187,-0.2109375 -1.136719,-0.66796875 -0.257812,-0.4335938 -0.257812,-1.0429688 -0.257812,-1.40625 0,-0.3867188 0,-0.9257813 0.246094,-1.359375 0.269531,-0.4570313 0.738281,-0.6679688 1.136718,-0.6679688 0.433594,0 0.867188,0.2226563 1.125,0.6445313 0.257813,0.4335937 0.257813,1.0078125 0.257813,1.3828125 0,0.3632812 0,0.9023437 -0.222656,1.3359375 -0.222657,0.4453125 -0.65625,0.73828125 -1.148438,0.73828125 z M 62.292398,-1.933625 c 0.222657,0.035156 1.03125,0.1992187 1.03125,0.9140625 0,0.515625 -0.351562,0.9140625 -1.125,0.9140625 -0.832031,0 -1.195312,-0.57421875 -1.382812,-1.4179688 C 60.78068,-1.652375 60.78068,-1.69925 60.675211,-1.69925 c -0.128906,0 -0.128906,0.070312 -0.128906,0.2578125 v 1.3125 c 0,0.1640625 0,0.234375 0.105468,0.234375 0.05859,0 0.07031,0 0.257813,-0.19921875 0.01172,-0.01171875 0.01172,-0.03515625 0.199219,-0.22265625 0.433593,0.421875 0.878906,0.421875 1.089843,0.421875 1.148438,0 1.605469,-0.66796875 1.605469,-1.3828125 0,-0.5273438 -0.292969,-0.8203125 -0.421875,-0.9492188 -0.328125,-0.3164062 -0.714844,-0.3984375 -1.136719,-0.46875 -0.550781,-0.1171875 -1.21875,-0.2460937 -1.21875,-0.8203125 0,-0.3515625 0.257813,-0.7617187 1.113282,-0.7617187 1.101562,0 1.148437,0.9023437 1.171875,1.2070312 0,0.09375 0.09375,0.09375 0.117187,0.09375 0.128906,0 0.128906,-0.046875 0.128906,-0.2460937 v -0.9960938 c 0,-0.1757812 0,-0.2460937 -0.117187,-0.2460937 -0.04687,0 -0.07031,0 -0.199219,0.1171875 -0.02344,0.046875 -0.128906,0.1289062 -0.164062,0.1640625 -0.375,-0.28125 -0.785157,-0.28125 -0.9375,-0.28125 -1.21875,0 -1.59375,0.6679687 -1.59375,1.2304687 0,0.3398438 0.164062,0.6210938 0.433593,0.84375 0.316407,0.2578125 0.597657,0.3164063 1.3125,0.4570313 z m 0,0"
         style="fill:#000000;fill-opacity:1;fill-rule:nonzero;stroke:none" />
      <path
         id="path54"
         d="m 73.495523,-3.7031563 c 0,-0.4453125 -0.175781,-0.703125 -0.398437,-0.703125 -0.257813,0 -0.527344,0.2460938 -0.527344,0.46875 0,0.1054688 0.04687,0.2109375 0.152344,0.3046875 0.164062,0.140625 0.351562,0.4101563 0.351562,0.8320313 0,0.3984375 -0.1875,0.9726562 -0.503906,1.4296875 -0.292969,0.421875 -0.667969,0.76171875 -1.136719,0.76171875 -0.5625,0 -0.867187,-0.3515625 -0.960937,-0.89062505 0.105469,-0.2578125 0.339844,-0.9023437 0.339844,-1.1835937 0,-0.1171875 -0.04687,-0.2109375 -0.1875,-0.2109375 -0.07031,0 -0.1875,0.011719 -0.257813,0.1640625 -0.117187,0.1992187 -0.234375,0.84375 -0.234375,1.2070312 -0.328125,0.46875 -0.726562,0.91406255 -1.359375,0.91406255 -0.65625,0 -0.867187,-0.58593755 -0.867187,-1.14843755 0,-1.2421875 1.019531,-2.2851562 1.019531,-2.4140625 0,-0.1171875 -0.08203,-0.1875 -0.1875,-0.1875 -0.128906,0 -0.199219,0.1289063 -0.257813,0.2109375 -0.503906,0.7382813 -0.890625,1.921875 -0.890625,2.8359375 0,0.67968755 0.234375,1.4179688 1.042969,1.4179688 0.714844,0 1.183594,-0.4921875 1.535156,-1.04296875 0.09375,0.57421875 0.480469,1.04296875 1.101563,1.04296875 0.773437,0 1.253906,-0.609375 1.617187,-1.3476563 0.234375,-0.4921875 0.609375,-1.8515625 0.609375,-2.4609375 z m 0,0"
         style="fill:#000000;fill-opacity:1;fill-rule:nonzero;stroke:none" />
      <path
         id="path55"
         d="m 76.557047,-2.7129219 c 0.05859,-0.2460937 0.07031,-0.3046875 0.597656,-0.3046875 0.175781,0 0.257813,0 0.257813,-0.140625 0,-0.070312 -0.04687,-0.1054687 -0.117188,-0.1054687 -0.140625,0 -0.316406,0.011719 -0.457031,0.011719 -0.164063,0 -0.328125,0.011719 -0.480469,0.011719 0,0 -0.480469,-0.011719 -0.480469,-0.011719 -0.152343,0 -0.328125,-0.011719 -0.480468,-0.011719 -0.04687,0 -0.152344,0 -0.152344,0.1523437 0,0.09375 0.08203,0.09375 0.234375,0.09375 0.01172,0 0.152344,0 0.269531,0.011719 0.140625,0.011719 0.1875,0.023437 0.1875,0.1054687 0,0.035156 -0.01172,0.082031 -0.03516,0.140625 l -0.925781,3.70312502 c -0.04687,0.23437498 -0.07031,0.30468748 -0.597657,0.30468748 -0.1875,0 -0.257812,0 -0.257812,0.1523438 0,0 0,0.09375 0.117187,0.09375 0.199219,0 0.726563,-0.023437 0.9375,-0.023437 h 0.480469 c 0.152344,0 0.328125,0.023437 0.480469,0.023437 0.04687,0 0.152344,0 0.152344,-0.1523438 0,-0.09375 -0.09375,-0.09375 -0.234375,-0.09375 -0.01172,0 -0.152344,0 -0.292969,-0.023437 -0.164063,-0.011719 -0.164063,-0.035156 -0.164063,-0.1054687 0,0 0,-0.046875 0.03516,-0.15234378 z m 3.568359,1.95703127 h 0.75 c 0.527344,0 0.621094,0.09375 0.621094,0.31640625 0,0.10546875 0,0.1171875 -0.04687,0.31640625 -0.01172,0.046875 -0.02344,0.05859375 -0.02344,0.08203125 0,0.0703125 0.04687,0.10546875 0.117187,0.10546875 0.09375,0 0.105469,-0.03515625 0.140625,-0.1640625 l 0.375,-1.47656247 c 0,-0.023437 0.02344,-0.1289063 0.02344,-0.140625 0,-0.070312 -0.04687,-0.1054688 -0.117188,-0.1054688 -0.09375,0 -0.105469,0.046875 -0.140625,0.1757813 -0.140625,0.5390625 -0.339844,0.6445312 -0.9375,0.6445312 h -0.691406 l 0.433594,-1.7460937 c 0.05859,-0.2226563 0.07031,-0.2460938 0.363281,-0.2460938 H 82.059 c 0.925781,0 1.101563,0.2226563 1.101563,0.8085938 0,0.2226562 -0.03516,0.375 -0.03516,0.4335937 0,0.046875 0.02344,0.1171875 0.117188,0.1171875 0.105469,0 0.117187,-0.070312 0.128906,-0.1875 l 0.128906,-1.2070312 c 0.02344,-0.2109375 -0.03516,-0.2109375 -0.199218,-0.2109375 h -3.726563 c -0.128906,0 -0.222656,0 -0.222656,0.1523437 0,0.09375 0.08203,0.09375 0.222656,0.09375 0,0 0.140625,0 0.269531,0.023437 0.140625,0.011719 0.152344,0.023437 0.152344,0.09375 0,0.046875 -0.02344,0.1171875 -0.02344,0.1523438 L 79.059,0.91989062 C 78.98869,1.1894219 78.97697,1.2480156 78.437906,1.2480156 c -0.117187,0 -0.210937,0 -0.210937,0.140625 0,0.070312 0.04687,0.1054688 0.117187,0.1054688 0.199219,0 0.714844,-0.023437 0.914063,-0.023437 h 0.539062 c 0.175782,0 0.375,0.023437 0.550782,0.023437 0.04687,0 0.152343,0 0.152343,-0.1523438 0,-0.09375 -0.08203,-0.09375 -0.246093,-0.09375 -0.01172,0 -0.1875,0 -0.363282,-0.023437 -0.140625,-0.011719 -0.210937,-0.011719 -0.210937,-0.1171875 0,-0.023437 0,-0.046875 0.02344,-0.11718748 z m 0,0"
         style="fill:#000000;fill-opacity:1;fill-rule:nonzero;stroke:none" />
      <path
         id="path56"
         d="m 86.418375,-3.9844063 h 0.9375 c 0.199219,0 0.304688,0 0.304688,-0.1992187 0,-0.1054688 -0.105469,-0.1054688 -0.28125,-0.1054688 h -0.878907 c 0.363282,-1.4179687 0.410157,-1.6171875 0.410157,-1.6757812 0,-0.1757813 -0.117188,-0.2695313 -0.292969,-0.2695313 -0.02344,0 -0.304688,0.011719 -0.398438,0.3515625 l -0.386718,1.59375 h -0.9375 c -0.199219,0 -0.292969,0 -0.292969,0.1875 0,0.1171875 0.07031,0.1171875 0.269531,0.1171875 h 0.878906 c -0.714843,2.8242188 -0.75,3.00000005 -0.75,3.1757813 0,0.5390625 0.375,0.9140625 0.914063,0.9140625 1.007812,0 1.582031,-1.453125 1.582031,-1.5351563 0,-0.09375 -0.08203,-0.09375 -0.117187,-0.09375 -0.09375,0 -0.105469,0.023437 -0.152344,0.140625 -0.433594,1.03125005 -0.960938,1.2773438 -1.300781,1.2773438 -0.199219,0 -0.304688,-0.12890625 -0.304688,-0.45703125 0,-0.24609375 0.02344,-0.31640625 0.05859,-0.48046875 z m 0,0"
         style="fill:#000000;fill-opacity:1;fill-rule:nonzero;stroke:none" />
    </g>
    <g
       id="g56"
       aria-label="Km(t)"
       transform="matrix(1.3333333,0,0,1.3333333,786.50222,49.476726)">
      <path
         id="path57"
         d="m 5.0751875,-4.0208359 c -0.011719,-0.035156 -0.058594,-0.1171875 -0.058594,-0.140625 0,-0.011719 0.1875,-0.1523438 0.2929687,-0.234375 L 7.055656,-5.7434922 c 0.9375,-0.6796875 1.3242187,-0.7265625 1.6171875,-0.75 0.082031,-0.011719 0.1875,-0.023437 0.1875,-0.1992187 0,-0.046875 -0.035156,-0.1171875 -0.1171875,-0.1171875 -0.2109375,0 -0.46875,0.035156 -0.703125,0.035156 -0.3632813,0 -0.75,-0.035156 -1.1015625,-0.035156 -0.070312,0 -0.1992188,0 -0.1992188,0.1992187 0,0.070312 0.058594,0.1054688 0.1289063,0.1171875 0.2109375,0.011719 0.3046875,0.070312 0.3046875,0.2109375 0,0.1757813 -0.2929688,0.3984375 -0.3632813,0.4570313 L 2.930656,-2.8372422 3.727531,-6.0364609 c 0.09375,-0.3632813 0.1054687,-0.4570313 0.8320312,-0.4570313 0.2578125,0 0.3398438,0 0.3398438,-0.1992187 0,-0.09375 -0.082031,-0.1171875 -0.140625,-0.1171875 -0.2695313,0 -0.9960938,0.035156 -1.265625,0.035156 -0.2929688,0 -0.9960938,-0.035156 -1.2890625,-0.035156 -0.070312,0 -0.1992188,0 -0.1992188,0.1992187 0,0.1171875 0.09375,0.1171875 0.2929688,0.1171875 0.1289062,0 0.3046875,0.011719 0.421875,0.011719 0.1640625,0.023437 0.2226562,0.058594 0.2226562,0.1640625 0,0.035156 -0.011719,0.070312 -0.046875,0.1875 l -1.3359375,5.35546871 c -0.09375,0.38671875 -0.1171875,0.46875 -0.90234375,0.46875 -0.1640625,0 -0.28125,0 -0.28125,0.1875 0,0.1171875 0.12890625,0.1171875 0.15234375,0.1171875 0.28125,0 0.984375,-0.03515625 1.265625,-0.03515625 0.2109375,0 0.4335938,0.01171875 0.6328125,0.01171875 0.2226563,0 0.4453125,0.0234375 0.65625,0.0234375 0.070312,0 0.1992188,0 0.1992188,-0.19921875 0,-0.10546875 -0.09375,-0.10546875 -0.28125,-0.10546875 -0.375,0 -0.6445313,0 -0.6445313,-0.1875 0,-0.0703125 0.058594,-0.28125 0.082031,-0.43359375 C 2.5790938,-1.4427109 2.708,-1.9700547 2.8369063,-2.4973984 l 1.4882812,-1.1484375 1.1601563,2.68359371 c 0.1171875,0.2578125 0.1171875,0.28125 0.1171875,0.33984375 0,0.3046875 -0.4335938,0.31640625 -0.515625,0.31640625 -0.1171875,0 -0.2226563,0 -0.2226563,0.19921875 0,0.10546875 0.1171875,0.10546875 0.140625,0.10546875 0.3984375,0 0.8085938,-0.03515625 1.2070313,-0.03515625 0.2226562,0 0.7617187,0.03515625 0.984375,0.03515625 0.046875,0 0.1757812,0 0.1757812,-0.19921875 0,-0.10546875 -0.1054687,-0.10546875 -0.1992187,-0.10546875 -0.4101563,-0.0117188 -0.5390625,-0.10546875 -0.6914063,-0.45703125 z m 4.9833985,3.43359371 c -0.03516,0.15234375 -0.09375,0.375 -0.09375,0.421875 0,0.1875 0.140625,0.26953125 0.292969,0.26953125 0.117187,0 0.292968,-0.0703125 0.363281,-0.26953125 0.01172,-0.0234375 0.128906,-0.4921875 0.1875,-0.73828125 l 0.222656,-0.90234376 c 0.05859,-0.2226562 0.117188,-0.4335937 0.175781,-0.6679687 0.03516,-0.1640625 0.117188,-0.4570313 0.128907,-0.4921875 0.140625,-0.3164063 0.667968,-1.21875 1.617187,-1.21875 0.445313,0 0.539063,0.3632812 0.539063,0.6914062 0,0.2578125 -0.07031,0.5390625 -0.152344,0.8320313 l -0.269531,1.1601562 -0.199219,0.75000001 c -0.04687,0.19921875 -0.140625,0.5390625 -0.140625,0.5859375 0,0.1875 0.140625,0.26953125 0.292969,0.26953125 0.304687,0 0.375,-0.24609375 0.445312,-0.5625 0.140625,-0.56249996 0.515625,-2.01562496 0.597656,-2.40234376 0.03516,-0.1289062 0.5625,-1.3242187 1.652344,-1.3242187 0.421875,0 0.539063,0.3398437 0.539063,0.6914062 0,0.5742188 -0.421875,1.7109375 -0.621094,2.2382813 -0.09375,0.234375 -0.128906,0.35156246 -0.128906,0.55078121 0,0.46875 0.351562,0.80859375 0.808593,0.80859375 0.9375,0 1.3125,-1.45312496 1.3125,-1.53515626 0,-0.09375 -0.09375,-0.09375 -0.117187,-0.09375 -0.105469,0 -0.105469,0.023437 -0.152344,0.1757813 -0.152344,0.52734371 -0.46875,1.24218746 -1.019531,1.24218746 -0.164063,0 -0.234375,-0.10546875 -0.234375,-0.328125 0,-0.2578125 0.08203,-0.4921875 0.175781,-0.71484376 0.1875,-0.515625 0.609375,-1.6171875 0.609375,-2.1914062 0,-0.6445313 -0.398437,-1.0664063 -1.148437,-1.0664063 -0.75,0 -1.253907,0.4453125 -1.617188,0.9726563 -0.01172,-0.1289063 -0.04687,-0.46875 -0.328125,-0.7148438 -0.246094,-0.1992187 -0.5625,-0.2578125 -0.808594,-0.2578125 -0.902343,0 -1.382812,0.6445313 -1.558593,0.8671875 -0.04687,-0.5625 -0.46875,-0.8671875 -0.914063,-0.8671875 -0.457031,0 -0.644531,0.3867188 -0.738281,0.5742188 -0.1757812,0.3398437 -0.3046875,0.9375 -0.3046875,0.9609375 0,0.1054687 0.09375,0.1054687 0.1171875,0.1054687 0.09375,0 0.1054688,-0.011719 0.1640625,-0.234375 0.1757813,-0.703125 0.3749995,-1.1835937 0.7265625,-1.1835937 0.164062,0 0.316406,0.082031 0.316406,0.4570312 0,0.2109375 -0.03516,0.3164063 -0.164062,0.8320313 z m 0,0"
         style="fill:#000000;fill-opacity:1;fill-rule:nonzero;stroke:none" />
      <path
         id="path58"
         d="m 21.214836,2.3893203 c 0,-0.035156 0,-0.046875 -0.164063,-0.2226562 -1.242187,-1.25390629 -1.570312,-3.12890629 -1.570312,-4.6640625 0,-1.7226563 0.386719,-3.4570313 1.605469,-4.7109375 0.128906,-0.1171875 0.128906,-0.1289063 0.128906,-0.1640625 0,-0.070312 -0.03516,-0.1054688 -0.09375,-0.1054688 -0.105469,0 -0.996094,0.6796875 -1.582031,1.9453125 -0.515625,1.1015625 -0.632813,2.203125 -0.632813,3.0351563 0,0.7851562 0.117188,1.99218746 0.65625,3.11718746 0.597656,1.21875004 1.453125,1.87500004 1.558594,1.87500004 0.05859,0 0.09375,-0.035156 0.09375,-0.1054688 z m 0,0"
         style="fill:#000000;fill-opacity:1;fill-rule:nonzero;stroke:none" />
      <path
         id="path59"
         d="m 23.845695,-3.9856797 h 0.9375 c 0.199219,0 0.304688,0 0.304688,-0.1992187 0,-0.1054688 -0.105469,-0.1054688 -0.28125,-0.1054688 h -0.878906 c 0.363281,-1.4179687 0.410156,-1.6171875 0.410156,-1.6757812 0,-0.1757813 -0.117188,-0.2695313 -0.292969,-0.2695313 -0.02344,0 -0.304687,0.011719 -0.398437,0.3515625 l -0.386719,1.59375 h -0.9375 c -0.199219,0 -0.292969,0 -0.292969,0.1875 0,0.1171875 0.07031,0.1171875 0.269531,0.1171875 h 0.878907 c -0.714844,2.8242188 -0.75,3.00000001 -0.75,3.17578126 0,0.5390625 0.375,0.9140625 0.914062,0.9140625 1.007813,0 1.582031,-1.45312496 1.582031,-1.53515626 0,-0.09375 -0.08203,-0.09375 -0.117187,-0.09375 -0.09375,0 -0.105469,0.023437 -0.152344,0.140625 -0.433594,1.03125001 -0.960937,1.27734376 -1.300781,1.27734376 -0.199219,0 -0.304688,-0.12890625 -0.304688,-0.45703125 0,-0.24609375 0.02344,-0.31640625 0.05859,-0.48046871 z m 0,0"
         style="fill:#000000;fill-opacity:1;fill-rule:nonzero;stroke:none" />
      <path
         id="path60"
         d="m 28.275383,-2.4973984 c 0,-0.7734375 -0.117188,-1.9804688 -0.65625,-3.1054688 -0.597656,-1.21875 -1.464844,-1.875 -1.558594,-1.875 -0.05859,0 -0.105469,0.046875 -0.105469,0.1054688 0,0.035156 0,0.046875 0.199219,0.234375 0.972656,0.984375 1.535156,2.5664062 1.535156,4.640625 0,1.71093746 -0.363281,3.45703121 -1.59375,4.7226562 -0.140625,0.1171875 -0.140625,0.1289063 -0.140625,0.1640625 0,0.058594 0.04687,0.1054688 0.105469,0.1054688 0.09375,0 0.996094,-0.6796875 1.582031,-1.94531254 0.503907,-1.1015625 0.632813,-2.20312496 0.632813,-3.04687496 z m 0,0"
         style="fill:#000000;fill-opacity:1;fill-rule:nonzero;stroke:none" />
    </g>
    <g
       id="g64"
       transform="translate(-0.44689144,1.9859895)">
      <path
         id="path3"
         d="M 85.841598,65.800276 H 123.63733"
         style="fill:none;stroke:#000000;stroke-width:1.06268;stroke-linecap:butt;stroke-linejoin:miter;stroke-miterlimit:10;stroke-dasharray:none;stroke-opacity:1" />
      <path
         id="path6"
         d="M 48.045839,65.800276 H 84.898438"
         style="fill:none;stroke:#000000;stroke-width:1.06268;stroke-linecap:butt;stroke-linejoin:miter;stroke-miterlimit:10;stroke-dasharray:none;stroke-opacity:1" />
      <path
         id="path7"
         d="m 82.82624,63.037344 c 0.17268,1.036107 2.0722,2.590267 2.590227,2.762934 -0.518027,0.172666 -2.417547,1.726826 -2.590227,2.762933"
         style="fill:none;stroke:#000000;stroke-width:0.850133;stroke-linecap:round;stroke-linejoin:round;stroke-miterlimit:10;stroke-dasharray:none;stroke-opacity:1" />
      <path
         id="path8"
         d="m 55.720769,35.807669 c -0.0625,-0.171875 -0.09375,-0.265625 -0.296875,-0.265625 -0.21875,0 -0.25,0.07813 -0.328125,0.265625 l -2.75,7.953124 c -0.234375,0.671875 -0.765625,0.875 -1.484375,0.890625 v 0.40625 c 0.3125,-0.01563 0.875,-0.04687 1.359375,-0.04687 0.40625,0 1.09375,0.03125 1.53125,0.04687 v -0.40625 c -0.671875,0 -1,-0.34375 -1,-0.6875 0,-0.03125 0.01563,-0.171875 0.03125,-0.1875 l 0.609376,-1.75 h 3.28125 l 0.703125,2.03125 c 0.01563,0.0625 0.03125,0.140625 0.03125,0.1875 0,0.40625 -0.734375,0.40625 -1.09375,0.40625 v 0.40625 c 0.46875,-0.04687 1.40625,-0.04687 1.90625,-0.04687 0.578125,0 1.1875,0.01563 1.734375,0.04687 v -0.40625 H 59.72077 c -0.796875,0 -0.984375,-0.09375 -1.125,-0.53125 z m -0.703125,1.5 1.5,4.312499 h -2.984375 z m 6.851563,3.187499 v 3.546875 c 0,0.609375 -0.15625,0.609375 -1.046875,0.609375 v 0.40625 c 0.46875,-0.01563 1.140625,-0.04687 1.5,-0.04687 0.34375,0 1.046875,0.03125 1.484374,0.04687 v -0.40625 c -0.874999,0 -1.031249,0 -1.031249,-0.609375 v -2.4375 c 0,-1.374999 0.953125,-2.124999 1.796875,-2.124999 0.828125,0 0.984374,0.71875 0.984374,1.468749 v 3.09375 c 0,0.609375 -0.156249,0.609375 -1.031249,0.609375 v 0.40625 c 0.453125,-0.01563 1.140625,-0.04687 1.5,-0.04687 0.343749,0 1.031249,0.03125 1.484375,0.04687 v -0.40625 c -0.6875,0 -1.03125,0 -1.046875,-0.40625 v -2.53125 c 0,-1.140625 0,-1.5625 -0.406251,-2.03125 -0.1875,-0.234374 -0.625,-0.5 -1.390624,-0.5 -0.96875,0 -1.59375,0.578126 -1.96875,1.40625 v -1.40625 l -1.875,0.15625 v 0.40625 c 0.9375,0 1.046875,0.09375 1.046875,0.75 z m 7.835937,-0.75 h 1.90625 v -0.40625 h -1.90625 V 36.885794 H 69.37702 c -0.01563,1.09375 -0.421876,2.515624 -1.718751,2.5625 v 0.296874 h 1.125 v 3.671875 c 0,1.625 1.234375,1.78125 1.71875,1.78125 0.9375,0 1.3125,-0.9375 1.3125,-1.78125 v -0.765625 h -0.328125 v 0.734375 c 0,0.984375 -0.406251,1.484375 -0.890625,1.484375 -0.890625,0 -0.890625,-1.203125 -0.890625,-1.4375 z m 4.355469,1.96875 c 0.07812,-1.984374 1.203125,-2.3125 1.656249,-2.3125 1.359376,0 1.5,1.796875 1.5,2.3125 z m -0.01563,0.28125 h 3.718751 c 0.281249,0 0.328124,0 0.328124,-0.28125 0,-1.3125 -0.71875,-2.609374 -2.375,-2.609374 -1.546875,0 -2.765624,1.374999 -2.765624,3.031249 0,1.78125 1.390624,3.0625 2.921874,3.0625 1.625,0 2.21875,-1.46875 2.21875,-1.71875 0,-0.140625 -0.109374,-0.15625 -0.171875,-0.15625 -0.125,0 -0.156249,0.07813 -0.171875,0.1875 -0.46875,1.359375 -1.671874,1.359375 -1.796874,1.359375 -0.671876,0 -1.203126,-0.390625 -1.5,-0.890625 -0.40625,-0.640625 -0.40625,-1.515625 -0.406251,-1.984375 z m 5.902344,-1.5 v 3.546875 c 0,0.609375 -0.156249,0.609375 -1.046875,0.609375 v 0.40625 c 0.46875,-0.01563 1.140626,-0.04687 1.5,-0.04687 0.34375,0 1.046875,0.03125 1.484375,0.04687 v -0.40625 c -0.875,0 -1.031249,0 -1.031249,-0.609375 v -2.4375 c 0,-1.374999 0.953124,-2.124999 1.796874,-2.124999 0.828126,0 0.984375,0.71875 0.984375,1.468749 v 3.09375 c 0,0.609375 -0.156249,0.609375 -1.031249,0.609375 v 0.40625 c 0.453124,-0.01563 1.140624,-0.04687 1.499999,-0.04687 0.34375,0 1.03125,0.03125 1.484375,0.04687 v -0.40625 c -0.6875,0 -1.031251,0 -1.046875,-0.40625 v -2.53125 c 0,-1.140625 0,-1.5625 -0.40625,-2.03125 -0.1875,-0.234374 -0.625,-0.5 -1.390625,-0.5 -0.96875,0 -1.59375,0.578126 -1.96875,1.40625 v -1.40625 l -1.875,0.15625 v 0.40625 c 0.9375,0 1.046875,0.09375 1.046875,0.75 z m 7.378906,0 v 3.546875 c 0,0.609375 -0.15625,0.609375 -1.046876,0.609375 v 0.40625 c 0.468751,-0.01563 1.140626,-0.04687 1.5,-0.04687 0.343751,0 1.046876,0.03125 1.484376,0.04687 v -0.40625 c -0.875,0 -1.03125,0 -1.03125,-0.609375 v -2.4375 c 0,-1.374999 0.953125,-2.124999 1.796874,-2.124999 0.828126,0 0.984376,0.71875 0.984376,1.468749 v 3.09375 c 0,0.609375 -0.15625,0.609375 -1.03125,0.609375 v 0.40625 c 0.453125,-0.01563 1.140625,-0.04687 1.5,-0.04687 0.34375,0 1.03125,0.03125 1.484374,0.04687 v -0.40625 c -0.6875,0 -1.031249,0 -1.046874,-0.40625 v -2.53125 c 0,-1.140625 0,-1.5625 -0.40625,-2.03125 -0.1875,-0.234374 -0.625,-0.5 -1.390625,-0.5 -0.968751,0 -1.593751,0.578126 -1.968751,1.40625 v -1.40625 l -1.875,0.15625 v 0.40625 c 0.9375,0 1.046876,0.09375 1.046876,0.75 z m 10.335937,3.546875 c 0.04688,0.53125 0.40625,1.09375 1.03125,1.09375 0.28125,0 1.09375,-0.1875 1.09375,-1.265625 v -0.734375 h -0.328125 v 0.734375 c 0,0.78125 -0.328125,0.859375 -0.484375,0.859375 -0.4375,0 -0.484374,-0.609375 -0.484374,-0.671875 v -2.65625 c 0,-0.546875 0,-1.078124 -0.484376,-1.5625 -0.515624,-0.515624 -1.171875,-0.734374 -1.8125,-0.734374 -1.093749,0 -2.015624,0.625 -2.015624,1.499999 0,0.40625 0.265624,0.625 0.609375,0.625 0.375,0 0.625,-0.265625 0.625,-0.609375 0,-0.15625 -0.07812,-0.59375 -0.6875,-0.609374 0.359374,-0.46875 1.015625,-0.609376 1.4375,-0.609376 0.656249,0 1.406249,0.515626 1.406249,1.703125 v 0.484375 c -0.671875,0.04687 -1.609375,0.07813 -2.4375,0.484375 -1,0.453125 -1.328124,1.140625 -1.328124,1.71875 0,1.078125 1.281249,1.40625 2.125,1.40625 0.875,0 1.484374,-0.53125 1.734374,-1.15625 z m -0.09375,-2.171875 v 1.328125 c 0,1.265625 -0.953124,1.71875 -1.546875,1.71875 -0.656249,0 -1.203125,-0.46875 -1.203125,-1.140625 0,-0.71875 0.5625,-1.828125 2.75,-1.90625 z m 0,0"
         style="fill:#000000;fill-opacity:1;fill-rule:nonzero;stroke:none;stroke-width:1.33333"
         aria-label="Antenna" />
      <g
         id="g62"
         transform="translate(15.618016,-44.163667)">
        <path
           style="fill:none;stroke:#000000;stroke-width:1px;stroke-linecap:butt;stroke-linejoin:miter;stroke-opacity:1"
           d="M 21.81804,64.415164 H 43.289761 L 32.5539,83.869027 Z"
           id="path61"
           sodipodi:nodetypes="cccc" />
        <path
           style="fill:none;stroke:#000000;stroke-width:1px;stroke-linecap:butt;stroke-linejoin:miter;stroke-opacity:1"
           d="m 32.5539,83.35075 v 27.0079"
           id="path62"
           sodipodi:nodetypes="cc" />
      </g>
    </g>
    <g
       id="g63"
       transform="translate(36.407238,1.1570981)">
      <path
         id="path41-1"
         d="m 305.08743,66.604506 c 0,-6.262346 -5.0765,-11.33884 -11.33883,-11.33884 -6.26233,0 -11.33883,5.076494 -11.33883,11.33884 0,6.262333 5.0765,11.338827 11.33883,11.338827 6.26233,0 11.33883,-5.076494 11.33883,-11.338827 z"
         style="fill:none;stroke:#000000;stroke-width:0.531333;stroke-linecap:butt;stroke-linejoin:miter;stroke-miterlimit:10;stroke-dasharray:none;stroke-opacity:1" />
      <path
         style="fill:none;stroke:#000000;stroke-width:0.533333;stroke-linecap:butt;stroke-linejoin:miter;stroke-dasharray:none;stroke-opacity:1"
         d="M 301.80967,74.528714 285.6407,58.359736"
         id="path55-7"
         sodipodi:nodetypes="cc" />
      <path
         style="fill:none;stroke:#000000;stroke-width:0.533333;stroke-linecap:butt;stroke-linejoin:miter;stroke-dasharray:none;stroke-opacity:1"
         d="M 301.80967,58.359738 285.6407,74.528712"
         id="path63"
         sodipodi:nodetypes="cc" />
    </g>
  </g>
</svg>
